<svg width="18" height="18" viewBox="0 0 18 18" xmlns="http://www.w3.org/2000/svg">
<path d="M15.2231 3.99416H12.6156V2.36488C12.6156 1.6291 12.0109 1.03056 11.2676 1.03056H6.73248C5.98917 1.03056 5.38445 1.62917 5.38445 2.36488V3.99416H2.77692C1.24572 3.99416 0 5.23988 0 6.77108V14.7012C0 15.9519 1.01753 16.9694 2.26828 16.9694H15.7317C16.9824 16.9694 18 15.9519 18 14.7012V6.77108C18 5.23988 16.7542 3.99416 15.2231 3.99416ZM6.44234 2.36488C6.44234 2.20728 6.56707 2.08845 6.73248 2.08845H11.2675C11.4329 2.08845 11.5577 2.20728 11.5577 2.36488V3.99416H6.44234V2.36488ZM16.942 14.7012C16.9421 15.3686 16.3991 15.9115 15.7317 15.9115H2.26828C1.60084 15.9115 1.05788 15.3686 1.05788 14.7012V9.76037C1.22354 9.86433 1.40467 9.94856 1.59901 10.0086C1.60913 10.0117 1.61933 10.0146 1.62959 10.0171L7.0184 11.3341V11.7691C7.0184 12.4521 7.57408 13.0078 8.2571 13.0078H9.74287C10.4259 13.0078 10.9816 12.4521 10.9816 11.7691V11.3341L16.3704 10.0171C16.3807 10.0146 16.3909 10.0118 16.401 10.0086C16.5953 9.94856 16.7764 9.86433 16.9421 9.76037V14.7012H16.942ZM8.07632 11.7691V10.2766C8.07632 10.1769 8.15743 10.0958 8.25713 10.0958H9.7429C9.84261 10.0958 9.92371 10.1769 9.92371 10.2766V11.7691C9.92371 11.8688 9.84261 11.9499 9.7429 11.9499H8.25713C8.15743 11.9499 8.07632 11.8688 8.07632 11.7691ZM16.9421 7.83705C16.9421 8.36882 16.6054 8.83172 16.1025 8.99351L10.9808 10.2452C10.9641 9.57665 10.4154 9.03788 9.7429 9.03788H8.25713C7.58467 9.03788 7.03602 9.57668 7.01921 10.2452L1.89752 8.99354C1.39468 8.83172 1.05788 8.36882 1.05788 7.83705V6.77108C1.05788 5.8232 1.82904 5.05204 2.77692 5.05204H15.2231C16.1709 5.05204 16.9421 5.8232 16.9421 6.77108V7.83705H16.9421Z"/>
</svg>
