<svg width="18" height="18" viewBox="0 0 18 18" xmlns="http://www.w3.org/2000/svg">
<path d="M14.5248 1.38618H13.8534V0.70681C13.8534 0.318647 13.5387 0.0039978 13.1506 0.0039978C12.7624 0.0039978 12.4477 0.318647 12.4477 0.70681V1.38618H5.55221V0.70681C5.55221 0.318647 5.23757 0.0039978 4.8494 0.0039978C4.46124 0.0039978 4.14659 0.318647 4.14659 0.70681V1.38618H3.47523C1.55898 1.38618 0 2.94516 0 4.86138V14.5208C0 16.437 1.55898 17.996 3.47523 17.996H14.5248C16.441 17.996 18 16.437 18 14.5208V4.86138C18 2.94516 16.441 1.38618 14.5248 1.38618ZM3.47523 2.79181H4.14659V4.16229C4.14659 4.55045 4.46124 4.8651 4.8494 4.8651C5.23757 4.8651 5.55221 4.55045 5.55221 4.16229V2.79181H12.4478V4.16229C12.4478 4.55045 12.7624 4.8651 13.1506 4.8651C13.5388 4.8651 13.8534 4.55045 13.8534 4.16229V2.79181H14.5248C15.666 2.79181 16.5944 3.72022 16.5944 4.86138V5.53277H1.40562V4.86138C1.40562 3.72022 2.33404 2.79181 3.47523 2.79181ZM14.5248 16.5904H3.47523C2.33404 16.5904 1.40562 15.6619 1.40562 14.5208V6.9384H16.5944V14.5208C16.5944 15.6619 15.666 16.5904 14.5248 16.5904ZM6.24333 9.7028C6.24333 10.091 5.92868 10.4056 5.54051 10.4056H4.15833C3.77016 10.4056 3.45552 10.091 3.45552 9.7028C3.45552 9.31464 3.77016 8.99999 4.15833 8.99999H5.54051C5.92864 8.99999 6.24333 9.31464 6.24333 9.7028ZM14.5445 9.7028C14.5445 10.091 14.2299 10.4056 13.8417 10.4056H12.4595C12.0714 10.4056 11.7567 10.091 11.7567 9.7028C11.7567 9.31464 12.0714 8.99999 12.4595 8.99999H13.8417C14.2298 8.99999 14.5445 9.31464 14.5445 9.7028ZM10.3899 9.7028C10.3899 10.091 10.0753 10.4056 9.6871 10.4056H8.30492C7.91676 10.4056 7.60211 10.091 7.60211 9.7028C7.60211 9.31464 7.91676 8.99999 8.30492 8.99999H9.6871C10.0752 8.99999 10.3899 9.31464 10.3899 9.7028ZM6.24333 13.8494C6.24333 14.2376 5.92868 14.5522 5.54051 14.5522H4.15833C3.77016 14.5522 3.45552 14.2376 3.45552 13.8494C3.45552 13.4612 3.77016 13.1466 4.15833 13.1466H5.54051C5.92864 13.1466 6.24333 13.4612 6.24333 13.8494ZM14.5445 13.8494C14.5445 14.2376 14.2299 14.5522 13.8417 14.5522H12.4595C12.0714 14.5522 11.7567 14.2376 11.7567 13.8494C11.7567 13.4612 12.0714 13.1466 12.4595 13.1466H13.8417C14.2298 13.1466 14.5445 13.4612 14.5445 13.8494ZM10.3899 13.8494C10.3899 14.2376 10.0753 14.5522 9.6871 14.5522H8.30492C7.91676 14.5522 7.60211 14.2376 7.60211 13.8494C7.60211 13.4612 7.91676 13.1466 8.30492 13.1466H9.6871C10.0752 13.1466 10.3899 13.4612 10.3899 13.8494Z"/>
</svg>
