<svg width="20" height="20" viewBox="0 0 20 20" xmlns="http://www.w3.org/2000/svg"><path fill-rule="evenodd" clip-rule="evenodd" d="M18.6903 1.30967C18.9832 1.60256 18.9832 2.07743 18.6903 2.37033L2.37033 18.6903C2.07744 18.9832 1.60256 18.9832 1.30967 18.6903C1.01678 18.3974 1.01678 17.9226 1.30967 17.6297L17.6297 1.30967C17.9226 1.01677 18.3974 1.01677 18.6903 1.30967Z"/><path fill-rule="evenodd" clip-rule="evenodd" d="M1.30967 1.30967C1.60256 1.01677 2.07744 1.01677 2.37033 1.30967L18.6903 17.6297C18.9832 17.9226 18.9832 18.3974 18.6903 18.6903C18.3974 18.9832 17.9226 18.9832 17.6297 18.6903L1.30967 2.37033C1.01678 2.07743 1.01678 1.60256 1.30967 1.30967Z"/></svg>