<svg width="52" height="52" viewBox="0 0 52 52" fill="none" xmlns="http://www.w3.org/2000/svg">
<path d="M34.1778 3.17496C65.7301 13.0309 51.1688 59.7128 19.5375 49.8411C-12.0937 39.9695 2.56231 -6.71247 34.1778 3.17496Z" fill="#C6D4B8"/>
<path opacity="0.1" d="M34.1778 3.17496C65.7301 13.0309 51.1688 59.7128 19.5375 49.8411C-12.0937 39.9695 2.56231 -6.71247 34.1778 3.17496Z" fill="black"/>
<path d="M31.2119 2.24743C61.297 11.694 46.7198 58.3287 16.5715 48.9136C-13.5768 39.4985 1.07936 -7.16767 31.2119 2.24743Z" fill="#C6D4B8"/>
<path opacity="0.1" d="M4.22027 24.2393C3.32102 32.7727 7.23351 41.6367 17.8193 44.943C42.8403 52.8152 54.9407 14.0212 29.967 6.21201L29.4779 6.07031C52.8267 13.9425 41.2154 50.5165 17.3618 43.0695C13.3049 41.9697 9.765 39.4804 7.36231 36.0377C4.95962 32.5949 3.84732 28.4182 4.22027 24.2393Z" fill="black"/>
<path opacity="0.1" d="M28.4368 11.0472C28.6369 11.128 28.7979 11.283 28.8861 11.4796C28.9743 11.6762 28.9829 11.8993 28.9101 12.1021L28.421 13.3773C30.398 14.3514 32.044 15.8846 33.1539 17.7857C33.2527 17.9136 33.3187 18.0637 33.3462 18.2228C33.3737 18.382 33.3618 18.5454 33.3116 18.6989C33.221 18.9096 33.0517 19.0767 32.8396 19.1649C32.6276 19.2531 32.3895 19.2553 32.1758 19.1712C31.961 19.0942 31.7853 18.9358 31.6867 18.7304C30.7768 17.0672 29.4007 15.7049 27.7269 14.8101L24.2561 23.7056C28.705 26.5868 30.0302 29.1846 28.8154 32.2862C27.5218 35.6555 23.7513 37.0096 19.7284 35.5296L18.766 38.0014C18.685 38.2011 18.5297 38.3618 18.3327 38.4498C18.1357 38.5379 17.9123 38.5464 17.7091 38.4738C17.5092 38.3932 17.3492 38.2373 17.2636 38.0399C17.178 37.8425 17.1736 37.6195 17.2515 37.4189L18.2138 34.8998C15.6364 33.6658 13.5439 31.6107 12.2663 29.0587C12.1862 28.9426 12.1357 28.8088 12.1192 28.6689C12.1027 28.529 12.1207 28.3871 12.1716 28.2557C12.2621 28.0521 12.4253 27.8893 12.6294 27.7991C12.8335 27.7089 13.0639 27.6977 13.2759 27.7676C13.4881 27.8489 13.6625 28.006 13.765 28.2085C14.8042 30.4984 16.5966 32.365 18.8449 33.4986L22.363 24.4614C17.9929 21.5644 16.6993 19.0453 17.9298 15.8807C19.1604 12.7161 22.9309 11.3148 26.8434 12.7318L27.3167 11.5195C27.3565 11.4131 27.4176 11.3158 27.4964 11.2337C27.5751 11.1517 27.6699 11.0866 27.7747 11.0424C27.8796 10.9981 27.9924 10.9758 28.1063 10.9766C28.2201 10.9774 28.3326 11.0014 28.4368 11.0472ZM23.0571 22.8396L26.4174 14.1803C23.2622 13.0467 20.5645 14.1016 19.6653 16.3845C18.766 18.6674 19.3339 20.2733 23.0571 22.8396ZM23.704 25.3115L20.2963 34.0811C23.4515 35.2462 26.2755 34.207 27.222 31.7982C28.1686 29.3893 27.4745 27.7834 23.704 25.3115Z" fill="black"/>
</svg>
