<svg width="28" height="28" viewBox="0 0 28 28" xmlns="http://www.w3.org/2000/svg"><path fill-rule="evenodd" clip-rule="evenodd" d="M18.1036 1.67686C19.4648 1.5028 20.8419 2.05943 22.2412 3.37608L22.2429 3.3776C23.6469 4.70537 24.286 6.05228 24.1901 7.42414C24.0975 8.74977 23.329 9.87176 22.4527 10.7976M22.4527 10.7976L12.8791 20.9309C12.6092 21.2248 12.2458 21.4737 11.9013 21.6579C11.5523 21.8445 11.1487 22.0041 10.7698 22.0715L10.764 22.0725L7.00864 22.7139C6.09798 22.871 5.22473 22.6434 4.60266 22.0534C3.98146 21.4643 3.70696 20.6053 3.80865 19.69L3.80895 19.6874L4.24249 15.891C4.29284 15.5134 4.43309 15.1047 4.59842 14.7502C4.76315 14.3969 4.98791 14.0224 5.25389 13.7392L5.2556 13.7374L14.8339 3.5991C15.7107 2.67291 16.7882 1.84506 18.1036 1.67686M16.1054 4.80154C16.1053 4.8017 16.1055 4.80139 16.1054 4.80154L6.52938 14.9374C6.52918 14.9376 6.52958 14.9372 6.52938 14.9374C6.43374 15.0395 6.30237 15.2369 6.18443 15.4898C6.06863 15.7381 5.99907 15.9679 5.97822 16.1155L5.54795 19.8833C5.54791 19.8837 5.54786 19.8841 5.54782 19.8845C5.49822 20.3336 5.63779 20.6233 5.80686 20.7836C5.97521 20.9433 6.26863 21.0657 6.7113 20.9894L6.71265 20.9892L10.4659 20.3481C10.6121 20.3217 10.8373 20.2423 11.0762 20.1146C11.3183 19.9851 11.5005 19.8455 11.5917 19.7455L11.6022 19.734L21.1806 9.59577C21.9607 8.7717 22.3942 8.02077 22.4444 7.30211C22.4914 6.62958 22.2149 5.76011 21.0414 4.64998C19.8744 3.55215 18.9942 3.32722 18.3255 3.41273C17.611 3.50409 16.8851 3.97802 16.1054 4.80154Z"/><path fill-rule="evenodd" clip-rule="evenodd" d="M13.7369 5.0271C14.2144 4.9527 14.6618 5.27948 14.7362 5.75697C15.1762 8.58102 17.4681 10.7424 20.3177 11.0294C20.7985 11.0778 21.149 11.5069 21.1006 11.9877C21.0521 12.4685 20.6231 12.819 20.1423 12.7706C16.5052 12.4043 13.5704 9.64231 13.0071 6.02636C12.9327 5.54887 13.2595 5.10149 13.7369 5.0271Z"/><path fill-rule="evenodd" clip-rule="evenodd" d="M2.625 25.6667C2.625 25.1834 3.01675 24.7917 3.5 24.7917H24.5C24.9832 24.7917 25.375 25.1834 25.375 25.6667C25.375 26.1499 24.9832 26.5417 24.5 26.5417H3.5C3.01675 26.5417 2.625 26.1499 2.625 25.6667Z"/></svg>