<svg width="18" height="18" viewBox="0 0 18 18" xmlns="http://www.w3.org/2000/svg">
<path d="M1.58203 2.83394H16.418C17.2903 2.83394 18 3.54364 18 4.41597V13.5841C18 14.4564 17.2903 15.1661 16.418 15.1661H1.58203C0.709699 15.1661 0 14.4564 0 13.5841V4.41597C0 3.54364 0.709699 2.83394 1.58203 2.83394ZM1.7885 3.88863L1.99965 4.06444L8.37232 9.37096C8.73605 9.6738 9.26402 9.6738 9.62768 9.37096L16.0003 4.06444L16.2115 3.88863H1.7885ZM16.9453 4.65004L11.753 8.97366L16.9453 12.4293V4.65004ZM1.58203 14.1114H16.418C16.6728 14.1114 16.8859 13.9297 16.9347 13.6892L10.9074 9.67781L10.3025 10.1815C9.92517 10.4957 9.46255 10.6528 8.99996 10.6528C8.53738 10.6528 8.07479 10.4957 7.69739 10.1815L7.09256 9.67781L1.06523 13.6891C1.1141 13.9298 1.32722 14.1114 1.58203 14.1114ZM1.05469 12.4293L6.24698 8.9737L1.05469 4.65004V12.4293Z"/>
</svg>
