<svg width="18" height="18" viewBox="0 0 18 18" xmlns="http://www.w3.org/2000/svg"><path d="M14.2257 11.1504C13.8572 10.7667 13.4127 10.5615 12.9416 10.5615C12.4743 10.5615 12.026 10.7629 11.6423 11.1466L10.4418 12.3432C10.3431 12.2901 10.2443 12.2407 10.1493 12.1913C10.0126 12.1229 9.88339 12.0583 9.77322 11.9899C8.64871 11.2757 7.62677 10.345 6.64662 9.14067C6.17174 8.54042 5.85262 8.03515 5.62088 7.52229C5.9324 7.23736 6.22113 6.94104 6.50226 6.65611C6.60863 6.54974 6.715 6.43956 6.82137 6.33319C7.61917 5.5354 7.61917 4.50206 6.82137 3.70427L5.78424 2.66714C5.66647 2.54937 5.5449 2.4278 5.43093 2.30623C5.20299 2.07069 4.96365 1.82755 4.71672 1.59961C4.34821 1.2349 3.90752 1.04115 3.44404 1.04115C2.98056 1.04115 2.53228 1.2349 2.15237 1.59961C2.14858 1.60341 2.14858 1.60341 2.14478 1.60721L0.853109 2.91027C0.366834 3.39655 0.089505 3.98919 0.0287206 4.67682C-0.0624559 5.78613 0.26426 6.81947 0.514996 7.49569C1.13044 9.15587 2.0498 10.6945 3.42125 12.3432C5.08522 14.3301 7.08731 15.8991 9.37432 17.0046C10.2481 17.4187 11.4144 17.9088 12.7175 17.9924C12.7972 17.9962 12.8808 18 12.9568 18C13.8344 18 14.5714 17.6847 15.1488 17.0578C15.1526 17.0502 15.1602 17.0464 15.164 17.0388C15.3616 16.7995 15.5895 16.583 15.8289 16.3512C15.9922 16.1955 16.1594 16.0321 16.3227 15.8611C16.6988 15.4698 16.8964 15.014 16.8964 14.5467C16.8964 14.0756 16.695 13.6235 16.3113 13.2436L14.2257 11.1504ZM15.5857 15.1507C15.5819 15.1545 15.5819 15.1507 15.5857 15.1507C15.4376 15.3103 15.2856 15.4546 15.1222 15.6142C14.8753 15.8497 14.6246 16.0967 14.389 16.374C14.0053 16.7843 13.5532 16.9781 12.9606 16.9781C12.9036 16.9781 12.8428 16.9781 12.7858 16.9743C11.6575 16.9021 10.609 16.4614 9.8226 16.0853C7.67236 15.0444 5.78424 13.5665 4.21524 11.6936C2.91978 10.1322 2.0536 8.68859 1.47995 7.13859C1.12664 6.19263 0.997472 5.45562 1.05446 4.7604C1.09245 4.31591 1.2634 3.94741 1.57872 3.63209L2.87419 2.33662C3.06034 2.16186 3.25789 2.06689 3.45164 2.06689C3.69098 2.06689 3.88473 2.21125 4.0063 2.33282C4.0101 2.33662 4.0139 2.34042 4.0177 2.34422C4.24944 2.56076 4.46978 2.7849 4.70152 3.02424C4.81929 3.14581 4.94086 3.26738 5.06243 3.39275L6.09956 4.42988C6.50226 4.83258 6.50226 5.20488 6.09956 5.60758C5.98939 5.71775 5.88302 5.82792 5.77284 5.93429C5.45373 6.26101 5.1498 6.56493 4.81929 6.86126C4.81169 6.86885 4.80409 6.87265 4.80029 6.88025C4.47358 7.20697 4.53436 7.52609 4.60275 7.74263C4.60654 7.75403 4.61034 7.76542 4.61414 7.77682C4.88387 8.43025 5.26377 9.04569 5.84123 9.77891L5.84503 9.78271C6.89356 11.0744 7.99907 12.0811 9.21856 12.8523C9.37432 12.9511 9.53388 13.0309 9.68584 13.1069C9.8226 13.1752 9.95177 13.2398 10.0619 13.3082C10.0771 13.3158 10.0923 13.3272 10.1075 13.3348C10.2367 13.3994 10.3583 13.4298 10.4836 13.4298C10.799 13.4298 10.9965 13.2322 11.0611 13.1676L12.3604 11.8684C12.4895 11.7392 12.6947 11.5834 12.934 11.5834C13.1695 11.5834 13.3633 11.7316 13.4811 11.8608C13.4849 11.8646 13.4849 11.8646 13.4887 11.8684L15.5819 13.9616C15.9732 14.3491 15.9732 14.748 15.5857 15.1507Z"/><path d="M9.72763 4.28172C10.723 4.44888 11.6271 4.91995 12.349 5.64177C13.0708 6.36358 13.538 7.26775 13.709 8.2631C13.7508 8.51383 13.9673 8.68859 14.2143 8.68859C14.2447 8.68859 14.2713 8.68479 14.3016 8.68099C14.5828 8.6354 14.7689 8.36947 14.7233 8.08834C14.5182 6.88405 13.9483 5.78613 13.0784 4.91616C12.2084 4.04618 11.1105 3.47633 9.90618 3.27118C9.62505 3.22559 9.36292 3.41174 9.31353 3.68907C9.26414 3.9664 9.4465 4.23613 9.72763 4.28172Z"/><path d="M17.9791 7.94018C17.641 5.95709 16.7064 4.15255 15.2704 2.71652C13.8344 1.28049 12.0298 0.345932 10.0467 0.00781895C9.76942 -0.0415683 9.50728 0.148383 9.4579 0.425712C9.41231 0.706839 9.59846 0.968972 9.87959 1.01836C11.6499 1.31848 13.2645 2.15807 14.5486 3.43834C15.8327 4.72241 16.6684 6.33699 16.9686 8.10734C17.0104 8.35807 17.2269 8.53283 17.4738 8.53283C17.5042 8.53283 17.5308 8.52903 17.5612 8.52523C17.8385 8.48344 18.0285 8.21751 17.9791 7.94018Z"/></svg>