<svg width="20" height="20" viewBox="0 0 20 20" xmlns="http://www.w3.org/2000/svg"><path fill-rule="evenodd" clip-rule="evenodd" d="M18.979 4.36286C18.9532 4.33216 18.9106 4.32174 18.8743 4.33848C18.3361 4.57947 17.77 4.75273 17.1869 4.85508C17.8059 4.38501 18.2672 3.73405 18.5037 2.98763C18.5151 2.9519 18.5033 2.91282 18.4744 2.88956C18.4453 2.8663 18.4049 2.86332 18.373 2.88249C17.6758 3.2999 16.9206 3.59411 16.1276 3.75731C15.4248 3.02113 14.4435 2.6 13.4278 2.6C11.3623 2.6 9.68211 4.29605 9.68211 6.38086C9.68211 6.63301 9.70626 6.88275 9.75419 7.12523C6.89336 6.94695 4.21836 5.56056 2.3995 3.30864C2.38088 3.28557 2.35268 3.27273 2.32318 3.27571C2.29387 3.27794 2.26769 3.29469 2.25294 3.32018C1.9211 3.89484 1.74578 4.55231 1.74578 5.22112C1.74578 6.3803 2.2675 7.46411 3.15591 8.17926C2.69853 8.12381 2.25183 7.97847 1.84902 7.75274C1.82192 7.73729 1.78818 7.73748 1.76108 7.7533C1.73398 7.76893 1.71683 7.79796 1.7161 7.82959L1.71573 7.87798C1.71573 9.54277 2.8025 11.0045 4.3487 11.4899C3.94145 11.5561 3.51891 11.5516 3.10356 11.4716C3.07295 11.4659 3.04088 11.4765 3.01986 11.5003C2.99903 11.5241 2.99202 11.5574 3.00161 11.5876C3.46526 13.0484 4.75354 14.0728 6.25309 14.2005C5.00224 15.1256 3.5237 15.6129 1.96147 15.6129C1.67369 15.6129 1.38389 15.5956 1.09998 15.562C1.05942 15.5573 1.01923 15.5817 1.00522 15.6209C0.991209 15.6606 1.00614 15.7049 1.04117 15.7274C2.73171 16.8218 4.68643 17.4 6.69425 17.4C13.2619 17.4 17.1865 12.0148 17.1865 6.80869C17.1865 6.66372 17.1837 6.5195 17.178 6.37565C17.8865 5.85254 18.4947 5.21219 18.9851 4.47098C19.007 4.43786 19.0046 4.39375 18.979 4.36286Z"/></svg>