<svg width="62" height="62" viewBox="0 0 62 62" xmlns="http://www.w3.org/2000/svg"><path d="M30.8843 61.3191C30.6132 61.3191 30.3533 61.2114 30.1616 61.0197C29.97 60.8281 29.8623 60.5681 29.8623 60.2971V46.4663C29.8623 46.1953 29.97 45.9353 30.1616 45.7437C30.3533 45.552 30.6132 45.4443 30.8843 45.4443C31.1553 45.4443 31.4153 45.552 31.6069 45.7437C31.7986 45.9353 31.9063 46.1953 31.9063 46.4663V60.2698C31.9099 60.4063 31.8862 60.5421 31.8364 60.6693C31.7867 60.7965 31.712 60.9124 31.6167 61.0102C31.5215 61.108 31.4076 61.1857 31.2818 61.2387C31.156 61.2918 31.0208 61.3191 30.8843 61.3191Z"/><path d="M30.884 61.3191C30.6327 61.3195 30.3902 61.2273 30.2026 61.0602L24.0708 55.6914C23.9701 55.6019 23.8881 55.4935 23.8293 55.3723C23.7706 55.2512 23.7362 55.1196 23.7283 54.9852C23.7204 54.8507 23.7391 54.716 23.7832 54.5888C23.8274 54.4616 23.8961 54.3443 23.9856 54.2436C24.0751 54.143 24.1835 54.0609 24.3047 54.0022C24.4259 53.9434 24.5574 53.9091 24.6919 53.9012C24.8263 53.8933 24.961 53.9119 25.0882 53.9561C25.2155 54.0002 25.3327 54.069 25.4334 54.1585L31.5653 59.5272C31.6668 59.6146 31.7501 59.7213 31.8102 59.841C31.8704 59.9607 31.9062 60.0911 31.9157 60.2248C31.9252 60.3584 31.9082 60.4926 31.8656 60.6196C31.823 60.7466 31.7556 60.864 31.6675 60.9648C31.5699 61.0766 31.4494 61.166 31.3142 61.2271C31.179 61.2883 31.0323 61.3196 30.884 61.3191Z"/><path d="M30.8843 61.3191C30.6755 61.321 30.4711 61.2589 30.2986 61.1411C30.1262 61.0233 29.994 60.8556 29.9197 60.6604C29.8455 60.4652 29.8329 60.252 29.8835 60.0494C29.9342 59.8468 30.0456 59.6646 30.203 59.5272L36.3348 54.1585C36.4355 54.069 36.5528 54.0002 36.68 53.9561C36.8072 53.9119 36.9419 53.8933 37.0764 53.9012C37.2108 53.9091 37.3424 53.9434 37.4636 54.0022C37.5847 54.0609 37.6932 54.143 37.7826 54.2436C37.8721 54.3443 37.9409 54.4616 37.985 54.5888C38.0292 54.716 38.0478 54.8507 38.0399 54.9852C38.032 55.1196 37.9977 55.2512 37.9389 55.3723C37.8802 55.4935 37.7981 55.6019 37.6975 55.6914L31.5656 61.0602C31.3791 61.229 31.1358 61.3214 30.8843 61.3191Z"/><path d="M34.6519 41.3769H27.1097C24.3805 41.3733 21.7641 40.2875 19.8342 38.3576C17.9043 36.4278 16.8186 33.8114 16.815 31.0822V11.3239C16.8123 9.96963 17.0765 8.62809 17.5925 7.37595C18.1085 6.12381 18.8661 4.98562 19.8222 4.02641C20.7782 3.06721 21.9139 2.30579 23.1643 1.78567C24.4147 1.26554 25.7554 0.996914 27.1097 0.995126H34.6519C36.0053 0.993336 37.3458 1.25825 38.5967 1.77472C39.8477 2.29119 40.9846 3.0491 41.9426 4.00515C42.9005 4.96119 43.6607 6.09662 44.1796 7.34657C44.6986 8.59651 44.9662 9.93646 44.9671 11.2899V31.0822C44.9662 32.4356 44.6986 33.7755 44.1796 35.0254C43.6607 36.2754 42.9005 37.4108 41.9426 38.3669C40.9846 39.3229 39.8477 40.0808 38.5967 40.5973C37.3458 41.1138 36.0053 41.3787 34.6519 41.3769ZM27.1097 3.03908C24.922 3.04089 22.8244 3.91074 21.2775 5.45767C19.7306 7.0046 18.8607 9.10216 18.8589 11.2899V31.0822C18.8625 33.2693 19.733 35.3658 21.2795 36.9124C22.826 38.4589 24.9226 39.3293 27.1097 39.3329H34.6519C35.7369 39.3347 36.8116 39.1227 37.8145 38.7089C38.8175 38.2952 39.7291 37.6878 40.4973 36.9216C41.2654 36.1553 41.875 35.2452 42.2913 34.2433C42.7075 33.2413 42.9222 32.1671 42.9231 31.0822V11.3239C42.9267 10.2361 42.7153 9.15825 42.3011 8.15235C41.8868 7.14646 41.2779 6.23233 40.5094 5.46247C39.7408 4.69261 38.8276 4.08221 37.8224 3.66633C36.8172 3.25045 35.7397 3.03728 34.6519 3.03908H27.1097Z"/><path d="M30.8842 17.9664C30.6131 17.9664 30.3532 17.8587 30.1615 17.667C29.9699 17.4754 29.8622 17.2154 29.8622 16.9444V11.8141C29.8622 11.543 29.9699 11.2831 30.1615 11.0914C30.3532 10.8998 30.6131 10.7921 30.8842 10.7921C31.1552 10.7921 31.4152 10.8998 31.6068 11.0914C31.7985 11.2831 31.9062 11.543 31.9062 11.8141V16.9444C31.9062 17.2154 31.7985 17.4754 31.6068 17.667C31.4152 17.8587 31.1552 17.9664 30.8842 17.9664Z"/></svg>