<svg width="18" height="18" viewBox="0 0 18 18" xmlns="http://www.w3.org/2000/svg">
<path d="M17.6493 6.50577C17.8598 6.43095 18.0002 6.23165 18 6.00827C17.9997 5.78489 17.8587 5.58594 17.6481 5.51162L9.17546 2.52225C9.06195 2.48217 8.93809 2.48217 8.82457 2.52225L0.351914 5.51162C0.141258 5.5859 0.000281671 5.78489 4.21419e-07 6.00827C-0.000280829 6.23165 0.140239 6.43095 0.350719 6.50577L3.70705 7.69897V11.1389C3.70705 11.7066 4.29933 12.1868 5.46743 12.5659C6.48559 12.8964 7.74018 13.0784 9.00004 13.0784C10.2599 13.0784 11.5144 12.8964 12.5326 12.5659C13.7007 12.1868 14.293 11.7067 14.293 11.1389V7.69897L15.6788 7.20632V11.9729C15.0625 12.1908 14.6197 12.779 14.6197 13.4689C14.6197 14.1588 15.0625 14.747 15.6788 14.9649V16.9788C15.6788 17.27 15.9149 17.5062 16.2061 17.5062C16.4974 17.5062 16.7335 17.27 16.7335 16.9788V14.9649C17.3497 14.747 17.7925 14.1589 17.7925 13.4689C17.7925 12.779 17.3497 12.1908 16.7335 11.9729V6.83135L17.6493 6.50577ZM16.2061 14.0006C15.9129 14.0006 15.6743 13.7621 15.6743 13.4689C15.6743 13.1757 15.9129 12.9371 16.2061 12.9371C16.4993 12.9371 16.7378 13.1757 16.7378 13.4689C16.7378 13.7621 16.4993 14.0006 16.2061 14.0006ZM9 3.57873L15.8931 6.0108L9 8.4613L2.10695 6.01077L9 3.57873ZM13.2383 11.0594C13.1372 11.1613 12.7754 11.4053 11.9587 11.6383C11.0875 11.8868 10.0368 12.0237 9 12.0237C7.96324 12.0237 6.91249 11.8868 6.04125 11.6383C5.22461 11.4053 4.86278 11.1613 4.7617 11.0594V8.07391L8.82334 9.51785C8.88047 9.53817 8.94023 9.54833 8.99996 9.54833C9.05973 9.54833 9.11946 9.53817 9.17659 9.51785L13.2382 8.07391V11.0594H13.2383Z"/>
</svg>
