<svg width="18" height="18" viewBox="0 0 18 18" xmlns="http://www.w3.org/2000/svg">
<path d="M15.364 2.63603C13.6641 0.936172 11.4039 0 9 0C6.59605 0 4.33589 0.936172 2.63603 2.63603C0.936172 4.33589 0 6.59605 0 9C0 11.4039 0.936172 13.6641 2.63603 15.364C4.33589 17.0638 6.59605 18 9 18C11.4039 18 13.6641 17.0638 15.364 15.364C17.0638 13.6641 18 11.4039 18 9C18 6.59605 17.0638 4.33589 15.364 2.63603ZM3.90605 15.0925C4.20323 12.5354 6.40173 10.5612 9 10.5612C10.3697 10.5612 11.6577 11.0948 12.6266 12.0635C13.4451 12.8822 13.9613 13.951 14.0941 15.0923C12.7139 16.2482 10.9369 16.9453 9 16.9453C7.06311 16.9453 5.28621 16.2484 3.90605 15.0925ZM9 9.47488C7.49281 9.47488 6.26646 8.24854 6.26646 6.74135C6.26646 5.23402 7.49281 4.00781 9 4.00781C10.5072 4.00781 11.7335 5.23402 11.7335 6.74135C11.7335 8.24854 10.5072 9.47488 9 9.47488ZM15.0018 14.2008C14.7331 13.1173 14.1726 12.1182 13.3723 11.3178C12.7241 10.6696 11.9572 10.1834 11.1209 9.87863C12.1263 9.19679 12.7882 8.04488 12.7882 6.74135C12.7882 4.65257 11.0888 2.95312 9 2.95312C6.91122 2.95312 5.21178 4.65257 5.21178 6.74135C5.21178 8.04556 5.87425 9.19789 6.88046 9.87959C6.11101 10.16 5.39896 10.5936 4.78633 11.1643C3.89919 11.9905 3.28313 13.0439 2.99748 14.2C1.78775 12.8054 1.05469 10.9867 1.05469 9C1.05469 4.61893 4.61893 1.05469 9 1.05469C13.3811 1.05469 16.9453 4.61893 16.9453 9C16.9453 10.9872 16.212 12.8062 15.0018 14.2008Z"/>
</svg>