<svg width="1440" height="624" viewBox="0 0 1440 624" fill="none" xmlns="http://www.w3.org/2000/svg">
<g clip-path="url(#clip0_282_21422)">
<path opacity="0.5" fill-rule="evenodd" clip-rule="evenodd" d="M78.7882 256.094H79.0502C78.5867 255.137 70.465 237.843 78.6068 233.898C86.7487 229.953 99.022 237.883 99.022 237.883C99.022 237.883 91.4243 204.869 112.908 199.509C134.391 194.149 149.486 232.882 149.486 232.882C149.486 232.882 159.461 220.928 163.411 241.171C163.411 241.171 189.308 232.922 191.283 261.314C191.283 261.314 199.909 256.014 198.921 263.805L198.72 265L78.3448 262.549C78.3448 262.549 72.9236 255.875 78.7882 256.094Z" fill="#F2F0E7"/>
<path d="M520.802 303.844C520.207 301.98 519.354 300.209 518.269 298.581C517.726 297.769 517.024 297.077 516.204 296.546C515.385 296.014 514.466 295.655 513.504 295.49C512.536 295.348 511.549 295.531 510.697 296.011C509.845 296.491 509.177 297.241 508.798 298.142C508.726 293.984 507.717 289.895 505.847 286.18C504.879 284.327 503.425 282.773 501.641 281.684C499.856 280.595 497.808 280.013 495.717 280C493.767 280.262 491.911 281.002 490.314 282.153C488.718 283.304 487.43 284.831 486.565 286.599C484.91 290.169 483.858 293.989 483.454 297.903C481.959 296.089 478.828 296.667 477.273 298.421C475.902 300.352 475.113 302.635 475 305H528L520.802 303.844Z" fill="#EBEBEB"/>
<path fill-rule="evenodd" clip-rule="evenodd" d="M33.0293 479.724L198.711 292.393H227.76L292.249 238L323.863 246.858L366.856 299.989L389.034 294.939L598.269 501.129C598.269 501.129 761.206 618.253 764.992 620.779C766.675 621.901 493.211 617.211 336.845 619.456C140.011 622.302 4 631 4 631L33.0293 479.724Z" fill="#C6D4B8"/>
<path fill-rule="evenodd" clip-rule="evenodd" d="M874.658 514.455L1025.74 378.249H1049.35L1101.65 334L1127.31 341.221L1162.18 384.444L1180.21 380.421L1349.89 548.064C1349.89 548.064 1395 590.121 1397.99 592.192C1399.35 593.097 1271.52 595.833 1144.66 597.683C985 599.976 716 622 716 622L874.658 514.455Z" fill="#C6D4B8"/>
<path fill-rule="evenodd" clip-rule="evenodd" d="M308.315 463.93L296.568 431.434L287.286 457.495L279.989 438.631L279.949 437.568L268.182 405.072L254.831 442.62L254.37 442.379L247.955 409.302L244.307 437.047L230.034 429.509L220.732 381.678L215.48 421.791L213.936 420.989L210.849 408.821L210.749 407.077L197.699 352.73L187.254 406.856L156.663 390.659L147.362 342.847L141.669 386.389L128.638 332.082L117.713 388.594L115.368 388.734L109.815 366.983L109.715 365.219L96.6643 310.872L81.2084 390.879L74.1721 391.32L64.9708 343.99L58.8766 390.438L47.0091 341.023L36.8455 393.666L24.136 394.467L18.7836 373.458L18.6433 370.973L0.0401611 293.452V602.193L528.285 612.396L391.989 515.229L390.686 514.548L388.441 508.714L383.229 510.599L382.607 510.278L388.381 507.672L376.634 475.176L367.071 502.039L361.318 498.992L350.633 457.134L338.946 463.729L350.553 455.37L337.503 401.023L322.548 478.464L311.282 472.51L308.375 464.972" fill="#94AC96"/>
<g opacity="0.3">
<path fill-rule="evenodd" clip-rule="evenodd" d="M308.315 463.929L296.568 431.433L287.287 457.494L279.99 438.63L279.949 437.568L268.182 405.072L254.831 442.619L254.37 442.379L247.955 409.302L244.307 437.046L230.034 429.509L220.732 381.677L215.48 421.791L213.936 420.989L210.849 408.821L210.749 407.076L197.699 352.73L187.255 406.856L156.664 390.658L147.362 342.847L141.669 386.388L128.639 332.081L117.713 388.593L115.368 388.734L109.815 366.983L109.715 365.219L96.6644 310.872L81.2085 390.879L74.1722 391.32L64.9709 343.989L58.8768 390.438L47.0092 341.022L36.8457 393.665L24.1362 394.467L18.7838 373.458L18.6434 370.972L0.0402832 293.451L0.0803762 601.972L528.286 612.396L391.989 515.229L390.686 514.547L388.441 508.714L383.229 510.598L382.608 510.277L388.381 507.671L376.634 475.176L367.072 502.038L361.318 498.991L350.633 457.133L338.946 463.729L350.553 455.369L337.503 401.022L322.548 478.463L311.282 472.509L308.375 464.972" fill="black"/>
</g>
<path fill-rule="evenodd" clip-rule="evenodd" d="M1160.61 475.479L1171.28 446.03L1179.68 469.645L1186.29 452.565L1186.33 451.603L1197 422.154L1209.1 456.173L1209.51 455.953L1215.34 425.983L1218.63 451.122L1231.56 444.286L1240 400.945L1244.77 437.289L1246.15 436.568L1248.96 425.542L1249.04 423.958L1260.86 374.703L1270.35 423.758L1298.05 409.084L1306.49 365.742L1311.66 405.214L1323.47 356L1333.35 407.219L1335.5 407.339L1340.53 387.613L1340.61 386.03L1352.44 336.775L1366.43 409.284L1372.82 409.685L1381.16 366.785L1386.68 408.883L1397.42 364.098L1406.64 411.81L1418.17 412.532L1423.02 393.507L1423.14 391.242L1440 320.978L1438.28 604.981L961.27 610.033L1084.8 521.987L1085.96 521.366L1088 516.073L1092.73 517.777L1093.3 517.477L1088.06 515.131L1098.71 485.662L1107.37 510.019L1112.6 507.273L1122.26 469.324L1132.87 475.298L1122.36 467.74L1134.17 418.485L1147.72 488.669L1157.93 483.257L1160.57 476.441" fill="#94AC96"/>
<g opacity="0.3">
<path fill-rule="evenodd" clip-rule="evenodd" d="M1160.61 475.478L1171.28 446.029L1179.68 469.644L1186.29 452.564L1186.33 451.602L1197 422.153L1209.1 456.172L1209.51 455.952L1215.34 425.982L1218.63 451.121L1231.56 444.285L1240 400.943L1244.77 437.288L1246.15 436.567L1248.96 425.541L1249.04 423.957L1260.86 374.702L1270.35 423.757L1298.05 409.082L1306.49 365.741L1311.66 405.213L1323.47 355.999L1333.35 407.218L1335.5 407.338L1340.53 387.612L1340.61 386.029L1352.44 336.774L1366.43 409.283L1372.82 409.684L1381.16 366.784L1386.68 408.882L1397.42 364.097L1406.64 411.809L1418.17 412.531L1423.02 393.506L1423.14 391.241L1440 320.977L1438.28 604.98L961.27 610.032L1084.8 521.986L1085.96 521.365L1088 516.072L1092.73 517.776L1093.3 517.476L1088.06 515.13L1098.71 485.661L1107.37 510.018L1112.6 507.272L1122.26 469.323L1132.87 475.297L1122.36 467.739L1134.17 418.484L1147.72 488.668L1157.93 483.256L1160.57 476.44" fill="black"/>
</g>
<path fill-rule="evenodd" clip-rule="evenodd" d="M1187.9 539.828L1177.87 494.362L1169.37 524.613L1164.48 509.257L1135.83 585.615L1187.9 583.27V539.828Z" fill="#2C392D"/>
<path fill-rule="evenodd" clip-rule="evenodd" d="M1321.04 575.23L1310.6 553.74L1296.57 546.583L1308.8 548.969L1292.96 510.098L1285.46 506.971H1291.98L1270.77 452.724L1256.55 510.098L1271.57 498.15L1272.07 504.805L1256.55 513.987V516.172L1272.89 506.971L1255.41 520.663L1241.66 580.121L1321.04 575.23Z" fill="#2C392D"/>
<path fill-rule="evenodd" clip-rule="evenodd" d="M1238.15 580.303L1225.7 552.278L1207.74 543.517L1207.3 540.27L1223.42 547.426L1222.76 543.678L1207.74 536.18L1221.61 539.768L1198.28 476.24L1191.34 506.972L1200.06 504.987L1191.4 507.673L1190.1 516.434L1199.24 508.736L1199.42 510.6L1189.98 517.637L1178.01 583.651L1238.15 580.303Z" fill="#2C392D"/>
<path fill-rule="evenodd" clip-rule="evenodd" d="M1382.35 563.262L1369.88 535.217L1351.94 526.476L1351.49 523.229L1367.59 530.385L1366.95 526.637L1351.94 519.139L1365.81 522.727L1342.45 459.199L1335.52 489.911L1344.26 487.926L1335.6 490.633L1334.27 499.373L1343.44 491.675L1343.6 493.559L1334.17 500.596L1322.19 566.61L1382.35 563.262Z" fill="#2C392D"/>
<path fill-rule="evenodd" clip-rule="evenodd" d="M1127.82 583.651L1109.99 519.983L1103.52 551.817L1111.28 556.227L1103.52 552.839L1096.48 584.774L1127.82 583.651Z" fill="#2C392D"/>
<path fill-rule="evenodd" clip-rule="evenodd" d="M1439.2 529.944L1424.36 473.693L1417.89 505.527L1424.74 500.014L1417.89 506.549L1410.85 538.484L1439.2 529.944Z" fill="#2C392D"/>
<path fill-rule="evenodd" clip-rule="evenodd" d="M1096.84 581.586L1084.88 576.775L1047.65 585.616H1019.48L1004.49 592.091L1096.48 584.774L1096.84 581.586Z" fill="#2C392D"/>
<path fill-rule="evenodd" clip-rule="evenodd" d="M310.34 558.552L317.817 512.544L327.981 542.213L332.01 526.577L364.906 601.071L312.785 601.893L310.34 558.552Z" fill="#2C392D"/>
<path fill-rule="evenodd" clip-rule="evenodd" d="M244.067 543.416L225.864 530.806L242.683 538.985L242.563 536.82L242.343 532.931L224.942 476.539L206.8 531.969L213.315 531.568L205.998 535.156L192.367 574.929L204.455 571.802L190.843 579.821L181.622 601.912L261.146 601.932L244.067 543.416Z" fill="#2C392D"/>
<path fill-rule="evenodd" clip-rule="evenodd" d="M264.654 601.893L275.519 573.146L292.939 563.303L293.2 560.035L277.524 568.174L277.965 564.385L292.538 555.985L278.887 560.396L298.613 495.544L307.273 525.815L298.432 524.352L307.233 526.517L309.037 535.177L299.475 528.06L299.414 529.925L309.217 536.38L324.893 601.552L264.654 601.893Z" fill="#2C392D"/>
<path fill-rule="evenodd" clip-rule="evenodd" d="M164.321 493.739L164.141 492.537L162.337 483.876L153.556 481.711L162.377 483.175L153.737 452.924L133.991 517.775L147.642 513.345L133.069 521.765L132.628 525.534L148.304 517.395L148.063 520.662L130.623 530.505L119.758 559.252L179.998 558.912L164.321 493.739Z" fill="#2C392D"/>
<path fill-rule="evenodd" clip-rule="evenodd" d="M372.785 605.2L386.998 540.549L395.257 571.923L387.76 576.814L395.317 572.945L404.138 604.399L372.785 605.2Z" fill="#2C392D"/>
<path fill-rule="evenodd" clip-rule="evenodd" d="M27.0831 529.483L39.6122 434.963L48.7133 481.271L41.3362 488.227L48.8135 482.754L58.4559 529.203L27.0831 529.483Z" fill="#2C392D"/>
<path fill-rule="evenodd" clip-rule="evenodd" d="M59.438 589.543L73.6309 524.893L81.9101 556.266L74.7535 551.194L81.9703 557.288L90.7907 588.742L59.438 589.543Z" fill="#2C392D"/>
<path fill-rule="evenodd" clip-rule="evenodd" d="M408.567 602.254L420.234 596.721L457.902 603.256L486.007 601.532L501.342 607.065L409.109 605.401L408.567 602.254Z" fill="#2C392D"/>
<path d="M1190.94 375.174L1178.31 382.389L1175.78 382.7L1161.76 378.815C1161.76 378.815 1145.52 384.209 1141.21 390.381C1141.21 390.381 1161.76 378.815 1178.51 394.377C1190.94 375.174 1217.03 381.057 1217.03 381.057C1211.33 376.04 1190.94 375.174 1190.94 375.174Z" fill="#2C392D"/>
<path d="M1081.32 291.57L1073.49 296.01L1071.92 296.21L1063.24 293.79C1063.24 293.79 1053.19 297.12 1050.53 300.961C1050.53 300.961 1063.24 293.79 1073.63 303.425C1081.33 291.548 1100.83 295.122 1100.83 295.122C1097.3 292.081 1081.32 291.57 1081.32 291.57Z" fill="#C6D4B8"/>
<path d="M1207.34 231.984L1193.51 236.424L1190.96 236.224L1178.03 229.564C1178.03 229.564 1167.73 231.607 1162.29 236.779C1162.29 236.779 1178.03 229.564 1191.32 248.168C1207.34 231.851 1231.72 242.751 1231.72 242.751C1227.15 236.913 1207.34 231.984 1207.34 231.984Z" fill="#94AC96"/>
</g>
<defs>
<clipPath id="clip0_282_21422">
<rect width="1440" height="624" fill="white"/>
</clipPath>
</defs>
</svg>
