<svg width="1440" height="624" viewBox="0 0 1440 624" fill="none" xmlns="http://www.w3.org/2000/svg">
<path fill-rule="evenodd" clip-rule="evenodd" d="M246.018 161.851H246.421C245.699 160.324 232.808 132.755 245.713 126.498C258.993 120.063 278.157 132.92 278.157 132.92C278.157 132.92 266.084 80.3512 300.221 71.8121C334.358 63.273 358.35 124.889 358.35 124.889C358.35 124.889 374.198 105.735 380.47 138.076C380.47 138.076 421.587 124.93 424.751 170.142C424.751 170.142 438.419 161.713 436.879 174.102L436.56 176L245.31 172.122C245.31 172.122 236.693 161.521 246.018 161.851Z" fill="#F2F0E7"/>
<path opacity="0.5" fill-rule="evenodd" clip-rule="evenodd" d="M78.7882 256.094H79.0502C78.5867 255.137 70.465 237.843 78.6068 233.898C86.7487 229.953 99.022 237.883 99.022 237.883C99.022 237.883 91.4243 204.869 112.908 199.509C134.391 194.149 149.486 232.882 149.486 232.882C149.486 232.882 159.461 220.928 163.411 241.171C163.411 241.171 189.308 232.922 191.283 261.314C191.283 261.314 199.909 256.014 198.921 263.805L198.72 265L78.3448 262.549C78.3448 262.549 72.9236 255.875 78.7882 256.094Z" fill="#F2F0E7"/>
<path d="M929.451 337.182C927.813 332.207 925.499 327.474 922.573 323.112C921.092 320.938 919.182 319.08 916.957 317.652C914.731 316.223 912.236 315.252 909.621 314.797C904.352 314.162 898.52 316.96 896.81 321.902C896.066 310.749 894.457 299.318 888.765 289.634C883.074 279.95 872.555 272.35 861.253 273.044C850.593 273.679 841.483 281.498 836.415 290.765C831.346 300.033 829.717 310.67 827.968 320.989C823.945 316.107 815.398 317.635 811.194 322.378C806.991 327.121 805.905 333.749 805 340H949L929.451 337.182Z" fill="#EBEBEB"/>
<path d="M520.802 303.844C520.207 301.98 519.354 300.209 518.269 298.581C517.726 297.769 517.024 297.077 516.204 296.546C515.385 296.014 514.466 295.655 513.504 295.49C512.536 295.348 511.549 295.531 510.697 296.011C509.845 296.491 509.177 297.241 508.798 298.142C508.726 293.984 507.717 289.895 505.847 286.18C504.879 284.327 503.425 282.773 501.641 281.684C499.856 280.595 497.808 280.013 495.717 280C493.767 280.262 491.911 281.002 490.314 282.153C488.718 283.304 487.43 284.831 486.565 286.599C484.91 290.169 483.858 293.989 483.454 297.903C481.959 296.089 478.828 296.667 477.273 298.421C475.902 300.352 475.113 302.635 475 305H528L520.802 303.844Z" fill="#EBEBEB"/>
<path fill-rule="evenodd" clip-rule="evenodd" d="M1343.29 231.443H1342.71C1343.77 229.198 1362.4 189.045 1343.73 179.929C1324.56 170.491 1296.8 189.226 1296.8 189.226C1296.8 189.226 1314.26 112.626 1264.88 100.183C1215.49 87.7407 1180.78 177.524 1180.78 177.524C1180.78 177.524 1157.85 149.613 1148.78 196.739C1148.78 196.739 1089.3 177.584 1084.74 243.464C1084.74 243.464 1064.95 231.182 1067.17 249.235L1067.64 252L1344.27 246.41C1344.27 246.41 1356.76 230.962 1343.29 231.443Z" fill="#F2F0E7"/>
</svg>
