<svg width="785" height="1000" viewBox="0 0 785 1000" fill="none" xmlns="http://www.w3.org/2000/svg">
<g clip-path="url(#clip0_717_152)">
<g clip-path="url(#clip1_717_152)">
<path d="M147.953 407.522C79.7129 407.522 79.5944 504.388 147.953 504.388C216.312 504.388 216.299 407.522 147.953 407.522Z" fill="#3C4E3E"/>
<path d="M189.813 464.987C186.139 481.547 172.198 495.924 148.003 495.924C90.8719 495.924 90.9648 415.986 148.003 415.986C148.374 415.986 148.746 415.986 149.117 415.986C95.4349 416.954 95.7003 492.643 150.178 492.643C172.397 492.669 185.635 480.004 189.813 464.987Z" fill="#324334"/>
<path d="M148.734 426.332C149.183 426.321 149.618 426.485 149.949 426.789C150.28 427.094 150.48 427.515 150.507 427.965V430.599C155.241 430.906 159.793 432.544 163.641 435.327C164.297 435.801 164.665 436.209 164.665 436.881C164.631 437.356 164.413 437.799 164.057 438.114C163.701 438.429 163.235 438.592 162.761 438.566C162.278 438.583 161.808 438.414 161.447 438.092C158.235 435.645 154.414 434.128 150.402 433.707V452.618C161.592 454.778 166.307 458.624 166.307 465.248C166.307 472.412 159.74 477.469 150.546 477.746V483.014C150.508 483.457 150.305 483.87 149.978 484.171C149.651 484.472 149.223 484.639 148.78 484.639C148.336 484.639 147.908 484.472 147.581 484.171C147.254 483.87 147.051 483.457 147.013 483.014V477.746C140.938 477.355 135.142 475.05 130.451 471.161C130.207 471.015 130.004 470.809 129.861 470.562C129.719 470.316 129.641 470.037 129.637 469.752C129.676 469.289 129.887 468.859 130.227 468.544C130.567 468.23 131.013 468.055 131.475 468.053C131.956 468.045 132.423 468.214 132.789 468.527C136.788 472.075 141.823 474.232 147.144 474.677V455.45C136.099 453.224 131.541 449.51 131.541 442.754C131.541 435.998 138.016 430.73 147 430.533V427.899C147.042 427.468 147.244 427.069 147.564 426.779C147.885 426.489 148.302 426.33 148.734 426.332ZM147.118 452.078V433.641C139.973 433.786 135.297 437.697 135.297 442.557C135.271 447.074 137.622 449.918 147.118 452.078ZM150.362 456.2V474.835C157.717 474.704 162.511 470.779 162.511 465.617C162.511 460.928 159.937 458.084 150.362 456.134V456.2Z" fill="#324334"/>
<path d="M665.623 744.595C578.112 760.201 601.218 889.077 688.879 873.433C776.54 857.79 753.265 728.952 665.623 744.595Z" fill="#324334"/>
<path d="M673.841 743.126C590.437 758.042 613.562 886.881 697.097 871.965C780.632 857.048 757.357 728.229 673.841 743.126Z" fill="#3C4E3E"/>
<path d="M738.355 810.587C737.905 833.54 724.458 855.783 695.106 861.023C625.713 873.384 606.582 766.436 675.807 754.092C676.257 753.993 676.708 753.918 677.158 753.869C612.265 766.79 630.87 867.996 696.963 856.212C723.914 851.402 736.911 831.582 738.355 810.587Z" fill="#324334"/>
<path d="M690.4 768.036C690.966 768.124 691.476 768.424 691.825 768.875C692.174 769.327 692.336 769.894 692.276 770.46L691.845 774.077C697.707 775.233 703.088 778.103 707.299 782.318C707.647 782.569 707.925 782.905 708.106 783.294C708.287 783.682 708.364 784.11 708.33 784.537C708.242 785.145 707.917 785.694 707.427 786.067C706.936 786.44 706.318 786.607 705.705 786.532C705.4 786.507 705.104 786.421 704.833 786.28C704.563 786.139 704.323 785.946 704.129 785.712C700.642 782.011 696.134 779.417 691.169 778.254L688.169 803.592C701.672 808.104 706.924 813.94 705.836 822.816C704.711 832.399 695.802 838.235 684.38 837.266L683.536 844.332C683.469 844.908 683.174 845.434 682.717 845.794C682.26 846.155 681.677 846.319 681.098 846.253C680.518 846.186 679.989 845.893 679.627 845.438C679.265 844.984 679.099 844.405 679.166 843.829L680.01 836.669C672.455 835.211 665.612 831.271 660.58 825.482C660.21 825.161 659.953 824.732 659.845 824.255C659.738 823.779 659.786 823.282 659.982 822.835C660.179 822.388 660.514 822.014 660.938 821.77C661.363 821.525 661.855 821.421 662.343 821.473C662.949 821.535 663.508 821.829 663.9 822.293C668.146 827.536 674.07 831.175 680.685 832.604L683.724 806.799C670.426 802.231 665.381 796.582 666.45 787.539C667.519 778.496 676.353 772.362 687.493 773.387L687.906 769.956C687.981 769.373 688.286 768.843 688.753 768.483C689.221 768.123 689.814 767.962 690.4 768.036ZM684.343 802.194L687.25 777.489C678.397 776.631 671.964 781.218 671.195 787.725C670.539 793.878 672.996 798.017 684.418 802.194H684.343ZM687.681 808.179L684.774 833.145C693.889 834.021 700.434 829.416 701.241 822.592C702.029 816.364 699.29 812.188 687.756 808.179H687.681Z" fill="#324334"/>
<path d="M707.807 -714.343H705.924V392.837H707.807V-714.343Z" fill="#3C4E3E"/>
<path d="M629.707 466.544L635.952 480.193H778.772L784.999 466.544L724.195 424.705H690.511L629.707 466.544Z" fill="#3C4E3E"/>
<path d="M686.295 384.385L690.515 424.696H724.199L728.419 384.385H686.295Z" fill="#324334"/>
<path d="M629.707 466.559L635.952 480.207H778.772L784.999 466.559H629.707Z" fill="#324334"/>
<path d="M542.121 -592.158H540.238V360.881H542.121V-592.158Z" fill="#3C4E3E"/>
<path d="M462.994 422.517L469.24 436.165H612.059L618.286 422.517L557.482 380.677H523.798L462.994 422.517Z" fill="#3C4E3E"/>
<path d="M519.58 340.365L523.8 380.676H557.484L561.704 340.365H519.58Z" fill="#324334"/>
<path d="M462.994 422.524L469.24 436.172H612.059L618.286 422.524H462.994Z" fill="#324334"/>
<path d="M-2 917.51L93.9697 917.063L189.958 916.895L381.897 916.578L573.856 916.895L669.844 917.044L765.814 917.51L669.844 917.958L573.856 918.126L381.897 918.443L189.958 918.126L93.9697 917.958L-2 917.51Z" fill="#3C4E3E"/>
<path d="M381.916 1000.02C573.304 1000.02 728.454 988.613 728.454 974.536C728.454 960.459 573.304 949.048 381.916 949.048C190.529 949.048 35.3789 960.459 35.3789 974.536C35.3789 988.613 190.529 1000.02 381.916 1000.02Z" fill="#3C4E3E"/>
<path d="M456.937 768.334V768.595C456.937 768.595 456.937 768.707 456.937 768.782C456.937 768.856 456.937 769.08 456.843 769.285V769.621C456.784 769.86 456.74 770.103 456.712 770.348C456.712 770.516 456.712 770.683 456.618 770.87C456.524 771.056 456.487 771.653 456.393 772.1C456.299 772.548 456.112 773.611 455.962 774.506L455.118 779.055C455.024 779.54 454.93 780.062 454.837 780.603C454.743 781.143 454.574 782.057 454.424 782.821C454.274 783.586 454.124 784.537 453.955 785.45C453.842 786.084 453.711 786.737 453.599 787.408C453.242 789.403 452.867 791.529 452.436 793.803C452.427 793.859 452.427 793.916 452.436 793.971C451.986 796.507 451.498 799.229 450.973 802.082C450.842 802.828 450.692 803.574 450.542 804.319C450.392 805.065 450.242 805.886 450.11 806.669C450.11 807.153 449.941 807.657 449.829 808.16C449.116 812.125 448.347 816.327 447.522 820.764C447.241 822.256 446.978 823.766 446.697 825.295C446.153 828.278 445.59 831.336 445.009 834.487C444.859 835.214 444.728 835.942 444.615 836.687C443.765 841.249 442.896 845.998 442.008 850.932C441.895 851.436 441.82 851.939 441.727 852.443C441.295 854.755 440.864 857.085 440.451 859.472C440.396 859.654 440.358 859.842 440.339 860.031L439.72 863.425C438.895 867.974 438.044 872.629 437.169 877.39C436.944 878.565 436.719 879.758 436.513 880.97C436.081 883.375 435.631 885.799 435.181 888.241C434.619 891.281 434.056 894.338 433.493 897.452C432.931 900.566 432.368 903.68 431.786 906.775C431.486 908.36 431.205 909.944 430.905 911.529C430.567 913.394 430.211 915.258 429.874 917.253H267.773C287.766 834.674 304.627 768.092 304.627 768.092L456.937 768.334Z" fill="#3C4E3E"/>
<path d="M432.441 786.923C424.314 830.428 416.112 873.934 407.835 917.439H405.584C414.193 873.828 423.064 830.292 431.841 786.736C431.972 786.401 432.498 786.531 432.441 786.923Z" fill="#3C4E3E"/>
<path d="M456.918 768.332C456.918 768.332 456.918 768.426 456.918 768.593C456.918 768.761 456.918 768.705 456.918 768.78C456.918 768.854 456.918 769.078 456.824 769.283V769.619C456.764 769.858 456.721 770.101 456.693 770.346C456.693 770.514 456.693 770.682 456.599 770.868C456.505 771.055 456.449 771.651 456.374 772.099C456.299 772.546 456.092 773.609 455.942 774.504C455.68 775.828 455.417 777.338 455.098 779.053C455.005 779.538 454.911 780.06 454.817 780.601C454.723 781.142 454.554 782.055 454.404 782.82C454.254 783.584 454.104 784.535 453.936 785.449C453.823 786.083 453.692 786.735 453.579 787.406C453.204 789.401 452.829 791.527 452.416 793.802C452.408 793.857 452.408 793.914 452.416 793.97C451.947 796.505 451.46 799.19 450.935 802.043C450.785 802.789 450.653 803.553 450.522 804.318C450.391 805.082 450.222 805.884 450.091 806.667C449.978 807.152 449.903 807.655 449.809 808.159C449.078 812.111 448.309 816.325 447.503 820.763C447.221 822.254 446.959 823.765 446.677 825.294C446.115 828.277 445.552 831.335 444.989 834.486C444.839 835.213 444.708 835.94 444.596 836.686C443.733 841.272 442.864 846.021 441.989 850.931C441.876 851.434 441.801 851.938 441.707 852.441C441.276 854.753 440.844 857.084 440.432 859.47C440.376 859.653 440.339 859.84 440.319 860.03L439.7 863.423C438.85 867.972 438 872.628 437.15 877.388C436.925 878.563 436.7 879.756 436.493 880.968C436.043 883.373 435.612 885.797 435.162 888.24C434.599 891.279 434.036 894.337 433.474 897.45C432.911 900.564 432.33 903.678 431.767 906.773C431.467 908.358 431.186 909.943 430.886 911.528C430.548 913.392 430.192 915.257 429.835 917.252H348.495L341.987 851.024L341.761 848.675L341.499 846.139L340.224 833.18L339.117 821.993L333.828 768.202L456.918 768.332Z" fill="#687969"/>
<path d="M549.021 917.457H374.205C373.905 901.46 373.586 885.984 373.192 871.385C373.192 871.031 373.192 870.677 373.192 870.322C373.192 870.322 352.786 858.315 341.796 848.899C339.928 847.371 338.207 845.674 336.657 843.827C329.624 834.915 322.572 800.645 307.98 768.408H521.788C556.523 835.53 554.084 889.322 549.021 917.457Z" fill="#3C4E3E"/>
<path d="M331.578 841.517C341.968 845.749 351.327 852.257 360.554 858.54C370.157 865.047 378.953 872.58 388.18 879.572C388.537 879.852 388.18 880.43 387.805 880.169C378.071 873.997 367.887 868.571 358.266 862.213C348.645 855.855 339.211 850.038 331.109 842.263C330.79 841.965 331.146 841.331 331.578 841.517Z" fill="#687969"/>
<path d="M330.301 781.738C331.538 788.338 333.151 794.901 334.595 801.483C335.927 807.655 336.921 813.938 338.571 820.128C339.911 826.034 342.932 831.433 347.274 835.678C349.712 837.934 352.394 839.93 354.982 841.98C356.389 843.099 357.889 844.162 359.352 845.299C359.165 844.423 359.014 843.435 358.846 842.633L357.552 835.175C356.614 829.581 355.676 823.988 354.851 818.394C353.163 807.412 351.625 796.318 349.224 785.448C349.217 785.366 349.239 785.283 349.286 785.215C349.334 785.147 349.404 785.098 349.484 785.076C349.564 785.054 349.65 785.06 349.726 785.094C349.801 785.128 349.863 785.187 349.9 785.262C352.657 796.039 355.695 806.704 358.096 817.574C359.277 822.888 363.459 849.271 363.722 851.135C363.985 853 364.078 854.995 364.153 856.915C364.397 858.878 364.397 860.863 364.153 862.826C364.116 862.914 364.054 862.99 363.974 863.043C363.894 863.096 363.8 863.124 363.703 863.124C363.607 863.124 363.513 863.096 363.433 863.043C363.353 862.99 363.29 862.914 363.253 862.826C362.452 861.004 361.891 859.086 361.584 857.12C361.096 855.256 360.665 853.391 360.327 851.415C360.196 850.744 360.102 850.035 360.009 849.327C357.402 847.742 354.982 845.598 352.507 843.92C350.031 842.242 347.199 840.191 344.723 838.102C340.124 834.25 336.808 829.101 335.214 823.335C333.634 817.105 332.617 810.746 332.176 804.336C331.332 796.878 330.713 789.42 329.663 781.962C329.513 781.458 330.169 781.272 330.301 781.738Z" fill="#687969"/>
<path d="M508.158 827.813C505.364 826.377 494.561 828.932 474.868 825.594C471.017 825.099 467.36 823.622 464.253 821.306C459.133 817.148 455.25 810.454 452.137 804.73C448.439 798.283 445.59 791.39 443.66 784.22C443.566 783.773 442.947 783.997 443.022 784.407C443.753 788.453 444.147 792.499 445.235 796.507C446.3 800.268 447.661 803.94 449.305 807.489C452.268 814.127 455.738 821.25 461.74 825.743C467.741 830.237 476.744 831.337 484.396 831.859C488.784 832.157 506.058 831.691 508.383 829.248C508.472 829.143 508.536 829.02 508.573 828.887C508.61 828.755 508.618 828.616 508.596 828.48C508.575 828.344 508.525 828.215 508.449 828.1C508.374 827.985 508.275 827.887 508.158 827.813Z" fill="#687969"/>
<path d="M345.456 529.23C327.451 555.687 202.393 715.029 184.294 718.292C138.175 726.552 95.9388 710.834 113.362 671.343C133.655 625.364 246.523 534.208 321.731 493.841C375.596 464.941 363.236 503.126 345.456 529.23Z" fill="#EDDBC1"/>
<path d="M284.462 617.101L186.373 572.353C186.373 572.353 277.129 509.63 319.534 490.537C363.833 470.643 381.745 482.278 343.916 534.037C306.724 584.975 284.462 617.101 284.462 617.101Z" fill="#687969"/>
<path d="M238.533 537.637C238.326 537.757 238.126 537.887 237.933 538.029L314.247 575.058L314.622 574.536L238.533 537.637ZM217.434 551.416C217.233 551.529 217.039 551.654 216.852 551.789L301.531 592.808L301.888 592.305L217.434 551.416ZM196.634 565.325L196.053 565.717L288.909 610.764C289.003 610.596 289.134 610.428 289.247 610.26L196.634 565.325Z" fill="white"/>
<path d="M285.61 597.305C283.357 596.029 281.041 594.865 278.671 593.819L271.525 590.332C266.705 587.983 261.847 585.708 256.952 583.471C247.218 578.977 237.485 574.446 227.676 570.139C224.975 568.946 222.255 567.771 219.536 566.653C216.816 565.534 213.703 564.49 210.834 563.315C210.665 563.315 210.571 563.502 210.834 563.595C213.215 564.77 215.504 566.149 217.867 567.324C220.23 568.499 222.762 569.729 225.219 570.904C230.082 573.179 234.959 575.428 239.848 577.653C249.469 581.998 259.09 586.379 268.806 590.519C271.525 591.693 274.244 592.812 276.964 593.968C279.683 595.124 282.591 596.578 285.573 597.51C285.629 597.604 285.76 597.38 285.61 597.305Z" fill="#3C4E3E"/>
<path d="M343.992 533.98C306.726 584.974 284.464 617.1 284.464 617.1L253.105 602.762L360.609 483.433C368.768 489.045 364.886 505.397 343.992 533.98Z" fill="#3C4E3E"/>
<path d="M288.556 804.073H541.562C541.562 804.073 502.851 564.072 409.639 481.995C398.123 471.852 372.129 474.165 355.249 482.536C349.191 485.538 327.454 515.762 321.246 544.364C315.038 572.965 287.862 803.308 288.556 804.073Z" fill="#687969"/>
<path d="M518.565 701.603L406.297 479.725C407.49 480.395 408.609 481.189 409.635 482.093C462.562 528.575 497.897 626.015 518.565 701.603Z" fill="#3C4E3E"/>
<path d="M398.703 476.646H373.065C374.266 476.423 375.447 476.218 376.648 476.031H395.759C396.772 476.199 397.822 476.404 398.703 476.646ZM425.148 497.529H342.195C342.063 497.734 341.932 497.939 341.782 498.144H425.673L425.148 497.529ZM441.934 519.102H329.985L329.704 519.717H442.347L441.934 519.102ZM455.588 540.674H322.033C322.033 540.879 321.92 541.084 321.864 541.289H455.963L455.588 540.674ZM467.216 562.321H318.151C318.151 562.526 318.151 562.731 318.151 562.936H467.703C467.497 562.787 467.385 562.526 467.216 562.321ZM477.475 583.894H315.112C315.112 584.099 315.112 584.304 315.112 584.509H477.887C477.737 584.304 477.644 584.099 477.55 583.894H477.475ZM486.646 605.485H312.224C312.224 605.69 312.224 605.895 312.224 606.081H487.04C486.871 605.876 486.796 605.671 486.721 605.485H486.646ZM494.917 627.057H309.448C309.448 627.262 309.448 627.449 309.448 627.654H495.273C495.142 627.449 495.067 627.262 494.992 627.057H494.917ZM502.419 648.63H306.729C306.729 648.835 306.729 649.04 306.729 649.245H502.738C502.682 649.04 502.625 648.835 502.55 648.555L502.419 648.63ZM509.34 670.202H304.047C304.047 670.407 304.047 670.613 304.047 670.818H509.658C509.602 670.613 509.527 670.407 509.471 670.202H509.34ZM515.716 691.775H301.421C301.421 691.98 301.421 692.185 301.421 692.39H515.979L515.716 691.775ZM521.605 713.347H298.814C298.814 713.552 298.814 713.758 298.814 713.963H521.999C521.831 713.813 521.774 713.552 521.737 713.347H521.605ZM527.232 734.92H296.245C296.245 735.125 296.245 735.33 296.245 735.535H527.232C527.232 735.33 527.232 735.125 527.232 734.92ZM532.221 756.492H293.713C293.713 756.697 293.713 756.903 293.713 757.108H532.277C532.24 756.903 532.202 756.697 532.146 756.492H532.221ZM536.797 778.065H291.237C291.237 778.27 291.237 778.475 291.237 778.68H536.928L536.797 778.065ZM540.811 799.581H288.893V800.197H540.961C540.886 800.048 540.848 799.842 540.811 799.581Z" fill="white"/>
<path d="M453.523 488.035C517.29 511.472 674.307 573.672 682.334 610.068C688.186 636.824 568.379 653.455 564.965 649.13C562.283 645.699 451.028 559.539 411.811 513.169C377.715 472.895 433.136 480.54 453.523 488.035Z" fill="#EDDBC1"/>
<path d="M501.704 597.709L585.708 539.909C585.708 539.909 485.331 493.893 440.131 482.482C393.018 470.586 377.433 485.13 423.776 529.524C469.426 573.191 501.704 597.709 501.704 597.709Z" fill="#687969"/>
<path d="M523.61 512.804L458.492 561.505C458.661 561.636 458.792 561.785 458.961 561.897L524.285 513.065L523.61 512.804ZM546.641 522.574L475.184 576.011L475.653 576.421L547.316 522.854C547.091 522.76 546.866 522.649 546.641 522.574ZM569.428 532.512L492.27 590.312C492.424 590.453 492.587 590.583 492.758 590.704L570.066 532.903C569.844 532.789 569.631 532.659 569.428 532.512Z" fill="white"/>
<path d="M562.527 535.941C560.277 537.172 558.157 538.719 556.019 540.155L549.418 544.555C544.954 547.52 540.528 550.577 536.12 553.635C527.343 559.77 518.509 565.867 509.863 572.15C507.481 573.865 505.099 575.599 502.755 577.389C500.411 579.179 497.954 581.342 495.497 583.207C495.347 583.318 495.497 583.524 495.684 583.43C497.897 581.976 500.261 580.708 502.492 579.254C504.724 577.799 507.05 576.271 509.3 574.723C513.727 571.702 518.115 568.645 522.429 565.55C531.038 559.453 539.684 553.374 548.161 547.091L555.25 541.814C557.726 539.95 560.352 538.234 562.659 536.221C562.865 536.071 562.696 535.848 562.527 535.941Z" fill="#3C4E3E"/>
<path d="M493.941 591.094C491.578 589.118 489.383 586.955 487.095 584.904C484.807 582.853 482.444 580.821 480.137 578.77C475.617 574.78 471.041 570.846 466.502 566.856C457.331 558.764 448.16 550.672 439.082 542.468C433.925 537.806 428.861 533.015 423.534 528.54L423.422 528.652C427.604 533.145 432.105 537.377 436.55 541.591C435.613 541.013 434.675 540.417 433.775 539.727C432.874 539.037 431.787 538.291 430.83 537.527C429.874 536.762 428.955 535.905 427.867 535.196C427.698 535.084 427.548 535.308 427.66 535.438C429.346 537.418 431.333 539.123 433.55 540.491C434.637 541.218 435.781 541.871 436.925 542.486L438.182 543.064C442.158 546.793 446.159 550.522 450.185 554.251C459.188 562.505 468.371 570.585 477.736 578.49C480.325 580.653 482.932 582.779 485.557 584.904C488.183 587.03 491.071 589.081 493.753 591.262C493.885 591.43 494.072 591.206 493.941 591.094Z" fill="#3C4E3E"/>
<path d="M363.292 528.611C378.165 530.476 400.802 505.883 408.717 486.995C409.261 485.69 406.016 472.974 402.79 457.331C400.915 447.84 399.039 437.212 397.951 427.405C397.745 425.391 337.598 448.81 337.598 448.81C337.598 448.81 345.85 468.741 347.557 485.858C347.679 487.216 347.679 488.583 347.557 489.941C347.557 490.127 347.557 490.351 347.557 490.612C347.181 498.387 348.926 526.765 363.292 528.611Z" fill="#EDDBC1"/>
<path d="M353.934 490.274C351.815 490.562 349.676 490.675 347.539 490.609C347.539 490.348 347.539 490.124 347.539 489.919C347.679 488.568 347.679 487.206 347.539 485.855C345.851 468.757 337.617 448.807 337.617 448.807C337.617 448.807 386.38 429.789 396.245 427.495C395.533 439.037 390.319 485.668 353.934 490.274Z" fill="#3C4E3E"/>
<path d="M391.256 351.317C403.728 370.615 409.786 434.792 398.533 452.616C382.216 478.477 346.881 490.41 322.612 468.95C299.074 448.16 292.604 364.387 306.033 347.308C325.725 322.137 372.838 322.79 391.256 351.317Z" fill="#EDDBC1"/>
<path d="M351.214 407.346C351.214 407.178 351.589 407.533 351.589 407.701C351.889 412.045 352.959 417.023 357.028 417.993C357.16 417.993 357.16 418.254 357.028 418.235C352.152 418.049 350.802 411.504 351.214 407.346Z" fill="#3C4E3E"/>
<path d="M354.686 402.443C361.625 401.231 363.557 415.103 357.143 416.24C350.728 417.378 348.834 403.487 354.686 402.443Z" fill="#3C4E3E"/>
<path d="M324.677 410.418C324.677 410.269 324.359 410.679 324.396 410.847C325.127 415.136 325.24 420.17 321.527 422.127C321.414 422.127 321.527 422.407 321.527 422.351C326.234 421.083 326.009 414.371 324.677 410.418Z" fill="#3C4E3E"/>
<path d="M320.119 406.47C313.104 406.899 314.492 420.845 321 420.454C327.508 420.062 326.027 406.172 320.119 406.47Z" fill="#3C4E3E"/>
<path d="M359.279 395.356C357.385 395.065 355.507 394.679 353.652 394.2C351.578 394.082 349.601 393.289 348.026 391.944C347.624 391.426 347.406 390.79 347.406 390.136C347.406 389.482 347.624 388.846 348.026 388.327C349.901 386.183 352.658 386.108 355.303 386.463C357.968 386.826 360.405 388.154 362.148 390.192C362.557 390.682 362.807 391.284 362.867 391.918C362.927 392.552 362.793 393.189 362.484 393.746C362.174 394.304 361.702 394.755 361.131 395.043C360.559 395.33 359.914 395.439 359.279 395.356Z" fill="#3C4E3E"/>
<path d="M313.761 400.218C315.582 399.583 317.366 398.848 319.106 398.018C321.096 397.507 322.862 396.361 324.132 394.755C324.432 394.171 324.528 393.504 324.406 392.86C324.283 392.215 323.95 391.63 323.457 391.194C321.244 389.441 318.487 389.889 315.955 390.84C313.401 391.699 311.262 393.474 309.953 395.818C309.686 396.373 309.587 396.993 309.668 397.604C309.75 398.214 310.008 398.787 310.412 399.254C310.816 399.72 311.347 400.06 311.942 400.231C312.537 400.402 313.168 400.398 313.761 400.218Z" fill="#3C4E3E"/>
<path d="M360.313 445.327C359.432 446.483 358.588 448.012 357.031 448.347C355.418 448.54 353.782 448.394 352.23 447.919C352.199 447.911 352.166 447.913 352.137 447.925C352.107 447.937 352.082 447.958 352.065 447.985C352.048 448.012 352.041 448.044 352.043 448.075C352.046 448.107 352.059 448.137 352.08 448.161C352.816 448.92 353.745 449.467 354.768 449.746C355.791 450.025 356.871 450.025 357.894 449.746C358.744 449.392 359.471 448.797 359.982 448.034C360.492 447.27 360.764 446.374 360.763 445.457C360.744 445.327 360.313 445.178 360.313 445.327Z" fill="#3C4E3E"/>
<path d="M353.915 433.089C353.057 434.941 351.823 436.596 350.29 437.951C348.756 439.305 346.958 440.329 345.007 440.958C343.307 441.534 341.531 441.861 339.737 441.927C339.393 441.955 339.048 441.955 338.705 441.927H337.805C337.568 441.914 337.341 441.825 337.159 441.674C336.977 441.523 336.848 441.317 336.792 441.088C336.774 440.939 336.774 440.789 336.792 440.641V440.268C336.248 436.967 335.873 431.896 335.873 431.896C334.729 432.66 328.915 436.296 328.784 434.544C327.64 420.112 326.383 404.059 328.315 389.46C328.335 389.368 328.386 389.286 328.459 389.227C328.532 389.168 328.624 389.136 328.718 389.136C328.812 389.136 328.904 389.168 328.977 389.227C329.05 389.286 329.101 389.368 329.121 389.46C330.753 403.294 329.946 417.315 331.372 431.243C333.434 429.915 335.676 428.886 338.03 428.186C338.517 428.186 338.592 438.012 338.949 439.466C338.944 439.516 338.944 439.566 338.949 439.615C344.575 439.615 348.626 437.303 353.54 432.828C353.747 432.474 354.141 432.716 353.915 433.089Z" fill="#3C4E3E"/>
<path d="M341.555 439.991C343.715 442.097 346.382 443.618 349.301 444.41C350.905 444.794 352.59 444.67 354.121 444.055C357.459 442.676 357.103 439.506 356.09 436.896C355.538 435.513 354.827 434.199 353.971 432.98C350.689 436.573 346.339 439.029 341.555 439.991Z" fill="#3C4E3E"/>
<path d="M349.204 444.415C350.809 444.799 352.494 444.676 354.024 444.061C357.363 442.681 357.006 439.511 355.993 436.901C352.336 437.871 349.054 440.798 349.204 444.415Z" fill="#FF98B9"/>
<path d="M400.784 400.146C389.419 403.036 381.748 375.609 381.748 375.609C381.748 375.609 363.762 378.014 347.989 357.467C347.989 357.467 330.528 378.107 311.098 380.661C280.621 384.633 269.405 347.249 277.789 336.249C289.585 320.643 321.807 327.597 321.807 327.597C321.807 327.597 359.317 303.079 380.416 326.814C380.416 326.814 399.021 321.761 406.786 341.488C414.551 361.214 409.262 397.983 400.784 400.146Z" fill="#3C4E3E"/>
<path d="M386.772 377.528C378.048 378.75 369.162 377.058 361.509 372.717C353.688 368.019 347.162 359.069 346.88 349.784C346.88 349.28 346.036 349.355 346.093 349.784C347.105 359.889 350.8 369.417 359.427 375.458C363.37 378.284 367.988 380.033 372.823 380.53C377.657 381.027 382.538 380.256 386.979 378.292C387.039 378.237 387.082 378.166 387.105 378.088C387.128 378.01 387.128 377.927 387.107 377.848C387.086 377.77 387.044 377.698 386.985 377.642C386.926 377.585 386.852 377.546 386.772 377.528Z" fill="#3C4E3E"/>
<path d="M404.363 329.22C396.393 323.888 387.484 325.491 378.932 328.568C378.463 328.736 378.763 329.519 379.213 329.314C387.315 325.585 397.593 328.531 404.195 333.994C410.797 339.457 412.409 348.089 413.066 356.051C414.416 371.416 409.992 386.733 400.65 399.047C400.5 399.233 400.8 399.476 400.95 399.289C406.436 392.786 410.53 385.238 412.981 377.108C415.432 368.978 416.188 360.436 415.204 352.005C414.154 343.745 411.697 334.143 404.363 329.22Z" fill="#3C4E3E"/>
<path d="M323.289 328.588C317.815 323.938 310.813 321.45 303.615 321.596C294.944 321.986 286.723 325.545 280.527 331.589C278.102 334.097 276.384 337.196 275.547 340.575C274.711 343.953 274.786 347.491 275.764 350.831C277.752 358.737 283.753 364.852 290.111 369.476C290.128 369.494 290.148 369.508 290.171 369.517C290.193 369.526 290.217 369.53 290.242 369.529C290.266 369.528 290.29 369.521 290.311 369.51C290.333 369.499 290.352 369.484 290.367 369.465C290.382 369.446 290.392 369.424 290.398 369.4C290.404 369.377 290.404 369.353 290.4 369.329C290.395 369.305 290.385 369.283 290.371 369.263C290.357 369.244 290.339 369.227 290.318 369.215C284.916 364.61 280.077 358.979 278.258 351.913C277.286 348.623 277.269 345.128 278.208 341.829C279.147 338.531 281.004 335.563 283.566 333.267C293.675 324.28 311.229 319.638 322.801 329.091C322.871 329.112 322.945 329.114 323.016 329.096C323.086 329.078 323.15 329.04 323.201 328.988C323.251 328.936 323.286 328.871 323.302 328.8C323.317 328.73 323.313 328.656 323.289 328.588Z" fill="#3C4E3E"/>
<path d="M392.662 406.858C392.662 406.858 401.421 383.402 411.774 386.012C422.126 388.623 419.163 420.096 409.56 426.771C408.384 427.701 407.031 428.388 405.583 428.79C404.135 429.192 402.621 429.301 401.13 429.112C399.639 428.922 398.201 428.438 396.901 427.687C395.601 426.936 394.466 425.933 393.562 424.739L392.662 406.858Z" fill="#EDDBC1"/>
<path d="M410.705 394.986C410.738 394.977 410.774 394.98 410.805 394.994C410.836 395.009 410.862 395.033 410.877 395.064C410.893 395.094 410.897 395.129 410.889 395.162C410.882 395.196 410.863 395.226 410.836 395.247C404.16 400.188 402.04 408.075 401.159 415.906C402.659 412.587 405.285 410.312 409.655 411.972C409.699 411.99 409.737 412.021 409.764 412.061C409.791 412.101 409.805 412.148 409.805 412.195C409.805 412.243 409.791 412.29 409.764 412.33C409.737 412.37 409.699 412.401 409.655 412.419C408.237 412.345 406.831 412.708 405.629 413.459C404.427 414.21 403.488 415.312 402.94 416.614C402.073 418.81 401.444 421.091 401.065 423.42C400.896 424.166 399.602 424.128 399.64 423.289C399.65 423.228 399.65 423.165 399.64 423.103C396.808 413.743 400.746 398.603 410.705 394.986Z" fill="#3C4E3E"/>
<path d="M652.683 765.2C634.847 827.065 583.814 877.333 573.368 883.915C564.478 889.508 559.845 892.379 559.845 892.379C544.091 902.821 533.251 899.987 533.251 899.987C533.251 899.987 518.603 917.383 506.562 910.335C493.04 902.466 516.24 879.589 521.266 859.247C532.763 812.634 536.007 743.218 537.977 729.439L652.683 765.2Z" fill="#EDDBC1"/>
<path d="M567.836 818.829C564.179 832.477 560.934 845.976 555.439 859.065C549.4 873.422 541.185 886.231 533.139 899.469C533.101 899.548 533.091 899.638 533.113 899.724C533.135 899.809 533.186 899.883 533.258 899.935C533.329 899.986 533.417 900.01 533.505 900.004C533.593 899.997 533.676 899.96 533.739 899.898C552.138 878.214 565.529 847.188 569.036 819.108C569.13 818.419 568.023 818.232 567.836 818.829Z" fill="#3C4E3E"/>
<path d="M597.129 821.64C592.834 834.692 585.125 857.663 559.468 892.119C559.375 892.231 559.468 892.399 559.656 892.287C578.905 872.938 592.354 848.644 598.498 822.125C598.648 821.286 597.429 820.782 597.129 821.64Z" fill="#3C4E3E"/>
<path d="M531.546 802.23C530.627 795.574 527.101 796.002 521.025 806.313C514.948 816.624 499.719 862.547 484.059 855.909C468.398 849.272 490.829 784.778 502.27 768.389C513.71 752 537.904 729.439 537.904 729.439C536.141 742.864 534.735 775.847 531.546 802.23Z" fill="#EDDBC1"/>
<path d="M682.297 610.068C694.806 649.13 661.797 736.24 652.682 765.196C648.706 777.819 532.763 744.109 537.095 730.628C545.985 703.052 568.979 652.859 564.927 649.13C561.72 646.165 670.912 574.586 682.297 610.068Z" fill="#EDDBC1"/>
<path d="M596.625 625.636C595.087 626.233 593.549 626.699 592.049 627.501C590.548 628.303 588.954 628.937 587.472 629.738C584.6 631.34 581.865 633.173 579.295 635.22C576.702 637.218 574.246 639.385 571.943 641.709C570.743 642.902 569.58 644.151 568.473 645.438C567.351 646.634 566.369 647.954 565.548 649.372C565.506 649.439 565.484 649.517 565.484 649.596C565.484 649.674 565.506 649.752 565.548 649.819C565.548 649.819 565.548 649.95 565.66 649.968C566.148 650.174 566.429 649.763 566.786 649.465L568.549 647.843C569.786 646.706 570.987 645.494 572.3 644.338C574.794 642.044 577.42 639.844 580.12 637.774C582.821 635.705 585.597 633.766 588.41 631.864C589.817 630.913 591.205 629.999 592.63 629.011C594.055 628.023 595.462 627.147 596.925 626.308C597.281 626.047 597.056 625.487 596.625 625.636Z" fill="#3C4E3E"/>
<path d="M177.523 606.454C158.767 619.506 101.658 670.351 113.174 698.133C124.69 725.914 168.651 725.243 230.131 714.186L177.523 606.454Z" fill="#EDDBC1"/>
<path d="M175.834 607.67C201.022 586.806 237.613 561.467 252.598 562.269C268.315 563.108 323.436 568.291 335.852 573.587C348.268 578.882 383.978 613.432 387.635 624.88C390.561 634.053 372.443 642.704 349.45 627.993C327.938 614.233 323.474 609.889 316.459 607.484C309.445 605.078 281.8 610.355 278.462 620.722C276.492 626.837 284.463 643.338 295.548 646.825C306.632 650.312 318.054 643.767 333.677 644.606C349.3 645.445 364.304 660.66 361.34 665.731C358.377 670.803 351.325 668.062 330.001 675.147C316.291 679.715 299.992 687.919 276.792 701.493C253.03 715.384 218.652 715.141 218.652 715.141L175.834 607.67Z" fill="#EDDBC1"/>
<path d="M350.405 630.6C387.915 642.272 370.605 697.555 333.001 685.865C295.397 674.174 312.82 618.891 350.405 630.6Z" fill="#C6D4B8"/>
<path opacity="0.1" d="M350.405 630.6C387.915 642.272 370.605 697.555 333.001 685.865C295.397 674.174 312.82 618.891 350.405 630.6Z" fill="black"/>
<path d="M346.881 629.505C382.647 640.692 365.317 695.919 329.476 684.769C293.635 673.619 311.059 618.355 346.881 629.505Z" fill="#C6D4B8"/>
<path opacity="0.1" d="M314.793 655.543C313.724 665.649 318.375 676.146 330.959 680.061C360.705 689.384 375.09 643.442 345.401 634.194L344.819 634.026C372.577 643.349 358.773 686.662 330.416 677.843C325.593 676.54 321.384 673.592 318.528 669.515C315.672 665.438 314.349 660.492 314.793 655.543Z" fill="black"/>
<g opacity="0.1">
<path d="M343.582 639.926C343.819 640.021 344.011 640.205 344.116 640.438C344.221 640.67 344.231 640.935 344.144 641.175L343.563 642.685C345.913 643.839 347.87 645.654 349.189 647.906C349.307 648.057 349.385 648.235 349.418 648.423C349.451 648.612 349.436 648.805 349.377 648.987C349.269 649.237 349.068 649.435 348.816 649.539C348.564 649.643 348.281 649.646 348.027 649.546C347.771 649.455 347.562 649.268 347.445 649.024C346.363 647.055 344.727 645.441 342.738 644.382L338.611 654.916C343.9 658.328 345.476 661.405 344.032 665.078C342.494 669.068 338.011 670.672 333.229 668.919L332.085 671.846C331.988 672.083 331.804 672.273 331.57 672.377C331.335 672.481 331.07 672.492 330.828 672.406C330.591 672.31 330.4 672.125 330.299 671.892C330.197 671.658 330.192 671.394 330.284 671.156L331.428 668.173C328.364 666.712 325.877 664.278 324.358 661.256C324.262 661.118 324.202 660.96 324.183 660.794C324.163 660.628 324.185 660.46 324.245 660.305C324.353 660.064 324.547 659.871 324.789 659.764C325.032 659.657 325.306 659.644 325.558 659.727C325.81 659.823 326.018 660.009 326.139 660.249C327.375 662.961 329.506 665.171 332.178 666.514L336.361 655.811C331.166 652.381 329.628 649.397 331.091 645.65C332.554 641.902 337.036 640.243 341.687 641.921L342.25 640.485C342.297 640.359 342.37 640.244 342.464 640.146C342.557 640.049 342.67 639.972 342.794 639.92C342.919 639.867 343.053 639.841 343.189 639.842C343.324 639.843 343.458 639.871 343.582 639.926ZM337.186 653.891L341.181 643.636C337.43 642.293 334.223 643.543 333.154 646.246C332.085 648.95 332.76 650.852 337.186 653.891ZM337.955 656.818L333.904 667.203C337.655 668.583 341.012 667.353 342.137 664.5C343.263 661.647 342.438 659.745 337.955 656.818Z" fill="black"/>
</g>
<path d="M252.602 562.271C271.132 557.274 310.348 553.47 336.456 563.613C354.104 570.475 379.142 632.992 369.989 640.357C360.837 647.722 353.11 640.786 342.982 629.17C339.231 624.937 324.527 597.249 316.613 598.443C305.21 600.139 277.808 616.435 277.808 616.435L252.602 562.271Z" fill="#EDDBC1"/>
<path d="M371.941 636.013C374.754 621.824 367.008 605.882 358.4 591.003C358.25 590.779 357.893 591.003 358.025 591.19C360.219 594.919 371.716 621.992 371.659 635.938C371.659 636.181 371.903 636.143 371.941 636.013Z" fill="#3C4E3E"/>
<path d="M252.602 562.271C271.132 557.274 310.348 553.47 336.456 563.613C354.104 570.475 364.157 630.568 355.004 637.933C345.852 645.298 334.205 635.975 325.859 620.705C323.158 615.764 318.357 594.602 310.498 595.739C299.095 597.436 271.113 601.892 271.113 601.892L252.602 562.271Z" fill="#EDDBC1"/>
<path d="M287.859 598.626C290.803 597.862 291.835 597.582 294.798 596.855C297.761 596.128 300.706 595.475 303.707 594.99C306.273 594.386 308.923 594.216 311.546 594.487C314.029 595.047 316.261 596.395 317.904 598.328C321.786 602.542 323.156 608.676 324.862 613.971C326.738 619.9 331.708 631.125 338.685 636.234C340.526 637.719 342.66 638.805 344.949 639.422C346.625 639.964 348.411 640.079 350.144 639.758C357.177 637.595 358.584 629.167 358.509 622.212C358.359 609.161 354.195 596.109 349.431 584.195C348.269 581.268 347.031 578.359 345.793 575.45C344.594 572.03 342.676 568.902 340.166 566.277C335.759 562.231 324.412 560.143 320.924 559.453C320.661 559.453 320.792 559.005 321.055 559.061C325.312 559.826 337.072 560.441 343.899 567.265C346.374 569.763 347.65 573.306 349.038 576.476C350.425 579.645 351.963 583.169 353.276 586.581C355.903 593.175 358.004 599.965 359.559 606.886C360.966 613.449 362.204 620.739 361.097 627.396C360.141 633.194 356.108 639.03 350.275 640.746C345.38 642.219 340.504 639.217 338.366 637.744C336.267 636.279 334.375 634.542 332.739 632.579C329.399 627.922 326.403 623.031 323.775 617.943C321.299 612.908 320.192 607.166 317.304 602.355C316.66 601.184 315.787 600.152 314.738 599.32C313.688 598.487 312.482 597.871 311.19 597.508C308.566 597.116 305.899 597.116 303.275 597.508C298.224 597.708 293.201 598.37 288.271 599.484C286.977 599.745 286.621 598.943 287.859 598.626Z" fill="#3C4E3E"/>
<path d="M238.402 565.868C243.354 562.96 271.599 545.359 282.702 542.263C293.805 539.168 337.204 533.183 345.888 543.009C356.803 555.371 324.207 565.682 309.615 568.87C295.024 572.058 282.158 588.298 282.158 588.298L238.402 565.868Z" fill="#EDDBC1"/>
<path d="M332.047 562.042C327.154 562.93 322.309 564.063 317.531 565.435C312.912 566.421 308.373 567.748 303.952 569.407C299.725 571.366 295.848 573.999 292.474 577.201C290.768 578.748 289.192 580.37 287.635 582.048C286.079 583.726 284.391 585.889 282.665 587.642C282.478 587.828 282.665 588.145 282.947 587.94C286.256 584.782 289.764 581.836 293.449 579.121C297.199 576.236 301.286 573.813 305.622 571.905C314.268 568.176 323.589 566.312 332.254 562.583C332.61 562.49 332.385 561.986 332.047 562.042Z" fill="#3C4E3E"/>
<path d="M352.807 638.688C356.145 640.553 359.915 642.417 363.872 642.25C365.563 642.203 367.201 641.658 368.58 640.683C369.3 640.164 369.933 639.535 370.455 638.819C371.078 638.097 371.423 637.179 371.43 636.227C371.43 635.966 371.787 635.985 371.731 636.227C371.643 636.758 371.592 637.293 371.581 637.831C371.502 638.278 371.376 638.715 371.205 639.136C370.878 639.969 370.387 640.73 369.761 641.373C368.371 642.786 366.539 643.687 364.566 643.928C359.896 644.562 355.808 642.063 352.6 639.005C352.558 638.978 352.528 638.935 352.518 638.886C352.507 638.838 352.517 638.786 352.544 638.744C352.571 638.702 352.614 638.673 352.664 638.662C352.713 638.652 352.764 638.661 352.807 638.688Z" fill="#3C4E3E"/>
<path d="M277.564 594.072C273.48 599.917 269.784 606.021 266.499 612.344C263.346 618.651 261.123 625.377 259.897 632.314C258.715 639.772 259.334 647.23 259.503 654.837C259.66 658.429 259.516 662.027 259.072 665.595C258.614 668.704 257.822 671.754 256.709 674.694C254.015 681.312 249.702 687.157 244.161 691.699C243.955 691.885 244.161 692.221 244.461 692.071C249.701 688.461 254.08 683.751 257.289 678.274C260.497 672.797 262.457 666.687 263.029 660.375C263.704 652.655 262.391 644.918 263.029 637.18C263.685 630.136 265.248 623.206 267.68 616.558C270.346 608.799 273.744 601.308 277.827 594.184C277.842 594.149 277.842 594.11 277.828 594.075C277.814 594.04 277.786 594.012 277.752 593.998C277.734 593.99 277.716 593.986 277.697 593.986C277.678 593.986 277.66 593.989 277.642 593.996C277.607 594.01 277.579 594.038 277.564 594.072Z" fill="#3C4E3E"/>
<path d="M209.051 582.423C194.484 591.257 180.609 601.173 167.546 612.087C154.331 622.809 142.377 634.98 131.911 648.371C126.122 655.963 121.061 664.078 116.795 672.61C116.795 672.777 116.945 672.908 117.058 672.74C121.404 665.495 126.228 658.543 131.499 651.932C136.722 645.376 142.3 639.108 148.21 633.156C160.295 621.189 173.259 610.133 186.995 600.08C194.722 594.3 201.812 588.781 209.501 582.982C210.27 582.423 209.876 581.919 209.051 582.423Z" fill="#3C4E3E"/>
<path d="M425.748 938.9C425.617 939.665 425.466 940.429 425.316 941.212C425.448 940.448 425.598 939.665 425.729 938.9H425.748Z" fill="#3C4E3E"/>
<path d="M128.238 732.778C102.9 766.881 76.4931 806.464 70.0977 849.236C70.0977 849.87 71.0729 850.094 71.2229 849.441C74.1483 837.779 77.909 826.339 82.476 815.209C99.1305 810.641 115.466 806.912 124.225 790.467C133.133 773.574 132.008 751.554 130.32 733.151C130.095 732.163 128.745 732.107 128.238 732.778Z" fill="#C6D4B8"/>
<path d="M82.6222 814.875C94.0065 789.498 108.617 764.01 127.184 743.128C127.316 742.979 127.503 743.128 127.39 743.333C115.237 758.249 105.991 774.396 96.9698 790.859C105.353 782.395 114.543 774.825 122.495 765.838C122.645 765.67 122.908 765.838 122.758 766.099C114.862 775.421 106.254 785.732 95.9758 792.705C93.2 797.752 90.4117 802.817 87.611 807.901C88.3049 807.51 89.0176 807.174 89.7303 806.82C89.8428 806.82 89.9554 806.95 89.8428 807.006C89.0551 807.398 88.2675 807.827 87.461 808.162C86.1294 810.567 84.8165 812.954 83.4286 815.359C83.1285 815.881 82.3784 815.415 82.6222 814.875Z" fill="#3C4E3E"/>
<path d="M91.1032 806.014C97.9149 802.234 104.412 797.919 110.533 793.111C110.702 792.981 110.946 793.204 110.777 793.354C104.832 798.421 98.3256 802.8 91.3844 806.405C91.0656 806.648 90.7843 806.2 91.1032 806.014Z" fill="#3C4E3E"/>
<path d="M67.1288 842.877C67.1288 843.399 68.0665 843.38 68.0478 842.877C68.179 828.781 68.0477 814.629 68.2728 800.477C71.9113 793.206 79.6946 789.178 85.1524 783.343C89.0469 779.073 92.4385 774.375 95.2614 769.34C101.78 757.313 105.768 744.092 106.983 730.483C108.484 715.418 102.726 665.71 96.3304 667.444C93.0295 668.32 82.3016 692.951 79.4509 701.098C74.8409 714.526 71.4698 728.344 69.3794 742.379C64.1655 775.474 64.5968 809.52 67.1288 842.877Z" fill="#C6D4B8"/>
<path d="M67.0183 782.115C67.7873 764.291 71.8384 746.298 75.6082 729.014C79.678 710.369 84.4418 692.861 94.0819 676.248C94.2694 675.931 94.7196 676.248 94.5695 676.528C88.1354 689.443 83.154 703.024 79.7156 717.025C80.372 716.018 81.1597 715.067 81.8161 714.116C82.0787 713.743 82.6975 714.116 82.4537 714.489C81.59 715.99 80.5786 717.401 79.4342 718.703C79.4134 718.712 79.3911 718.716 79.3686 718.716C79.346 718.716 79.3237 718.712 79.3029 718.703C75.9832 732.016 73.6764 745.627 71.5758 759.219L72.0259 758.697C72.0484 758.678 72.0765 758.667 72.1059 758.666C72.1353 758.665 72.1642 758.674 72.188 758.691C72.2118 758.708 72.2291 758.733 72.2371 758.761C72.2451 758.789 72.2435 758.819 72.2323 758.846C71.9885 759.294 71.6883 759.741 71.4257 760.189C70.3942 767.087 69.4378 773.967 68.4813 780.792C80.8221 770.294 91.3812 757.932 97.3266 742.699C97.3266 742.699 97.4579 742.699 97.4391 742.699C91.6063 758.492 82.435 772.532 68.2937 782.134L67.506 787.634C67.506 788.007 66.8496 787.914 66.8496 787.541C66.8496 785.919 66.8495 784.297 66.9996 782.675C66.887 782.544 66.812 782.283 67.0183 782.115Z" fill="#3C4E3E"/>
<path d="M72.8335 756.286C82.2111 742.284 91.0823 728.692 98.0029 713.216C98.0029 713.048 98.3779 713.216 98.3029 713.347C92.4889 728.729 84.3304 744.298 73.3587 756.697C73.0961 756.902 72.646 756.566 72.8335 756.286Z" fill="#3C4E3E"/>
<path d="M85.3801 709.766C89.2812 702.886 93.4074 696.192 97.0834 689.256C97.1959 689.07 97.4584 689.256 97.3834 689.424C94.3616 696.708 90.5373 703.636 85.9803 710.083C85.7177 710.456 85.1551 710.083 85.3801 709.766Z" fill="#3C4E3E"/>
<path d="M83.8654 712.749V712.868C83.7662 712.868 83.7662 712.749 83.8654 712.749Z" fill="#3C4E3E"/>
<path d="M57.5293 802.137C57.3533 811.47 56.2476 820.764 54.2283 829.881C54.3784 830.888 54.5097 831.895 54.6598 832.92C57.5577 822.843 59.2387 812.459 59.6674 801.988C59.7513 801.843 59.7955 801.679 59.7955 801.512C59.7955 801.345 59.7513 801.181 59.6674 801.037C60.0678 787.002 59.0183 772.963 56.5353 759.141C52.1466 733.243 42.5628 708.407 24.4079 688.998C24.2579 688.869 24.0803 688.777 23.8887 688.728C23.6972 688.678 23.4969 688.673 23.3031 688.713C23.1093 688.752 22.9272 688.836 22.7708 688.956C22.6144 689.077 22.4879 689.231 22.4011 689.408C15.0678 707.941 17.6185 730.036 23.8639 748.513C27.26 758.522 32.1128 767.983 38.2678 776.593C44.532 785.263 52.4841 792.628 57.5293 802.137Z" fill="#C6D4B8"/>
<path d="M26.5833 697.633C43.8005 725.395 55.7663 758.323 57.2292 791.12C57.2292 791.716 56.2726 791.865 56.1975 791.269C55.7849 788.323 55.3349 785.395 54.866 782.487C47.7578 775.7 40.4433 768.54 35.3419 760.113C35.2482 759.963 35.4732 759.796 35.5858 759.926C41.5009 767.122 47.832 773.971 54.5471 780.436C53.2968 773.177 51.8277 766.036 50.1397 759.013C49.6708 758.49 49.2207 757.95 48.7706 757.428C48.3205 756.906 48.9768 756.57 49.2769 756.906C49.577 757.241 49.5583 757.223 49.6896 757.372C47.2693 747.73 44.2694 738.241 40.706 728.956C36.3173 723.773 31.3284 719.28 28.2338 713.015C28.2338 712.866 28.3651 712.754 28.4588 712.884C31.0283 716.464 33.5039 720.063 36.411 723.382C37.5738 724.705 38.8491 725.955 40.0495 727.241C36.0783 717.179 31.3707 707.42 25.9644 698.043C25.9242 697.962 25.915 697.869 25.9386 697.781C25.9623 697.694 26.0171 697.618 26.0928 697.568C26.1686 697.517 26.2601 697.496 26.3504 697.508C26.4406 697.52 26.5234 697.564 26.5833 697.633Z" fill="#3C4E3E"/>
<path d="M30.0694 731.879C35.6959 739.337 41.9601 746.422 47.1365 754.123C47.2866 754.346 46.9677 754.57 46.7802 754.402C40.1409 748.193 34.5143 739.747 29.6942 732.028C29.5442 731.86 29.9006 731.674 30.0694 731.879Z" fill="#3C4E3E"/>
<path d="M47.9289 755.839L48.1544 756.082C48.3235 756.25 48.1544 756.493 47.9101 756.343L47.6658 756.101C47.4967 755.933 47.7598 755.69 47.9289 755.839Z" fill="#3C4E3E"/>
<path d="M-0.366855 751.1C1.00226 765.382 8.56054 782.461 17.788 793.462C21.8446 798.246 26.8585 802.139 32.5107 804.891C38.8874 808.024 45.6393 811.641 52.1661 814.214C55.299 822.137 57.6298 830.35 59.1242 838.732C59.3305 838.024 59.5556 837.278 59.7619 836.551C55.5232 800.379 31.9856 769.428 1.865 749.627C1.62758 749.465 1.34686 749.377 1.05889 749.375C0.770919 749.373 0.488813 749.456 0.248889 749.614C0.00896427 749.773 -0.1778 749.999 -0.287526 750.264C-0.397252 750.528 -0.424899 750.82 -0.366855 751.1Z" fill="#C6D4B8"/>
<path d="M10.0223 761.697C9.81597 761.51 10.0224 761.137 10.3412 761.305C26.8865 773.543 40.08 789.71 48.714 808.328C48.9203 808.813 48.2452 809.242 47.9639 808.757C46.5572 806.315 45.1318 803.947 43.6876 801.616C36.8045 800.33 30.2966 795.519 25.1952 790.951C25.0451 790.839 25.1951 790.634 25.4015 790.765C28.029 793.138 30.9465 795.174 34.0851 796.824C36.8983 798.241 39.9178 799.136 42.8249 800.274C40.2742 796.246 37.6297 792.387 34.854 788.658C27.4408 785.846 20.4882 781.957 14.2234 777.116C14.0171 776.967 14.2235 776.65 14.411 776.781C20.629 780.512 27.0395 783.916 33.6162 786.98C29.4159 781.482 24.8878 776.239 20.0563 771.28C17.7119 770.05 15.3487 768.819 13.0794 767.551C13.0428 767.527 13.016 767.49 13.0038 767.448C12.9916 767.406 12.9948 767.361 13.0127 767.321C13.0307 767.281 13.0622 767.248 13.1018 767.229C13.1414 767.21 13.1866 767.205 13.2294 767.216C15.1103 767.869 16.905 768.745 18.5746 769.826C15.8176 767.029 13.0231 764.326 10.0223 761.697Z" fill="#3C4E3E"/>
<path d="M10.658 774.186C11.0706 774.423 11.4599 774.698 11.8208 775.007C11.9333 775.1 11.8207 775.249 11.6707 775.193C11.253 775.002 10.8515 774.778 10.4703 774.522C10.264 774.391 10.4517 774.056 10.658 774.186Z" fill="#3C4E3E"/>
<path d="M106.742 917.029H24.2383L30.8963 842.318L32.3592 825.835H98.6209L100.084 842.318L106.742 917.029Z" fill="#687969"/>
<path d="M100.084 842.318H30.8965L32.3594 825.835H98.621L100.084 842.318Z" fill="#3C4E3E"/>
<path d="M102.577 814.329H28.4004V830.644H102.577V814.329Z" fill="#687969"/>
<path d="M227.15 774.246C227.769 771.076 228.144 768.242 228.463 765.222C228.781 762.201 228.931 759.199 228.913 756.123C228.928 752.96 228.652 749.802 228.087 746.688C227.495 743.081 226.042 739.666 223.849 736.732C222.47 735.036 220.692 733.704 218.672 732.854C217.681 732.439 216.642 732.151 215.578 731.996C214.585 731.851 213.579 731.807 212.577 731.865C208.868 732.146 205.338 733.559 202.468 735.912C199.888 737.965 197.697 740.459 195.998 743.276C194.229 746.05 193.025 749.141 192.453 752.375C192.076 754.307 192.231 756.304 192.903 758.155C193.366 759.351 194.184 760.378 195.247 761.101C196.259 761.767 197.431 762.154 198.642 762.22C199.888 762.283 201.126 761.985 202.205 761.362C203.132 760.781 203.92 760.004 204.512 759.088C205.452 757.616 206.089 755.975 206.388 754.258C206.923 751.211 206.923 748.095 206.388 745.048C205.917 741.996 204.798 739.078 203.106 736.49C202.202 735.116 200.98 733.978 199.542 733.171C198.055 732.364 196.336 732.081 194.666 732.369C191.675 733.036 188.967 734.613 186.92 736.881C183.035 741.136 179.936 746.041 177.768 751.368C180.314 746.324 183.729 741.762 187.858 737.888C189.784 736.028 192.252 734.82 194.91 734.439C196.1 734.418 197.271 734.749 198.272 735.389C199.274 736.03 200.062 736.951 200.536 738.037C201.732 740.355 202.428 742.895 202.581 745.495C202.801 748.08 202.579 750.684 201.924 753.196C201.648 754.278 201.164 755.298 200.499 756.198C200.291 756.464 200.02 756.675 199.711 756.813C199.536 756.879 199.342 756.879 199.167 756.813C198.905 756.813 198.605 756.608 198.567 756.514C198.489 756.381 198.432 756.236 198.398 756.086C198.269 755.212 198.333 754.322 198.586 753.475C200.047 748.845 203.05 744.847 207.101 742.139C208.739 740.958 210.704 740.308 212.727 740.275C213.157 740.297 213.584 740.36 214.002 740.461C214.343 740.551 214.67 740.682 214.978 740.853C215.563 741.193 216.053 741.674 216.403 742.251C217.398 744.047 217.981 746.04 218.11 748.087C218.33 750.568 218.33 753.064 218.11 755.545C217.889 758.184 217.532 760.81 217.041 763.413C216.553 766.005 215.934 768.746 215.165 771.114L227.15 774.246Z" fill="#C6D4B8"/>
<path opacity="0.1" d="M227.15 774.246C227.769 771.076 228.144 768.242 228.463 765.222C228.781 762.201 228.931 759.199 228.913 756.123C228.928 752.96 228.652 749.802 228.087 746.688C227.495 743.081 226.042 739.666 223.849 736.732C222.47 735.036 220.692 733.704 218.672 732.854C217.681 732.439 216.642 732.151 215.578 731.996C214.585 731.851 213.579 731.807 212.577 731.865C208.868 732.146 205.338 733.559 202.468 735.912C199.888 737.965 197.697 740.459 195.998 743.276C194.229 746.05 193.025 749.141 192.453 752.375C192.076 754.307 192.231 756.304 192.903 758.155C193.366 759.351 194.184 760.378 195.247 761.101C196.259 761.767 197.431 762.154 198.642 762.22C199.888 762.283 201.126 761.985 202.205 761.362C203.132 760.781 203.92 760.004 204.512 759.088C205.452 757.616 206.089 755.975 206.388 754.258C206.923 751.211 206.923 748.095 206.388 745.048C205.917 741.996 204.798 739.078 203.106 736.49C202.202 735.116 200.98 733.978 199.542 733.171C198.055 732.364 196.336 732.081 194.666 732.369C191.675 733.036 188.967 734.613 186.92 736.881C183.035 741.136 179.936 746.041 177.768 751.368C180.314 746.324 183.729 741.762 187.858 737.888C189.784 736.028 192.252 734.82 194.91 734.439C196.1 734.418 197.271 734.749 198.272 735.389C199.274 736.03 200.062 736.951 200.536 738.037C201.732 740.355 202.428 742.895 202.581 745.495C202.801 748.08 202.579 750.684 201.924 753.196C201.648 754.278 201.164 755.298 200.499 756.198C200.291 756.464 200.02 756.675 199.711 756.813C199.536 756.879 199.342 756.879 199.167 756.813C198.905 756.813 198.605 756.608 198.567 756.514C198.489 756.381 198.432 756.236 198.398 756.086C198.269 755.212 198.333 754.322 198.586 753.475C200.047 748.845 203.05 744.847 207.101 742.139C208.739 740.958 210.704 740.308 212.727 740.275C213.157 740.297 213.584 740.36 214.002 740.461C214.343 740.551 214.67 740.682 214.978 740.853C215.563 741.193 216.053 741.674 216.403 742.251C217.398 744.047 217.981 746.04 218.11 748.087C218.33 750.568 218.33 753.064 218.11 755.545C217.889 758.184 217.532 760.81 217.041 763.413C216.553 766.005 215.934 768.746 215.165 771.114L227.15 774.246Z" fill="black"/>
<path d="M236.656 912.775C244.927 924.391 243.239 959.872 248.247 964.851C253.254 969.829 304.512 969.288 308.038 966.361C311.564 963.434 309.914 950.904 313.665 948.853C315.296 948.033 236.656 912.775 236.656 912.775Z" fill="#C6D4B8"/>
<path opacity="0.1" d="M236.656 912.775C244.927 924.391 243.239 959.872 248.247 964.851C253.254 969.829 304.512 969.288 308.038 966.361C311.564 963.434 309.914 950.904 313.665 948.853C315.296 948.033 236.656 912.775 236.656 912.775Z" fill="black"/>
<path d="M455.793 913.318C445.459 928.234 451.048 959.931 446.041 964.816C441.033 969.701 389.776 969.254 386.25 966.326C382.724 963.399 384.374 950.198 382.33 947.681C381.261 946.395 455.793 913.318 455.793 913.318Z" fill="#C6D4B8"/>
<path opacity="0.1" d="M455.793 913.318C445.459 928.234 451.048 959.931 446.041 964.816C441.033 969.701 389.776 969.254 386.25 966.326C382.724 963.399 384.374 950.198 382.33 947.681C381.261 946.395 455.793 913.318 455.793 913.318Z" fill="black"/>
<path opacity="0.3" d="M313.74 948.854C313.14 949.298 312.635 949.856 312.255 950.497C311.875 951.137 311.628 951.846 311.526 952.583C287.84 949.824 264.688 943.63 242.808 934.199C241.608 925.547 239.901 917.306 236.656 912.738C236.656 912.794 315.296 948.052 313.74 948.854Z" fill="black"/>
<path opacity="0.3" d="M455.793 913.318C452.042 918.912 450.298 926.724 449.491 934.685C428.503 943.929 406.257 950.043 383.473 952.827C383.505 951.048 383.12 949.286 382.348 947.681C381.242 946.395 455.793 913.318 455.793 913.318Z" fill="black"/>
<path d="M342.795 698.32C239.642 698.32 200.031 778.681 200.031 825.686C200.031 872.075 230.039 950.907 342.795 950.907C455.55 950.907 492.929 884.12 492.929 824.623C492.929 765.126 447.092 698.32 342.795 698.32Z" fill="#C6D4B8"/>
<path opacity="0.1" d="M342.795 698.32C239.642 698.32 200.031 778.681 200.031 825.686C200.031 872.075 230.039 950.907 342.795 950.907C455.55 950.907 492.929 884.12 492.929 824.623C492.929 765.126 447.092 698.32 342.795 698.32Z" fill="black"/>
<path d="M371.918 704.138C371.918 704.138 419.068 668.19 470.138 672.441C487.712 673.914 458.529 711.801 457.985 741.429L371.918 704.138Z" fill="#C6D4B8"/>
<path opacity="0.1" d="M371.918 704.138C371.918 704.138 419.068 668.19 470.138 672.441C487.712 673.914 458.529 711.801 457.985 741.429L371.918 704.138Z" fill="black"/>
<path opacity="0.3" d="M438.293 726.866C437.993 728.731 454.272 735.667 455.96 734.604C457.648 733.541 459.336 710.235 472.615 685.399C474.565 681.801 441.444 706.897 438.293 726.866Z" fill="black"/>
<path opacity="0.3" d="M448.46 819.251C450.033 819.012 451.505 818.333 452.703 817.293C453.902 816.252 454.779 814.895 455.23 813.378C455.08 815.243 454.508 817.05 453.556 818.665C452.605 820.279 451.298 821.659 449.735 822.701C449.51 822.85 449.623 823.279 449.923 823.185C458.944 819.811 457.969 807.15 454.799 799.077C454.63 798.63 454.461 798.182 454.255 797.753C452.23 793.073 448.629 789.68 444.277 790.295C429.705 792.383 435.031 821.19 448.46 819.251Z" fill="black"/>
<path d="M483.268 778.232C485.519 784.963 505.999 779.5 511.157 783.826C519.278 790.538 517.027 873.677 509.6 880.371C505.437 884.1 482.218 880.166 475.691 884.734C469.164 889.302 483.268 778.232 483.268 778.232Z" fill="#C6D4B8"/>
<path opacity="0.1" d="M483.268 778.232C485.519 784.963 505.999 779.5 511.157 783.826C519.278 790.538 517.027 873.677 509.6 880.371C505.437 884.1 482.218 880.166 475.691 884.734C469.164 889.302 483.268 778.232 483.268 778.232Z" fill="black"/>
<path opacity="0.3" d="M512.227 830.012C512.227 850.26 510.52 866.687 508.476 866.687C506.431 866.687 504.725 850.26 504.725 830.012C504.725 809.763 506.413 793.336 508.476 793.336C510.539 793.336 512.227 809.763 512.227 830.012Z" fill="black"/>
<path opacity="0.3" d="M302.769 724.998C303.107 724.886 337.916 713.643 370.287 722.444L373.513 710.716C337.466 700.908 300.368 712.953 298.887 713.457L302.75 724.998L300.875 719.237L302.769 724.998Z" fill="black"/>
<path d="M254.438 901.499C207.944 848.397 236.396 786.7 237.69 784.034C238.485 782.237 238.55 780.204 237.873 778.361C237.195 776.517 235.827 775.005 234.055 774.141C232.282 773.277 230.242 773.127 228.361 773.723C226.48 774.319 224.903 775.615 223.961 777.34C217.68 791.334 213.965 806.33 212.989 821.622C210.757 855.408 221.992 886.433 248.624 907.558C256.614 913.935 260.421 908.341 254.438 901.499Z" fill="white"/>
<path d="M234.199 760.425C234.196 762.063 234.681 763.665 235.594 765.029C236.506 766.393 237.806 767.457 239.327 768.086C240.848 768.716 242.523 768.882 244.14 768.565C245.756 768.248 247.242 767.461 248.408 766.304C249.575 765.147 250.37 763.672 250.692 762.065C251.015 760.459 250.851 758.793 250.222 757.28C249.592 755.766 248.525 754.472 247.155 753.561C245.785 752.651 244.174 752.165 242.526 752.165C240.321 752.165 238.206 753.035 236.645 754.583C235.084 756.132 234.204 758.232 234.199 760.425Z" fill="white"/>
<path d="M647.264 955.884H588.467V968.806H647.264V955.884Z" fill="#C6D4B8"/>
<g opacity="0.1">
<path d="M590.998 957.059C592.24 960.398 592.24 964.068 590.998 967.407C589.756 964.068 589.756 960.398 590.998 957.059Z" fill="black"/>
<path d="M595.275 957.059C596.517 960.398 596.517 964.068 595.275 967.407C594.033 964.068 594.033 960.398 595.275 957.059Z" fill="black"/>
<path d="M597.412 957.059C598.654 960.398 598.654 964.068 597.412 967.407C596.17 964.068 596.17 960.398 597.412 957.059Z" fill="black"/>
<path d="M609.172 957.059C610.398 960.401 610.398 964.066 609.172 967.407C607.93 964.068 607.93 960.398 609.172 957.059Z" fill="black"/>
<path d="M612.34 957.059C612.986 958.711 613.304 960.471 613.278 962.243C613.312 964.009 612.993 965.764 612.34 967.407C611.679 965.767 611.36 964.01 611.402 962.243C611.376 960.471 611.694 958.711 612.34 957.059Z" fill="black"/>
<path d="M625.469 957.059C626.711 960.398 626.711 964.068 625.469 967.407C624.227 964.068 624.227 960.398 625.469 957.059Z" fill="black"/>
<path d="M628.51 957.059C629.752 960.398 629.752 964.068 628.51 967.407C627.268 964.068 627.268 960.398 628.51 957.059Z" fill="black"/>
<path d="M634.134 957.059C635.376 960.398 635.376 964.068 634.134 967.407C632.908 964.066 632.908 960.401 634.134 957.059Z" fill="black"/>
<path d="M622.882 957.059C623.536 958.708 623.855 960.47 623.819 962.243C623.859 964.003 623.54 965.754 622.882 967.389C622.228 965.746 621.91 963.99 621.944 962.224C621.92 960.458 622.238 958.705 622.882 957.059Z" fill="black"/>
<path d="M601.295 957.059C602.537 960.398 602.537 964.068 601.295 967.407C600.053 964.068 600.053 960.398 601.295 957.059Z" fill="black"/>
<path d="M616.525 957.059C617.768 960.398 617.768 964.068 616.525 967.407C615.864 965.767 615.545 964.01 615.588 962.243C615.552 960.47 615.871 958.708 616.525 957.059Z" fill="black"/>
<path d="M618.717 957.059C619.959 960.398 619.959 964.068 618.717 967.407C617.475 964.068 617.475 960.398 618.717 957.059Z" fill="black"/>
<path d="M641.358 957.059C642.003 958.711 642.322 960.471 642.295 962.243C642.329 964.009 642.011 965.764 641.358 967.407C640.696 965.767 640.377 964.01 640.42 962.243C640.384 960.47 640.703 958.708 641.358 957.059Z" fill="black"/>
<path d="M644.639 957.059C645.285 958.711 645.604 960.471 645.577 962.243C645.62 964.01 645.301 965.767 644.639 967.407C643.986 965.764 643.667 964.009 643.702 962.243C643.675 960.471 643.994 958.711 644.639 957.059Z" fill="black"/>
<path d="M636.666 957.059C637.908 960.398 637.908 964.068 636.666 967.407C635.424 964.068 635.424 960.398 636.666 957.059Z" fill="black"/>
<path d="M606.619 957.059C607.274 958.708 607.593 960.47 607.557 962.243C607.599 964.01 607.28 965.767 606.619 967.407C605.377 964.068 605.377 960.398 606.619 957.059Z" fill="black"/>
</g>
<path opacity="0.1" d="M647.264 955.884V958.625L588.467 960.471V955.884H647.264Z" fill="black"/>
<path d="M642.352 942.968H583.555V955.889H642.352V942.968Z" fill="#C6D4B8"/>
<g opacity="0.1">
<path d="M639.762 954.487C638.512 951.156 638.512 947.489 639.762 944.158C641.013 947.489 641.013 951.156 639.762 954.487Z" fill="black"/>
<path d="M635.352 954.487C634.698 952.845 634.379 951.089 634.415 949.323C634.368 947.555 634.687 945.797 635.352 944.158C636.009 945.8 636.327 947.556 636.29 949.323C636.317 951.088 635.998 952.842 635.352 954.487Z" fill="black"/>
<path d="M633.217 954.487C631.967 951.156 631.967 947.489 633.217 944.158C634.468 947.489 634.468 951.156 633.217 954.487Z" fill="black"/>
<path d="M621.479 954.487C620.228 951.156 620.228 947.489 621.479 944.158C622.73 947.489 622.73 951.156 621.479 954.487Z" fill="black"/>
<path d="M618.284 954.487C617.639 952.842 617.32 951.088 617.347 949.323C617.309 947.556 617.628 945.8 618.284 944.158C618.95 945.797 619.269 947.555 619.222 949.323C619.258 951.089 618.939 952.845 618.284 954.487Z" fill="black"/>
<path d="M605.159 954.487C603.908 951.156 603.908 947.489 605.159 944.158C606.41 947.489 606.41 951.156 605.159 954.487Z" fill="black"/>
<path d="M602.122 954.487C600.871 951.156 600.871 947.489 602.122 944.158C603.373 947.489 603.373 951.156 602.122 954.487Z" fill="black"/>
<path d="M596.628 954.487C595.377 951.156 595.377 947.489 596.628 944.158C597.878 947.489 597.878 951.156 596.628 954.487Z" fill="black"/>
<path d="M607.692 954.487C607.046 952.842 606.728 951.088 606.754 949.323C606.708 947.555 607.027 945.797 607.692 944.158C608.348 945.8 608.667 947.556 608.63 949.323C608.656 951.088 608.338 952.842 607.692 954.487Z" fill="black"/>
<path d="M629.335 954.487C628.68 952.845 628.361 951.089 628.397 949.323C628.35 947.555 628.67 945.797 629.335 944.158C630.586 947.489 630.586 951.156 629.335 954.487Z" fill="black"/>
<path d="M614.104 954.487C612.853 951.156 612.853 947.489 614.104 944.158C615.355 947.489 615.355 951.156 614.104 954.487Z" fill="black"/>
<path d="M611.928 954.487C610.678 951.156 610.678 947.489 611.928 944.158C613.154 947.493 613.154 951.152 611.928 954.487Z" fill="black"/>
<path d="M589.272 954.487C588.021 951.156 588.021 947.489 589.272 944.158C589.937 945.797 590.256 947.555 590.21 949.323C590.246 951.089 589.927 952.845 589.272 954.487Z" fill="black"/>
<path d="M585.991 954.487C585.346 952.842 585.027 951.088 585.054 949.323C585.016 947.556 585.335 945.8 585.991 944.158C586.657 945.798 586.976 947.555 586.929 949.323C586.965 951.089 586.646 952.845 585.991 954.487Z" fill="black"/>
<path d="M593.962 954.487C592.711 951.156 592.711 947.489 593.962 944.158C595.212 947.489 595.212 951.156 593.962 954.487Z" fill="black"/>
<path d="M624.009 954.487C623.354 952.845 623.035 951.089 623.071 949.323C623.024 947.555 623.343 945.797 624.009 944.158C624.665 945.8 624.984 947.556 624.946 949.323C624.973 951.088 624.654 952.842 624.009 954.487Z" fill="black"/>
</g>
<path opacity="0.1" d="M642.371 942.968V945.709L583.555 947.555V942.968H642.371Z" fill="black"/>
<path d="M646.885 930.155H588.088V943.076H646.885V930.155Z" fill="#C6D4B8"/>
<g opacity="0.1">
<path d="M590.527 931.33C591.769 934.669 591.769 938.339 590.527 941.678C589.285 938.339 589.285 934.669 590.527 931.33Z" fill="black"/>
<path d="M594.896 931.33C595.551 932.979 595.87 934.741 595.834 936.513C595.877 938.28 595.558 940.037 594.896 941.678C593.654 938.339 593.654 934.669 594.896 931.33Z" fill="black"/>
<path d="M597.037 931.33C598.279 934.669 598.279 938.339 597.037 941.678C595.795 938.339 595.795 934.669 597.037 931.33Z" fill="black"/>
<path d="M608.773 931.33C610.015 934.669 610.015 938.339 608.773 941.678C607.531 938.339 607.531 934.669 608.773 931.33Z" fill="black"/>
<path d="M611.965 931.33C612.611 932.981 612.929 934.742 612.903 936.513C612.937 938.28 612.618 940.035 611.965 941.678C611.304 940.037 610.985 938.28 611.027 936.513C610.991 934.741 611.31 932.979 611.965 931.33Z" fill="black"/>
<path d="M625.094 931.33C626.336 934.669 626.336 938.339 625.094 941.678C623.852 938.339 623.852 934.669 625.094 931.33Z" fill="black"/>
<path d="M628.131 931.33C629.373 934.669 629.373 938.339 628.131 941.678C626.889 938.339 626.889 934.669 628.131 931.33Z" fill="black"/>
<path d="M633.703 931.33C634.945 934.669 634.945 938.339 633.703 941.678C632.461 938.339 632.461 934.669 633.703 931.33Z" fill="black"/>
<path d="M622.561 931.33C623.207 932.981 623.526 934.742 623.499 936.513C623.541 938.28 623.222 940.037 622.561 941.678C621.908 940.035 621.589 938.28 621.624 936.513C621.597 934.742 621.916 932.981 622.561 931.33Z" fill="black"/>
<path d="M600.92 931.33C602.162 934.669 602.162 938.339 600.92 941.678C599.678 938.339 599.678 934.669 600.92 931.33Z" fill="black"/>
<path d="M616.146 931.33C617.389 934.669 617.389 938.339 616.146 941.678C614.904 938.339 614.904 934.669 616.146 931.33Z" fill="black"/>
<path d="M618.342 931.33C619.568 934.672 619.568 938.336 618.342 941.678C617.1 938.339 617.1 934.669 618.342 931.33Z" fill="black"/>
<path d="M640.979 931.33C642.221 934.669 642.221 938.339 640.979 941.678C640.317 940.037 639.998 938.28 640.041 936.513C640.005 934.741 640.324 932.979 640.979 931.33Z" fill="black"/>
<path d="M644.258 931.33C644.904 932.981 645.222 934.742 645.196 936.513C645.23 938.28 644.911 940.035 644.258 941.678C643.597 940.037 643.278 938.28 643.32 936.513C643.294 934.742 643.612 932.981 644.258 931.33Z" fill="black"/>
<path d="M636.291 931.33C637.533 934.669 637.533 938.339 636.291 941.678C635.049 938.339 635.049 934.669 636.291 931.33Z" fill="black"/>
<path d="M606.245 931.33C606.9 932.979 607.218 934.741 607.183 936.513C607.225 938.28 606.906 940.037 606.245 941.678C605.592 940.035 605.273 938.28 605.307 936.513C605.281 934.742 605.599 932.981 606.245 931.33Z" fill="black"/>
</g>
<path opacity="0.1" d="M646.885 930.155V932.896L588.088 934.742V930.155H646.885Z" fill="black"/>
<path d="M217.244 948.108H158.447V961.03H217.244V948.108Z" fill="#C6D4B8"/>
<g opacity="0.1">
<path d="M160.869 949.283C162.111 952.622 162.111 956.292 160.869 959.631C159.627 956.292 159.627 952.622 160.869 949.283Z" fill="black"/>
<path d="M165.258 949.283C165.903 950.929 166.221 952.682 166.196 954.448C166.232 956.22 165.913 957.982 165.258 959.631C164.595 957.985 164.276 956.221 164.321 954.448C164.286 952.682 164.605 950.926 165.258 949.283Z" fill="black"/>
<path d="M167.394 949.283C168.038 950.929 168.356 952.682 168.331 954.448C168.376 956.221 168.057 957.985 167.394 959.631C166.739 957.982 166.42 956.22 166.456 954.448C166.431 952.682 166.749 950.929 167.394 949.283Z" fill="black"/>
<path d="M179.135 949.283C180.377 952.622 180.377 956.292 179.135 959.631C177.893 956.292 177.893 952.622 179.135 949.283Z" fill="black"/>
<path d="M182.326 949.283C183.568 952.622 183.568 956.292 182.326 959.631C181.084 956.292 181.084 952.622 182.326 949.283Z" fill="black"/>
<path d="M195.455 949.283C196.108 950.926 196.427 952.682 196.393 954.448C196.438 956.221 196.119 957.985 195.455 959.631C194.213 956.292 194.213 952.622 195.455 949.283Z" fill="black"/>
<path d="M198.489 949.283C199.134 950.929 199.452 952.682 199.427 954.448C199.472 956.221 199.153 957.985 198.489 959.631C197.835 957.982 197.516 956.22 197.552 954.448C197.527 952.682 197.845 950.929 198.489 949.283Z" fill="black"/>
<path d="M204.062 949.283C204.716 950.926 205.034 952.682 205 954.448C205.045 956.221 204.726 957.985 204.062 959.631C202.82 956.292 202.82 952.622 204.062 949.283Z" fill="black"/>
<path d="M192.924 949.283C194.166 952.622 194.166 956.292 192.924 959.631C192.261 957.985 191.942 956.221 191.987 954.448C191.952 952.682 192.271 950.926 192.924 949.283Z" fill="black"/>
<path d="M171.278 949.283C171.922 950.929 172.241 952.682 172.216 954.448C172.251 956.22 171.933 957.982 171.278 959.631C170.614 957.985 170.295 956.221 170.34 954.448C170.315 952.682 170.634 950.929 171.278 949.283Z" fill="black"/>
<path d="M186.508 949.283C187.75 952.622 187.75 956.292 186.508 959.631C185.266 956.292 185.266 952.622 186.508 949.283Z" fill="black"/>
<path d="M188.684 949.283C189.926 952.622 189.926 956.292 188.684 959.631C187.441 956.292 187.441 952.622 188.684 949.283Z" fill="black"/>
<path d="M211.34 949.283C212.582 952.622 212.582 956.292 211.34 959.631C210.098 956.292 210.098 952.622 211.34 949.283Z" fill="black"/>
<path d="M214.621 949.283C215.863 952.622 215.863 956.292 214.621 959.631C213.379 956.292 213.379 952.622 214.621 949.283Z" fill="black"/>
<path d="M206.652 949.283C207.306 950.926 207.624 952.682 207.59 954.448C207.635 956.221 207.316 957.985 206.652 959.631C205.41 956.292 205.41 952.622 206.652 949.283Z" fill="black"/>
<path d="M176.608 949.283C177.252 950.929 177.571 952.682 177.546 954.448C177.581 956.22 177.263 957.982 176.608 959.631C175.944 957.985 175.625 956.221 175.67 954.448C175.636 952.682 175.955 950.926 176.608 949.283Z" fill="black"/>
</g>
<path opacity="0.1" d="M217.244 948.108V950.849L158.447 952.695V948.108H217.244Z" fill="black"/>
<path d="M213.215 935.192H154.418V948.113H213.215V935.192Z" fill="#C6D4B8"/>
<g opacity="0.1">
<path d="M156.856 936.367C157.501 938.019 157.82 939.779 157.793 941.55C157.828 943.317 157.509 945.072 156.856 946.715C156.194 945.074 155.875 943.317 155.918 941.55C155.891 939.779 156.21 938.019 156.856 936.367Z" fill="black"/>
<path d="M161.228 936.367C162.47 939.706 162.47 943.376 161.228 946.715C160.002 943.374 160.002 939.709 161.228 936.367Z" fill="black"/>
<path d="M163.381 936.367C164.623 939.706 164.623 943.376 163.381 946.715C162.139 943.376 162.139 939.706 163.381 936.367Z" fill="black"/>
<path d="M175.121 936.367C176.363 939.706 176.363 943.376 175.121 946.715C174.46 945.075 174.141 943.317 174.183 941.551C174.148 939.778 174.466 938.016 175.121 936.367Z" fill="black"/>
<path d="M178.387 936.367C179.629 939.706 179.629 943.376 178.387 946.715C177.145 943.376 177.145 939.706 178.387 936.367Z" fill="black"/>
<path d="M191.516 936.367C192.758 939.706 192.758 943.376 191.516 946.715C190.273 943.376 190.273 939.706 191.516 936.367Z" fill="black"/>
<path d="M194.478 936.367C195.721 939.706 195.721 943.376 194.478 946.715C193.236 943.376 193.236 939.706 194.478 936.367Z" fill="black"/>
<path d="M200.051 936.367C201.293 939.706 201.293 943.376 200.051 946.715C198.809 943.376 198.809 939.706 200.051 936.367Z" fill="black"/>
<path d="M188.889 936.367C190.131 939.706 190.131 943.376 188.889 946.715C187.647 943.376 187.647 939.706 188.889 936.367Z" fill="black"/>
<path d="M167.264 936.367C168.506 939.706 168.506 943.376 167.264 946.715C166.022 943.376 166.022 939.706 167.264 936.367Z" fill="black"/>
<path d="M182.473 936.367C183.128 938.016 183.447 939.778 183.411 941.551C183.454 943.317 183.135 945.075 182.473 946.715C181.82 945.072 181.501 943.317 181.536 941.551C181.509 939.779 181.828 938.019 182.473 936.367Z" fill="black"/>
<path d="M184.67 936.367C185.912 939.706 185.912 943.376 184.67 946.715C184.009 945.075 183.69 943.317 183.732 941.551C183.697 939.778 184.015 938.016 184.67 936.367Z" fill="black"/>
<path d="M207.305 936.367C207.959 938.016 208.278 939.778 208.242 941.551C208.285 943.317 207.966 945.075 207.305 946.715C206.063 943.376 206.063 939.706 207.305 936.367Z" fill="black"/>
<path d="M210.59 936.367C211.832 939.706 211.832 943.376 210.59 946.715C209.348 943.376 209.348 939.706 210.59 936.367Z" fill="black"/>
<path d="M202.635 936.367C203.877 939.706 203.877 943.376 202.635 946.715C201.393 943.376 201.393 939.706 202.635 936.367Z" fill="black"/>
<path d="M172.574 936.367C173.816 939.706 173.816 943.376 172.574 946.715C171.332 943.376 171.332 939.706 172.574 936.367Z" fill="black"/>
</g>
<path opacity="0.1" d="M213.234 935.192V937.933L154.418 939.779V935.192H213.234Z" fill="black"/>
<path d="M222.313 909.463H163.516V922.384H222.313V909.463Z" fill="#C6D4B8"/>
<g opacity="0.1">
<path d="M165.932 910.638C167.174 913.977 167.174 917.647 165.932 920.986C164.689 917.647 164.689 913.977 165.932 910.638Z" fill="black"/>
<path d="M170.32 910.638C170.966 912.289 171.285 914.05 171.258 915.821C171.292 917.588 170.974 919.343 170.32 920.986C169.659 919.345 169.34 917.588 169.383 915.821C169.347 914.049 169.666 912.287 170.32 910.638Z" fill="black"/>
<path d="M172.457 910.638C173.103 912.289 173.421 914.05 173.395 915.821C173.429 917.588 173.11 919.343 172.457 920.986C171.796 919.345 171.477 917.588 171.519 915.821C171.493 914.05 171.811 912.289 172.457 910.638Z" fill="black"/>
<path d="M184.197 910.638C184.852 912.287 185.171 914.049 185.135 915.821C185.177 917.588 184.858 919.345 184.197 920.986C182.955 917.647 182.955 913.977 184.197 910.638Z" fill="black"/>
<path d="M187.389 910.638C188.631 913.977 188.631 917.647 187.389 920.986C186.147 917.647 186.147 913.977 187.389 910.638Z" fill="black"/>
<path d="M200.514 910.638C201.169 912.287 201.488 914.049 201.452 915.821C201.495 917.588 201.176 919.345 200.514 920.986C199.861 919.343 199.542 917.588 199.577 915.821C199.55 914.05 199.869 912.289 200.514 910.638Z" fill="black"/>
<path d="M203.553 910.638C204.199 912.289 204.517 914.05 204.491 915.821C204.525 917.588 204.206 919.343 203.553 920.986C202.892 919.345 202.573 917.588 202.615 915.821C202.589 914.05 202.907 912.289 203.553 910.638Z" fill="black"/>
<path d="M209.125 910.638C209.78 912.287 210.098 914.049 210.063 915.821C210.105 917.588 209.786 919.345 209.125 920.986C207.883 917.647 207.883 913.977 209.125 910.638Z" fill="black"/>
<path d="M197.984 910.638C199.226 913.977 199.226 917.647 197.984 920.986C196.742 917.647 196.742 913.977 197.984 910.638Z" fill="black"/>
<path d="M176.34 910.638C176.986 912.289 177.304 914.05 177.278 915.821C177.312 917.588 176.993 919.343 176.34 920.986C175.679 919.345 175.36 917.588 175.402 915.821C175.376 914.05 175.694 912.289 176.34 910.638Z" fill="black"/>
<path d="M191.513 910.638C192.755 913.977 192.755 917.647 191.513 920.986C190.287 917.644 190.287 913.98 191.513 910.638Z" fill="black"/>
<path d="M193.746 910.638C194.988 913.977 194.988 917.647 193.746 920.986C192.504 917.647 192.504 913.977 193.746 910.638Z" fill="black"/>
<path d="M216.402 910.638C217.644 913.977 217.644 917.647 216.402 920.986C215.16 917.647 215.16 913.977 216.402 910.638Z" fill="black"/>
<path d="M219.646 910.638C220.889 913.977 220.889 917.647 219.646 920.986C218.404 917.647 218.404 913.977 219.646 910.638Z" fill="black"/>
<path d="M211.712 910.638C212.366 912.287 212.685 914.049 212.649 915.821C212.692 917.588 212.373 919.345 211.712 920.986C211.058 919.343 210.74 917.588 210.774 915.821C210.747 914.05 211.066 912.289 211.712 910.638Z" fill="black"/>
<path d="M181.67 910.638C182.316 912.289 182.634 914.05 182.608 915.821C182.642 917.588 182.323 919.343 181.67 920.986C181.009 919.345 180.69 917.588 180.732 915.821C180.697 914.049 181.015 912.287 181.67 910.638Z" fill="black"/>
</g>
<path opacity="0.1" d="M222.313 909.463V912.204L163.516 914.05V909.463H222.313Z" fill="black"/>
<path d="M220.83 896.532H162.033V909.453H220.83V896.532Z" fill="#C6D4B8"/>
<g opacity="0.1">
<path d="M218.206 908.059C216.955 904.728 216.955 901.06 218.206 897.729C219.432 901.064 219.432 904.723 218.206 908.059Z" fill="black"/>
<path d="M213.816 908.059C213.17 906.414 212.851 904.66 212.878 902.894C212.841 901.127 213.16 899.371 213.816 897.729C214.481 899.369 214.8 901.127 214.753 902.894C214.78 904.66 214.461 906.414 213.816 908.059Z" fill="black"/>
<path d="M211.679 908.059C211.024 906.416 210.705 904.66 210.741 902.894C210.694 901.127 211.013 899.369 211.679 897.729C212.335 899.371 212.654 901.127 212.616 902.894C212.643 904.66 212.324 906.414 211.679 908.059Z" fill="black"/>
<path d="M199.936 908.059C198.685 904.728 198.685 901.06 199.936 897.729C201.187 901.06 201.187 904.728 199.936 908.059Z" fill="black"/>
<path d="M196.749 908.059C195.498 904.728 195.498 901.06 196.749 897.729C197.999 901.06 197.999 904.728 196.749 908.059Z" fill="black"/>
<path d="M183.62 908.059C182.965 906.416 182.646 904.66 182.682 902.894C182.636 901.127 182.955 899.369 183.62 897.729C184.871 901.06 184.871 904.728 183.62 908.059Z" fill="black"/>
<path d="M180.583 908.059C179.928 906.416 179.609 904.66 179.645 902.894C179.598 901.127 179.918 899.369 180.583 897.729C181.239 899.371 181.558 901.127 181.521 902.894C181.547 904.66 181.229 906.414 180.583 908.059Z" fill="black"/>
<path d="M175.014 908.059C173.763 904.728 173.763 901.06 175.014 897.729C176.265 901.06 176.265 904.728 175.014 908.059Z" fill="black"/>
<path d="M186.152 908.059C185.506 906.414 185.187 904.66 185.214 902.894C185.177 901.127 185.495 899.371 186.152 897.729C186.817 899.369 187.136 901.127 187.089 902.894C187.125 904.66 186.806 906.416 186.152 908.059Z" fill="black"/>
<path d="M207.798 908.059C207.152 906.414 206.833 904.66 206.86 902.894C206.813 901.127 207.132 899.369 207.798 897.729C208.454 899.371 208.773 901.127 208.735 902.894C208.762 904.66 208.443 906.414 207.798 908.059Z" fill="black"/>
<path d="M192.567 908.059C191.316 904.728 191.316 901.06 192.567 897.729C193.818 901.06 193.818 904.728 192.567 908.059Z" fill="black"/>
<path d="M190.393 908.059C189.142 904.728 189.142 901.06 190.393 897.729C191.644 901.06 191.644 904.728 190.393 908.059Z" fill="black"/>
<path d="M167.737 908.059C166.486 904.728 166.486 901.06 167.737 897.729C168.988 901.06 168.988 904.728 167.737 908.059Z" fill="black"/>
<path d="M164.454 908.059C163.203 904.728 163.203 901.06 164.454 897.729C165.705 901.06 165.705 904.728 164.454 908.059Z" fill="black"/>
<path d="M172.426 908.059C171.176 904.728 171.176 901.06 172.426 897.729C173.677 901.06 173.677 904.728 172.426 908.059Z" fill="black"/>
<path d="M202.472 908.059C201.826 906.414 201.508 904.66 201.534 902.894C201.497 901.127 201.816 899.371 202.472 897.729C203.137 899.369 203.456 901.127 203.41 902.894C203.436 904.66 203.118 906.414 202.472 908.059Z" fill="black"/>
</g>
<path opacity="0.1" d="M220.832 896.532V899.273L162.016 901.119V896.532H220.832Z" fill="black"/>
<path d="M217.244 883.616H158.447V896.537H217.244V883.616Z" fill="#C6D4B8"/>
<g opacity="0.1">
<path d="M160.867 884.806C162.118 888.137 162.118 891.804 160.867 895.135C159.641 891.8 159.641 888.141 160.867 884.806Z" fill="black"/>
<path d="M165.258 884.806C165.904 886.451 166.222 888.205 166.196 889.971C166.231 891.737 165.913 893.493 165.258 895.135C164.597 893.495 164.278 891.738 164.32 889.971C164.294 888.205 164.612 886.451 165.258 884.806Z" fill="black"/>
<path d="M167.394 884.806C168.048 886.448 168.367 888.204 168.331 889.971C168.374 891.738 168.055 893.495 167.394 895.135C166.739 893.493 166.42 891.737 166.456 889.971C166.429 888.205 166.748 886.451 167.394 884.806Z" fill="black"/>
<path d="M179.131 884.806C180.382 888.137 180.382 891.804 179.131 895.135C177.881 891.804 177.881 888.137 179.131 884.806Z" fill="black"/>
<path d="M182.323 884.806C183.574 888.137 183.574 891.804 182.323 895.135C181.072 891.804 181.072 888.137 182.323 884.806Z" fill="black"/>
<path d="M195.452 884.806C196.703 888.137 196.703 891.804 195.452 895.135C194.201 891.804 194.201 888.137 195.452 884.806Z" fill="black"/>
<path d="M198.487 884.806C199.142 886.448 199.461 888.204 199.425 889.971C199.467 891.738 199.148 893.495 198.487 895.135C197.833 893.493 197.514 891.737 197.55 889.971C197.523 888.205 197.842 886.451 198.487 884.806Z" fill="black"/>
<path d="M204.061 884.806C205.312 888.137 205.312 891.804 204.061 895.135C202.81 891.804 202.81 888.137 204.061 884.806Z" fill="black"/>
<path d="M192.918 884.806C193.564 886.451 193.882 888.205 193.856 889.971C193.892 891.737 193.573 893.493 192.918 895.135C192.257 893.495 191.938 891.738 191.98 889.971C191.945 888.204 192.263 886.448 192.918 884.806Z" fill="black"/>
<path d="M171.276 884.806C171.922 886.451 172.241 888.205 172.214 889.971C172.257 891.738 171.938 893.495 171.276 895.135C170.622 893.493 170.303 891.737 170.339 889.971C170.312 888.205 170.631 886.451 171.276 884.806Z" fill="black"/>
<path d="M186.505 884.806C187.755 888.137 187.755 891.804 186.505 895.135C185.254 891.804 185.254 888.137 186.505 884.806Z" fill="black"/>
<path d="M188.682 884.806C189.933 888.137 189.933 891.804 188.682 895.135C187.431 891.804 187.431 888.137 188.682 884.806Z" fill="black"/>
<path d="M211.335 884.806C212.585 888.137 212.585 891.804 211.335 895.135C210.084 891.804 210.084 888.137 211.335 884.806Z" fill="black"/>
<path d="M214.618 884.806C215.869 888.137 215.869 891.804 214.618 895.135C213.367 891.804 213.367 888.137 214.618 884.806Z" fill="black"/>
<path d="M206.649 884.806C207.9 888.137 207.9 891.804 206.649 895.135C205.398 891.804 205.398 888.137 206.649 884.806Z" fill="black"/>
<path d="M176.602 884.806C177.247 886.451 177.566 888.205 177.539 889.971C177.575 891.737 177.256 893.493 176.602 895.135C175.941 893.495 175.621 891.738 175.664 889.971C175.637 888.205 175.956 886.451 176.602 884.806Z" fill="black"/>
</g>
<path opacity="0.1" d="M217.244 883.616V886.376L158.447 888.222V883.616H217.244Z" fill="black"/>
<path d="M217.244 922.379H158.447V935.3H217.244V922.379Z" fill="#C6D4B8"/>
<g opacity="0.1">
<path d="M214.621 933.829C213.379 930.49 213.379 926.819 214.621 923.48C215.863 926.819 215.863 930.49 214.621 933.829Z" fill="black"/>
<path d="M210.269 933.829C209.027 930.49 209.027 926.819 210.269 923.48C211.512 926.819 211.512 930.49 210.269 933.829Z" fill="black"/>
<path d="M208.095 933.829C207.449 932.177 207.13 930.417 207.157 928.645C207.123 926.879 207.441 925.123 208.095 923.48C208.756 925.121 209.075 926.878 209.032 928.645C209.068 930.418 208.749 932.179 208.095 933.829Z" fill="black"/>
<path d="M196.354 933.829C195.708 932.177 195.389 930.417 195.416 928.645C195.373 926.878 195.692 925.121 196.354 923.48C197.007 925.123 197.326 926.879 197.291 928.645C197.318 930.417 196.999 932.177 196.354 933.829Z" fill="black"/>
<path d="M193.182 933.829C191.939 930.49 191.939 926.819 193.182 923.48C194.407 926.822 194.407 930.487 193.182 933.829Z" fill="black"/>
<path d="M180.036 933.829C179.39 932.177 179.072 930.417 179.098 928.645C179.064 926.879 179.383 925.123 180.036 923.48C180.697 925.121 181.016 926.878 180.974 928.645C181 930.417 180.682 932.177 180.036 933.829Z" fill="black"/>
<path d="M176.998 933.829C175.756 930.49 175.756 926.819 176.998 923.48C177.659 925.121 177.978 926.878 177.936 928.645C177.971 930.418 177.653 932.18 176.998 933.829Z" fill="black"/>
<path d="M171.43 933.829C170.784 932.177 170.466 930.417 170.492 928.645C170.45 926.878 170.769 925.121 171.43 923.48C172.083 925.123 172.402 926.879 172.368 928.645C172.394 930.417 172.076 932.177 171.43 933.829Z" fill="black"/>
<path d="M182.568 933.829C181.326 930.49 181.326 926.819 182.568 923.48C183.81 926.819 183.81 930.49 182.568 933.829Z" fill="black"/>
<path d="M204.213 933.829C202.971 930.49 202.971 926.819 204.213 923.48C204.874 925.121 205.193 926.878 205.151 928.645C205.186 930.418 204.868 932.18 204.213 933.829Z" fill="black"/>
<path d="M189 933.829C187.758 930.49 187.758 926.819 189 923.48C190.242 926.819 190.242 930.49 189 933.829Z" fill="black"/>
<path d="M186.809 933.829C186.154 932.179 185.835 930.418 185.871 928.645C185.829 926.878 186.148 925.121 186.809 923.48C187.462 925.123 187.781 926.879 187.746 928.645C187.773 930.417 187.454 932.177 186.809 933.829Z" fill="black"/>
<path d="M164.172 933.829C162.93 930.49 162.93 926.819 164.172 923.48C165.414 926.819 165.414 930.49 164.172 933.829Z" fill="black"/>
<path d="M160.869 933.828C159.627 930.49 159.627 926.819 160.869 923.48C162.111 926.819 162.111 930.49 160.869 933.828Z" fill="black"/>
<path d="M168.84 933.829C168.194 932.177 167.876 930.417 167.902 928.645C167.86 926.878 168.179 925.121 168.84 923.48C169.501 925.121 169.82 926.878 169.778 928.645C169.804 930.417 169.486 932.177 168.84 933.829Z" fill="black"/>
<path d="M198.885 933.829C197.643 930.49 197.643 926.819 198.885 923.48C200.127 926.819 200.127 930.49 198.885 933.829Z" fill="black"/>
</g>
<path opacity="0.1" d="M217.244 922.379V925.12L158.447 926.966V922.379H217.244Z" fill="black"/>
<path d="M153.555 915.948C192.265 922.865 182.025 979.863 143.258 972.946C104.491 966.029 114.769 909.03 153.555 915.948Z" fill="#C6D4B8"/>
<path opacity="0.1" d="M153.555 915.948C192.265 922.865 182.025 979.863 143.258 972.946C104.491 966.029 114.769 909.03 153.555 915.948Z" fill="black"/>
<path d="M149.917 915.293C186.809 921.875 176.587 978.892 139.621 972.291C102.655 965.691 112.97 908.711 149.917 915.293Z" fill="#C6D4B8"/>
<path opacity="0.1" d="M121.369 945.143C121.575 955.305 127.521 965.131 140.499 967.518C171.164 972.981 179.66 925.659 149.033 920.196L148.433 920.103C177.147 925.827 168.913 970.594 139.674 965.373C134.717 964.679 130.165 962.271 126.818 958.571C123.47 954.871 121.541 950.117 121.369 945.143Z" fill="black"/>
<g opacity="0.1">
<path d="M147.967 926.055C148.212 926.125 148.421 926.286 148.55 926.505C148.679 926.724 148.719 926.983 148.661 927.23L148.267 928.796C150.779 929.621 152.982 931.181 154.587 933.271C154.725 933.405 154.827 933.57 154.886 933.752C154.945 933.934 154.958 934.127 154.925 934.315C154.846 934.576 154.67 934.796 154.433 934.931C154.196 935.067 153.915 935.106 153.65 935.042C153.517 935.012 153.392 934.955 153.282 934.875C153.172 934.795 153.08 934.693 153.012 934.576C151.682 932.766 149.851 931.379 147.742 930.586L145.004 941.531C150.63 944.272 152.618 947.125 151.662 950.947C150.611 955.105 146.373 957.156 141.421 956.093L140.652 959.151C140.637 959.288 140.592 959.42 140.521 959.539C140.45 959.658 140.354 959.76 140.239 959.839C140.125 959.918 139.995 959.971 139.859 959.996C139.722 960.021 139.581 960.017 139.447 959.983C139.312 959.95 139.186 959.888 139.077 959.802C138.968 959.716 138.879 959.608 138.815 959.485C138.752 959.362 138.716 959.227 138.709 959.089C138.702 958.951 138.725 958.813 138.777 958.685L139.546 955.589C136.312 954.533 133.531 952.424 131.65 949.604C131.537 949.48 131.458 949.329 131.419 949.167C131.379 949.004 131.381 948.834 131.425 948.672C131.495 948.419 131.661 948.202 131.888 948.066C132.115 947.931 132.386 947.888 132.644 947.945C132.777 947.968 132.903 948.021 133.013 948.098C133.123 948.175 133.215 948.276 133.282 948.392C134.851 950.93 137.247 952.858 140.071 953.855L142.865 942.668C137.239 939.909 135.363 937.075 136.376 933.253C137.389 929.43 141.571 927.137 146.41 928.218L146.785 926.727C146.859 926.486 147.023 926.283 147.242 926.159C147.462 926.034 147.721 925.997 147.967 926.055ZM143.372 940.711L146.035 930.027C142.284 929.169 139.114 930.81 138.42 933.625C137.727 936.441 138.589 938.231 143.372 940.711ZM144.497 943.526L141.796 954.34C145.735 955.235 148.867 953.594 149.617 950.611C150.367 947.628 149.317 945.931 144.497 943.526Z" fill="black"/>
</g>
</g>
</g>
<defs>
<clipPath id="clip0_717_152">
<rect width="785" height="1000" fill="white"/>
</clipPath>
<clipPath id="clip1_717_152">
<rect width="787" height="1579" fill="white" transform="translate(-2 -579)"/>
</clipPath>
</defs>
</svg>
