<svg width="662" height="800" viewBox="0 0 662 800" fill="none" xmlns="http://www.w3.org/2000/svg">
<path d="M99.4064 237.359C17.6543 237.359 17.5123 353.364 99.4064 353.364C181.301 353.364 181.285 237.359 99.4064 237.359Z" fill="#F8F5F0"/>
<path d="M149.117 306.244C144.747 326.192 128.166 343.511 99.3903 343.511C31.4423 343.511 31.5527 247.219 99.3903 247.219C99.832 247.219 100.274 247.219 100.715 247.219C36.8693 248.384 37.1849 339.559 101.978 339.559C128.403 339.591 144.147 324.334 149.117 306.244Z" fill="#DBDDC8"/>
<path d="M99.8799 259.907C100.419 259.894 100.943 260.09 101.34 260.454C101.737 260.818 101.977 261.322 102.01 261.859V265.008C107.696 265.375 113.164 267.334 117.786 270.66C118.575 271.227 119.016 271.715 119.016 272.518C118.976 273.086 118.713 273.616 118.286 273.993C117.858 274.369 117.299 274.564 116.729 274.533C116.15 274.554 115.585 274.351 115.151 273.967C111.292 271.041 106.703 269.228 101.884 268.724V291.333C115.325 293.915 120.988 298.512 120.988 306.431C120.988 314.996 113.1 321.042 102.057 321.373V327.67C102.011 328.201 101.768 328.694 101.375 329.054C100.982 329.414 100.468 329.613 99.9351 329.613C99.402 329.613 98.8882 329.414 98.4954 329.054C98.1025 328.694 97.8591 328.201 97.8133 327.67V321.373C90.5167 320.905 83.5544 318.15 77.9195 313.501C77.6262 313.326 77.3823 313.08 77.2111 312.785C77.0399 312.49 76.9471 312.157 76.9414 311.816C76.9887 311.263 77.2416 310.748 77.6504 310.372C78.0592 309.996 78.5942 309.787 79.15 309.785C79.7276 309.775 80.2887 309.977 80.7276 310.352C85.5311 314.593 91.5794 317.172 97.971 317.704V294.718C84.7032 292.057 79.2289 287.617 79.2289 279.54C79.2289 271.463 87.0066 265.165 97.7975 264.929V261.78C97.8485 261.265 98.0903 260.788 98.4754 260.442C98.8606 260.095 99.3614 259.904 99.8799 259.907ZM97.9395 290.687V268.645C89.3573 268.818 83.7409 273.494 83.7409 279.304C83.7094 284.704 86.5333 288.105 97.9395 290.687ZM101.836 295.615V317.893C110.671 317.736 116.429 313.044 116.429 306.872C116.429 301.267 113.337 297.866 101.836 295.536V295.615Z" fill="#DBDDC8"/>
<path d="M561.584 584.333C487.972 597.511 507.409 706.335 581.146 693.126C654.884 679.916 635.306 571.123 561.584 584.333Z" fill="#DBDDC8"/>
<path d="M568.495 583.089C498.338 595.684 517.79 704.477 588.057 691.882C658.324 679.287 638.746 570.509 568.495 583.089Z" fill="#F8F5F0"/>
<path d="M622.765 640.054C622.386 659.436 611.075 678.219 586.385 682.643C528.013 693.081 511.922 602.772 570.151 592.349C570.53 592.265 570.909 592.202 571.287 592.16C516.702 603.071 532.352 688.531 587.947 678.581C610.617 674.519 621.55 657.782 622.765 640.054Z" fill="#DBDDC8"/>
<path d="M582.425 604.124C582.901 604.198 583.33 604.452 583.624 604.833C583.917 605.214 584.053 605.693 584.003 606.171L583.64 609.225C588.571 610.202 593.097 612.625 596.639 616.184C596.933 616.396 597.167 616.68 597.319 617.008C597.47 617.336 597.535 617.698 597.507 618.058C597.433 618.571 597.16 619.035 596.747 619.35C596.334 619.665 595.814 619.806 595.298 619.743C595.042 619.721 594.793 619.649 594.566 619.53C594.338 619.411 594.137 619.248 593.973 619.05C591.04 615.925 587.248 613.734 583.072 612.752L580.548 634.149C591.907 637.959 596.324 642.887 595.409 650.381C594.462 658.474 586.969 663.402 577.361 662.583L576.651 668.55C576.595 669.036 576.347 669.481 575.962 669.785C575.578 670.089 575.088 670.228 574.6 670.172C574.113 670.115 573.668 669.868 573.363 669.484C573.058 669.1 572.919 668.611 572.975 668.125L573.685 662.079C567.33 660.848 561.574 657.521 557.341 652.633C557.03 652.362 556.813 651.999 556.723 651.597C556.632 651.195 556.673 650.775 556.838 650.397C557.004 650.02 557.285 649.705 557.643 649.498C558 649.291 558.413 649.203 558.824 649.247C559.334 649.3 559.804 649.548 560.133 649.94C563.705 654.367 568.688 657.44 574.253 658.647L576.809 636.857C565.623 632.999 561.38 628.229 562.279 620.593C563.178 612.957 570.609 607.777 579.98 608.643L580.327 605.746C580.39 605.253 580.646 604.806 581.04 604.502C581.433 604.198 581.931 604.062 582.425 604.124ZM577.329 632.968L579.775 612.107C572.328 611.382 566.917 615.256 566.27 620.75C565.718 625.946 567.785 629.441 577.393 632.968H577.329ZM580.138 638.022L577.692 659.103C585.359 659.843 590.865 655.955 591.544 650.192C592.206 644.934 589.903 641.407 580.201 638.022H580.138Z" fill="#DBDDC8"/>
<path d="M597 0H596V287H597V0Z" fill="#C7C7C7"/>
<path d="M531.373 349.541L536.626 361.066H656.762L662 349.541L610.853 314.211H582.519L531.373 349.541Z" fill="#F8F5F0"/>
<path d="M578.971 280.168L582.52 314.207H610.854L614.404 280.168H578.971Z" fill="#DBDDC8"/>
<path d="M531.373 349.555L536.626 361.08H656.762L662 349.555H531.373Z" fill="#DBDDC8"/>
<path d="M457 0H456V230H457V0Z" fill="#C7C7C7"/>
<path d="M391.139 312.365L396.392 323.89H516.528L521.765 312.365L470.619 277.035H442.285L391.139 312.365Z" fill="#F8F5F0"/>
<path d="M438.736 242.996L442.286 277.035H470.62L474.17 242.996H438.736Z" fill="#DBDDC8"/>
<path d="M391.139 312.367L396.392 323.892H516.528L521.765 312.367H391.139Z" fill="#DBDDC8"/>
<path d="M0 730.346L80.7267 729.968L161.469 729.826L322.923 729.559L484.392 729.826L565.134 729.952L645.861 730.346L565.134 730.724L484.392 730.865L322.923 731.133L161.469 730.865L80.7267 730.724L0 730.346Z" fill="#3C4E3E"/>
<path d="M322.938 800.018C483.927 800.018 614.434 790.382 614.434 778.495C614.434 766.609 483.927 756.973 322.938 756.973C161.949 756.973 31.4414 766.609 31.4414 778.495C31.4414 790.382 161.949 800.018 322.938 800.018Z" fill="#F8F5F0"/>
<path d="M386.042 604.377V604.597C386.042 604.597 386.042 604.691 386.042 604.754C386.042 604.817 386.042 605.006 385.963 605.18V605.463C385.913 605.665 385.877 605.87 385.853 606.077C385.853 606.219 385.853 606.36 385.774 606.518C385.695 606.675 385.664 607.179 385.585 607.557C385.506 607.935 385.348 608.832 385.222 609.588L384.512 613.43C384.433 613.839 384.354 614.28 384.275 614.736C384.197 615.193 384.055 615.964 383.928 616.61C383.802 617.255 383.676 618.058 383.534 618.83C383.439 619.365 383.329 619.916 383.234 620.483C382.934 622.168 382.619 623.962 382.256 625.883C382.249 625.93 382.249 625.978 382.256 626.025C381.877 628.166 381.467 630.465 381.026 632.874C380.915 633.504 380.789 634.133 380.663 634.763C380.536 635.393 380.41 636.086 380.3 636.747C380.3 637.156 380.158 637.581 380.063 638.006C379.464 641.355 378.817 644.902 378.123 648.65C377.886 649.909 377.665 651.184 377.429 652.475C376.971 654.995 376.498 657.577 376.009 660.237C375.882 660.851 375.772 661.465 375.677 662.095C374.962 665.947 374.231 669.957 373.485 674.124C373.39 674.549 373.327 674.974 373.248 675.399C372.885 677.351 372.522 679.32 372.175 681.335C372.128 681.489 372.097 681.647 372.08 681.807L371.56 684.673C370.866 688.514 370.15 692.445 369.414 696.465C369.225 697.457 369.036 698.465 368.862 699.488C368.499 701.519 368.121 703.566 367.742 705.628C367.269 708.195 366.795 710.777 366.322 713.406C365.849 716.035 365.376 718.665 364.887 721.278C364.634 722.616 364.398 723.955 364.145 725.293C363.861 726.867 363.561 728.442 363.277 730.126H226.924C243.741 660.395 257.924 604.172 257.924 604.172L386.042 604.377Z" fill="#3C4E3E"/>
<path d="M365.439 620.074C358.603 656.81 351.703 693.547 344.741 730.284H342.848C350.089 693.458 357.551 656.695 364.934 619.916C365.045 619.633 365.486 619.743 365.439 620.074Z" fill="#3C4E3E"/>
<path d="M386.027 604.376C386.027 604.376 386.027 604.455 386.027 604.596C386.027 604.738 386.027 604.691 386.027 604.754C386.027 604.817 386.027 605.006 385.948 605.179V605.462C385.899 605.664 385.862 605.869 385.838 606.076C385.838 606.218 385.838 606.36 385.759 606.517C385.68 606.674 385.633 607.178 385.57 607.556C385.507 607.934 385.333 608.831 385.207 609.587C384.986 610.705 384.765 611.98 384.497 613.429C384.418 613.838 384.339 614.279 384.26 614.736C384.182 615.192 384.04 615.964 383.913 616.609C383.787 617.255 383.661 618.058 383.519 618.829C383.424 619.364 383.314 619.915 383.219 620.482C382.904 622.167 382.588 623.962 382.241 625.883C382.234 625.929 382.234 625.977 382.241 626.024C381.847 628.165 381.436 630.433 380.995 632.842C380.869 633.471 380.758 634.117 380.648 634.762C380.537 635.408 380.395 636.085 380.285 636.746C380.19 637.155 380.127 637.581 380.048 638.006C379.433 641.343 378.786 644.902 378.108 648.649C377.871 649.908 377.65 651.184 377.414 652.475C376.94 654.994 376.467 657.576 375.994 660.237C375.868 660.851 375.757 661.465 375.662 662.094C374.937 665.968 374.206 669.977 373.469 674.123C373.375 674.548 373.312 674.973 373.233 675.398C372.87 677.351 372.507 679.319 372.16 681.334C372.113 681.488 372.082 681.646 372.065 681.806L371.545 684.672C370.83 688.513 370.114 692.444 369.399 696.464C369.21 697.456 369.021 698.464 368.847 699.487C368.468 701.518 368.106 703.565 367.727 705.628C367.254 708.194 366.78 710.776 366.307 713.405C365.834 716.035 365.345 718.664 364.871 721.277C364.619 722.616 364.382 723.954 364.13 725.292C363.846 726.867 363.546 728.441 363.247 730.126H294.825L289.351 674.202L289.162 672.218L288.941 670.077L287.868 659.135L286.937 649.688L282.488 604.266L386.027 604.376Z" fill="#687969"/>
<path d="M463.504 730.301H316.454C316.201 716.793 315.933 703.725 315.602 691.397C315.602 691.098 315.602 690.799 315.602 690.5C315.602 690.5 298.437 680.361 289.193 672.41C287.621 671.12 286.174 669.686 284.87 668.127C278.954 660.601 273.022 631.663 260.748 604.441H440.596C469.814 661.121 467.763 706.543 463.504 730.301Z" fill="#3C4E3E"/>
<path d="M280.595 666.173C289.335 669.747 297.207 675.242 304.969 680.548C313.047 686.042 320.446 692.403 328.208 698.307C328.507 698.543 328.208 699.031 327.892 698.811C319.704 693.6 311.138 689.018 303.045 683.649C294.951 678.28 287.016 673.368 280.201 666.803C279.932 666.551 280.232 666.016 280.595 666.173Z" fill="#687969"/>
<path d="M279.522 615.699C280.563 621.272 281.92 626.814 283.135 632.372C284.255 637.583 285.091 642.889 286.479 648.116C287.606 653.103 290.147 657.662 293.799 661.247C295.85 663.152 298.106 664.837 300.283 666.569C301.466 667.513 302.729 668.411 303.959 669.371C303.801 668.631 303.675 667.797 303.533 667.12L302.445 660.822C301.656 656.099 300.867 651.375 300.173 646.652C298.753 637.379 297.459 628.011 295.44 618.832C295.434 618.762 295.452 618.693 295.492 618.635C295.532 618.578 295.591 618.536 295.658 618.517C295.726 618.499 295.798 618.504 295.862 618.533C295.925 618.561 295.977 618.612 296.008 618.674C298.327 627.775 300.883 636.78 302.902 645.959C303.896 650.446 307.414 672.725 307.635 674.299C307.856 675.873 307.935 677.558 307.998 679.18C308.203 680.837 308.203 682.513 307.998 684.171C307.967 684.245 307.914 684.309 307.847 684.354C307.779 684.399 307.7 684.423 307.619 684.423C307.538 684.423 307.459 684.399 307.392 684.354C307.324 684.309 307.272 684.245 307.241 684.171C306.566 682.632 306.094 681.013 305.837 679.353C305.426 677.778 305.064 676.204 304.78 674.535C304.669 673.968 304.59 673.37 304.511 672.772C302.318 671.434 300.283 669.623 298.201 668.206C296.118 666.789 293.736 665.057 291.654 663.294C287.785 660.04 284.996 655.692 283.655 650.824C282.326 645.563 281.471 640.194 281.099 634.781C280.39 628.483 279.869 622.185 278.985 615.888C278.859 615.462 279.411 615.305 279.522 615.699Z" fill="#687969"/>
<path d="M429.128 654.6C426.777 653.388 417.69 655.545 401.125 652.726C397.886 652.308 394.81 651.061 392.196 649.105C387.889 645.594 384.623 639.942 382.005 635.109C378.894 629.664 376.498 623.844 374.874 617.79C374.795 617.412 374.274 617.601 374.337 617.947C374.953 621.364 375.284 624.78 376.199 628.165C377.095 631.341 378.24 634.442 379.622 637.439C382.115 643.044 385.034 649.058 390.082 652.852C395.13 656.647 402.703 657.576 409.14 658.017C412.831 658.268 427.361 657.875 429.317 655.812C429.392 655.723 429.446 655.619 429.477 655.507C429.508 655.395 429.514 655.278 429.496 655.164C429.479 655.049 429.436 654.939 429.373 654.842C429.309 654.745 429.226 654.663 429.128 654.6Z" fill="#687969"/>
<path d="M292.27 402.473C277.125 424.814 171.929 559.365 156.705 562.12C117.912 569.095 82.3836 555.823 97.0397 522.476C114.11 483.651 209.051 406.677 272.313 372.59C317.622 348.187 307.226 380.431 292.27 402.473Z" fill="#EDDBC1"/>
<path d="M240.964 476.675L158.455 438.888C158.455 438.888 234.796 385.924 270.466 369.802C307.729 353.003 322.796 362.827 290.975 406.534C259.691 449.547 240.964 476.675 240.964 476.675Z" fill="#687969"/>
<path d="M202.329 409.574C202.155 409.675 201.986 409.786 201.824 409.905L266.017 441.173L266.333 440.732L202.329 409.574ZM184.581 421.209C184.412 421.305 184.248 421.41 184.092 421.524L255.321 456.162L255.621 455.737L184.581 421.209ZM167.085 432.955L166.596 433.285L244.704 471.323C244.782 471.182 244.893 471.04 244.988 470.898L167.085 432.955Z" fill="white"/>
<path d="M241.928 459.956C240.033 458.878 238.085 457.895 236.091 457.012L230.08 454.067C226.025 452.084 221.94 450.163 217.822 448.274C209.634 444.479 201.446 440.653 193.195 437.016C190.924 436.009 188.636 435.017 186.348 434.072C184.061 433.127 181.442 432.246 179.028 431.254C178.886 431.254 178.807 431.411 179.028 431.49C181.032 432.482 182.957 433.647 184.944 434.639C186.932 435.631 189.062 436.67 191.129 437.662C195.22 439.583 199.322 441.482 203.434 443.361C211.527 447.03 219.62 450.73 227.792 454.225C230.08 455.217 232.368 456.161 234.655 457.138C236.943 458.114 239.388 459.342 241.896 460.129C241.944 460.208 242.054 460.019 241.928 459.956Z" fill="#3C4E3E"/>
<path d="M291.039 406.488C259.692 449.548 240.966 476.676 240.966 476.676L214.588 464.568L305.017 363.805C311.88 368.544 308.614 382.351 291.039 406.488Z" fill="#3C4E3E"/>
<path d="M244.406 634.558H457.226C457.226 634.558 424.664 431.897 346.257 362.591C336.57 354.026 314.704 355.978 300.506 363.047C295.41 365.582 277.125 391.104 271.903 415.256C266.681 439.407 243.822 633.913 244.406 634.558Z" fill="#687969"/>
<path d="M437.883 548.029L343.447 360.672C344.451 361.238 345.392 361.908 346.255 362.671C390.776 401.922 420.498 484.202 437.883 548.029Z" fill="#3C4E3E"/>
<path d="M337.059 358.074H315.493C316.503 357.885 317.497 357.712 318.506 357.555H334.582C335.434 357.696 336.317 357.87 337.059 358.074ZM359.303 375.708H289.525C289.415 375.881 289.305 376.054 289.178 376.227H359.745L359.303 375.708ZM373.423 393.924H279.255L279.018 394.444H373.77L373.423 393.924ZM384.908 412.14H272.566C272.566 412.313 272.471 412.487 272.424 412.66H385.224L384.908 412.14ZM394.689 430.419H269.3C269.3 430.593 269.3 430.766 269.3 430.939H395.1C394.926 430.813 394.831 430.593 394.689 430.419ZM403.319 448.636H266.745C266.745 448.809 266.745 448.982 266.745 449.155H403.666C403.54 448.982 403.461 448.809 403.382 448.636H403.319ZM411.033 466.867H264.315C264.315 467.041 264.315 467.214 264.315 467.371H411.365C411.223 467.198 411.16 467.025 411.097 466.867H411.033ZM417.991 485.084H261.98C261.98 485.257 261.98 485.414 261.98 485.587H418.291C418.18 485.414 418.117 485.257 418.054 485.084H417.991ZM424.301 503.3H259.693C259.693 503.473 259.693 503.646 259.693 503.819H424.569C424.522 503.646 424.475 503.473 424.412 503.237L424.301 503.3ZM430.123 521.516H257.437C257.437 521.689 257.437 521.862 257.437 522.036H430.391C430.344 521.862 430.28 521.689 430.233 521.516H430.123ZM435.487 539.732H255.228C255.228 539.905 255.228 540.079 255.228 540.252H435.707L435.487 539.732ZM440.44 557.948H253.035C253.035 558.122 253.035 558.295 253.035 558.468H440.772C440.63 558.342 440.582 558.122 440.551 557.948H440.44ZM445.173 576.165H250.874C250.874 576.338 250.874 576.511 250.874 576.684H445.173C445.173 576.511 445.173 576.338 445.173 576.165ZM449.37 594.381H248.744C248.744 594.554 248.744 594.727 248.744 594.9H449.417C449.385 594.727 449.354 594.554 449.307 594.381H449.37ZM453.219 612.597H246.661C246.661 612.77 246.661 612.943 246.661 613.116H453.329L453.219 612.597ZM456.595 630.766H244.689V631.285H456.721C456.658 631.159 456.627 630.986 456.595 630.766Z" fill="white"/>
<path d="M383.172 367.691C436.811 387.481 568.889 440.004 575.641 470.737C580.564 493.331 479.785 507.374 476.914 503.722C474.658 500.825 381.074 428.07 348.086 388.914C319.405 354.906 366.023 361.362 383.172 367.691Z" fill="#EDDBC1"/>
<path d="M423.7 460.302L494.361 411.495C494.361 411.495 409.927 372.638 371.907 363.002C332.277 352.957 319.167 365.238 358.15 402.725C396.549 439.598 423.7 460.302 423.7 460.302Z" fill="#687969"/>
<path d="M442.127 388.602L387.352 429.726C387.494 429.836 387.604 429.962 387.746 430.056L442.694 388.822L442.127 388.602ZM461.5 396.852L401.392 441.975L401.787 442.321L462.068 397.088C461.878 397.009 461.689 396.915 461.5 396.852ZM480.668 405.243L415.764 454.051C415.894 454.169 416.031 454.28 416.175 454.381L481.204 405.574C481.017 405.478 480.838 405.367 480.668 405.243Z" fill="white"/>
<path d="M474.863 408.14C472.97 409.179 471.187 410.486 469.389 411.698L463.836 415.414C460.081 417.917 456.358 420.499 452.65 423.081C445.267 428.261 437.837 433.409 430.564 438.715C428.56 440.164 426.557 441.628 424.585 443.139C422.613 444.651 420.546 446.477 418.479 448.052C418.353 448.146 418.479 448.319 418.637 448.24C420.499 447.012 422.486 445.942 424.364 444.714C426.241 443.486 428.197 442.195 430.091 440.888C433.814 438.337 437.505 435.755 441.134 433.142C448.375 427.993 455.648 422.861 462.779 417.555L468.742 413.099C470.825 411.525 473.033 410.076 474.974 408.376C475.147 408.25 475.005 408.061 474.863 408.14Z" fill="#3C4E3E"/>
<path d="M417.17 454.713C415.182 453.044 413.336 451.218 411.412 449.486C409.487 447.754 407.499 446.038 405.559 444.306C401.757 440.937 397.907 437.614 394.089 434.245C386.375 427.412 378.66 420.579 371.025 413.652C366.686 409.716 362.427 405.669 357.946 401.891L357.852 401.985C361.37 405.779 365.156 409.353 368.895 412.912C368.106 412.424 367.317 411.92 366.56 411.337C365.803 410.755 364.888 410.125 364.083 409.479C363.278 408.834 362.506 408.11 361.591 407.511C361.449 407.417 361.322 407.606 361.417 407.716C362.835 409.387 364.506 410.827 366.371 411.983C367.286 412.597 368.248 413.148 369.21 413.667L370.267 414.155C373.612 417.304 376.977 420.453 380.364 423.602C387.937 430.572 395.662 437.394 403.539 444.07C405.716 445.896 407.909 447.691 410.118 449.486C412.327 451.281 414.756 453.012 417.012 454.855C417.123 454.996 417.28 454.807 417.17 454.713Z" fill="#3C4E3E"/>
<path d="M307.274 401.951C319.784 403.525 338.826 382.758 345.483 366.809C345.941 365.707 343.212 354.97 340.498 341.76C338.921 333.746 337.343 324.772 336.428 316.49C336.254 314.79 285.66 334.565 285.66 334.565C285.66 334.565 292.602 351.396 294.037 365.849C294.14 366.996 294.14 368.15 294.037 369.297C294.037 369.454 294.037 369.643 294.037 369.864C293.722 376.429 295.189 400.392 307.274 401.951Z" fill="#EDDBC1"/>
<path d="M299.401 369.581C297.619 369.825 295.819 369.92 294.021 369.865C294.021 369.644 294.021 369.455 294.021 369.282C294.139 368.141 294.139 366.991 294.021 365.85C292.601 351.412 285.676 334.566 285.676 334.566C285.676 334.566 326.694 318.507 334.992 316.57C334.393 326.316 330.007 365.693 299.401 369.581Z" fill="#3C4E3E"/>
<path d="M330.794 252.24C341.285 268.536 346.381 322.727 336.915 337.779C323.19 359.616 293.468 369.693 273.053 351.571C253.254 334.016 247.811 263.277 259.107 248.855C275.672 227.6 315.302 228.151 330.794 252.24Z" fill="#EDDBC1"/>
<path d="M297.113 299.553C297.113 299.411 297.429 299.71 297.429 299.852C297.681 303.52 298.581 307.724 302.004 308.543C302.114 308.543 302.114 308.763 302.004 308.747C297.902 308.59 296.766 303.064 297.113 299.553Z" fill="#3C4E3E"/>
<path d="M300.032 295.411C305.869 294.388 307.494 306.101 302.099 307.062C296.703 308.022 295.11 296.293 300.032 295.411Z" fill="#3C4E3E"/>
<path d="M274.79 302.148C274.79 302.022 274.522 302.369 274.553 302.51C275.169 306.131 275.263 310.382 272.14 312.036C272.045 312.036 272.14 312.272 272.14 312.225C276.1 311.154 275.91 305.486 274.79 302.148Z" fill="#3C4E3E"/>
<path d="M270.956 298.813C265.056 299.175 266.223 310.951 271.697 310.621C277.172 310.29 275.925 298.561 270.956 298.813Z" fill="#3C4E3E"/>
<path d="M303.897 289.427C302.304 289.181 300.724 288.855 299.164 288.451C297.42 288.351 295.757 287.682 294.431 286.546C294.093 286.108 293.91 285.571 293.91 285.019C293.91 284.466 294.093 283.929 294.431 283.492C296.009 281.681 298.328 281.618 300.552 281.917C302.795 282.224 304.845 283.345 306.31 285.066C306.654 285.48 306.865 285.988 306.915 286.523C306.966 287.059 306.853 287.597 306.593 288.067C306.332 288.538 305.936 288.92 305.455 289.162C304.974 289.405 304.431 289.497 303.897 289.427Z" fill="#3C4E3E"/>
<path d="M265.608 293.536C267.14 293 268.641 292.38 270.104 291.679C271.778 291.247 273.264 290.279 274.332 288.923C274.584 288.43 274.665 287.867 274.562 287.323C274.46 286.779 274.179 286.284 273.764 285.916C271.903 284.436 269.584 284.814 267.454 285.617C265.306 286.343 263.506 287.842 262.406 289.821C262.181 290.289 262.097 290.813 262.166 291.329C262.234 291.844 262.452 292.328 262.791 292.722C263.131 293.116 263.578 293.403 264.078 293.547C264.579 293.692 265.11 293.688 265.608 293.536Z" fill="#3C4E3E"/>
<path d="M304.765 331.623C304.024 332.599 303.314 333.89 302.004 334.173C300.648 334.336 299.272 334.213 297.966 333.811C297.94 333.805 297.912 333.807 297.887 333.817C297.862 333.827 297.841 333.845 297.827 333.867C297.813 333.89 297.807 333.917 297.809 333.944C297.811 333.97 297.822 333.996 297.839 334.016C298.459 334.657 299.24 335.119 300.101 335.355C300.961 335.59 301.87 335.59 302.73 335.354C303.446 335.056 304.057 334.553 304.486 333.908C304.916 333.264 305.145 332.507 305.144 331.733C305.128 331.623 304.765 331.497 304.765 331.623Z" fill="#3C4E3E"/>
<path d="M299.385 321.294C298.664 322.858 297.625 324.256 296.335 325.399C295.046 326.543 293.533 327.407 291.892 327.938C290.462 328.425 288.968 328.701 287.459 328.757C287.17 328.78 286.88 328.78 286.591 328.757H285.834C285.634 328.746 285.444 328.671 285.29 328.543C285.137 328.416 285.029 328.242 284.982 328.049C284.967 327.923 284.967 327.796 284.982 327.671V327.356C284.524 324.569 284.209 320.287 284.209 320.287C283.246 320.932 278.356 324.002 278.245 322.522C277.283 310.336 276.226 296.78 277.851 284.453C277.868 284.375 277.91 284.306 277.972 284.256C278.034 284.207 278.111 284.18 278.19 284.18C278.269 284.18 278.346 284.207 278.408 284.256C278.47 284.306 278.512 284.375 278.529 284.453C279.902 296.135 279.223 307.975 280.422 319.736C282.157 318.614 284.043 317.745 286.023 317.154C286.433 317.154 286.496 325.451 286.796 326.679C286.792 326.721 286.792 326.763 286.796 326.805C291.529 326.805 294.936 324.853 299.07 321.074C299.243 320.775 299.575 320.979 299.385 321.294Z" fill="#3C4E3E"/>
<path d="M288.988 327.119C290.805 328.898 293.048 330.182 295.504 330.85C296.854 331.175 298.271 331.071 299.558 330.551C302.366 329.386 302.067 326.71 301.215 324.506C300.751 323.338 300.153 322.229 299.432 321.199C296.672 324.233 293.013 326.307 288.988 327.119Z" fill="#3C4E3E"/>
<path d="M295.424 330.853C296.774 331.177 298.191 331.073 299.479 330.554C302.287 329.389 301.987 326.712 301.135 324.508C298.059 325.327 295.298 327.798 295.424 330.853Z" fill="#FF98B9"/>
<path d="M338.809 293.474C329.249 295.915 322.796 272.755 322.796 272.755C322.796 272.755 307.667 274.786 294.399 257.436C294.399 257.436 279.712 274.865 263.368 277.022C237.731 280.375 228.297 248.808 235.349 239.519C245.272 226.341 272.376 232.213 272.376 232.213C272.376 232.213 303.928 211.51 321.676 231.552C321.676 231.552 337.326 227.285 343.858 243.943C350.389 260.6 345.94 291.648 338.809 293.474Z" fill="#3C4E3E"/>
<path d="M327.024 274.376C319.685 275.408 312.21 273.979 305.773 270.314C299.194 266.346 293.704 258.789 293.468 250.948C293.468 250.523 292.758 250.586 292.805 250.948C293.657 259.481 296.765 267.527 304.022 272.628C307.338 275.014 311.223 276.491 315.29 276.911C319.356 277.331 323.462 276.679 327.197 275.021C327.248 274.974 327.284 274.915 327.303 274.849C327.323 274.783 327.323 274.713 327.305 274.646C327.287 274.58 327.252 274.519 327.202 274.472C327.153 274.424 327.091 274.391 327.024 274.376Z" fill="#3C4E3E"/>
<path d="M341.822 233.583C335.117 229.081 327.623 230.435 320.429 233.032C320.035 233.174 320.287 233.835 320.666 233.662C327.481 230.513 336.127 233.001 341.68 237.614C347.233 242.227 348.59 249.517 349.142 256.239C350.277 269.214 346.557 282.148 338.698 292.546C338.572 292.703 338.824 292.908 338.95 292.751C343.565 287.259 347.009 280.886 349.071 274.021C351.132 267.155 351.769 259.942 350.94 252.823C350.057 245.848 347.99 237.74 341.822 233.583Z" fill="#3C4E3E"/>
<path d="M273.622 233.046C269.018 229.12 263.128 227.019 257.073 227.142C249.779 227.472 242.864 230.477 237.653 235.581C235.612 237.698 234.167 240.315 233.464 243.168C232.76 246.021 232.823 249.008 233.645 251.829C235.318 258.504 240.366 263.669 245.714 267.573C245.728 267.588 245.745 267.6 245.764 267.607C245.783 267.615 245.804 267.618 245.824 267.617C245.844 267.616 245.864 267.611 245.882 267.602C245.901 267.593 245.917 267.579 245.929 267.563C245.942 267.547 245.951 267.529 245.956 267.509C245.96 267.489 245.961 267.469 245.957 267.449C245.953 267.429 245.945 267.41 245.933 267.393C245.921 267.377 245.906 267.363 245.888 267.353C241.344 263.464 237.274 258.709 235.744 252.742C234.926 249.965 234.912 247.013 235.702 244.228C236.492 241.442 238.054 238.936 240.208 236.998C248.712 229.409 263.478 225.489 273.212 233.471C273.271 233.489 273.333 233.49 273.393 233.475C273.452 233.46 273.506 233.428 273.548 233.384C273.591 233.34 273.62 233.285 273.633 233.226C273.646 233.166 273.643 233.104 273.622 233.046Z" fill="#3C4E3E"/>
<path d="M331.979 299.141C331.979 299.141 339.346 279.334 348.054 281.538C356.763 283.743 354.27 310.319 346.193 315.955C345.203 316.741 344.066 317.321 342.848 317.66C341.63 318 340.356 318.092 339.101 317.932C337.847 317.772 336.637 317.363 335.544 316.729C334.451 316.095 333.496 315.248 332.736 314.239L331.979 299.141Z" fill="#EDDBC1"/>
<path d="M347.155 289.113C347.183 289.106 347.213 289.109 347.239 289.121C347.265 289.133 347.287 289.153 347.3 289.179C347.313 289.205 347.316 289.234 347.31 289.262C347.304 289.291 347.288 289.316 347.265 289.334C341.649 293.506 339.866 300.166 339.125 306.779C340.387 303.976 342.596 302.055 346.271 303.457C346.309 303.472 346.341 303.498 346.363 303.532C346.386 303.566 346.398 303.605 346.398 303.645C346.398 303.686 346.386 303.725 346.363 303.759C346.341 303.793 346.309 303.819 346.271 303.834C345.079 303.771 343.896 304.078 342.885 304.712C341.874 305.347 341.084 306.277 340.624 307.377C339.894 309.231 339.365 311.157 339.046 313.124C338.904 313.753 337.815 313.722 337.847 313.013C337.855 312.961 337.855 312.908 337.847 312.856C335.465 304.952 338.778 292.168 347.155 289.113Z" fill="#3C4E3E"/>
<path d="M550.699 601.733C535.696 653.972 492.769 696.419 483.982 701.977C476.504 706.7 472.607 709.125 472.607 709.125C459.355 717.942 450.237 715.548 450.237 715.548C450.237 715.548 437.916 730.238 427.787 724.287C416.413 717.642 435.928 698.324 440.156 681.147C449.827 641.786 452.556 583.17 454.212 571.535L550.699 601.733Z" fill="#EDDBC1"/>
<path d="M479.327 647.013C476.25 658.538 473.521 669.937 468.899 680.99C463.819 693.113 456.909 703.929 450.141 715.108C450.109 715.174 450.101 715.25 450.119 715.322C450.137 715.394 450.18 715.457 450.241 715.501C450.301 715.544 450.375 715.564 450.449 715.559C450.523 715.553 450.593 715.522 450.646 715.47C466.122 697.159 477.386 670.961 480.336 647.25C480.415 646.667 479.485 646.51 479.327 647.013Z" fill="#3C4E3E"/>
<path d="M503.969 649.391C500.357 660.412 493.873 679.809 472.291 708.905C472.212 708.999 472.291 709.141 472.448 709.047C488.64 692.708 499.953 672.194 505.121 649.801C505.247 649.092 504.222 648.667 503.969 649.391Z" fill="#3C4E3E"/>
<path d="M448.801 633.001C448.028 627.38 445.062 627.742 439.95 636.449C434.839 645.156 422.029 683.934 408.856 678.329C395.682 672.724 414.551 618.264 424.174 604.425C433.798 590.586 454.149 571.535 454.149 571.535C452.666 582.871 451.483 610.723 448.801 633.001Z" fill="#EDDBC1"/>
<path d="M575.61 470.738C586.133 503.722 558.367 577.28 550.699 601.731C547.355 612.39 449.826 583.924 453.471 572.541C460.949 549.255 480.29 506.871 476.883 503.722C474.185 501.219 566.034 440.776 575.61 470.738Z" fill="#EDDBC1"/>
<path d="M503.544 483.884C502.25 484.388 500.957 484.782 499.695 485.459C498.433 486.136 497.092 486.671 495.845 487.348C493.429 488.7 491.128 490.248 488.967 491.977C486.785 493.664 484.719 495.494 482.783 497.456C481.773 498.463 480.795 499.518 479.864 500.605C478.919 501.615 478.094 502.729 477.403 503.927C477.368 503.984 477.35 504.049 477.35 504.116C477.35 504.182 477.368 504.248 477.403 504.305C477.403 504.305 477.403 504.415 477.498 504.431C477.908 504.604 478.144 504.257 478.444 504.006L479.927 502.636C480.968 501.675 481.978 500.652 483.082 499.676C485.181 497.739 487.389 495.881 489.661 494.134C491.933 492.386 494.268 490.749 496.634 489.143C497.817 488.34 498.985 487.568 500.184 486.734C501.383 485.9 502.566 485.16 503.796 484.451C504.096 484.231 503.907 483.758 503.544 483.884Z" fill="#3C4E3E"/>
<path d="M151.01 467.684C135.234 478.705 87.1952 521.639 96.8818 545.098C106.568 568.557 143.548 567.991 195.262 558.654L151.01 467.684Z" fill="#EDDBC1"/>
<path d="M149.59 468.709C170.777 451.091 201.557 429.694 214.162 430.371C227.382 431.08 273.748 435.457 284.192 439.928C294.636 444.399 324.674 473.574 327.75 483.241C330.211 490.987 314.972 498.292 295.63 485.87C277.535 474.251 273.78 470.582 267.88 468.551C261.979 466.52 238.725 470.976 235.917 479.73C234.261 484.894 240.965 498.827 250.289 501.772C259.613 504.716 269.221 499.19 282.362 499.898C295.504 500.607 308.125 513.454 305.632 517.736C303.139 522.019 297.208 519.704 279.27 525.687C267.738 529.545 254.028 536.472 234.513 547.934C214.525 559.664 185.607 559.459 185.607 559.459L149.59 468.709Z" fill="#EDDBC1"/>
<g class="coins">
<path d="M296.208 488.145C327.76 498.001 313.199 544.683 281.567 534.811C249.936 524.939 264.592 478.258 296.208 488.145Z" fill="#C6D4B8"/>
<path opacity="0.1" d="M296.208 488.145C327.76 498.001 313.199 544.683 281.567 534.811C249.936 524.939 264.592 478.258 296.208 488.145Z" fill="black"/>
<path d="M293.242 487.217C323.327 496.664 308.75 543.299 278.601 533.884C248.453 524.468 263.109 477.802 293.242 487.217Z" fill="#C6D4B8"/>
<path opacity="0.1" d="M266.25 509.209C265.351 517.743 269.263 526.607 279.849 529.913C304.87 537.785 316.97 498.991 291.997 491.182L291.508 491.04C314.856 498.912 303.245 535.486 279.392 528.039C275.335 526.94 271.795 524.45 269.392 521.008C266.989 517.565 265.877 513.388 266.25 509.209Z" fill="black"/>
<path opacity="0.1" d="M290.467 496.017C290.667 496.098 290.828 496.253 290.916 496.45C291.004 496.646 291.013 496.869 290.94 497.072L290.451 498.347C292.428 499.321 294.074 500.855 295.184 502.756C295.283 502.884 295.349 503.034 295.376 503.193C295.404 503.352 295.392 503.515 295.341 503.669C295.251 503.88 295.082 504.047 294.869 504.135C294.657 504.223 294.419 504.225 294.206 504.141C293.991 504.064 293.815 503.906 293.717 503.7C292.807 502.037 291.431 500.675 289.757 499.78L286.286 508.676C290.735 511.557 292.06 514.155 290.845 517.256C289.552 520.625 285.781 521.98 281.758 520.5L280.796 522.971C280.715 523.171 280.56 523.332 280.363 523.42C280.166 523.508 279.942 523.516 279.739 523.444C279.539 523.363 279.379 523.207 279.293 523.01C279.208 522.812 279.203 522.589 279.281 522.389L280.244 519.87C277.666 518.636 275.574 516.581 274.296 514.029C274.216 513.913 274.166 513.779 274.149 513.639C274.133 513.499 274.151 513.357 274.201 513.226C274.292 513.022 274.455 512.859 274.659 512.769C274.863 512.679 275.094 512.668 275.306 512.738C275.518 512.819 275.692 512.976 275.795 513.178C276.834 515.468 278.626 517.335 280.875 518.469L284.393 509.431C280.023 506.534 278.729 504.015 279.96 500.851C281.19 497.686 284.961 496.285 288.873 497.702L289.347 496.489C289.386 496.383 289.447 496.286 289.526 496.204C289.605 496.122 289.7 496.057 289.805 496.012C289.909 495.968 290.022 495.946 290.136 495.947C290.25 495.947 290.362 495.971 290.467 496.017ZM285.087 507.81L288.447 499.15C285.292 498.017 282.594 499.072 281.695 501.354C280.796 503.637 281.364 505.243 285.087 507.81ZM285.734 510.281L282.326 519.051C285.481 520.216 288.305 519.177 289.252 516.768C290.198 514.359 289.504 512.753 285.734 510.281Z" fill="black"/>
</g>
<path d="M214.162 430.372C229.749 426.152 262.737 422.94 284.697 431.505C299.543 437.299 320.604 490.09 312.905 496.309C305.206 502.528 298.707 496.671 290.188 486.862C287.032 483.288 274.664 459.908 268.006 460.916C258.414 462.348 235.365 476.109 235.365 476.109L214.162 430.372Z" fill="#EDDBC1"/>
<path d="M314.546 492.641C316.913 480.659 310.397 467.198 303.156 454.634C303.03 454.445 302.73 454.634 302.84 454.791C304.686 457.94 314.357 480.801 314.31 492.578C314.31 492.782 314.515 492.751 314.546 492.641Z" fill="#3C4E3E"/>
<path d="M214.162 430.372C229.749 426.152 262.737 422.94 284.697 431.505C299.543 437.299 307.999 488.043 300.3 494.262C292.601 500.481 282.804 492.609 275.784 479.714C273.512 475.542 269.473 457.672 262.863 458.633C253.271 460.065 229.733 463.828 229.733 463.828L214.162 430.372Z" fill="#EDDBC1"/>
<path d="M243.821 461.074C246.298 460.428 247.166 460.192 249.658 459.578C252.151 458.964 254.628 458.413 257.152 458.004C259.311 457.493 261.54 457.35 263.746 457.578C265.835 458.051 267.712 459.19 269.095 460.822C272.36 464.38 273.512 469.56 274.947 474.031C276.525 479.038 280.706 488.516 286.574 492.83C288.124 494.084 289.918 495.001 291.844 495.522C293.254 495.98 294.756 496.077 296.214 495.806C302.13 493.979 303.313 486.863 303.25 480.99C303.124 469.969 299.621 458.948 295.614 448.888C294.636 446.416 293.595 443.96 292.554 441.503C291.546 438.615 289.932 435.974 287.821 433.757C284.113 430.341 274.569 428.577 271.634 427.995C271.414 427.995 271.524 427.617 271.745 427.664C275.326 428.31 285.218 428.829 290.96 434.592C293.043 436.701 294.115 439.693 295.283 442.369C296.45 445.046 297.744 448.022 298.848 450.903C301.058 456.471 302.825 462.204 304.133 468.048C305.317 473.59 306.358 479.746 305.427 485.367C304.622 490.264 301.231 495.192 296.324 496.64C292.207 497.884 288.105 495.349 286.306 494.105C284.541 492.868 282.949 491.402 281.573 489.744C278.764 485.812 276.243 481.681 274.032 477.385C271.95 473.134 271.019 468.285 268.59 464.223C268.048 463.234 267.314 462.362 266.431 461.659C265.548 460.957 264.533 460.436 263.447 460.129C261.24 459.798 258.996 459.798 256.789 460.129C252.54 460.298 248.315 460.857 244.168 461.798C243.08 462.018 242.78 461.341 243.821 461.074Z" fill="#3C4E3E"/>
<path d="M202.219 433.41C206.384 430.954 230.143 416.092 239.482 413.478C248.822 410.865 285.328 405.811 292.632 414.108C301.814 424.546 274.395 433.253 262.121 435.945C249.847 438.638 239.025 452.351 239.025 452.351L202.219 433.41Z" fill="#EDDBC1"/>
<path d="M280.989 430.183C276.873 430.933 272.798 431.89 268.778 433.049C264.892 433.881 261.074 435.002 257.356 436.402C253.8 438.057 250.539 440.28 247.701 442.983C246.266 444.29 244.94 445.66 243.631 447.077C242.322 448.494 240.902 450.32 239.45 451.8C239.292 451.958 239.45 452.225 239.687 452.052C242.47 449.385 245.421 446.898 248.522 444.605C251.675 442.169 255.113 440.123 258.76 438.512C266.033 435.363 273.874 433.789 281.162 430.64C281.462 430.561 281.273 430.136 280.989 430.183Z" fill="#3C4E3E"/>
<path d="M298.454 494.906C301.262 496.48 304.433 498.055 307.762 497.913C309.184 497.873 310.562 497.413 311.721 496.59C312.327 496.152 312.86 495.621 313.299 495.016C313.823 494.406 314.113 493.631 314.119 492.827C314.119 492.607 314.419 492.623 314.372 492.827C314.298 493.275 314.256 493.728 314.245 494.181C314.179 494.559 314.073 494.928 313.93 495.284C313.654 495.987 313.241 496.629 312.715 497.173C311.546 498.366 310.005 499.127 308.345 499.33C304.417 499.865 300.978 497.755 298.28 495.173C298.244 495.15 298.219 495.114 298.211 495.073C298.202 495.032 298.21 494.988 298.233 494.953C298.256 494.917 298.292 494.893 298.333 494.884C298.375 494.875 298.418 494.883 298.454 494.906Z" fill="#3C4E3E"/>
<path d="M235.16 457.229C231.724 462.165 228.615 467.319 225.852 472.658C223.2 477.984 221.329 483.663 220.298 489.521C219.305 495.818 219.825 502.116 219.967 508.54C220.099 511.573 219.978 514.611 219.604 517.624C219.22 520.249 218.553 522.825 217.616 525.307C215.351 530.896 211.723 535.831 207.062 539.666C206.889 539.824 207.062 540.107 207.315 539.981C211.722 536.933 215.406 532.956 218.104 528.331C220.803 523.706 222.452 518.546 222.933 513.216C223.501 506.698 222.397 500.164 222.933 493.63C223.485 487.682 224.8 481.83 226.846 476.217C229.088 469.665 231.946 463.339 235.38 457.323C235.393 457.294 235.393 457.261 235.382 457.232C235.37 457.202 235.347 457.178 235.317 457.166C235.303 457.16 235.287 457.156 235.271 457.156C235.256 457.156 235.24 457.159 235.225 457.165C235.196 457.177 235.172 457.2 235.16 457.229Z" fill="#3C4E3E"/>
<path d="M177.529 447.39C165.275 454.849 153.604 463.223 142.616 472.439C131.5 481.492 121.445 491.77 112.641 503.077C107.771 509.488 103.514 516.341 99.9258 523.545C99.9258 523.687 100.052 523.797 100.147 523.655C103.802 517.537 107.861 511.667 112.294 506.085C116.687 500.548 121.38 495.256 126.351 490.23C136.516 480.125 147.422 470.789 158.976 462.3C165.476 457.419 171.439 452.759 177.908 447.862C178.554 447.39 178.223 446.965 177.529 447.39Z" fill="#3C4E3E"/>
<path d="M359.808 748.406C359.698 749.052 359.572 749.697 359.445 750.359C359.556 749.713 359.682 749.052 359.792 748.406H359.808Z" fill="#F8F5F0"/>
<path d="M109.551 574.353C88.2371 603.15 66.0242 636.575 60.6445 672.692C60.6445 673.228 61.4649 673.417 61.5911 672.866C64.0518 663.017 67.2152 653.357 71.0568 643.959C85.066 640.102 98.8071 636.953 106.175 623.066C113.668 608.802 112.722 590.208 111.302 574.668C111.113 573.834 109.977 573.787 109.551 574.353Z" fill="#C6D4B8"/>
<path d="M71.1829 643.674C80.7591 622.246 93.0487 600.724 108.667 583.09C108.778 582.964 108.935 583.09 108.841 583.263C98.6177 595.859 90.8401 609.493 83.2517 623.396C90.3037 616.248 98.034 609.855 104.723 602.267C104.849 602.125 105.07 602.267 104.944 602.487C98.3022 610.359 91.0609 619.066 82.4155 624.954C80.0807 629.216 77.7352 633.493 75.3793 637.786C75.9631 637.455 76.5626 637.172 77.1621 636.873C77.2567 636.873 77.3514 636.983 77.2567 637.03C76.5941 637.361 75.9316 637.723 75.2532 638.006C74.1331 640.037 73.0287 642.053 71.8613 644.084C71.6089 644.524 70.9778 644.131 71.1829 643.674Z" fill="#3C4E3E"/>
<path d="M78.3133 636.198C84.0431 633.006 89.5085 629.363 94.6574 625.303C94.7994 625.193 95.0045 625.381 94.8625 625.507C89.8613 629.787 84.3886 633.484 78.5499 636.528C78.2817 636.733 78.0451 636.355 78.3133 636.198Z" fill="#3C4E3E"/>
<path d="M58.1502 667.324C58.1502 667.765 58.939 667.749 58.9232 667.324C59.0337 655.421 58.9232 643.471 59.1125 631.522C62.1731 625.381 68.7202 621.98 73.3111 617.053C76.5871 613.447 79.44 609.48 81.8145 605.229C87.2978 595.072 90.6526 583.909 91.6746 572.417C92.9367 559.696 88.0934 517.722 82.7137 519.186C79.9371 519.926 70.9132 540.724 68.5152 547.604C64.6374 558.943 61.8018 570.61 60.0434 582.462C55.6576 610.408 56.0204 639.158 58.1502 667.324Z" fill="#C6D4B8"/>
<path d="M58.056 616.012C58.7028 600.96 62.1105 585.767 65.2815 571.172C68.7049 555.428 72.7121 540.644 80.821 526.616C80.9788 526.348 81.3574 526.616 81.2312 526.852C75.819 537.757 71.6288 549.226 68.7365 561.048C69.2887 560.198 69.9513 559.395 70.5034 558.592C70.7243 558.277 71.2448 558.592 71.0398 558.907C70.3133 560.174 69.4625 561.366 68.4998 562.465C68.4823 562.473 68.4636 562.477 68.4446 562.477C68.4257 562.477 68.4068 562.473 68.3894 562.465C65.597 573.707 63.6565 585.2 61.8896 596.678L62.2682 596.237C62.2871 596.221 62.3108 596.212 62.3355 596.211C62.3602 596.21 62.3845 596.217 62.4046 596.232C62.4246 596.246 62.4391 596.267 62.4459 596.291C62.4526 596.315 62.4512 596.34 62.4418 596.363C62.2367 596.741 61.9842 597.119 61.7634 597.496C60.8957 603.322 60.0912 609.132 59.2866 614.894C69.6673 606.03 78.5493 595.591 83.5504 582.728C83.5504 582.728 83.6608 582.728 83.645 582.728C78.7386 596.064 71.024 607.919 59.1288 616.028L58.4662 620.672C58.4662 620.987 57.9141 620.908 57.9141 620.593C57.9141 619.224 57.914 617.854 58.0402 616.484C57.9455 616.374 57.8825 616.154 58.056 616.012Z" fill="#3C4E3E"/>
<path d="M62.9476 594.206C70.8356 582.382 78.2978 570.905 84.1193 557.837C84.1193 557.695 84.4347 557.837 84.3716 557.947C79.481 570.936 72.6184 584.083 63.3893 594.553C63.1685 594.726 62.7898 594.442 62.9476 594.206Z" fill="#3C4E3E"/>
<path d="M73.5008 554.923C76.7822 549.114 80.253 543.462 83.3452 537.605C83.4398 537.447 83.6607 537.605 83.5976 537.746C81.0558 543.897 77.8388 549.748 74.0056 555.191C73.7847 555.506 73.3114 555.191 73.5008 554.923Z" fill="#3C4E3E"/>
<path d="M72.2232 557.441V557.536C72.1443 557.536 72.1443 557.441 72.2232 557.441Z" fill="#3C4E3E"/>
<path d="M50.0739 632.921C49.9259 640.802 48.9958 648.65 47.2973 656.348C47.4235 657.198 47.534 658.049 47.6602 658.914C50.0978 650.405 51.5118 641.637 51.8724 632.795C51.943 632.673 51.9802 632.534 51.9802 632.393C51.9802 632.252 51.943 632.114 51.8724 631.992C52.2093 620.14 51.3265 608.286 49.2378 596.614C45.5462 574.745 37.4846 553.774 22.2132 537.384C22.0871 537.276 21.9376 537.198 21.7765 537.156C21.6154 537.114 21.447 537.11 21.2839 537.143C21.1209 537.177 20.9677 537.247 20.8362 537.349C20.7046 537.451 20.5982 537.581 20.5252 537.73C14.3567 553.38 16.5022 572.037 21.7557 587.64C24.6123 596.092 28.6944 604.08 33.8717 611.351C39.141 618.672 45.8301 624.891 50.0739 632.921Z" fill="#C6D4B8"/>
<path d="M24.0434 544.674C38.5259 568.117 48.5911 595.922 49.8217 623.616C49.8217 624.12 49.017 624.246 48.9539 623.742C48.6068 621.254 48.2283 618.783 47.8339 616.326C41.8547 610.596 35.7019 604.55 31.4108 597.433C31.3319 597.307 31.5212 597.166 31.6159 597.276C36.5915 603.353 41.9171 609.135 47.5656 614.595C46.5138 608.465 45.2781 602.435 43.8582 596.504C43.4638 596.064 43.0852 595.607 42.7066 595.166C42.328 594.725 42.8801 594.442 43.1325 594.725C43.3849 595.009 43.3692 594.993 43.4796 595.119C41.4437 586.977 38.9203 578.965 35.9229 571.125C32.2312 566.748 28.0347 562.953 25.4317 557.663C25.4317 557.537 25.5421 557.443 25.621 557.553C27.7823 560.576 29.8647 563.615 32.3101 566.417C33.2882 567.535 34.361 568.59 35.3706 569.676C32.0302 561.18 28.0703 552.939 23.5227 545.02C23.4889 544.952 23.4812 544.873 23.501 544.8C23.5209 544.726 23.567 544.662 23.6307 544.619C23.6945 544.577 23.7715 544.559 23.8474 544.569C23.9233 544.579 23.993 544.617 24.0434 544.674Z" fill="#3C4E3E"/>
<path d="M26.9767 573.596C31.7096 579.893 36.9789 585.876 41.3331 592.379C41.4593 592.567 41.1911 592.756 41.0333 592.615C35.4486 587.372 30.7156 580.24 26.6612 573.722C26.535 573.58 26.8347 573.422 26.9767 573.596Z" fill="#3C4E3E"/>
<path d="M41.9971 593.828L42.1864 594.033C42.3284 594.175 42.1864 594.379 41.9813 594.253L41.7762 594.049C41.6342 593.907 41.8551 593.702 41.9971 593.828Z" fill="#3C4E3E"/>
<path d="M1.37258 589.828C2.52424 601.888 8.88203 616.31 16.6439 625.599C20.0562 629.639 24.2737 632.926 29.0282 635.25C34.3921 637.895 40.0716 640.95 45.5617 643.122C48.197 649.812 50.1576 656.748 51.4146 663.826C51.5881 663.228 51.7775 662.598 51.951 661.984C48.3856 631.44 28.5865 605.304 3.24995 588.584C3.05024 588.447 2.81411 588.373 2.57187 588.371C2.32964 588.369 2.09234 588.44 1.89052 588.573C1.68871 588.707 1.53161 588.898 1.43931 589.121C1.34701 589.345 1.32376 589.591 1.37258 589.828Z" fill="#C6D4B8"/>
<path d="M10.1126 598.773C9.9391 598.615 10.1127 598.3 10.3809 598.442C24.2983 608.776 35.3962 622.428 42.6589 638.149C42.8324 638.559 42.2646 638.921 42.0279 638.511C40.8447 636.449 39.6457 634.449 38.4309 632.481C32.641 631.395 27.1667 627.333 22.8756 623.475C22.7494 623.381 22.8756 623.208 23.0491 623.318C25.2594 625.322 27.7134 627.042 30.3535 628.435C32.7199 629.631 35.2599 630.387 37.7052 631.348C35.5596 627.947 33.3352 624.688 31.0003 621.539C24.7646 619.165 18.9163 615.88 13.6465 611.793C13.4729 611.667 13.6465 611.4 13.8043 611.51C19.0347 614.66 24.427 617.535 29.9591 620.122C26.4259 615.479 22.6171 611.053 18.553 606.865C16.5809 605.826 14.5931 604.787 12.6842 603.716C12.6534 603.696 12.6309 603.665 12.6206 603.629C12.6104 603.594 12.6131 603.556 12.6281 603.522C12.6432 603.488 12.6697 603.46 12.703 603.444C12.7364 603.428 12.7744 603.424 12.8104 603.433C14.3925 603.984 15.9022 604.725 17.3066 605.637C14.9875 603.276 12.6368 600.993 10.1126 598.773Z" fill="#3C4E3E"/>
<path d="M10.6491 609.322C10.9962 609.522 11.3237 609.754 11.6272 610.015C11.7219 610.093 11.6272 610.219 11.501 610.172C11.1496 610.011 10.8119 609.821 10.4913 609.605C10.3177 609.495 10.4756 609.212 10.6491 609.322Z" fill="#3C4E3E"/>
<path d="M91.4697 729.939H22.0703L27.6709 666.852L28.9014 652.934H84.6386L85.8692 666.852L91.4697 729.939Z" fill="#687969"/>
<path d="M85.8702 666.852H27.6719L28.9024 652.934H84.6397L85.8702 666.852Z" fill="#3C4E3E"/>
<path d="M87.967 643.219H25.5723V656.995H87.967V643.219Z" fill="#687969"/>
<path d="M192.754 609.367C193.274 606.69 193.59 604.297 193.858 601.746C194.126 599.196 194.252 596.661 194.237 594.063C194.249 591.392 194.017 588.725 193.542 586.097C193.044 583.05 191.821 580.167 189.977 577.689C188.817 576.257 187.322 575.132 185.623 574.414C184.789 574.064 183.915 573.821 183.02 573.69C182.184 573.567 181.338 573.53 180.495 573.58C177.376 573.817 174.406 575.01 171.992 576.996C169.822 578.73 167.979 580.836 166.549 583.215C165.062 585.557 164.049 588.168 163.568 590.899C163.25 592.53 163.381 594.216 163.946 595.779C164.336 596.789 165.024 597.656 165.918 598.267C166.769 598.829 167.755 599.156 168.774 599.212C169.822 599.265 170.863 599.013 171.771 598.487C172.551 597.996 173.213 597.341 173.712 596.567C174.502 595.324 175.038 593.939 175.289 592.489C175.739 589.916 175.739 587.284 175.289 584.711C174.893 582.134 173.952 579.671 172.528 577.484C171.768 576.325 170.74 575.364 169.531 574.682C168.28 574 166.834 573.762 165.429 574.005C162.913 574.568 160.636 575.9 158.914 577.815C155.645 581.408 153.039 585.55 151.215 590.048C153.357 585.789 156.229 581.936 159.702 578.665C161.323 577.095 163.399 576.075 165.634 575.753C166.636 575.735 167.62 576.015 168.463 576.555C169.305 577.096 169.968 577.874 170.367 578.791C171.373 580.748 171.958 582.893 172.087 585.089C172.272 587.272 172.086 589.471 171.535 591.591C171.303 592.506 170.895 593.366 170.336 594.126C170.161 594.351 169.933 594.53 169.673 594.646C169.526 594.701 169.363 594.701 169.216 594.646C168.995 594.646 168.742 594.473 168.711 594.394C168.645 594.281 168.597 594.159 168.569 594.032C168.46 593.294 168.514 592.542 168.726 591.828C169.955 587.918 172.481 584.542 175.889 582.255C177.267 581.258 178.92 580.708 180.622 580.681C180.983 580.7 181.342 580.753 181.694 580.838C181.981 580.914 182.256 581.025 182.515 581.169C183.007 581.456 183.419 581.862 183.714 582.349C184.551 583.866 185.041 585.549 185.149 587.277C185.335 589.373 185.335 591.48 185.149 593.575C184.964 595.804 184.664 598.021 184.25 600.219C183.84 602.408 183.319 604.722 182.673 606.722L192.754 609.367Z" fill="#C6D4B8"/>
<path opacity="0.1" d="M192.754 609.367C193.274 606.69 193.59 604.297 193.858 601.746C194.126 599.196 194.252 596.661 194.237 594.063C194.249 591.392 194.017 588.725 193.542 586.097C193.044 583.05 191.821 580.167 189.977 577.689C188.817 576.257 187.322 575.132 185.623 574.414C184.789 574.064 183.915 573.821 183.02 573.69C182.184 573.567 181.338 573.53 180.495 573.58C177.376 573.817 174.406 575.01 171.992 576.996C169.822 578.73 167.979 580.836 166.549 583.215C165.062 585.557 164.049 588.168 163.568 590.899C163.25 592.53 163.381 594.216 163.946 595.779C164.336 596.789 165.024 597.656 165.918 598.267C166.769 598.829 167.755 599.156 168.774 599.212C169.822 599.265 170.863 599.013 171.771 598.487C172.551 597.996 173.213 597.341 173.712 596.567C174.502 595.324 175.038 593.939 175.289 592.489C175.739 589.916 175.739 587.284 175.289 584.711C174.893 582.134 173.952 579.671 172.528 577.484C171.768 576.325 170.74 575.364 169.531 574.682C168.28 574 166.834 573.762 165.429 574.005C162.913 574.568 160.636 575.9 158.914 577.815C155.645 581.408 153.039 585.55 151.215 590.048C153.357 585.789 156.229 581.936 159.702 578.665C161.323 577.095 163.399 576.075 165.634 575.753C166.636 575.735 167.62 576.015 168.463 576.555C169.305 577.096 169.968 577.874 170.367 578.791C171.373 580.748 171.958 582.893 172.087 585.089C172.272 587.272 172.086 589.471 171.535 591.591C171.303 592.506 170.895 593.366 170.336 594.126C170.161 594.351 169.933 594.53 169.673 594.646C169.526 594.701 169.363 594.701 169.216 594.646C168.995 594.646 168.742 594.473 168.711 594.394C168.645 594.281 168.597 594.159 168.569 594.032C168.46 593.294 168.514 592.542 168.726 591.828C169.955 587.918 172.481 584.542 175.889 582.255C177.267 581.258 178.92 580.708 180.622 580.681C180.983 580.7 181.342 580.753 181.694 580.838C181.981 580.914 182.256 581.025 182.515 581.169C183.007 581.456 183.419 581.862 183.714 582.349C184.551 583.866 185.041 585.549 185.149 587.277C185.335 589.373 185.335 591.48 185.149 593.575C184.964 595.804 184.664 598.021 184.25 600.219C183.84 602.408 183.319 604.722 182.673 606.722L192.754 609.367Z" fill="black"/>
<path d="M200.752 726.348C207.709 736.156 206.289 766.118 210.502 770.322C214.714 774.525 257.83 774.069 260.796 771.597C263.762 769.125 262.374 758.545 265.529 756.813C266.901 756.12 200.752 726.348 200.752 726.348Z" fill="#C6D4B8"/>
<path opacity="0.1" d="M200.752 726.348C207.709 736.156 206.289 766.118 210.502 770.322C214.714 774.525 257.83 774.069 260.796 771.597C263.762 769.125 262.374 758.545 265.529 756.813C266.901 756.12 200.752 726.348 200.752 726.348Z" fill="black"/>
<path d="M385.08 726.805C376.388 739.4 381.089 766.165 376.877 770.29C372.664 774.415 329.548 774.038 326.582 771.566C323.616 769.094 325.005 757.947 323.285 755.821C322.386 754.735 385.08 726.805 385.08 726.805Z" fill="#C6D4B8"/>
<path opacity="0.1" d="M385.08 726.805C376.388 739.4 381.089 766.165 376.877 770.29C372.664 774.415 329.548 774.038 326.582 771.566C323.616 769.094 325.005 757.947 323.285 755.821C322.386 754.735 385.08 726.805 385.08 726.805Z" fill="black"/>
<path opacity="0.3" d="M265.592 756.813C265.088 757.188 264.663 757.66 264.344 758.201C264.024 758.741 263.815 759.34 263.73 759.962C243.806 757.633 224.331 752.402 205.926 744.438C204.917 737.133 203.481 730.174 200.752 726.316C200.752 726.364 266.901 756.136 265.592 756.813Z" fill="black"/>
<path opacity="0.3" d="M385.081 726.805C381.926 731.528 380.458 738.125 379.78 744.848C362.126 752.653 343.413 757.816 324.248 760.167C324.274 758.665 323.95 757.177 323.301 755.821C322.37 754.735 385.081 726.805 385.081 726.805Z" fill="black"/>
<path d="M290.03 545.258C203.261 545.258 169.941 613.116 169.941 652.807C169.941 691.979 195.183 758.546 290.03 758.546C384.876 758.546 416.318 702.15 416.318 651.91C416.318 601.67 377.761 545.258 290.03 545.258Z" fill="#C6D4B8"/>
<path opacity="0.1" d="M290.03 545.258C203.261 545.258 169.941 613.116 169.941 652.807C169.941 691.979 195.183 758.546 290.03 758.546C384.876 758.546 416.318 702.15 416.318 651.91C416.318 601.67 377.761 545.258 290.03 545.258Z" fill="black"/>
<path d="M314.529 550.17C314.529 550.17 354.191 519.815 397.149 523.404C411.931 524.648 387.384 556.641 386.926 581.658L314.529 550.17Z" fill="#C6D4B8"/>
<path opacity="0.1" d="M314.529 550.17C314.529 550.17 354.191 519.815 397.149 523.404C411.931 524.648 387.384 556.641 386.926 581.658L314.529 550.17Z" fill="black"/>
<path opacity="0.3" d="M370.361 569.363C370.108 570.938 383.802 576.795 385.222 575.897C386.642 575 388.062 555.319 399.231 534.348C400.872 531.309 373.011 552.501 370.361 569.363Z" fill="black"/>
<path opacity="0.3" d="M378.913 647.375C380.236 647.173 381.474 646.599 382.483 645.721C383.491 644.843 384.228 643.696 384.608 642.416C384.482 643.991 384 645.517 383.2 646.88C382.399 648.243 381.301 649.408 379.986 650.288C379.796 650.414 379.891 650.776 380.143 650.697C387.732 647.847 386.911 637.157 384.245 630.34C384.103 629.962 383.961 629.584 383.788 629.222C382.084 625.27 379.055 622.405 375.395 622.924C363.137 624.688 367.617 649.013 378.913 647.375Z" fill="black"/>
<path d="M408.193 612.738C410.086 618.422 427.314 613.809 431.652 617.462C438.483 623.13 436.59 693.333 430.343 698.986C426.841 702.135 407.31 698.812 401.82 702.67C396.33 706.527 408.193 612.738 408.193 612.738Z" fill="#C6D4B8"/>
<path opacity="0.1" d="M408.193 612.738C410.086 618.422 427.314 613.809 431.652 617.462C438.483 623.13 436.59 693.333 430.343 698.986C426.841 702.135 407.31 698.812 401.82 702.67C396.33 706.527 408.193 612.738 408.193 612.738Z" fill="black"/>
<path opacity="0.3" d="M432.551 656.457C432.551 673.556 431.115 687.426 429.395 687.426C427.676 687.426 426.24 673.556 426.24 656.457C426.24 639.359 427.66 625.488 429.395 625.488C431.131 625.488 432.551 639.359 432.551 656.457Z" fill="black"/>
<path opacity="0.3" d="M256.363 567.786C256.647 567.691 285.928 558.197 313.158 565.629L315.871 555.726C285.549 547.444 254.344 557.615 253.098 558.04L256.348 567.786L254.77 562.921L256.363 567.786Z" fill="black"/>
<path d="M215.707 716.824C176.598 671.984 200.53 619.886 201.619 617.635C202.288 616.118 202.343 614.401 201.773 612.845C201.203 611.288 200.053 610.011 198.561 609.281C197.07 608.551 195.354 608.425 193.772 608.929C192.19 609.432 190.864 610.526 190.071 611.983C184.788 623.799 181.662 636.462 180.842 649.376C178.964 677.904 188.414 704.103 210.817 721.941C217.537 727.326 220.74 722.602 215.707 716.824Z" fill="white"/>
<path d="M198.686 597.701C198.682 599.085 199.091 600.438 199.858 601.589C200.626 602.741 201.719 603.639 202.999 604.171C204.278 604.702 205.687 604.843 207.047 604.575C208.407 604.307 209.656 603.643 210.638 602.666C211.619 601.689 212.287 600.443 212.559 599.087C212.831 597.73 212.693 596.324 212.163 595.046C211.633 593.767 210.736 592.675 209.583 591.906C208.431 591.137 207.076 590.727 205.69 590.727C203.835 590.727 202.056 591.461 200.743 592.768C199.43 594.076 198.69 595.85 198.686 597.701Z" fill="white"/>
<path d="M546.14 762.75H496.682V773.661H546.14V762.75Z" fill="#C6D4B8"/>
<g opacity="0.1">
<path d="M498.811 763.742C499.856 766.562 499.856 769.661 498.811 772.48C497.766 769.661 497.766 766.562 498.811 763.742Z" fill="black"/>
<path d="M502.409 763.742C503.453 766.562 503.453 769.661 502.409 772.48C501.364 769.661 501.364 766.562 502.409 763.742Z" fill="black"/>
<path d="M504.205 763.742C505.25 766.562 505.25 769.661 504.205 772.48C503.161 769.661 503.161 766.562 504.205 763.742Z" fill="black"/>
<path d="M514.098 763.742C515.129 766.564 515.129 769.658 514.098 772.48C513.053 769.661 513.053 766.562 514.098 763.742Z" fill="black"/>
<path d="M516.765 763.742C517.308 765.137 517.576 766.623 517.553 768.119C517.582 769.611 517.314 771.093 516.765 772.48C516.208 771.095 515.94 769.611 515.976 768.119C515.954 766.623 516.221 765.137 516.765 763.742Z" fill="black"/>
<path d="M527.807 763.742C528.852 766.562 528.852 769.661 527.807 772.48C526.762 769.661 526.762 766.562 527.807 763.742Z" fill="black"/>
<path d="M530.364 763.742C531.409 766.562 531.409 769.661 530.364 772.48C529.319 769.661 529.319 766.562 530.364 763.742Z" fill="black"/>
<path d="M535.096 763.742C536.14 766.562 536.14 769.661 535.096 772.48C534.064 769.658 534.064 766.564 535.096 763.742Z" fill="black"/>
<path d="M525.631 763.742C526.181 765.135 526.45 766.622 526.42 768.119C526.453 769.606 526.185 771.084 525.631 772.465C525.081 771.077 524.813 769.595 524.842 768.103C524.822 766.613 525.09 765.132 525.631 763.742Z" fill="black"/>
<path d="M507.471 763.742C508.516 766.562 508.516 769.661 507.471 772.48C506.426 769.661 506.426 766.562 507.471 763.742Z" fill="black"/>
<path d="M520.282 763.742C521.327 766.562 521.327 769.661 520.282 772.48C519.726 771.095 519.458 769.611 519.493 768.119C519.463 766.622 519.731 765.135 520.282 763.742Z" fill="black"/>
<path d="M522.127 763.742C523.172 766.562 523.172 769.661 522.127 772.48C521.083 769.661 521.083 766.562 522.127 763.742Z" fill="black"/>
<path d="M541.171 763.742C541.714 765.137 541.982 766.623 541.96 768.119C541.988 769.611 541.72 771.093 541.171 772.48C540.615 771.095 540.346 769.611 540.382 768.119C540.352 766.622 540.62 765.135 541.171 763.742Z" fill="black"/>
<path d="M543.932 763.742C544.475 765.137 544.743 766.623 544.72 768.119C544.756 769.611 544.488 771.095 543.932 772.48C543.382 771.093 543.114 769.611 543.143 768.119C543.12 766.623 543.388 765.137 543.932 763.742Z" fill="black"/>
<path d="M537.225 763.742C538.27 766.562 538.27 769.661 537.225 772.48C536.18 769.661 536.18 766.562 537.225 763.742Z" fill="black"/>
<path d="M511.952 763.742C512.502 765.135 512.77 766.622 512.74 768.119C512.776 769.611 512.508 771.095 511.952 772.48C510.907 769.661 510.907 766.562 511.952 763.742Z" fill="black"/>
</g>
<path opacity="0.1" d="M546.14 762.75V765.064L496.682 766.623V762.75H546.14Z" fill="black"/>
<path d="M542.007 751.84H492.549V762.751H542.007V751.84Z" fill="#C6D4B8"/>
<g opacity="0.1">
<path d="M539.83 761.57C538.778 758.757 538.778 755.66 539.83 752.848C540.882 755.66 540.882 758.757 539.83 761.57Z" fill="black"/>
<path d="M536.123 761.57C535.572 760.183 535.304 758.7 535.334 757.209C535.295 755.717 535.563 754.232 536.123 752.848C536.675 754.234 536.943 755.717 536.911 757.209C536.934 758.7 536.666 760.181 536.123 761.57Z" fill="black"/>
<path d="M534.324 761.57C533.272 758.757 533.272 755.66 534.324 752.848C535.376 755.66 535.376 758.757 534.324 761.57Z" fill="black"/>
<path d="M524.449 761.57C523.397 758.757 523.397 755.66 524.449 752.848C525.501 755.66 525.501 758.757 524.449 761.57Z" fill="black"/>
<path d="M521.766 761.57C521.223 760.181 520.955 758.7 520.977 757.209C520.946 755.717 521.214 754.234 521.766 752.848C522.325 754.232 522.594 755.717 522.555 757.209C522.585 758.7 522.317 760.183 521.766 761.57Z" fill="black"/>
<path d="M510.723 761.57C509.671 758.757 509.671 755.66 510.723 752.848C511.775 755.66 511.775 758.757 510.723 761.57Z" fill="black"/>
<path d="M508.168 761.57C507.116 758.757 507.116 755.66 508.168 752.848C509.22 755.66 509.22 758.757 508.168 761.57Z" fill="black"/>
<path d="M503.545 761.57C502.493 758.757 502.493 755.66 503.545 752.848C504.597 755.66 504.597 758.757 503.545 761.57Z" fill="black"/>
<path d="M512.853 761.57C512.31 760.181 512.042 758.7 512.064 757.209C512.025 755.717 512.294 754.232 512.853 752.848C513.405 754.234 513.673 755.717 513.642 757.209C513.664 758.7 513.396 760.181 512.853 761.57Z" fill="black"/>
<path d="M531.058 761.57C530.507 760.183 530.239 758.7 530.269 757.209C530.23 755.717 530.499 754.232 531.058 752.848C532.11 755.66 532.11 758.757 531.058 761.57Z" fill="black"/>
<path d="M518.248 761.57C517.196 758.757 517.196 755.66 518.248 752.848C519.3 755.66 519.3 758.757 518.248 761.57Z" fill="black"/>
<path d="M516.418 761.57C515.366 758.757 515.366 755.66 516.418 752.848C517.449 755.664 517.449 758.754 516.418 761.57Z" fill="black"/>
<path d="M497.361 761.57C496.309 758.757 496.309 755.66 497.361 752.848C497.921 754.232 498.189 755.717 498.15 757.209C498.18 758.7 497.912 760.183 497.361 761.57Z" fill="black"/>
<path d="M494.6 761.57C494.057 760.181 493.789 758.7 493.811 757.209C493.78 755.717 494.048 754.234 494.6 752.848C495.159 754.232 495.428 755.717 495.389 757.209C495.419 758.7 495.151 760.183 494.6 761.57Z" fill="black"/>
<path d="M501.305 761.57C500.253 758.757 500.253 755.66 501.305 752.848C502.357 755.66 502.357 758.757 501.305 761.57Z" fill="black"/>
<path d="M526.578 761.57C526.027 760.183 525.759 758.7 525.789 757.209C525.75 755.717 526.018 754.232 526.578 752.848C527.13 754.234 527.398 755.717 527.367 757.209C527.389 758.7 527.121 760.181 526.578 761.57Z" fill="black"/>
</g>
<path opacity="0.1" d="M542.023 751.84V754.154L492.549 755.713V751.84H542.023Z" fill="black"/>
<path d="M545.824 741.023H496.365V751.934H545.824V741.023Z" fill="#C6D4B8"/>
<g opacity="0.1">
<path d="M498.416 742.016C499.461 744.835 499.461 747.934 498.416 750.754C497.372 747.934 497.372 744.835 498.416 742.016Z" fill="black"/>
<path d="M502.092 742.016C502.643 743.408 502.911 744.896 502.881 746.393C502.917 747.885 502.648 749.368 502.092 750.754C501.047 747.934 501.047 744.835 502.092 742.016Z" fill="black"/>
<path d="M503.891 742.016C504.936 744.835 504.936 747.934 503.891 750.754C502.846 747.934 502.846 744.835 503.891 742.016Z" fill="black"/>
<path d="M513.766 742.016C514.811 744.835 514.811 747.934 513.766 750.754C512.721 747.934 512.721 744.835 513.766 742.016Z" fill="black"/>
<path d="M516.448 742.016C516.991 743.41 517.259 744.896 517.237 746.393C517.266 747.884 516.998 749.366 516.448 750.754C515.892 749.368 515.624 747.885 515.659 746.393C515.629 744.896 515.897 743.408 516.448 742.016Z" fill="black"/>
<path d="M527.493 742.016C528.537 744.835 528.537 747.934 527.493 750.754C526.448 747.934 526.448 744.835 527.493 742.016Z" fill="black"/>
<path d="M530.047 742.016C531.092 744.835 531.092 747.934 530.047 750.754C529.002 747.934 529.002 744.835 530.047 742.016Z" fill="black"/>
<path d="M534.733 742.016C535.778 744.835 535.778 747.934 534.733 750.754C533.688 747.934 533.688 744.835 534.733 742.016Z" fill="black"/>
<path d="M525.361 742.016C525.904 743.41 526.172 744.896 526.15 746.393C526.186 747.885 525.917 749.368 525.361 750.754C524.812 749.366 524.544 747.884 524.572 746.393C524.55 744.896 524.818 743.41 525.361 742.016Z" fill="black"/>
<path d="M507.157 742.016C508.201 744.835 508.201 747.934 507.157 750.754C506.112 747.934 506.112 744.835 507.157 742.016Z" fill="black"/>
<path d="M519.967 742.016C521.012 744.835 521.012 747.934 519.967 750.754C518.922 747.934 518.922 744.835 519.967 742.016Z" fill="black"/>
<path d="M521.813 742.016C522.844 744.837 522.844 747.932 521.813 750.754C520.768 747.934 520.768 744.835 521.813 742.016Z" fill="black"/>
<path d="M540.854 742.016C541.899 744.835 541.899 747.934 540.854 750.754C540.298 749.368 540.03 747.885 540.066 746.393C540.036 744.896 540.304 743.408 540.854 742.016Z" fill="black"/>
<path d="M543.614 742.016C544.157 743.41 544.425 744.896 544.403 746.393C544.432 747.884 544.164 749.366 543.614 750.754C543.058 749.368 542.79 747.885 542.825 746.393C542.803 744.896 543.071 743.41 543.614 742.016Z" fill="black"/>
<path d="M536.911 742.016C537.955 744.835 537.955 747.934 536.911 750.754C535.866 747.934 535.866 744.835 536.911 742.016Z" fill="black"/>
<path d="M511.637 742.016C512.187 743.408 512.455 744.896 512.425 746.393C512.461 747.885 512.193 749.368 511.637 750.754C511.087 749.366 510.819 747.884 510.848 746.393C510.826 744.896 511.093 743.41 511.637 742.016Z" fill="black"/>
</g>
<path opacity="0.1" d="M545.824 741.023V743.338L496.365 744.897V741.023H545.824Z" fill="black"/>
<path d="M184.423 756.184H134.965V767.094H184.423V756.184Z" fill="#C6D4B8"/>
<g opacity="0.1">
<path d="M137 757.176C138.045 759.995 138.045 763.094 137 765.914C135.956 763.094 135.956 759.995 137 757.176Z" fill="black"/>
<path d="M140.693 757.176C141.235 758.565 141.503 760.046 141.482 761.537C141.512 763.034 141.243 764.521 140.693 765.914C140.134 764.524 139.866 763.034 139.904 761.537C139.875 760.045 140.143 758.563 140.693 757.176Z" fill="black"/>
<path d="M142.49 757.176C143.032 758.565 143.3 760.046 143.279 761.537C143.317 763.034 143.049 764.524 142.49 765.914C141.94 764.521 141.671 763.034 141.701 761.537C141.68 760.046 141.948 758.565 142.49 757.176Z" fill="black"/>
<path d="M152.366 757.176C153.41 759.995 153.41 763.094 152.366 765.914C151.321 763.094 151.321 759.995 152.366 757.176Z" fill="black"/>
<path d="M155.049 757.176C156.094 759.995 156.094 763.094 155.049 765.914C154.004 763.094 154.004 759.995 155.049 757.176Z" fill="black"/>
<path d="M166.092 757.176C166.642 758.563 166.91 760.045 166.881 761.537C166.919 763.034 166.65 764.524 166.092 765.914C165.047 763.094 165.047 759.995 166.092 757.176Z" fill="black"/>
<path d="M168.647 757.176C169.189 758.565 169.456 760.046 169.435 761.537C169.473 763.034 169.205 764.524 168.647 765.914C168.096 764.521 167.828 763.034 167.858 761.537C167.837 760.046 168.105 758.565 168.647 757.176Z" fill="black"/>
<path d="M173.332 757.176C173.882 758.563 174.15 760.045 174.121 761.537C174.159 763.034 173.891 764.524 173.332 765.914C172.288 763.094 172.288 759.995 173.332 757.176Z" fill="black"/>
<path d="M163.962 757.176C165.007 759.995 165.007 763.094 163.962 765.914C163.404 764.524 163.136 763.034 163.173 761.537C163.145 760.045 163.413 758.563 163.962 757.176Z" fill="black"/>
<path d="M145.757 757.176C146.299 758.565 146.567 760.046 146.546 761.537C146.576 763.034 146.308 764.521 145.757 765.914C145.199 764.524 144.931 763.034 144.968 761.537C144.947 760.046 145.215 758.565 145.757 757.176Z" fill="black"/>
<path d="M158.567 757.176C159.612 759.995 159.612 763.094 158.567 765.914C157.522 763.094 157.522 759.995 158.567 757.176Z" fill="black"/>
<path d="M160.397 757.176C161.442 759.995 161.442 763.094 160.397 765.914C159.352 763.094 159.352 759.995 160.397 757.176Z" fill="black"/>
<path d="M179.454 757.176C180.498 759.995 180.498 763.094 179.454 765.914C178.409 763.094 178.409 759.995 179.454 757.176Z" fill="black"/>
<path d="M182.215 757.176C183.26 759.995 183.26 763.094 182.215 765.914C181.17 763.094 181.17 759.995 182.215 757.176Z" fill="black"/>
<path d="M175.51 757.176C176.06 758.563 176.328 760.045 176.299 761.537C176.337 763.034 176.068 764.524 175.51 765.914C174.465 763.094 174.465 759.995 175.51 757.176Z" fill="black"/>
<path d="M150.238 757.176C150.78 758.565 151.047 760.046 151.026 761.537C151.056 763.034 150.788 764.521 150.238 765.914C149.679 764.524 149.411 763.034 149.449 761.537C149.42 760.045 149.688 758.563 150.238 757.176Z" fill="black"/>
</g>
<path opacity="0.1" d="M184.423 756.184V758.498L134.965 760.057V756.184H184.423Z" fill="black"/>
<path d="M181.033 745.273H131.574V756.184H181.033V745.273Z" fill="#C6D4B8"/>
<g opacity="0.1">
<path d="M133.624 746.266C134.167 747.66 134.435 749.147 134.413 750.643C134.442 752.134 134.173 753.616 133.624 755.004C133.068 753.618 132.8 752.135 132.835 750.643C132.813 749.147 133.081 747.66 133.624 746.266Z" fill="black"/>
<path d="M137.301 746.266C138.345 749.085 138.345 752.184 137.301 755.004C136.27 752.182 136.27 749.087 137.301 746.266Z" fill="black"/>
<path d="M139.114 746.266C140.159 749.085 140.159 752.184 139.114 755.004C138.069 752.184 138.069 749.085 139.114 746.266Z" fill="black"/>
<path d="M148.989 746.266C150.034 749.085 150.034 752.184 148.989 755.004C148.433 753.618 148.165 752.135 148.2 750.643C148.17 749.146 148.438 747.658 148.989 746.266Z" fill="black"/>
<path d="M151.735 746.266C152.78 749.085 152.78 752.184 151.735 755.004C150.69 752.184 150.69 749.085 151.735 746.266Z" fill="black"/>
<path d="M162.778 746.266C163.823 749.085 163.823 752.184 162.778 755.004C161.733 752.184 161.733 749.085 162.778 746.266Z" fill="black"/>
<path d="M165.272 746.266C166.317 749.085 166.317 752.184 165.272 755.004C164.227 752.184 164.227 749.085 165.272 746.266Z" fill="black"/>
<path d="M169.957 746.266C171.002 749.085 171.002 752.184 169.957 755.004C168.913 752.184 168.913 749.085 169.957 746.266Z" fill="black"/>
<path d="M160.569 746.266C161.614 749.085 161.614 752.184 160.569 755.004C159.524 752.184 159.524 749.085 160.569 746.266Z" fill="black"/>
<path d="M142.379 746.266C143.424 749.085 143.424 752.184 142.379 755.004C141.334 752.184 141.334 749.085 142.379 746.266Z" fill="black"/>
<path d="M155.174 746.266C155.724 747.658 155.993 749.146 155.963 750.643C155.998 752.135 155.73 753.618 155.174 755.004C154.624 753.616 154.356 752.134 154.385 750.643C154.363 749.147 154.63 747.66 155.174 746.266Z" fill="black"/>
<path d="M157.02 746.266C158.065 749.085 158.065 752.184 157.02 755.004C156.464 753.618 156.196 752.135 156.232 750.643C156.202 749.146 156.47 747.658 157.02 746.266Z" fill="black"/>
<path d="M176.061 746.266C176.612 747.658 176.88 749.146 176.85 750.643C176.885 752.135 176.617 753.618 176.061 755.004C175.016 752.184 175.016 749.085 176.061 746.266Z" fill="black"/>
<path d="M178.823 746.266C179.868 749.085 179.868 752.184 178.823 755.004C177.778 752.184 177.778 749.085 178.823 746.266Z" fill="black"/>
<path d="M172.133 746.266C173.178 749.085 173.178 752.184 172.133 755.004C171.088 752.184 171.088 749.085 172.133 746.266Z" fill="black"/>
<path d="M146.844 746.266C147.889 749.085 147.889 752.184 146.844 755.004C145.799 752.184 145.799 749.085 146.844 746.266Z" fill="black"/>
</g>
<path opacity="0.1" d="M181.048 745.273V747.588L131.574 749.147V745.273H181.048Z" fill="black"/>
<path d="M188.683 723.547H139.225V734.458H188.683V723.547Z" fill="#C6D4B8"/>
<g opacity="0.1">
<path d="M141.26 724.539C142.305 727.358 142.305 730.458 141.26 733.277C140.215 730.458 140.215 727.358 141.26 724.539Z" fill="black"/>
<path d="M144.952 724.539C145.495 725.934 145.763 727.42 145.741 728.916C145.77 730.407 145.502 731.89 144.952 733.277C144.396 731.892 144.128 730.408 144.163 728.916C144.133 727.419 144.401 725.932 144.952 724.539Z" fill="black"/>
<path d="M146.751 724.539C147.294 725.934 147.562 727.42 147.54 728.916C147.569 730.407 147.3 731.89 146.751 733.277C146.195 731.892 145.926 730.408 145.962 728.916C145.94 727.42 146.208 725.934 146.751 724.539Z" fill="black"/>
<path d="M156.625 724.539C157.176 725.932 157.444 727.419 157.414 728.916C157.45 730.408 157.182 731.892 156.625 733.277C155.581 730.458 155.581 727.358 156.625 724.539Z" fill="black"/>
<path d="M159.309 724.539C160.354 727.358 160.354 730.458 159.309 733.277C158.264 730.458 158.264 727.358 159.309 724.539Z" fill="black"/>
<path d="M170.351 724.539C170.902 725.932 171.17 727.419 171.14 728.916C171.176 730.408 170.908 731.892 170.351 733.277C169.802 731.89 169.534 730.407 169.563 728.916C169.54 727.42 169.808 725.934 170.351 724.539Z" fill="black"/>
<path d="M172.907 724.539C173.45 725.934 173.718 727.42 173.696 728.916C173.725 730.407 173.457 731.89 172.907 733.277C172.351 731.892 172.083 730.408 172.118 728.916C172.096 727.42 172.364 725.934 172.907 724.539Z" fill="black"/>
<path d="M177.592 724.539C178.143 725.932 178.411 727.419 178.381 728.916C178.417 730.408 178.148 731.892 177.592 733.277C176.547 730.458 176.547 727.358 177.592 724.539Z" fill="black"/>
<path d="M168.221 724.539C169.266 727.358 169.266 730.458 168.221 733.277C167.176 730.458 167.176 727.358 168.221 724.539Z" fill="black"/>
<path d="M150.017 724.539C150.56 725.934 150.828 727.42 150.805 728.916C150.834 730.407 150.566 731.89 150.017 733.277C149.46 731.892 149.192 730.408 149.228 728.916C149.205 727.42 149.473 725.934 150.017 724.539Z" fill="black"/>
<path d="M162.779 724.539C163.824 727.358 163.824 730.458 162.779 733.277C161.748 730.455 161.748 727.361 162.779 724.539Z" fill="black"/>
<path d="M164.657 724.539C165.701 727.358 165.701 730.458 164.657 733.277C163.612 730.458 163.612 727.358 164.657 724.539Z" fill="black"/>
<path d="M183.713 724.539C184.758 727.358 184.758 730.458 183.713 733.277C182.668 730.458 182.668 727.358 183.713 724.539Z" fill="black"/>
<path d="M186.444 724.539C187.489 727.358 187.489 730.458 186.444 733.277C185.399 730.458 185.399 727.358 186.444 724.539Z" fill="black"/>
<path d="M179.769 724.539C180.32 725.932 180.588 727.419 180.558 728.916C180.594 730.408 180.326 731.892 179.769 733.277C179.22 731.89 178.952 730.407 178.981 728.916C178.958 727.42 179.226 725.934 179.769 724.539Z" fill="black"/>
<path d="M154.497 724.539C155.04 725.934 155.308 727.42 155.286 728.916C155.315 730.407 155.047 731.89 154.497 733.277C153.941 731.892 153.673 730.408 153.708 728.916C153.678 727.419 153.946 725.932 154.497 724.539Z" fill="black"/>
</g>
<path opacity="0.1" d="M188.683 723.547V725.861L139.225 727.42V723.547H188.683Z" fill="black"/>
<path d="M187.437 712.633H137.979V723.544H187.437V712.633Z" fill="#C6D4B8"/>
<g opacity="0.1">
<path d="M185.229 722.363C184.176 719.55 184.176 716.453 185.229 713.641C186.26 716.457 186.26 719.547 185.229 722.363Z" fill="black"/>
<path d="M181.537 722.363C180.994 720.974 180.726 719.493 180.749 718.002C180.717 716.51 180.985 715.027 181.537 713.641C182.097 715.025 182.365 716.509 182.326 718.002C182.348 719.493 182.081 720.974 181.537 722.363Z" fill="black"/>
<path d="M179.738 722.363C179.187 720.976 178.919 719.493 178.949 718.002C178.91 716.509 179.178 715.025 179.738 713.641C180.29 715.027 180.558 716.51 180.527 718.002C180.549 719.493 180.281 720.974 179.738 722.363Z" fill="black"/>
<path d="M169.861 722.363C168.809 719.55 168.809 716.453 169.861 713.641C170.914 716.453 170.914 719.55 169.861 722.363Z" fill="black"/>
<path d="M167.18 722.363C166.128 719.55 166.128 716.453 167.18 713.641C168.232 716.453 168.232 719.55 167.18 722.363Z" fill="black"/>
<path d="M156.136 722.363C155.586 720.976 155.317 719.493 155.348 718.002C155.308 716.509 155.577 715.025 156.136 713.641C157.188 716.453 157.188 719.55 156.136 722.363Z" fill="black"/>
<path d="M153.582 722.363C153.031 720.976 152.763 719.493 152.793 718.002C152.754 716.509 153.022 715.025 153.582 713.641C154.134 715.027 154.402 716.51 154.37 718.002C154.393 719.493 154.125 720.974 153.582 722.363Z" fill="black"/>
<path d="M148.897 722.363C147.844 719.55 147.844 716.453 148.897 713.641C149.949 716.453 149.949 719.55 148.897 722.363Z" fill="black"/>
<path d="M158.266 722.363C157.723 720.974 157.455 719.493 157.477 718.002C157.446 716.51 157.714 715.027 158.266 713.641C158.825 715.025 159.094 716.509 159.055 718.002C159.085 719.493 158.817 720.976 158.266 722.363Z" fill="black"/>
<path d="M176.472 722.363C175.929 720.974 175.661 719.493 175.683 718.002C175.644 716.509 175.913 715.025 176.472 713.641C177.024 715.027 177.292 716.51 177.261 718.002C177.283 719.493 177.015 720.974 176.472 722.363Z" fill="black"/>
<path d="M163.662 722.363C162.61 719.55 162.61 716.453 163.662 713.641C164.714 716.453 164.714 719.55 163.662 722.363Z" fill="black"/>
<path d="M161.832 722.363C160.78 719.55 160.78 716.453 161.832 713.641C162.884 716.453 162.884 719.55 161.832 722.363Z" fill="black"/>
<path d="M142.775 722.363C141.723 719.55 141.723 716.453 142.775 713.641C143.828 716.453 143.828 719.55 142.775 722.363Z" fill="black"/>
<path d="M140.014 722.363C138.962 719.55 138.962 716.453 140.014 713.641C141.066 716.453 141.066 719.55 140.014 722.363Z" fill="black"/>
<path d="M146.719 722.363C145.667 719.55 145.667 716.453 146.719 713.641C147.771 716.453 147.771 719.55 146.719 722.363Z" fill="black"/>
<path d="M171.992 722.363C171.449 720.974 171.181 719.493 171.204 718.002C171.172 716.51 171.441 715.027 171.992 713.641C172.552 715.025 172.82 716.509 172.781 718.002C172.803 719.493 172.536 720.974 171.992 722.363Z" fill="black"/>
</g>
<path opacity="0.1" d="M187.437 712.633V714.947L137.963 716.506V712.633H187.437Z" fill="black"/>
<path d="M184.423 701.723H134.965V712.633H184.423V701.723Z" fill="#C6D4B8"/>
<g opacity="0.1">
<path d="M137 702.73C138.052 705.543 138.052 708.64 137 711.453C135.969 708.636 135.969 705.547 137 702.73Z" fill="black"/>
<path d="M140.692 702.73C141.236 704.12 141.503 705.601 141.481 707.092C141.511 708.583 141.243 710.066 140.692 711.453C140.136 710.067 139.868 708.584 139.904 707.092C139.881 705.601 140.149 704.12 140.692 702.73Z" fill="black"/>
<path d="M142.49 702.73C143.041 704.117 143.309 705.6 143.279 707.092C143.315 708.584 143.046 710.067 142.49 711.453C141.94 710.066 141.671 708.583 141.701 707.092C141.679 705.601 141.947 704.12 142.49 702.73Z" fill="black"/>
<path d="M152.365 702.73C153.417 705.543 153.417 708.64 152.365 711.453C151.313 708.64 151.313 705.543 152.365 702.73Z" fill="black"/>
<path d="M155.049 702.73C156.101 705.543 156.101 708.64 155.049 711.453C153.997 708.64 153.997 705.543 155.049 702.73Z" fill="black"/>
<path d="M166.092 702.73C167.144 705.543 167.144 708.64 166.092 711.453C165.04 708.64 165.04 705.543 166.092 702.73Z" fill="black"/>
<path d="M168.647 702.73C169.197 704.117 169.465 705.6 169.435 707.092C169.471 708.584 169.203 710.067 168.647 711.453C168.096 710.066 167.828 708.583 167.858 707.092C167.836 705.601 168.103 704.12 168.647 702.73Z" fill="black"/>
<path d="M173.332 702.73C174.384 705.543 174.384 708.64 173.332 711.453C172.28 708.64 172.28 705.543 173.332 702.73Z" fill="black"/>
<path d="M163.962 702.73C164.505 704.12 164.773 705.601 164.751 707.092C164.781 708.583 164.513 710.066 163.962 711.453C163.406 710.067 163.137 708.584 163.173 707.092C163.143 705.6 163.411 704.117 163.962 702.73Z" fill="black"/>
<path d="M145.756 702.73C146.299 704.12 146.567 705.601 146.545 707.092C146.58 708.584 146.312 710.067 145.756 711.453C145.205 710.066 144.937 708.583 144.967 707.092C144.945 705.601 145.213 704.12 145.756 702.73Z" fill="black"/>
<path d="M158.566 702.73C159.619 705.543 159.619 708.64 158.566 711.453C157.514 708.64 157.514 705.543 158.566 702.73Z" fill="black"/>
<path d="M160.397 702.73C161.449 705.543 161.449 708.64 160.397 711.453C159.344 708.64 159.344 705.543 160.397 702.73Z" fill="black"/>
<path d="M179.453 702.73C180.505 705.543 180.505 708.64 179.453 711.453C178.401 708.64 178.401 705.543 179.453 702.73Z" fill="black"/>
<path d="M182.215 702.73C183.267 705.543 183.267 708.64 182.215 711.453C181.163 708.64 181.163 705.543 182.215 702.73Z" fill="black"/>
<path d="M175.51 702.73C176.562 705.543 176.562 708.64 175.51 711.453C174.458 708.64 174.458 705.543 175.51 702.73Z" fill="black"/>
<path d="M150.235 702.73C150.778 704.12 151.046 705.601 151.024 707.092C151.054 708.583 150.786 710.066 150.235 711.453C149.679 710.067 149.411 708.584 149.447 707.092C149.424 705.601 149.692 704.12 150.235 702.73Z" fill="black"/>
</g>
<path opacity="0.1" d="M184.423 701.723V704.053L134.965 705.612V701.723H184.423Z" fill="black"/>
<path d="M184.423 734.457H134.965V745.368H184.423V734.457Z" fill="#C6D4B8"/>
<g opacity="0.1">
<path d="M182.215 744.125C181.17 741.305 181.17 738.206 182.215 735.387C183.26 738.206 183.26 741.305 182.215 744.125Z" fill="black"/>
<path d="M178.555 744.125C177.51 741.305 177.51 738.206 178.555 735.387C179.6 738.206 179.6 741.305 178.555 744.125Z" fill="black"/>
<path d="M176.724 744.125C176.181 742.73 175.913 741.244 175.936 739.748C175.907 738.256 176.175 736.774 176.724 735.387C177.281 736.772 177.549 738.256 177.513 739.748C177.543 741.245 177.275 742.732 176.724 744.125Z" fill="black"/>
<path d="M166.849 744.125C166.305 742.73 166.037 741.244 166.06 739.748C166.024 738.256 166.292 736.772 166.849 735.387C167.398 736.774 167.666 738.256 167.637 739.748C167.66 741.244 167.392 742.73 166.849 744.125Z" fill="black"/>
<path d="M164.182 744.125C163.137 741.305 163.137 738.206 164.182 735.387C165.213 738.209 165.213 741.303 164.182 744.125Z" fill="black"/>
<path d="M153.123 744.125C152.58 742.73 152.312 741.244 152.334 739.748C152.305 738.256 152.573 736.774 153.123 735.387C153.679 736.772 153.947 738.256 153.912 739.748C153.934 741.244 153.666 742.73 153.123 744.125Z" fill="black"/>
<path d="M150.569 744.125C149.524 741.305 149.524 738.206 150.569 735.387C151.125 736.772 151.393 738.256 151.358 739.748C151.388 741.245 151.12 742.732 150.569 744.125Z" fill="black"/>
<path d="M145.882 744.125C145.339 742.73 145.071 741.244 145.093 739.748C145.057 738.256 145.326 736.772 145.882 735.387C146.431 736.774 146.699 738.256 146.671 739.748C146.693 741.244 146.425 742.73 145.882 744.125Z" fill="black"/>
<path d="M155.254 744.125C154.209 741.305 154.209 738.206 155.254 735.387C156.299 738.206 156.299 741.305 155.254 744.125Z" fill="black"/>
<path d="M173.459 744.125C172.415 741.305 172.415 738.206 173.459 735.387C174.016 736.772 174.284 738.256 174.248 739.748C174.278 741.245 174.01 742.732 173.459 744.125Z" fill="black"/>
<path d="M160.664 744.125C159.62 741.305 159.62 738.206 160.664 735.387C161.709 738.206 161.709 741.305 160.664 744.125Z" fill="black"/>
<path d="M158.819 744.125C158.269 742.732 158 741.245 158.03 739.748C157.995 738.256 158.263 736.772 158.819 735.387C159.369 736.774 159.637 738.256 159.608 739.748C159.63 741.244 159.363 742.73 158.819 744.125Z" fill="black"/>
<path d="M139.778 744.125C138.733 741.305 138.733 738.206 139.778 735.387C140.823 738.206 140.823 741.305 139.778 744.125Z" fill="black"/>
<path d="M137 744.125C135.956 741.305 135.956 738.206 137 735.387C138.045 738.206 138.045 741.305 137 744.125Z" fill="black"/>
<path d="M143.706 744.125C143.163 742.73 142.895 741.244 142.917 739.748C142.882 738.256 143.15 736.772 143.706 735.387C144.262 736.772 144.53 738.256 144.495 739.748C144.517 741.244 144.249 742.73 143.706 744.125Z" fill="black"/>
<path d="M168.979 744.125C167.934 741.305 167.934 738.206 168.979 735.387C170.024 738.206 170.024 741.305 168.979 744.125Z" fill="black"/>
</g>
<path opacity="0.1" d="M184.423 734.457V736.771L134.965 738.33V734.457H184.423Z" fill="black"/>
<path d="M130.848 729.026C163.41 734.867 154.796 782.997 122.187 777.156C89.5775 771.315 98.2228 723.185 130.848 729.026Z" fill="#C6D4B8"/>
<path opacity="0.1" d="M130.848 729.026C163.41 734.867 154.796 782.997 122.187 777.156C89.5775 771.315 98.2228 723.185 130.848 729.026Z" fill="black"/>
<path d="M127.787 728.473C158.818 734.031 150.22 782.177 119.126 776.604C88.0307 771.03 96.7076 722.916 127.787 728.473Z" fill="#C6D4B8"/>
<path opacity="0.1" d="M103.775 753.68C103.949 762.26 108.95 770.558 119.867 772.573C145.661 777.186 152.808 737.227 127.045 732.614L126.541 732.535C150.694 737.369 143.768 775.171 119.173 770.762C115.003 770.176 111.174 768.142 108.358 765.018C105.542 761.894 103.92 757.879 103.775 753.68Z" fill="black"/>
<g opacity="0.1">
<path d="M126.147 737.558C126.353 737.617 126.528 737.753 126.637 737.938C126.746 738.122 126.779 738.341 126.73 738.55L126.399 739.872C128.512 740.569 130.365 741.886 131.715 743.651C131.831 743.764 131.917 743.903 131.967 744.057C132.016 744.211 132.028 744.374 131.999 744.533C131.933 744.753 131.785 744.939 131.586 745.053C131.386 745.167 131.15 745.201 130.927 745.147C130.815 745.121 130.71 745.073 130.617 745.006C130.525 744.938 130.448 744.852 130.39 744.753C129.272 743.224 127.731 742.054 125.957 741.384L123.654 750.626C128.387 752.94 130.059 755.349 129.254 758.577C128.371 762.088 124.805 763.82 120.641 762.922L119.994 765.504C119.981 765.62 119.943 765.732 119.883 765.832C119.823 765.933 119.743 766.019 119.646 766.085C119.55 766.152 119.441 766.197 119.326 766.218C119.211 766.239 119.093 766.236 118.98 766.207C118.866 766.179 118.76 766.127 118.668 766.054C118.577 765.982 118.502 765.89 118.449 765.786C118.395 765.683 118.365 765.569 118.359 765.452C118.353 765.336 118.373 765.219 118.416 765.111L119.063 762.497C116.343 761.605 114.004 759.824 112.421 757.443C112.327 757.338 112.26 757.211 112.227 757.073C112.194 756.936 112.195 756.792 112.232 756.656C112.291 756.442 112.431 756.259 112.622 756.144C112.813 756.03 113.04 755.993 113.257 756.042C113.369 756.062 113.475 756.106 113.568 756.171C113.66 756.236 113.738 756.321 113.794 756.42C115.114 758.563 117.129 760.191 119.505 761.033L121.855 751.586C117.123 749.256 115.545 746.863 116.397 743.635C117.249 740.408 120.767 738.471 124.837 739.384L125.153 738.125C125.215 737.922 125.352 737.75 125.537 737.645C125.722 737.54 125.94 737.509 126.147 737.558ZM122.281 749.933L124.522 740.912C121.366 740.187 118.7 741.573 118.116 743.95C117.533 746.328 118.258 747.839 122.281 749.933ZM123.228 752.311L120.956 761.442C124.269 762.198 126.904 760.812 127.535 758.293C128.166 755.774 127.282 754.342 123.228 752.311Z" fill="black"/>
</g>
</svg>