<svg width="469" height="307" viewBox="0 0 469 307" fill="none" xmlns="http://www.w3.org/2000/svg">
<g clip-path="url(#clip0_4_118)">
<path d="M460.386 72.3821L453.067 107.861L448.356 103.267L440.341 108.987L434.215 101.376L420.479 111.375L408.74 91.7218L395.647 99.401L390.454 92.2271L373.828 101.606L368.826 90.8872L380.481 34.3765L442.964 47.2926L460.386 72.3821Z" fill="#ECEDDF"/>
<path d="M442.964 47.2926L460.386 72.3821L438.712 67.9032L442.964 47.2926Z" fill="#CFDBC3"/>
<path d="M451.507 114.958L440.777 167.013L356.613 149.626L367.266 97.9769L372.268 108.703L388.902 99.3244L394.087 106.491L407.188 98.8115L418.919 118.465L432.662 108.466L438.781 116.076L446.803 110.357L451.507 114.958Z" fill="#ECEDDF"/>
<path d="M331.046 108.856L245.276 114.17L238.462 3.94297L302.152 0L325.532 19.6306L331.046 108.856Z" fill="#ECEDDF"/>
<path d="M302.152 0L325.532 19.6306L303.445 21.0011L302.152 0Z" fill="#CFDBC3"/>
<path d="M278.406 74.166L278.07 71.6777C277.205 66.5251 278.613 60.7599 283.087 54.7345C287.125 49.3751 289.312 45.547 289.067 41.1982C288.792 36.2982 285.541 33.2051 279.492 33.4501C276.035 33.6299 272.714 34.8582 269.971 36.972L267.332 31.0537C270.391 28.5654 275.745 26.7279 280.83 26.46C291.866 25.8475 297.235 32.3859 297.656 39.6823C298.023 46.2131 294.642 51.1207 290.344 56.8553C286.398 62.0845 285.106 66.3949 285.664 71.272L285.901 73.7679L278.406 74.166ZM277.045 87.7252C276.846 84.1727 279.102 81.539 282.459 81.3552C285.817 81.1715 288.264 83.5296 288.463 87.0897C288.646 90.4508 286.589 93.1611 283.041 93.3602C279.653 93.5516 277.205 91.0863 277.014 87.7252H277.045Z" fill="#CFDBC3"/>
<path d="M63.8697 55.4159L55.243 51.5035L54.0423 54.1449C53.865 54.5224 53.5884 54.8444 53.2421 55.0765C52.8958 55.3085 52.493 55.4417 52.0768 55.4618C51.6027 55.4774 51.1302 55.5234 50.662 55.5996C50.251 55.6607 49.8312 55.609 49.4473 55.4498C49.0634 55.2907 48.7299 55.0302 48.4823 54.6962L46.7922 52.3304L39.0908 57.8582L40.781 60.224C41.0161 60.5655 41.1544 60.9643 41.1814 61.3781C41.2083 61.7919 41.1228 62.2054 40.934 62.5745C40.7159 62.9955 40.5194 63.4274 40.3451 63.8684C40.1936 64.2572 39.9391 64.5974 39.609 64.8524C39.2788 65.1073 38.8855 65.2674 38.4714 65.3154L35.5881 65.5987L36.5135 75.0388L39.412 74.7479C39.8277 74.7146 40.2446 74.7954 40.6179 74.9816C40.9911 75.1678 41.3066 75.4522 41.5305 75.8045C41.6528 76.0035 41.7829 76.1949 41.9205 76.3863C42.0582 76.5777 42.1958 76.7615 42.3412 76.9452C42.6051 77.2667 42.7748 77.6551 42.8315 78.0674C42.8882 78.4796 42.8297 78.8995 42.6624 79.2804L41.454 81.9448L50.0884 85.8648L51.2891 83.208C51.468 82.8309 51.7463 82.5097 52.094 82.279C52.4416 82.0483 52.8455 81.9169 53.2622 81.8988C53.731 81.8795 54.1982 81.8335 54.6618 81.761C55.0727 81.6999 55.4926 81.7517 55.8765 81.9108C56.2603 82.0699 56.5938 82.3304 56.8414 82.6644L58.5316 85.0302L66.2406 79.5024L64.5504 77.1366C64.3081 76.7983 64.1653 76.3987 64.1383 75.9833C64.1112 75.5678 64.201 75.1531 64.3974 74.7862C64.6105 74.3675 64.8019 73.9382 64.971 73.4999C65.1181 73.1082 65.3713 72.7653 65.7023 72.5097C66.0333 72.2541 66.4289 72.0959 66.8447 72.0529L69.7433 71.762L68.8102 62.3218L65.9117 62.6051C65.4986 62.6414 65.0835 62.5627 64.7124 62.3776C64.3412 62.1924 64.0284 61.9082 63.8085 61.5562C63.6785 61.3571 63.5485 61.1657 63.4109 60.9743C63.2732 60.7829 63.1355 60.5915 62.9902 60.4154C62.7281 60.09 62.5596 59.6991 62.503 59.2849C62.4464 58.8707 62.5038 58.4489 62.669 58.0649L63.8697 55.4159ZM58.9751 64.1517C59.8695 65.4011 60.3736 66.8879 60.4238 68.4242C60.474 69.9604 60.068 71.4771 59.2571 72.7823C58.4462 74.0875 57.2669 75.1227 55.8683 75.7569C54.4697 76.3911 52.9146 76.5959 51.3998 76.3453C49.885 76.0947 48.4784 75.3999 47.3579 74.349C46.2375 73.2981 45.4536 71.9381 45.1053 70.4411C44.757 68.9441 44.8599 67.3773 45.4011 65.9389C45.9424 64.5005 46.8975 63.255 48.1458 62.3601C49.8193 61.1603 51.9003 60.6751 53.931 61.0111C55.9618 61.347 57.7762 62.4767 58.9751 64.1517Z" fill="#ECEDDF"/>
<path d="M453.832 180.672L448.08 183.995L449.098 185.756C449.249 186.008 449.325 186.3 449.316 186.594C449.306 186.889 449.212 187.175 449.044 187.417C448.868 187.693 448.7 187.976 448.547 188.275C448.421 188.539 448.223 188.761 447.975 188.916C447.727 189.071 447.44 189.151 447.147 189.147H445.128V195.801H447.163C447.455 195.797 447.742 195.878 447.99 196.032C448.238 196.187 448.437 196.409 448.562 196.674C448.715 196.972 448.883 197.255 449.059 197.531C449.227 197.773 449.321 198.059 449.331 198.354C449.34 198.649 449.265 198.94 449.113 199.192L448.096 200.953L453.847 204.276L454.872 202.508C455.02 202.257 455.235 202.052 455.493 201.917C455.751 201.782 456.042 201.721 456.332 201.742H457.311C457.602 201.722 457.892 201.783 458.15 201.918C458.407 202.053 458.623 202.257 458.772 202.508L459.797 204.284L465.54 200.961L464.523 199.192C464.378 198.938 464.307 198.649 464.318 198.357C464.329 198.065 464.421 197.781 464.584 197.539C464.76 197.263 464.928 196.972 465.081 196.681C465.207 196.417 465.406 196.195 465.654 196.04C465.902 195.885 466.189 195.805 466.481 195.808H468.515V189.155H466.466C466.174 189.159 465.886 189.078 465.638 188.924C465.39 188.769 465.192 188.546 465.066 188.282C464.913 187.991 464.745 187.7 464.569 187.425C464.406 187.182 464.314 186.899 464.303 186.607C464.292 186.314 464.363 186.025 464.508 185.771L465.525 184.002L459.781 180.68L458.757 182.425C458.608 182.676 458.393 182.881 458.135 183.016C457.877 183.151 457.586 183.212 457.296 183.191H456.807H456.317C456.026 183.211 455.735 183.149 455.476 183.014C455.217 182.879 455 182.676 454.849 182.425L453.832 180.672ZM456.807 187.027C457.884 187.025 458.938 187.344 459.835 187.942C460.731 188.541 461.43 189.392 461.843 190.388C462.256 191.385 462.365 192.481 462.155 193.54C461.945 194.598 461.426 195.57 460.664 196.333C459.903 197.095 458.932 197.615 457.875 197.825C456.818 198.035 455.722 197.926 454.727 197.513C453.732 197.099 452.881 196.399 452.283 195.502C451.686 194.604 451.367 193.549 451.369 192.47C451.368 191.755 451.508 191.046 451.781 190.385C452.053 189.723 452.454 189.122 452.959 188.616C453.464 188.11 454.064 187.708 454.724 187.434C455.384 187.16 456.092 187.019 456.807 187.019V187.027Z" fill="#ECEDDF"/>
<path d="M81.3221 27.1261L76.0527 31.1686L77.2687 32.784C77.4501 33.0142 77.5617 33.2917 77.5901 33.5835C77.6186 33.8753 77.5628 34.1691 77.4293 34.4301C77.283 34.7281 77.1553 35.035 77.0469 35.3489C76.9527 35.6254 76.7832 35.8701 76.5575 36.0554C76.3319 36.2407 76.0591 36.3593 75.7698 36.3978L73.7507 36.6581L74.6073 43.2501L76.6263 42.9898C76.9202 42.9488 77.2197 42.9917 77.4903 43.1136C77.7609 43.2355 77.9916 43.4314 78.1559 43.6789C78.34 43.9452 78.5392 44.2008 78.7524 44.4445C78.9494 44.6614 79.0801 44.9304 79.1289 45.2195C79.1777 45.5085 79.1426 45.8056 79.0277 46.0753L78.2629 47.9587L84.3812 50.5082L85.146 48.6248C85.2598 48.3546 85.4469 48.1217 85.6862 47.9526C85.9254 47.7834 86.2072 47.6848 86.4996 47.6678L86.9891 47.6142L87.4709 47.5376C87.7539 47.4842 88.0462 47.5095 88.3158 47.6107C88.5855 47.712 88.8223 47.8853 89.0005 48.1118L90.2471 49.7426L95.5164 45.7001L94.2851 44.0846C94.1073 43.8512 93.998 43.5728 93.9696 43.2806C93.9413 42.9885 93.9949 42.6942 94.1245 42.4309C94.2695 42.1349 94.3972 41.8306 94.5069 41.5198C94.6012 41.2433 94.7706 40.9986 94.9963 40.8133C95.2219 40.628 95.4948 40.5094 95.7841 40.4709L97.8031 40.2106L96.9465 33.6185L94.9275 33.8789C94.6344 33.9207 94.3354 33.8789 94.0648 33.7584C93.7943 33.6379 93.5632 33.4435 93.398 33.1975C93.2068 32.9218 93.0079 32.6615 92.7938 32.4318C92.6156 32.2103 92.5003 31.9448 92.4599 31.6632C92.4196 31.3817 92.4556 31.0945 92.5643 30.8317L93.3291 28.9482L87.2109 26.3987L86.4461 28.2821C86.3308 28.5513 86.1433 28.7832 85.9043 28.9522C85.6654 29.1211 85.3844 29.2204 85.0924 29.2392L84.603 29.2851L84.1518 29.3004C83.8687 29.3538 83.5765 29.3285 83.3068 29.2273C83.0372 29.1261 82.8004 28.9527 82.6222 28.7262L81.3221 27.1261ZM85.0924 33.0443C86.1578 32.9072 87.2398 33.0891 88.202 33.5669C89.1642 34.0447 89.9635 34.7971 90.4991 35.7292C91.0347 36.6612 91.2825 37.7312 91.2114 38.8041C91.1402 39.877 90.7532 40.9048 90.0993 41.7578C89.4453 42.6108 88.5537 43.2508 87.5368 43.5971C86.5199 43.9434 85.4234 43.9804 84.3855 43.7035C83.3477 43.4266 82.4149 42.8482 81.7051 42.0413C80.9952 41.2343 80.5399 40.235 80.3967 39.1693C80.3011 38.4582 80.3469 37.7351 80.5315 37.0418C80.7161 36.3484 81.0357 35.6984 81.4722 35.1292C81.9086 34.5599 82.4531 34.0827 83.0744 33.7249C83.6957 33.3671 84.3815 33.1358 85.0924 33.0443Z" fill="#ECEDDF"/>
<path d="M41.9511 199.866C42.2384 192.465 42.1363 185.054 41.6452 177.663C40.5509 162.402 38.2261 147.255 34.6933 132.369C32.7508 123.993 30.3647 115.755 27.8715 107.524C27.795 107.272 27.3973 107.341 27.4662 107.601C35.1675 136.618 41.4846 166.554 41.0487 196.719C40.9263 205.141 39.9474 213.448 39.152 221.84C39.152 222.062 39.4962 222.154 39.5497 221.924C41.1328 214.719 41.6528 207.201 41.9511 199.866Z" fill="#ECEDDF"/>
<path d="M27.4662 107.578C27.4662 107.578 15.8109 137.208 18.4188 144.144C21.0267 151.081 26.4108 152.566 26.4108 152.566C26.4108 152.566 19.2754 162.764 24.2617 172.327C29.2481 181.889 40.3221 181.438 41.0869 192.279C41.064 192.332 41.6758 147 27.4662 107.578Z" fill="#ECEDDF"/>
<path d="M39.7944 173.613C39.8132 173.564 39.8132 173.509 39.7944 173.46C38.2647 153.231 34.4732 133.238 28.491 113.856C28.491 113.802 28.3762 113.818 28.3915 113.856C30.7012 122.533 32.7406 131.246 34.5098 139.994C32.9429 138.508 31.0285 137.44 28.9422 136.886C28.9422 136.886 28.881 136.932 28.9422 136.947C31.134 137.751 33.1047 139.063 34.6933 140.775C35.0298 142.498 35.3663 144.213 35.6799 145.936C33.072 143.019 29.4622 141.572 25.8448 140.193C25.8366 140.197 25.8297 140.203 25.8248 140.21C25.8199 140.218 25.8173 140.227 25.8173 140.236C25.8173 140.245 25.8199 140.253 25.8248 140.261C25.8297 140.268 25.8366 140.274 25.8448 140.278C29.6152 141.809 33.3626 143.784 35.917 147.038C36.8041 151.953 37.5842 156.887 38.2572 161.838C36.3742 159.863 33.9593 158.477 31.3053 157.849C31.2212 157.849 31.1753 157.948 31.2595 157.971C33.9857 158.775 36.4197 160.355 38.2649 162.519H38.3107C38.5402 164.254 38.7594 165.998 38.9684 167.748C37.5118 166.514 35.867 165.522 34.0968 164.808C34.0509 164.808 34.0203 164.862 34.0968 164.877C35.9033 165.661 37.5577 166.757 38.9837 168.116C38.9837 168.116 39.022 168.116 39.0449 168.116C39.2361 169.777 39.4273 171.439 39.5956 173.1C36.9694 169.922 33.5612 167.483 29.707 166.026C29.6907 166.026 29.6752 166.032 29.6637 166.044C29.6522 166.055 29.6458 166.071 29.6458 166.087C29.6458 166.103 29.6522 166.119 29.6637 166.13C29.6752 166.142 29.6907 166.148 29.707 166.148C33.5128 167.827 36.8558 170.405 39.4503 173.659C39.4788 173.695 39.5173 173.721 39.5609 173.735C39.6045 173.748 39.6512 173.749 39.695 173.735C39.9474 176.285 40.1768 178.835 40.3603 181.392C40.3603 181.43 40.4215 181.43 40.4215 181.392C40.2227 178.824 40.0137 176.231 39.7944 173.613Z" fill="#F8F5F0"/>
<path d="M30.4259 133.969C28.3151 132.654 25.9037 131.9 23.4205 131.779C23.4083 131.779 23.3966 131.784 23.388 131.793C23.3794 131.801 23.3746 131.813 23.3746 131.825C23.3746 131.837 23.3794 131.849 23.388 131.858C23.3966 131.866 23.4083 131.871 23.4205 131.871C25.8213 132.327 28.1513 133.099 30.3494 134.168C30.4412 134.191 30.51 134.03 30.4259 133.969Z" fill="#F8F5F0"/>
<path d="M31.8407 165.337C30.2184 164.404 28.432 163.794 26.579 163.537C26.5178 163.537 26.5102 163.622 26.579 163.637C28.3884 164 30.1387 164.613 31.7795 165.459C31.8483 165.497 31.9095 165.375 31.8407 165.337Z" fill="#F8F5F0"/>
<path d="M72.6035 144.657C67.6729 148.069 63.1445 152.03 59.1052 156.463C54.9394 161.157 51.7262 166.618 49.6448 172.541C45.2151 184.881 42.8332 197.865 42.5935 210.975C42.445 218.236 43.1405 225.489 44.6661 232.589C44.6785 232.641 44.7102 232.685 44.7547 232.714C44.7992 232.743 44.8531 232.754 44.9052 232.744C44.9573 232.734 45.0036 232.705 45.0345 232.661C45.0655 232.618 45.0787 232.565 45.0714 232.512C43.173 219.984 43.2453 207.235 45.2856 194.729C47.2893 182.479 50.4325 169.142 58.218 159.181C62.4549 153.753 67.7395 149.488 72.963 145.078C73.2383 144.833 72.8865 144.458 72.6035 144.657Z" fill="#ECEDDF"/>
<path d="M44.3066 202.14C47.1133 197.596 50.4115 193.374 54.1417 189.553C59.977 183.712 64.8869 179.562 65.6517 175.703C66.4165 171.844 59.8087 168.996 59.8087 168.996C59.8087 168.996 67.8772 170.451 70.0874 167.059C72.2976 163.667 73.3607 144.022 73.3607 144.022C73.3607 144.022 58.6769 154.518 51.8321 169.234C44.9873 183.949 44.3066 202.14 44.3066 202.14Z" fill="#ECEDDF"/>
<path d="M68.0913 162.45C67.1244 162.306 66.1443 162.273 65.1699 162.351C65.0551 162.351 65.0628 162.55 65.1699 162.557C66.1335 162.557 67.1048 162.511 68.0684 162.557C68.0794 162.555 68.0894 162.549 68.0973 162.54C68.1052 162.532 68.1106 162.522 68.113 162.511C68.1154 162.5 68.1146 162.488 68.1108 162.477C68.107 162.467 68.1002 162.457 68.0913 162.45Z" fill="#F8F5F0"/>
<path d="M57.545 181.507C55.9945 181.538 54.4617 181.844 53.0175 182.41C53.0175 182.41 53.0175 182.487 53.0175 182.479C54.5471 182.119 56.0231 181.974 57.5374 181.713C57.5571 181.705 57.5741 181.691 57.5862 181.673C57.5984 181.655 57.6052 181.634 57.606 181.612C57.6068 181.591 57.6015 181.569 57.5907 181.551C57.5799 181.532 57.5641 181.517 57.545 181.507Z" fill="#F8F5F0"/>
<path d="M54.3788 174.922C53.735 174.917 53.0923 174.973 52.4592 175.091C52.4475 175.095 52.4374 175.103 52.4303 175.113C52.4231 175.123 52.4193 175.136 52.4193 175.148C52.4193 175.161 52.4231 175.173 52.4303 175.183C52.4374 175.193 52.4475 175.201 52.4592 175.205C53.1003 175.243 53.7434 175.214 54.3788 175.121C54.4052 175.121 54.4305 175.111 54.4491 175.092C54.4677 175.073 54.4782 175.048 54.4782 175.022C54.4782 174.995 54.4677 174.97 54.4491 174.951C54.4305 174.933 54.4052 174.922 54.3788 174.922Z" fill="#F8F5F0"/>
<path d="M1.25716 165.497C6.03642 167.119 10.6162 169.279 14.9085 171.936C19.3621 174.769 23.2243 178.441 26.2808 182.747C32.7118 191.709 37.6357 201.663 40.8575 212.216C42.6544 218.059 43.7632 224.092 44.1614 230.193C44.153 230.232 44.1313 230.267 44.1 230.293C44.0687 230.318 44.0296 230.332 43.9893 230.332C43.949 230.332 43.9099 230.318 43.8786 230.293C43.8472 230.267 43.8256 230.232 43.8172 230.193C42.4672 219.615 39.4686 209.315 34.9305 199.667C30.4718 190.212 24.8506 180.151 16.2545 173.889C11.5741 170.482 6.31236 168.246 1.06597 165.888C0.790645 165.796 0.98184 165.405 1.25716 165.497Z" fill="#ECEDDF"/>
<path d="M37.4313 205.471C34.1087 202.444 30.4643 199.792 26.5637 197.562C20.4914 194.185 15.5585 191.965 14.0519 189.017C12.5453 186.07 17.2334 182.242 17.2334 182.242C17.2334 182.242 11.0387 185.304 8.46901 183.045C5.89935 180.787 0.5 165.168 0.5 165.168C0.5 165.168 14.809 170.26 23.734 180.588C32.659 190.916 37.4313 205.471 37.4313 205.471Z" fill="#ECEDDF"/>
<path d="M25.5542 191.092C24.1474 190.994 22.7348 191.168 21.3938 191.605C21.3938 191.605 21.3938 191.674 21.3938 191.666C22.7619 191.432 24.1441 191.288 25.5313 191.238C25.6307 191.238 25.6536 191.1 25.5542 191.092Z" fill="#F8F5F0"/>
<path d="M13.073 174.708C12.4313 174.655 11.7854 174.691 11.1534 174.815C11.0846 174.815 11.1075 174.937 11.1534 174.93C11.7882 174.861 12.4077 174.884 13.0348 174.869C13.0543 174.869 13.0734 174.863 13.0889 174.852C13.1045 174.84 13.1154 174.823 13.12 174.804C13.1245 174.785 13.1223 174.765 13.1137 174.747C13.1051 174.73 13.0908 174.716 13.073 174.708Z" fill="#F8F5F0"/>
<path d="M55.8854 249.938H23.5887L28.1927 216.166L29.3705 207.507H50.1037L51.2815 216.166L55.8854 249.938Z" fill="#CFDBC3"/>
<path d="M51.2814 216.166H28.1927L29.3705 207.507H50.1037L51.2814 216.166Z" fill="#B3BFA6"/>
<path d="M53.0634 204.506H26.4031V211.841H53.0634V204.506Z" fill="#CFDBC3"/>
<path d="M3.05438 249.938L61.1854 249.747L119.316 249.685L235.578 249.555L351.84 249.678L409.971 249.747L468.102 249.938L409.971 250.122L351.84 250.191L235.578 250.313L119.316 250.191L61.1854 250.122L3.05438 249.938Z" fill="#2C392D"/>
<path d="M237.108 307C358.22 307 456.401 296.23 456.401 282.944C456.401 269.658 358.22 258.888 237.108 258.888C115.996 258.888 17.8146 269.658 17.8146 282.944C17.8146 296.23 115.996 307 237.108 307Z" fill="#ECEDDF"/>
<path d="M186.059 278.963C184.277 279.568 133.182 279.728 131.224 278.519C130.459 278.059 130.023 270.61 129.694 261.591C129.626 259.646 129.572 257.633 129.526 255.596L125.45 228.309L159.613 228.087L162.832 255.382L162.702 261.384C162.702 261.384 182.296 270.074 184.3 271.651C186.304 273.228 187.841 278.358 186.059 278.963Z" fill="#EDDBC1"/>
<path d="M186.059 278.963C184.277 279.568 133.182 279.728 131.224 278.519C130.322 277.952 129.832 267.073 129.557 255.596L162.794 255.382L162.664 261.384C162.664 261.384 182.258 270.074 184.262 271.651C186.265 273.228 187.841 278.358 186.059 278.963Z" fill="#F8F5F0"/>
<path d="M186.059 278.963C184.277 279.568 133.182 279.728 131.224 278.519C130.459 278.059 130.023 270.61 129.694 261.591L162.634 261.384C162.634 261.384 182.227 270.074 184.231 271.651C186.235 273.228 187.841 278.358 186.059 278.963Z" fill="#3C4E3E"/>
<path d="M185.317 276.919C176.751 276.735 142.183 276.819 133.702 277.294C133.633 277.294 133.633 277.34 133.702 277.347C142.191 277.707 176.759 277.347 185.317 277.056C185.5 277.049 185.5 276.919 185.317 276.919Z" fill="#2C392D"/>
<path d="M180.965 269.821C180.013 269.8 179.066 269.977 178.186 270.34C177.305 270.704 176.509 271.247 175.849 271.934C174.646 273.162 173.966 274.809 173.952 276.528C173.952 276.582 174.044 276.582 174.052 276.528C174.336 274.834 175.16 273.278 176.401 272.091C177.641 270.905 179.232 270.151 180.935 269.944C180.951 269.948 180.968 269.945 180.983 269.937C180.997 269.928 181.007 269.914 181.011 269.898C181.015 269.882 181.013 269.864 181.004 269.85C180.996 269.836 180.982 269.825 180.965 269.821Z" fill="#2C392D"/>
<path d="M165.983 262.226C162.557 262.188 158.588 263.413 156.462 266.231C156.385 266.338 156.538 266.453 156.638 266.399C159.631 264.817 162.785 263.56 166.044 262.647C166.095 262.634 166.138 262.602 166.167 262.558C166.196 262.514 166.207 262.462 166.2 262.41C166.192 262.358 166.166 262.311 166.126 262.277C166.086 262.243 166.035 262.225 165.983 262.226Z" fill="#2C392D"/>
<path d="M168.645 263.245C165.211 263.245 161.242 264.439 159.123 267.249C159.039 267.364 159.192 267.478 159.299 267.425C162.288 265.837 165.439 264.577 168.698 263.666C168.748 263.652 168.791 263.621 168.82 263.578C168.848 263.535 168.861 263.483 168.854 263.432C168.847 263.381 168.823 263.333 168.784 263.299C168.746 263.265 168.696 263.245 168.645 263.245Z" fill="#2C392D"/>
<path d="M171.291 264.27C167.865 264.27 163.895 265.457 161.769 268.275C161.693 268.382 161.846 268.497 161.945 268.443C164.939 266.861 168.092 265.604 171.352 264.692C171.402 264.678 171.446 264.646 171.475 264.602C171.503 264.558 171.515 264.506 171.507 264.454C171.5 264.402 171.474 264.355 171.434 264.321C171.394 264.287 171.343 264.269 171.291 264.27Z" fill="#2C392D"/>
<path d="M173.945 265.296C170.511 265.258 166.542 266.483 164.423 269.301C164.339 269.408 164.5 269.523 164.599 269.469C167.592 267.886 170.745 266.628 174.006 265.718C174.056 265.704 174.1 265.672 174.128 265.628C174.157 265.584 174.169 265.532 174.161 265.48C174.154 265.428 174.127 265.381 174.088 265.347C174.048 265.313 173.997 265.295 173.945 265.296Z" fill="#2C392D"/>
<path d="M135.859 269.14C132.035 269.14 132.035 275.15 135.859 275.127C139.682 275.104 139.713 269.117 135.859 269.14Z" fill="#2C392D"/>
<path d="M169.662 253.054C167.926 251.615 165.739 253.054 164.676 254.532C162.906 257.144 161.851 260.174 161.616 263.321C161.616 263.39 161.67 263.421 161.723 263.421C161.737 263.485 161.766 263.546 161.808 263.597C161.85 263.649 161.903 263.689 161.964 263.715C162.025 263.742 162.091 263.753 162.157 263.748C162.223 263.744 162.286 263.723 162.343 263.689C164.775 261.997 167.589 260.481 169.432 258.084C170.48 256.691 171.337 254.394 169.662 253.054ZM165.486 260.358C164.308 261.223 163.092 262.027 161.945 262.938C162.557 261.223 163.085 259.493 163.865 257.839C164.225 257.046 164.639 256.279 165.104 255.542C165.869 254.402 169.203 251.523 169.555 255.251C169.754 257.296 166.886 259.332 165.486 260.358Z" fill="#2C392D"/>
<path d="M153.081 264.623C156.064 265.067 159.146 264.209 162.075 263.742C162.139 263.726 162.198 263.694 162.247 263.651C162.296 263.607 162.335 263.553 162.359 263.492C162.384 263.431 162.394 263.365 162.388 263.299C162.383 263.234 162.362 263.17 162.328 263.114C162.339 263.106 162.348 263.095 162.354 263.082C162.36 263.07 162.363 263.056 162.363 263.042C162.363 263.028 162.36 263.014 162.354 263.001C162.348 262.989 162.339 262.978 162.328 262.969C159.974 260.868 157.11 259.423 154.022 258.781C152.217 258.436 149.663 258.934 149.433 261.177C149.158 263.29 151.338 264.347 153.081 264.623ZM151.001 262.678C148.707 259.738 153.089 259.485 154.404 259.792C155.258 260.005 156.096 260.276 156.913 260.603C158.586 261.297 160.222 262.077 161.815 262.938C160.362 263.084 158.932 263.344 157.487 263.543C155.758 263.773 152.286 264.293 151.001 262.678Z" fill="#2C392D"/>
<path d="M75.2191 102.188C75.2191 102.188 114.888 169.747 115.951 174.493C117.58 181.782 126.215 253.758 126.215 253.758L167.513 252.993C167.513 252.993 160.4 189.53 153.663 168.621C148.814 153.561 113.802 103.612 113.802 103.612L75.2191 102.188Z" fill="#3C4E3E"/>
<path d="M163.758 246.684C157.831 246.638 136.822 246.401 128.93 247.136C128.868 247.136 128.876 247.243 128.93 247.251C131.645 247.641 157.823 247.036 163.75 246.845C163.763 246.849 163.776 246.851 163.789 246.849C163.802 246.848 163.814 246.843 163.825 246.836C163.836 246.828 163.845 246.819 163.852 246.807C163.858 246.796 163.862 246.783 163.863 246.77C163.863 246.757 163.861 246.743 163.856 246.731C163.85 246.719 163.842 246.709 163.832 246.7C163.822 246.692 163.81 246.686 163.797 246.683C163.784 246.681 163.771 246.681 163.758 246.684Z" fill="#2C392D"/>
<path d="M81.9874 108.389C84.5877 112.47 87.3409 116.467 89.987 120.517C92.6332 124.567 95.2946 128.617 97.9178 132.66C103.149 140.826 108.247 149.047 113.213 157.32C115.637 161.156 117.71 165.202 119.408 169.41C120.958 173.619 122.123 177.96 122.888 182.379C123.699 186.812 124.234 191.291 124.731 195.77C125.241 200.532 125.774 205.297 126.329 210.064C127.415 219.818 128.504 229.572 129.595 239.326C129.725 240.521 129.855 241.715 129.977 242.917C129.977 243.093 129.679 243.124 129.656 242.917C128.44 233.232 127.431 223.509 126.329 213.824C125.779 208.99 125.231 204.159 124.685 199.33C124.173 194.836 123.683 190.334 122.987 185.871C122.349 181.465 121.377 177.114 120.081 172.855C118.653 168.445 116.74 164.208 114.376 160.222C109.596 151.961 104.533 143.845 99.4703 135.722C94.4074 127.599 89.2069 119.407 83.8688 111.383C83.2111 110.395 82.5457 109.408 81.8574 108.435C81.8039 108.382 81.9415 108.313 81.9874 108.389Z" fill="#2C392D"/>
<path d="M88.2204 282.944C86.339 282.829 37.7448 263.122 36.3988 261.254C36.3389 261.144 36.3123 261.019 36.3223 260.894C36.3223 259.217 39.695 253.368 42.5094 245.681C42.6853 245.191 43.9395 242.91 45.6756 239.839C50.5014 231.425 58.914 216.932 58.914 216.932L90.6753 229.565L75.4715 252.342L73.1083 257.855C73.1083 257.855 88.0139 273.282 89.2681 275.464C90.5224 277.646 90.0941 283.051 88.2204 282.944Z" fill="#EDDBC1"/>
<path d="M88.2204 282.944C86.339 282.829 37.7448 263.122 36.3988 261.254C36.3389 261.144 36.3123 261.019 36.3223 260.894C36.3223 259.217 39.695 253.368 42.5094 245.681C42.6853 245.191 43.9395 242.91 45.6756 239.839L75.5021 252.342L73.1389 257.855C73.1389 257.855 88.0445 273.282 89.2987 275.464C90.5529 277.646 90.0941 283.051 88.2204 282.944Z" fill="#F8F5F0"/>
<path d="M88.2204 282.944C86.339 282.829 37.7448 263.122 36.3988 261.254C35.8788 260.542 38.0508 253.904 42.5171 245.681L73.1083 257.862C73.1083 257.862 88.0139 273.274 89.2758 275.472C90.5377 277.669 90.0941 283.051 88.2204 282.944Z" fill="#3C4E3E"/>
<path d="M88.2968 280.77C80.4272 277.386 48.3523 264.477 40.3145 261.736C40.2456 261.736 40.2303 261.736 40.3145 261.782C48.0464 265.304 80.2207 277.952 88.2662 280.923C88.4192 280.961 88.4651 280.839 88.2968 280.77Z" fill="#2C392D"/>
<path d="M86.9203 272.555C86.0476 272.171 85.1049 271.973 84.1517 271.973C83.1986 271.973 82.2559 272.171 81.3832 272.555C79.8142 273.242 78.5706 274.509 77.9111 276.092C77.9111 276.138 77.98 276.176 78.0029 276.13C78.9045 274.662 80.2571 273.526 81.8578 272.893C83.4586 272.259 85.2215 272.162 86.882 272.616C86.8949 272.612 86.9059 272.604 86.913 272.593C86.9201 272.581 86.9227 272.568 86.9203 272.555Z" fill="#2C392D"/>
<path d="M75.8845 259.891C72.7259 258.567 68.5808 258.214 65.5599 260.029C65.4452 260.098 65.5599 260.259 65.6594 260.251C69.0269 259.909 72.4213 259.927 75.785 260.305C75.8368 260.31 75.8888 260.297 75.9314 260.267C75.974 260.237 76.0042 260.192 76.0164 260.142C76.0286 260.091 76.0219 260.038 75.9976 259.991C75.9734 259.945 75.9331 259.91 75.8845 259.891Z" fill="#2C392D"/>
<path d="M77.957 261.836C74.7984 260.511 70.6533 260.159 67.6324 261.974C67.5177 262.043 67.6324 262.203 67.7319 262.196C71.0992 261.85 74.494 261.868 77.8576 262.249C77.9093 262.255 77.9614 262.241 78.0039 262.211C78.0465 262.181 78.0767 262.137 78.0889 262.086C78.1011 262.036 78.0944 261.982 78.0701 261.936C78.0459 261.89 78.0056 261.854 77.957 261.836Z" fill="#2C392D"/>
<path d="M80.0372 263.781C76.871 262.456 72.7259 262.104 69.7127 263.918C69.5903 263.987 69.7127 264.148 69.8045 264.14C73.1718 263.795 76.5666 263.812 79.9302 264.194C79.983 264.203 80.0372 264.192 80.0821 264.162C80.127 264.133 80.1594 264.088 80.1728 264.036C80.1863 263.984 80.1798 263.929 80.1547 263.882C80.1296 263.835 80.0877 263.798 80.0372 263.781Z" fill="#2C392D"/>
<path d="M82.1098 265.725C78.9436 264.401 74.8061 264.048 71.7853 265.855C71.6629 265.932 71.7852 266.093 71.877 266.085C75.2444 265.739 78.6392 265.757 82.0027 266.139C82.0555 266.148 82.1098 266.136 82.1547 266.107C82.1996 266.078 82.232 266.033 82.2454 265.981C82.2588 265.929 82.2524 265.874 82.2273 265.827C82.2022 265.779 82.1603 265.743 82.1098 265.725Z" fill="#2C392D"/>
<path d="M45.362 254.983C41.7905 253.559 39.5726 259.125 43.1595 260.55C46.7463 261.974 48.9718 256.408 45.362 254.983Z" fill="#2C392D"/>
<path d="M82.7292 252.771C81.6509 250.788 79.1042 251.278 77.5517 252.266C74.9364 254.019 72.8267 256.43 71.4334 259.256C71.4273 259.268 71.424 259.282 71.4239 259.296C71.4238 259.309 71.4268 259.323 71.4326 259.336C71.4385 259.348 71.4471 259.359 71.4579 259.368C71.4686 259.376 71.4811 259.383 71.4946 259.386C71.4946 259.638 71.6628 259.937 71.9611 259.876C74.8596 259.21 78.0335 258.865 80.6337 257.334C82.125 256.446 83.7464 254.647 82.7292 252.771ZM76.1139 257.969C74.699 258.329 73.2765 258.62 71.877 259.034C73.0346 257.637 74.2624 256.301 75.5556 255.029C76.1922 254.423 76.8693 253.86 77.5822 253.345C78.6912 252.579 82.8822 251.163 81.8115 254.754C81.2226 256.737 77.804 257.541 76.1139 257.969Z" fill="#2C392D"/>
<path d="M63.0208 257.265C65.6211 258.796 68.7949 259.156 71.6858 259.83C71.984 259.899 72.1829 259.6 72.16 259.34C72.1743 259.338 72.188 259.333 72.1998 259.325C72.2115 259.316 72.2209 259.305 72.2271 259.292C72.2332 259.279 72.2359 259.264 72.2349 259.25C72.2338 259.236 72.2291 259.222 72.2211 259.21C70.83 256.378 68.7202 253.962 66.1029 252.204C64.5733 251.209 62.0113 250.711 60.9253 252.687C59.8393 254.662 61.4989 256.369 63.0208 257.265ZM61.8278 254.677C60.7647 251.086 64.9481 252.511 66.057 253.284C66.7691 253.799 67.4438 254.365 68.076 254.976C69.3667 256.25 70.592 257.589 71.747 258.988C70.3474 258.574 68.9249 258.276 67.5101 257.916C65.797 257.456 62.409 256.691 61.8278 254.677Z" fill="#2C392D"/>
<path d="M77.9417 251.071L42.387 236.7C42.387 236.7 86.469 171.814 86.7902 166.983C87.0808 162.71 67.7166 125.486 66.9594 114.637C66.1335 102.923 71.7622 93.8655 77.957 88.2382L114.628 103.849C114.628 103.849 110.758 110.043 104.686 113.496C104.686 113.496 123.492 156.524 122.421 169.754C121.351 182.984 77.9417 251.071 77.9417 251.071Z" fill="#3C4E3E"/>
<path d="M79.5172 244.303C74.3778 242.09 75.8845 242.649 70.7145 240.475C68.1908 239.418 51.595 232.505 49.0406 231.931C48.9871 231.931 48.9489 232.007 49.0024 232.038C51.2126 233.393 67.946 240.016 70.4928 241.026C75.7009 243.078 74.2249 242.435 79.456 244.426C79.4638 244.436 79.4742 244.444 79.4861 244.45C79.498 244.455 79.511 244.457 79.524 244.456C79.537 244.455 79.5495 244.45 79.5603 244.443C79.571 244.435 79.5797 244.425 79.5856 244.414C79.5914 244.402 79.5942 244.389 79.5936 244.376C79.593 244.363 79.5891 244.35 79.5822 244.339C79.5754 244.328 79.5658 244.319 79.5544 244.313C79.543 244.306 79.5302 244.303 79.5172 244.303Z" fill="#2C392D"/>
<path d="M110.697 112.708C106.879 113.598 103.144 114.813 99.5315 116.337C99.5169 116.342 99.5035 116.349 99.4919 116.36C99.4804 116.37 99.471 116.382 99.4642 116.396C99.4575 116.41 99.4535 116.425 99.4526 116.44C99.4517 116.456 99.4538 116.471 99.4588 116.486C99.4638 116.5 99.4717 116.514 99.4819 116.525C99.4921 116.537 99.5045 116.546 99.5183 116.553C99.5322 116.56 99.5472 116.564 99.5626 116.565C99.578 116.566 99.5934 116.564 99.6079 116.559C103.355 115.464 107.164 114.438 110.85 113.144C111.133 113.044 110.988 112.646 110.697 112.708Z" fill="#2C392D"/>
<path d="M106.33 111.222C105.974 111.857 105.66 112.514 105.39 113.19C105.126 113.703 104.962 114.262 104.908 114.836C104.908 114.951 105.061 114.974 105.13 114.905C105.513 114.445 105.823 113.929 106.047 113.374C106.361 112.769 106.682 112.172 106.98 111.551C107.187 111.1 106.567 110.809 106.33 111.222Z" fill="#2C392D"/>
<path d="M106.789 107.746C107.019 107.18 107.24 106.621 107.478 106.054C107.715 105.488 108.013 104.906 108.242 104.309C108.242 104.217 108.426 104.309 108.388 104.378C108.158 104.944 108.013 105.541 107.837 106.123C107.661 106.705 107.462 107.287 107.271 107.869C106.912 108.948 106.506 110.02 106.009 111.069C106.611 111.099 107.212 110.995 107.768 110.763C108.336 110.399 108.773 109.862 109.015 109.232C109.336 108.604 109.634 107.961 109.963 107.333C110.368 106.654 110.708 105.939 110.98 105.197C110.98 105.105 111.164 105.197 111.126 105.266C110.627 106.835 109.974 108.351 109.175 109.791C108.831 110.349 108.564 110.939 107.936 111.153C107.258 111.343 106.547 111.393 105.849 111.299C105.757 111.299 105.65 111.299 105.68 111.161C105.993 110.005 106.364 108.866 106.789 107.746Z" fill="#2C392D"/>
<path d="M105.229 114.897C106.537 117.661 107.684 120.417 108.9 123.174C110.116 125.93 111.194 128.594 112.288 131.335C114.475 136.863 116.433 142.498 118.154 148.179C119.003 150.996 119.791 153.837 120.494 156.7C121.269 159.555 121.837 162.461 122.192 165.398C122.499 168.329 122.239 171.293 121.427 174.126C120.584 176.927 119.501 179.649 118.192 182.264C117.389 183.918 117.121 183.696 117.504 182.862C118.597 180.488 121.465 173.299 121.259 167.258C121.092 164.366 120.646 161.497 119.928 158.691C119.26 155.797 118.508 152.926 117.672 150.078C116.043 144.458 114.108 138.953 112.12 133.456C111.003 130.393 109.825 127.331 108.678 124.268C107.531 121.206 106.384 118.388 105.099 115.004C105.061 114.867 105.191 114.813 105.229 114.897Z" fill="#2C392D"/>
<path d="M78.24 105.763C78.8747 105.526 79.7695 105.916 80.4119 106.024C81.2439 106.165 82.0846 106.249 82.9281 106.276C83.7626 106.306 84.5982 106.278 85.4289 106.192C86.2655 106.17 87.0853 105.953 87.8227 105.557C89.0324 104.674 90.0695 103.577 90.8818 102.318C91.8498 101.032 92.6491 99.6272 93.2603 98.1377C93.2603 98.0458 93.4209 98.1377 93.3903 98.199C93.1226 99.0488 92.9238 99.9063 92.6255 100.741C92.2958 101.525 91.9018 102.28 91.4477 102.999C90.7114 104.446 89.6224 105.684 88.2815 106.598C86.8055 107.44 84.9088 107.363 83.2646 107.295C82.3109 107.239 81.3626 107.114 80.4272 106.919C79.7542 106.774 78.6224 106.667 78.1941 106.077C78.1739 106.055 78.159 106.028 78.1503 105.999C78.1416 105.97 78.1393 105.939 78.1437 105.91C78.1481 105.88 78.159 105.851 78.1756 105.826C78.1922 105.8 78.2142 105.779 78.24 105.763Z" fill="#2C392D"/>
<path d="M52.5357 229.894C58.3786 221.033 64.1145 212.101 69.7433 203.097C75.3721 194.093 80.9244 185.021 86.4002 175.879C87.708 173.697 89.2146 171.523 90.0559 169.103C90.9736 166.477 90.4535 163.928 89.6276 161.355C88.0679 156.662 86.2448 152.061 84.167 147.574C82.1174 143.049 79.9072 138.601 77.7352 134.137C75.5633 129.674 73.2919 125.264 71.617 120.609C70.0874 116.161 69.468 111.551 70.661 106.942C71.8541 102.333 74.4237 98.2602 77.1081 94.4244C77.8117 93.4138 78.5382 92.4108 79.2495 91.3619C79.303 91.2854 79.4178 91.3619 79.3642 91.4538C76.4045 95.4504 73.5213 99.6843 71.7852 104.378C70.8979 106.691 70.4017 109.136 70.3169 111.613C70.3024 114.127 70.6923 116.626 71.4717 119.016C72.9095 123.671 75.1809 128.074 77.2993 132.453C79.4177 136.832 81.6815 141.365 83.7694 145.874C85.9233 150.413 87.8379 155.062 89.5052 159.801C90.2165 161.907 91.0348 164.112 90.9736 166.37C90.9201 168.843 89.7423 171.071 88.5186 173.154C83.1652 182.226 77.6817 191.192 72.0988 200.104C66.5159 209.015 60.7724 217.927 54.9601 226.747L52.7575 230.078C52.6428 230.216 52.4439 230.055 52.5357 229.894Z" fill="#2C392D"/>
<path d="M116.663 62.5821C119.974 69.8556 136.7 79.8776 144.531 80.9571C150.16 81.7227 167.276 81.9984 173.142 81.1026C180.025 80.046 174.763 61.4796 170.702 61.962C159.536 63.2635 150.053 64.7182 147.07 64.7182C143.43 64.7182 123.737 58.3942 121.366 57.4984C115.554 55.3317 114.789 58.4554 116.663 62.5821Z" fill="#EDDBC1"/>
<path d="M116.77 64.5191C120.961 70.7284 134.887 80.8805 134.887 80.8805L136.822 76.593L143.223 62.4137C143.223 62.4137 130.429 58.3942 122.008 56.5567C121.018 56.3309 120.01 56.1875 118.995 56.1279C113.619 55.837 113.152 59.1598 116.77 64.5191Z" fill="#B3BFA6"/>
<path d="M116.77 64.5192C120.961 70.7284 134.887 80.8805 134.887 80.8805L136.822 76.5931C131.629 70.5523 123.607 61.4031 118.995 56.1432C113.619 55.837 113.152 59.1598 116.77 64.5192Z" fill="#2C392D"/>
<path d="M132.379 78.0018C133.442 75.391 138.168 64.879 139.346 62.6893C139.422 62.5362 139.545 62.5515 139.476 62.6893C137.426 67.9169 135.092 73.0287 132.486 78.0018C132.455 78.0937 132.333 78.063 132.379 78.0018Z" fill="#2C392D"/>
<path d="M168.652 62.1534C175.444 61.2652 183.849 59.7416 190.969 62.7659C191.768 63.0799 192.439 63.6543 192.873 64.3966C196.085 65.6982 196.437 67.6046 196.437 67.6046C199.06 69.733 199.152 71.739 199.152 71.739C199.152 71.739 202.915 73.2702 202.341 75.7355C201.714 78.4611 196.559 75.7355 192.812 75.9576C184.208 76.4935 172.163 79.6555 169.677 80.0536L168.652 62.1534Z" fill="#EDDBC1"/>
<path d="M183.405 70.1771C185.921 70.0048 188.445 70.0048 190.961 70.1771C193.701 70.5212 196.411 71.0714 199.068 71.8232C199.085 71.8293 199.104 71.8283 199.12 71.8204C199.137 71.8125 199.15 71.7983 199.156 71.7811C199.162 71.7638 199.161 71.7448 199.153 71.7283C199.145 71.7118 199.131 71.6991 199.114 71.693C194.122 69.7324 188.688 69.1815 183.405 70.1005C183.283 70.0852 183.283 70.1847 183.405 70.1771Z" fill="#2C392D"/>
<path d="M181.807 62.2223C186.005 62.4366 188.628 63.1104 192.85 64.3813V64.3354C188.2 62.3907 186.296 62.207 181.784 62.0385C181.638 62.0998 181.646 62.2223 181.807 62.2223Z" fill="#2C392D"/>
<path d="M182.487 77.2591C181.394 77.7721 181.661 78.3463 183.749 78.8287C185.837 79.311 194.517 79.4565 194.211 82.4883C193.905 85.5202 181.661 85.1374 178.243 84.0655C174.824 82.9936 169.677 80.0536 169.677 80.0536C172.102 79.6479 177.792 78.109 182.487 77.2591Z" fill="#EDDBC1"/>
<path d="M125.756 74.1737C125.702 75.4829 125.58 76.8151 125.396 78.1396C125.396 78.086 125.396 78.0401 125.45 77.9941C125.702 77.3051 125.955 76.6007 126.261 75.9346C126.261 75.9346 126.337 75.9346 126.329 75.9346C126.182 76.6645 125.962 77.3776 125.672 78.063C125.534 78.3923 125.404 78.7138 125.259 79.0354C125.167 79.6249 125.06 80.2068 124.945 80.7887C124.716 81.8835 123.683 86.5385 123.416 87.3271C123.37 87.4879 123.171 87.4496 123.186 87.2658C123.24 86.4084 124.104 81.5619 124.28 80.4595C124.621 78.3307 125.078 76.2221 125.649 74.1431C125.687 74.1048 125.763 74.1354 125.756 74.1737Z" fill="#2C392D"/>
<path d="M117.802 108.987C115.76 110.036 113.129 111.666 101.275 109.331C100.51 109.178 99.7915 108.994 99.042 108.772C87.9297 105.434 74.569 92.3496 73.8425 91.4232C73.8425 91.4232 91.5013 62.7659 114.085 53.7545C116.877 52.6443 121.496 54.7881 124.027 57.4601C124.937 58.4171 126.918 65.4532 126.161 71.1495C125.404 76.8457 119.836 107.938 117.802 108.987Z" fill="#B3BFA6"/>
<path d="M116.211 70.8892C116.297 72.1001 116.127 73.3156 115.714 74.457C115.617 73.2456 115.787 72.0277 116.211 70.8892Z" fill="#F8F5F0"/>
<path d="M108.51 90.4049C108.559 91.0076 108.538 91.6138 108.449 92.2118C108.375 92.8142 108.229 93.4056 108.013 93.9727C107.96 93.3676 107.981 92.7584 108.074 92.1582C108.152 91.5591 108.299 90.9708 108.51 90.4049Z" fill="#F8F5F0"/>
<path d="M95.4246 75.6513C95.5115 76.8623 95.3421 78.0781 94.9275 79.2191C94.832 78.0078 95.0016 76.7902 95.4246 75.6513Z" fill="#F8F5F0"/>
<path d="M121.251 89.4096C121.3 90.0148 121.28 90.6236 121.19 91.2241C121.116 91.8266 120.97 92.4179 120.754 92.985C120.701 92.3799 120.722 91.7707 120.815 91.1705C120.893 90.5687 121.039 89.9779 121.251 89.4096Z" fill="#F8F5F0"/>
<path d="M104.449 73.1248C105.051 73.0735 105.656 73.0915 106.254 73.1784C106.856 73.2548 107.447 73.4039 108.013 73.6224C106.803 73.7094 105.589 73.5398 104.449 73.1248Z" fill="#F8F5F0"/>
<path d="M89.597 87.2199C90.8066 87.1345 92.0207 87.3041 93.1609 87.7176C91.9508 87.8146 90.7343 87.6447 89.597 87.2199Z" fill="#F8F5F0"/>
<path d="M107.095 102.479C108.305 102.392 109.519 102.561 110.659 102.976C109.449 103.072 108.233 102.902 107.095 102.479Z" fill="#F8F5F0"/>
<path d="M85.0159 96.9357C86.2256 96.8503 87.4397 97.0198 88.5798 97.4333C87.3698 97.5289 86.1536 97.3591 85.0159 96.9357Z" fill="#F8F5F0"/>
<path d="M116.097 57.1691C117.306 57.0838 118.52 57.2533 119.66 57.6668C118.451 57.7522 117.237 57.5826 116.097 57.1691Z" fill="#F8F5F0"/>
<path d="M111.776 62.0538C111.389 62.5191 110.947 62.9356 110.46 63.2941C109.986 63.661 109.473 63.9743 108.931 64.2282C109.315 63.7659 109.751 63.3497 110.231 62.9879C110.709 62.6196 111.227 62.3063 111.776 62.0538Z" fill="#F8F5F0"/>
<path d="M88.228 75.9346C87.8366 76.3959 87.3926 76.8096 86.9049 77.1673C86.4358 77.541 85.922 77.8548 85.3754 78.1013C85.7688 77.642 86.2126 77.2285 86.6984 76.8687C87.1686 76.4965 87.6822 76.1828 88.228 75.9346Z" fill="#F8F5F0"/>
<path d="M117.634 82.1974C117.243 82.6611 116.799 83.0773 116.311 83.4377C115.841 83.8099 115.327 84.1236 114.781 84.3718C115.172 83.9081 115.616 83.4919 116.104 83.1315C116.577 82.763 117.09 82.4496 117.634 82.1974Z" fill="#F8F5F0"/>
<path d="M98.5908 94.2024C98.1996 94.666 97.7555 95.0823 97.2677 95.4427C96.7968 95.8138 96.2833 96.1274 95.7382 96.3768C96.1294 95.9131 96.5734 95.4969 97.0612 95.1365C97.534 94.768 98.0472 94.4546 98.5908 94.2024Z" fill="#F8F5F0"/>
<path d="M124.93 65.7977C124.539 66.2614 124.095 66.6776 123.607 67.038C123.133 67.4049 122.62 67.7182 122.077 67.9721C122.468 67.5085 122.912 67.0922 123.4 66.7318C123.871 66.3607 124.385 66.0471 124.93 65.7977Z" fill="#F8F5F0"/>
<path d="M124.532 79.7091C124.069 79.3175 123.653 78.873 123.293 78.3846C122.921 77.9142 122.608 77.4 122.36 76.8534C122.825 77.2404 123.241 77.6826 123.599 78.1702C123.964 78.6481 124.277 79.1641 124.532 79.7091Z" fill="#F8F5F0"/>
<path d="M82.0868 89.2947C81.6237 88.9031 81.2079 88.4586 80.8479 87.9702C80.4798 87.4969 80.1668 86.9832 79.9149 86.439C80.378 86.8306 80.7938 87.2752 81.1538 87.7635C81.5245 88.235 81.8377 88.749 82.0868 89.2947Z" fill="#F8F5F0"/>
<path d="M119.37 100.695C118.905 100.308 118.489 99.8656 118.131 99.378C117.764 98.9036 117.452 98.3901 117.198 97.8468C117.661 98.2384 118.077 98.683 118.437 99.1713C118.806 99.6412 119.119 100.152 119.37 100.695Z" fill="#F8F5F0"/>
<path d="M100.686 68.1941C100.223 67.8052 99.8075 67.3632 99.4474 66.8773C99.0825 66.4018 98.7697 65.8884 98.5143 65.346C98.9791 65.7331 99.3952 66.1753 99.7533 66.6629C100.118 67.1384 100.431 67.6517 100.686 68.1941Z" fill="#F8F5F0"/>
<path d="M101.015 107.187C100.552 106.796 100.136 106.351 99.7762 105.863C99.4093 105.389 99.0964 104.875 98.8432 104.332C99.308 104.719 99.724 105.161 100.082 105.648C100.45 106.125 100.763 106.641 101.015 107.187Z" fill="#F8F5F0"/>
<path d="M104.189 84.1881C103.73 83.7942 103.317 83.3499 102.958 82.8635C102.584 82.3939 102.271 81.8795 102.025 81.3323C102.485 81.7241 102.899 82.1686 103.256 82.6568C103.628 83.1275 103.941 83.6417 104.189 84.1881Z" fill="#F8F5F0"/>
<path d="M119.89 65.0934C117.007 64.5574 114.299 58.5932 113.955 54.5813C113.955 54.3057 115.301 52.1237 116.838 49.3904C117.772 47.729 118.758 45.8532 119.546 44.077C119.706 43.7171 120.647 44.9345 120.647 44.9345L122.697 46.4657L129.465 51.6643C127.853 53.6005 126.484 55.7269 125.389 57.996C125.281 58.2419 125.199 58.4986 125.144 58.7617C125.141 58.805 125.141 58.8485 125.144 58.8918C124.723 60.4077 122.666 65.6063 119.89 65.0934Z" fill="#EDDBC1"/>
<path d="M125.144 58.7999C125.141 58.8433 125.141 58.8868 125.144 58.9301C124.742 58.8121 124.351 58.6611 123.974 58.4784C116.563 55.0024 119.829 45.0646 119.829 45.0646L122.735 46.504L129.503 51.7026C127.892 53.6388 126.523 55.7651 125.427 58.0343C125.306 58.2787 125.211 58.5354 125.144 58.7999Z" fill="#2C392D"/>
<path d="M137.243 30.5101C137.243 30.5101 140.631 32.6615 140.646 36.4897C140.661 40.3178 139.117 44.0617 138.795 44.1995C138.474 44.3373 137.243 30.5101 137.243 30.5101Z" fill="#2C392D"/>
<path d="M120.433 32.5007C118.399 36.5203 118.506 49.1914 121.045 52.4529C124.731 57.1845 131.828 58.8153 136.119 54.1373C140.271 49.6048 139.843 33.0979 136.883 30.0201C132.578 25.4723 123.446 26.5518 120.433 32.5007Z" fill="#EDDBC1"/>
<path d="M131.232 42.6453C131.232 42.6453 131.163 42.6912 131.17 42.7218C131.216 43.587 131.125 44.5823 130.352 44.8885C130.352 44.8885 130.352 44.9421 130.352 44.9345C131.308 44.7814 131.415 43.4568 131.232 42.6453Z" fill="#2C392D"/>
<path d="M130.444 41.7648C129.052 41.6882 129.006 44.4751 130.299 44.544C131.591 44.6129 131.606 41.826 130.444 41.7648Z" fill="#2C392D"/>
<path d="M135.95 42.6147C135.95 42.6147 136.019 42.6147 136.019 42.6912C135.973 43.5564 136.073 44.5517 136.853 44.8503C136.853 44.8503 136.853 44.9039 136.853 44.8962C135.889 44.7507 135.774 43.4262 135.95 42.6147Z" fill="#2C392D"/>
<path d="M136.738 41.7265C138.122 41.6423 138.191 44.4292 136.906 44.5057C135.621 44.5823 135.576 41.7954 136.738 41.7265Z" fill="#2C392D"/>
<path d="M129.572 39.644C129.937 39.5399 130.297 39.4173 130.65 39.2765C131.052 39.2038 131.418 38.999 131.69 38.6947C131.757 38.5832 131.784 38.4531 131.769 38.3244C131.754 38.1957 131.697 38.0755 131.606 37.9826C131.399 37.8251 131.154 37.7258 130.896 37.6948C130.638 37.6638 130.376 37.7024 130.138 37.8065C129.622 37.9448 129.175 38.2694 128.884 38.7176C128.826 38.8243 128.799 38.9454 128.808 39.0666C128.816 39.1878 128.859 39.304 128.931 39.4015C129.004 39.499 129.103 39.5737 129.216 39.6167C129.33 39.6597 129.453 39.6692 129.572 39.644Z" fill="#2C392D"/>
<path d="M137.686 40.8767C137.314 40.7934 136.947 40.6912 136.585 40.5704C136.182 40.517 135.808 40.3312 135.522 40.0421C135.448 39.9357 135.413 39.8074 135.421 39.6781C135.429 39.5489 135.481 39.4262 135.568 39.3301C135.765 39.1613 136.004 39.0487 136.26 39.0043C136.516 38.9598 136.778 38.9851 137.021 39.0774C137.544 39.186 138.008 39.4864 138.321 39.9196C138.387 40.0222 138.421 40.1416 138.42 40.2633C138.419 40.385 138.383 40.5038 138.315 40.6053C138.248 40.7067 138.153 40.7863 138.041 40.8345C137.929 40.8827 137.806 40.8973 137.686 40.8767Z" fill="#2C392D"/>
<path d="M129.274 50.8298C129.48 51.0365 129.679 51.3121 129.993 51.3428C130.314 51.3426 130.632 51.2748 130.926 51.1437C130.926 51.1437 130.979 51.1437 130.926 51.1896C130.8 51.3579 130.632 51.4889 130.438 51.5685C130.244 51.648 130.032 51.6732 129.824 51.6414C129.65 51.5937 129.493 51.4957 129.373 51.3596C129.254 51.2235 129.176 51.0553 129.151 50.8757C129.145 50.8595 129.146 50.8415 129.153 50.8257C129.16 50.8099 129.173 50.7976 129.19 50.7915C129.206 50.7854 129.224 50.786 129.24 50.7932C129.255 50.8004 129.268 50.8136 129.274 50.8298Z" fill="#2C392D"/>
<path d="M134.275 47.1395C134.275 47.1395 134.314 48.4257 134.275 49.0306C133.1 48.9057 131.913 48.947 130.75 49.1531C130.474 49.2143 130.505 48.9923 130.819 48.8468C131.756 48.4179 132.8 48.2793 133.817 48.4487C133.878 48.2879 133.717 46.4581 133.817 46.4657C134.279 46.5567 134.727 46.7113 135.147 46.9251C135.147 44.2301 134.719 41.5657 134.757 38.8707C134.757 38.7789 134.903 38.7636 134.918 38.8707C135.461 41.7217 135.718 44.6201 135.683 47.5223C135.69 47.8515 134.505 47.262 134.275 47.1395Z" fill="#2C392D"/>
<path d="M132.555 48.5712C132.25 49.374 131.684 50.0508 130.949 50.4929C129.794 50.96 129.419 49.911 130.582 48.9617C131.191 48.6532 131.874 48.5181 132.555 48.5712Z" fill="#2C392D"/>
<path d="M131.354 50.2556C131.232 50.3551 131.095 50.4352 130.949 50.4929C129.886 50.9217 129.465 50.0718 130.322 49.2143C130.903 49.2603 131.568 49.4746 131.354 50.2556Z" fill="#FF99BA"/>
<path d="M119.852 43.3343C121.251 43.7631 122.857 39.5521 123.316 37.975C123.714 36.5509 124.173 32.0261 124.242 31.7121C124.31 31.3982 130.36 35.7164 133.862 34.6904C137.365 33.6645 139.744 30.4872 139.797 29.0095C139.851 27.5318 135.469 23.7803 131.683 23.5889C127.897 23.3975 122.766 28.1826 122.766 28.1826C123.385 27.4784 123.948 26.7257 124.448 25.9317C124.387 25.7632 121.94 26.7432 121.488 28.4889C121.488 28.4889 121.978 26.2915 121.794 26.2532C121.611 26.215 119.706 28.0907 120.135 29.5148C120.135 29.5148 117.932 31.4212 117.733 33.5114C117.534 35.6015 118.207 42.829 119.852 43.3343Z" fill="#2C392D"/>
<path d="M136.371 33.8942C135.329 34.4596 134.207 34.8624 133.044 35.0886C131.739 35.2051 130.424 34.9947 129.22 34.4761C128.007 34.0069 126.88 33.3394 125.886 32.5008C125.006 31.7811 124.219 30.9006 123.278 30.2575C123.041 30.089 122.773 30.4336 122.919 30.6479C124.488 32.8672 126.73 34.521 129.312 35.3642C130.511 35.7556 131.792 35.8288 133.028 35.5765C134.264 35.3242 135.413 34.7551 136.363 33.9248C136.363 33.9248 136.386 33.8942 136.371 33.8942Z" fill="#2C392D"/>
<path d="M121.312 42.9592C121.312 42.9592 119.14 38.5492 117.183 39.2612C115.225 39.9732 116.418 46.0753 118.429 47.1931C118.676 47.3526 118.952 47.4608 119.241 47.511C119.53 47.5612 119.826 47.5524 120.112 47.4852C120.397 47.418 120.667 47.2937 120.903 47.1199C121.14 46.946 121.339 46.7261 121.488 46.4734L121.312 42.9592Z" fill="#EDDBC1"/>
<path d="M117.573 40.9992C117.573 40.9992 117.527 40.9992 117.573 41.0604C118.965 41.8873 119.53 43.3573 119.867 44.8885C119.804 44.7264 119.706 44.5801 119.58 44.4595C119.455 44.3389 119.305 44.2471 119.141 44.1903C118.976 44.1335 118.801 44.1131 118.628 44.1306C118.455 44.148 118.288 44.2029 118.139 44.2914C118.093 44.2914 118.139 44.3756 118.139 44.3756C118.412 44.333 118.692 44.3764 118.94 44.4998C119.188 44.6232 119.392 44.8205 119.523 45.0646C119.742 45.4735 119.916 45.9047 120.043 46.3509C120.089 46.4964 120.341 46.4581 120.318 46.2973C120.647 44.3909 119.576 41.5045 117.573 40.9992Z" fill="#2C392D"/>
<path d="M106.973 62.651C105.443 71.3255 114.835 100.549 120.854 106.008C129.809 114.124 146.367 119.46 152.37 121.198C154.986 121.964 162.221 103.535 159.574 102.318C153.907 99.7379 136.302 94.2254 134.627 92.8472C132.952 91.4691 122.857 76.8687 118.36 68.4621C112.342 57.1462 107.73 58.264 106.973 62.651Z" fill="#EDDBC1"/>
<path d="M155.116 100.695C155.116 100.695 162.932 102.693 167.972 104.232C170.786 105.097 175.482 107.004 177.264 108.581C179.925 110.947 189.546 122.523 186.793 124.919C184.3 127.094 177.294 116.092 177.294 116.092C177.294 116.092 185.34 126.565 181.883 128.625C178.426 130.684 172.101 117.202 172.101 117.202C172.101 117.202 180.124 128.15 176.201 129.704C173.233 130.876 166.87 118.986 166.87 118.986C166.87 118.986 173.708 128.441 170.694 129.781C167.375 131.266 160.821 120.655 160.821 120.655C152.623 122.775 147.82 120.425 144.661 118.358C143.919 117.853 155.116 100.695 155.116 100.695Z" fill="#EDDBC1"/>
<path d="M174.74 112.286C175.734 113.481 176.744 114.69 177.623 115.969C178.503 117.248 179.336 118.565 180.093 119.92C181.119 121.673 181.94 123.538 182.541 125.478C181.225 122.109 178.143 117.477 177.264 116.199C176.384 114.92 175.566 113.596 174.694 112.317C174.671 112.286 174.717 112.256 174.74 112.286Z" fill="#2C392D"/>
<path d="M170.067 115.387C171.765 116.735 175.321 121.742 176.69 125.103C176.751 125.241 176.69 125.233 176.591 125.103C175.52 123.442 171.176 117.01 170.029 115.41C170.006 115.387 170.044 115.364 170.067 115.387Z" fill="#2C392D"/>
<path d="M165.578 117.347C167.687 119.562 169.354 122.161 170.488 125.003C170.541 125.141 170.434 125.118 170.35 125.003C168.767 122.423 167.543 120.41 165.494 117.416C165.463 117.347 165.532 117.278 165.578 117.347Z" fill="#2C392D"/>
<path d="M115.508 63.2865C108.525 53.4023 104.35 57.062 105.749 67.796C107.065 77.8333 110.575 89.7924 110.575 89.7924L128.165 81.248C128.165 81.248 119.951 69.6182 115.508 63.2865Z" fill="#B3BFA6"/>
<path d="M119.752 67.1759C119.984 67.7342 120.151 68.3173 120.249 68.9138C120.357 69.5123 120.395 70.1211 120.364 70.7284C120.135 70.1672 119.97 69.5815 119.875 68.9827C119.761 68.3876 119.72 67.7809 119.752 67.1759Z" fill="#F8F5F0"/>
<path d="M109.328 73.186C110.451 72.7289 111.659 72.52 112.869 72.5735C112.311 72.8031 111.729 72.9675 111.133 73.0635C110.539 73.1771 109.933 73.2183 109.328 73.186Z" fill="#F8F5F0"/>
<path d="M109.78 57.8123C109.306 58.9312 108.599 59.9361 107.707 60.7599C108.181 59.641 108.887 58.6361 109.78 57.8123Z" fill="#F8F5F0"/>
<path d="M124.685 77.8027C124.453 78.3627 124.158 78.8944 123.806 79.3876C123.463 79.887 123.062 80.3444 122.613 80.7504C123.086 79.6315 123.793 78.6266 124.685 77.8027Z" fill="#F8F5F0"/>
<path d="M112.449 83.7976C111.888 83.5679 111.357 83.2723 110.866 82.9171C110.366 82.574 109.909 82.1731 109.504 81.7227C110.063 81.9564 110.594 82.2517 111.087 82.6032C111.586 82.9466 112.043 83.3474 112.449 83.7976Z" fill="#F8F5F0"/>
<path d="M117.802 66.2648C118.743 67.5587 119.714 68.822 120.678 70.0929C120.433 69.4498 120.219 68.799 120.035 68.1405H120.081C120.272 68.6459 120.494 69.1435 120.678 69.6718L120.953 70.4374C120.977 70.4897 120.997 70.5434 121.014 70.5982C121.779 71.5859 122.544 72.5735 123.247 73.5841C124.112 74.7938 124.945 76.0188 125.786 77.2438C126.628 78.4688 127.477 79.9924 128.387 81.2251C128.471 81.3323 126.857 81.9907 126.681 82.0749C126.505 82.1591 126.414 82.0137 126.582 81.9601C126.75 81.9065 128.035 81.1179 128.05 81.1026C127.209 79.8623 126.238 78.7215 125.358 77.5194C124.479 76.3174 123.607 75.1154 122.758 73.898C121.037 71.4174 119.462 68.8449 117.749 66.3566L117.802 66.2648Z" fill="#2C392D"/>
<path d="M106.162 74.901C106.43 75.4216 106.72 75.9346 106.927 76.4705L107.218 77.1366C106.812 75.2302 106.453 73.3085 106.032 71.4021C106.843 74.4646 107.661 77.596 108.411 80.7044C109.122 83.6751 109.986 86.6763 110.399 89.7082C110.932 89.474 111.485 89.287 112.051 89.1493C111.483 89.5172 110.872 89.813 110.231 90.0297C109.309 86.9467 108.543 83.8189 107.936 80.6585C107.745 79.801 107.569 78.9435 107.386 78.086C107.187 77.5654 106.95 77.0677 106.713 76.5547C106.476 76.0418 106.262 75.4676 106.047 74.924C106.093 74.8933 106.147 74.8627 106.162 74.901Z" fill="#2C392D"/>
<path d="M110.835 86.8371C113.282 85.459 123.507 80.1609 125.794 79.1809C125.955 79.1119 126.039 79.1809 125.878 79.288C121.025 82.1114 116.021 84.6673 110.888 86.9443C110.827 86.9596 110.766 86.8754 110.835 86.8371Z" fill="#2C392D"/>
<path d="M391.074 288.12H158.06L191.749 96.8285H424.762L391.074 288.12Z" fill="#B3BFA6"/>
<path d="M271.5 77.0141H195.244L191.749 96.8285H273.366L271.5 77.0141Z" fill="#B3BFA6"/>
<g opacity="0.1">
<path d="M391.074 288.12H158.06L191.749 96.8285H424.762L391.074 288.12Z" fill="black"/>
<path d="M271.5 77.0141H195.244L191.749 96.8285H273.366L271.5 77.0141Z" fill="black"/>
</g>
<path d="M187.015 85.0991C186.505 82.9082 186.505 80.6292 187.015 78.4382C187.525 80.6292 187.525 82.9082 187.015 85.0991Z" fill="#2C392D"/>
<path d="M180.239 87.0591C179.46 86.2508 178.789 85.3449 178.243 84.3641C177.67 83.4038 177.22 82.3748 176.904 81.3016C177.685 82.1052 178.357 83.0089 178.9 83.989C179.472 84.9527 179.922 85.984 180.239 87.0591Z" fill="#2C392D"/>
<path d="M175.344 92.1505C173.195 91.4964 171.225 90.357 169.585 88.8201C170.658 89.132 171.686 89.5797 172.645 90.1522C173.624 90.7028 174.531 91.3741 175.344 92.1505Z" fill="#2C392D"/>
<path d="M173.631 99.0105C171.443 99.521 169.166 99.521 166.977 99.0105C169.166 98.5001 171.443 98.5001 173.631 99.0105Z" fill="#2C392D"/>
<path d="M175.62 105.794C174.809 106.569 173.904 107.241 172.927 107.792C171.969 108.365 170.941 108.812 169.868 109.124C170.676 108.345 171.581 107.673 172.56 107.126C173.518 106.551 174.546 106.103 175.62 105.794Z" fill="#2C392D"/>
<path d="M180.698 110.686C180.047 112.841 178.908 114.816 177.371 116.459C177.682 115.384 178.132 114.355 178.709 113.397C179.254 112.412 179.923 111.502 180.698 110.686Z" fill="#2C392D"/>
<path d="M187.55 112.378C187.817 113.468 187.945 114.587 187.932 115.709C187.949 116.831 187.82 117.95 187.55 119.039C187.276 117.951 187.147 116.831 187.168 115.709C187.155 114.587 187.283 113.468 187.55 112.378Z" fill="#2C392D"/>
<path d="M194.326 110.457C195.105 111.265 195.776 112.171 196.322 113.152C196.897 114.11 197.344 115.14 197.653 116.214C196.116 114.571 194.977 112.596 194.326 110.441V110.457Z" fill="#2C392D"/>
<path d="M199.213 105.327C200.286 105.636 201.315 106.084 202.272 106.659C203.252 107.206 204.157 107.878 204.964 108.657C203.891 108.348 202.863 107.9 201.905 107.325C200.925 106.778 200.02 106.107 199.213 105.327Z" fill="#2C392D"/>
<path d="M200.903 98.4669C203.094 97.9566 205.373 97.9566 207.564 98.4669C205.373 98.9772 203.094 98.9772 200.903 98.4669Z" fill="#2C392D"/>
<path d="M198.945 91.6835C199.755 90.9086 200.66 90.2397 201.637 89.6929C202.593 89.1121 203.622 88.6615 204.697 88.353C203.056 89.8921 201.082 91.0317 198.93 91.6835H198.945Z" fill="#2C392D"/>
<path d="M193.86 86.7911C194.174 85.719 194.621 84.6902 195.19 83.7286C195.737 82.7479 196.408 81.842 197.186 81.0337C196.878 82.108 196.43 83.1376 195.856 84.0962C195.309 85.0769 194.638 85.9828 193.86 86.7911Z" fill="#2C392D"/>
<path d="M390.729 288.12H157.211L124.058 103.773H357.576L390.729 288.12Z" fill="#B3BFA6"/>
<path d="M204.979 216.465C210.339 216.465 214.685 212.115 214.685 206.749C214.685 201.383 210.339 197.033 204.979 197.033C199.62 197.033 195.274 201.383 195.274 206.749C195.274 212.115 199.62 216.465 204.979 216.465Z" fill="#2C392D"/>
<path d="M281.702 216.465C287.062 216.465 291.407 212.115 291.407 206.749C291.407 201.383 287.062 197.033 281.702 197.033C276.342 197.033 271.997 201.383 271.997 206.749C271.997 212.115 276.342 216.465 281.702 216.465Z" fill="#2C392D"/>
<path d="M257.283 218.019L256.747 217.001C256.702 216.909 251.685 207.63 241.597 207.63C232.42 207.63 230.125 216.365 230.064 216.741L229.789 217.851L227.563 217.315L227.831 216.197C227.831 216.09 230.569 205.333 241.597 205.333C253.069 205.333 258.552 215.5 258.782 215.937L259.317 216.947L257.283 218.019Z" fill="#2C392D"/>
<path fill-rule="evenodd" clip-rule="evenodd" d="M376.84 205.772C376.345 205.896 375.842 206.012 375.34 206.12L375.13 205.143C375.622 205.036 376.114 204.923 376.597 204.802L376.84 205.772Z" fill="#2C392D"/>
<path fill-rule="evenodd" clip-rule="evenodd" d="M425.072 33.3554C424.488 33.5277 423.831 33.734 423.112 33.9783L422.791 33.0315C423.523 32.7826 424.193 32.5723 424.789 32.3964L425.072 33.3554ZM419.258 35.454C418.076 35.9577 416.822 36.5411 415.526 37.2137L415.066 36.3261C416.386 35.6409 417.663 35.0469 418.866 34.5341L419.258 35.454ZM411.944 39.2554C410.815 39.9607 409.676 40.7347 408.545 41.583L407.945 40.7831C409.1 39.9166 410.263 39.1266 411.415 38.4073L411.944 39.2554ZM405.367 44.2005C404.371 45.1022 403.395 46.0693 402.454 47.1061L401.714 46.434C402.678 45.3717 403.677 44.3815 404.697 43.459L405.367 44.2005ZM399.852 50.2857C399.058 51.3669 398.303 52.5108 397.599 53.7205L396.735 53.2174C397.457 51.9761 398.232 50.8026 399.046 49.6936L399.852 50.2857ZM395.725 57.3774C395.449 57.996 395.185 58.6294 394.936 59.278C394.679 59.945 394.44 60.6096 394.217 61.2715L393.269 60.9526C393.497 60.2772 393.741 59.5992 394.003 58.919L394.003 58.919C394.258 58.2538 394.529 57.6041 394.812 56.9695L395.725 57.3774ZM393.048 65.3385C392.714 66.7404 392.455 68.1261 392.268 69.4919L391.277 69.356C391.469 67.9574 391.734 66.5398 392.076 65.1067L393.048 65.3385ZM391.912 73.6979C391.867 75.132 391.902 76.5385 392.014 77.9127L391.017 77.9936C390.902 76.5815 390.866 75.1376 390.912 73.6665L391.912 73.6979ZM392.603 82.0882C392.888 83.4878 393.255 84.8448 393.7 86.1536L392.753 86.4754C392.294 85.126 391.916 83.7281 391.623 82.2875L392.603 82.0882ZM413.649 91.1192C412.423 90.9874 411.124 90.912 409.776 90.9037L409.783 89.9038C411.163 89.9122 412.496 89.9895 413.756 90.125L413.649 91.1192ZM396.965 92.9428C397.121 93.1849 397.281 93.4242 397.443 93.6607L396.619 94.2271C396.408 93.9202 396.203 93.6088 396.002 93.293C395.549 93.4657 395.1 93.6489 394.653 93.8429L394.255 92.9258C394.658 92.7505 395.064 92.5838 395.472 92.4255C395.1 91.7937 394.748 91.1453 394.418 90.4813L395.314 90.0361C395.66 90.7333 396.031 91.4124 396.425 92.0723C396.948 91.8876 397.473 91.7161 398 91.5573L398.288 92.5148C397.845 92.6482 397.404 92.7908 396.965 92.9428ZM405.896 91.0652C404.63 91.1784 403.344 91.3533 402.053 91.5974L401.868 90.6148C403.191 90.3644 404.51 90.1851 405.807 90.0692L405.896 91.0652ZM419.306 92.2733C418.737 92.0862 418.121 91.9135 417.463 91.7582L417.693 90.785C418.376 90.9462 419.02 91.1265 419.618 91.3234L419.619 91.3234C420.344 91.5623 421.015 91.8288 421.634 92.1191L421.209 93.0242C420.629 92.7523 419.996 92.5005 419.306 92.2733ZM426.277 98.6943C426.107 97.552 425.544 96.3781 424.504 95.297L425.224 94.6037C426.393 95.8185 427.062 97.1784 427.266 98.5472L426.277 98.6943ZM391.219 95.6079C390.125 96.2661 389.07 97.0032 388.068 97.8253L387.434 97.0522C388.476 96.1977 389.57 95.4329 390.703 94.751L391.219 95.6079ZM400.067 96.9395C401.023 97.9697 402.052 98.9226 403.146 99.7909L402.524 100.574C401.39 99.6741 400.325 98.6868 399.334 97.62L400.067 96.9395ZM385.291 100.487C384.455 101.425 383.676 102.444 382.966 103.55L382.125 103.01C382.863 101.859 383.674 100.798 384.545 99.8215L385.291 100.487ZM406.623 102.139C407.832 102.826 409.1 103.423 410.419 103.922L410.065 104.858C408.697 104.34 407.383 103.721 406.129 103.008L406.623 102.139ZM422.439 104.795C423.765 104.21 424.779 103.35 425.438 102.353L426.272 102.905C425.498 104.075 424.327 105.055 422.842 105.71L422.439 104.795ZM414.446 105.105C415.126 105.25 415.816 105.371 416.517 105.467L416.517 105.467C417.224 105.564 417.899 105.604 418.541 105.595L418.556 106.594C417.862 106.605 417.136 106.561 416.381 106.458C415.656 106.358 414.941 106.233 414.237 106.083L414.446 105.105ZM381.142 106.939C380.637 108.072 380.194 109.278 379.822 110.562L378.862 110.284C379.246 108.957 379.704 107.708 380.228 106.532L381.142 106.939ZM378.976 114.339C378.874 114.966 378.786 115.609 378.715 116.268L378.218 116.214L378.715 116.268C378.644 116.918 378.591 117.56 378.556 118.193L377.558 118.137C377.594 117.486 377.648 116.827 377.721 116.16C377.794 115.484 377.884 114.823 377.989 114.178L378.976 114.339ZM378.552 122.035C378.622 123.337 378.765 124.607 378.972 125.847L377.985 126.011C377.773 124.735 377.626 123.429 377.553 122.089L378.552 122.035ZM379.807 129.601C380.153 130.845 380.56 132.062 381.019 133.254L380.085 133.613C379.617 132.393 379.199 131.146 378.844 129.869L379.807 129.601ZM382.551 136.793C383.108 137.955 383.707 139.096 384.338 140.221L383.466 140.711C382.826 139.569 382.217 138.409 381.649 137.226L382.551 136.793ZM386.317 143.553C387.002 144.652 387.708 145.738 388.425 146.816L387.593 147.37C386.872 146.286 386.16 145.191 385.469 144.083L386.317 143.553ZM391.061 150.707C391.644 151.561 392.226 152.413 392.802 153.265L391.973 153.825C391.399 152.976 390.819 152.126 390.236 151.273C390.084 151.051 389.932 150.828 389.78 150.605L390.605 150.041C390.757 150.263 390.909 150.485 391.061 150.707ZM394.957 156.528C395.667 157.635 396.354 158.748 397.007 159.871L396.142 160.373C395.499 159.266 394.819 158.166 394.115 157.068L394.957 156.528ZM398.876 163.33C399.463 164.513 400 165.712 400.474 166.933L399.541 167.295C399.08 166.106 398.555 164.934 397.98 163.774L398.876 163.33ZM401.699 170.69C402.032 171.958 402.288 173.252 402.454 174.578L401.462 174.702C401.302 173.423 401.054 172.172 400.732 170.944L401.699 170.69ZM402.67 178.538C402.66 179.192 402.627 179.854 402.569 180.523L402.071 180.481L402.569 180.523C402.569 180.523 402.569 180.523 402.569 180.523C402.506 181.263 402.402 181.994 402.26 182.718L401.279 182.524C401.414 181.836 401.513 181.14 401.573 180.438L401.573 180.438C401.628 179.791 401.66 179.153 401.67 178.522L402.67 178.538ZM400.961 186.942C400.397 188.284 399.701 189.584 398.891 190.833L398.052 190.289C398.832 189.086 399.499 187.838 400.04 186.554L400.961 186.942ZM396.218 194.325C395.258 195.404 394.209 196.431 393.087 197.399L392.434 196.641C393.525 195.701 394.541 194.704 395.471 193.66L396.218 194.325ZM389.603 200.057C388.403 200.867 387.146 201.617 385.845 202.302L385.379 201.417C386.649 200.749 387.874 200.017 389.044 199.228L389.603 200.057ZM381.87 204.132C381.193 204.401 380.507 204.654 379.816 204.888L379.495 203.94C380.17 203.712 380.839 203.466 381.5 203.203L381.87 204.132Z" fill="#2C392D"/>
<path fill-rule="evenodd" clip-rule="evenodd" d="M427.608 32.6944C427.361 32.7486 426.996 32.8332 426.532 32.954L426.28 31.9863C426.758 31.862 427.135 31.7744 427.394 31.7176C427.524 31.6892 427.624 31.6684 427.692 31.6547C427.726 31.6479 427.753 31.6428 427.771 31.6393L427.792 31.6353L427.797 31.6343L427.799 31.6339L427.98 32.6174L427.976 32.6182L427.959 32.6214C427.944 32.6243 427.92 32.6289 427.889 32.6352C427.826 32.6478 427.732 32.6673 427.608 32.6944Z" fill="#2C392D"/>
<path d="M440.02 27.8917C438.069 21.8433 425.007 24.0176 427.554 31.9265C430.1 39.8354 441.97 33.9478 440.02 27.8917Z" fill="#2C392D"/>
<path d="M420.449 25.4723C420.548 22.8156 424.234 20.7714 429.45 21.7131C434.666 22.6548 439.568 26.1767 439.568 26.1767C439.568 26.1767 434.421 29.3004 429.152 29.8747C423.883 30.4489 420.349 28.1214 420.449 25.4723Z" fill="#ECEDDF"/>
<path d="M439.568 26.1614C436.861 26.1614 434.161 26.0848 431.462 26.0006C428.762 25.9164 426.055 25.7786 423.355 25.5642C426.062 25.5642 428.77 25.6331 431.469 25.7173C434.169 25.8016 436.876 25.9394 439.568 26.1614Z" fill="#2C392D"/>
<path d="M425.688 23.1065C427.224 23.8426 428.674 24.7492 430.009 25.8092C429.239 25.4479 428.494 25.0387 427.775 24.5842C427.051 24.1328 426.354 23.6394 425.688 23.1065Z" fill="#2C392D"/>
<path d="M432.777 25.9087C431.394 27.0312 429.894 28.0015 428.303 28.8028C429.694 27.6789 431.201 26.7086 432.8 25.9087H432.777Z" fill="#2C392D"/>
<path d="M433.565 24.4158C434.337 24.7867 435.012 25.3318 435.538 26.0083C435.152 25.8259 434.79 25.5971 434.46 25.3269C434.128 25.0583 433.827 24.7526 433.565 24.4158Z" fill="#2C392D"/>
<path d="M425.42 41.2059C427.049 43.3037 431.232 42.7984 434.911 38.9856C438.589 35.1728 440.54 29.4383 440.54 29.4383C440.54 29.4383 434.513 29.8976 429.917 32.5008C425.32 35.1039 423.783 39.1004 425.42 41.2059Z" fill="#ECEDDF"/>
<path d="M440.54 29.4383C438.337 30.9695 436.196 32.6692 434.047 34.3153C431.898 35.9614 429.794 37.6611 427.737 39.4143C429.94 37.8831 432.081 36.1911 434.223 34.545C436.364 32.8989 438.452 31.1992 440.54 29.4383Z" fill="#2C392D"/>
<path d="M431.041 40.0192C431.45 39.2755 431.815 38.5085 432.135 37.7223C432.46 36.9339 432.736 36.1258 432.961 35.3029C432.551 36.046 432.185 36.813 431.867 37.5998C431.545 38.3894 431.269 39.1972 431.041 40.0192Z" fill="#2C392D"/>
<path d="M435.186 33.6185C433.397 33.5228 431.602 33.6177 429.833 33.9018C430.724 33.9554 431.618 33.9554 432.509 33.9018C433.406 33.858 434.3 33.7635 435.186 33.6185Z" fill="#2C392D"/>
<path d="M436.662 34.3765C436.867 33.9984 437.026 33.5975 437.136 33.1822C437.25 32.7698 437.316 32.3461 437.335 31.9189C436.929 32.6768 436.698 33.517 436.662 34.3765Z" fill="#2C392D"/>
<path d="M440.02 27.8917C439.588 28.0321 439.124 28.041 438.687 27.9173C438.25 27.7937 437.859 27.543 437.565 27.197C437.27 26.851 437.085 26.4252 437.032 25.9737C436.979 25.5221 437.062 25.0651 437.269 24.6604C437.476 24.2558 437.798 23.9217 438.195 23.7005C438.591 23.4792 439.045 23.3809 439.497 23.4178C439.95 23.4547 440.381 23.6253 440.737 23.9079C441.093 24.1905 441.357 24.5724 441.496 25.0053C441.681 25.584 441.63 26.2127 441.353 26.7538C441.077 27.2948 440.597 27.704 440.02 27.8917Z" fill="#3C4E3E"/>
<path d="M441.427 32.2634C440.995 32.4032 440.532 32.4118 440.095 32.288C439.659 32.1643 439.269 31.9137 438.974 31.568C438.68 31.2223 438.495 30.797 438.442 30.3459C438.389 29.8948 438.471 29.4381 438.677 29.0336C438.883 28.6291 439.205 28.2949 439.601 28.0732C439.997 27.8516 440.45 27.7525 440.902 27.7884C441.354 27.8244 441.786 27.9937 442.142 28.2751C442.498 28.5565 442.763 28.9373 442.903 29.3693C442.996 29.6564 443.031 29.959 443.008 30.2598C442.984 30.5606 442.901 30.8538 442.764 31.1226C442.627 31.3913 442.438 31.6304 442.209 31.8262C441.979 32.0219 441.714 32.1705 441.427 32.2634Z" fill="#3C4E3E"/>
<path d="M190.693 30.3111C190.327 33.8277 188.992 37.1732 186.836 39.9743C184.681 42.7753 181.791 44.9217 178.488 46.174C175.185 47.4263 171.599 47.7351 168.131 47.066C164.663 46.3969 161.449 44.7763 158.848 42.3849L149.311 43.786L154.083 35.5326C152.992 32.8471 152.526 29.9479 152.722 27.0553C152.917 24.1626 153.769 21.3526 155.211 18.8387C156.654 16.3248 158.65 14.1731 161.048 12.547C163.445 10.9209 166.181 9.86321 169.049 9.45428C171.916 9.04536 174.838 9.29594 177.594 10.187C180.35 11.0781 182.867 12.5861 184.953 14.5967C187.04 16.6073 188.641 19.0675 189.636 21.7904C190.63 24.5133 190.992 27.4273 190.693 30.3111Z" fill="#F8F5F0"/>
<path d="M190.693 30.3111C190.335 33.8259 189.011 37.1727 186.869 39.9809C185.823 41.4012 184.561 42.6489 183.13 43.6789C181.729 44.7474 180.184 45.6111 178.541 46.2437C176.897 46.892 175.169 47.3044 173.409 47.4687C172.53 47.5477 171.645 47.5656 170.763 47.5223C169.878 47.4995 168.996 47.4074 168.125 47.2467C164.61 46.5993 161.345 44.9847 158.695 42.584L158.917 42.6529L149.395 44.1153L148.699 44.2225L149.051 43.61L153.793 35.3412V35.6704C152.674 32.9353 152.198 29.9793 152.402 27.0308C152.607 24.0823 153.485 21.2203 154.97 18.6659C156.454 16.1196 158.493 13.942 160.936 12.2959C163.374 10.6717 166.149 9.62133 169.051 9.22354C171.953 8.82575 174.907 9.09088 177.692 9.99905C180.448 10.9375 182.959 12.4809 185.042 14.5162C187.12 16.5465 188.709 19.024 189.688 21.7607C190.668 24.4974 191.011 27.4215 190.693 30.3111ZM190.693 30.3111C191.002 27.4357 190.647 24.5278 189.655 21.8117C188.663 19.0956 187.061 16.644 184.973 14.6463C182.884 12.6485 180.365 11.1581 177.609 10.2899C174.854 9.42171 171.936 9.19909 169.081 9.63921C166.254 10.058 163.562 11.1215 161.211 12.7476C158.881 14.3865 156.934 16.513 155.506 18.9798C154.1 21.4521 153.271 24.2109 153.081 27.0495C152.895 29.9073 153.355 32.7703 154.427 35.4254L154.496 35.5939L154.404 35.7546L149.602 43.9928L149.265 43.4874L158.81 42.1476H158.94L159.031 42.2318C161.583 44.6091 164.744 46.2288 168.163 46.9098C169.015 47.0835 169.879 47.1885 170.748 47.2237C171.616 47.2849 172.488 47.2849 173.356 47.2237C175.097 47.0832 176.811 46.7046 178.449 46.0982C180.091 45.4997 181.637 44.664 183.038 43.6176C184.463 42.596 185.727 41.3648 186.785 39.9656C188.955 37.171 190.307 33.829 190.693 30.3111Z" fill="#2C392D"/>
<path d="M162.419 37.2247C162.405 36.9712 162.442 36.7174 162.53 36.479C162.617 36.2407 162.752 36.0228 162.927 35.839C163.102 35.6553 163.313 35.5094 163.547 35.4106C163.78 35.3118 164.032 35.2621 164.285 35.2647C164.805 35.2647 165.303 35.4712 165.67 35.8387C166.037 36.2063 166.243 36.7048 166.243 37.2247C166.243 37.7445 166.037 38.243 165.67 38.6106C165.303 38.9782 164.805 39.1847 164.285 39.1847C164.032 39.1872 163.78 39.1375 163.547 39.0387C163.313 38.9399 163.102 38.794 162.927 38.6103C162.752 38.4265 162.617 38.2086 162.53 37.9703C162.442 37.7319 162.405 37.4781 162.419 37.2247ZM163.184 32.6998L162.741 17.5098H165.8L165.356 32.6998H163.184Z" fill="#B3BFA6"/>
<path d="M169.692 37.2247C169.678 36.9718 169.715 36.7187 169.802 36.4808C169.889 36.243 170.024 36.0255 170.198 35.8419C170.372 35.6582 170.582 35.5122 170.815 35.4129C171.047 35.3136 171.298 35.2632 171.551 35.2647C172.07 35.2647 172.568 35.4712 172.935 35.8387C173.302 36.2063 173.509 36.7048 173.509 37.2247C173.509 37.7445 173.302 38.243 172.935 38.6106C172.568 38.9782 172.07 39.1847 171.551 39.1847C171.298 39.1861 171.047 39.1357 170.815 39.0364C170.582 38.9371 170.372 38.7911 170.198 38.6074C170.024 38.4238 169.889 38.2063 169.802 37.9685C169.715 37.7306 169.678 37.4775 169.692 37.2247ZM170.457 32.6998L170.037 17.5098H173.096L172.652 32.6998H170.457Z" fill="#B3BFA6"/>
<path d="M176.958 37.2247C176.943 36.9712 176.981 36.7174 177.068 36.479C177.155 36.2407 177.291 36.0228 177.466 35.839C177.641 35.6553 177.852 35.5094 178.085 35.4106C178.319 35.3118 178.57 35.2621 178.824 35.2647C179.343 35.2647 179.841 35.4712 180.208 35.8387C180.576 36.2063 180.782 36.7048 180.782 37.2247C180.782 37.7445 180.576 38.243 180.208 38.6106C179.841 38.9782 179.343 39.1847 178.824 39.1847C178.57 39.1872 178.319 39.1375 178.085 39.0387C177.852 38.9399 177.641 38.794 177.466 38.6103C177.291 38.4265 177.155 38.2086 177.068 37.9703C176.981 37.7319 176.943 37.4781 176.958 37.2247ZM177.723 32.6998L177.279 17.5098H180.338L179.902 32.6998H177.723Z" fill="#B3BFA6"/>
</g>
<defs>
<clipPath id="clip0_4_118">
<rect width="468" height="307" fill="white" transform="translate(0.5)"/>
</clipPath>
</defs>
</svg>
