<svg width="393" height="688" viewBox="0 0 393 688" fill="none" xmlns="http://www.w3.org/2000/svg">
<g clip-path="url(#clip0_724_439)">
<g clip-path="url(#clip1_724_439)">
<path d="M58.1644 354.212C9.50829 354.212 9.42379 423.032 58.1644 423.032C106.905 423.032 106.896 354.212 58.1644 354.212Z" fill="#3C4E3E"/>
<path d="M87.7488 395.078C85.148 406.912 75.2796 417.186 58.1533 417.186C17.7129 417.186 17.7787 360.061 58.1533 360.061C58.4162 360.061 58.6791 360.061 58.942 360.061C20.9429 360.752 21.1307 414.842 59.6932 414.842C75.4205 414.861 84.7912 405.81 87.7488 395.078Z" fill="#324334"/>
<path d="M58.4452 367.591C58.7661 367.583 59.0776 367.699 59.3141 367.915C59.5505 368.132 59.6934 368.43 59.7128 368.749V370.617C63.0971 370.835 66.3513 371.997 69.1022 373.97C69.5717 374.307 69.8346 374.596 69.8346 375.073C69.8105 375.41 69.6543 375.724 69.3996 375.947C69.145 376.171 68.8123 376.286 68.4731 376.268C68.1283 376.28 67.7921 376.16 67.5342 375.932C65.2374 374.196 62.5062 373.121 59.6377 372.822V386.234C67.6375 387.766 71.0083 390.493 71.0083 395.192C71.0083 400.273 66.3136 403.859 59.741 404.056V407.792C59.7137 408.106 59.5688 408.399 59.335 408.612C59.1012 408.826 58.7954 408.944 58.478 408.944C58.1607 408.944 57.855 408.826 57.6212 408.612C57.3873 408.399 57.2425 408.106 57.2152 407.792V404.056C52.8725 403.778 48.7288 402.144 45.3751 399.385C45.2005 399.282 45.0554 399.136 44.9535 398.961C44.8516 398.786 44.7964 398.588 44.793 398.386C44.8211 398.058 44.9716 397.753 45.2149 397.53C45.4582 397.307 45.7766 397.182 46.1075 397.181C46.4512 397.175 46.7852 397.295 47.0464 397.517C49.9053 400.034 53.505 401.564 57.3091 401.879V388.242C49.4125 386.664 46.1544 384.03 46.1544 379.238C46.1544 374.447 50.7834 370.711 57.2058 370.571V368.702C57.2362 368.397 57.3801 368.114 57.6093 367.908C57.8385 367.703 58.1366 367.589 58.4452 367.591ZM57.2903 385.851V372.775C52.1825 372.878 48.8398 375.652 48.8398 379.098C48.821 382.302 50.5018 384.319 57.2903 385.851ZM59.6095 388.775V401.991C64.8676 401.898 68.2947 399.115 68.2947 395.453C68.2947 392.128 66.4544 390.11 59.6095 388.728V388.775Z" fill="#324334"/>
<path d="M333.236 560.055C289.425 567.873 300.993 632.433 344.879 624.596C388.765 616.76 377.113 552.218 333.236 560.055Z" fill="#324334"/>
<path d="M337.349 559.319C295.594 566.791 307.171 631.333 348.992 623.861C390.813 616.388 379.16 551.856 337.349 559.319Z" fill="#3C4E3E"/>
<path d="M369.647 593.114C369.422 604.612 362.69 615.755 347.995 618.379C313.254 624.572 303.677 570.996 338.333 564.813C338.559 564.763 338.784 564.725 339.01 564.7C306.522 571.173 315.836 621.873 348.925 615.969C362.417 613.56 368.924 603.631 369.647 593.114Z" fill="#324334"/>
<path d="M345.64 571.798C345.923 571.842 346.178 571.992 346.353 572.218C346.528 572.444 346.608 572.728 346.579 573.012L346.363 574.824C349.297 575.403 351.991 576.841 354.099 578.952C354.274 579.078 354.413 579.246 354.504 579.441C354.594 579.636 354.633 579.85 354.616 580.064C354.572 580.368 354.409 580.643 354.163 580.83C353.918 581.017 353.608 581.101 353.301 581.063C353.149 581.051 353.001 581.008 352.865 580.937C352.73 580.867 352.61 580.77 352.513 580.652C350.767 578.799 348.51 577.499 346.025 576.916L344.522 589.61C351.283 591.87 353.912 594.793 353.367 599.239C352.804 604.04 348.344 606.964 342.626 606.478L342.203 610.018C342.169 610.307 342.022 610.57 341.793 610.751C341.564 610.931 341.273 611.014 340.982 610.98C340.692 610.947 340.427 610.8 340.246 610.572C340.065 610.345 339.982 610.055 340.015 609.766L340.438 606.179C336.655 605.449 333.229 603.475 330.71 600.575C330.525 600.415 330.396 600.199 330.342 599.961C330.289 599.722 330.313 599.473 330.411 599.249C330.51 599.025 330.677 598.838 330.89 598.716C331.102 598.593 331.349 598.541 331.593 598.567C331.897 598.598 332.176 598.745 332.372 598.978C334.498 601.604 337.464 603.427 340.776 604.143L342.297 591.216C335.64 588.928 333.114 586.098 333.649 581.568C334.184 577.038 338.607 573.965 344.184 574.478L344.391 572.76C344.428 572.467 344.581 572.202 344.815 572.022C345.049 571.841 345.346 571.761 345.64 571.798ZM342.607 588.909L344.062 576.533C339.63 576.104 336.41 578.401 336.025 581.661C335.696 584.743 336.926 586.817 342.644 588.909H342.607ZM344.278 591.907L342.823 604.414C347.386 604.853 350.663 602.546 351.067 599.127C351.461 596.008 350.09 593.916 344.316 591.907H344.278Z" fill="#324334"/>
<path d="M354.355 -170.8H353.412V383.842H354.355V-170.8Z" fill="#3C4E3E"/>
<path d="M315.256 420.766L318.383 427.603H389.883L393 420.766L362.56 399.806H345.696L315.256 420.766Z" fill="#3C4E3E"/>
<path d="M343.584 379.608L345.697 399.802H362.56L364.673 379.608H343.584Z" fill="#324334"/>
<path d="M315.256 420.773L318.383 427.61H389.883L393 420.773H315.256Z" fill="#324334"/>
<path d="M271.407 -109.592H270.465V367.833H271.407V-109.592Z" fill="#3C4E3E"/>
<path d="M231.793 398.71L234.92 405.547H306.42L309.538 398.71L279.097 377.75H262.234L231.793 398.71Z" fill="#3C4E3E"/>
<path d="M260.121 357.556L262.234 377.75H279.097L281.21 357.556H260.121Z" fill="#324334"/>
<path d="M231.793 398.713L234.92 405.55H306.42L309.538 398.713H231.793Z" fill="#324334"/>
<path d="M-1 646.677L47.0458 646.453L95.101 646.369L191.193 646.21L287.294 646.369L335.349 646.443L383.395 646.677L335.349 646.901L287.294 646.985L191.193 647.144L95.101 646.985L47.0458 646.901L-1 646.677Z" fill="#3C4E3E"/>
<path d="M191.202 688.012C287.017 688.012 364.691 682.296 364.691 675.244C364.691 668.192 287.017 662.476 191.202 662.476C95.3865 662.476 17.7129 668.192 17.7129 675.244C17.7129 682.296 95.3865 688.012 191.202 688.012Z" fill="#3C4E3E"/>
<path d="M228.761 571.947V572.078C228.761 572.078 228.761 572.134 228.761 572.171C228.761 572.209 228.761 572.321 228.714 572.423V572.591C228.684 572.711 228.662 572.833 228.648 572.956C228.648 573.04 228.648 573.124 228.601 573.217C228.554 573.311 228.535 573.61 228.488 573.834C228.441 574.058 228.347 574.59 228.272 575.039L227.85 577.318C227.803 577.561 227.756 577.822 227.709 578.093C227.662 578.364 227.578 578.821 227.502 579.204C227.427 579.587 227.352 580.064 227.268 580.521C227.211 580.839 227.146 581.166 227.089 581.502C226.911 582.502 226.723 583.566 226.507 584.706C226.503 584.734 226.503 584.762 226.507 584.79C226.282 586.06 226.038 587.424 225.775 588.853C225.709 589.227 225.634 589.6 225.559 589.974C225.484 590.347 225.409 590.758 225.343 591.151C225.343 591.394 225.258 591.646 225.202 591.898C224.845 593.884 224.46 595.989 224.047 598.212C223.906 598.959 223.775 599.716 223.634 600.482C223.362 601.976 223.08 603.508 222.789 605.086C222.714 605.451 222.648 605.815 222.592 606.189C222.166 608.474 221.731 610.853 221.287 613.325C221.23 613.577 221.193 613.829 221.146 614.081C220.93 615.239 220.714 616.407 220.507 617.602C220.479 617.694 220.461 617.788 220.451 617.883L220.141 619.583C219.728 621.862 219.302 624.194 218.864 626.579C218.751 627.167 218.639 627.765 218.535 628.372C218.32 629.577 218.094 630.791 217.869 632.015C217.587 633.537 217.305 635.069 217.024 636.629C216.742 638.189 216.46 639.748 216.169 641.299C216.019 642.093 215.878 642.887 215.728 643.681C215.559 644.615 215.381 645.549 215.212 646.548H134.059C144.068 605.18 152.509 571.826 152.509 571.826L228.761 571.947Z" fill="#3C4E3E"/>
<path d="M216.496 581.259C212.428 603.053 208.321 624.847 204.178 646.641H203.051C207.361 624.794 211.802 602.985 216.196 581.166C216.262 580.997 216.525 581.063 216.496 581.259Z" fill="#3C4E3E"/>
<path d="M228.75 571.946C228.75 571.946 228.75 571.993 228.75 572.077C228.75 572.161 228.75 572.133 228.75 572.17C228.75 572.208 228.75 572.32 228.703 572.422V572.591C228.673 572.71 228.651 572.832 228.637 572.955C228.637 573.039 228.637 573.123 228.59 573.216C228.543 573.31 228.515 573.609 228.478 573.833C228.44 574.057 228.337 574.589 228.262 575.038C228.13 575.701 227.999 576.457 227.839 577.317C227.792 577.56 227.745 577.821 227.698 578.092C227.651 578.363 227.567 578.821 227.492 579.204C227.417 579.586 227.341 580.063 227.257 580.521C227.201 580.838 227.135 581.165 227.079 581.501C226.891 582.501 226.703 583.565 226.496 584.705C226.492 584.733 226.492 584.761 226.496 584.789C226.262 586.059 226.018 587.404 225.755 588.833C225.68 589.207 225.614 589.59 225.548 589.973C225.482 590.356 225.398 590.757 225.332 591.15C225.276 591.393 225.238 591.645 225.191 591.897C224.825 593.877 224.44 595.988 224.036 598.211C223.896 598.958 223.764 599.715 223.623 600.481C223.342 601.975 223.06 603.507 222.778 605.086C222.703 605.45 222.637 605.814 222.581 606.188C222.149 608.485 221.714 610.864 221.276 613.324C221.22 613.576 221.182 613.828 221.135 614.08C220.919 615.238 220.703 616.406 220.497 617.602C220.469 617.693 220.45 617.787 220.44 617.882L220.13 619.582C219.705 621.861 219.279 624.193 218.853 626.578C218.741 627.166 218.628 627.764 218.525 628.371C218.299 629.576 218.083 630.79 217.858 632.014C217.576 633.536 217.295 635.068 217.013 636.628C216.731 638.188 216.44 639.747 216.159 641.298C216.008 642.092 215.868 642.886 215.717 643.68C215.548 644.614 215.37 645.548 215.192 646.547H174.47L171.211 613.37L171.099 612.194L170.967 610.923L170.329 604.432L169.775 598.828L167.127 571.881L228.75 571.946Z" fill="#687969"/>
<path d="M274.861 646.65H187.342C187.191 638.636 187.032 630.884 186.835 623.57C186.835 623.393 186.835 623.215 186.835 623.038C186.835 623.038 176.619 617.023 171.117 612.306C170.181 611.541 169.32 610.69 168.544 609.765C165.023 605.301 161.492 588.133 154.188 571.984H261.227C278.616 605.609 277.396 632.556 274.861 646.65Z" fill="#3C4E3E"/>
<path d="M166.001 608.608C171.203 610.728 175.888 613.988 180.508 617.136C185.315 620.395 189.719 624.169 194.338 627.672C194.517 627.812 194.338 628.101 194.151 627.97C189.278 624.879 184.179 622.161 179.362 618.976C174.545 615.791 169.823 612.877 165.766 608.982C165.607 608.832 165.785 608.515 166.001 608.608Z" fill="#687969"/>
<path d="M165.362 578.662C165.981 581.968 166.789 585.256 167.512 588.553C168.178 591.645 168.676 594.792 169.502 597.893C170.173 600.852 171.685 603.556 173.859 605.683C175.08 606.813 176.422 607.813 177.718 608.84C178.422 609.401 179.173 609.933 179.906 610.503C179.812 610.064 179.737 609.569 179.652 609.167L179.005 605.431C178.535 602.629 178.066 599.827 177.652 597.025C176.807 591.523 176.037 585.966 174.836 580.52C174.832 580.479 174.843 580.438 174.867 580.404C174.89 580.37 174.925 580.345 174.966 580.334C175.006 580.323 175.048 580.326 175.086 580.343C175.124 580.36 175.155 580.39 175.174 580.427C176.554 585.826 178.075 591.168 179.277 596.614C179.868 599.276 181.962 612.492 182.094 613.426C182.225 614.36 182.272 615.36 182.31 616.322C182.432 617.305 182.432 618.299 182.31 619.283C182.291 619.327 182.26 619.365 182.22 619.391C182.18 619.418 182.132 619.432 182.084 619.432C182.036 619.432 181.989 619.418 181.949 619.391C181.909 619.365 181.877 619.327 181.859 619.283C181.458 618.37 181.177 617.409 181.023 616.425C180.779 615.491 180.563 614.556 180.394 613.566C180.328 613.23 180.281 612.875 180.235 612.52C178.929 611.726 177.718 610.652 176.479 609.812C175.239 608.971 173.822 607.944 172.582 606.897C170.28 604.967 168.62 602.388 167.822 599.5C167.03 596.379 166.521 593.193 166.301 589.982C165.878 586.246 165.568 582.51 165.042 578.774C164.967 578.522 165.296 578.428 165.362 578.662Z" fill="#687969"/>
<path d="M254.404 601.743C253.005 601.024 247.596 602.303 237.737 600.631C235.809 600.383 233.979 599.643 232.423 598.483C229.86 596.4 227.916 593.047 226.357 590.18C224.506 586.95 223.08 583.497 222.113 579.905C222.066 579.681 221.757 579.793 221.794 579.999C222.16 582.025 222.358 584.052 222.902 586.061C223.435 587.945 224.117 589.784 224.94 591.562C226.423 594.887 228.16 598.455 231.165 600.706C234.169 602.957 238.676 603.508 242.507 603.77C244.704 603.919 253.352 603.686 254.516 602.462C254.561 602.409 254.593 602.347 254.611 602.281C254.63 602.215 254.634 602.145 254.623 602.077C254.612 602.009 254.587 601.944 254.549 601.887C254.512 601.829 254.462 601.78 254.404 601.743Z" fill="#687969"/>
<path d="M172.948 452.168C163.935 465.422 101.326 545.244 92.2649 546.879C69.1762 551.016 48.0312 543.142 56.754 523.36C66.9134 500.326 123.419 454.662 161.071 434.44C188.037 419.962 181.85 439.091 172.948 452.168Z" fill="#EDDBC1"/>
<path d="M142.413 496.187L93.3066 473.77C93.3066 473.77 138.742 442.349 159.972 432.785C182.15 422.819 191.117 428.647 172.178 454.576C153.559 480.093 142.413 496.187 142.413 496.187Z" fill="#687969"/>
<path d="M119.419 456.379C119.316 456.439 119.216 456.505 119.119 456.576L157.325 475.125L157.512 474.864L119.419 456.379ZM108.856 463.282C108.756 463.339 108.659 463.401 108.565 463.469L150.959 484.017L151.137 483.765L108.856 463.282ZM98.4434 470.25L98.1523 470.446L144.64 493.012C144.686 492.928 144.752 492.844 144.809 492.76L98.4434 470.25Z" fill="white"/>
<path d="M142.986 486.27C141.858 485.63 140.699 485.047 139.512 484.523L135.935 482.777C133.522 481.6 131.09 480.46 128.639 479.34C123.766 477.089 118.893 474.819 113.982 472.661C112.63 472.063 111.269 471.475 109.907 470.915C108.546 470.354 106.987 469.831 105.551 469.243C105.466 469.243 105.419 469.336 105.551 469.383C106.743 469.971 107.889 470.662 109.072 471.251C110.255 471.839 111.522 472.456 112.752 473.044C115.187 474.184 117.629 475.311 120.076 476.425C124.893 478.602 129.71 480.797 134.573 482.87C135.935 483.459 137.296 484.019 138.658 484.598C140.019 485.177 141.475 485.906 142.968 486.373C142.996 486.42 143.062 486.307 142.986 486.27Z" fill="#3C4E3E"/>
<path d="M172.216 454.547C153.559 480.093 142.414 496.186 142.414 496.186L126.715 489.004L180.535 429.226C184.62 432.037 182.676 440.228 172.216 454.547Z" fill="#3C4E3E"/>
<path d="M144.464 589.85H271.127C271.127 589.85 251.747 469.622 205.082 428.506C199.317 423.425 186.303 424.583 177.852 428.777C174.82 430.28 163.937 445.421 160.829 459.749C157.721 474.077 144.116 589.467 144.464 589.85Z" fill="#687969"/>
<path d="M259.613 538.518L203.408 427.368C204.006 427.704 204.566 428.102 205.079 428.554C231.577 451.84 249.266 500.652 259.613 538.518Z" fill="#3C4E3E"/>
<path d="M199.606 425.826H186.771C187.372 425.714 187.963 425.611 188.564 425.518H198.132C198.639 425.602 199.165 425.705 199.606 425.826ZM212.845 436.287H171.316C171.25 436.39 171.184 436.493 171.109 436.595H213.108L212.845 436.287ZM221.249 447.094H165.203L165.062 447.402H221.455L221.249 447.094ZM228.084 457.901H161.222C161.222 458.003 161.166 458.106 161.138 458.209H228.272L228.084 457.901ZM233.906 468.745H159.278C159.278 468.848 159.278 468.95 159.278 469.053H234.15C234.047 468.978 233.99 468.848 233.906 468.745ZM239.042 479.552H157.757C157.757 479.654 157.757 479.757 157.757 479.86H239.248C239.173 479.757 239.126 479.654 239.079 479.552H239.042ZM243.633 490.368H156.311C156.311 490.47 156.311 490.573 156.311 490.667H243.83C243.746 490.564 243.708 490.461 243.671 490.368H243.633ZM247.774 501.174H154.922C154.922 501.277 154.922 501.371 154.922 501.473H247.952C247.887 501.371 247.849 501.277 247.812 501.174H247.774ZM251.53 511.981H153.56C153.56 512.084 153.56 512.187 153.56 512.289H251.689C251.661 512.187 251.633 512.084 251.595 511.944L251.53 511.981ZM254.994 522.788H152.218C152.218 522.891 152.218 522.993 152.218 523.096H255.154C255.126 522.993 255.088 522.891 255.06 522.788H254.994ZM258.187 533.595H150.903C150.903 533.697 150.903 533.8 150.903 533.903H258.318L258.187 533.595ZM261.135 544.401H149.598C149.598 544.504 149.598 544.607 149.598 544.71H261.332C261.248 544.635 261.22 544.504 261.201 544.401H261.135ZM263.952 555.208H148.312C148.312 555.311 148.312 555.414 148.312 555.516H263.952C263.952 555.414 263.952 555.311 263.952 555.208ZM266.45 566.015H147.044C147.044 566.118 147.044 566.22 147.044 566.323H266.478C266.459 566.22 266.44 566.118 266.412 566.015H266.45ZM268.741 576.822H145.805C145.805 576.924 145.805 577.027 145.805 577.13H268.806L268.741 576.822ZM270.75 587.6H144.631V587.909H270.825C270.787 587.834 270.769 587.731 270.75 587.6Z" fill="white"/>
<path d="M227.051 431.531C258.975 443.272 337.583 474.431 341.602 492.663C344.531 506.067 284.551 514.398 282.843 512.231C281.5 510.513 225.802 467.351 206.168 444.122C189.098 423.947 216.844 427.776 227.051 431.531Z" fill="#EDDBC1"/>
<path d="M251.171 486.472L293.226 457.517C293.226 457.517 242.974 434.465 220.345 428.749C196.759 422.79 188.957 430.075 212.158 452.315C235.012 474.19 251.171 486.472 251.171 486.472Z" fill="#687969"/>
<path d="M262.139 443.939L229.539 468.336C229.624 468.401 229.689 468.476 229.774 468.532L262.477 444.07L262.139 443.939ZM273.669 448.834L237.896 475.603L238.13 475.808L274.008 448.974C273.895 448.927 273.782 448.871 273.669 448.834ZM285.078 453.812L246.449 482.767C246.527 482.837 246.608 482.903 246.694 482.963L285.397 454.008C285.286 453.951 285.179 453.885 285.078 453.812Z" fill="white"/>
<path d="M281.622 455.53C280.495 456.146 279.434 456.921 278.364 457.641L275.059 459.845C272.824 461.33 270.608 462.862 268.401 464.394C264.007 467.467 259.585 470.521 255.256 473.669C254.064 474.528 252.871 475.397 251.698 476.293C250.524 477.19 249.294 478.273 248.064 479.207C247.989 479.263 248.064 479.366 248.158 479.319C249.266 478.591 250.449 477.956 251.566 477.227C252.683 476.499 253.848 475.733 254.974 474.958C257.19 473.444 259.388 471.913 261.547 470.362C265.857 467.308 270.185 464.263 274.429 461.115L277.979 458.472C279.218 457.538 280.533 456.679 281.687 455.67C281.791 455.595 281.706 455.483 281.622 455.53Z" fill="#3C4E3E"/>
<path d="M247.287 483.159C246.104 482.169 245.005 481.085 243.86 480.058C242.714 479.03 241.531 478.012 240.376 476.985C238.113 474.986 235.822 473.015 233.55 471.016C228.959 466.963 224.367 462.909 219.823 458.799C217.24 456.464 214.705 454.064 212.039 451.822L211.982 451.878C214.076 454.129 216.33 456.249 218.555 458.36C218.086 458.071 217.616 457.772 217.165 457.426C216.715 457.08 216.17 456.707 215.691 456.324C215.212 455.941 214.752 455.511 214.208 455.156C214.123 455.1 214.048 455.212 214.104 455.278C214.948 456.269 215.943 457.123 217.053 457.809C217.597 458.173 218.17 458.5 218.743 458.808L219.372 459.098C221.362 460.966 223.366 462.834 225.381 464.702C229.888 468.837 234.486 472.884 239.174 476.845C240.47 477.928 241.775 478.993 243.09 480.058C244.404 481.122 245.85 482.15 247.193 483.243C247.259 483.327 247.352 483.215 247.287 483.159Z" fill="#3C4E3E"/>
<path d="M181.879 451.858C189.325 452.792 200.658 440.472 204.62 431.01C204.893 430.356 203.268 423.986 201.653 416.15C200.714 411.395 199.775 406.071 199.231 401.158C199.128 400.15 169.016 411.881 169.016 411.881C169.016 411.881 173.147 421.866 174.001 430.44C174.062 431.121 174.062 431.805 174.001 432.486C174.001 432.579 174.001 432.691 174.001 432.822C173.814 436.717 174.687 450.933 181.879 451.858Z" fill="#EDDBC1"/>
<path d="M177.192 432.652C176.132 432.797 175.061 432.853 173.99 432.821C173.99 432.69 173.99 432.578 173.99 432.475C174.061 431.798 174.061 431.116 173.99 430.439C173.145 421.874 169.023 411.88 169.023 411.88C169.023 411.88 193.436 402.352 198.375 401.204C198.018 406.985 195.408 430.345 177.192 432.652Z" fill="#3C4E3E"/>
<path d="M195.877 363.042C202.121 372.71 205.154 404.859 199.52 413.788C191.351 426.743 173.661 432.721 161.511 421.97C149.728 411.556 146.488 369.59 153.211 361.034C163.07 348.425 186.656 348.752 195.877 363.042Z" fill="#EDDBC1"/>
<path d="M175.832 391.11C175.832 391.026 176.02 391.204 176.02 391.288C176.17 393.464 176.705 395.958 178.743 396.443C178.808 396.443 178.808 396.574 178.743 396.565C176.301 396.472 175.625 393.193 175.832 391.11Z" fill="#3C4E3E"/>
<path d="M177.57 388.654C181.044 388.047 182.011 394.996 178.8 395.566C175.588 396.135 174.64 389.177 177.57 388.654Z" fill="#3C4E3E"/>
<path d="M162.546 392.649C162.546 392.574 162.386 392.78 162.405 392.864C162.771 395.012 162.828 397.534 160.968 398.515C160.912 398.515 160.968 398.655 160.968 398.627C163.325 397.992 163.212 394.629 162.546 392.649Z" fill="#3C4E3E"/>
<path d="M160.264 390.671C156.752 390.886 157.447 397.872 160.705 397.676C163.963 397.48 163.221 390.522 160.264 390.671Z" fill="#3C4E3E"/>
<path d="M179.868 385.104C178.919 384.958 177.979 384.765 177.051 384.525C176.013 384.465 175.023 384.068 174.234 383.395C174.033 383.135 173.924 382.816 173.924 382.489C173.924 382.161 174.033 381.842 174.234 381.582C175.173 380.508 176.553 380.471 177.877 380.648C179.211 380.83 180.432 381.496 181.304 382.517C181.509 382.762 181.634 383.063 181.664 383.381C181.694 383.699 181.627 384.018 181.472 384.297C181.317 384.576 181.081 384.803 180.795 384.947C180.509 385.09 180.185 385.145 179.868 385.104Z" fill="#3C4E3E"/>
<path d="M157.08 387.539C157.992 387.221 158.885 386.853 159.756 386.437C160.752 386.181 161.636 385.607 162.273 384.803C162.422 384.51 162.471 384.176 162.409 383.853C162.348 383.53 162.181 383.237 161.934 383.019C160.827 382.141 159.446 382.365 158.179 382.841C156.9 383.272 155.829 384.161 155.174 385.335C155.04 385.613 154.991 385.924 155.031 386.23C155.072 386.535 155.202 386.822 155.404 387.056C155.606 387.29 155.872 387.46 156.17 387.546C156.467 387.632 156.784 387.629 157.08 387.539Z" fill="#3C4E3E"/>
<path d="M180.386 410.137C179.945 410.716 179.523 411.482 178.743 411.65C177.936 411.746 177.117 411.673 176.34 411.435C176.324 411.431 176.308 411.432 176.293 411.438C176.278 411.444 176.266 411.455 176.257 411.468C176.249 411.482 176.245 411.498 176.246 411.513C176.248 411.529 176.254 411.544 176.264 411.556C176.633 411.936 177.098 412.211 177.61 412.35C178.123 412.49 178.663 412.49 179.175 412.35C179.601 412.173 179.965 411.875 180.22 411.492C180.476 411.11 180.612 410.661 180.612 410.202C180.602 410.137 180.386 410.062 180.386 410.137Z" fill="#3C4E3E"/>
<path d="M177.184 404.006C176.754 404.934 176.136 405.763 175.368 406.441C174.601 407.12 173.7 407.633 172.724 407.948C171.873 408.236 170.984 408.4 170.085 408.433C169.913 408.447 169.741 408.447 169.569 408.433H169.118C168.999 408.427 168.886 408.382 168.795 408.307C168.703 408.231 168.639 408.128 168.611 408.013C168.602 407.939 168.602 407.863 168.611 407.789V407.602C168.339 405.949 168.151 403.408 168.151 403.408C167.578 403.791 164.667 405.613 164.602 404.735C164.029 397.505 163.4 389.463 164.367 382.15C164.377 382.104 164.402 382.063 164.439 382.033C164.476 382.004 164.522 381.988 164.569 381.988C164.616 381.988 164.662 382.004 164.699 382.033C164.735 382.063 164.761 382.104 164.771 382.15C165.588 389.08 165.184 396.104 165.897 403.081C166.93 402.416 168.052 401.9 169.231 401.55C169.475 401.55 169.512 406.472 169.691 407.2C169.689 407.225 169.689 407.25 169.691 407.275C172.508 407.275 174.536 406.117 176.996 403.875C177.099 403.698 177.296 403.819 177.184 404.006Z" fill="#3C4E3E"/>
<path d="M170.996 407.463C172.078 408.518 173.413 409.281 174.874 409.677C175.677 409.87 176.521 409.808 177.287 409.5C178.958 408.808 178.78 407.221 178.273 405.913C177.997 405.22 177.641 404.562 177.212 403.951C175.569 405.751 173.391 406.982 170.996 407.463Z" fill="#3C4E3E"/>
<path d="M174.825 409.68C175.628 409.872 176.472 409.81 177.238 409.502C178.909 408.811 178.731 407.223 178.224 405.916C176.393 406.401 174.75 407.868 174.825 409.68Z" fill="#FF98B9"/>
<path d="M200.649 387.503C194.959 388.951 191.118 375.211 191.118 375.211C191.118 375.211 182.114 376.416 174.217 366.123C174.217 366.123 165.476 376.463 155.748 377.742C140.491 379.732 134.876 361.004 139.073 355.494C144.979 347.676 161.11 351.16 161.11 351.16C161.11 351.16 179.889 338.877 190.452 350.767C190.452 350.767 199.766 348.236 203.653 358.118C207.541 368 204.893 386.419 200.649 387.503Z" fill="#3C4E3E"/>
<path d="M193.633 376.173C189.265 376.785 184.816 375.937 180.985 373.763C177.07 371.409 173.802 366.926 173.661 362.274C173.661 362.022 173.239 362.059 173.267 362.274C173.774 367.337 175.624 372.11 179.943 375.136C181.917 376.551 184.229 377.427 186.649 377.677C189.069 377.926 191.513 377.539 193.736 376.556C193.766 376.528 193.788 376.492 193.799 376.453C193.811 376.414 193.811 376.372 193.8 376.333C193.79 376.294 193.769 376.258 193.739 376.23C193.709 376.201 193.673 376.182 193.633 376.173Z" fill="#3C4E3E"/>
<path d="M202.44 351.973C198.45 349.302 193.99 350.105 189.708 351.646C189.473 351.73 189.624 352.122 189.849 352.02C193.905 350.152 199.051 351.627 202.356 354.364C205.661 357.101 206.468 361.425 206.797 365.414C207.473 373.111 205.258 380.784 200.581 386.952C200.506 387.046 200.656 387.167 200.731 387.074C203.478 383.816 205.528 380.035 206.755 375.962C207.982 371.889 208.36 367.61 207.867 363.387C207.342 359.249 206.112 354.439 202.44 351.973Z" fill="#3C4E3E"/>
<path d="M161.85 351.656C159.109 349.327 155.604 348.08 152 348.153C147.659 348.349 143.544 350.132 140.442 353.16C139.228 354.416 138.368 355.968 137.949 357.661C137.53 359.353 137.567 361.125 138.057 362.799C139.052 366.759 142.057 369.823 145.24 372.139C145.248 372.148 145.259 372.155 145.27 372.159C145.281 372.164 145.293 372.166 145.305 372.165C145.317 372.165 145.329 372.162 145.34 372.156C145.351 372.151 145.36 372.143 145.368 372.133C145.375 372.124 145.381 372.113 145.384 372.101C145.386 372.089 145.387 372.077 145.384 372.065C145.382 372.053 145.377 372.042 145.37 372.032C145.363 372.023 145.354 372.014 145.343 372.008C142.639 369.701 140.217 366.881 139.306 363.341C138.819 361.693 138.811 359.942 139.281 358.289C139.751 356.637 140.681 355.15 141.963 354C147.024 349.498 155.813 347.173 161.606 351.908C161.641 351.919 161.678 351.92 161.713 351.911C161.749 351.901 161.781 351.883 161.806 351.857C161.831 351.831 161.849 351.798 161.856 351.763C161.864 351.727 161.862 351.69 161.85 351.656Z" fill="#3C4E3E"/>
<path d="M196.582 390.865C196.582 390.865 200.967 379.115 206.15 380.423C211.333 381.731 209.849 397.497 205.042 400.841C204.453 401.307 203.776 401.651 203.051 401.852C202.326 402.054 201.568 402.109 200.821 402.014C200.075 401.919 199.355 401.676 198.704 401.3C198.053 400.923 197.485 400.421 197.033 399.823L196.582 390.865Z" fill="#EDDBC1"/>
<path d="M205.615 384.918C205.632 384.914 205.649 384.915 205.665 384.922C205.681 384.93 205.693 384.942 205.701 384.957C205.709 384.972 205.711 384.99 205.707 385.007C205.704 385.023 205.694 385.038 205.681 385.049C202.338 387.524 201.277 391.475 200.836 395.398C201.587 393.735 202.901 392.596 205.089 393.427C205.111 393.436 205.13 393.452 205.144 393.472C205.157 393.492 205.164 393.515 205.164 393.539C205.164 393.563 205.157 393.587 205.144 393.607C205.13 393.627 205.111 393.642 205.089 393.651C204.379 393.614 203.675 393.796 203.074 394.172C202.472 394.548 202.002 395.101 201.728 395.753C201.293 396.853 200.979 397.996 200.789 399.162C200.704 399.536 200.056 399.517 200.075 399.097C200.08 399.066 200.08 399.034 200.075 399.003C198.657 394.315 200.629 386.73 205.615 384.918Z" fill="#3C4E3E"/>
<path d="M326.758 570.377C317.829 601.368 292.28 626.55 287.05 629.847C282.6 632.649 280.28 634.088 280.28 634.088C272.393 639.318 266.966 637.898 266.966 637.898C266.966 637.898 259.633 646.613 253.605 643.082C246.835 639.141 258.45 627.68 260.966 617.49C266.722 594.139 268.346 559.365 269.332 552.463L326.758 570.377Z" fill="#EDDBC1"/>
<path d="M284.28 597.242C282.449 604.08 280.825 610.842 278.073 617.399C275.05 624.591 270.937 631.008 266.909 637.639C266.89 637.679 266.886 637.724 266.896 637.767C266.907 637.809 266.933 637.847 266.969 637.872C267.005 637.898 267.049 637.91 267.093 637.907C267.137 637.904 267.178 637.885 267.21 637.854C276.421 626.991 283.125 611.449 284.881 597.383C284.928 597.037 284.374 596.944 284.28 597.242Z" fill="#3C4E3E"/>
<path d="M298.945 598.651C296.795 605.189 292.935 616.696 280.091 633.957C280.044 634.013 280.091 634.097 280.185 634.041C289.821 624.348 296.554 612.178 299.63 598.893C299.705 598.473 299.095 598.221 298.945 598.651Z" fill="#3C4E3E"/>
<path d="M266.112 588.927C265.652 585.593 263.887 585.807 260.845 590.973C257.803 596.138 250.179 619.143 242.338 615.818C234.498 612.493 245.728 580.185 251.456 571.974C257.183 563.764 269.295 552.463 269.295 552.463C268.413 559.188 267.709 575.711 266.112 588.927Z" fill="#EDDBC1"/>
<path d="M341.584 492.664C347.847 512.232 331.322 555.87 326.759 570.375C324.768 576.699 266.722 559.811 268.891 553.058C273.342 539.244 284.853 514.1 282.825 512.232C281.22 510.747 335.885 474.889 341.584 492.664Z" fill="#EDDBC1"/>
<path d="M298.692 500.463C297.922 500.762 297.152 500.995 296.401 501.397C295.649 501.798 294.851 502.116 294.11 502.518C292.671 503.32 291.302 504.238 290.016 505.264C288.717 506.264 287.488 507.35 286.335 508.514C285.734 509.112 285.152 509.738 284.598 510.382C284.036 510.981 283.544 511.643 283.133 512.353C283.113 512.387 283.102 512.425 283.102 512.465C283.102 512.505 283.113 512.543 283.133 512.577C283.133 512.577 283.133 512.642 283.19 512.652C283.434 512.755 283.575 512.549 283.753 512.4L284.636 511.587C285.255 511.017 285.856 510.41 286.513 509.831C287.762 508.682 289.077 507.58 290.429 506.543C291.781 505.506 293.171 504.535 294.579 503.582C295.283 503.106 295.978 502.648 296.692 502.153C297.405 501.658 298.109 501.219 298.842 500.799C299.02 500.668 298.908 500.388 298.692 500.463Z" fill="#3C4E3E"/>
<path d="M88.8744 490.853C79.485 497.391 50.8941 522.863 56.6592 536.78C62.4243 550.697 84.4332 550.36 115.212 544.822L88.8744 490.853Z" fill="#EDDBC1"/>
<path d="M88.0293 491.462C100.639 481.011 118.958 468.317 126.46 468.719C134.329 469.139 161.924 471.736 168.14 474.388C174.356 477.041 192.233 494.348 194.064 500.083C195.529 504.679 186.459 509.013 174.947 501.643C164.178 494.75 161.943 492.574 158.431 491.369C154.92 490.164 141.08 492.807 139.408 498.001C138.422 501.064 142.413 509.33 147.962 511.077C153.511 512.824 159.229 509.545 167.051 509.965C174.872 510.386 182.384 518.007 180.9 520.548C179.417 523.089 175.886 521.716 165.211 525.265C158.347 527.553 150.187 531.663 138.573 538.463C126.676 545.421 109.465 545.3 109.465 545.3L88.0293 491.462Z" fill="#EDDBC1"/>
<path d="M175.427 502.949C194.206 508.796 185.54 536.49 166.714 530.634C147.888 524.777 156.611 497.083 175.427 502.949Z" fill="#C6D4B8"/>
<path opacity="0.1" d="M175.427 502.949C194.206 508.796 185.54 536.49 166.714 530.634C147.888 524.777 156.611 497.083 175.427 502.949Z" fill="black"/>
<path d="M173.662 502.4C191.568 508.005 182.892 535.671 164.949 530.085C147.006 524.5 155.728 496.815 173.662 502.4Z" fill="#C6D4B8"/>
<path opacity="0.1" d="M157.598 515.444C157.062 520.507 159.391 525.765 165.691 527.727C180.583 532.397 187.785 509.382 172.921 504.75L172.63 504.666C186.526 509.336 179.616 531.033 165.419 526.615C163.004 525.963 160.898 524.486 159.468 522.444C158.038 520.401 157.376 517.923 157.598 515.444Z" fill="black"/>
<g opacity="0.1">
<path d="M172.01 507.621C172.129 507.669 172.225 507.761 172.278 507.877C172.33 507.994 172.335 508.126 172.292 508.247L172.001 509.003C173.177 509.581 174.157 510.491 174.818 511.618C174.876 511.694 174.916 511.783 174.932 511.878C174.948 511.972 174.941 512.069 174.911 512.16C174.858 512.285 174.757 512.384 174.631 512.437C174.504 512.489 174.363 512.49 174.235 512.44C174.108 512.395 174.003 512.301 173.944 512.179C173.403 511.192 172.584 510.384 171.588 509.853L169.522 515.13C172.17 516.84 172.958 518.381 172.235 520.221C171.466 522.22 169.221 523.023 166.827 522.145L166.254 523.611C166.206 523.73 166.114 523.825 165.997 523.877C165.879 523.93 165.746 523.935 165.625 523.892C165.506 523.844 165.411 523.751 165.36 523.634C165.309 523.517 165.307 523.385 165.353 523.266L165.926 521.771C164.392 521.039 163.146 519.82 162.386 518.306C162.338 518.237 162.308 518.158 162.298 518.075C162.289 517.992 162.299 517.908 162.33 517.83C162.384 517.709 162.481 517.612 162.602 517.559C162.724 517.505 162.861 517.499 162.987 517.54C163.113 517.588 163.217 517.682 163.278 517.802C163.896 519.16 164.963 520.268 166.301 520.94L168.395 515.579C165.794 513.86 165.024 512.366 165.757 510.488C166.489 508.611 168.733 507.78 171.062 508.62L171.343 507.901C171.367 507.838 171.404 507.78 171.45 507.731C171.497 507.683 171.554 507.644 171.616 507.618C171.679 507.592 171.746 507.578 171.813 507.579C171.881 507.579 171.948 507.594 172.01 507.621ZM168.808 514.617L170.808 509.479C168.93 508.807 167.325 509.433 166.79 510.787C166.254 512.141 166.592 513.094 168.808 514.617ZM169.193 516.083L167.165 521.286C169.043 521.977 170.724 521.36 171.287 519.931C171.851 518.502 171.437 517.549 169.193 516.083Z" fill="black"/>
</g>
<path d="M126.463 468.72C135.74 466.216 155.373 464.311 168.443 469.392C177.279 472.829 189.813 504.147 185.231 507.837C180.649 511.526 176.781 508.052 171.711 502.233C169.833 500.112 162.471 486.242 158.509 486.84C152.8 487.69 139.082 495.853 139.082 495.853L126.463 468.72Z" fill="#EDDBC1"/>
<path d="M186.208 505.661C187.616 498.553 183.738 490.567 179.429 483.113C179.353 483.001 179.175 483.113 179.241 483.206C180.339 485.075 186.095 498.637 186.067 505.623C186.067 505.745 186.189 505.726 186.208 505.661Z" fill="#3C4E3E"/>
<path d="M126.463 468.72C135.74 466.216 155.373 464.311 168.443 469.392C177.279 472.829 182.311 502.933 177.729 506.623C173.147 510.312 167.316 505.642 163.138 497.992C161.786 495.517 159.382 484.916 155.448 485.485C149.739 486.335 135.73 488.568 135.73 488.568L126.463 468.72Z" fill="#EDDBC1"/>
<path d="M144.113 486.932C145.587 486.549 146.104 486.409 147.587 486.045C149.071 485.68 150.545 485.353 152.047 485.11C153.332 484.808 154.659 484.722 155.972 484.858C157.215 485.139 158.332 485.814 159.155 486.782C161.099 488.893 161.784 491.966 162.639 494.619C163.578 497.589 166.066 503.212 169.559 505.771C170.481 506.515 171.549 507.059 172.695 507.368C173.534 507.64 174.428 507.698 175.296 507.537C178.817 506.453 179.521 502.231 179.483 498.747C179.408 492.209 177.324 485.671 174.939 479.702C174.357 478.236 173.737 476.779 173.117 475.322C172.517 473.608 171.557 472.042 170.301 470.726C168.094 468.7 162.413 467.653 160.667 467.308C160.535 467.308 160.601 467.084 160.733 467.112C162.864 467.495 168.751 467.803 172.169 471.221C173.408 472.473 174.047 474.248 174.742 475.836C175.437 477.423 176.206 479.189 176.864 480.898C178.179 484.201 179.231 487.602 180.009 491.07C180.713 494.357 181.333 498.009 180.779 501.344C180.3 504.249 178.282 507.172 175.361 508.032C172.911 508.769 170.47 507.266 169.399 506.528C168.349 505.794 167.401 504.924 166.582 503.941C164.91 501.608 163.41 499.157 162.094 496.608C160.855 494.087 160.301 491.21 158.855 488.8C158.532 488.213 158.095 487.696 157.57 487.279C157.044 486.862 156.441 486.554 155.794 486.371C154.48 486.175 153.145 486.175 151.831 486.371C149.302 486.472 146.788 486.803 144.32 487.361C143.672 487.492 143.494 487.091 144.113 486.932Z" fill="#3C4E3E"/>
<path d="M119.354 470.522C121.832 469.065 135.973 460.247 141.531 458.697C147.09 457.146 168.817 454.148 173.164 459.071C178.629 465.263 162.31 470.428 155.005 472.026C147.7 473.623 141.259 481.758 141.259 481.758L119.354 470.522Z" fill="#EDDBC1"/>
<path d="M166.237 468.605C163.787 469.05 161.362 469.617 158.969 470.305C156.657 470.798 154.384 471.464 152.171 472.294C150.055 473.276 148.114 474.595 146.425 476.199C145.571 476.974 144.782 477.786 144.003 478.627C143.223 479.468 142.378 480.551 141.514 481.429C141.42 481.523 141.514 481.681 141.655 481.579C143.312 479.996 145.068 478.521 146.913 477.161C148.79 475.715 150.837 474.502 153.007 473.546C157.336 471.678 162.002 470.744 166.34 468.876C166.518 468.829 166.406 468.577 166.237 468.605Z" fill="#3C4E3E"/>
<path d="M176.629 507.001C178.3 507.935 180.188 508.869 182.169 508.785C183.015 508.762 183.836 508.488 184.526 508C184.886 507.74 185.203 507.425 185.465 507.066C185.776 506.705 185.949 506.245 185.953 505.768C185.953 505.637 186.131 505.647 186.103 505.768C186.059 506.034 186.034 506.302 186.028 506.571C185.988 506.795 185.926 507.014 185.84 507.225C185.676 507.643 185.43 508.024 185.117 508.346C184.421 509.054 183.504 509.505 182.516 509.626C180.178 509.943 178.131 508.692 176.526 507.16C176.505 507.146 176.49 507.125 176.485 507.1C176.479 507.076 176.484 507.05 176.498 507.029C176.511 507.008 176.533 506.993 176.558 506.988C176.582 506.983 176.608 506.987 176.629 507.001Z" fill="#3C4E3E"/>
<path d="M138.96 484.651C136.915 487.579 135.064 490.636 133.42 493.804C131.841 496.964 130.728 500.333 130.115 503.808C129.523 507.544 129.833 511.28 129.918 515.091C129.996 516.89 129.924 518.693 129.702 520.48C129.473 522.037 129.076 523.565 128.519 525.038C127.17 528.353 125.011 531.281 122.237 533.556C122.134 533.65 122.237 533.818 122.387 533.743C125.011 531.935 127.203 529.575 128.809 526.832C130.415 524.088 131.396 521.027 131.683 517.865C132.021 513.998 131.364 510.122 131.683 506.245C132.011 502.717 132.794 499.245 134.011 495.915C135.346 492.028 137.047 488.275 139.091 484.707C139.099 484.689 139.099 484.67 139.092 484.652C139.085 484.635 139.071 484.621 139.053 484.613C139.045 484.61 139.036 484.608 139.026 484.607C139.017 484.607 139.007 484.609 138.999 484.613C138.981 484.62 138.967 484.633 138.96 484.651Z" fill="#3C4E3E"/>
<path d="M104.659 478.815C97.3664 483.24 90.4203 488.208 83.8805 493.675C77.2646 499.046 71.2799 505.144 66.0405 511.851C63.1419 515.655 60.6082 519.72 58.4727 523.994C58.4727 524.078 58.5478 524.143 58.6041 524.059C60.7799 520.43 63.1952 516.947 65.834 513.635C68.4486 510.351 71.2414 507.211 74.2 504.23C80.2501 498.235 86.7406 492.696 93.6174 487.66C97.4859 484.764 101.035 482 104.885 479.095C105.27 478.815 105.072 478.563 104.659 478.815Z" fill="#3C4E3E"/>
<path d="M213.146 657.392C213.08 657.775 213.005 658.158 212.93 658.55C212.995 658.167 213.071 657.775 213.136 657.392H213.146Z" fill="#3C4E3E"/>
<path d="M64.201 554.135C51.5159 571.219 38.2956 591.048 35.0938 612.475C35.0938 612.793 35.582 612.905 35.6571 612.578C37.1217 606.735 39.0044 601.004 41.2908 595.429C49.6286 593.141 57.8068 591.273 62.1917 583.034C66.6517 574.572 66.0883 563.541 65.2433 554.322C65.1306 553.827 64.4546 553.799 64.201 554.135Z" fill="#C6D4B8"/>
<path d="M41.3639 595.261C47.0632 582.549 54.3776 569.781 63.6732 559.32C63.7389 559.245 63.8328 559.32 63.7765 559.423C57.6921 566.895 53.0631 574.984 48.5468 583.231C52.7439 578.991 57.3447 575.198 61.3258 570.696C61.4009 570.612 61.5324 570.696 61.4573 570.827C57.5043 575.497 53.1945 580.662 48.0491 584.156C46.6595 586.684 45.2636 589.221 43.8614 591.768C44.2088 591.572 44.5656 591.404 44.9224 591.226C44.9788 591.226 45.0351 591.292 44.9788 591.32C44.5844 591.516 44.1901 591.731 43.7863 591.899C43.1197 593.104 42.4624 594.299 41.7676 595.504C41.6174 595.766 41.2418 595.532 41.3639 595.261Z" fill="#3C4E3E"/>
<path d="M45.6112 590.823C49.0214 588.929 52.2742 586.768 55.3387 584.359C55.4232 584.294 55.5453 584.406 55.4608 584.48C52.4842 587.019 49.227 589.213 45.752 591.019C45.5924 591.14 45.4516 590.916 45.6112 590.823Z" fill="#3C4E3E"/>
<path d="M33.6085 609.289C33.6085 609.551 34.078 609.541 34.0686 609.289C34.1343 602.228 34.0686 595.138 34.1813 588.049C36.0028 584.406 39.8994 582.389 42.6318 579.465C44.5815 577.326 46.2795 574.973 47.6927 572.451C50.9562 566.426 52.9528 559.803 53.5611 552.986C54.3122 545.439 51.4297 520.537 48.2279 521.406C46.5753 521.845 41.2046 534.184 39.7774 538.265C37.4695 544.992 35.7818 551.914 34.7353 558.945C32.125 575.524 32.3409 592.579 33.6085 609.289Z" fill="#C6D4B8"/>
<path d="M33.5532 578.851C33.9382 569.921 35.9663 560.908 37.8536 552.249C39.8911 542.909 42.276 534.139 47.1022 525.816C47.1961 525.658 47.4214 525.816 47.3463 525.956C44.1252 532.426 41.6313 539.23 39.9099 546.244C40.2385 545.739 40.6329 545.263 40.9615 544.787C41.093 544.6 41.4028 544.787 41.2807 544.973C40.8483 545.725 40.342 546.432 39.769 547.084C39.7586 547.089 39.7475 547.091 39.7362 547.091C39.7249 547.091 39.7137 547.089 39.7033 547.084C38.0414 553.753 36.8865 560.572 35.8349 567.381L36.0602 567.119C36.0714 567.11 36.0855 567.104 36.1002 567.104C36.115 567.103 36.1294 567.108 36.1413 567.116C36.1532 567.125 36.1619 567.137 36.1659 567.151C36.1699 567.165 36.1691 567.18 36.1635 567.194C36.0415 567.418 35.8912 567.642 35.7597 567.866C35.2433 571.322 34.7645 574.769 34.2856 578.188C40.4639 572.929 45.7501 566.736 48.7266 559.105C48.7266 559.105 48.7923 559.105 48.7829 559.105C45.8628 567.016 41.2713 574.05 34.1917 578.86L33.7974 581.615C33.7974 581.802 33.4688 581.756 33.4688 581.569C33.4688 580.756 33.4687 579.943 33.5438 579.131C33.4875 579.066 33.4499 578.935 33.5532 578.851Z" fill="#3C4E3E"/>
<path d="M36.4637 565.912C41.1584 558.897 45.5996 552.088 49.0643 544.335C49.0643 544.251 49.2521 544.335 49.2146 544.401C46.3038 552.107 42.2194 559.906 36.7266 566.117C36.5951 566.22 36.3698 566.052 36.4637 565.912Z" fill="#3C4E3E"/>
<path d="M42.7448 542.607C44.6978 539.161 46.7635 535.807 48.6038 532.333C48.6602 532.239 48.7916 532.333 48.754 532.417C47.2413 536.066 45.3266 539.537 43.0452 542.766C42.9138 542.953 42.6321 542.766 42.7448 542.607Z" fill="#3C4E3E"/>
<path d="M41.9851 544.102V544.159C41.9372 544.159 41.9372 544.102 41.9851 544.102Z" fill="#3C4E3E"/>
<path d="M28.8025 588.881C28.7144 593.556 28.1609 598.212 27.1499 602.779C27.225 603.283 27.2908 603.788 27.3659 604.301C28.8167 599.253 29.6583 594.052 29.8729 588.806C29.9149 588.733 29.937 588.651 29.937 588.568C29.937 588.484 29.9149 588.402 29.8729 588.329C30.0734 581.299 29.548 574.266 28.3049 567.342C26.1077 554.368 21.3097 541.927 12.2207 532.203C12.1457 532.139 12.0567 532.093 11.9608 532.068C11.865 532.043 11.7647 532.041 11.6677 532.061C11.5706 532.081 11.4795 532.122 11.4012 532.183C11.3229 532.243 11.2596 532.32 11.2161 532.409C7.54479 541.693 8.82172 552.761 11.9484 562.018C13.6486 567.032 16.0781 571.771 19.1595 576.084C22.2956 580.428 26.2767 584.117 28.8025 588.881Z" fill="#C6D4B8"/>
<path d="M13.3097 536.529C21.9292 550.437 27.9197 566.932 28.652 583.361C28.652 583.66 28.1731 583.735 28.1356 583.436C27.929 581.96 27.7037 580.494 27.469 579.037C23.9104 575.637 20.2485 572.05 17.6945 567.828C17.6476 567.754 17.7603 567.67 17.8166 567.735C20.7779 571.34 23.9475 574.771 27.3093 578.009C26.6833 574.373 25.9479 570.796 25.1028 567.277C24.8681 567.016 24.6427 566.745 24.4174 566.483C24.1921 566.222 24.5206 566.054 24.6709 566.222C24.8211 566.39 24.8117 566.381 24.8775 566.455C23.6658 561.625 22.1639 556.872 20.3799 552.221C18.1828 549.624 15.6852 547.373 14.1359 544.235C14.1359 544.16 14.2017 544.104 14.2486 544.169C15.535 545.963 16.7744 547.765 18.2297 549.428C18.8119 550.091 19.4504 550.717 20.0513 551.362C18.0632 546.321 15.7064 541.432 12.9998 536.735C12.9797 536.694 12.9751 536.647 12.9869 536.604C12.9987 536.56 13.0262 536.522 13.0641 536.497C13.102 536.471 13.1479 536.461 13.193 536.467C13.2382 536.473 13.2797 536.495 13.3097 536.529Z" fill="#3C4E3E"/>
<path d="M15.0554 553.685C17.8723 557.421 21.0084 560.97 23.5999 564.828C23.675 564.94 23.5154 565.052 23.4215 564.968C20.0976 561.858 17.2807 557.626 14.8676 553.759C14.7925 553.675 14.9709 553.582 15.0554 553.685Z" fill="#3C4E3E"/>
<path d="M23.9946 565.688L24.1073 565.809C24.1918 565.893 24.1073 566.015 23.9852 565.94L23.8632 565.818C23.7787 565.734 23.9101 565.613 23.9946 565.688Z" fill="#3C4E3E"/>
<path d="M-0.182432 563.314C0.502998 570.468 4.28694 579.024 8.90655 584.535C10.9374 586.931 13.4475 588.881 16.2772 590.26C19.4697 591.829 22.8499 593.642 26.1174 594.93C27.6859 598.899 28.8528 603.014 29.6009 607.213C29.7042 606.858 29.8169 606.484 29.9201 606.12C27.7981 588 16.0144 572.495 0.934914 562.576C0.816055 562.494 0.675516 562.45 0.531347 562.449C0.387178 562.448 0.245946 562.49 0.125831 562.569C0.00571631 562.649 -0.0877847 562.762 -0.142717 562.895C-0.19765 563.027 -0.211491 563.173 -0.182432 563.314Z" fill="#C6D4B8"/>
<path d="M5.01998 568.622C4.9167 568.529 5.02002 568.342 5.17964 568.426C13.4628 574.556 20.0679 582.655 24.3904 591.982C24.4937 592.225 24.1557 592.44 24.0149 592.197C23.3107 590.973 22.597 589.787 21.8741 588.62C18.4281 587.975 15.17 585.565 12.6161 583.277C12.541 583.221 12.6161 583.118 12.7193 583.184C14.0348 584.373 15.4954 585.393 17.0667 586.219C18.4751 586.929 19.9868 587.377 21.4421 587.947C20.1652 585.93 18.8412 583.996 17.4516 582.128C13.7403 580.72 10.2596 578.771 7.12321 576.346C7.01992 576.272 7.12324 576.113 7.21714 576.178C10.3301 578.047 13.5394 579.753 16.8319 581.287C14.7291 578.533 12.4622 575.907 10.0434 573.423C8.86969 572.806 7.68659 572.19 6.55047 571.555C6.53215 571.543 6.51875 571.524 6.51264 571.503C6.50654 571.482 6.50814 571.46 6.51711 571.439C6.52608 571.419 6.54185 571.403 6.5617 571.393C6.58154 571.384 6.60417 571.381 6.6256 571.387C7.56724 571.714 8.46571 572.153 9.30157 572.694C7.92132 571.293 6.52229 569.939 5.01998 568.622Z" fill="#3C4E3E"/>
<path d="M5.33795 574.879C5.54452 574.997 5.73942 575.135 5.92009 575.29C5.97642 575.336 5.92007 575.411 5.84496 575.383C5.63583 575.287 5.43485 575.175 5.24402 575.047C5.14073 574.981 5.23466 574.813 5.33795 574.879Z" fill="#3C4E3E"/>
<path d="M53.4389 646.436H12.1348L15.468 609.009L16.2004 600.752H49.3733L50.1057 609.009L53.4389 646.436Z" fill="#687969"/>
<path d="M50.1064 609.009H15.4688L16.2011 600.752H49.374L50.1064 609.009Z" fill="#3C4E3E"/>
<path d="M51.354 594.988H14.2188V603.161H51.354V594.988Z" fill="#687969"/>
<path d="M113.72 574.908C114.03 573.321 114.218 571.901 114.378 570.388C114.537 568.875 114.612 567.371 114.603 565.83C114.611 564.245 114.472 562.663 114.19 561.103C113.893 559.296 113.166 557.586 112.068 556.116C111.378 555.266 110.488 554.599 109.476 554.173C108.98 553.965 108.46 553.821 107.927 553.743C107.43 553.67 106.927 553.649 106.425 553.678C104.568 553.818 102.801 554.526 101.364 555.705C100.072 556.733 98.9755 557.983 98.1246 559.394C97.2392 560.783 96.6363 562.332 96.35 563.952C96.1612 564.92 96.239 565.92 96.5753 566.848C96.8072 567.447 97.2165 567.961 97.749 568.323C98.2554 568.657 98.842 568.851 99.4485 568.884C100.072 568.915 100.692 568.766 101.233 568.454C101.697 568.163 102.091 567.774 102.387 567.315C102.858 566.578 103.177 565.756 103.326 564.896C103.594 563.369 103.594 561.808 103.326 560.281C103.091 558.753 102.53 557.291 101.683 555.994C101.231 555.306 100.619 554.736 99.8992 554.332C99.1545 553.927 98.2939 553.786 97.4579 553.93C95.9605 554.264 94.605 555.054 93.5801 556.19C91.6349 558.322 90.0837 560.779 88.998 563.448C90.2729 560.921 91.9825 558.635 94.0496 556.695C95.0138 555.763 96.2495 555.158 97.58 554.967C98.1761 554.957 98.7619 555.122 99.2633 555.443C99.7647 555.764 100.159 556.226 100.397 556.77C100.995 557.931 101.344 559.203 101.42 560.506C101.531 561.801 101.42 563.105 101.092 564.363C100.954 564.906 100.711 565.416 100.378 565.867C100.274 566 100.139 566.106 99.9837 566.175C99.896 566.208 99.7992 566.208 99.7114 566.175C99.58 566.175 99.4297 566.072 99.411 566.026C99.3719 565.959 99.3434 565.886 99.3264 565.811C99.2619 565.373 99.294 564.927 99.4204 564.503C100.152 562.184 101.655 560.181 103.683 558.824C104.504 558.233 105.487 557.907 106.5 557.89C106.715 557.902 106.929 557.933 107.138 557.984C107.309 558.029 107.473 558.095 107.627 558.18C107.92 558.351 108.165 558.591 108.34 558.88C108.839 559.78 109.13 560.779 109.195 561.804C109.305 563.047 109.305 564.297 109.195 565.54C109.084 566.862 108.906 568.178 108.66 569.482C108.415 570.78 108.106 572.153 107.721 573.339L113.72 574.908Z" fill="#C6D4B8"/>
<path opacity="0.1" d="M113.72 574.908C114.03 573.321 114.218 571.901 114.378 570.388C114.537 568.875 114.612 567.371 114.603 565.83C114.611 564.245 114.472 562.663 114.19 561.103C113.893 559.296 113.166 557.586 112.068 556.116C111.378 555.266 110.488 554.599 109.476 554.173C108.98 553.965 108.46 553.821 107.927 553.743C107.43 553.67 106.927 553.649 106.425 553.678C104.568 553.818 102.801 554.526 101.364 555.705C100.072 556.733 98.9755 557.983 98.1246 559.394C97.2392 560.783 96.6363 562.332 96.35 563.952C96.1612 564.92 96.239 565.92 96.5753 566.848C96.8072 567.447 97.2165 567.961 97.749 568.323C98.2554 568.657 98.842 568.851 99.4485 568.884C100.072 568.915 100.692 568.766 101.233 568.454C101.697 568.163 102.091 567.774 102.387 567.315C102.858 566.578 103.177 565.756 103.326 564.896C103.594 563.369 103.594 561.808 103.326 560.281C103.091 558.753 102.53 557.291 101.683 555.994C101.231 555.306 100.619 554.736 99.8992 554.332C99.1545 553.927 98.2939 553.786 97.4579 553.93C95.9605 554.264 94.605 555.054 93.5801 556.19C91.6349 558.322 90.0837 560.779 88.998 563.448C90.2729 560.921 91.9825 558.635 94.0496 556.695C95.0138 555.763 96.2495 555.158 97.58 554.967C98.1761 554.957 98.7619 555.122 99.2633 555.443C99.7647 555.764 100.159 556.226 100.397 556.77C100.995 557.931 101.344 559.203 101.42 560.506C101.531 561.801 101.42 563.105 101.092 564.363C100.954 564.906 100.711 565.416 100.378 565.867C100.274 566 100.139 566.106 99.9837 566.175C99.896 566.208 99.7992 566.208 99.7114 566.175C99.58 566.175 99.4297 566.072 99.411 566.026C99.3719 565.959 99.3434 565.886 99.3264 565.811C99.2619 565.373 99.294 564.927 99.4204 564.503C100.152 562.184 101.655 560.181 103.683 558.824C104.504 558.233 105.487 557.907 106.5 557.89C106.715 557.902 106.929 557.933 107.138 557.984C107.309 558.029 107.473 558.095 107.627 558.18C107.92 558.351 108.165 558.591 108.34 558.88C108.839 559.78 109.13 560.779 109.195 561.804C109.305 563.047 109.305 564.297 109.195 565.54C109.084 566.862 108.906 568.178 108.66 569.482C108.415 570.78 108.106 572.153 107.721 573.339L113.72 574.908Z" fill="black"/>
<path d="M118.48 644.304C122.621 650.123 121.776 667.898 124.283 670.392C126.79 672.886 152.451 672.615 154.217 671.149C155.982 669.682 155.156 663.405 157.034 662.378C157.85 661.967 118.48 644.304 118.48 644.304Z" fill="#C6D4B8"/>
<path opacity="0.1" d="M118.48 644.304C122.621 650.123 121.776 667.898 124.283 670.392C126.79 672.886 152.451 672.615 154.217 671.149C155.982 669.682 155.156 663.405 157.034 662.378C157.85 661.967 118.48 644.304 118.48 644.304Z" fill="black"/>
<path d="M228.186 644.577C223.013 652.049 225.811 667.927 223.304 670.375C220.797 672.822 195.136 672.598 193.37 671.131C191.605 669.665 192.431 663.052 191.408 661.791C190.873 661.146 228.186 644.577 228.186 644.577Z" fill="#C6D4B8"/>
<path opacity="0.1" d="M228.186 644.577C223.013 652.049 225.811 667.927 223.304 670.375C220.797 672.822 195.136 672.598 193.37 671.131C191.605 669.665 192.431 663.052 191.408 661.791C190.873 661.146 228.186 644.577 228.186 644.577Z" fill="black"/>
<path opacity="0.3" d="M157.071 662.378C156.771 662.601 156.518 662.881 156.328 663.201C156.138 663.522 156.014 663.877 155.963 664.246C144.105 662.864 132.514 659.762 121.56 655.037C120.959 650.703 120.105 646.575 118.48 644.286C118.48 644.314 157.85 661.977 157.071 662.378Z" fill="black"/>
<path opacity="0.3" d="M228.187 644.577C226.309 647.379 225.436 651.292 225.032 655.281C214.525 659.911 203.388 662.974 191.982 664.369C191.997 663.478 191.805 662.595 191.418 661.791C190.864 661.146 228.187 644.577 228.187 644.577Z" fill="black"/>
<path d="M171.617 536.874C119.975 536.874 100.145 577.13 100.145 600.677C100.145 623.916 115.168 663.407 171.617 663.407C228.066 663.407 246.78 629.95 246.78 600.145C246.78 570.34 223.832 536.874 171.617 536.874Z" fill="#C6D4B8"/>
<path opacity="0.1" d="M171.617 536.874C119.975 536.874 100.145 577.13 100.145 600.677C100.145 623.916 115.168 663.407 171.617 663.407C228.066 663.407 246.78 629.95 246.78 600.145C246.78 570.34 223.832 536.874 171.617 536.874Z" fill="black"/>
<path d="M186.197 539.788C186.197 539.788 209.802 521.78 235.37 523.909C244.168 524.647 229.558 543.627 229.285 558.469L186.197 539.788Z" fill="#C6D4B8"/>
<path opacity="0.1" d="M186.197 539.788C186.197 539.788 209.802 521.78 235.37 523.909C244.168 524.647 229.558 543.627 229.285 558.469L186.197 539.788Z" fill="black"/>
<path opacity="0.3" d="M219.426 551.174C219.276 552.108 227.426 555.582 228.271 555.05C229.116 554.517 229.961 542.842 236.609 530.401C237.585 528.598 221.003 541.17 219.426 551.174Z" fill="black"/>
<path opacity="0.3" d="M224.516 597.454C225.304 597.334 226.041 596.994 226.641 596.473C227.241 595.952 227.68 595.272 227.906 594.512C227.831 595.446 227.544 596.351 227.068 597.16C226.591 597.969 225.938 598.66 225.155 599.182C225.042 599.257 225.099 599.471 225.249 599.425C229.765 597.734 229.277 591.392 227.69 587.348C227.606 587.123 227.521 586.899 227.418 586.684C226.404 584.34 224.601 582.64 222.423 582.948C215.127 583.994 217.794 598.425 224.516 597.454Z" fill="black"/>
<path d="M241.942 576.905C243.069 580.277 253.322 577.541 255.904 579.707C259.97 583.07 258.843 624.718 255.125 628.072C253.04 629.94 241.416 627.969 238.148 630.257C234.881 632.546 241.942 576.905 241.942 576.905Z" fill="#C6D4B8"/>
<path opacity="0.1" d="M241.942 576.905C243.069 580.277 253.322 577.541 255.904 579.707C259.97 583.07 258.843 624.718 255.125 628.072C253.04 629.94 241.416 627.969 238.148 630.257C234.881 632.546 241.942 576.905 241.942 576.905Z" fill="black"/>
<path opacity="0.3" d="M256.439 602.844C256.439 612.988 255.585 621.217 254.561 621.217C253.538 621.217 252.684 612.988 252.684 602.844C252.684 592.701 253.529 584.472 254.561 584.472C255.594 584.472 256.439 592.701 256.439 602.844Z" fill="black"/>
<path opacity="0.3" d="M151.578 550.238C151.747 550.182 169.174 544.55 185.38 548.958L186.995 543.083C168.949 538.17 150.377 544.204 149.635 544.456L151.569 550.238L150.63 547.352L151.578 550.238Z" fill="black"/>
<path d="M127.383 638.656C104.107 612.055 118.35 581.147 118.998 579.812C119.396 578.912 119.429 577.893 119.09 576.97C118.751 576.046 118.066 575.289 117.179 574.856C116.291 574.423 115.27 574.348 114.328 574.647C113.386 574.945 112.597 575.595 112.125 576.459C108.981 583.469 107.121 590.981 106.632 598.642C105.515 615.566 111.139 631.109 124.472 641.691C128.472 644.886 130.378 642.084 127.383 638.656Z" fill="white"/>
<path d="M117.25 567.985C117.248 568.806 117.491 569.608 117.948 570.291C118.405 570.975 119.055 571.508 119.817 571.823C120.579 572.138 121.417 572.222 122.226 572.063C123.036 571.904 123.779 571.51 124.363 570.93C124.947 570.35 125.345 569.611 125.507 568.807C125.669 568.002 125.587 567.168 125.271 566.409C124.956 565.651 124.422 565.003 123.736 564.547C123.05 564.091 122.244 563.847 121.419 563.847C120.315 563.847 119.256 564.283 118.474 565.059C117.693 565.834 117.252 566.887 117.25 567.985Z" fill="white"/>
<path d="M324.045 665.9H294.609V672.373H324.045V665.9Z" fill="#C6D4B8"/>
<g opacity="0.1">
<path d="M295.877 666.489C296.498 668.161 296.498 670 295.877 671.673C295.255 670 295.255 668.161 295.877 666.489Z" fill="black"/>
<path d="M298.017 666.489C298.639 668.161 298.639 670 298.017 671.673C297.395 670 297.395 668.161 298.017 666.489Z" fill="black"/>
<path d="M299.087 666.489C299.709 668.161 299.709 670 299.087 671.673C298.466 670 298.466 668.161 299.087 666.489Z" fill="black"/>
<path d="M304.974 666.489C305.588 668.163 305.588 669.999 304.974 671.673C304.352 670 304.352 668.161 304.974 666.489Z" fill="black"/>
<path d="M306.561 666.489C306.885 667.316 307.044 668.198 307.031 669.085C307.048 669.97 306.888 670.85 306.561 671.673C306.23 670.851 306.07 669.971 306.092 669.085C306.078 668.198 306.238 667.316 306.561 666.489Z" fill="black"/>
<path d="M313.134 666.489C313.756 668.161 313.756 670 313.134 671.673C312.513 670 312.513 668.161 313.134 666.489Z" fill="black"/>
<path d="M314.656 666.489C315.278 668.161 315.278 670 314.656 671.673C314.034 670 314.034 668.161 314.656 666.489Z" fill="black"/>
<path d="M317.472 666.489C318.094 668.161 318.094 670 317.472 671.673C316.858 669.999 316.858 668.163 317.472 666.489Z" fill="black"/>
<path d="M311.838 666.489C312.166 667.315 312.325 668.197 312.307 669.085C312.327 669.967 312.168 670.844 311.838 671.663C311.511 670.84 311.351 669.961 311.368 669.076C311.356 668.192 311.516 667.313 311.838 666.489Z" fill="black"/>
<path d="M301.031 666.489C301.653 668.161 301.653 670 301.031 671.673C300.409 670 300.409 668.161 301.031 666.489Z" fill="black"/>
<path d="M308.657 666.489C309.279 668.161 309.279 670 308.657 671.673C308.326 670.851 308.166 669.971 308.187 669.085C308.17 668.197 308.329 667.315 308.657 666.489Z" fill="black"/>
<path d="M309.753 666.489C310.375 668.161 310.375 670 309.753 671.673C309.132 670 309.132 668.161 309.753 666.489Z" fill="black"/>
<path d="M321.089 666.489C321.412 667.316 321.571 668.198 321.558 669.085C321.575 669.97 321.416 670.85 321.089 671.673C320.758 670.851 320.598 669.971 320.619 669.085C320.601 668.197 320.761 667.315 321.089 666.489Z" fill="black"/>
<path d="M322.732 666.489C323.056 667.316 323.215 668.198 323.202 669.085C323.223 669.971 323.063 670.851 322.732 671.673C322.405 670.85 322.246 669.97 322.263 669.085C322.25 668.198 322.409 667.316 322.732 666.489Z" fill="black"/>
<path d="M318.74 666.489C319.362 668.161 319.362 670 318.74 671.673C318.118 670 318.118 668.161 318.74 666.489Z" fill="black"/>
<path d="M303.697 666.489C304.025 667.315 304.184 668.197 304.166 669.085C304.188 669.971 304.028 670.851 303.697 671.673C303.075 670 303.075 668.161 303.697 666.489Z" fill="black"/>
</g>
<path opacity="0.1" d="M324.045 665.9V667.273L294.609 668.198V665.9H324.045Z" fill="black"/>
<path d="M321.584 659.43H292.148V665.903H321.584V659.43Z" fill="#C6D4B8"/>
<g opacity="0.1">
<path d="M320.288 665.2C319.662 663.532 319.662 661.694 320.288 660.026C320.914 661.694 320.914 663.532 320.288 665.2Z" fill="black"/>
<path d="M318.081 665.2C317.753 664.378 317.594 663.498 317.612 662.613C317.588 661.728 317.748 660.847 318.081 660.026C318.41 660.848 318.569 661.728 318.551 662.613C318.564 663.498 318.404 664.376 318.081 665.2Z" fill="black"/>
<path d="M317.013 665.2C316.386 663.532 316.386 661.694 317.013 660.026C317.639 661.694 317.639 663.532 317.013 665.2Z" fill="black"/>
<path d="M311.136 665.2C310.509 663.532 310.509 661.694 311.136 660.026C311.762 661.694 311.762 663.532 311.136 665.2Z" fill="black"/>
<path d="M309.537 665.2C309.214 664.376 309.055 663.498 309.068 662.613C309.049 661.728 309.209 660.848 309.537 660.026C309.87 660.847 310.03 661.728 310.007 662.613C310.025 663.498 309.865 664.378 309.537 665.2Z" fill="black"/>
<path d="M302.966 665.2C302.34 663.532 302.34 661.694 302.966 660.026C303.592 661.694 303.592 663.532 302.966 665.2Z" fill="black"/>
<path d="M301.444 665.2C300.818 663.532 300.818 661.694 301.444 660.026C302.07 661.694 302.07 663.532 301.444 665.2Z" fill="black"/>
<path d="M298.694 665.2C298.068 663.532 298.068 661.694 298.694 660.026C299.32 661.694 299.32 663.532 298.694 665.2Z" fill="black"/>
<path d="M304.233 665.2C303.91 664.376 303.751 663.498 303.764 662.613C303.741 661.728 303.9 660.847 304.233 660.026C304.562 660.848 304.722 661.728 304.703 662.613C304.716 663.498 304.557 664.376 304.233 665.2Z" fill="black"/>
<path d="M315.067 665.2C314.74 664.378 314.58 663.498 314.598 662.613C314.575 661.728 314.734 660.847 315.067 660.026C315.694 661.694 315.694 663.532 315.067 665.2Z" fill="black"/>
<path d="M307.444 665.2C306.818 663.532 306.818 661.694 307.444 660.026C308.07 661.694 308.07 663.532 307.444 665.2Z" fill="black"/>
<path d="M306.354 665.2C305.728 663.532 305.728 661.694 306.354 660.026C306.968 661.697 306.968 663.53 306.354 665.2Z" fill="black"/>
<path d="M295.013 665.2C294.386 663.532 294.386 661.694 295.013 660.026C295.346 660.847 295.505 661.728 295.482 662.613C295.5 663.498 295.34 664.378 295.013 665.2Z" fill="black"/>
<path d="M293.369 665.2C293.046 664.376 292.887 663.498 292.9 662.613C292.881 661.728 293.041 660.848 293.369 660.026C293.702 660.847 293.862 661.728 293.839 662.613C293.857 663.498 293.697 664.378 293.369 665.2Z" fill="black"/>
<path d="M297.36 665.2C296.734 663.532 296.734 661.694 297.36 660.026C297.986 661.694 297.986 663.532 297.36 665.2Z" fill="black"/>
<path d="M312.401 665.2C312.074 664.378 311.914 663.498 311.932 662.613C311.909 661.728 312.068 660.847 312.401 660.026C312.73 660.848 312.89 661.728 312.871 662.613C312.884 663.498 312.725 664.376 312.401 665.2Z" fill="black"/>
</g>
<path opacity="0.1" d="M321.594 659.43V660.803L292.148 661.728V659.43H321.594Z" fill="black"/>
<path d="M323.856 653.011H294.42V659.484H323.856V653.011Z" fill="#C6D4B8"/>
<g opacity="0.1">
<path d="M295.64 653.6C296.262 655.272 296.262 657.111 295.64 658.784C295.018 657.111 295.018 655.272 295.64 653.6Z" fill="black"/>
<path d="M297.828 653.6C298.155 654.426 298.315 655.308 298.297 656.196C298.318 657.081 298.159 657.962 297.828 658.784C297.206 657.111 297.206 655.272 297.828 653.6Z" fill="black"/>
<path d="M298.898 653.6C299.52 655.272 299.52 657.111 298.898 658.784C298.276 657.111 298.276 655.272 298.898 653.6Z" fill="black"/>
<path d="M304.775 653.6C305.397 655.272 305.397 657.111 304.775 658.784C304.153 657.111 304.153 655.272 304.775 653.6Z" fill="black"/>
<path d="M306.372 653.6C306.695 654.427 306.854 655.309 306.841 656.196C306.858 657.081 306.699 657.961 306.372 658.784C306.041 657.962 305.881 657.081 305.902 656.196C305.884 655.308 306.044 654.426 306.372 653.6Z" fill="black"/>
<path d="M312.945 653.6C313.567 655.272 313.567 657.111 312.945 658.784C312.323 657.111 312.323 655.272 312.945 653.6Z" fill="black"/>
<path d="M314.466 653.6C315.088 655.272 315.088 657.111 314.466 658.784C313.845 657.111 313.845 655.272 314.466 653.6Z" fill="black"/>
<path d="M317.255 653.6C317.877 655.272 317.877 657.111 317.255 658.784C316.634 657.111 316.634 655.272 317.255 653.6Z" fill="black"/>
<path d="M311.678 653.6C312.001 654.427 312.16 655.309 312.147 656.196C312.168 657.081 312.009 657.962 311.678 658.784C311.351 657.961 311.191 657.081 311.208 656.196C311.195 655.309 311.354 654.427 311.678 653.6Z" fill="black"/>
<path d="M300.843 653.6C301.465 655.272 301.465 657.111 300.843 658.784C300.221 657.111 300.221 655.272 300.843 653.6Z" fill="black"/>
<path d="M308.466 653.6C309.088 655.272 309.088 657.111 308.466 658.784C307.845 657.111 307.845 655.272 308.466 653.6Z" fill="black"/>
<path d="M309.566 653.6C310.18 655.274 310.18 657.11 309.566 658.784C308.944 657.111 308.944 655.272 309.566 653.6Z" fill="black"/>
<path d="M320.897 653.6C321.519 655.272 321.519 657.111 320.897 658.784C320.566 657.962 320.406 657.081 320.428 656.196C320.41 655.308 320.569 654.426 320.897 653.6Z" fill="black"/>
<path d="M322.54 653.6C322.863 654.427 323.022 655.309 323.009 656.196C323.026 657.081 322.867 657.961 322.54 658.784C322.209 657.962 322.049 657.081 322.07 656.196C322.057 655.309 322.216 654.427 322.54 653.6Z" fill="black"/>
<path d="M318.55 653.6C319.172 655.272 319.172 657.111 318.55 658.784C317.929 657.111 317.929 655.272 318.55 653.6Z" fill="black"/>
<path d="M303.51 653.6C303.838 654.426 303.997 655.308 303.979 656.196C304 657.081 303.841 657.962 303.51 658.784C303.183 657.961 303.023 657.081 303.04 656.196C303.027 655.309 303.186 654.427 303.51 653.6Z" fill="black"/>
</g>
<path opacity="0.1" d="M323.856 653.011V654.384L294.42 655.309V653.011H323.856Z" fill="black"/>
<path d="M108.762 662.005H79.3262V668.478H108.762V662.005Z" fill="#C6D4B8"/>
<g opacity="0.1">
<path d="M80.5386 662.593C81.1605 664.266 81.1605 666.105 80.5386 667.777C79.9168 666.105 79.9168 664.266 80.5386 662.593Z" fill="black"/>
<path d="M82.7372 662.593C83.0598 663.418 83.2192 664.296 83.2067 665.181C83.2245 666.069 83.065 666.951 82.7372 667.777C82.4049 666.952 82.2452 666.069 82.2677 665.181C82.2506 664.296 82.4101 663.416 82.7372 662.593Z" fill="black"/>
<path d="M83.8048 662.593C84.1274 663.418 84.2868 664.296 84.2743 665.181C84.2968 666.069 84.137 666.952 83.8048 667.777C83.477 666.951 83.3175 666.069 83.3353 665.181C83.3228 664.296 83.4822 663.418 83.8048 662.593Z" fill="black"/>
<path d="M89.6832 662.593C90.305 664.266 90.305 666.105 89.6832 667.777C89.0613 666.105 89.0613 664.266 89.6832 662.593Z" fill="black"/>
<path d="M91.2808 662.593C91.9027 664.266 91.9027 666.105 91.2808 667.777C90.659 666.105 90.659 664.266 91.2808 662.593Z" fill="black"/>
<path d="M97.8531 662.593C98.1801 663.416 98.3397 664.296 98.3226 665.181C98.3451 666.069 98.1853 666.952 97.8531 667.777C97.2313 666.105 97.2313 664.266 97.8531 662.593Z" fill="black"/>
<path d="M99.3732 662.593C99.6958 663.418 99.8552 664.296 99.8426 665.181C99.8651 666.069 99.7054 666.952 99.3732 667.777C99.0454 666.951 98.8858 666.069 98.9037 665.181C98.8912 664.296 99.0506 663.418 99.3732 662.593Z" fill="black"/>
<path d="M102.164 662.593C102.491 663.416 102.65 664.296 102.633 665.181C102.656 666.069 102.496 666.952 102.164 667.777C101.542 666.105 101.542 664.266 102.164 662.593Z" fill="black"/>
<path d="M96.5868 662.593C97.2086 664.266 97.2086 666.105 96.5868 667.777C96.2546 666.952 96.0948 666.069 96.1173 665.181C96.1002 664.296 96.2598 663.416 96.5868 662.593Z" fill="black"/>
<path d="M85.7509 662.593C86.0734 663.418 86.2329 664.296 86.2203 665.181C86.2382 666.069 86.0786 666.951 85.7509 667.777C85.4186 666.952 85.2589 666.069 85.2814 665.181C85.2689 664.296 85.4283 663.418 85.7509 662.593Z" fill="black"/>
<path d="M93.3746 662.593C93.9964 664.266 93.9964 666.105 93.3746 667.777C92.7527 666.105 92.7527 664.266 93.3746 662.593Z" fill="black"/>
<path d="M94.4644 662.593C95.0863 664.266 95.0863 666.105 94.4644 667.777C93.8426 666.105 93.8426 664.266 94.4644 662.593Z" fill="black"/>
<path d="M105.806 662.593C106.428 664.266 106.428 666.105 105.806 667.777C105.184 666.105 105.184 664.266 105.806 662.593Z" fill="black"/>
<path d="M107.449 662.593C108.071 664.266 108.071 666.105 107.449 667.777C106.827 666.105 106.827 664.266 107.449 662.593Z" fill="black"/>
<path d="M103.459 662.593C103.786 663.416 103.945 664.296 103.928 665.181C103.951 666.069 103.791 666.952 103.459 667.777C102.837 666.105 102.837 664.266 103.459 662.593Z" fill="black"/>
<path d="M88.4169 662.593C88.7395 663.418 88.8989 664.296 88.8863 665.181C88.9042 666.069 88.7447 666.951 88.4169 667.777C88.0846 666.952 87.9249 666.069 87.9474 665.181C87.9303 664.296 88.0898 663.416 88.4169 662.593Z" fill="black"/>
</g>
<path opacity="0.1" d="M108.762 662.005V663.378L79.3262 664.303V662.005H108.762Z" fill="black"/>
<path d="M106.745 655.535H77.3086V662.007H106.745V655.535Z" fill="#C6D4B8"/>
<g opacity="0.1">
<path d="M78.528 656.123C78.8513 656.95 79.0107 657.832 78.9975 658.72C79.0146 659.605 78.855 660.484 78.528 661.307C78.197 660.485 78.0373 659.605 78.0585 658.72C78.0452 657.832 78.2047 656.95 78.528 656.123Z" fill="black"/>
<path d="M80.7161 656.123C81.338 657.796 81.338 659.634 80.7161 661.307C80.1024 659.633 80.1024 657.797 80.7161 656.123Z" fill="black"/>
<path d="M81.7945 656.123C82.4164 657.796 82.4164 659.634 81.7945 661.307C81.1727 659.634 81.1727 657.796 81.7945 656.123Z" fill="black"/>
<path d="M87.6725 656.123C88.2944 657.796 88.2944 659.634 87.6725 661.307C87.3415 660.485 87.1818 659.605 87.203 658.72C87.1852 657.832 87.3447 656.949 87.6725 656.123Z" fill="black"/>
<path d="M89.3082 656.123C89.93 657.796 89.93 659.634 89.3082 661.307C88.6863 659.634 88.6863 657.796 89.3082 656.123Z" fill="black"/>
<path d="M95.8804 656.123C96.5023 657.796 96.5023 659.634 95.8804 661.307C95.2586 659.634 95.2586 657.796 95.8804 656.123Z" fill="black"/>
<path d="M97.3629 656.123C97.9847 657.796 97.9847 659.634 97.3629 661.307C96.741 659.634 96.741 657.796 97.3629 656.123Z" fill="black"/>
<path d="M100.152 656.123C100.774 657.796 100.774 659.634 100.152 661.307C99.5301 659.634 99.5301 657.796 100.152 656.123Z" fill="black"/>
<path d="M94.566 656.123C95.1878 657.796 95.1878 659.634 94.566 661.307C93.9441 659.634 93.9441 657.796 94.566 656.123Z" fill="black"/>
<path d="M83.7379 656.123C84.3597 657.796 84.3597 659.634 83.7379 661.307C83.116 659.634 83.116 657.796 83.7379 656.123Z" fill="black"/>
<path d="M91.3535 656.123C91.6813 656.949 91.8409 657.832 91.823 658.72C91.8442 659.605 91.6845 660.485 91.3535 661.307C91.0265 660.484 90.8669 659.605 90.8841 658.72C90.8708 657.832 91.0302 656.95 91.3535 656.123Z" fill="black"/>
<path d="M92.4538 656.123C93.0756 657.796 93.0756 659.634 92.4538 661.307C92.1228 660.485 91.9631 659.605 91.9843 658.72C91.9664 657.832 92.126 656.949 92.4538 656.123Z" fill="black"/>
<path d="M103.785 656.123C104.113 656.949 104.272 657.832 104.254 658.72C104.275 659.605 104.116 660.485 103.785 661.307C103.163 659.634 103.163 657.796 103.785 656.123Z" fill="black"/>
<path d="M105.429 656.123C106.051 657.796 106.051 659.634 105.429 661.307C104.807 659.634 104.807 657.796 105.429 656.123Z" fill="black"/>
<path d="M101.447 656.123C102.069 657.796 102.069 659.634 101.447 661.307C100.825 659.634 100.825 657.796 101.447 656.123Z" fill="black"/>
<path d="M86.3961 656.123C87.0179 657.796 87.0179 659.634 86.3961 661.307C85.7742 659.634 85.7742 657.796 86.3961 656.123Z" fill="black"/>
</g>
<path opacity="0.1" d="M106.754 655.535V656.908L77.3086 657.832V655.535H106.754Z" fill="black"/>
<path d="M111.299 642.646H81.8633V649.118H111.299V642.646Z" fill="#C6D4B8"/>
<g opacity="0.1">
<path d="M83.0719 643.234C83.6937 644.907 83.6937 646.745 83.0719 648.418C82.45 646.745 82.45 644.907 83.0719 643.234Z" fill="black"/>
<path d="M85.2702 643.234C85.5935 644.061 85.7529 644.943 85.7396 645.831C85.7568 646.716 85.5972 647.595 85.2702 648.418C84.9392 647.596 84.7795 646.716 84.8007 645.831C84.7828 644.943 84.9424 644.06 85.2702 643.234Z" fill="black"/>
<path d="M86.3385 643.234C86.6619 644.061 86.8213 644.943 86.808 645.831C86.8251 646.716 86.6656 647.595 86.3385 648.418C86.0075 647.596 85.8478 646.716 85.8691 645.831C85.8558 644.943 86.0152 644.061 86.3385 643.234Z" fill="black"/>
<path d="M92.2164 643.234C92.5442 644.06 92.7037 644.943 92.6859 645.831C92.7071 646.716 92.5474 647.596 92.2164 648.418C91.5945 646.745 91.5945 644.907 92.2164 643.234Z" fill="black"/>
<path d="M93.814 643.234C94.4359 644.907 94.4359 646.745 93.814 648.418C93.1922 646.745 93.1922 644.907 93.814 643.234Z" fill="black"/>
<path d="M100.385 643.234C100.713 644.06 100.872 644.943 100.854 645.831C100.875 646.716 100.716 647.596 100.385 648.418C100.058 647.595 99.8982 646.716 99.9153 645.831C99.902 644.943 100.061 644.061 100.385 643.234Z" fill="black"/>
<path d="M101.907 643.234C102.23 644.061 102.39 644.943 102.376 645.831C102.394 646.716 102.234 647.595 101.907 648.418C101.576 647.596 101.416 646.716 101.437 645.831C101.424 644.943 101.584 644.061 101.907 643.234Z" fill="black"/>
<path d="M104.697 643.234C105.025 644.06 105.184 644.943 105.166 645.831C105.188 646.716 105.028 647.596 104.697 648.418C104.075 646.745 104.075 644.907 104.697 643.234Z" fill="black"/>
<path d="M99.1187 643.234C99.7406 644.907 99.7406 646.745 99.1187 648.418C98.4969 646.745 98.4969 644.907 99.1187 643.234Z" fill="black"/>
<path d="M88.2838 643.234C88.6072 644.061 88.7666 644.943 88.7533 645.831C88.7705 646.716 88.6109 647.595 88.2838 648.418C87.9529 647.596 87.7931 646.716 87.8144 645.831C87.8011 644.943 87.9605 644.061 88.2838 643.234Z" fill="black"/>
<path d="M95.8782 643.234C96.5001 644.907 96.5001 646.745 95.8782 648.418C95.2646 646.744 95.2646 644.908 95.8782 643.234Z" fill="black"/>
<path d="M96.9976 643.234C97.6195 644.907 97.6195 646.745 96.9976 648.418C96.3758 646.745 96.3758 644.907 96.9976 643.234Z" fill="black"/>
<path d="M108.339 643.234C108.961 644.907 108.961 646.745 108.339 648.418C107.718 646.745 107.718 644.907 108.339 643.234Z" fill="black"/>
<path d="M109.962 643.234C110.584 644.907 110.584 646.745 109.962 648.418C109.341 646.745 109.341 644.907 109.962 643.234Z" fill="black"/>
<path d="M105.99 643.234C106.318 644.06 106.478 644.943 106.46 645.831C106.481 646.716 106.321 647.596 105.99 648.418C105.663 647.595 105.504 646.716 105.521 645.831C105.508 644.943 105.667 644.061 105.99 643.234Z" fill="black"/>
<path d="M90.9499 643.234C91.2732 644.061 91.4326 644.943 91.4193 645.831C91.4365 646.716 91.2769 647.595 90.9499 648.418C90.6189 647.596 90.4592 646.716 90.4804 645.831C90.4625 644.943 90.6221 644.06 90.9499 643.234Z" fill="black"/>
</g>
<path opacity="0.1" d="M111.299 642.646V644.019L81.8633 644.943V642.646H111.299Z" fill="black"/>
<path d="M110.557 636.168H81.1211V642.641H110.557V636.168Z" fill="#C6D4B8"/>
<g opacity="0.1">
<path d="M109.243 641.942C108.617 640.273 108.617 638.436 109.243 636.767C109.857 638.438 109.857 640.271 109.243 641.942Z" fill="black"/>
<path d="M107.045 641.942C106.722 641.118 106.562 640.239 106.576 639.355C106.557 638.47 106.717 637.59 107.045 636.767C107.378 637.589 107.538 638.469 107.515 639.355C107.528 640.239 107.368 641.118 107.045 641.942Z" fill="black"/>
<path d="M105.976 641.942C105.648 641.119 105.488 640.24 105.506 639.355C105.483 638.469 105.643 637.589 105.976 636.767C106.304 637.59 106.464 638.47 106.445 639.355C106.458 640.239 106.299 641.118 105.976 641.942Z" fill="black"/>
<path d="M100.097 641.942C99.4704 640.273 99.4704 638.436 100.097 636.767C100.723 638.436 100.723 640.273 100.097 641.942Z" fill="black"/>
<path d="M98.5009 641.942C97.8747 640.273 97.8747 638.436 98.5009 636.767C99.1271 638.436 99.1271 640.273 98.5009 641.942Z" fill="black"/>
<path d="M91.9287 641.942C91.601 641.119 91.4414 640.24 91.4593 639.355C91.4359 638.469 91.5957 637.589 91.9287 636.767C92.5549 638.436 92.5549 640.273 91.9287 641.942Z" fill="black"/>
<path d="M90.4073 641.942C90.0795 641.119 89.9199 640.24 89.9378 639.355C89.9144 638.469 90.0742 637.589 90.4073 636.767C90.7357 637.59 90.8954 638.47 90.8767 639.355C90.89 640.239 90.7305 641.118 90.4073 641.942Z" fill="black"/>
<path d="M87.62 641.942C86.9938 640.273 86.9938 638.436 87.62 636.767C88.2463 638.436 88.2463 640.273 87.62 641.942Z" fill="black"/>
<path d="M93.1955 641.942C92.8723 641.118 92.7128 640.239 92.7261 639.355C92.7074 638.47 92.8671 637.59 93.1955 636.767C93.5286 637.589 93.6884 638.469 93.665 639.355C93.6829 640.24 93.5233 641.119 93.1955 641.942Z" fill="black"/>
<path d="M104.032 641.942C103.709 641.118 103.55 640.239 103.563 639.355C103.539 638.469 103.699 637.589 104.032 636.767C104.361 637.59 104.52 638.47 104.502 639.355C104.515 640.239 104.356 641.118 104.032 641.942Z" fill="black"/>
<path d="M96.4072 641.942C95.7809 640.273 95.7809 638.436 96.4072 636.767C97.0334 638.436 97.0334 640.273 96.4072 641.942Z" fill="black"/>
<path d="M95.3193 641.942C94.6931 640.273 94.6931 638.436 95.3193 636.767C95.9455 638.436 95.9455 640.273 95.3193 641.942Z" fill="black"/>
<path d="M83.9775 641.942C83.3513 640.273 83.3513 638.436 83.9775 636.767C84.6037 638.436 84.6037 640.273 83.9775 641.942Z" fill="black"/>
<path d="M82.3329 641.942C81.7067 640.273 81.7067 638.436 82.3329 636.767C82.9591 638.436 82.9591 640.273 82.3329 641.942Z" fill="black"/>
<path d="M86.3251 641.942C85.6989 640.273 85.6989 638.436 86.3251 636.767C86.9513 638.436 86.9513 640.273 86.3251 641.942Z" fill="black"/>
<path d="M101.365 641.942C101.042 641.118 100.883 640.239 100.896 639.355C100.877 638.47 101.037 637.59 101.365 636.767C101.698 637.589 101.858 638.469 101.835 639.355C101.848 640.239 101.689 641.118 101.365 641.942Z" fill="black"/>
</g>
<path opacity="0.1" d="M110.557 636.168V637.541L81.1113 638.466V636.168H110.557Z" fill="black"/>
<path d="M108.762 629.698H79.3262V636.17H108.762V629.698Z" fill="#C6D4B8"/>
<g opacity="0.1">
<path d="M80.5365 630.293C81.1627 631.962 81.1627 633.799 80.5365 635.468C79.9227 633.797 79.9227 631.964 80.5365 630.293Z" fill="black"/>
<path d="M82.735 630.293C83.0583 631.118 83.2177 631.996 83.2045 632.881C83.2224 633.766 83.0628 634.645 82.735 635.468C82.404 634.646 82.2443 633.766 82.2655 632.881C82.2523 631.996 82.4117 631.118 82.735 630.293Z" fill="black"/>
<path d="M83.8029 630.293C84.1306 631.116 84.2902 631.996 84.2723 632.881C84.2936 633.766 84.1338 634.646 83.8029 635.468C83.4751 634.645 83.3155 633.766 83.3334 632.881C83.3201 631.996 83.4796 631.118 83.8029 630.293Z" fill="black"/>
<path d="M89.6806 630.293C90.3068 631.962 90.3068 633.799 89.6806 635.468C89.0544 633.799 89.0544 631.962 89.6806 630.293Z" fill="black"/>
<path d="M91.2782 630.293C91.9045 631.962 91.9045 633.799 91.2782 635.468C90.652 633.799 90.652 631.962 91.2782 630.293Z" fill="black"/>
<path d="M97.8505 630.293C98.4767 631.962 98.4767 633.799 97.8505 635.468C97.2243 633.799 97.2243 631.962 97.8505 630.293Z" fill="black"/>
<path d="M99.3712 630.293C99.699 631.116 99.8586 631.996 99.8407 632.881C99.8619 633.766 99.7022 634.646 99.3712 635.468C99.0435 634.645 98.8839 633.766 98.9017 632.881C98.8885 631.996 99.0479 631.118 99.3712 630.293Z" fill="black"/>
<path d="M102.161 630.293C102.787 631.962 102.787 633.799 102.161 635.468C101.535 633.799 101.535 631.962 102.161 630.293Z" fill="black"/>
<path d="M96.5827 630.293C96.9059 631.118 97.0654 631.996 97.0521 632.881C97.07 633.766 96.9104 634.645 96.5827 635.468C96.2517 634.646 96.092 633.766 96.1132 632.881C96.0953 631.996 96.2549 631.116 96.5827 630.293Z" fill="black"/>
<path d="M85.7482 630.293C86.0714 631.118 86.2309 631.996 86.2176 632.881C86.2389 633.766 86.0792 634.646 85.7482 635.468C85.4204 634.645 85.2608 633.766 85.2787 632.881C85.2655 631.996 85.4249 631.118 85.7482 630.293Z" fill="black"/>
<path d="M93.372 630.293C93.9982 631.962 93.9982 633.799 93.372 635.468C92.7458 633.799 92.7458 631.962 93.372 630.293Z" fill="black"/>
<path d="M94.4618 630.293C95.0881 631.962 95.0881 633.799 94.4618 635.468C93.8356 633.799 93.8356 631.962 94.4618 630.293Z" fill="black"/>
<path d="M105.802 630.293C106.428 631.962 106.428 633.799 105.802 635.468C105.175 633.799 105.175 631.962 105.802 630.293Z" fill="black"/>
<path d="M107.446 630.293C108.072 631.962 108.072 633.799 107.446 635.468C106.82 633.799 106.82 631.962 107.446 630.293Z" fill="black"/>
<path d="M103.456 630.293C104.082 631.962 104.082 633.799 103.456 635.468C102.83 633.799 102.83 631.962 103.456 630.293Z" fill="black"/>
<path d="M88.4147 630.293C88.738 631.118 88.8974 631.996 88.8842 632.881C88.9021 633.766 88.7425 634.645 88.4147 635.468C88.0837 634.646 87.924 633.766 87.9452 632.881C87.932 631.996 88.0914 631.118 88.4147 630.293Z" fill="black"/>
</g>
<path opacity="0.1" d="M108.762 629.698V631.08L79.3262 632.005V629.698H108.762Z" fill="black"/>
<path d="M108.762 649.116H79.3262V655.589H108.762V649.116Z" fill="#C6D4B8"/>
<g opacity="0.1">
<path d="M107.449 654.851C106.827 653.179 106.827 651.34 107.449 649.667C108.071 651.34 108.071 653.179 107.449 654.851Z" fill="black"/>
<path d="M105.271 654.851C104.649 653.179 104.649 651.34 105.271 649.667C105.893 651.34 105.893 653.179 105.271 654.851Z" fill="black"/>
<path d="M104.182 654.851C103.858 654.024 103.699 653.142 103.712 652.255C103.695 651.37 103.855 650.491 104.182 649.667C104.513 650.489 104.672 651.37 104.651 652.255C104.669 653.143 104.509 654.025 104.182 654.851Z" fill="black"/>
<path d="M98.3034 654.851C97.9801 654.024 97.8206 653.142 97.8339 652.255C97.8127 651.37 97.9724 650.489 98.3034 649.667C98.6304 650.491 98.79 651.37 98.7728 652.255C98.7861 653.142 98.6267 654.024 98.3034 654.851Z" fill="black"/>
<path d="M96.7144 654.851C96.0926 653.179 96.0926 651.34 96.7144 649.667C97.3281 651.342 97.3281 653.177 96.7144 654.851Z" fill="black"/>
<path d="M90.1348 654.851C89.8115 654.024 89.652 653.142 89.6653 652.255C89.6482 651.37 89.8077 650.491 90.1348 649.667C90.4658 650.489 90.6255 651.37 90.6043 652.255C90.6175 653.142 90.4581 654.024 90.1348 654.851Z" fill="black"/>
<path d="M88.6129 654.851C87.991 653.179 87.991 651.34 88.6129 649.667C88.9438 650.489 89.1036 651.37 89.0823 652.255C89.1002 653.143 88.9406 654.025 88.6129 654.851Z" fill="black"/>
<path d="M85.8249 654.851C85.5015 654.024 85.3421 653.142 85.3554 652.255C85.3342 651.37 85.4939 650.489 85.8249 649.667C86.1519 650.491 86.3115 651.37 86.2943 652.255C86.3076 653.142 86.1482 654.024 85.8249 654.851Z" fill="black"/>
<path d="M91.4019 654.851C90.7801 653.179 90.7801 651.34 91.4019 649.667C92.0238 651.34 92.0238 653.179 91.4019 654.851Z" fill="black"/>
<path d="M102.238 654.851C101.616 653.179 101.616 651.34 102.238 649.667C102.569 650.489 102.729 651.37 102.707 652.255C102.725 653.143 102.566 654.025 102.238 654.851Z" fill="black"/>
<path d="M94.6226 654.851C94.0008 653.179 94.0008 651.34 94.6226 649.667C95.2445 651.34 95.2445 653.179 94.6226 654.851Z" fill="black"/>
<path d="M93.5241 654.851C93.1963 654.025 93.0367 653.143 93.0546 652.255C93.0334 651.37 93.1931 650.489 93.5241 649.667C93.8511 650.491 94.0107 651.37 93.9935 652.255C94.0068 653.142 93.8474 654.024 93.5241 654.851Z" fill="black"/>
<path d="M82.191 654.851C81.5691 653.179 81.5691 651.34 82.191 649.667C82.8128 651.34 82.8128 653.179 82.191 654.851Z" fill="black"/>
<path d="M80.5386 654.851C79.9168 653.179 79.9168 651.34 80.5386 649.667C81.1605 651.34 81.1605 653.179 80.5386 654.851Z" fill="black"/>
<path d="M84.5299 654.851C84.2066 654.024 84.0472 653.142 84.0605 652.255C84.0392 651.37 84.199 650.489 84.5299 649.667C84.8609 650.489 85.0206 651.37 84.9994 652.255C85.0127 653.142 84.8533 654.024 84.5299 654.851Z" fill="black"/>
<path d="M99.5699 654.851C98.9481 653.179 98.9481 651.34 99.5699 649.667C100.192 651.34 100.192 653.179 99.5699 654.851Z" fill="black"/>
</g>
<path opacity="0.1" d="M108.762 649.116V650.489L79.3262 651.413V649.116H108.762Z" fill="black"/>
<path d="M76.8765 645.894C96.2563 649.359 91.1297 677.913 71.7217 674.447C52.3137 670.982 57.4591 642.429 76.8765 645.894Z" fill="#C6D4B8"/>
<path opacity="0.1" d="M76.8765 645.894C96.2563 649.359 91.1297 677.913 71.7217 674.447C52.3137 670.982 57.4591 642.429 76.8765 645.894Z" fill="black"/>
<path d="M75.0542 645.566C93.5232 648.863 88.406 677.426 69.8994 674.119C51.3928 670.813 56.557 642.269 75.0542 645.566Z" fill="#C6D4B8"/>
<path opacity="0.1" d="M60.7637 660.52C60.867 665.61 63.8434 670.532 70.3409 671.728C85.6927 674.465 89.9461 650.759 74.6131 648.022L74.3127 647.975C88.6879 650.843 84.5659 673.269 69.9278 670.654C67.4463 670.306 65.1673 669.099 63.4913 667.246C61.8154 665.393 60.8496 663.011 60.7637 660.52Z" fill="black"/>
<g opacity="0.1">
<path d="M74.0779 650.958C74.2007 650.993 74.3051 651.073 74.3698 651.183C74.4345 651.292 74.4544 651.422 74.4253 651.546L74.2281 652.331C75.4859 652.744 76.5888 653.525 77.3924 654.572C77.4612 654.639 77.5126 654.722 77.542 654.813C77.5715 654.904 77.5781 655.001 77.5614 655.095C77.522 655.226 77.4338 655.336 77.3151 655.404C77.1963 655.472 77.056 655.492 76.9229 655.46C76.8565 655.444 76.7938 655.416 76.7389 655.376C76.684 655.336 76.6379 655.285 76.6036 655.226C75.938 654.319 75.0212 653.625 73.9652 653.227L72.5944 658.71C75.4112 660.083 76.4065 661.512 75.9276 663.427C75.4018 665.51 73.2798 666.537 70.801 666.005L70.416 667.537C70.4083 667.605 70.3858 667.672 70.3502 667.731C70.3145 667.791 70.2665 667.842 70.2093 667.881C70.1522 667.921 70.0872 667.948 70.0187 667.96C69.9502 667.973 69.8799 667.97 69.8124 667.954C69.7449 667.937 69.6817 667.906 69.6272 667.863C69.5727 667.82 69.5281 667.766 69.4963 667.704C69.4646 667.642 69.4464 667.575 69.4431 667.506C69.4398 667.437 69.4514 667.367 69.4771 667.303L69.862 665.753C68.2433 665.223 66.8509 664.167 65.9091 662.754C65.8528 662.692 65.813 662.617 65.7933 662.535C65.7736 662.454 65.7747 662.368 65.7964 662.287C65.8318 662.16 65.9148 662.052 66.0284 661.984C66.142 661.916 66.2774 661.894 66.4067 661.923C66.4732 661.935 66.5363 661.961 66.5915 662C66.6467 662.039 66.6926 662.089 66.726 662.147C67.5118 663.419 68.7112 664.384 70.125 664.884L71.524 659.28C68.7071 657.897 67.7682 656.478 68.2752 654.563C68.7822 652.648 70.8761 651.499 73.2986 652.041L73.4864 651.294C73.5235 651.173 73.6053 651.072 73.7152 651.009C73.8251 650.947 73.9548 650.928 74.0779 650.958ZM71.7775 658.299L73.1108 652.947C71.2329 652.517 69.6461 653.339 69.2987 654.75C68.9513 656.16 69.3832 657.057 71.7775 658.299ZM72.3409 659.709L70.9888 665.127C72.9606 665.575 74.5286 664.753 74.9042 663.259C75.2797 661.764 74.7539 660.914 72.3409 659.709Z" fill="black"/>
</g>
</g>
</g>
<defs>
<clipPath id="clip0_724_439">
<rect width="393" height="688" fill="white"/>
</clipPath>
<clipPath id="clip1_724_439">
<rect width="394" height="791" fill="white" transform="translate(-1 -103)"/>
</clipPath>
</defs>
</svg>
