<svg width="670" height="228" viewBox="0 0 670 228" fill="none" xmlns="http://www.w3.org/2000/svg">
<g clip-path="url(#clip0_1_144)">
<path d="M453.016 100.858C451.631 66.6098 403.175 61.8462 392.293 87.2573C383.438 107.953 392.195 125.588 407.466 142.105C409.49 144.297 411.777 144.71 414.428 143.973C424.379 141.179 433.863 137.504 441.454 130.083C449.785 121.962 454.494 112.449 453.016 100.858ZM567.358 153.267C571.364 153.704 571.733 158.949 566.203 162.357C539.009 179.071 522.563 187.843 490.678 189.382C464.266 190.648 432.778 183.796 408.817 165.841C394.244 154.911 386.462 171.035 316.745 157.279C230.616 140.283 176.062 91.7334 133.152 71.7587C87.4465 50.4644 51.8368 54.3019 40.5669 53.7603C27.1608 53.1122 23.7634 58.9337 12.4755 55.8321C8.59832 54.7672 8.24784 51.3549 11.1641 48.9275C19.3946 42.055 45.2697 37.8236 60.7849 38.3791C115.565 40.3425 142.352 53.3792 192.959 84.6264C259.979 126.014 314.66 142 361.725 146.63C369.855 147.426 378.071 147.462 386.244 147.796C392.343 148.045 372.29 135.026 371.93 109.407C371.434 73.3165 398.803 54.192 423.966 58.0183C472.63 65.4047 480.777 128.175 431.588 152.209C429.532 153.217 427.469 154.22 425.41 155.217C426.478 158.298 429.561 158.831 431.926 160.06C445.734 167.248 460.543 171.055 475.961 172.823C518.702 177.715 562.422 152.71 567.358 153.267Z" fill="#F8F5F0"/>
<path d="M555.673 111.648C568.999 112.878 554.275 110.361 622.434 121.809C640.186 124.796 637.95 139.832 626.831 153.72C613.407 170.508 601.537 189.593 589.616 193.909C587.305 194.746 584.92 193.322 584.267 190.887C583.47 187.968 583.204 185.299 587.352 178.64C607.49 146.297 618.419 138.43 613.356 136.969C607.442 135.247 571.279 129.757 555.514 124.569C544.751 121.033 546.716 114.612 551.088 112.732C552.473 112.133 554.053 112.013 555.673 111.648Z" fill="#F8F5F0"/>
</g>
<defs>
<clipPath id="clip0_1_144">
<rect width="670" height="228" fill="white"/>
</clipPath>
</defs>
</svg>
