<svg width="102" height="102" viewBox="0 0 102 102" fill="none" xmlns="http://www.w3.org/2000/svg">
<path d="M1.33054 15.4513C1.5209 15.3392 1.67649 15.1761 1.77994 14.9802C1.88339 14.7843 1.93062 14.5633 1.91635 14.342C1.91635 14.2187 1.91635 14.0955 1.91635 13.9722C1.91635 13.8489 1.91635 13.7211 1.91635 13.5978C1.93062 13.3765 1.88339 13.1556 1.77994 12.9596C1.67649 12.7637 1.5209 12.6006 1.33054 12.4885L-1.90735e-06 11.717L2.49761 7.35715L3.84632 8.14693C4.03788 8.25753 4.25647 8.31188 4.47723 8.30381C4.69798 8.29574 4.91206 8.22558 5.09513 8.10128C5.30402 7.96889 5.51745 7.84106 5.73996 7.72693C5.93648 7.62775 6.10196 7.47595 6.21814 7.28827C6.33433 7.10058 6.39672 6.88429 6.39843 6.66323V5.10648H11.3937V6.64497C11.399 6.86397 11.4641 7.07729 11.5818 7.26165C11.6995 7.446 11.8654 7.59432 12.0612 7.69041C12.2837 7.80454 12.5153 7.93237 12.706 8.06476C12.8891 8.18905 13.1032 8.25922 13.3239 8.26729C13.5447 8.27536 13.7633 8.22101 13.9548 8.11041L15.2854 7.33888L17.7875 11.6987L16.4524 12.4748C16.2583 12.5865 16.0998 12.7514 15.9953 12.9503C15.8908 13.1491 15.8446 13.3737 15.8621 13.5978C15.8621 13.7211 15.8621 13.8444 15.8621 13.9676C15.8621 14.0909 15.8621 14.2142 15.8621 14.3374C15.8474 14.56 15.8949 14.7822 15.9992 14.979C16.1036 15.1759 16.2605 15.3395 16.4524 15.4513L17.7875 16.2229L15.2854 20.5827L13.9594 19.8112C13.7679 19.7009 13.5497 19.6464 13.3292 19.6536C13.1087 19.6609 12.8945 19.7297 12.7106 19.8522C12.5015 19.9909 12.2847 20.1175 12.0612 20.2312C11.8652 20.3306 11.7004 20.4825 11.585 20.6703C11.4695 20.858 11.4081 21.0742 11.4073 21.2949V22.8334H6.41205V21.2903C6.41034 21.0692 6.34795 20.8529 6.23177 20.6653C6.11558 20.4776 5.95011 20.3258 5.75358 20.2266C5.53063 20.1119 5.31387 19.9854 5.10421 19.8477C4.9212 19.725 4.70774 19.6561 4.4879 19.6489C4.26805 19.6416 4.05056 19.6962 3.85995 19.8066L2.5294 20.5781L0.0317898 16.2183L1.33054 15.4513ZM8.88696 18.0946C9.6953 18.0946 10.4855 17.8536 11.1576 17.4022C11.8297 16.9507 12.3535 16.309 12.6629 15.5582C12.9722 14.8075 13.0531 13.9813 12.8954 13.1843C12.7377 12.3873 12.3485 11.6552 11.7769 11.0806C11.2053 10.506 10.4771 10.1146 9.68429 9.95611C8.89149 9.79758 8.06974 9.87894 7.32293 10.1899C6.57613 10.5009 5.93782 11.0275 5.48874 11.7032C5.03965 12.3789 4.79996 13.1733 4.79996 13.9859C4.80055 14.5262 4.90715 15.0611 5.11366 15.56C5.32017 16.0589 5.62252 16.5119 6.00342 16.8931C6.38432 17.2743 6.83628 17.5763 7.33341 17.7817C7.83055 17.9871 8.36311 18.0919 8.90059 18.0901L8.88696 18.0946Z" fill="#EBEDDD"/>
<path d="M41.424 20.8854C38.9128 17.9226 34.6123 17.2104 30.4527 18.055C26.293 18.8996 21.3114 21.0087 20.8573 28.0027C20.4849 33.6818 22.2196 39.2195 22.2196 45.5561C22.2196 51.8926 15.0855 67.3278 26.5019 74.8604C36.7603 81.6261 57.545 75.4128 58.1853 61.4842C58.6893 50.4455 45.6654 40.2375 44.294 35.8686C42.9226 31.4997 44.1759 24.1268 41.424 20.8854Z" fill="#3C4E3E"/>
<path d="M43.3006 27.1156C43.3778 30.2747 43.8319 33.4704 45.1171 36.4515C45.4505 37.2065 45.886 37.9117 46.4113 38.547C46.9153 39.1861 47.4512 39.7887 47.987 40.3731C49.0678 41.5555 50.135 42.7287 51.1658 43.9477C53.2132 46.3358 54.905 49.01 56.1883 51.8866C57.4188 54.7768 58.0952 57.8746 58.1819 61.0171C58.3097 59.4311 58.2625 57.8357 58.0411 56.2601C57.7956 54.6765 57.3893 53.1222 56.8286 51.6218C55.6457 48.6156 53.9695 45.8302 51.8697 43.3816C50.8389 42.1444 49.7445 40.962 48.6546 39.7933C47.5647 38.6246 46.4612 37.5106 45.7846 36.1411C45.0907 34.7408 44.5618 33.2638 44.2088 31.7402C43.8104 30.2192 43.5071 28.6746 43.3006 27.1156Z" fill="#3C4E3E"/>
<path d="M21.1434 32.7708C21.2206 35.9939 21.4249 39.2124 21.3386 42.4126C21.3014 44.0064 21.1679 45.5966 20.939 47.1742C20.7029 48.7263 20.2397 50.2785 19.8537 51.849C19.4677 53.4194 19.1226 55.0127 18.8683 56.6197C18.6225 58.2341 18.5191 59.8672 18.5595 61.4999C18.6334 63.1405 18.9392 64.7623 19.4677 66.3163C20.0772 67.8437 20.9869 69.2318 22.1424 70.3976C21.13 69.1465 20.3599 67.7157 19.8718 66.1793C19.4485 64.6515 19.2376 63.0722 19.2452 61.4862C19.3739 58.2938 19.8707 55.1271 20.7256 52.0498C21.0889 50.484 21.5521 48.9318 21.7746 47.2837C21.983 45.669 22.065 44.0403 22.0198 42.4126C21.9238 39.1837 21.6311 35.9637 21.1434 32.7708Z" fill="#3C4E3E"/>
<path d="M37.6605 59.8764C48.1051 71.4356 56.6288 76.9869 65.0298 76.9869C73.0176 76.9869 90.0832 57.4887 91.3365 54.9185C92.4173 52.6998 78.408 40.5608 76.2555 42.0719C72.6226 44.601 60.9701 59.2418 59.7349 59.3103C58.4997 59.3788 53.9495 56.3566 42.9918 51.1978C36.3345 48.0706 30.3948 51.8644 37.6605 59.8764Z" fill="#EDDBC1"/>
<path d="M89.7095 56.8454C91.2444 55.1745 97.6883 46.8338 98.9643 44.1129C100.24 41.392 103.333 33.2933 101.357 32.1017C99.3821 30.9102 98.2922 33.2065 98.2922 33.2065C98.2922 33.2065 99.0597 29.5817 96.9617 28.5637C94.8637 27.5456 93.2834 31.175 93.2834 31.175C93.2834 31.175 93.8011 27.395 91.6395 26.5276C89.4779 25.6602 88.488 29.5863 88.488 29.5863C88.488 29.5863 89.1237 26.1486 87.0439 26.1897C84.5417 26.2399 84.0831 32.7089 82.4528 35.6078C82.085 36.2652 74.0109 48.3906 74.0109 48.3906L89.7095 56.8454Z" fill="#EDDBC1"/>
<path d="M88.5739 29.2452C88.2243 33.9976 87.2525 36.02 84.4869 39.7955C84.4324 39.8686 84.5278 39.9644 84.5914 39.8959C87.6476 36.4446 89.2279 34.0889 88.8146 29.2498C88.7828 29.0124 88.5921 29.017 88.5739 29.2452Z" fill="#3C4E3E"/>
<path d="M93.2957 30.7934C92.5055 35.7011 91.4792 37.9015 88.8499 42.0696C88.8136 42.129 88.9089 42.1974 88.9498 42.1427C91.8607 38.2668 93.3865 35.8791 93.5363 30.871C93.5454 30.6428 93.332 30.5652 93.2957 30.7934Z" fill="#3C4E3E"/>
<path d="M98.1472 33.4126C97.0392 38.1103 96.0083 40.571 92.9476 44.2871C92.875 44.3784 92.9976 44.4925 93.0748 44.4103C96.5624 40.9225 97.8702 37.8592 98.2834 33.4537C98.3107 33.1616 98.2153 33.1159 98.1472 33.4126Z" fill="#3C4E3E"/>
<path d="M70.4111 49.5447C70.4111 49.5447 70.5155 43.5688 71.1377 40.9529C71.7598 38.337 77.6224 29.453 79.625 30.6217C82.1817 32.1283 79.793 37.9262 78.2627 40.6197C78.2627 40.6197 84.1661 44.1075 83.3623 48.6454C82.5586 53.1832 70.4111 49.5447 70.4111 49.5447Z" fill="#EDDBC1"/>
<path d="M80.191 31.2673C81.5534 34.3351 79.2828 37.7362 77.9886 40.4525C77.9678 40.4916 77.9566 40.5351 77.9558 40.5795C77.9551 40.6238 77.9649 40.6677 77.9845 40.7074C78.004 40.7471 78.0327 40.7816 78.0682 40.808C78.1037 40.8343 78.1449 40.8517 78.1884 40.8589C80.577 42.4886 83.4697 45.4789 83.506 48.5376C83.506 48.5558 83.5132 48.5732 83.526 48.586C83.5388 48.5989 83.5561 48.6061 83.5742 48.6061C83.5922 48.6061 83.6096 48.5989 83.6223 48.586C83.6351 48.5732 83.6423 48.5558 83.6423 48.5376C84.0464 45.2506 81.4444 42.0732 78.7197 40.4617C80.0821 37.6906 82.2028 34.1845 80.2183 31.2399L80.191 31.2673Z" fill="#3C4E3E"/>
<path d="M55.6691 55.9548L47.2771 71.6958C47.2771 71.6958 35.897 60.5886 34.0806 55.9548C32.2642 51.3211 34.2214 47.9565 42.3182 50.4354C46.9437 51.8136 51.4172 53.663 55.6691 55.9548Z" fill="#B3BFA6"/>
<path d="M45.3398 68.4065C45.753 67.5528 46.1163 66.6717 46.5477 65.8226C46.9791 64.9734 47.4105 64.1334 47.8601 63.3025C48.7683 61.6225 49.6766 59.9379 50.6211 58.2808C51.157 57.3677 51.7201 56.4273 52.3059 55.5416C52.3286 55.5005 52.4058 55.5416 52.3831 55.5736C50.8436 59.0386 48.9772 62.3575 47.1154 65.6536C46.575 66.6078 45.9619 67.5163 45.3988 68.4567C45.3807 68.4795 45.3171 68.4384 45.3398 68.4065Z" fill="#3C4E3E"/>
<path d="M34.0823 55.953C35.8987 60.5867 47.2787 71.694 47.2787 71.694L52.9324 61.1071L34.2821 50.7394C33.2104 51.8625 33.224 53.7662 34.0823 55.953Z" fill="#3C4E3E"/>
<path d="M53.7593 82.4516C53.7593 82.4516 58.373 93.5543 56.7428 102H5.8732C7.52617 79.0414 18.9107 59.3103 25.6361 52.9236C31.0582 47.7739 36.7664 48.235 40.7399 50.8692C41.6753 51.4946 51.9973 65.8341 53.1144 68.103C57.5465 77.0555 53.7593 82.4516 53.7593 82.4516Z" fill="#B3BFA6"/>
<path d="M40.3831 50.1934C40.3831 50.1934 43.5619 59.3832 41.7182 59.8626C37.1317 61.0496 30.9785 53.5215 30.6107 52.7545C30.5198 52.5582 30.1111 47.4132 29.8069 43.4094C29.6116 40.8346 29.4617 38.73 29.4617 38.73L40.7782 42.6333L40.4149 49.6867L40.3831 50.1934Z" fill="#EDDBC1"/>
<path d="M40.7975 42.6333L40.4342 49.6867C38.1318 49.3625 33.0685 48.1071 29.8262 43.4094C29.6309 40.8346 29.481 38.73 29.481 38.73L30.8978 39.1866L40.7975 42.6333Z" fill="#3C4E3E"/>
<path d="M49.2273 32.7589C49.3635 36.3426 49.0093 39.2415 48.142 41.168C47.3988 42.8136 46.2164 44.2198 44.7261 45.2304C43.2359 46.241 41.4961 46.8165 39.7 46.8929C38.3377 46.9431 34.4142 46.5824 31.576 44.4094C29.369 42.7202 28.0385 39.6752 27.2846 34.3202C25.559 22.0762 31.1309 17.9583 36.6212 17.4653C42.1114 16.9722 48.7732 20.4053 49.2273 32.7589Z" fill="#EDDBC1"/>
<path d="M46.0782 30.0311C45.7921 29.99 45.5288 29.9078 45.2518 29.8439C44.9505 29.8167 44.6657 29.6935 44.4389 29.4924C44.3821 29.4142 44.3514 29.3199 44.3514 29.223C44.3514 29.1262 44.3821 29.0319 44.4389 28.9537C44.5802 28.8216 44.7539 28.7296 44.9422 28.6871C45.1305 28.6445 45.3267 28.6531 45.5106 28.7117C45.9022 28.7743 46.2566 28.981 46.5051 29.2915C46.5637 29.3634 46.5991 29.4516 46.6066 29.5443C46.614 29.6369 46.5931 29.7297 46.5467 29.8101C46.5003 29.8905 46.4306 29.9547 46.3468 29.9942C46.2631 30.0337 46.1694 30.0466 46.0782 30.0311Z" fill="#3C4E3E"/>
<path d="M38.0547 30.3358C38.3333 30.2864 38.6092 30.2224 38.8811 30.144C39.1824 30.1188 39.4668 29.9935 39.6895 29.7879C39.7463 29.7097 39.7769 29.6154 39.7769 29.5186C39.7769 29.4217 39.7463 29.3274 39.6895 29.2492C39.547 29.1175 39.3721 29.0264 39.1829 28.9854C38.9936 28.9445 38.797 28.9552 38.6132 29.0164C38.2185 29.0798 37.862 29.29 37.6142 29.6053C37.5572 29.6783 37.5238 29.767 37.5183 29.8596C37.5128 29.9522 37.5354 30.0443 37.5833 30.1236C37.6311 30.2029 37.7018 30.2657 37.786 30.3036C37.8702 30.3415 37.9639 30.3527 38.0547 30.3358Z" fill="#3C4E3E"/>
<path d="M40.0627 33.4218C40.0627 33.3898 39.9991 33.4629 39.9991 33.4994C40.0673 34.3348 39.9991 35.3255 39.2589 35.6268C39.2589 35.6268 39.2589 35.677 39.2589 35.6724C40.1853 35.499 40.258 34.2024 40.0627 33.4218Z" fill="#3C4E3E"/>
<path d="M39.272 32.5789C37.9097 32.5424 37.946 35.2587 39.1994 35.2952C40.4527 35.3317 40.3846 32.6108 39.272 32.5789Z" fill="#3C4E3E"/>
<path d="M38.7405 32.7306C38.5089 32.8858 38.2864 33.1597 37.9958 33.1871C37.7051 33.2145 37.4145 32.9406 37.1965 32.6667C37.1738 32.6393 37.1511 32.6667 37.1511 32.6986C37.1511 33.2191 37.3509 33.7532 37.9095 33.8262C38.4681 33.8993 38.7723 33.4245 38.8995 32.9132C38.9222 32.8036 38.8359 32.6667 38.7405 32.7306Z" fill="#3C4E3E"/>
<path d="M44.5346 33.0653C44.5346 33.0333 44.5982 33.1064 44.5982 33.1383C44.5982 33.9829 44.6845 34.9644 45.4429 35.2292C45.4656 35.2292 45.4656 35.2794 45.4429 35.2749C44.5119 35.147 44.3757 33.8596 44.5346 33.0653Z" fill="#3C4E3E"/>
<path d="M45.2799 32.1831C46.6423 32.0781 46.7376 34.7944 45.4888 34.8902C44.24 34.9861 44.1537 32.2744 45.2799 32.1831Z" fill="#3C4E3E"/>
<path d="M45.8326 32.3422C46.0506 32.4791 46.2867 32.7302 46.5274 32.7393C46.7681 32.7485 47.0314 32.4426 47.2085 32.155C47.2085 32.123 47.2494 32.155 47.254 32.1824C47.2857 32.7028 47.1404 33.2461 46.6454 33.3693C46.1505 33.4926 45.8462 33.0452 45.7054 32.5339C45.6964 32.4335 45.7645 32.2874 45.8326 32.3422Z" fill="#3C4E3E"/>
<path d="M40.1436 39.9595C40.3389 40.165 40.5296 40.4434 40.8294 40.48C41.1409 40.4823 41.4497 40.4217 41.7376 40.3019C41.743 40.2971 41.7501 40.2946 41.7573 40.295C41.7646 40.2955 41.7714 40.2988 41.7762 40.3042C41.781 40.3097 41.7835 40.3168 41.783 40.3241C41.7826 40.3314 41.7793 40.3382 41.7739 40.343C41.6479 40.5041 41.481 40.6282 41.2908 40.7021C41.1006 40.776 40.8942 40.797 40.6931 40.763C40.5254 40.7103 40.3764 40.6098 40.2644 40.4736C40.1524 40.3375 40.082 40.1716 40.0619 39.9961C40.0593 39.9856 40.0605 39.9746 40.0652 39.965C40.0698 39.9553 40.0778 39.9477 40.0875 39.9433C40.0973 39.9389 40.1083 39.9382 40.1185 39.9411C40.1288 39.9441 40.1377 39.9506 40.1436 39.9595Z" fill="#3C4E3E"/>
<path d="M43.5625 36.8406C43.5625 36.8406 43.7623 38.0961 43.7713 38.6896C43.7713 38.7443 43.6306 38.7717 43.4308 38.79C43.4308 38.79 43.4308 38.79 43.4081 38.79C42.9068 38.8896 42.388 38.8496 41.9077 38.6742C41.4275 38.4987 41.0041 38.1946 40.6834 37.7948C40.6425 37.74 40.7152 37.6761 40.7697 37.7126C41.5328 38.2123 42.4354 38.4523 43.3445 38.3974C43.3808 38.2285 42.9313 36.2608 43.0266 36.2517C43.4914 36.2807 43.9498 36.3744 44.3889 36.5302C44.0484 33.9052 43.2945 31.3578 42.9994 28.7419C42.9994 28.6506 43.122 28.6186 43.1492 28.7008C44.1301 31.3121 44.5842 34.3252 45.0065 37.0232C45.0429 37.3656 43.8168 36.9411 43.5625 36.8406Z" fill="#3C4E3E"/>
<path d="M43.0535 38.4815C42.7629 38.929 42.3625 39.2938 41.891 39.5407C41.6311 39.6652 41.3395 39.7066 41.0554 39.6594C40.4333 39.5452 40.3743 38.9837 40.4469 38.4952C40.4913 38.2352 40.5644 37.981 40.6649 37.7374C41.3617 38.2354 42.1987 38.4961 43.0535 38.4815Z" fill="#3C4E3E"/>
<path d="M41.8932 39.5357C41.6333 39.6603 41.3417 39.7017 41.0576 39.6544C40.4355 39.5403 40.3765 38.9788 40.4491 38.4903C40.7717 38.4758 41.0898 38.5711 41.3518 38.7608C41.6139 38.9505 41.8046 39.2236 41.8932 39.5357Z" fill="#FF98B9"/>
<path d="M27.5069 33.2228C28.8466 33.2639 32.6475 29.9039 33.3377 23.4486C33.3377 23.4486 32.316 29.2008 31.8074 30.0089C31.2988 30.8169 33.9326 28.1143 34.5638 22.919C34.5638 22.919 37.2431 25.2656 39.6317 26.1786C42.0203 27.0917 43.5144 27.2104 43.7187 27.046C43.9231 26.8817 40.4128 25.4117 39.5409 24.1973C39.5409 24.1973 45.7758 27.8495 48.7548 28.3426C49.0999 28.3973 48.5187 23.0058 44.1547 19.5362C39.7907 16.0666 33.7918 16.934 31.6394 18.6688C31.6394 18.6688 29.2871 18.7921 26.4534 22.0106C23.6198 25.2291 26.0674 33.1772 27.5069 33.2228Z" fill="#3C4E3E"/>
<path d="M29.272 35.1948C29.272 35.1948 26.7789 31.2093 24.9942 32.0859C23.2096 32.9624 24.9488 38.6461 26.9515 39.509C27.2007 39.6384 27.4735 39.7158 27.7533 39.7363C28.0331 39.7568 28.3141 39.7201 28.5794 39.6284C28.8446 39.5366 29.0887 39.3918 29.2967 39.2025C29.5047 39.0133 29.6724 38.7837 29.7897 38.5274L29.272 35.1948Z" fill="#EDDBC1"/>
<path d="M25.5352 33.711C25.4989 33.711 25.4943 33.7521 25.5352 33.7658C26.9384 34.4186 27.6241 35.7927 28.0873 37.2034C27.6831 36.6464 27.12 36.3269 26.3844 36.8016C26.3481 36.8245 26.3844 36.8884 26.4207 36.8793C26.6735 36.8171 26.9391 36.8336 27.1823 36.9266C27.4256 37.0195 27.6351 37.1845 27.783 37.3997C28.0279 37.7687 28.2348 38.1618 28.4006 38.573C28.4597 38.7054 28.6958 38.6506 28.6504 38.4999C28.6524 38.4878 28.6524 38.4755 28.6504 38.4634C28.7775 36.619 27.4833 33.9803 25.5352 33.711Z" fill="#3C4E3E"/>
<path d="M21.6972 55.4315C16.6657 61.2704 2.56095 82.4076 5.83055 88.1187C8.96846 93.597 16.0844 95.1401 20.1805 87.7809C23.1277 82.5171 28.082 66.8127 29.3127 59.28C30.3117 53.1808 26.3473 50.0308 21.6972 55.4315Z" fill="#EDDBC1"/>
<path d="M26.3991 74.1465L9.72412 67.988C9.72412 67.988 19.0833 55.1094 23.3929 52.6579C27.7024 50.2063 31.2899 51.6855 29.9729 60.0901C29.2641 64.8863 28.0665 69.5966 26.3991 74.1465Z" fill="#B3BFA6"/>
<path d="M12.6831 65.5924C13.5914 65.8891 14.4996 66.1265 15.4078 66.4369C16.316 66.7474 17.1879 67.0624 18.0689 67.3956C19.8535 68.0622 21.6337 68.7287 23.4002 69.4454C24.3901 69.8472 25.3801 70.2809 26.3473 70.7374C26.3928 70.7374 26.3746 70.8333 26.3473 70.8196C22.7144 69.7696 19.1905 68.3726 15.6848 66.9802C14.6676 66.5739 13.6913 66.0671 12.6877 65.6608C12.6196 65.6426 12.6513 65.5787 12.6831 65.5924Z" fill="#3C4E3E"/>
<path d="M25.4591 73.7513C25.7892 73.8247 26.1128 73.9254 26.4263 74.0526C26.8804 73.062 27.9567 68.7067 28.2064 67.5882C28.706 65.3604 29.1147 63.1097 29.6369 60.8819C29.6369 60.818 29.7595 60.8362 29.7504 60.8819C29.596 62.1191 29.4053 63.3517 29.1919 64.5752C29.4189 63.9908 29.646 63.4019 29.8231 62.8039C29.8213 62.7997 29.8205 62.7951 29.8209 62.7906C29.8213 62.7861 29.8228 62.7817 29.8253 62.7779C29.8277 62.7741 29.8311 62.771 29.8351 62.7688C29.8391 62.7667 29.8435 62.7655 29.8481 62.7655C29.8526 62.7655 29.857 62.7667 29.861 62.7688C29.865 62.771 29.8684 62.7741 29.8708 62.7779C29.8733 62.7817 29.8748 62.7861 29.8752 62.7906C29.8756 62.7951 29.8748 62.7997 29.873 62.8039C29.6666 63.5467 29.4133 64.2756 29.1147 64.986C28.9376 67.2687 26.8713 74.5229 26.8123 74.4955C26.3452 74.2825 25.8903 74.0432 25.45 73.7787C25.4 73.7924 25.4 73.7468 25.4591 73.7513Z" fill="#3C4E3E"/>
<path d="M33.7061 30.7788L38.4516 51.1444C38.6559 51.7425 38.3517 52.2218 37.7704 52.2127L28.7109 54.0662C28.3935 54.037 28.0908 53.9176 27.8383 53.722C27.5859 53.5264 27.3939 53.2626 27.285 52.9614L22.5395 32.5958C22.3352 31.9978 22.6394 31.5184 23.2207 31.5321L32.2802 29.674C32.5977 29.7032 32.9003 29.8226 33.1528 30.0183C33.4053 30.2139 33.5972 30.4777 33.7061 30.7788Z" fill="#A6A6A6"/>
<path d="M32.9264 30.8907L37.6582 51.2563C37.8626 51.8543 37.5583 52.3337 36.977 52.3245L27.9175 54.178C27.6006 54.1492 27.2983 54.0305 27.0459 53.8357C26.7935 53.641 26.6013 53.3781 26.4916 53.0778L21.7643 32.7122C21.56 32.1096 21.8642 31.6348 22.4455 31.6439L31.5005 29.7859C31.8174 29.8167 32.1193 29.9367 32.3715 30.1321C32.6237 30.3275 32.816 30.5904 32.9264 30.8907Z" fill="#DBDDC8"/>
<path d="M30.0583 31.7705C30.0539 31.9531 30.104 32.1329 30.2023 32.2866C30.3005 32.4403 30.4424 32.5608 30.6095 32.6326C30.7766 32.7044 30.9613 32.7241 31.1397 32.6892C31.3181 32.6543 31.482 32.5664 31.6102 32.4369C31.7383 32.3074 31.8249 32.1422 31.8587 31.9627C31.8925 31.7832 31.8719 31.5976 31.7997 31.43C31.7274 31.2623 31.6068 31.1203 31.4534 31.0223C31.3001 30.9243 31.121 30.8749 30.9393 30.8803C30.7053 30.8815 30.4812 30.9758 30.3161 31.1426C30.151 31.3095 30.0583 31.5352 30.0583 31.7705Z" fill="#3C4E3E"/>
<path d="M17.7604 89.6254C14.8132 95.1037 7.01156 91.981 5.83087 88.1188C3.06079 79.0568 4.77734 63.9915 6.4303 55.5777C6.96161 52.8705 25.2532 55.5777 25.1442 58.504C25.0171 62.0421 23.5367 78.8514 17.7604 89.6254Z" fill="#EDDBC1"/>
<path d="M6.63362 59.5982C5.71217 55.6061 5.65642 51.4613 6.47015 47.4455C7.43286 43.0674 10.5799 33.7817 23.2314 29.641C26.2331 28.6549 31.2056 29.3899 26.8643 32.7865C23.7945 35.2015 21.1243 35.7996 19.5985 37.5343C19.5985 37.5343 25.8108 39.2235 26.6736 42.2822C27.429 44.9595 27.995 47.6872 28.3674 50.4449C27.8809 50.6282 27.3834 50.7807 26.8779 50.9014C27.1447 53.5645 26.5284 56.2417 25.125 58.5163L6.63362 59.5982Z" fill="#EDDBC1"/>
<path d="M8.05498 43.414C9.935 42.0444 13.9584 39.1317 18.0863 37.9356C22.6637 36.5661 31.8322 35.2422 32.7859 38.6433C33.4852 41.1405 30.0294 41.9668 30.0294 41.9668C30.0294 41.9668 33.9348 42.2133 34.0756 44.6055C34.2027 46.7877 31.4917 47.267 31.4917 47.267C31.4917 47.267 33.8349 47.824 33.5579 49.9514C33.2218 52.5034 28.3583 50.9147 25.7926 53.2064C25.2158 53.7086 8.05498 43.414 8.05498 43.414Z" fill="#EDDBC1"/>
<path d="M18.6961 43.0178C20.676 41.9952 25.7712 40.8402 29.9581 41.8856C30.0534 41.8856 30.0852 41.9906 29.9944 41.9906C26.2022 41.8877 22.4116 42.2464 18.7052 43.0589C18.6825 43.068 18.6734 43.0269 18.6961 43.0178Z" fill="#3C4E3E"/>
<path d="M20.1763 47.6178C21.9928 46.9147 27.2832 45.956 31.4882 47.1613C31.5836 47.1887 31.6109 47.2754 31.52 47.2708C27.7332 46.9667 23.9243 47.0985 20.1672 47.6634C20.1612 47.6622 20.1559 47.6587 20.1525 47.6535C20.1491 47.6484 20.1479 47.6421 20.1491 47.6361C20.1503 47.63 20.1538 47.6247 20.1589 47.6213C20.1641 47.6178 20.1703 47.6166 20.1763 47.6178Z" fill="#3C4E3E"/>
<path d="M19.431 85.8116C19.5673 85.355 19.699 84.8985 19.8443 84.4831C20.144 83.57 20.4028 82.657 20.6662 81.7439C21.2021 79.9178 21.7152 78.0643 22.1648 76.2017C23.0621 72.4891 23.7429 68.727 24.2038 64.9346C24.3309 63.8846 24.4399 62.8346 24.5534 61.7846C24.667 60.7346 24.7033 59.6435 24.9031 58.5889C24.9031 58.5342 25.4344 57.7307 25.6433 57.3335C25.8601 56.9203 26.0497 56.4933 26.2109 56.0552C26.5504 55.1613 26.7806 54.2293 26.8966 53.2796C26.899 53.2736 26.9031 53.2685 26.9083 53.265C26.9136 53.2614 26.9198 53.2595 26.9262 53.2595C26.9325 53.2595 26.9387 53.2614 26.944 53.265C26.9493 53.2685 26.9533 53.2736 26.9557 53.2796C27.0146 54.3603 26.8793 55.4428 26.5561 56.4752C26.2762 57.3388 25.7933 58.1219 25.1483 58.7579C25.1483 58.8948 25.1165 60.584 25.062 61.529C25.0075 62.474 24.9213 63.419 24.8168 64.3594C24.6034 66.2494 24.34 68.1349 24.0085 70.0112C23.3605 73.8067 22.4594 77.5541 21.3111 81.228C21.3111 81.2874 21.2702 81.3467 21.252 81.4061C21.252 81.543 21.252 81.68 21.252 81.817C21.2453 82.1546 21.218 82.4916 21.1703 82.8259C21.0772 83.4911 20.9143 84.1445 20.6844 84.7752C20.6864 84.7808 20.6871 84.7867 20.6864 84.7925C20.6856 84.7984 20.6835 84.804 20.6802 84.8088C20.6768 84.8136 20.6724 84.8176 20.6672 84.8203C20.662 84.823 20.6562 84.8245 20.6503 84.8245C20.6445 84.8245 20.6387 84.823 20.6335 84.8203C20.6283 84.8176 20.6239 84.8136 20.6205 84.8088C20.6172 84.804 20.615 84.7984 20.6143 84.7925C20.6136 84.7867 20.6142 84.7808 20.6163 84.7752C20.7774 84.1153 20.8867 83.4437 20.9432 82.7665L21.025 82.0726C20.7752 82.8122 20.5118 83.5518 20.253 84.2868C20.0714 84.7981 19.8852 85.2957 19.6763 85.7933C19.4674 86.2909 19.3039 86.7748 19.0587 87.2359C19.0587 87.2724 18.986 87.2359 18.9951 87.2085C19.1086 86.72 19.2903 86.2726 19.431 85.8116Z" fill="#3C4E3E"/>
<path d="M31.3741 97.9401H45.4198C46.7816 97.9389 48.0872 97.3945 49.0502 96.4265C50.0131 95.4585 50.5546 94.1458 50.5558 92.7768C50.5558 91.4074 50.0147 90.0941 49.0515 89.1258C48.0883 88.1575 46.7819 87.6135 45.4198 87.6135H31.3741C30.012 87.6135 28.7056 88.1575 27.7424 89.1258C26.7792 90.0941 26.2381 91.4074 26.2381 92.7768C26.2381 93.4549 26.371 94.1263 26.6291 94.7527C26.8872 95.3792 27.2655 95.9484 27.7424 96.4278C28.2193 96.9073 28.7855 97.2876 29.4087 97.5471C30.0318 97.8066 30.6997 97.9401 31.3741 97.9401Z" fill="#687969"/>
<path d="M42.3508 92.6834C42.3409 92.5201 42.2876 92.3624 42.1964 92.2269L42.0692 92.0397L41.8013 91.7704L41.488 91.5421C41.0564 91.2661 40.575 91.0783 40.0711 90.9897C38.9094 90.7569 37.7135 90.7569 36.5518 90.9897C36.0542 91.0753 35.5787 91.26 35.1531 91.533C35.0441 91.606 34.9351 91.6882 34.8307 91.7658L34.5673 92.0306C34.4985 92.1307 34.4348 92.2343 34.3766 92.341C34.3321 92.4508 34.2957 92.5637 34.2676 92.6789H36.5699C36.5878 92.6812 36.606 92.6776 36.6216 92.6685C36.6372 92.6594 36.6494 92.6454 36.6562 92.6286C36.7192 92.5059 36.8132 92.402 36.9288 92.3275C37.0444 92.253 37.1775 92.2104 37.3147 92.2041C37.9846 92.1607 38.6565 92.1607 39.3264 92.2041C39.4626 92.2098 39.5948 92.2517 39.7097 92.3255C39.8245 92.3992 39.9179 92.5023 39.9803 92.6241C39.9803 92.656 40.0121 92.6789 40.0575 92.6789H42.3508V92.6834Z" fill="#F8F5F0"/>
<path d="M42.3506 93.9754V93.1308H40.0801C40.0801 93.181 40.0801 93.2358 40.0801 93.2951V93.9754C40.0739 94.0152 40.0771 94.0559 40.0895 94.0942C40.1019 94.1325 40.1231 94.1673 40.1515 94.1958C40.1798 94.2242 40.2144 94.2456 40.2525 94.2581C40.2906 94.2705 40.3311 94.2738 40.3707 94.2675H42.0645C42.104 94.274 42.1444 94.2709 42.1823 94.2584C42.2203 94.246 42.2548 94.2245 42.2828 94.1959C42.3108 94.1673 42.3316 94.1323 42.3434 94.0939C42.3552 94.0556 42.3577 94.0149 42.3506 93.9754Z" fill="#F8F5F0"/>
<path d="M36.5516 94.0028C36.5516 93.7152 36.5516 93.4275 36.5516 93.1445H34.3038V93.1947C34.3038 93.4595 34.3038 93.7289 34.3038 93.9936C34.2994 94.0319 34.3037 94.0706 34.3163 94.1069C34.3289 94.1433 34.3495 94.1763 34.3766 94.2035C34.4037 94.2307 34.4365 94.2514 34.4726 94.2641C34.5088 94.2767 34.5473 94.2811 34.5853 94.2767H36.2973C36.3327 94.2782 36.368 94.272 36.4008 94.2586C36.4336 94.2451 36.4631 94.2246 36.4872 94.1986C36.5114 94.1726 36.5296 94.1416 36.5408 94.1078C36.5519 94.074 36.5556 94.0382 36.5516 94.0028Z" fill="#F8F5F0"/>
<path d="M85.9812 15.3962C85.7141 17.9423 84.7488 20.3638 83.1931 22.3908C81.6373 24.4178 79.5522 25.9706 77.1701 26.8762C74.788 27.7817 72.2025 28.0044 69.7019 27.5195C67.2013 27.0345 64.8838 25.8609 63.0077 24.1295L56.1325 25.143L59.5701 19.1671C58.7818 17.2211 58.445 15.1201 58.5855 13.0237C58.726 10.9273 59.3401 8.89064 60.3809 7.06858C61.4218 5.24652 62.8622 3.68697 64.5925 2.50847C66.3229 1.32996 68.2977 0.563508 70.3669 0.26736C72.4361 -0.028788 74.5452 0.153161 76.5339 0.79938C78.5227 1.4456 80.3387 2.53908 81.8441 3.99672C83.3494 5.45436 84.5044 7.2378 85.2213 9.2115C85.9381 11.1852 86.1981 13.2972 85.9812 15.387V15.3962Z" fill="#F8F5F0"/>
<path d="M81.8664 3.97342C80.3689 2.48869 78.552 1.36987 76.556 0.703368C74.5599 0.0368627 72.4382 -0.159491 70.3547 0.129474C68.2565 0.407661 66.2495 1.16506 64.4876 2.34362C61.8184 4.13483 59.8471 6.79858 58.9078 9.88361C57.9685 12.9686 58.1189 16.2852 59.3334 19.2716V19.0342L55.9185 25.0375L55.6687 25.494L56.1637 25.4164L63.039 24.3573L62.8755 24.3071C64.7899 26.0473 67.1486 27.2171 69.6872 27.6853C70.3153 27.8011 70.9515 27.8667 71.5899 27.8817C72.2257 27.9151 72.8631 27.9029 73.4972 27.8451C76.044 27.601 78.4739 26.6529 80.5177 25.106C81.0257 24.724 81.5109 24.3125 81.9709 23.8734C82.4134 23.4174 82.8288 22.9357 83.2151 22.4307C85.2736 19.7269 86.2742 16.358 86.0273 12.9622C85.7804 9.56638 84.3032 6.37954 81.8755 4.00537L81.8664 3.97342ZM83.1652 22.3668C82.7783 22.8669 82.3613 23.3425 81.9164 23.7912C81.4574 24.2272 80.9721 24.6343 80.4632 25.0101C79.452 25.7726 78.3332 26.3789 77.1437 26.8088C75.964 27.2493 74.7291 27.5228 73.4744 27.6214C72.847 27.6648 72.2173 27.6648 71.5899 27.6214C70.9644 27.5935 70.3419 27.5172 69.728 27.3932C67.2608 26.893 64.9808 25.7122 63.1434 23.9829L63.0753 23.919H62.9799L56.0956 24.8868L56.3408 25.2521L59.8012 19.2853L59.8693 19.1711L59.8193 19.0479C59.0484 17.139 58.7178 15.0792 58.8523 13.0234C58.9868 10.9676 59.5829 8.96921 60.5959 7.17823C61.6265 5.39316 63.0302 3.85425 64.7101 2.66776C66.4064 1.49068 68.3481 0.719259 70.3865 0.412521C73.0809 -0.0057126 75.8382 0.400066 78.3003 1.57717C80.7624 2.75428 82.8156 4.64834 84.1934 7.01344C85.5712 9.37854 86.2098 12.1054 86.0265 14.8401C85.8431 17.5747 84.8462 20.1907 83.1652 22.3486V22.3668Z" fill="#3C4E3E"/>
<path d="M71.083 15.6421V17.3678C71.0792 17.5397 71.1102 17.7105 71.1739 17.8701C71.2376 18.0296 71.3328 18.1746 71.4537 18.2961C71.5747 18.4177 71.7188 18.5134 71.8775 18.5775C72.0362 18.6415 72.2062 18.6726 72.3772 18.6689C72.7201 18.6677 73.0486 18.5302 73.291 18.2865C73.5335 18.0427 73.6702 17.7125 73.6714 17.3678V14.6286C73.6714 14.6013 73.6441 14.6013 73.6441 14.5739C73.6441 14.5465 73.6714 14.5465 73.6714 14.5236C73.6622 14.1815 73.5229 13.8559 73.2822 13.6138C73.0414 13.3718 72.7175 13.2318 72.3772 13.2225C71.9701 13.2547 71.5608 13.2018 71.175 13.0672C70.7892 12.9327 70.4353 12.7194 70.1354 12.4407C69.8356 12.162 69.5964 11.824 69.4327 11.4478C69.2691 11.0717 69.1846 10.6656 69.1846 10.2551C69.1846 9.84462 69.2691 9.43854 69.4327 9.06242C69.5964 8.6863 69.8356 8.34827 70.1354 8.06958C70.4353 7.7909 70.7892 7.57757 71.175 7.44302C71.5608 7.30846 71.9701 7.25559 72.3772 7.28772C72.89 7.28564 73.3944 7.41961 73.8393 7.67611C74.2842 7.9326 74.6539 8.30255 74.9111 8.7486C74.9995 8.89965 75.1169 9.03149 75.2565 9.13643C75.396 9.24137 75.555 9.31731 75.7241 9.3598C75.8932 9.4023 76.069 9.41051 76.2413 9.38396C76.4136 9.3574 76.5789 9.2966 76.7276 9.20512C76.874 9.11849 77.0019 9.00363 77.1041 8.86714C77.2062 8.73065 77.2805 8.57522 77.3227 8.40978C77.3649 8.24433 77.3741 8.07214 77.3499 7.90308C77.3257 7.73403 77.2686 7.57144 77.1817 7.42467C76.7222 6.62301 76.0716 5.94883 75.2885 5.46281C74.5054 4.9768 73.6143 4.69423 72.6955 4.64054C71.7768 4.58685 70.8591 4.76372 70.0253 5.15524C69.1914 5.54676 68.4675 6.14063 67.9187 6.88337C67.3699 7.62611 67.0135 8.4944 66.8816 9.41006C66.7496 10.3257 66.8463 11.26 67.1629 12.1288C67.4794 12.9975 68.0059 13.7735 68.695 14.3868C69.3841 15.0001 70.2141 15.4315 71.1102 15.6421H71.083ZM71.083 21.4537V21.9102C71.0786 22.0823 71.1091 22.2534 71.1726 22.4133C71.2361 22.5731 71.3312 22.7183 71.4523 22.84C71.5734 22.9617 71.7178 23.0574 71.8768 23.1212C72.0358 23.1851 72.206 23.2157 72.3772 23.2113C72.7204 23.2113 73.0496 23.0742 73.2923 22.8302C73.535 22.5862 73.6714 22.2553 73.6714 21.9102V21.4537C73.6667 21.1101 73.5288 20.7819 73.2871 20.5389C73.0454 20.2959 72.719 20.1573 72.3772 20.1526C72.2067 20.1508 72.0376 20.1832 71.8798 20.2479C71.7219 20.3126 71.5785 20.4084 71.458 20.5296C71.3374 20.6508 71.2422 20.7949 71.1778 20.9536C71.1134 21.1123 71.0811 21.2823 71.083 21.4537Z" fill="#B3BFA6"/>
</svg>
