<svg width="118" height="129" viewBox="0 0 118 129" fill="none" xmlns="http://www.w3.org/2000/svg">
<g clip-path="url(#clip0_0_3)">
<path d="M105.511 129H13.0356V50.4963L59.2657 21.037L105.511 50.4963V129Z" fill="#B3BFA6"/>
<path opacity="0.2" d="M105.511 129H13.0356V50.4963L59.2657 21.037L105.511 50.4963V129Z" fill="black"/>
<path d="M100.299 17.3037H18.2543V123H100.299V17.3037Z" fill="#ECEDDF"/>
<path d="M54.2759 80.5407L35.4974 61.4593L41.8012 55.2L52.7774 66.3407L75.5788 30.4815L83.0562 35.2667L54.2759 80.5407Z" fill="#B3BFA6"/>
<path d="M105.511 70.1852V129H13.0356V70.1852C17.0069 72.4074 20.9117 74.8074 24.846 77.1185C28.7803 79.4296 32.6777 81.8296 36.5677 84.2296C40.9007 86.8741 45.2336 89.5704 49.5517 92.2815L49.692 92.2C49.6477 92.2 49.6181 92.2741 49.5812 92.2963C52.8094 94.2963 56.04 96.3086 59.2731 98.3333C62.4914 96.2963 65.7319 94.2444 68.965 92.237C68.9281 92.237 68.8985 92.1704 68.8542 92.1407C68.8978 92.1712 68.9449 92.196 68.9945 92.2148C73.3102 89.5136 77.6382 86.8271 81.9785 84.1555C85.871 81.7704 89.7733 79.4049 93.6855 77.0593C97.6567 74.7704 101.539 72.4074 105.511 70.1852Z" fill="#B3BFA6"/>
<g opacity="0.2">
<path d="M105.511 70.1852C101.776 72.8148 97.9741 75.3704 94.2095 77.9333C90.445 80.4963 86.614 83 82.7904 85.5111C78.8044 88.1333 74.8111 90.7309 70.8103 93.3037L70.4486 93.5555L59.7972 100.37L59.2657 100.689L58.749 100.37L48.1123 93.5407L47.7359 93.3037C43.7253 90.7259 39.727 88.1235 35.741 85.4963C31.9322 83 28.1307 80.4667 24.3367 77.9333C20.5426 75.4 16.7707 72.7778 13.0356 70.1852C17.0069 72.4074 20.9117 74.8074 24.846 77.1185C28.7803 79.4296 32.6777 81.8296 36.5677 84.2296C40.9007 86.8741 45.2336 89.5704 49.5517 92.2815C52.7996 94.2913 56.04 96.3086 59.2731 98.3333C62.4914 96.2963 65.7319 94.2444 68.965 92.237C73.2807 89.5358 77.6086 86.8494 81.9489 84.1778C85.8414 81.7926 89.7438 79.4272 93.6559 77.0815C97.6567 74.7704 101.539 72.4074 105.511 70.1852Z" fill="black"/>
<path d="M49.6772 92.163C49.6329 92.163 49.6034 92.237 49.5665 92.2592L48.0902 93.5037C45.7724 95.4667 43.3956 97.3482 40.9818 99.1778C38.0292 101.4 35.025 103.622 31.9986 105.741C28.9722 107.859 25.9015 109.933 22.7718 111.941C19.642 113.948 16.4975 115.911 13.2349 117.711C16.0399 115.244 18.9555 112.941 21.9007 110.704C24.846 108.467 27.8723 106.259 30.884 104.133C33.8956 102.007 36.9958 99.9259 40.1182 97.9185C42.6057 96.3185 45.1376 94.7407 47.7137 93.2667C48.3116 92.9185 48.9095 92.5852 49.5222 92.2444L49.6772 92.163Z" fill="black"/>
<path d="M105.289 117.711C102.027 115.911 98.8599 113.948 95.7523 111.941C92.6447 109.933 89.5371 107.844 86.5107 105.741C83.4843 103.637 80.4727 101.43 77.5275 99.1778C75.1285 97.3482 72.7517 95.4741 70.4487 93.5185L68.9724 92.2592C68.9355 92.2592 68.9059 92.1926 68.8616 92.163C68.9052 92.1934 68.9523 92.2182 69.0019 92.237C69.6145 92.5852 70.2125 92.9185 70.8103 93.2667C73.3865 94.7481 75.9036 96.3185 78.4059 97.9185C81.5282 99.9259 84.5841 102.015 87.6253 104.133C90.6665 106.252 93.6633 108.444 96.6085 110.704C99.5537 112.963 102.484 115.244 105.289 117.711Z" fill="black"/>
</g>
<path d="M19.7085 12.2593C19.2164 8.18776 19.2164 4.0715 19.7085 0C20.2006 4.0715 20.2006 8.18776 19.7085 12.2593Z" fill="#3C4E3E"/>
<path d="M14.5119 14.2074C12.8941 12.9548 11.3626 11.5936 9.92803 10.1333C8.47113 8.69798 7.11464 7.16347 5.86823 5.54074C9.08558 8.07108 11.9877 10.9809 14.5119 14.2074Z" fill="#3C4E3E"/>
<path d="M12.2163 19.2667C10.1899 19.5302 8.14779 19.6539 6.10447 19.637C4.06368 19.6599 2.02382 19.5386 0 19.2741C2.02362 19.0068 4.0635 18.8831 6.10447 18.9037C8.14763 18.8843 10.1897 19.0056 12.2163 19.2667Z" fill="#3C4E3E"/>
<path d="M14.1576 24.4741C11.6334 27.7003 8.73409 30.6123 5.5213 33.1482C8.03978 29.9146 10.9397 26.9995 14.1576 24.4667V24.4741Z" fill="#3C4E3E"/>
<path d="M98.2841 12.2593C98.0276 10.2252 97.9068 8.17618 97.9224 6.12593C97.9078 4.07771 98.0336 2.0309 98.2989 0C98.791 4.0715 98.791 8.18776 98.2989 12.2593H98.2841Z" fill="#3C4E3E"/>
<path d="M103.481 14.2074C106.005 10.9809 108.907 8.07108 112.124 5.54074C110.878 7.16347 109.521 8.69798 108.065 10.1333C106.63 11.5936 105.099 12.9548 103.481 14.2074Z" fill="#3C4E3E"/>
<path d="M105.776 19.2667C107.803 19.0056 109.845 18.8843 111.888 18.9037C113.929 18.8829 115.969 19.0066 117.993 19.2741C115.969 19.5388 113.929 19.6601 111.888 19.637C109.845 19.654 107.803 19.5302 105.776 19.2667Z" fill="#3C4E3E"/>
<path d="M103.835 24.4741C107.052 27.0046 109.952 29.9172 112.471 33.1481C110.856 31.8927 109.327 30.5291 107.895 29.0667C106.438 27.6311 105.082 26.0966 103.835 24.4741Z" fill="#3C4E3E"/>
</g>
<defs>
<clipPath id="clip0_0_3">
<rect width="118" height="129" fill="white"/>
</clipPath>
</defs>
</svg>
