<svg width="852" height="612" viewBox="0 0 852 612" fill="none" xmlns="http://www.w3.org/2000/svg">
<g clip-path="url(#clip0_12_2)">
<mask id="mask0_12_2" style="mask-type:luminance" maskUnits="userSpaceOnUse" x="0" y="0" width="852" height="612">
<path d="M852 0H0V612H852V0Z" fill="white"/>
</mask>
<g mask="url(#mask0_12_2)">
<mask id="mask1_12_2" style="mask-type:luminance" maskUnits="userSpaceOnUse" x="0" y="0" width="1060" height="617">
<path d="M1060 0H0V617H1060V0Z" fill="white"/>
</mask>
<g mask="url(#mask1_12_2)">
<path opacity="0.2" d="M674.813 524.497C681.229 524.497 686.43 519.287 686.43 512.859C686.43 506.432 681.229 501.222 674.813 501.222C668.397 501.222 663.195 506.432 663.195 512.859C663.195 519.287 668.397 524.497 674.813 524.497Z" fill="#687969"/>
<path d="M680.256 512.859C680.259 513.942 679.941 515.001 679.342 515.903C678.744 516.804 677.891 517.507 676.893 517.923C675.895 518.339 674.797 518.448 673.737 518.238C672.676 518.027 671.702 517.506 670.938 516.741C670.174 515.975 669.654 514.999 669.444 513.937C669.234 512.875 669.343 511.775 669.758 510.775C670.173 509.775 670.875 508.922 671.775 508.322C672.674 507.722 673.732 507.404 674.813 507.407C675.528 507.405 676.237 507.544 676.898 507.818C677.559 508.091 678.16 508.493 678.666 508.999C679.172 509.506 679.573 510.108 679.845 510.77C680.118 511.433 680.258 512.143 680.256 512.859Z" fill="#687969"/>
<path opacity="0.2" d="M333.574 424.644C339.99 424.644 345.191 419.434 345.191 413.007C345.191 406.579 339.99 401.369 333.574 401.369C327.158 401.369 321.956 406.579 321.956 413.007C321.956 419.434 327.158 424.644 333.574 424.644Z" fill="#687969"/>
<path d="M339.032 413.007C339.032 414.088 338.712 415.145 338.112 416.044C337.512 416.943 336.66 417.644 335.662 418.058C334.665 418.472 333.568 418.58 332.509 418.369C331.45 418.158 330.477 417.637 329.714 416.873C328.951 416.108 328.431 415.134 328.22 414.073C328.01 413.013 328.118 411.913 328.531 410.914C328.944 409.915 329.644 409.061 330.541 408.46C331.439 407.859 332.494 407.539 333.574 407.539C334.291 407.537 335.002 407.677 335.665 407.951C336.328 408.225 336.93 408.628 337.438 409.136C337.945 409.644 338.347 410.248 338.62 410.912C338.894 411.576 339.034 412.288 339.032 413.007Z" fill="#687969"/>
<path opacity="0.2" d="M492.964 362.094C499.38 362.094 504.581 356.884 504.581 350.456C504.581 344.029 499.38 338.819 492.964 338.819C486.548 338.819 481.346 344.029 481.346 350.456C481.346 356.884 486.548 362.094 492.964 362.094Z" fill="#687969"/>
<path d="M498.422 350.456C498.425 351.539 498.107 352.597 497.509 353.498C496.911 354.399 496.06 355.102 495.063 355.519C494.066 355.935 492.968 356.045 491.908 355.836C490.848 355.627 489.874 355.107 489.109 354.343C488.345 353.579 487.823 352.605 487.611 351.544C487.4 350.483 487.507 349.382 487.92 348.382C488.332 347.383 489.032 346.528 489.93 345.926C490.828 345.325 491.883 345.004 492.964 345.004C494.409 345.004 495.795 345.578 496.818 346.6C497.841 347.622 498.418 349.009 498.422 350.456Z" fill="#687969"/>
<path opacity="0.2" d="M513.186 338.132C519.602 338.132 524.803 332.921 524.803 326.494C524.803 320.067 519.602 314.857 513.186 314.857C506.77 314.857 501.568 320.067 501.568 326.494C501.568 332.921 506.77 338.132 513.186 338.132Z" fill="#687969"/>
<path d="M518.644 326.494C518.644 327.576 518.324 328.633 517.724 329.532C517.124 330.431 516.272 331.132 515.274 331.546C514.277 331.96 513.18 332.068 512.121 331.857C511.062 331.646 510.089 331.125 509.326 330.36C508.563 329.596 508.043 328.621 507.832 327.561C507.622 326.5 507.73 325.401 508.143 324.402C508.556 323.403 509.256 322.549 510.153 321.948C511.051 321.347 512.106 321.026 513.186 321.026C513.903 321.024 514.614 321.165 515.277 321.439C515.94 321.713 516.542 322.115 517.05 322.624C517.557 323.132 517.959 323.735 518.232 324.399C518.506 325.064 518.646 325.776 518.644 326.494Z" fill="#687969"/>
<path opacity="0.2" d="M671.974 305.308C677.906 302.86 680.734 296.058 678.29 290.115C675.846 284.172 669.056 281.339 663.124 283.788C657.191 286.236 654.363 293.038 656.807 298.981C659.251 304.923 666.042 307.756 671.974 305.308Z" fill="#C6D4B8"/>
<path d="M672.993 294.584C672.993 295.666 672.673 296.724 672.072 297.623C671.472 298.523 670.618 299.224 669.62 299.637C668.622 300.051 667.524 300.158 666.465 299.946C665.405 299.734 664.433 299.211 663.67 298.445C662.907 297.679 662.389 296.703 662.18 295.642C661.971 294.58 662.081 293.48 662.497 292.481C662.912 291.483 663.614 290.63 664.513 290.031C665.413 289.432 666.47 289.114 667.55 289.117C668.267 289.115 668.976 289.255 669.639 289.529C670.301 289.803 670.902 290.206 671.409 290.714C671.915 291.223 672.315 291.826 672.587 292.491C672.859 293.155 672.997 293.866 672.993 294.584Z" fill="#C6D4B8"/>
<path opacity="0.2" d="M563.01 233.558C569.426 233.558 574.627 228.348 574.627 221.92C574.627 215.493 569.426 210.283 563.01 210.283C556.594 210.283 551.393 215.493 551.393 221.92C551.393 228.348 556.594 233.558 563.01 233.558Z" fill="#C6D4B8"/>
<path d="M563.01 227.373C566.016 227.373 568.453 224.932 568.453 221.92C568.453 218.909 566.016 216.468 563.01 216.468C560.004 216.468 557.567 218.909 557.567 221.92C557.567 224.932 560.004 227.373 563.01 227.373Z" fill="#C6D4B8"/>
<path opacity="0.2" d="M621.275 154.485C621.275 156.787 620.594 159.037 619.317 160.951C618.041 162.865 616.226 164.356 614.103 165.237C611.981 166.118 609.645 166.348 607.391 165.899C605.138 165.45 603.068 164.342 601.443 162.714C599.818 161.087 598.712 159.013 598.264 156.756C597.815 154.498 598.046 152.158 598.925 150.032C599.804 147.905 601.293 146.088 603.204 144.809C605.114 143.53 607.36 142.848 609.658 142.848C612.739 142.848 615.694 144.074 617.872 146.256C620.051 148.439 621.275 151.399 621.275 154.485Z" fill="#C6D4B8"/>
<path d="M615.131 154.485C615.131 155.567 614.811 156.624 614.211 157.523C613.611 158.422 612.759 159.123 611.761 159.537C610.764 159.951 609.667 160.059 608.608 159.848C607.549 159.637 606.576 159.116 605.813 158.352C605.05 157.587 604.53 156.613 604.319 155.552C604.109 154.491 604.217 153.392 604.63 152.393C605.043 151.394 605.743 150.54 606.64 149.939C607.538 149.338 608.593 149.018 609.673 149.018C610.39 149.016 611.101 149.156 611.764 149.43C612.427 149.704 613.029 150.107 613.536 150.615C614.044 151.123 614.446 151.726 614.719 152.391C614.993 153.055 615.133 153.767 615.131 154.485Z" fill="#C6D4B8"/>
<path opacity="0.2" d="M568.632 86.2285C575.048 86.2285 580.249 81.0182 580.249 74.5909C580.249 68.1637 575.048 62.9534 568.632 62.9534C562.216 62.9534 557.015 68.1637 557.015 74.5909C557.015 81.0182 562.216 86.2285 568.632 86.2285Z" fill="#687969"/>
<path d="M574.075 74.5909C574.078 75.6736 573.76 76.7328 573.162 77.6343C572.563 78.5357 571.711 79.2388 570.713 79.6545C569.715 80.0702 568.616 80.1797 567.556 79.9693C566.496 79.7588 565.522 79.2377 564.758 78.4721C563.993 77.7066 563.473 76.7309 563.263 75.6689C563.053 74.6069 563.162 73.5063 563.577 72.5066C563.992 71.5069 564.694 70.6531 565.594 70.0534C566.494 69.4538 567.551 69.1352 568.632 69.1382C570.076 69.1382 571.46 69.7127 572.481 70.7353C573.502 71.7578 574.075 73.1448 574.075 74.5909Z" fill="#687969"/>
<path opacity="0.2" d="M320.116 600.637C326.11 598.345 329.115 591.62 326.827 585.615C324.54 579.61 317.826 576.6 311.831 578.892C305.837 581.184 302.832 587.909 305.12 593.914C307.408 599.919 314.122 602.929 320.116 600.637Z" fill="#687969"/>
<path d="M321.405 589.781C321.408 590.864 321.09 591.923 320.491 592.824C319.892 593.726 319.04 594.429 318.042 594.844C317.044 595.26 315.946 595.37 314.885 595.159C313.825 594.949 312.851 594.428 312.087 593.662C311.323 592.897 310.803 591.921 310.593 590.859C310.382 589.797 310.492 588.696 310.907 587.697C311.322 586.697 312.024 585.843 312.923 585.243C313.823 584.644 314.881 584.325 315.961 584.328C317.405 584.328 318.79 584.903 319.81 585.925C320.831 586.948 321.405 588.335 321.405 589.781Z" fill="#687969"/>
<path opacity="0.2" d="M674.813 524.498C681.229 524.498 686.43 519.287 686.43 512.86C686.43 506.433 681.229 501.223 674.813 501.223C668.397 501.223 663.195 506.433 663.195 512.86C663.195 519.287 668.397 524.498 674.813 524.498Z" fill="#687969"/>
<path d="M680.255 512.859C680.258 513.942 679.94 515.001 679.341 515.902C678.743 516.804 677.891 517.507 676.893 517.923C675.895 518.338 674.796 518.448 673.736 518.237C672.676 518.027 671.702 517.506 670.938 516.74C670.173 515.975 669.653 514.999 669.443 513.937C669.233 512.875 669.342 511.774 669.757 510.775C670.172 509.775 670.874 508.921 671.774 508.322C672.674 507.722 673.731 507.403 674.812 507.406C675.527 507.404 676.236 507.544 676.897 507.817C677.559 508.091 678.159 508.492 678.665 508.999C679.171 509.506 679.572 510.108 679.845 510.77C680.118 511.432 680.257 512.142 680.255 512.859Z" fill="#687969"/>
</g>
</g>
</g>
<defs>
<clipPath id="clip0_12_2">
<rect width="852" height="612" fill="white"/>
</clipPath>
</defs>
</svg>
