<svg width="852" height="612" viewBox="0 0 852 612" fill="none" xmlns="http://www.w3.org/2000/svg">
<g clip-path="url(#clip0_12_148)">
<mask id="mask0_12_148" style="mask-type:luminance" maskUnits="userSpaceOnUse" x="0" y="0" width="852" height="612">
<path d="M852 0H0V612H852V0Z" fill="white"/>
</mask>
<g mask="url(#mask0_12_148)">
<mask id="mask1_12_148" style="mask-type:luminance" maskUnits="userSpaceOnUse" x="0" y="0" width="1060" height="617">
<path d="M1060 0H0V617H1060V0Z" fill="white"/>
</mask>
<g mask="url(#mask1_12_148)">
<g opacity="0.15">
<path d="M714.69 154.59C712.452 152.419 709.577 151.027 706.489 150.618C703.401 150.209 700.264 150.806 697.54 152.319C700.184 146.652 701.006 140.302 699.892 134.147C698.778 127.992 695.783 122.335 691.321 117.959C679.257 105.664 661.495 103.02 643.764 115.539C639.801 118.38 636.679 122.241 634.726 126.714C631.406 125.632 628.025 124.749 624.601 124.069C621.084 123.581 617.502 124.082 614.253 125.516C611.005 126.951 608.219 129.262 606.207 132.192C604.195 135.122 603.037 138.555 602.862 142.107C602.686 145.659 603.5 149.19 605.214 152.304C603.165 151.683 600.972 151.726 598.949 152.429C596.927 153.133 595.178 154.459 593.954 156.218C591.598 159.789 591.896 168.797 599.472 170.679L715.793 170.156C719.089 164.793 719.059 158.997 714.69 154.59Z" fill="#C6D4B8"/>
<path d="M1020.64 303.876C1014.98 286.95 992.951 279.302 979.187 289.55C990.625 248.333 957.682 203.247 918.327 196.285C878.971 189.323 839.005 213.286 814.667 247.362C787.972 223.698 742.652 231.377 723.966 262.734C698.748 242.521 660.6 243.881 636.665 265.841C636.814 210.567 599.383 157.533 549.857 143.042C500.331 128.551 443.199 153.828 417.385 201.663C377.94 202.739 341.328 236.591 334.394 278.48C320.018 272.236 304.275 269.822 288.693 271.474C273.111 273.126 258.22 278.787 245.468 287.906C237.474 245.121 197.493 212.255 157.153 215.243C116.813 218.23 81.4249 256.714 78.9941 300.246C73.9127 297.821 68.3181 296.673 62.6942 296.9C39.7282 297.707 39.9519 334.038 39.9519 334.038L1060 345.527C1060.03 321.654 1047.38 307.402 1020.64 303.876Z" fill="#C6D4B8"/>
<path d="M576.178 58.9796C569.169 54.7369 549.514 55.2747 542.43 59.3979C542.43 59.3979 555.017 35.2712 534.213 14.0428C518.375 -2.18109 494.887 -5.75154 471.474 10.8458C466.247 14.5979 462.126 19.6914 459.544 25.5907C455.168 24.1632 450.711 23.0008 446.197 22.1099C441.563 21.4787 436.846 22.1495 432.572 24.0475C428.297 25.9455 424.633 28.9959 421.988 32.8585C419.343 36.7211 417.822 41.2439 417.594 45.9223C417.365 50.6006 418.439 55.2505 420.695 59.3531C415.356 57.5903 405.499 60.4586 395.343 69.3772C391.123 73.0971 385.695 83.5843 385.695 83.5843L589.331 82.8971C589.438 78.1029 588.277 73.3656 585.967 69.1654C583.657 64.9651 580.28 61.4512 576.178 58.9796Z" fill="#C6D4B8"/>
<path d="M993.876 85.6608C984.615 80.0587 958.622 80.7608 949.271 86.2285C949.271 86.2285 965.899 54.3335 938.414 26.2779C917.372 4.82533 886.428 0.119522 855.498 22.0501C848.583 27.0073 843.132 33.7428 839.72 41.5457C833.937 39.6549 828.046 38.1134 822.078 36.9295C815.947 36.0954 809.705 36.9853 804.049 39.4996C798.394 42.0138 793.547 46.0536 790.051 51.1677C786.555 56.2817 784.546 62.2688 784.25 68.4601C783.954 74.6514 785.382 80.8032 788.375 86.2285C781.306 83.898 768.272 87.7224 754.865 99.4795C749.273 104.335 742.07 118.138 742.07 118.138L1011.22 117.212C1011.35 110.89 1009.82 104.645 1006.77 99.1054C1003.73 93.5662 999.28 88.9289 993.876 85.6608Z" fill="#C6D4B8"/>
<path d="M782.007 184.871C781.997 181.668 781.236 178.512 779.786 175.657C778.336 172.802 776.237 170.327 773.659 168.433C771.08 166.539 768.093 165.277 764.939 164.75C761.785 164.223 758.551 164.444 755.499 165.397C752.446 166.35 749.658 168.008 747.362 170.237C745.065 172.465 743.322 175.203 742.274 178.23C741.226 181.256 740.902 184.487 741.327 187.662C741.753 190.836 742.917 193.867 744.725 196.509L744.859 196.688C745.41 197.452 746.008 198.18 746.648 198.869L758.996 213.958C759.432 214.468 759.977 214.874 760.59 215.145C761.203 215.416 761.87 215.546 762.54 215.524C763.21 215.503 763.866 215.331 764.461 215.021C765.056 214.711 765.574 214.271 765.976 213.734L778.1 196.823C778.249 196.614 778.413 196.404 778.562 196.18V196.076C780.779 192.759 781.977 188.863 782.007 184.871ZM761.576 194.925C759.591 194.925 757.651 194.336 756 193.231C754.35 192.126 753.064 190.556 752.304 188.719C751.544 186.882 751.346 184.86 751.733 182.91C752.12 180.96 753.076 179.168 754.48 177.762C755.883 176.356 757.671 175.399 759.618 175.011C761.565 174.623 763.583 174.822 765.417 175.583C767.251 176.344 768.819 177.632 769.921 179.286C771.024 180.939 771.613 182.883 771.613 184.871C771.613 187.538 770.555 190.095 768.673 191.981C766.791 193.866 764.238 194.925 761.576 194.925Z" fill="#C6D4B8"/>
<path d="M395.91 154.829C395.907 151.619 395.151 148.455 393.703 145.592C392.256 142.728 390.156 140.246 387.575 138.345C384.993 136.443 382.001 135.177 378.841 134.646C375.681 134.116 372.441 134.337 369.382 135.292C366.323 136.247 363.53 137.909 361.23 140.144C358.93 142.378 357.186 145.123 356.14 148.157C355.093 151.19 354.773 154.428 355.205 157.609C355.637 160.789 356.81 163.823 358.627 166.466L358.777 166.646C359.314 167.41 359.907 168.135 360.551 168.812L372.929 183.871C373.365 184.384 373.91 184.792 374.525 185.065C375.14 185.337 375.808 185.468 376.48 185.446C377.152 185.425 377.811 185.252 378.407 184.94C379.003 184.629 379.521 184.186 379.923 183.646L392.047 166.735C392.197 166.526 392.361 166.317 392.495 166.093L392.584 165.988C394.751 162.671 395.906 158.793 395.91 154.829ZM375.479 164.883C373.494 164.883 371.554 164.293 369.903 163.189C368.253 162.084 366.966 160.514 366.207 158.676C365.447 156.839 365.248 154.818 365.636 152.867C366.023 150.917 366.979 149.126 368.382 147.72C369.786 146.314 371.574 145.356 373.521 144.968C375.468 144.58 377.486 144.779 379.32 145.54C381.154 146.301 382.721 147.59 383.824 149.243C384.927 150.897 385.516 152.84 385.516 154.829C385.516 156.149 385.256 157.457 384.752 158.676C384.247 159.896 383.508 161.005 382.576 161.938C381.644 162.872 380.538 163.612 379.32 164.118C378.102 164.623 376.797 164.883 375.479 164.883Z" fill="#C6D4B8"/>
</g>
<path d="M742.637 285.023L684.476 210.955L620.216 123.666L567.409 75.1736L554.211 88.3947H548.052L462.675 209.192L374.569 276.747L171.872 408.405L955.535 415.008L798.65 295.839L742.637 285.023Z" fill="#687969"/>
<path d="M170.172 403.475L599.666 406.717L642.765 352.936L660.049 312.347L624.407 333.172L638.261 315.32L640.736 300.933L660.049 268.127L629.358 286.472L571.421 301.411L630.834 240.998L607.078 250.32L558.64 287.966L523.49 305.818L489.817 337.564L517.973 292.926L532.334 273.58L500.644 278.062L505.118 269.621L491.696 273.595L524.37 240.953L552.094 197.704L561.041 185.753L560.132 180.883L530.306 189.249L556.553 157.503L567.812 126.265H558.64L539.82 138.217L567.916 104.484L572.002 92.0847C572.002 92.0847 569.288 82.4639 567.26 75.4425L554.271 88.4395H548.052L462.675 209.267L374.569 276.822L200.281 369.115" fill="#C6D4B8"/>
<path d="M113.503 415.591L173.468 383.696L236.699 357.821L418.637 288.907C337.406 343.704 257.905 386.012 314.813 381.186L441.678 343.958L403.963 382.665C402.964 383.687 402.317 385.002 402.115 386.418C401.913 387.834 402.167 389.278 402.841 390.539C403.515 391.801 404.572 392.814 405.86 393.432C407.148 394.049 408.599 394.239 410.003 393.974L487.118 374.747L598.175 342.359L507.757 400.771L633.205 364.798L606.571 398.994L914.419 415.038H587.825" fill="#2C392D"/>
<path d="M251.537 327.301L253.834 339.416L251.537 339.999L253.834 340.746L256.131 352.548L253.252 353.131L256.131 354.117L257.667 361.84H243.872L247.988 344.57L250.195 343.988L248.271 343.495L251.537 327.301Z" fill="#2C392D"/>
<path d="M270.089 315.857L272.386 327.988L270.089 328.571L272.386 329.318L274.682 341.105L271.804 341.687L274.682 342.688L276.218 350.412H262.424L266.54 333.142L268.747 332.559L266.823 332.051L270.089 315.857Z" fill="#2C392D"/>
<path d="M284.689 322.012L286.583 331.977L284.689 332.455L286.583 333.067L288.477 342.763L286.106 343.241L288.477 344.063L289.729 350.412H278.396L281.781 336.22L283.585 335.741L282.019 335.323L284.689 322.012Z" fill="#2C392D"/>
<path d="M390.004 324.403L391.197 330.692L390.004 331.006L391.197 331.394L392.39 337.519L390.899 337.818L392.39 338.341L393.181 342.345H386.023L388.155 333.381L389.303 333.067L388.304 332.813L390.004 324.403Z" fill="#2C392D"/>
<path d="M429.032 264.243L430.225 270.532L429.032 270.846L430.225 271.234L431.418 277.359L429.926 277.658L431.418 278.181L432.014 281.199L424.438 284.709L427.182 273.206L428.331 272.908L427.332 272.654L429.032 264.243Z" fill="#2C392D"/>
<path d="M420.173 279.854L421.381 286.159L420.173 286.457L421.381 286.846L422.574 292.971L421.083 293.27L422.574 293.792L423.171 296.81L415.595 300.336L418.339 288.833L419.487 288.519L418.488 288.265L420.173 279.854Z" fill="#2C392D"/>
<path d="M496.11 358.314L497.303 364.619L496.11 364.918L497.303 365.306L498.511 371.431L497.005 371.745L498.511 372.253L499.108 375.285L491.532 378.796L494.276 367.293L495.424 366.994L494.425 366.74L496.11 358.314Z" fill="#2C392D"/>
<path d="M405.111 277.882L406.319 284.187L405.111 284.485L406.319 284.874L407.512 290.999L406.021 291.313L407.512 291.82L408.303 295.839H401.129L403.277 286.861L404.425 286.562L403.426 286.308L405.111 277.882Z" fill="#2C392D"/>
<path d="M360.745 345.751L362.43 354.639L360.745 355.058L362.43 355.61L364.115 364.245L362.013 364.679L364.115 365.396L365.234 371.058H355.123L358.15 358.404L359.761 357.986L358.359 357.612L360.745 345.751Z" fill="#2C392D"/>
<path d="M401.771 346.856L402.964 353.146L401.771 353.459L402.964 353.848L404.157 359.973L402.666 360.271L404.157 360.794L404.947 364.798H397.789L399.922 355.835L401.07 355.521L400.071 355.267L401.771 346.856Z" fill="#2C392D"/>
<path d="M183.43 353.788L185.741 365.918L183.43 366.486L185.741 367.233L188.038 379.035L185.16 379.618L188.038 380.604L189.574 388.327H175.764L179.895 371.058L182.088 370.475L180.179 369.982L183.43 353.788Z" fill="#2C392D"/>
<path d="M159.837 375.226L161.582 384.428L159.837 384.876L161.582 385.429L163.327 394.377L161.15 394.826L163.327 395.588L164.49 401.444H154.021L157.153 388.327L158.823 387.894L157.362 387.52L159.837 375.226Z" fill="#2C392D"/>
<path d="M128.624 367.711L131.816 384.548L128.624 385.354L131.816 386.385L135.007 402.758L131.011 403.565L135.007 404.939L137.125 415.666H117.977L123.688 391.688L126.76 390.882L124.091 390.195L128.624 367.711Z" fill="#2C392D"/>
<path d="M412.389 326.614L414.685 338.729L412.389 339.312L414.685 340.059L416.982 351.861L414.119 352.428L416.982 353.429L418.518 361.153H404.724L408.839 343.883L411.047 343.301L409.123 342.808L412.389 326.614Z" fill="#2C392D"/>
<path d="M518.495 341.134L520.791 353.265L518.495 353.833L520.791 354.58L523.088 366.382L520.21 366.964L523.088 367.965L524.624 375.674H510.829L514.945 358.404L517.152 357.821L515.229 357.328L518.495 341.134Z" fill="#2C392D"/>
<path d="M532.408 338.714L534.705 350.845L532.408 351.428L534.705 352.175L537.002 363.961L534.123 364.544L537.002 365.545L538.538 373.269H524.728L528.859 355.984L531.066 355.416L529.143 354.908L532.408 338.714Z" fill="#2C392D"/>
<path d="M439.351 256.997L440.962 265.483L439.351 265.886L440.962 266.409L442.573 274.67L440.559 275.074L442.573 275.776L443.512 279.003L433.983 284.276L436.876 269.098L438.412 268.68L437.07 268.336L439.351 256.997Z" fill="#2C392D"/>
<path d="M373.555 343.525L375.852 355.655L373.555 356.238L375.852 356.985L378.149 368.772L375.285 369.354L378.149 370.355L379.685 378.079H365.89L370.006 360.809L372.213 360.227L370.289 359.719L373.555 343.525Z" fill="#2C392D"/>
<path d="M172.513 366.471L174.392 376.436L172.513 376.914L174.392 377.526L176.286 387.222L173.93 387.7L176.286 388.506L177.554 394.855H166.205L169.59 380.663L171.41 380.185L169.829 379.782L172.513 366.471Z" fill="#2C392D"/>
<path d="M148.354 366.471L151.054 380.678L148.354 381.365L151.054 382.247L153.738 396.066L150.368 396.753L153.738 397.918L155.542 406.971H139.362L144.194 386.714L146.774 386.041L144.537 385.459L148.354 366.471Z" fill="#2C392D"/>
<path d="M648.939 371.864L651.369 384.682L648.939 385.309L651.369 386.101L653.815 398.575L650.773 399.188L653.815 400.249L655.426 408.405H640.826L645.195 390.135L647.522 389.522L645.494 388.999L648.939 371.864Z" fill="#2C392D"/>
<path d="M784.602 401.488L786.228 409.66H771.613L775.982 391.39L778.309 390.762L776.281 390.239L779.74 373.104L782.171 385.937L779.74 386.549L782.171 387.341L784.602 399.815" fill="#2C392D"/>
<path d="M801.305 390.135L802.766 397.843L801.305 398.217L802.766 398.68L804.228 406.179L802.408 406.538L804.228 407.18L805.197 412.08H796.443L799.053 401.115L800.455 400.742L799.232 400.428L801.305 390.135Z" fill="#2C392D"/>
<path d="M823.57 374.792L826.135 388.297L823.57 388.94L826.135 389.776L828.7 402.908L825.493 403.55L828.7 404.67L830.4 413.26H815.039L819.618 394.034L822.078 393.377L819.946 392.824L823.57 374.792Z" fill="#2C392D"/>
<path d="M841.45 395.408L842.554 401.234L841.45 401.503L842.554 401.862L843.657 407.539L842.27 407.823L843.657 408.301L844.388 412.006H837.767L839.75 403.699L840.809 403.431L839.884 403.192L841.45 395.408Z" fill="#2C392D"/>
<path d="M672.963 386.714L674.052 392.42L672.963 392.689L674.052 393.048L675.126 398.59L673.784 398.859L675.126 399.337L675.856 402.967H669.369L671.293 394.841L672.337 394.572L671.442 394.333L672.963 386.714Z" fill="#2C392D"/>
<path d="M610.314 356.686L611.403 362.393L610.314 362.662L611.403 363.02L612.476 368.563L611.134 368.832L612.476 369.295L613.207 372.925H606.72L608.644 364.813L609.688 364.529L608.793 364.305L610.314 356.686Z" fill="#2C392D"/>
<path opacity="0.8" d="M567.409 75.1736L554.211 88.3947H548.052L521.716 125.653L521.582 125.862L495.544 162.687L512.306 147.479L520.568 143.625L536.211 125.279L533.557 140.069L551.273 148.061L551.408 162.687L556.597 157.503L567.857 126.25L576.67 114.045H581.979V105.754L594.089 109.309L604.408 109.145L567.409 75.1736Z" fill="#EDDBC1"/>
<path opacity="0.8" d="M530.112 153.201C529.202 153.664 516.601 166.735 516.601 166.735L509.964 183.482L530.112 162.687V153.201Z" fill="#E6D9BF"/>
<path d="M976.979 415.023H114.465C114.465 415.023 -22.966 449.383 13.2576 489.032C68.9576 549.968 527.949 508.557 485.567 521.808C443.184 535.059 341.492 584.239 394.24 599.178C503.283 629.848 848.072 655.558 904.174 599.178C960.277 542.797 873.875 460.585 873.875 460.585C873.875 460.585 1194.26 449.368 976.979 415.023Z" fill="#2C392D"/>
<path d="M836.082 525.573L839.422 542.379H809.372L818.35 504.792L823.152 503.523L818.976 502.447L826.06 467.206L831.071 493.588L826.06 494.858L831.071 496.471L836.082 522.137" fill="#2C392D"/>
<path opacity="0.2" d="M836.082 525.573L839.422 542.379H809.372L818.35 504.792L823.152 503.523L818.976 502.447L826.06 467.206L831.071 493.588L826.06 494.858L831.071 496.471L836.082 522.137" fill="black"/>
<path d="M84.661 465.099L88.0015 481.906H57.9668L66.9295 444.319L71.7315 443.049L67.5558 441.973L74.6395 406.732L79.6502 433.115L74.6395 434.384L79.6502 436.013L84.661 461.678" fill="#2C392D"/>
<path opacity="0.2" d="M84.661 465.099L88.0015 481.906H57.9668L66.9295 444.319L71.7315 443.049L67.5558 441.973L74.6395 406.732L79.6502 433.115L74.6395 434.384L79.6502 436.013L84.661 461.678" fill="black"/>
<path d="M731.422 420.476L734.763 437.283H704.728L713.691 399.696L718.493 398.426L714.317 397.35L721.416 362.109L726.411 388.491L721.416 389.761L726.411 391.39L731.422 417.055" fill="#2C392D"/>
<path opacity="0.2" d="M731.422 420.476L734.763 437.283H704.728L713.691 399.696L718.493 398.426L714.317 397.35L721.416 362.109L726.411 388.491L721.416 389.761L726.411 391.39L731.422 417.055" fill="black"/>
<path d="M498.705 429.977L500.823 440.599H481.839L487.505 416.831L490.533 416.039L487.893 415.352L492.382 393.063L495.544 409.75L492.382 410.542L495.544 411.572L498.705 427.796" fill="#2C392D"/>
<path opacity="0.2" d="M498.705 429.977L500.823 440.599H481.839L487.505 416.831L490.533 416.039L487.893 415.352L492.382 393.063L495.544 409.75L492.382 410.542L495.544 411.572L498.705 427.796" fill="black"/>
<path d="M519.464 417.503L521.582 428.125H502.583L508.264 404.357L511.292 403.55L508.652 402.878L513.141 380.589L516.302 397.276L513.141 398.067L516.302 399.098L519.464 415.322" fill="#2C392D"/>
<path opacity="0.2" d="M519.464 417.503L521.582 428.125H502.583L508.264 404.357L511.292 403.55L508.652 402.878L513.141 380.589L516.302 397.276L513.141 398.067L516.302 399.098L519.464 415.322" fill="black"/>
<path d="M589.137 452.162L592.314 468.117H563.8L572.316 432.442L576.864 431.232L572.912 430.201L579.638 396.753L584.395 421.806L579.638 423.001L584.395 424.554L589.137 448.905" fill="#2C392D"/>
<path opacity="0.2" d="M589.137 452.162L592.314 468.117H563.8L572.316 432.442L576.864 431.232L572.912 430.201L579.638 396.753L584.395 421.806L579.638 423.001L584.395 424.554L589.137 448.905" fill="black"/>
<path d="M528.814 507.959L531.976 523.914H503.477L511.978 488.225L516.541 487.03L512.574 485.999L519.315 452.55L524.057 477.588L519.315 478.798L524.057 480.337L528.814 504.703" fill="#2C392D"/>
<path opacity="0.2" d="M528.814 507.959L531.976 523.914H503.477L511.978 488.225L516.541 487.03L512.574 485.999L519.315 452.55L524.057 477.588L519.315 478.798L524.057 480.337L528.814 504.703" fill="black"/>
<path d="M390.303 480.979L392.152 490.316H375.479L380.46 469.432L383.129 468.729L380.803 468.132L384.74 448.547L387.529 463.202L384.74 463.904L387.529 464.815L390.303 479.067" fill="#2C392D"/>
<path opacity="0.2" d="M390.303 480.979L392.152 490.316H375.479L380.46 469.432L383.129 468.729L380.803 468.132L384.74 448.547L387.529 463.202L384.74 463.904L387.529 464.815L390.303 479.067" fill="black"/>
<path d="M488.326 493.454L490.175 502.791H473.487L478.468 481.906L481.138 481.218L478.826 480.606L482.763 461.036L485.537 475.691L482.763 476.393L485.537 477.289L488.326 491.556" fill="#2C392D"/>
<path opacity="0.2" d="M488.326 493.454L490.175 502.791H473.487L478.468 481.906L481.138 481.218L478.826 480.606L482.763 461.036L485.537 475.691L482.763 476.393L485.537 477.289L488.326 491.556" fill="black"/>
<path d="M359.388 481.965L360.134 485.715H353.423L355.421 477.319L356.495 477.036L355.555 476.796L357.151 468.924L358.27 474.81L357.151 475.093L358.27 475.467L359.388 481.189" fill="#2C392D"/>
<path opacity="0.2" d="M359.388 481.965L360.134 485.715H353.423L355.421 477.319L356.495 477.036L355.555 476.796L357.151 468.924L358.27 474.81L357.151 475.093L358.27 475.467L359.388 481.189" fill="black"/>
<path d="M558.551 451.415L559.297 455.165H552.586L554.584 446.769L555.658 446.485L554.733 446.246L556.314 438.373L557.432 444.259L556.314 444.543L557.432 444.916L558.551 450.638" fill="#2C392D"/>
<path opacity="0.2" d="M558.551 451.415L559.297 455.165H552.586L554.584 446.769L555.658 446.485L554.733 446.246L556.314 438.373L557.432 444.259L556.314 444.543L557.432 444.916L558.551 450.638" fill="black"/>
<path d="M730.527 460.812L731.273 464.576H724.562L726.575 456.18L727.649 455.897L726.71 455.658L728.29 447.785L729.409 453.671L728.29 453.955L729.409 454.313L730.527 460.05" fill="#2C392D"/>
<path opacity="0.2" d="M730.527 460.812L731.273 464.576H724.562L726.575 456.18L727.649 455.897L726.71 455.658L728.29 447.785L729.409 453.671L728.29 453.955L729.409 454.313L730.527 460.05" fill="black"/>
<path d="M804.004 515.444L805.674 523.855H790.657L795.145 505.061L797.546 504.419L795.459 503.881L798.993 486.253L801.498 499.459L798.993 500.087L801.498 500.893L804.004 513.726" fill="#2C392D"/>
<path opacity="0.2" d="M804.004 515.444L805.674 523.855H790.657L795.145 505.061L797.546 504.419L795.459 503.881L798.993 486.253L801.498 499.459L798.993 500.087L801.498 500.893L804.004 513.726" fill="black"/>
<path d="M107.776 479.829L109.446 488.225H94.429L98.9029 469.432L101.304 468.804L99.2161 468.251L102.765 450.638L105.271 463.829L102.765 464.457L105.271 465.278L107.776 478.111" fill="#2C392D"/>
<path opacity="0.2" d="M107.776 479.829L109.446 488.225H94.429L98.9029 469.432L101.304 468.804L99.2161 468.251L102.765 450.638L105.271 463.829L102.765 464.457L105.271 465.278L107.776 478.111" fill="black"/>
<path d="M755.462 443.004L757.132 451.4H742.115L746.604 432.607L749.005 431.979L746.917 431.426L750.466 413.813L752.972 427.004L750.466 427.632L752.972 428.454L755.462 441.286" fill="#2C392D"/>
<path opacity="0.2" d="M755.462 443.004L757.132 451.4H742.115L746.604 432.607L749.005 431.979L746.917 431.426L750.466 413.813L752.972 427.004L750.466 427.632L752.972 428.454L755.462 441.286" fill="black"/>
<path d="M544.801 430.575L546.471 438.971H531.454L535.928 420.177L538.329 419.55L536.241 418.997L539.79 401.384L542.296 414.575L539.79 415.203L542.296 416.024L544.801 428.857" fill="#2C392D"/>
<path opacity="0.2" d="M544.801 430.575L546.471 438.971H531.454L535.928 420.177L538.329 419.55L536.241 418.997L539.79 401.384L542.296 414.575L539.79 415.203L542.296 416.024L544.801 428.857" fill="black"/>
<path d="M568.065 3.54054V80.0587C568.094 80.286 568.205 80.4949 568.376 80.6464C568.548 80.7979 568.769 80.8815 568.998 80.8815C569.226 80.8815 569.447 80.7979 569.619 80.6464C569.79 80.4949 569.901 80.286 569.93 80.0587V3.54054C569.901 3.31324 569.79 3.10425 569.619 2.95277C569.447 2.80129 569.226 2.71771 568.998 2.71771C568.769 2.71771 568.548 2.80129 568.376 2.95277C568.205 3.10425 568.094 3.31324 568.065 3.54054Z" fill="#414141"/>
<path d="M567.827 10.5769C567.827 10.5769 586.528 4.40701 593.686 12.0708C600.844 19.7345 596.669 29.43 608.256 27.0099C619.843 24.5898 622.453 24.2163 628.895 31.9697C625.828 31.7052 622.747 32.2832 619.983 33.6413C617.218 34.9995 614.876 37.0866 613.207 39.6783C607.242 48.7762 595.878 46.849 590.659 44.3691C585.439 41.8892 587.079 35.5551 567.827 42.1731V10.5769Z" fill="#C6D4B8"/>
<path d="M347.443 522.854C347.449 517.42 346.178 512.06 343.734 507.209C341.289 502.358 337.74 498.152 333.371 494.93C329.003 491.707 323.94 489.56 318.59 488.662C313.24 487.764 307.754 488.139 302.576 489.758C297.397 491.377 292.672 494.194 288.782 497.981C284.892 501.769 281.946 506.42 280.183 511.559C278.42 516.698 277.889 522.18 278.633 527.563C279.377 532.946 281.375 538.078 284.465 542.543L284.704 542.842C285.611 544.136 286.607 545.364 287.686 546.517L308.565 572.048C309.289 572.932 310.207 573.637 311.247 574.11C312.286 574.582 313.421 574.809 314.562 574.773C315.703 574.737 316.821 574.439 317.829 573.902C318.837 573.365 319.708 572.603 320.376 571.675L340.911 543.066C341.179 542.708 341.448 542.349 341.686 541.991L341.821 541.797C345.506 536.17 347.461 529.583 347.443 522.854ZM312.874 539.869C309.515 539.869 306.231 538.871 303.438 537.002C300.644 535.132 298.467 532.475 297.182 529.365C295.896 526.256 295.56 522.835 296.215 519.534C296.87 516.233 298.488 513.202 300.864 510.822C303.239 508.442 306.266 506.822 309.561 506.165C312.856 505.509 316.271 505.845 319.375 507.133C322.478 508.421 325.131 510.602 326.998 513.4C328.864 516.199 329.86 519.488 329.86 522.854C329.86 527.367 328.071 531.695 324.885 534.886C321.7 538.077 317.379 539.869 312.874 539.869Z" fill="#C6D4B8"/>
<mask id="mask2_12_148" style="mask-type:luminance" maskUnits="userSpaceOnUse" x="182" y="337" width="102" height="261">
<path d="M284 337H182V598H284V337Z" fill="white"/>
</mask>
<g mask="url(#mask2_12_148)">
<path d="M187.58 545.007C187.58 545.007 184.136 577.352 184.136 577.374C184.252 583.343 184.463 588.584 184.826 591.28C184.823 591.295 184.823 591.31 184.826 591.324C184.845 591.964 185.006 592.592 185.299 593.161C185.299 593.161 185.299 593.161 185.335 593.197C187.137 594.37 222.094 594.808 223.758 594.261C225.422 593.715 224.005 588.912 222.174 587.41C220.343 585.909 214.842 577.564 214.842 577.564L217.988 545.248L187.58 545.007Z" fill="#EDDBC1"/>
<path d="M216.579 579.029C213.549 577.95 209.662 577.826 206.922 579.677C206.821 579.75 206.922 579.896 207.024 579.881C210.16 579.393 213.338 579.239 216.506 579.422C216.553 579.422 216.599 579.405 216.635 579.374C216.671 579.344 216.695 579.302 216.703 579.255C216.712 579.209 216.704 579.161 216.682 579.12C216.659 579.078 216.623 579.046 216.579 579.029Z" fill="#687969"/>
<path d="M218.621 580.749C215.591 579.67 211.696 579.546 208.964 581.397C208.855 581.47 208.964 581.616 209.066 581.601C212.19 581.116 215.356 580.962 218.512 581.142C218.564 581.157 218.619 581.15 218.666 581.123C218.713 581.097 218.748 581.052 218.762 581C218.777 580.948 218.77 580.892 218.743 580.845C218.717 580.798 218.673 580.763 218.621 580.749Z" fill="#687969"/>
<path d="M220.655 582.469C217.625 581.39 213.738 581.266 210.999 583.117C210.89 583.19 210.999 583.336 211.1 583.321C214.236 582.833 217.414 582.679 220.582 582.862C220.629 582.862 220.675 582.845 220.711 582.814C220.747 582.784 220.771 582.742 220.78 582.695C220.788 582.649 220.78 582.601 220.758 582.56C220.735 582.518 220.699 582.486 220.655 582.469Z" fill="#687969"/>
<path d="M224.557 594.458C222.893 595.012 187.144 594.37 185.321 593.197C184.594 592.767 184.289 585.799 184.114 577.374V577.105L214.842 577.046V577.571C214.842 577.571 221.12 586.113 222.966 587.614C224.811 589.116 226.228 593.919 224.557 594.458Z" fill="#414141"/>
<path d="M184.129 577.105V577.374C184.303 585.799 184.638 592.767 185.335 593.197C186.149 593.729 196.481 594.108 207.634 594.319C220.989 594.575 223.62 594.764 224.557 594.465C226.221 593.919 224.789 589.108 222.966 587.614C221.142 586.12 214.842 577.571 214.842 577.571V577.046H204.597L184.129 577.105Z" fill="#2C392D"/>
<path d="M224.041 592.607C216.012 592.33 195.493 591.798 187.537 592.14C187.471 592.14 187.471 592.184 187.537 592.191C195.486 592.636 216.005 592.92 224.034 592.738C224.208 592.731 224.208 592.607 224.041 592.607Z" fill="#687969"/>
<path opacity="0.1" d="M204.619 577.068C205.455 582.214 206.726 589.801 207.642 594.319C220.997 594.575 223.627 594.764 224.564 594.465C226.228 593.919 224.797 589.108 222.973 587.614C221.149 586.12 214.85 577.571 214.85 577.571V577.046L204.619 577.068Z" fill="black"/>
<path d="M182 577.68L216.455 577.425C216.455 577.425 219.74 517.45 221.542 498.77C223.765 475.404 226.591 417.091 226.591 417.091H197.288C197.288 417.091 190.61 431.376 194.824 447.257L190.538 504.608L182 577.68Z" fill="#687969"/>
<path d="M184.921 571.58C185.829 571.445 186.743 571.357 187.66 571.318C188.677 571.23 189.695 571.135 190.712 571.077C192.666 570.961 194.628 570.895 196.59 570.851C200.543 570.771 204.503 570.735 208.455 570.793C210.708 570.793 212.96 570.873 215.213 570.968C215.3 570.968 215.293 571.106 215.213 571.106C211.296 571.318 207.373 571.442 203.449 571.587C199.526 571.733 195.609 571.872 191.693 571.864C190.567 571.864 189.44 571.864 188.321 571.821C187.202 571.777 186.047 571.821 184.943 571.718C184.87 571.704 184.841 571.602 184.921 571.58Z" fill="#414141"/>
<path d="M214.595 540.853C215.424 531.874 216.15 522.88 216.848 513.886C218.238 495.908 219.292 477.904 220.008 459.873C220.415 449.757 220.699 439.641 220.946 429.525C220.946 429.408 221.106 429.422 221.106 429.525C221.047 447.65 220.437 465.791 219.514 483.902C218.592 502.014 217.335 519.914 215.569 537.835C214.588 547.915 213.498 557.987 212.103 568.009C212.106 568.019 212.107 568.029 212.106 568.04C212.105 568.05 212.101 568.06 212.095 568.068C212.089 568.077 212.081 568.084 212.071 568.089C212.062 568.093 212.052 568.096 212.041 568.096C212.031 568.096 212.021 568.093 212.011 568.089C212.002 568.084 211.994 568.077 211.988 568.068C211.982 568.06 211.978 568.05 211.977 568.04C211.975 568.029 211.976 568.019 211.98 568.009C212.822 558.979 213.789 549.919 214.595 540.853Z" fill="#414141"/>
<path d="M230.174 549.606C230.174 549.606 230.958 580.851 230.958 580.873C231.075 586.842 231.285 592.082 231.649 594.779C231.645 594.793 231.645 594.808 231.649 594.822C231.663 595.463 231.825 596.091 232.121 596.659L232.157 596.695C233.952 597.869 281.566 598.306 283.252 597.759C284.937 597.213 283.499 592.41 281.66 590.909C279.822 589.407 261.657 581.069 261.657 581.069L260.582 549.846L230.174 549.606Z" fill="#EDDBC1"/>
<path d="M230.798 574.459C230.798 574.459 230.958 580.851 230.958 580.873C231.075 586.842 231.285 592.082 231.649 594.779C231.645 594.793 231.645 594.808 231.649 594.822C231.734 595.451 231.893 596.067 232.121 596.659L232.157 596.695C233.952 597.869 281.566 598.306 283.252 597.76C284.937 597.213 283.499 592.41 281.66 590.909C279.822 589.407 261.657 581.069 261.657 581.069L261.584 574.554L230.798 574.459Z" fill="white"/>
<path d="M264.585 581.033C261.403 580.566 257.559 581.201 255.234 583.547C255.147 583.635 255.278 583.766 255.379 583.73C258.356 582.634 261.443 581.864 264.585 581.434C264.632 581.425 264.674 581.4 264.704 581.363C264.734 581.327 264.75 581.281 264.75 581.233C264.75 581.186 264.734 581.14 264.704 581.103C264.674 581.067 264.632 581.042 264.585 581.033Z" fill="#687969"/>
<path d="M266.918 582.323C263.735 581.857 259.891 582.491 257.566 584.837C257.479 584.925 257.61 585.056 257.704 585.02C260.684 583.925 263.773 583.155 266.918 582.724C266.964 582.715 267.006 582.69 267.036 582.653C267.066 582.617 267.083 582.571 267.083 582.523C267.083 582.476 267.066 582.43 267.036 582.393C267.006 582.357 266.964 582.332 266.918 582.323Z" fill="#687969"/>
<path d="M269.25 583.613C266.068 583.147 262.224 583.781 259.899 586.127C259.804 586.215 259.899 586.346 260.037 586.31C263.018 585.227 266.107 584.47 269.25 584.05C269.308 584.05 269.363 584.027 269.404 583.986C269.445 583.945 269.468 583.89 269.468 583.832C269.468 583.774 269.445 583.718 269.404 583.677C269.363 583.636 269.308 583.613 269.25 583.613Z" fill="#687969"/>
<path d="M283.259 597.759C281.588 598.306 233.966 597.869 232.164 596.695C231.438 596.265 231.133 589.298 230.958 580.873V580.61L261.686 580.545V581.069C261.686 581.069 279.851 589.414 281.682 590.916C283.513 592.417 284.93 597.22 283.259 597.759Z" fill="#2C392D"/>
<path d="M282.736 595.901C274.743 595.631 242.308 595.296 234.359 595.639C234.293 595.639 234.293 595.682 234.359 595.69C242.308 596.134 274.707 596.207 282.736 596.032C282.903 596.032 282.903 595.908 282.736 595.901Z" fill="#687969"/>
<path d="M212.764 449.946C212.764 449.946 222.886 494.405 223.278 502.597C223.612 509.593 228.677 581.456 228.677 581.456L264.454 581.062C264.454 581.062 255.459 507.851 254.776 500.563C253.505 486.941 245.715 449.684 236.611 416.464L198.043 417.113C198.043 417.113 198.668 434.604 206.806 447.082C206.828 447.031 210.439 448.656 212.764 449.946Z" fill="#687969"/>
<path d="M230.501 574.78C234.635 574.59 238.915 574.393 243.056 574.43C247.198 574.466 251.267 574.43 255.365 574.627C257.69 574.729 260.008 574.765 262.333 574.962C262.346 574.966 262.357 574.975 262.365 574.986C262.372 574.997 262.377 575.01 262.377 575.024C262.377 575.037 262.372 575.051 262.365 575.062C262.357 575.073 262.346 575.081 262.333 575.086C258.213 575.392 254.064 575.414 249.923 575.45C245.781 575.487 241.719 575.501 237.614 575.385C235.289 575.319 232.971 575.239 230.646 575.115C230.355 575.1 230.217 574.787 230.501 574.78Z" fill="#414141"/>
<path d="M221.621 450.631C219.841 450.646 218.062 450.515 216.303 450.238C214.557 449.877 212.83 449.427 211.129 448.889C209.451 448.539 207.752 448.296 206.043 448.161C204.325 447.943 202.648 447.474 201.066 446.769C201.053 446.766 201.039 446.769 201.027 446.775C201.015 446.781 201.005 446.79 200.998 446.802C200.992 446.814 200.989 446.828 200.991 446.842C200.993 446.855 200.999 446.868 201.008 446.878C202.541 447.671 204.138 448.334 205.782 448.86C207.489 449.37 209.262 449.414 210.991 449.808C212.739 450.299 214.515 450.679 216.31 450.945C218.078 451.132 219.863 451.071 221.614 450.763C221.716 450.733 221.687 450.631 221.621 450.631Z" fill="#414141"/>
<path d="M221.229 489.091C220.975 487.634 220.735 486.213 220.459 484.784C219.907 481.869 219.34 478.99 218.701 476.118C217.436 470.404 216.259 464.661 214.9 458.969C214.13 455.748 213.447 452.483 212.517 449.312C212.517 449.232 212.394 449.261 212.401 449.312C212.793 452.227 213.433 455.143 213.978 458.058C214.523 460.973 215.126 463.838 215.721 466.724C216.92 472.46 218.076 478.203 219.413 483.902C219.79 485.498 220.176 487.087 220.59 488.676C221.004 490.265 221.316 491.963 221.847 493.545C221.847 493.562 221.854 493.579 221.866 493.591C221.878 493.603 221.895 493.61 221.912 493.61C221.929 493.61 221.946 493.603 221.958 493.591C221.971 493.579 221.977 493.562 221.977 493.545C221.825 492.021 221.491 490.556 221.229 489.091Z" fill="#414141"/>
<path d="M235.688 436.018L239.321 452.665L242.882 469.333C244.066 474.887 245.2 480.455 246.34 486.023L248.004 494.383C248.273 495.775 248.556 497.189 248.695 498.61L249.152 502.852C250.257 514.163 251.313 525.477 252.32 536.793L253.773 553.775L255.169 570.764L253.425 553.811L251.739 536.844L248.411 502.925L247.975 498.69C247.837 497.284 247.561 495.913 247.307 494.514L245.672 486.154L242.315 469.45L238.958 452.738L235.688 436.018Z" fill="#414141"/>
<path d="M221.164 374.185C218.773 374.418 216.325 370.745 216.012 367.669C216.012 367.443 216.513 365.417 217.102 362.91C217.451 361.387 217.829 359.681 218.025 358.1L227.58 361.846C226.75 363.743 226.155 365.736 225.807 367.778C225.789 367.997 225.789 368.216 225.807 368.434C225.81 368.471 225.81 368.507 225.807 368.544C225.821 369.775 223.474 373.951 221.164 374.185Z" fill="#EDDBC1"/>
<path d="M214.443 344.769C213.142 348.989 214.828 359.564 217.814 362.261C222.137 366.226 229.243 366.634 232.6 361.408C235.856 356.35 233.559 343.006 230.224 340.52C225.313 336.891 216.368 338.538 214.443 344.769Z" fill="#EDDBC1"/>
<path d="M215.002 342.634C215.002 342.634 212.583 345.243 212.285 346.752C211.987 348.26 212.248 354.084 214.755 357.793C215.663 359.134 215.612 361.94 217.102 362.895C218.592 363.85 225.363 359.929 225.821 358.77C226.279 357.611 225.095 353.829 224.84 352.254C224.586 350.68 226.417 350.367 226.911 350.629C230.006 352.291 230.37 356.416 230.66 355.731C230.951 355.046 231.917 352.918 231.975 351.402C232.034 349.886 229.345 345.309 229.469 344.113C229.592 342.918 231.285 343.742 232.375 343.552C233.044 343.436 232.876 339.354 231.961 338.633C231.045 337.911 229.055 338.275 228.204 338.217C227.354 338.159 226.323 337.066 224.063 337.007C221.803 336.949 219.093 338.21 217.996 338.633C216.281 339.303 215.002 342.634 215.002 342.634Z" fill="#2C392D"/>
<path d="M229.549 353.632C229.549 353.632 226.984 349.835 225.276 350.717C223.569 351.598 225.458 357.101 227.456 357.874C227.704 357.99 227.972 358.055 228.246 358.065C228.519 358.075 228.792 358.029 229.047 357.93C229.302 357.831 229.535 357.682 229.731 357.491C229.927 357.299 230.083 357.07 230.188 356.817L229.549 353.632Z" fill="#EDDBC1"/>
<path d="M225.858 352.283C225.821 352.283 225.814 352.32 225.858 352.335C227.253 352.925 227.965 354.237 228.466 355.592C228.386 355.451 228.277 355.329 228.146 355.234C228.015 355.139 227.865 355.073 227.707 355.041C227.548 355.009 227.385 355.012 227.227 355.05C227.07 355.087 226.923 355.158 226.795 355.257C226.784 355.262 226.776 355.271 226.772 355.282C226.768 355.293 226.768 355.305 226.773 355.315C226.778 355.326 226.787 355.334 226.798 355.338C226.809 355.343 226.821 355.342 226.831 355.337C227.077 355.261 227.341 355.264 227.586 355.345C227.831 355.426 228.044 355.581 228.197 355.789C228.451 356.139 228.665 356.515 228.837 356.912C228.902 357.043 229.127 356.977 229.084 356.831V356.795C229.12 355.031 227.768 352.509 225.858 352.283Z" fill="#687969"/>
<path d="M188.99 434.677C189.026 434.721 199.526 438.11 203.217 438.11C203.783 438.11 205.629 431.288 206.021 431.332C206.414 431.376 207.336 438.467 207.852 438.467C219.311 438.467 243.318 435.085 243.579 434.823C243.841 434.561 239.895 419.802 239.561 417.849C237.047 403.134 233.203 376.597 227.638 369.294C225.073 365.927 217.785 364.426 215.402 366.066C209.211 370.322 206.537 375.22 204.27 380.533C202.585 384.468 195.493 411.479 194.519 415.67C193.299 420.932 188.779 434.415 188.99 434.677Z" fill="#C6D4B8"/>
<path d="M224.048 376.765C222.21 393.149 222.021 405.255 222.486 408.673C223.67 417.419 228.117 432.724 229.825 436.062C230.929 438.249 251.565 436.062 250.547 433.65C247.089 425.436 238.769 404.905 238.66 404.613C237.934 402.616 235.717 388.411 232.804 378.375C229.89 368.34 224.986 368.442 224.048 376.765Z" fill="#EDDBC1"/>
<path d="M250.184 432.622C250.184 432.622 255.764 447.731 255.161 454.283C254.856 457.57 251.31 471.046 248.033 470.273C245.062 469.544 246.973 465.222 246.973 465.222C246.973 465.222 245.33 470.171 242.613 468.56C239.895 466.95 242.896 461.513 242.896 461.513C242.896 461.513 241.516 466.891 238.769 464.887C236.379 463.153 239.205 456.528 239.205 456.528C239.205 456.528 238.37 462.358 235.754 460.798C232.847 459.1 235.841 448.634 235.841 448.634C230.392 443.256 229.527 440.18 230.028 435.049C230.079 434.196 250.184 432.622 250.184 432.622Z" fill="#EDDBC1"/>
<path d="M242.286 463.065C242.511 462.628 242.722 462.191 242.94 461.753C243.38 460.909 243.771 460.041 244.11 459.151C244.429 458.277 244.698 457.395 244.953 456.506C245.207 455.616 245.389 454.582 245.679 453.649C245.679 453.635 245.674 453.622 245.664 453.613C245.655 453.603 245.642 453.598 245.628 453.598C245.615 453.598 245.602 453.603 245.592 453.613C245.583 453.622 245.577 453.635 245.577 453.649C245.3 454.577 244.973 455.489 244.597 456.382C244.255 457.264 243.906 458.146 243.557 459.027C243.209 459.909 242.933 460.769 242.613 461.637C242.453 462.074 242.271 462.504 242.097 462.927C241.902 463.323 241.742 463.735 241.617 464.158C241.617 464.158 241.661 464.217 241.69 464.158C241.925 463.815 242.125 463.449 242.286 463.065Z" fill="#687969"/>
<path d="M246.609 466.243C247.48 464.706 248.245 463.111 248.898 461.469C249.529 459.819 249.993 458.11 250.286 456.367C250.286 456.354 250.28 456.341 250.271 456.331C250.261 456.322 250.248 456.316 250.235 456.316C250.221 456.316 250.208 456.322 250.199 456.331C250.189 456.341 250.184 456.354 250.184 456.367C249.545 458.022 248.934 459.683 248.324 461.345C248.019 462.161 246.544 465.813 246.442 466.214C246.413 466.265 246.558 466.316 246.609 466.243Z" fill="#687969"/>
<path d="M238.152 460.201C238.938 458.739 239.627 457.227 240.215 455.675C240.671 454.035 241.004 452.364 241.211 450.675C241.211 450.617 241.123 450.588 241.109 450.675C240.651 452.308 240.222 453.947 239.656 455.558C239.394 456.338 238.202 459.406 237.992 460.179C238.006 460.215 238.108 460.259 238.152 460.201Z" fill="#687969"/>
<path d="M227.492 435.749L250.191 428.883C250.191 428.883 240.019 405.852 239.016 403.914C238.014 401.975 235.638 384.235 232.411 376.043C229.185 367.851 224.804 366.466 223.343 377.428C221.883 388.39 221.745 403.454 221.941 408.338C222.137 413.221 227.492 435.749 227.492 435.749Z" fill="#C6D4B8"/>
<path d="M247.045 424.437C246.188 424.554 245.352 424.838 244.502 425.042C243.652 425.246 242.824 425.472 241.988 425.713C240.375 426.165 238.769 426.646 237.171 427.17L232.368 428.628C230.711 429.138 229.004 429.583 227.391 430.224C227.375 430.224 227.36 430.23 227.35 430.241C227.339 430.252 227.333 430.267 227.333 430.282C227.333 430.298 227.339 430.313 227.35 430.324C227.36 430.335 227.375 430.341 227.391 430.341C229.084 430.013 230.762 429.459 232.426 428.992L237.352 427.615C238.994 427.149 240.637 426.675 242.271 426.157C243.071 425.91 243.87 425.662 244.662 425.385C245.454 425.108 246.282 424.896 247.052 424.547C247.154 424.517 247.103 424.437 247.045 424.437Z" fill="#687969"/>
<path d="M229.418 435.166L227.507 435.814H227.442V435.741C226.308 431.288 225.262 426.806 224.259 422.324L222.806 415.567C222.363 413.308 221.89 411.063 221.6 408.753C221.415 406.445 221.364 404.128 221.447 401.815C221.491 399.511 221.6 397.216 221.745 394.92C222.021 390.328 222.401 385.744 222.886 381.167C222.66 385.758 222.443 390.35 222.268 394.942C222.094 399.533 221.869 404.154 222.268 408.666C222.951 413.177 223.888 417.696 224.804 422.193L227.507 435.712L227.427 435.669L229.418 435.166Z" fill="#687969"/>
<path d="M222.036 382.501L222.159 383.506L222.304 384.49C222.399 385.154 222.522 385.81 222.573 386.495C222.261 385.884 222.05 385.227 221.948 384.549C221.832 383.868 221.862 383.169 222.036 382.501Z" fill="#687969"/>
</g>
</g>
</g>
</g>
<defs>
<clipPath id="clip0_12_148">
<rect width="852" height="612" fill="white"/>
</clipPath>
</defs>
</svg>
