<svg width="852" height="612" viewBox="0 0 852 612" fill="none" xmlns="http://www.w3.org/2000/svg">
<g clip-path="url(#clip0_1_2)">
<g clip-path="url(#clip1_1_2)">
<path d="M566.604 75.6516C578.435 97.8711 590.256 120.086 602.067 142.295C604.224 146.348 606.382 150.402 608.539 154.455C608.659 154.665 608.897 155.412 609.121 155.546C609.583 155.8 609.359 154.904 609.121 154.933C608.644 155.008 607.421 157.339 607.152 157.727L583.038 191.908L562.16 221.442C562.043 221.66 562.014 221.914 562.077 222.153C562.141 222.391 562.293 222.597 562.503 222.727L598.443 247.705L655.709 287.518L668.847 296.646L669.071 294.943L649.237 298.827L603.558 307.79L552.705 317.755L517.361 324.672C515.531 324.813 513.725 325.169 511.978 325.732C510.486 326.479 509.114 328.944 508.056 330.214L500.122 339.865C497.825 342.658 495.529 345.437 493.247 348.231C492.837 348.79 492.394 349.324 491.92 349.829C492.129 349.62 492.486 349.515 492.024 349.724C489.787 350.755 487.416 351.547 485.134 352.443L450.7 366.128L402.576 385.145L357.613 402.848L332.56 412.738L331.381 413.201C331.186 413.258 331.014 413.376 330.892 413.539C330.77 413.702 330.704 413.901 330.704 414.105C330.704 414.308 330.77 414.507 330.892 414.67C331.014 414.833 331.186 414.952 331.381 415.008L340.553 417.638L365.547 424.808L402.725 435.475L447.867 448.427L497.318 462.619L547.232 476.931L593.79 490.286L633.325 501.625L661.659 509.752L670.458 512.277C671.946 512.869 673.49 513.309 675.066 513.591C675.264 513.632 675.458 513.687 675.648 513.756V511.963L666.014 514.025L639.707 519.612L600.591 527.918L552.988 537.927L500.942 548.982L448.389 560.127L399.176 570.584L357.777 579.368L327.951 585.688C323.284 586.689 318.422 587.391 313.814 588.675C313.62 588.675 313.396 588.765 313.203 588.81C312.024 589.064 312.517 590.857 313.695 590.617L323.358 588.556L349.665 582.984L388.782 574.677L436.354 564.653L488.4 553.613L540.924 542.409L590.137 531.952L631.535 523.152L661.361 516.833C666.029 515.847 670.89 515.13 675.499 513.845C675.692 513.845 675.901 513.756 676.11 513.711C676.3 513.65 676.465 513.531 676.582 513.369C676.7 513.208 676.763 513.014 676.763 512.815C676.763 512.615 676.7 512.421 676.582 512.26C676.465 512.099 676.3 511.979 676.11 511.918L666.938 509.274L641.944 502.118L604.766 491.452L559.61 478.5L510.173 464.307L460.215 450.026L413.656 436.67L374.122 425.331L345.787 417.219L336.989 414.695C335.502 414.1 333.958 413.659 332.381 413.38C332.18 413.343 331.985 413.283 331.799 413.201V415.008L349.396 408.047L391.033 391.614L439.933 372.297L479.318 356.746L490.19 352.458C491.747 352.049 493.145 351.18 494.201 349.963L508.831 332.186C509.785 331.036 510.725 329.87 511.679 328.705C511.903 328.451 513.007 327.211 512.649 327.405C512.291 327.6 513.648 327.286 513.901 327.241L542.236 321.684L591.195 312.093L640.065 302.517L668.146 297.019L669.489 296.75C670.339 296.586 670.309 295.466 669.712 295.047L633.772 270.069L576.611 230.182L563.487 221.054L563.815 222.324L605.094 163.852L610.851 155.695C610.935 155.553 610.979 155.39 610.979 155.225C610.979 155.059 610.935 154.897 610.851 154.754L596.415 127.64C588.799 113.338 581.179 99.0214 573.553 84.6898C571.794 81.3584 570.019 78.0419 568.244 74.7105C567.678 73.6498 566.067 74.5909 566.634 75.6516H566.604Z" fill="#414141"/>
</g>
</g>
<defs>
<clipPath id="clip0_1_2">
<rect width="852" height="612" fill="white"/>
</clipPath>
<clipPath id="clip1_1_2">
<rect width="1060" height="617" fill="white"/>
</clipPath>
<clipPath id="clip2_1_2">
<rect width="102" height="261" fill="white" transform="translate(182 337)"/>
</clipPath>
</defs>
</svg>
