<svg width="1920" height="1080" viewBox="0 0 1920 1080" fill="none" xmlns="http://www.w3.org/2000/svg">
<g clip-path="url(#clip0_595_10530)">
<rect width="1920" height="1080" fill="#F8F5F0"/>
<g clip-path="url(#clip1_595_10530)">
<path d="M1655.66 805.21C1820.25 415.942 1638.12 -33.0509 1248.86 -197.644C859.594 -362.237 410.608 -180.103 246.018 209.165C81.427 598.433 263.559 1047.43 652.821 1212.02C1042.08 1376.61 1491.07 1194.48 1655.66 805.21Z" fill="url(#paint0_radial_595_10530)"/>
<path d="M1481.96 835.073C1602.69 549.532 1469.09 220.181 1183.55 99.4466C898.018 -21.288 568.672 112.314 447.94 397.854C327.207 683.395 460.807 1012.75 746.343 1133.48C1031.88 1254.22 1361.22 1120.61 1481.96 835.073Z" fill="#F8F5F0"/>
<path d="M1431.81 2.073C1431.81 2.073 1429.87 1.39923 1426.23 0.595885C1421.12 -0.521002 1415.85 -0.731525 1410.66 -0.0260642C1402.94 0.996135 1395.66 4.13576 1389.61 9.04397C1382.2 15.0522 1376.96 23.3293 1374.72 32.6001V32.8593L1374.28 34.5437L1373.63 32.963C1370.03 24.1699 1363.83 16.6839 1355.85 11.5058C1349.35 7.28079 1341.87 4.79146 1334.13 4.27572C1328.89 3.89325 1323.63 4.37481 1318.56 5.70102C1314.98 6.63394 1313.08 7.4632 1313.03 7.35954C1313.46 7.1119 1313.91 6.8954 1314.38 6.71168C1315.7 6.15535 1317.05 5.6709 1318.43 5.26047C1323.48 3.78609 1328.74 3.18142 1334 3.47238C1342.01 3.84421 1349.79 6.31053 1356.55 10.6247C1364.7 15.9042 1371.04 23.5447 1374.72 32.5224H1373.63V32.2373C1375.92 22.7345 1381.31 14.2592 1388.94 8.13697C1395.14 3.14631 1402.62 0.0105744 1410.53 -0.907154C1415.82 -1.56738 1421.19 -1.24226 1426.36 0.0516857C1427.76 0.397734 1429.12 0.830486 1430.46 1.3474C1430.95 1.52125 1431.4 1.76578 1431.81 2.073Z" fill="#EBEBEB"/>
<path fill-rule="evenodd" clip-rule="evenodd" d="M79.1919 534.557L258.418 332.425H289.872L359.658 273.677L393.863 283.24L440.369 340.484L464.375 335.016L690.731 557.673C690.731 557.673 750.914 613.492 755.015 616.239C756.831 617.431 586.325 621.085 417.142 623.521C204.178 626.579 -32.9219 613.544 -32.9219 613.544L79.1919 534.557Z" fill="#ECEDDF"/>
<path fill-rule="evenodd" clip-rule="evenodd" d="M1306.36 544.51L1485.59 342.377H1517.07L1586.83 283.474L1621.03 293.036L1667.57 350.437L1691.57 344.969L1917.93 567.651C1917.93 567.651 1978.09 623.445 1982.19 626.192C1984 627.41 1813.5 631.038 1644.31 633.474C1431.51 636.532 1194.25 623.497 1194.25 623.497L1306.36 544.51Z" fill="#ECEDDF"/>
<path d="M386.599 26.2299C386.623 26.3572 384.535 25.9382 380.815 25.8309C375.582 25.6908 370.365 26.482 365.409 28.1674C358.017 30.6202 351.45 35.0712 346.437 41.0259C340.299 48.3274 336.721 57.4339 336.251 66.9541L336.3 67.2086L336.183 68.9459L335.244 67.4895C330.058 59.5281 322.561 53.3389 313.756 49.7494C306.574 46.8275 298.763 45.7861 291.063 46.7239C285.853 47.3449 280.779 48.8045 276.036 51.0458C272.693 52.6342 270.993 53.8297 270.943 53.7073C271.312 53.3702 271.716 53.0721 272.147 52.8177C273.336 52.0191 274.574 51.2977 275.856 50.658C280.529 48.2334 285.593 46.6498 290.815 45.9798C298.662 44.8883 306.658 45.8716 314.003 48.8315C323.008 52.472 330.672 58.791 335.956 66.9313L334.886 67.1358L334.837 66.8812C335.317 57.1115 339.012 47.7714 345.349 40.3103C350.512 34.2581 357.273 29.7758 364.861 27.375C369.934 25.7337 375.268 25.0458 380.591 25.3462C382.035 25.4215 383.472 25.5965 384.892 25.87C385.469 25.9448 386.04 26.0651 386.599 26.2299Z" fill="#232E24"/>
<path d="M647.192 42.9563C647.192 42.9563 646.063 42.8554 644.023 42.8232C641.155 42.7887 638.302 43.2446 635.587 44.1708C631.561 45.5344 627.987 47.9788 625.259 51.236C621.921 55.2584 619.991 60.2596 619.763 65.4775L619.645 67.2148L618.711 65.7839C615.881 61.4545 611.811 58.0768 607.031 56.0903C603.109 54.4648 598.839 53.8557 594.618 54.3196C591.774 54.6556 588.998 55.4261 586.388 56.6041C584.543 57.4579 583.601 58.06 583.535 57.9933C583.719 57.7817 583.934 57.5984 584.171 57.4497C584.823 56.9957 585.504 56.5838 586.208 56.2164C589.45 54.5175 593.02 53.5359 596.676 53.3384C600.331 53.1408 603.986 53.732 607.391 55.0717C612.409 57.0648 616.686 60.561 619.634 65.08L618.693 65.5499L618.664 65.3972C618.925 59.9686 620.981 54.7788 624.511 50.6401C626.926 47.8669 629.949 45.6869 633.344 44.2696C636.739 42.8522 640.415 42.2357 644.087 42.4679C644.882 42.5246 645.672 42.6382 646.451 42.8078C646.929 42.822 647.208 42.9006 647.192 42.9563Z" fill="#232E24"/>
<path d="M483.472 104.572C482.789 105.902 482.03 107.193 481.198 108.436C472.3 123.558 469.262 141.41 472.658 158.612L472.751 159.096L471.655 159.305C469.211 152.442 465.595 146.054 460.967 140.425C454.612 132.716 446.559 126.58 437.434 122.495C434.834 121.33 433.332 120.799 433.354 120.636C433.376 120.474 433.736 120.563 434.466 120.925C435.196 121.287 436.258 121.454 437.581 122.019C441.347 123.571 444.934 125.521 448.284 127.836C459.605 135.307 468.186 146.251 472.736 159.019L471.64 159.229L471.552 158.77C468.906 145.418 470.23 131.583 475.363 118.969C476.884 115.166 478.771 111.519 480.997 108.078C481.741 106.854 482.472 105.976 482.91 105.365C483.067 105.081 483.256 104.815 483.472 104.572Z" fill="#232E24"/>
<path d="M1918.7 1163.81L0.673828 1167V615.411H1919.71L1918.7 1163.81Z" fill="#ECEDDF"/>
<path d="M1664.71 964.169C1664.71 964.557 1610.62 964.842 1543.9 964.842C1477.18 964.842 1423.07 964.557 1423.07 964.169C1423.07 963.78 1477.15 963.495 1543.9 963.495C1610.65 963.495 1664.71 963.806 1664.71 964.169Z" fill="#F8F5F0"/>
<path d="M1746.43 974.122C1746.43 974.484 1692.32 974.795 1625.62 974.795C1558.93 974.795 1504.79 974.484 1504.79 974.122C1504.79 973.759 1558.88 973.448 1625.62 973.448C1692.37 973.448 1746.43 973.733 1746.43 974.122Z" fill="#F8F5F0"/>
<path d="M149.873 -67.7708L222.747 -61.3181L357.309 6.03336L221.19 -67.7708H149.873Z" fill="#F8F5F0"/>
<path d="M385.832 7.33337L426.655 22.3378L430.262 37.5495L432.183 24.385L459.744 34.5176L416.248 14.5635L385.832 7.33337Z" fill="#F8F5F0"/>
<path d="M1.84267 594.654C1.81286 594.395 1.81286 594.134 1.84267 593.876L2.33577 591.57C2.82886 589.471 3.50362 586.542 4.38599 582.811C6.2286 575.036 8.87573 564.152 12.1717 550.625L38.1239 444.583C40.5894 434.632 43.003 424.888 45.3387 415.507V415.352H45.4684L104.691 349.011L122.209 329.575L126.959 324.393L128.23 323.071L128.671 322.656C128.671 322.656 128.671 322.838 128.308 323.149L127.14 324.548L122.573 329.886L105.652 349.452L46.6363 416.104V415.844C44.3265 425.225 41.913 434.943 39.4475 444.894C29.0666 486.357 19.7757 523.674 13.0021 550.858C9.62835 564.334 7.03312 575.27 4.95694 582.94C3.97076 586.646 3.21814 589.549 2.67315 591.648C2.41362 592.581 2.20601 593.306 2.02434 593.902C2.00176 594.16 1.94052 594.414 1.84267 594.654Z" fill="#B3A794"/>
<path opacity="0.1" fill-rule="evenodd" clip-rule="evenodd" d="M1325.59 567.965C1329.38 569.235 1587.71 523.91 1587.71 523.91L1619.19 547.803L1915.54 470.656L1916.91 511.679L1602.89 561.668L1580.05 547.803L1318.66 594.112L1246.15 573.381" fill="black"/>
<path fill-rule="evenodd" clip-rule="evenodd" d="M411.706 425.255L396.031 381.978L383.677 416.677L373.945 391.566L373.867 390.167L358.192 346.89L340.389 396.905L339.792 396.594L331.202 352.539L326.349 389.493L307.326 379.412L294.921 315.767L287.913 369.15L285.863 368.088L281.737 351.891L281.607 349.559L264.219 277.206L250.283 349.274L209.512 327.713L197.106 264.042L189.502 322.012L172.114 249.737L157.581 324.966L154.415 325.174L147.019 296.176L146.889 293.843L129.501 221.49L108.895 327.998L99.5 328.594L87.2246 265.571L79.1016 327.402L63.2966 261.632L49.7496 331.73L32.8027 332.793L25.6399 304.831L25.4582 301.488L0.673828 198.297V609.351L704.992 622.93L523.249 493.565L521.536 492.658L518.525 484.884L511.596 487.398L510.766 486.957L518.447 483.485L502.772 440.234L490.03 475.995L482.374 471.953L468.126 416.211L452.529 424.996L467.996 413.879L450.608 341.526L430.677 444.613L415.65 436.683L411.784 426.654" fill="#2C392D"/>
<path opacity="0.3" fill-rule="evenodd" clip-rule="evenodd" d="M411.706 425.255L396.031 381.978L383.677 416.677L373.945 391.566L373.867 390.167L358.192 346.89L340.389 396.905L339.792 396.594L331.202 352.539L326.349 389.493L307.326 379.412L294.921 315.767L287.913 369.15L285.863 368.088L281.737 351.891L281.607 349.559L264.219 277.206L250.283 349.274L209.512 327.713L197.106 264.042L189.502 322.012L172.114 249.737L157.581 324.966L154.415 325.174L147.019 296.176L146.889 293.843L129.501 221.49L108.895 327.998L99.5 328.594L87.2246 265.571L79.1016 327.402L63.2966 261.632L49.7496 331.73L32.8027 332.793L25.6399 304.831L25.4582 301.488L0.673828 198.297L0.725733 609.066L704.992 622.93L523.249 493.565L521.536 492.658L518.525 484.884L511.596 487.398L510.766 486.957L518.447 483.485L502.772 440.234L490.03 475.995L482.374 471.953L468.126 416.211L452.529 424.996L467.996 413.879L450.608 341.526L430.677 444.613L415.65 436.683L411.784 426.654" fill="black"/>
<path fill-rule="evenodd" clip-rule="evenodd" d="M1546.86 440.646L1561.08 401.437L1572.27 432.872L1581.09 410.119L1581.17 408.849L1595.36 369.641L1611.5 414.939L1612.05 414.654L1619.81 374.746L1624.22 408.227L1641.45 399.105L1652.69 341.394L1659.05 389.802L1660.92 388.817L1664.65 374.15L1664.76 372.051L1680.54 306.461L1693.15 371.765L1730.11 352.252L1741.34 294.541L1748.25 347.095L1764 281.557L1777.18 349.738L1780.04 349.92L1786.73 323.668L1786.86 321.543L1802.62 255.98L1821.28 352.511L1829.79 353.029L1840.92 295.914L1848.29 351.967L1862.62 292.364L1874.89 355.88L1890.26 356.839L1896.75 331.495L1896.9 328.488L1919.38 234.938L1919.56 607.457L1281.05 619.766L1445.77 502.529L1447.33 501.726L1450.06 494.677L1456.36 496.958L1457.09 496.543L1450.11 493.408L1464.33 454.199L1475.88 486.644L1482.83 482.964L1495.73 432.431L1509.85 440.413L1495.84 430.332L1511.61 364.743L1529.68 458.19L1543.28 451.012L1546.81 441.916" fill="#2C392D"/>
<path opacity="0.3" fill-rule="evenodd" clip-rule="evenodd" d="M1546.86 440.646L1561.08 401.437L1572.27 432.872L1581.09 410.119L1581.17 408.849L1595.36 369.641L1611.5 414.939L1612.05 414.654L1619.81 374.746L1624.22 408.227L1641.45 399.105L1652.69 341.394L1659.05 389.802L1660.92 388.817L1664.65 374.15L1664.76 372.051L1680.54 306.461L1693.15 371.765L1730.11 352.252L1741.34 294.541L1748.25 347.095L1764 281.557L1777.18 349.738L1780.04 349.92L1786.73 323.668L1786.86 321.543L1802.62 255.98L1821.28 352.511L1829.79 353.029L1840.92 295.914L1848.29 351.967L1862.62 292.364L1874.89 355.88L1890.26 356.839L1896.75 331.495L1896.9 328.488L1919.38 234.938L1919.56 607.457L1281.05 619.766L1445.77 502.529L1447.33 501.726L1450.06 494.677L1456.36 496.958L1457.09 496.543L1450.11 493.408L1464.33 454.199L1475.88 486.644L1482.83 482.964L1495.73 432.431L1509.85 440.413L1495.84 430.332L1511.61 364.743L1529.68 458.19L1543.28 451.012L1546.81 441.916" fill="black"/>
<path fill-rule="evenodd" clip-rule="evenodd" d="M1584.46 526.317L1571.1 465.781L1559.78 506.026L1553.24 485.606L1515.04 587.268L1584.46 584.132V526.317Z" fill="#232E24"/>
<path fill-rule="evenodd" clip-rule="evenodd" d="M1762 573.459L1748.07 544.85L1729.35 535.313L1745.68 538.475L1724.55 486.724L1714.54 482.552H1723.26L1694.94 410.354L1676.02 486.724L1696.03 470.838L1696.68 479.675L1676.02 491.907V494.809L1697.8 482.552L1674.49 500.795L1656.14 579.964L1762 573.459Z" fill="#232E24"/>
<path fill-rule="evenodd" clip-rule="evenodd" d="M1256.69 609.502L1251.11 598.048L1243.63 594.239L1250.15 595.509L1241.71 574.777L1237.72 573.119H1241.19L1229.85 544.224L1222.3 574.777L1230.29 568.428L1230.55 571.978L1222.3 576.85V578.016L1230.99 573.119L1221.68 580.426L1214.33 612.094L1256.69 609.502Z" fill="#232E24"/>
<path fill-rule="evenodd" clip-rule="evenodd" d="M1651.47 580.194L1634.86 542.852L1610.93 531.216L1610.34 526.888L1631.83 536.425L1630.94 531.449L1610.93 521.446L1629.44 526.215L1598.3 441.63L1589.06 482.549L1600.68 479.906L1589.16 483.482L1587.4 495.143L1599.62 484.907L1599.83 487.395L1587.27 496.75L1571.28 584.652L1651.47 580.194Z" fill="#232E24"/>
<path fill-rule="evenodd" clip-rule="evenodd" d="M1843.73 557.517L1827.12 520.175L1803.16 508.513L1802.59 504.211L1824.08 513.748L1823.2 508.746L1803.16 498.769L1821.67 503.538L1790.55 418.953L1781.29 459.846L1792.94 457.203L1781.39 460.805L1779.65 472.466L1791.85 462.204L1792.06 464.692L1779.49 474.073L1763.51 561.975L1843.73 557.517Z" fill="#232E24"/>
<path fill-rule="evenodd" clip-rule="evenodd" d="M1504.37 584.651L1480.6 499.885L1471.96 542.281L1482.31 548.138L1471.96 543.629L1462.56 586.154L1504.37 584.651Z" fill="#232E24"/>
<path fill-rule="evenodd" clip-rule="evenodd" d="M1919.53 513.153L1899.76 438.26L1891.12 480.63L1900.28 473.297L1891.12 482.004L1881.72 524.529L1919.53 513.153Z" fill="#232E24"/>
<path fill-rule="evenodd" clip-rule="evenodd" d="M1463.06 581.906L1447.12 575.505L1397.48 587.27H1359.92L1339.94 595.9L1462.57 586.156L1463.06 581.906Z" fill="#232E24"/>
<path fill-rule="evenodd" clip-rule="evenodd" d="M1812.79 533.033H1809.88L1779.57 543.917L1629.05 553.609L1613.22 560.217H1597.91L1568.74 575.014C1383.83 594.32 1163.54 611.294 953.98 612.486C567.447 614.585 158.517 505.201 0.701172 454.823V646.952L1919.56 620.001V504.216L1812.79 533.033Z" fill="#232E24"/>
<path fill-rule="evenodd" clip-rule="evenodd" d="M414.406 551.22L424.346 489.958L437.919 529.478L443.291 508.669L487.15 607.843L417.676 608.931L414.406 551.22Z" fill="#232E24"/>
<path fill-rule="evenodd" clip-rule="evenodd" d="M326.038 531.089L301.773 514.296L324.195 525.206L324.014 522.278L323.728 517.121L300.527 442.047L276.339 515.851L285.033 515.307L275.275 520.101L257.109 573.044L273.225 568.872L255.059 579.549L242.783 608.961L348.798 608.987L326.038 531.089Z" fill="#232E24"/>
<path fill-rule="evenodd" clip-rule="evenodd" d="M353.471 608.935L367.952 570.659L391.205 557.547L391.543 553.219L370.651 564.051L371.222 558.998L390.66 547.803L372.468 553.711L398.783 467.365L410.306 507.636L398.524 505.718L410.254 508.568L412.668 520.126L399.899 510.616L399.821 513.129L412.901 521.707L433.793 608.494L353.471 608.935Z" fill="#232E24"/>
<path fill-rule="evenodd" clip-rule="evenodd" d="M219.712 464.952L219.478 463.345L217.065 451.813L205.334 448.937L217.117 450.88L205.594 410.609L179.278 496.93L197.471 491.048L178.033 502.243L177.462 507.296L198.353 496.438L198.016 500.791L174.763 513.878L160.281 552.18L240.603 551.713L219.712 464.952Z" fill="#232E24"/>
<path fill-rule="evenodd" clip-rule="evenodd" d="M497.66 613.338L516.605 527.25L527.635 569.05L517.617 575.554L527.713 570.397L539.469 612.275L497.66 613.338Z" fill="#232E24"/>
<path fill-rule="evenodd" clip-rule="evenodd" d="M36.7227 512.533L53.4359 386.693L65.5816 448.343L55.7197 457.594L65.6854 450.338L78.5577 512.144L36.7227 512.533Z" fill="#232E24"/>
<path fill-rule="evenodd" clip-rule="evenodd" d="M79.8555 592.504L98.8006 506.417L109.83 548.191L100.28 541.453L109.908 549.564L121.665 591.442L79.8555 592.504Z" fill="#232E24"/>
<path fill-rule="evenodd" clip-rule="evenodd" d="M545.361 609.427L560.933 602.042L611.15 610.749L648.625 608.468L669.076 615.828L546.088 613.625L545.361 609.427Z" fill="#232E24"/>
<path d="M477.261 743.557L817.962 741.302C830.03 741.302 845.471 743.608 847.989 755.529C848.506 758.606 848.142 761.766 846.939 764.645C845.736 767.524 843.743 770.006 841.189 771.803C833.404 777.841 823.334 778.1 813.784 778.282L670.138 780.873L672.733 782.117C687.085 789.166 682.413 812.1 666.453 811.167C519.2 802.486 435.478 781.884 294.946 781.262C301.123 788.855 272.29 795.696 281.659 798.521C291.728 801.527 302.42 812.126 295.361 821.403C293.783 823.403 291.72 824.968 289.368 825.952C287.016 826.935 284.453 827.305 281.918 827.027L167.443 816.661C175.228 815.262 182.132 824.176 180.678 831.951C179.225 839.725 161.474 844.908 153.766 846.67C146.058 848.432 126.334 845.115 118.419 844.467C15.3105 836.123 11.4696 833.428 3.2168 806.295L23.1481 747.029L477.261 743.557Z" fill="#F8F5F0"/>
<path d="M757.052 764.448L743.843 747.811L701.904 738.041L671.436 693.287L595.603 681.237L310.622 651.98L297.957 637.649L0.673828 603.339V777.665L757.052 764.448Z" fill="#DDD1BC"/>
<path d="M540.274 768.693C535.662 761.257 531.426 753.594 527.583 745.733C523.333 738.088 519.487 730.225 516.061 722.177C520.691 729.599 524.936 737.254 528.777 745.111C533.011 752.77 536.848 760.641 540.274 768.693Z" fill="#B3A794"/>
<path d="M254.877 806.325C254.28 804.615 216.364 737.471 216.364 737.471L91.118 679.526L46.2985 693.883L0.648438 777.664V806.584L254.877 806.325Z" fill="#DDD1BC"/>
<path d="M254.877 806.323H253.579H249.946H235.724L182.574 806.582L0.57095 807.074H0V777.506V777.35C5.81331 766.622 11.9899 755.323 18.1666 743.817L45.5462 693.543L45.676 693.31H45.9355L90.755 679.005H90.9886H91.2222L216.546 736.976V737.105C228.613 758.718 238.216 775.977 244.808 787.768L252.256 801.373L254.099 804.923C254.514 805.778 254.669 806.167 254.669 806.167C253.009 803.265 239.929 780.253 215.741 737.546L215.949 737.727L90.5993 679.938H91.0665L46.2729 694.295L46.6362 693.984L19.2825 744.258L1.11595 777.791V777.454V806.374L0.441189 805.701L181.899 805.856H235.257H249.609H253.346L254.877 806.323Z" fill="#B3A794"/>
<path d="M742.287 747.345C742.287 747.345 733.671 752.89 732.192 752.527C730.712 752.165 639.957 758.021 639.957 758.021L556.91 752.683C556.91 752.683 585.458 744.909 587.56 745.194C589.662 745.479 665.676 745.194 668.635 745.194C671.593 745.194 701.879 737.964 701.879 737.964L742.287 747.345Z" fill="#2C392D"/>
<path d="M672.32 693.287L668.817 697.589L635.079 700.906C635.079 700.906 569.575 690.333 568.459 690.333C567.343 690.333 516.555 695.827 515.179 695.516C513.804 695.205 451.259 689.115 407.166 685.798C363.073 682.481 209.124 696.812 208.008 696.812C206.893 696.812 149.953 679.475 149.953 679.475L0.624003 664.833C0.624003 664.833 0.208766 629.693 0.624003 628.76C0.624003 628.76 211.668 666.777 229.289 664.574C246.911 662.371 311.454 651.98 311.454 651.98L571.288 675.303L672.32 693.287Z" fill="#2C392D"/>
<path d="M667.907 697.589L668.634 745.271L620.311 745.426L634.091 700.88L667.907 697.589Z" fill="#B3A794"/>
<path d="M449.416 707.333C450.818 708.033 504.539 715.107 504.539 715.107L516.061 721.612H422.633L364.396 707.437C364.396 707.437 448.041 706.633 449.416 707.333Z" fill="#2C392D"/>
<path d="M107.858 444.198L121.847 517.665L107.858 521.19L121.847 525.699L135.809 597.145L118.343 600.669L135.809 606.707L145.126 653.483H61.248L86.3179 548.84L99.7093 545.342L88.0567 542.31L107.858 444.198Z" fill="#2C392D"/>
<path d="M391.387 542.125L399.562 585.091L391.387 587.138L399.562 589.807L407.737 631.581L397.511 633.629L407.737 637.179L413.187 664.544H364.137L378.774 603.335L386.611 601.262L379.786 599.499L391.387 542.125Z" fill="#2C392D"/>
<path d="M314.748 664.547L333.122 587.737L342.958 585.146L334.394 582.917L348.953 510.901L359.204 564.829L348.953 567.42L359.204 570.737L369.455 623.162L356.635 625.754L369.455 630.185L376.307 664.547" fill="#2C392D"/>
<path d="M376.307 664.547C376.225 664.365 376.164 664.173 376.126 663.977L375.736 662.241C375.373 660.66 374.906 658.431 374.283 655.555L369.093 630.262L369.352 630.573L356.506 626.194L354.793 625.546L356.454 625.209L369.274 622.617L368.885 623.188C365.875 608.08 362.371 590.276 358.504 570.789L358.919 571.255L348.538 567.938L346.436 567.264L348.59 566.72L358.841 564.129L358.374 564.88C355.779 550.938 352.872 536.063 349.94 520.826C349.317 517.561 348.694 514.295 348.097 511.056H349.602C344.412 536.97 339.377 561.33 334.991 583.046L334.55 582.347L343.088 584.575L345.243 585.145L343.088 585.715L333.253 588.307L333.642 587.918L320.069 643.686L316.202 659.235L315.138 663.303C315.04 663.772 314.901 664.232 314.723 664.677C314.768 664.195 314.855 663.718 314.982 663.251C315.19 662.266 315.501 660.893 315.865 659.157C316.721 655.503 317.915 650.242 319.446 643.608C322.612 630.107 327.232 610.904 332.578 587.737V587.4H332.889L342.725 584.808V585.949L334.161 583.746L333.616 583.59V583.046C337.976 561.304 342.881 536.919 348.097 511.004L348.772 507.635L349.421 511.03C350.018 514.244 350.641 517.509 351.263 520.8C354.196 536.115 356.999 550.99 359.646 564.854L359.776 565.476L359.179 565.632L348.798 568.223V566.979L359.179 570.322L359.542 570.452V570.789C363.331 590.328 366.757 608.131 369.69 623.265V623.758H369.196L356.35 626.349V625.468L369.17 629.951H369.378V630.159L374.231 655.529C374.776 658.405 375.191 660.712 375.477 662.267C375.477 662.966 375.685 663.536 375.762 664.003L376.307 664.547Z" fill="#232E24"/>
<path d="M245.69 490.453L258.355 556.924L245.69 560.111L258.355 564.205L270.993 628.862L255.189 632.049L270.993 637.517L279.428 679.861H203.518L226.2 585.144L238.32 581.957L227.783 579.236L245.69 490.453Z" fill="#2C392D"/>
<path d="M433.298 798.836L459.251 794.638L366.471 700.906L345.709 690.281C345.709 690.281 332.578 689.426 334.005 690.281C335.432 691.136 433.298 798.836 433.298 798.836Z" fill="#B3A794"/>
<path d="M294.922 791.71C295.207 790.855 297.517 737.575 297.517 737.575L334.032 690.333L433.325 798.889L294.922 791.71Z" fill="#DDD1BC"/>
<path d="M294.921 791.705H295.648H297.672L305.458 792.016L334.265 793.338L433.377 798.106L432.884 799.169L391.36 753.948L333.512 690.613H334.447L297.802 737.829V737.57C296.972 754.363 296.297 767.89 295.804 777.271C295.544 781.884 295.311 785.46 295.155 787.974C295.155 789.14 294.973 790.047 294.921 790.747C294.896 791.061 294.844 791.374 294.766 791.68C294.766 788.207 295.596 770.456 296.868 737.518V737.389V737.259L333.201 689.888L333.642 689.318L334.135 689.836C351.601 708.935 371.299 730.418 392.087 753.093L433.429 798.365L434.493 799.532H432.935L333.668 793.986L305.121 792.327L297.543 791.887L295.596 791.731L294.921 791.705Z" fill="#B3A794"/>
<path d="M663.99 789.118L581.825 659.443H562.283L536.434 682.973L511.131 789.118H663.99Z" fill="#DDD1BC"/>
<path d="M663.964 789.115H661.161H652.83L621.35 789.271L511.131 789.634H510.326L510.508 788.856C516.373 764.186 522.809 737.157 529.505 708.91C531.633 700.048 533.709 691.288 535.759 682.711V682.503H535.915L561.867 658.999L562.075 658.818H582.214L582.396 659.103L641.333 752.809L658.124 779.605L662.562 786.705L663.678 788.519C663.81 788.706 663.924 788.906 664.015 789.115L663.574 788.467L662.355 786.602L657.761 779.423C653.712 773.152 647.899 764.056 640.581 752.628L581.306 659.777L581.851 660.087H562.309L562.75 659.932L536.798 683.462L536.979 683.125C534.955 691.703 532.853 700.462 530.751 709.325C524.003 737.571 517.567 764.6 511.676 789.245L511.053 788.467L620.727 788.83L652.415 789.012H660.901H663.886L663.964 789.115Z" fill="#B3A794"/>
<path d="M562.256 659.443C562.256 659.443 635.856 789.015 637.336 789.015H663.963L581.798 659.443H562.256Z" fill="#B3A794"/>
<path opacity="0.2" d="M526.571 724.279L547.307 730.809L593.528 714.276L618.598 717.515L626.384 729.773L595.033 718.992L549.072 732.883H545.828L525.17 730.188L526.571 724.279Z" fill="black"/>
<path opacity="0.2" d="M516.787 765.354L550.499 772.274L642.241 754.807L644.473 758.332L551.356 775.124L514.971 773.025L516.787 765.354Z" fill="black"/>
<path d="M320.665 824.152C318.178 823.742 315.628 824.301 313.542 825.714C311.456 827.127 309.992 829.286 309.454 831.745C309.053 834.232 309.414 836.782 310.488 839.062C311.562 841.341 313.3 843.244 315.475 844.521C317.681 845.748 320.127 846.484 322.645 846.676C325.163 846.868 327.693 846.513 330.06 845.635C332.259 844.995 334.184 843.646 335.536 841.8C336.203 840.565 336.576 839.193 336.625 837.79C336.675 836.388 336.4 834.993 335.821 833.714C334.884 831.436 333.365 829.444 331.416 827.934C329.467 826.425 327.157 825.451 324.714 825.111" fill="#F8F5F0"/>
<path d="M515.127 816.895C515.167 817.604 515.425 818.283 515.867 818.84C516.308 819.396 516.911 819.803 517.592 820.005C554.764 831.14 593.064 838.094 631.782 840.736C637.712 841.437 643.718 841.104 649.534 839.752C653.207 838.715 656.533 836.71 659.162 833.947C659.615 833.466 659.92 832.866 660.041 832.218C660.162 831.569 660.094 830.899 659.846 830.288C659.597 829.677 659.178 829.15 658.638 828.769C658.098 828.389 657.46 828.171 656.8 828.142C610.714 825.709 564.796 820.752 519.253 813.293C518.733 813.183 518.194 813.195 517.68 813.329C517.165 813.463 516.689 813.715 516.288 814.064C515.888 814.414 515.574 814.851 515.373 815.343C515.171 815.834 515.087 816.366 515.127 816.895Z" fill="#F8F5F0"/>
<path d="M297.957 637.649L218.517 667.269L0.673828 635.291V603.339L297.957 637.649Z" fill="#2C392D"/>
<path opacity="0.2" d="M309.402 722.181L350.147 726.12L378.565 713.033L373.686 708.109L348.59 723.58L313.295 717.102L309.402 722.181Z" fill="black"/>
<path opacity="0.2" d="M296.037 770.534L329.619 760.116L399.561 773.617L407.684 770.793L421.283 756.177L425.409 760.349L409.241 772.529L400.781 778.515L329.619 764.962L294.947 781.262L296.427 772.374" fill="black"/>
<path d="M216.391 737.471L91.1191 679.526L196.745 743.172L206.944 806.506L254.878 806.325L216.391 737.471Z" fill="#B3A794"/>
<path opacity="0.2" d="M37.2669 711.293L66.567 717.098L135.211 707.017L140.868 702.016L149.329 705.747L139.908 708.935L65.8923 726.116L31.9727 721.503L37.2669 711.293Z" fill="black"/>
<path opacity="0.2" d="M0.673828 777.405L67.9421 761.079L199.546 773.725L228.457 759.083L233.621 768.076L202.868 781.266L67.9421 766.21L0.673828 790.258V777.405Z" fill="black"/>
<path d="M144.84 824.439C143.127 823.817 136.094 800.702 115.254 781.085C99.9532 767.355 83.4508 755.022 65.9449 744.234L39.1103 763.774L16.6875 821.874L144.84 824.439Z" fill="#DDD1BC"/>
<path d="M144.84 824.436L108.792 823.917C86.0321 823.606 53.7734 823.244 16.7136 822.518H15.7793L16.1167 821.637L30.8576 783.465L38.6432 763.563V763.381L38.799 763.252L65.6595 743.738L65.9969 743.479L66.3603 743.712C79.4219 751.827 91.956 760.76 103.887 770.456C108.962 774.51 113.814 778.835 118.42 783.413C122.339 787.442 125.932 791.775 129.165 796.37C133.756 802.829 137.752 809.69 141.103 816.869C142.109 819.506 143.37 822.041 144.866 824.436C144.554 824.695 143.153 821.974 140.713 817.05C137.231 809.984 133.159 803.222 128.542 796.837C125.266 792.348 121.658 788.112 117.746 784.165C113.127 779.6 108.276 775.275 103.212 771.208C91.2602 761.626 78.7274 752.79 65.6855 744.749H66.3862L39.5775 764.314L39.8111 764.029C37.2159 770.534 34.6206 777.194 32.0254 783.931L17.4143 822.103L16.8174 821.196C53.436 821.948 85.2275 822.881 108.117 823.477L144.84 824.436Z" fill="#B3A794"/>
<path d="M65.9961 744.234L87.4846 781.292L81.5675 788.626L95.8931 792.046L110.842 823.766L144.787 824.439C144.787 824.439 135.263 806.533 125.297 792.046C115.046 777.016 65.9961 744.234 65.9961 744.234Z" fill="#B3A794"/>
<path opacity="0.2" d="M29.0937 789.895L88.8358 802.826L99.4502 799.639L119.667 785.49L125.377 792.046L101.812 804.589L91.1196 813.918L23.5918 804.174L29.0937 789.895Z" fill="black"/>
<path d="M208.033 696.862L252.282 772.765L284.333 772.247L226.978 695.229L208.033 696.862Z" fill="#B3A794"/>
<path d="M422.58 721.505L433.324 759.081L431.144 724.278L472.824 721.505H422.58Z" fill="#B3A794"/>
<path d="M388.662 685.354L398.264 708.107L447.703 707.019L422.582 696.731L413.187 686.313L396.629 685.354H388.662Z" fill="#B3A794"/>
<path d="M1811.44 639.487L1781.93 516.212L1766.15 512.066L1779.88 508.516L1756.55 392.938L1740.07 479.466L1756.55 483.612L1740.07 488.95L1723.59 573.12L1744.2 577.267L1723.59 584.367L1712.62 639.487" fill="#2C392D"/>
<path d="M1712.62 639.511C1712.62 639.511 1712.62 639.174 1712.62 638.552C1712.62 637.93 1712.9 636.972 1713.11 635.779C1713.58 633.188 1714.28 629.664 1715.16 624.973C1717 615.488 1719.67 601.65 1722.94 584.288V584.08H1723.18L1743.73 576.902V577.783L1723.49 573.715H1723V573.222C1727.69 548.966 1733.38 520.383 1739.35 489.026V488.663H1739.71L1756.21 483.014V484.232L1739.74 480.086L1739.14 479.956V479.334C1743.37 456.97 1747.91 433.077 1752.58 408.484C1753.6 403.302 1754.6 398.075 1755.57 392.806L1756.21 389.411L1756.92 392.806C1765.27 434.269 1773.16 473.529 1780.27 508.384V508.954L1779.73 509.084L1766 512.634V511.52L1782.17 515.666H1782.48V515.977C1791.3 553.216 1798.6 584.054 1803.71 605.615C1806.3 616.344 1808.17 624.766 1809.52 630.571C1810.14 633.421 1810.66 635.598 1811 637.127C1811.34 638.656 1811.44 639.407 1811.44 639.407C1811.44 639.407 1811.21 638.656 1810.84 637.179C1810.48 635.702 1809.91 633.473 1809.18 630.648C1807.76 624.87 1805.71 616.473 1803.08 605.771C1797.89 584.21 1790.39 553.424 1781.39 516.236L1781.8 516.651L1766.03 512.531L1763.87 511.961L1766.03 511.39L1779.73 507.814L1779.29 508.514C1772.23 473.685 1764.31 434.502 1755.93 392.962H1757.25C1756.27 398.145 1755.25 403.327 1754.27 408.64C1749.57 433.233 1745.03 457.1 1740.75 479.49L1740.28 478.738L1756.73 482.885L1758.91 483.429L1756.79 484.128L1740.31 489.441L1740.72 488.974C1734.54 520.279 1728.91 548.863 1724.14 573.118L1723.75 572.522L1744.33 576.721L1745.96 577.057L1744.38 577.602L1723.77 584.65L1724.03 584.339C1720.48 601.728 1717.68 615.437 1715.76 624.947C1714.77 629.612 1714.02 633.214 1713.5 635.702C1713.24 636.894 1713.06 637.801 1712.9 638.475C1712.83 638.825 1712.73 639.171 1712.62 639.511Z" fill="#232E24"/>
<path d="M1856.31 642.546C1854.25 640.85 1852.49 638.807 1851.12 636.508C1849.43 634.475 1848.08 632.171 1847.15 629.693C1849.21 631.4 1850.96 633.441 1852.34 635.731C1854.03 637.769 1855.37 640.072 1856.31 642.546Z" fill="#232E24"/>
<path d="M1857.87 642.106C1855.56 637.205 1854.09 631.948 1853.54 626.557C1854.89 628.916 1855.83 631.482 1856.34 634.15C1857.26 636.706 1857.78 639.39 1857.87 642.106Z" fill="#232E24"/>
<path d="M1863.47 628.526C1863.66 630.725 1863.4 632.939 1862.7 635.031C1862.42 637.226 1861.69 639.343 1860.57 641.25C1860.66 636.856 1861.65 632.527 1863.47 628.526Z" fill="#232E24"/>
<path d="M1726.32 669.599C1724.52 667.871 1723.06 665.834 1721.98 663.587C1720.53 661.57 1719.47 659.304 1718.84 656.901C1720.62 658.635 1722.08 660.671 1723.15 662.913C1724.6 664.932 1725.68 667.198 1726.32 669.599Z" fill="#232E24"/>
<path d="M1731.95 668.536C1729.21 663.907 1727.26 658.853 1726.19 653.583C1727.74 655.786 1728.93 658.229 1729.69 660.813C1730.85 663.251 1731.62 665.858 1731.95 668.536Z" fill="#232E24"/>
<path d="M1740.18 667.707C1739.55 665.069 1739.37 662.346 1739.63 659.648C1739.45 656.934 1739.73 654.209 1740.46 651.589C1741.07 654.238 1741.24 656.968 1740.98 659.674C1741.17 662.378 1740.89 665.093 1740.18 667.707Z" fill="#232E24"/>
<path d="M222.41 639.018L192.902 515.743L177.123 511.597L190.852 508.047L167.521 392.469L151.041 478.997L167.521 483.143L151.041 488.482L134.562 572.651L155.168 576.798L134.562 583.898L123.584 639.018" fill="#2C392D"/>
<path d="M123.584 639.048C123.584 639.048 123.584 638.712 123.714 638.09C123.844 637.468 123.999 636.509 124.207 635.317C124.674 632.725 125.375 629.201 126.257 624.51C128.1 615.026 130.773 601.188 134.173 583.851V583.618H134.406L154.96 576.31V577.191L134.354 573.096H133.861V572.604C138.558 548.348 144.112 519.765 150.211 488.408V488.045H150.574L167.028 482.707V483.925L150.548 479.805L149.951 479.649L150.081 479.027C154.337 456.663 158.853 432.796 163.525 408.177C164.528 402.994 165.531 397.768 166.535 392.499L167.158 389.104L167.859 392.499C176.215 433.962 184.105 473.222 191.216 508.077V508.647H190.671L176.942 512.198V511.057L192.721 515.229H193.032V515.54C202.245 552.987 209.46 583.695 214.65 605.256C217.246 615.985 219.114 624.407 220.464 630.212C221.087 633.062 221.606 635.239 221.943 636.768C222.28 638.297 222.384 639.048 222.384 639.048C222.384 639.048 222.151 638.297 221.787 636.82C221.424 635.343 220.853 633.114 220.126 630.289C218.699 624.51 216.649 616.114 214.028 605.412C208.837 583.877 201.337 553.064 192.357 515.877L192.747 516.292L176.968 512.172L174.814 511.601L176.968 511.031L190.671 507.455L190.229 508.155C183.196 473.326 175.255 434.143 166.872 392.603H168.196C167.21 397.786 166.198 402.968 165.211 408.151C160.514 432.744 155.972 456.637 151.69 479.001L151.223 478.25L167.677 482.396L169.857 482.94L167.729 483.64L151.249 488.952L151.664 488.486C145.488 519.79 139.856 548.374 135.081 572.63L134.692 572.034L155.246 576.31L156.881 576.647L155.298 577.191L134.692 584.24L134.951 583.954C131.396 601.317 128.593 615.052 126.672 624.536C125.686 629.201 124.934 632.803 124.414 635.291C124.155 636.483 123.973 637.39 123.818 638.064C123.758 638.396 123.68 638.725 123.584 639.048Z" fill="#232E24"/>
<path d="M190.568 670.974C188.783 669.244 187.324 667.208 186.26 664.962C184.815 662.949 183.742 660.693 183.094 658.302C184.911 660.05 186.381 662.125 187.428 664.418C188.859 666.398 189.923 668.619 190.568 670.974Z" fill="#232E24"/>
<path d="M196.225 670.041C194.641 667.842 193.447 665.387 192.695 662.785C191.527 660.332 190.764 657.707 190.438 655.01C191.984 657.23 193.151 659.691 193.889 662.292C195.078 664.734 195.867 667.35 196.225 670.041Z" fill="#232E24"/>
<path d="M204.452 669.212C203.816 666.567 203.632 663.834 203.907 661.127C203.74 658.415 204.012 655.694 204.712 653.068C205.348 655.713 205.532 658.447 205.257 661.153C205.424 663.865 205.152 666.587 204.452 669.212Z" fill="#232E24"/>
<path d="M41.0562 643.296C38.9832 641.605 37.226 639.561 35.8658 637.258C34.1552 635.23 32.8036 632.925 31.8691 630.443C33.9329 632.144 35.6886 634.186 37.0596 636.481C38.7589 638.517 40.1093 640.82 41.0562 643.296Z" fill="#232E24"/>
<path d="M42.6133 642.856C41.2617 640.496 40.3061 637.931 39.7845 635.263C38.8447 632.713 38.336 630.024 38.2793 627.307C39.6275 629.666 40.5746 632.232 41.0821 634.9C42.0244 637.451 42.5417 640.138 42.6133 642.856Z" fill="#232E24"/>
<path d="M48.2206 629.276C48.4104 631.475 48.1454 633.689 47.442 635.781C47.1629 637.976 46.4388 640.093 45.3139 642C45.1412 639.8 45.4148 637.587 46.1184 635.495C46.3958 633.303 47.1106 631.188 48.2206 629.276Z" fill="#232E24"/>
<path d="M1479.56 730.885L1165.2 728.786C1154.07 728.786 1139.82 730.911 1137.49 741.899C1137.01 744.741 1137.34 747.661 1138.45 750.321C1139.56 752.98 1141.41 755.272 1143.77 756.929C1151.06 762.501 1160.27 762.76 1169.05 762.916L1301.61 765.3L1299.22 766.466C1285.99 772.945 1290.32 794.117 1305.04 793.261C1440.9 785.254 1518.18 766.259 1647.81 765.663C1642.1 772.685 1668.57 778.983 1660.06 781.574C1650.77 784.373 1641.01 794.142 1647.42 802.694C1648.88 804.54 1650.78 805.985 1652.95 806.892C1655.12 807.799 1657.49 808.138 1659.83 807.877L1765.45 798.367C1758.27 797.045 1751.88 805.26 1753.23 812.438C1754.58 819.616 1770.96 824.411 1778.07 826.043C1785.18 827.676 1803.37 824.592 1810.66 824.022C1905.83 816.247 1909.28 813.812 1917.07 788.778L1898.69 734.099L1479.56 730.885Z" fill="#F8F5F0"/>
<path d="M1221.42 750.14L1233.61 734.772L1272.31 725.78L1300.41 684.499L1370.38 673.381L1633.36 646.378L1645.01 633.136L1919.32 601.495V762.345L1221.42 750.14Z" fill="#DDD1BC"/>
<path d="M1421.43 754.055C1424.56 746.611 1428.1 739.345 1432.02 732.287C1435.56 725.027 1439.49 717.968 1443.8 711.141C1440.67 718.584 1437.14 725.851 1433.21 732.909C1429.69 740.172 1425.75 747.232 1421.43 754.055Z" fill="#B3A794"/>
<path d="M1684.77 788.806C1685.29 787.225 1720.27 725.29 1720.27 725.29L1835.86 671.828L1877.2 685.044L1919.32 762.373V789.039L1684.77 788.806Z" fill="#DDD1BC"/>
<path d="M1684.77 788.804H1689.41H1702.7L1752.01 788.675L1919.43 788.519L1918.75 789.167V762.346V762.657C1913.36 752.783 1907.67 742.34 1901.91 731.741C1893.27 715.907 1884.83 700.384 1876.66 685.354L1877.02 685.665L1835.68 672.397H1836.15L1720.5 725.677L1720.69 725.495C1698.44 764.756 1686.43 785.928 1684.79 788.804C1684.79 788.804 1684.79 788.441 1685.29 787.664L1687 784.399L1693.85 771.83C1699.95 760.895 1708.8 745.009 1719.8 725.184H1719.93L1835.42 671.542H1835.65H1835.89L1877.26 684.758H1877.52L1877.64 684.991C1885.82 700.022 1894.28 715.544 1902.92 731.378L1919.74 762.32V762.475V789.97H1919.09L1751.13 789.452L1702.1 789.245H1689.13H1685.88L1684.77 788.804Z" fill="#B3A794"/>
<path d="M1235.02 734.385C1235.02 734.385 1242.98 739.568 1244.36 739.153C1245.73 738.739 1329.46 744.336 1329.46 744.336L1406.07 739.412C1406.07 739.412 1379.73 732.156 1377.8 732.493C1375.88 732.83 1305.71 732.493 1303.01 732.493C1300.31 732.493 1272.31 725.807 1272.31 725.807L1235.02 734.385Z" fill="#2C392D"/>
<path d="M1299.58 684.499L1302.85 688.464L1334 691.496C1334 691.496 1394.34 681.7 1395.35 681.7C1396.36 681.7 1443.15 686.883 1444.53 686.598C1445.9 686.313 1503.52 680.664 1544.18 677.632C1584.85 674.6 1726.97 687.738 1728 687.738C1729.04 687.738 1781.57 671.749 1781.57 671.749L1919.35 658.17C1919.35 658.17 1919.74 625.751 1919.35 624.896C1919.35 624.896 1724.71 659.984 1708.36 657.937C1692.01 655.889 1632.53 646.275 1632.53 646.275L1392.88 667.914L1299.58 684.499Z" fill="#2C392D"/>
<path d="M1303.68 688.464L1303.01 732.44L1347.6 732.596L1334.88 691.495L1303.68 688.464Z" fill="#B3A794"/>
<path d="M1505.26 697.46C1503.96 698.108 1454.39 704.534 1454.39 704.534L1443.78 710.547H1530.04L1583.79 697.46C1583.79 697.46 1506.53 696.812 1505.26 697.46Z" fill="#2C392D"/>
<path d="M1820.42 454.667L1807.52 522.433L1820.42 525.698L1807.52 529.87L1794.62 595.77L1810.77 599.036L1794.62 604.607L1786.03 647.781H1863.42L1840.33 551.224L1827.95 547.958L1838.72 545.186L1820.42 454.667Z" fill="#2C392D"/>
<path d="M1558.82 545.031L1551.3 584.654L1558.82 586.572L1551.3 589.008L1543.74 627.569L1553.16 629.46L1543.74 632.726L1538.71 657.966H1583.97L1570.45 601.499L1563.23 599.607L1569.51 597.974L1558.82 545.031Z" fill="#2C392D"/>
<path d="M1629.54 657.965L1612.57 587.089L1603.51 584.705L1611.4 582.658L1597.98 516.214L1588.51 565.969L1597.98 568.353L1588.51 571.411L1579.04 619.793L1590.87 622.177L1579.04 626.272L1572.73 657.965" fill="#2C392D"/>
<path d="M1572.73 657.965C1572.73 657.965 1572.73 657.783 1572.73 657.42C1572.73 657.058 1572.89 656.462 1572.99 655.814C1573.25 654.311 1573.64 652.238 1574.13 649.594C1575.17 644.075 1576.73 636.171 1578.6 626.271V626.064H1578.83L1590.64 621.918V622.799L1578.81 620.441H1578.31V619.948L1587.66 571.54V571.177L1587.99 571.048L1597.47 567.964V569.208L1588.02 566.824L1587.4 566.694V566.072C1589.84 553.115 1592.43 539.484 1595.18 525.335C1595.75 522.294 1596.32 519.288 1596.89 516.317L1597.54 512.922L1598.22 516.317C1603.02 540.21 1607.54 562.729 1611.56 582.787V583.331L1611.01 583.487L1603.23 585.508V584.083L1612.28 586.493H1612.62V586.804C1617.63 608.183 1621.78 625.909 1624.72 638.348C1626.12 644.489 1627.31 649.335 1627.99 652.73C1628.35 654.311 1628.61 655.581 1628.82 656.514C1628.93 656.939 1629.01 657.372 1629.05 657.809C1629.01 657.421 1629.01 657.031 1629.05 656.643C1628.79 655.736 1628.48 654.492 1628.06 652.911L1624.48 638.607C1621.45 626.168 1617.14 608.494 1611.92 587.167L1612.31 587.581L1603.25 585.223L1601.1 584.653L1603.25 584.083L1611.04 582.036L1610.6 582.735L1597.1 516.291H1598.43C1597.86 519.262 1597.28 522.268 1596.71 525.309C1594.12 539.458 1591.52 553.167 1588.93 566.046L1588.46 565.269L1597.93 567.679L1600.09 568.223L1597.96 568.897L1588.49 571.955L1588.9 571.488C1585.35 589.473 1582.1 605.903 1579.33 619.845L1578.94 619.249L1590.74 621.685L1592.41 622.021L1590.82 622.566L1578.96 626.608L1579.22 626.297C1577.15 636.248 1575.51 644.126 1574.39 649.62C1573.82 652.212 1573.36 654.311 1573.04 655.814C1572.89 656.462 1572.79 656.98 1572.68 657.395L1572.73 657.965Z" fill="#232E24"/>
<path d="M1693.25 495.974L1681.58 557.313L1693.25 560.242L1681.58 564.025L1669.9 623.68L1684.48 626.608L1669.9 631.662L1662.11 670.715H1732.16L1711.24 583.357L1700.05 580.403L1709.79 577.889L1693.25 495.974Z" fill="#2C392D"/>
<path d="M1520.05 781.86L1496.02 777.999L1581.66 691.497L1600.86 681.727C1600.86 681.727 1612.98 680.924 1611.66 681.727C1610.34 682.53 1520.05 781.86 1520.05 781.86Z" fill="#B3A794"/>
<path d="M1647.81 775.306C1647.53 774.503 1645.42 725.343 1645.42 725.343L1611.69 681.729L1520.05 781.862L1647.81 775.306Z" fill="#DDD1BC"/>
<path d="M1647.81 775.306H1647.22L1645.45 775.436L1638.47 775.876L1612.08 777.405L1520.05 782.51H1518.49L1519.56 781.37L1557.81 739.57L1611.3 681.211L1611.76 680.667L1612.23 681.237C1624.97 697.874 1636.34 712.671 1645.79 724.98V725.136C1646.96 755.404 1647.55 771.626 1647.71 775.099C1647.61 774.814 1647.56 774.517 1647.55 774.218C1647.55 773.596 1647.55 772.74 1647.32 771.626C1647.19 769.294 1646.98 765.977 1646.72 761.753C1646.28 753.071 1645.66 740.607 1644.85 725.11V725.369L1611.12 681.833H1612.05C1595.96 699.481 1577.82 719.331 1558.67 740.296L1520.46 782.018L1519.97 780.929L1611.4 776.576L1638 775.358L1645.14 775.073H1647.01C1647.29 775.103 1647.56 775.182 1647.81 775.306Z" fill="#B3A794"/>
<path d="M1307.32 772.891L1383.12 653.245H1401.14L1425.01 674.961L1448.32 772.891H1307.32Z" fill="#DDD1BC"/>
<path d="M1307.24 772.894H1310.02H1317.8L1347.05 772.738L1448.26 772.376L1447.64 773.153C1442.22 750.4 1436.25 725.445 1430.05 699.401L1424.28 675.223L1424.49 675.559L1400.67 653.74L1401.11 653.921H1383.07L1383.62 653.636L1328.94 739.153L1313.08 763.876L1308.82 770.665L1307.71 772.376C1307.59 772.585 1307.45 772.785 1307.29 772.972C1307.41 772.8 1307.52 772.618 1307.6 772.427L1308.64 770.769L1312.72 764.213L1328.29 739.49L1382.79 653.014L1382.97 652.703H1401.6L1401.78 652.859L1425.66 674.549L1425.79 674.678V674.886L1431.55 699.064C1437.75 725.134 1443.67 750.063 1449.1 772.842L1449.28 773.62H1448.47L1346.74 773.257L1317.62 773.024H1309.84H1307.24V772.894Z" fill="#B3A794"/>
<path d="M1401.14 653.271C1401.14 653.271 1333.19 772.892 1331.87 772.892H1307.24L1383.05 653.271H1401.14Z" fill="#B3A794"/>
<path opacity="0.2" d="M1434.07 713.085L1414.97 719.123L1372.3 703.859L1349.18 706.84L1341.99 718.164L1370.93 708.187L1413.33 721.041H1416.34L1435.39 718.527L1434.07 713.085Z" fill="black"/>
<path opacity="0.2" d="M1443.1 750.994L1412.01 757.369L1327.35 741.25L1325.3 744.489L1411.23 759.986L1444.79 758.068L1443.1 750.994Z" fill="black"/>
<path d="M1624.04 805.237C1626.34 804.857 1628.7 805.37 1630.63 806.671C1632.56 807.973 1633.92 809.963 1634.42 812.234C1634.79 814.529 1634.46 816.884 1633.47 818.988C1632.48 821.092 1630.88 822.848 1628.87 824.025C1626.84 825.159 1624.58 825.837 1622.26 826.012C1619.94 826.186 1617.6 825.853 1615.42 825.036C1613.34 824.498 1611.5 823.252 1610.23 821.511C1609.62 820.372 1609.27 819.105 1609.23 817.81C1609.18 816.515 1609.44 815.228 1609.97 814.048C1610.83 811.948 1612.23 810.11 1614.03 808.719C1615.82 807.327 1617.95 806.43 1620.2 806.118" fill="#F8F5F0"/>
<path d="M1444.63 798.522C1444.59 799.179 1444.36 799.807 1443.95 800.322C1443.54 800.837 1442.98 801.213 1442.35 801.399C1408.09 811.671 1372.78 818.077 1337.09 820.498C1331.62 821.173 1326.07 820.866 1320.71 819.591C1317.31 818.649 1314.23 816.794 1311.81 814.227C1311.4 813.78 1311.12 813.225 1311.02 812.629C1310.91 812.032 1310.98 811.417 1311.21 810.857C1311.44 810.296 1311.83 809.813 1312.33 809.465C1312.82 809.116 1313.41 808.916 1314.01 808.888C1356.55 806.654 1398.92 802.077 1440.95 795.179C1441.42 795.1 1441.9 795.128 1442.36 795.263C1442.82 795.398 1443.25 795.635 1443.6 795.957C1443.96 796.279 1444.23 796.677 1444.41 797.121C1444.59 797.566 1444.67 798.045 1444.63 798.522Z" fill="#F8F5F0"/>
<path d="M1645.01 633.136L1718.32 660.476L1919.33 630.985V601.495L1645.01 633.136Z" fill="#2C392D"/>
<path d="M1811.44 639.487L1781.93 516.212L1766.15 512.066L1779.88 508.516L1756.55 392.938L1740.07 479.466L1756.55 483.612L1740.07 488.95L1723.59 573.12L1744.2 577.267L1723.59 584.367L1712.62 639.487" fill="#2C392D"/>
<path d="M1712.62 639.511C1712.62 639.511 1712.62 639.174 1712.62 638.552C1712.62 637.93 1712.9 636.972 1713.11 635.779C1713.58 633.188 1714.28 629.664 1715.16 624.973C1717 615.488 1719.67 601.65 1722.94 584.288V584.08H1723.18L1743.73 576.902V577.783L1723.49 573.715H1723V573.222C1727.69 548.966 1733.38 520.383 1739.35 489.026V488.663H1739.71L1756.21 483.014V484.232L1739.74 480.086L1739.14 479.956V479.334C1743.37 456.97 1747.91 433.077 1752.58 408.484C1753.6 403.302 1754.6 398.075 1755.57 392.806L1756.21 389.411L1756.92 392.806C1765.27 434.269 1773.16 473.529 1780.27 508.384V508.954L1779.73 509.084L1766 512.634V511.52L1782.17 515.666H1782.48V515.977C1791.3 553.216 1798.6 584.054 1803.71 605.615C1806.3 616.344 1808.17 624.766 1809.52 630.571C1810.14 633.421 1810.66 635.598 1811 637.127C1811.34 638.656 1811.44 639.407 1811.44 639.407C1811.44 639.407 1811.21 638.656 1810.84 637.179C1810.48 635.702 1809.91 633.473 1809.18 630.648C1807.76 624.87 1805.71 616.473 1803.08 605.771C1797.89 584.21 1790.39 553.424 1781.39 516.236L1781.8 516.651L1766.03 512.531L1763.87 511.961L1766.03 511.39L1779.73 507.814L1779.29 508.514C1772.23 473.685 1764.31 434.502 1755.93 392.962H1757.25C1756.27 398.145 1755.25 403.327 1754.27 408.64C1749.57 433.233 1745.03 457.1 1740.75 479.49L1740.28 478.738L1756.73 482.885L1758.91 483.429L1756.79 484.128L1740.31 489.441L1740.72 488.974C1734.54 520.279 1728.91 548.863 1724.14 573.118L1723.75 572.522L1744.33 576.721L1745.96 577.057L1744.38 577.602L1723.77 584.65L1724.03 584.339C1720.48 601.728 1717.68 615.437 1715.76 624.947C1714.77 629.612 1714.02 633.214 1713.5 635.702C1713.24 636.894 1713.06 637.801 1712.9 638.475C1712.83 638.825 1712.73 639.171 1712.62 639.511Z" fill="#232E24"/>
<path d="M1856.31 642.546C1854.25 640.85 1852.49 638.807 1851.12 636.508C1849.43 634.475 1848.08 632.171 1847.15 629.693C1849.21 631.4 1850.96 633.441 1852.34 635.731C1854.03 637.769 1855.37 640.072 1856.31 642.546Z" fill="#232E24"/>
<path d="M1857.87 642.106C1855.56 637.205 1854.09 631.948 1853.54 626.557C1854.89 628.916 1855.83 631.482 1856.34 634.15C1857.26 636.706 1857.78 639.39 1857.87 642.106Z" fill="#232E24"/>
<path d="M1863.47 628.526C1863.66 630.725 1863.4 632.939 1862.7 635.031C1862.42 637.226 1861.69 639.343 1860.57 641.25C1860.66 636.856 1861.65 632.527 1863.47 628.526Z" fill="#232E24"/>
<path d="M1726.32 669.599C1724.52 667.871 1723.06 665.834 1721.98 663.587C1720.53 661.57 1719.47 659.304 1718.84 656.901C1720.62 658.635 1722.08 660.671 1723.15 662.913C1724.6 664.932 1725.68 667.198 1726.32 669.599Z" fill="#232E24"/>
<path d="M1731.95 668.536C1729.21 663.907 1727.26 658.853 1726.19 653.583C1727.74 655.786 1728.93 658.229 1729.69 660.813C1730.85 663.251 1731.62 665.858 1731.95 668.536Z" fill="#232E24"/>
<path d="M1740.18 667.707C1739.55 665.069 1739.37 662.346 1739.63 659.648C1739.45 656.934 1739.73 654.209 1740.46 651.589C1741.07 654.238 1741.24 656.968 1740.98 659.674C1741.17 662.378 1740.89 665.093 1740.18 667.707Z" fill="#232E24"/>
<path opacity="0.2" d="M1634.47 711.139L1596.89 714.767L1570.63 702.717L1575.15 698.156L1598.3 712.435L1630.87 706.475L1634.47 711.139Z" fill="black"/>
<path opacity="0.2" d="M1646.8 755.763L1615.81 746.149L1551.3 758.588L1543.8 755.996L1531.23 742.521L1527.42 746.356L1542.34 757.577L1550.15 763.123L1615.81 750.606L1647.81 765.662L1646.44 757.473" fill="black"/>
<path d="M1720.3 725.263L1835.86 671.802L1738.41 730.524L1728.99 788.961L1684.77 788.78L1720.3 725.263Z" fill="#B3A794"/>
<path opacity="0.2" d="M1885.56 701.109L1858.55 706.473L1795.2 697.144L1789.98 692.531L1782.17 695.978L1790.86 698.906L1859.17 714.766L1890.44 710.516L1885.56 701.109Z" fill="black"/>
<path opacity="0.2" d="M1919.33 762.115L1857.27 747.059L1735.82 758.694L1709.14 745.193L1704.39 753.485L1732.75 765.665L1857.27 751.775L1919.33 773.958V762.115Z" fill="black"/>
<path d="M1786.27 805.496C1787.85 804.926 1794.34 783.598 1813.6 765.484C1827.69 752.821 1842.89 741.442 1859.01 731.484L1883.77 749.624L1904.53 803.215L1786.27 805.496Z" fill="#DDD1BC"/>
<path d="M1786.27 805.496L1820.24 804.615C1841.36 804.019 1870.66 803.164 1904.45 802.464L1903.86 803.345L1890.23 768.076C1887.84 761.839 1885.48 755.715 1883.15 749.703L1883.38 749.988L1858.65 731.848H1859.35C1847.32 739.268 1835.77 747.43 1824.75 756.285C1820.08 760.011 1815.6 763.982 1811.34 768.18C1807.72 771.804 1804.39 775.703 1801.37 779.841C1797.11 785.739 1793.34 791.98 1790.11 798.499C1787.88 803.034 1786.58 805.548 1786.27 805.289C1787.67 803.085 1788.83 800.74 1789.75 798.292C1792.82 791.668 1796.5 785.336 1800.72 779.375C1803.73 775.179 1807.04 771.212 1810.64 767.506C1814.89 763.246 1819.37 759.215 1824.05 755.43C1835.07 746.476 1846.64 738.228 1858.7 730.733L1859.04 730.526L1859.4 730.785L1884.16 748.77L1884.34 748.899V749.081L1891.45 767.454C1896.18 779.66 1900.74 791.529 1905.03 802.672L1905.36 803.553H1904.43C1870.25 804.227 1840.46 804.538 1819.46 804.797L1786.27 805.496Z" fill="#B3A794"/>
<path d="M1859.01 731.484L1839.29 765.691L1844.74 772.455L1831.5 775.617L1817.62 804.874L1786.27 805.496C1786.27 805.496 1795.09 788.962 1804.25 775.617C1813.78 761.752 1859.01 731.484 1859.01 731.484Z" fill="#B3A794"/>
<path opacity="0.2" d="M1893.11 773.621L1837.99 785.541L1828.18 782.639L1809.52 769.552L1804.28 775.616L1826.03 787.2L1835.86 795.803L1898.17 786.811L1893.11 773.621Z" fill="black"/>
<path d="M1728 687.789L1687.18 757.81L1657.6 757.344L1710.51 686.26L1728 687.789Z" fill="#B3A794"/>
<path d="M1530.04 710.516L1520.13 745.189L1522.12 713.081L1483.69 710.516H1530.04Z" fill="#B3A794"/>
<path d="M1561.34 677.167L1552.46 698.157L1506.87 697.147L1530.04 687.662L1538.71 678.048L1553.97 677.167H1561.34Z" fill="#B3A794"/>
<path d="M1711.16 842.656C1711.16 842.656 1711.16 843.019 1711.16 843.771C1711.16 844.522 1711.16 845.61 1711.16 847.01C1711.16 849.86 1711.16 854.059 1711.16 859.475C1711.45 874.759 1712.54 890.018 1714.43 905.188C1716.87 924.39 1719.31 947.324 1722.22 972.798C1725.12 998.272 1727.41 1026.31 1730.34 1055.72C1735.82 1114.6 1728.89 1053.86 1733.79 1092.26C1736.21 1111.49 1738.49 1126.99 1740.05 1137.72C1740.85 1143.03 1741.47 1147.18 1741.92 1150.05C1742.12 1151.4 1742.28 1152.49 1742.38 1153.27C1742.41 1153.63 1742.41 1153.99 1742.38 1154.35L1742.15 1153.27C1742.02 1152.51 1741.81 1151.45 1741.58 1150.08L1739.48 1137.8C1737.76 1127.09 1735.35 1111.6 1732.83 1092.37C1727.64 1053.96 1734.49 1114.73 1729.02 1055.85C1726.19 1026.42 1723.83 998.35 1721 972.928C1718.17 947.506 1715.81 924.52 1713.6 905.291C1711.79 890.085 1710.82 874.789 1710.7 859.475C1710.7 854.059 1710.7 849.86 1710.9 847.01C1710.9 845.61 1710.9 844.548 1711.03 843.745C1711.16 842.941 1711.16 842.656 1711.16 842.656Z" fill="#2C392D"/>
<path d="M1664.24 901.948C1664.47 902.333 1664.66 902.741 1664.81 903.166L1666.19 906.716C1667.41 909.826 1669.2 914.283 1671.58 919.673C1677.89 933.787 1685 947.527 1692.89 960.825C1702.03 976.504 1710.85 990.342 1717.1 1000.45L1724.5 1012.45L1726.45 1015.74C1726.7 1016.11 1726.91 1016.51 1727.07 1016.93C1727.07 1016.93 1726.73 1016.59 1726.24 1015.87L1724.09 1012.71C1722.19 1009.78 1719.57 1005.79 1716.3 1000.91C1709.86 990.912 1700.91 977.125 1691.75 961.447C1683.85 948.091 1676.82 934.241 1670.7 919.984C1668.42 914.49 1666.73 909.955 1665.67 906.82L1664.5 903.166C1664.36 902.772 1664.27 902.363 1664.24 901.948Z" fill="#2C392D"/>
<path d="M1680.95 940.612C1681.86 939.782 1683.89 940.171 1681.55 932.371C1679.21 924.571 1662.89 898.682 1662.89 898.682C1662.89 898.682 1667.22 918.17 1670.68 925.737C1676.2 938.564 1680.95 940.612 1680.95 940.612Z" fill="#2C392D"/>
<path d="M1689.75 959.243C1690.14 958.154 1690.35 959.813 1688.56 955.822C1685.21 948.255 1653.76 927.031 1653.76 927.031C1659.88 934.829 1666.45 942.27 1673.43 949.318C1684.48 959.113 1689.75 959.243 1689.75 959.243Z" fill="#2C392D"/>
<path d="M1701.72 977.746C1701.9 976.813 1702.26 978.134 1700.34 975.025C1696.73 969.142 1668.71 954.604 1668.71 954.604C1674.6 960.43 1680.8 965.932 1687.29 971.086C1697.54 978.108 1701.72 977.746 1701.72 977.746Z" fill="#2C392D"/>
<path d="M1712.1 993.53C1712.1 992.752 1712.59 993.789 1710.69 991.482C1707.14 987.103 1682.87 978.37 1682.87 978.37C1688.27 982.451 1693.9 986.232 1699.72 989.694C1708.7 994.333 1712.1 993.53 1712.1 993.53Z" fill="#2C392D"/>
<path d="M1706.52 984.693C1707.27 984.408 1706.52 985.237 1707.81 982.568C1710.41 977.385 1708.23 951.938 1708.23 951.938C1706.74 958.521 1705.62 965.183 1704.88 971.892C1704.31 981.894 1706.52 984.693 1706.52 984.693Z" fill="#2C392D"/>
<path d="M1714.1 895.054C1713.32 894.354 1713.86 895.676 1713.55 892.048C1712.98 885.181 1728.76 858.359 1728.76 858.359C1727.25 866.347 1725.24 874.232 1722.74 881.967C1718.2 893.085 1714.1 895.054 1714.1 895.054Z" fill="#2C392D"/>
<path d="M1711.78 879.3C1710.8 879.611 1712.2 879.818 1708.93 878.237C1702.7 875.231 1687.54 848.047 1687.54 848.047C1693.68 853.399 1699.47 859.129 1704.88 865.202C1712.23 874.791 1711.78 879.3 1711.78 879.3Z" fill="#2C392D"/>
<path d="M1711.32 863.462C1710.31 863.099 1711.32 864.136 1709.71 860.871C1706.7 854.677 1711.73 823.969 1711.73 823.969C1713.21 831.959 1714.18 840.034 1714.64 848.147C1714.43 860.197 1711.32 863.462 1711.32 863.462Z" fill="#2C392D"/>
<path d="M1781.99 918.375C1781.79 918.902 1781.66 919.45 1781.6 920.008C1781.36 921.226 1781.08 922.806 1780.71 924.698C1779.96 928.793 1778.85 934.675 1777.18 941.905C1772.77 960.719 1767.29 979.269 1760.78 997.466C1753.28 1018.85 1745.73 1037.94 1740.44 1051.89L1734.21 1068.34L1732.6 1072.82C1732.37 1073.34 1732.21 1073.89 1732.13 1074.46C1732.43 1073.98 1732.69 1073.48 1732.88 1072.95L1734.75 1068.55L1741.42 1052.27C1746.98 1038.49 1754.71 1019.44 1762.18 998.036C1768.74 979.789 1774.1 961.134 1778.22 942.19C1779.73 934.908 1780.82 928.974 1781.28 924.854C1781.52 922.91 1781.7 921.355 1781.86 920.085C1781.98 919.524 1782.02 918.948 1781.99 918.375Z" fill="#2C392D"/>
<path d="M1770.57 969.716C1769.27 968.913 1766.86 969.871 1767.97 959.739C1769.09 949.606 1782.92 914 1782.92 914C1782.92 914 1782.22 938.956 1779.94 949.036C1775.97 966.062 1770.57 969.716 1770.57 969.716Z" fill="#2C392D"/>
<path d="M1764.26 994.67C1763.48 993.4 1763.64 995.474 1764.88 990.161C1767.22 980.106 1800.8 946.625 1800.8 946.625C1800.8 946.625 1788.6 969.948 1781.93 978.629C1770.67 993.245 1764.26 994.67 1764.26 994.67Z" fill="#2C392D"/>
<path d="M1753.83 1020.2C1753.36 1019.11 1753.23 1020.82 1754.84 1016.54C1757.9 1008.46 1788.86 983.995 1788.86 983.995C1783.01 992.551 1776.7 1000.78 1769.94 1008.64C1759.17 1019.65 1753.83 1020.2 1753.83 1020.2Z" fill="#2C392D"/>
<path d="M1744.93 1042.07C1744.67 1041.13 1744.38 1042.51 1746.15 1039.22C1749.49 1033.02 1777.29 1016.57 1777.29 1016.57C1771.63 1022.85 1765.62 1028.82 1759.3 1034.45C1749.31 1042.2 1744.93 1042.07 1744.93 1042.07Z" fill="#2C392D"/>
<path d="M1749.68 1029.81C1748.72 1029.63 1749.86 1030.48 1747.6 1027.5C1743.32 1021.88 1739.81 990.005 1739.81 990.005C1743.2 997.738 1746.16 1005.65 1748.66 1013.72C1751.62 1025.92 1749.68 1029.81 1749.68 1029.81Z" fill="#2C392D"/>
<path d="M538.51 980.57C538.51 980.932 450.272 981.243 341.454 981.243C232.637 981.243 144.373 980.932 144.373 980.57C144.373 980.207 232.611 979.896 341.454 979.896C450.298 979.896 538.51 980.233 538.51 980.57Z" fill="#F8F5F0"/>
<path d="M633.002 999.747C633.002 1000.11 543.337 1000.42 432.78 1000.42C322.224 1000.42 232.559 1000.11 232.559 999.747C232.559 999.384 322.172 999.073 432.78 999.073C543.389 999.073 633.002 999.384 633.002 999.747Z" fill="#F8F5F0"/>
<mask id="mask0_595_10530" style="mask-type:alpha" maskUnits="userSpaceOnUse" x="0" y="454" width="1920" height="193">
<path fill-rule="evenodd" clip-rule="evenodd" d="M1812.79 533.033H1809.88L1779.57 543.917L1629.05 553.608L1613.22 560.217H1597.91L1568.74 575.014C1383.83 594.32 1163.54 611.294 953.98 612.486C567.447 614.585 158.517 505.2 0.701172 454.823V646.952L1919.56 620.001V504.216L1812.79 533.033Z" fill="#ECEDDF"/>
</mask>
<g mask="url(#mask0_595_10530)">
<path d="M697.334 561.667H1329.33V663H697.334V561.667Z" fill="#ECEDDF"/>
</g>
<path d="M1246.33 681.573L1242.31 603.104L1175.33 787.2L1251.52 783.313L1251.5 783.002L1208.62 785.179L1246.33 681.573Z" fill="#B3BFA6"/>
<path d="M1329.12 848.07L1331.48 894.172L1364.83 893.705L1362.44 846.385L1329.12 848.07Z" fill="#B3BFA6"/>
<path d="M1311.39 500.379L1313.03 532.642L1325.64 779.554L1361.33 777.74L1364.8 845.947L1398.1 844.263L1394.6 775.719L1358.91 777.559L1342.38 453.422L1260.03 457.594L1259.93 457.905L1309.11 455.417L1311.39 500.379Z" fill="#B3BFA6"/>
<path d="M1362.42 846.387L1364.8 846.257V845.946L1361.33 777.74L1325.64 779.554L1313.06 532.641L1315.42 578.976L1302.44 518.078L1311.34 500.378L1309.03 455.417L1259.85 458.008L1226.79 459.692L1184.12 576.67L1192.2 590.949L1175.2 601.159L1106.06 790.801L1109.56 859.318L1255.05 851.933L1257.26 895.313L1331.51 894.251L1329.17 848.149L1362.42 846.387ZM1251.5 783.337L1175.33 787.198L1242.31 603.206L1246.31 681.675L1251.5 783.13V783.337Z" fill="#B3BFA6"/>
<path d="M1311.39 500.38L1313.03 532.644L1311.39 500.38Z" fill="black"/>
<path opacity="0.3" d="M1311.39 500.38L1313.03 532.644L1311.39 500.38Z" fill="black"/>
<path d="M1302.49 518.08L1315.39 578.979L1313.03 532.644L1311.39 500.38L1302.49 518.08Z" fill="#B3BFA6"/>
<path opacity="0.3" d="M1302.49 518.08L1315.39 578.979L1313.03 532.644L1311.39 500.38L1302.49 518.08Z" fill="black"/>
<path opacity="0.3" d="M1257.21 895.237C1257.21 895.237 1261.46 882.98 1266.11 878.211C1274.02 870.048 1289.46 874.946 1289.46 874.946C1289.46 874.946 1289.8 863.207 1299.33 857.117C1308.85 851.027 1329.02 848.073 1329.02 848.073L1331.35 894.175L1257.21 895.237Z" fill="#F8F5F0"/>
<g opacity="0.3">
<path d="M1246.33 681.573L1242.31 603.104L1175.33 787.2L1251.52 783.313L1251.5 783.002L1208.62 785.179L1246.33 681.573Z" fill="black"/>
<path d="M1329.12 848.07L1331.48 894.172L1364.83 893.705L1362.44 846.385L1329.12 848.07Z" fill="black"/>
<path d="M1311.39 500.379L1313.03 532.642L1325.64 779.554L1361.33 777.74L1364.8 845.947L1398.1 844.263L1394.6 775.719L1358.91 777.559L1342.38 453.422L1260.03 457.594L1259.93 457.905L1309.11 455.417L1311.39 500.379Z" fill="black"/>
</g>
<path d="M1240.8 609.062C1240.68 609.7 1240.5 610.324 1240.26 610.928C1239.79 612.224 1239.17 613.96 1238.42 616.111L1231.51 635.236C1225.62 651.51 1217.58 673.745 1208.7 698.338C1199.83 722.93 1191.6 745.243 1185.5 761.309C1182.46 769.343 1179.97 775.821 1178.21 780.279L1176.13 785.462C1175.92 786.073 1175.65 786.663 1175.33 787.224C1175.45 786.595 1175.63 785.979 1175.87 785.384C1176.34 784.062 1176.94 782.326 1177.71 780.201C1179.37 775.536 1181.74 769.058 1184.62 761.076C1190.48 744.802 1198.53 722.567 1207.43 697.975C1216.33 673.382 1224.53 651.07 1230.6 635.003C1233.67 626.969 1236.16 620.491 1237.92 616.033L1240 610.851C1240.21 610.23 1240.48 609.631 1240.8 609.062Z" fill="#232E24"/>
<path d="M1325.62 779.555C1325.59 779.279 1325.59 779.001 1325.62 778.726C1325.62 778.104 1325.62 777.275 1325.41 776.264C1325.28 774.009 1325.07 770.848 1324.81 766.805C1324.34 758.487 1323.64 746.618 1322.81 731.976C1321.26 702.512 1319.13 662.007 1316.77 617.098C1316.22 606.369 1315.68 595.874 1315.18 585.767C1310.28 560.475 1305.81 537.385 1302.21 518.105V517.923V517.768C1305.45 511.341 1308.44 505.484 1311.16 500.12V500.327C1310.56 487.111 1310.1 476.486 1309.79 469.075C1309.66 465.499 1309.55 462.674 1309.47 460.678C1309.47 459.771 1309.47 459.072 1309.47 458.502C1309.44 458.261 1309.44 458.017 1309.47 457.776C1309.51 458.017 1309.51 458.261 1309.47 458.502C1309.47 459.046 1309.47 459.771 1309.66 460.653L1310.2 469.049C1310.62 476.46 1311.24 487.189 1311.99 500.302L1303.17 518.027V517.69C1306.98 536.97 1311.55 560.034 1316.53 585.301C1317.05 595.407 1317.6 605.903 1318.14 616.657C1320.35 661.489 1322.35 702.175 1323.8 731.562C1324.45 746.203 1324.99 758.072 1325.36 766.39C1325.51 770.433 1325.64 773.595 1325.72 775.849C1325.72 776.886 1325.72 777.689 1325.72 778.441C1325.74 778.815 1325.7 779.19 1325.62 779.555Z" fill="#232E24"/>
<path d="M1092.67 872.896L1076.27 623.678C1071.59 552.387 1033.81 511.805 969.057 510.328C1013.44 523.13 1039.13 560.809 1042.97 618.832L1059.32 868.076C1060 878.047 1059.88 888.056 1058.96 898.007L1092.69 897.541C1093.22 889.334 1093.21 881.102 1092.67 872.896Z" fill="#B3BFA6"/>
<path d="M922.447 628.913C920.448 598.567 931.426 584.159 950.631 580.168C943.831 575.4 935.215 573.638 925.146 574.285C901.14 575.84 886.892 589.834 889.15 624.093L906.097 882.9C906.433 888.722 907.354 894.495 908.848 900.133L940.899 899.666C940.135 895.722 939.632 891.731 939.393 887.72L922.447 628.913Z" fill="#B3BFA6"/>
<path d="M1059.4 868.078L1043.05 618.834C1039.26 560.811 1013.51 523.132 969.136 510.33C953.328 506.014 936.887 504.488 920.553 505.821C846.485 510.641 808.958 557.132 813.941 633.812L828.76 860.174L846.771 866.808L830.265 883.031C830.68 889.354 831.381 895.392 832.289 901.171L908.745 900.108C907.252 894.471 906.33 888.697 905.994 882.875L889.047 624.068C886.789 589.835 901.037 575.816 925.043 574.261C935.112 573.613 943.728 575.375 950.528 580.144C959.974 586.726 965.918 599.087 967.215 619.015L984.162 877.822C984.748 884.934 984.355 892.092 982.994 899.098L1058.93 898.035C1059.89 888.078 1060.04 878.06 1059.4 868.078ZM1026.39 656.047L1044.24 636.896L1045.69 658.871L1026.39 656.047Z" fill="#B3BFA6"/>
<path opacity="0.3" d="M1092.67 872.896L1076.27 623.678C1071.59 552.387 1033.81 511.805 969.057 510.328C1013.44 523.13 1039.13 560.809 1042.97 618.832L1059.32 868.076C1060 878.047 1059.88 888.056 1058.96 898.007L1092.69 897.541C1093.22 889.334 1093.21 881.102 1092.67 872.896Z" fill="black"/>
<path opacity="0.3" d="M922.447 628.913C920.448 598.567 931.426 584.159 950.631 580.168C943.831 575.4 935.215 573.638 925.146 574.285C901.14 575.84 886.892 589.834 889.15 624.093L906.097 882.9C906.433 888.722 907.354 894.495 908.848 900.133L940.899 899.666C940.135 895.722 939.632 891.731 939.393 887.72L922.447 628.913Z" fill="black"/>
<path opacity="0.3" d="M832.314 901.457C832.314 901.457 835.091 877.175 851.208 877.564C867.324 877.953 870.153 858.439 870.153 858.439C870.153 858.439 866.623 814.748 880.196 802.931C893.769 791.114 899.842 788.833 899.842 788.833L905.993 882.902L902.386 900.239L832.782 901.561" fill="#F8F5F0"/>
<path d="M1026.38 656.021L1045.69 658.871L1044.27 636.896L1026.38 656.021Z" fill="#B3BFA6"/>
<path opacity="0.3" d="M1026.38 656.021L1045.69 658.871L1044.27 636.896L1026.38 656.021Z" fill="black"/>
<path opacity="0.3" d="M982.189 845.816C982.189 845.816 998.565 842.888 1006.58 848.615C1014.6 854.342 1022.16 877.38 1029.5 877.587C1036.84 877.795 1055.45 865.304 1059.4 868.103C1059.4 868.103 1059.81 896.894 1059.03 898.034L983.565 899.77L984.499 886.191L982.189 845.816Z" fill="#F8F5F0"/>
<path d="M903.451 840.632C903.062 840.632 899.947 796.578 896.47 742.287C892.992 687.997 890.449 643.812 890.838 643.812C891.227 643.812 894.316 687.867 897.819 742.287C901.323 796.707 903.814 840.632 903.451 840.632Z" fill="#232E24"/>
<path d="M1054.08 787.196C1054.06 786.981 1054.06 786.764 1054.08 786.549C1054.08 786.056 1054.08 785.434 1053.89 784.683C1053.89 782.921 1053.56 780.485 1053.3 777.401C1052.83 770.974 1052.18 761.852 1051.33 750.372C1049.77 727.308 1047.59 695.278 1045.12 658.92L1045.69 659.542L1026.38 656.691L1025.11 656.51L1026 655.577C1026.85 654.644 1027.79 653.634 1028.75 652.649L1043.46 636.919L1043.28 637.385C1043.04 620.221 1041 603.128 1037.21 586.386C1034.07 572.962 1028.68 560.168 1021.25 548.551C1016.31 540.82 1010.29 533.837 1003.37 527.819C1002.17 526.757 1001.03 525.876 1000.07 525.228C999.109 524.58 998.253 523.828 997.474 523.336L995.943 522.196C995.753 522.08 995.578 521.941 995.424 521.781C995.424 521.781 995.631 521.781 995.995 522.092L997.63 523.129C998.356 523.595 999.213 524.191 1000.23 524.943C1001.24 525.694 1002.4 526.549 1003.62 527.534C1010.74 533.487 1016.92 540.476 1021.95 548.266C1029.55 559.913 1035.08 572.783 1038.3 586.308C1042.2 603.115 1044.31 620.289 1044.58 637.541V637.826L1044.4 638.033L1029.55 653.556L1026.96 656.484L1026.57 655.37L1045.85 658.22H1046.39V658.765C1048.7 695.045 1050.7 727.179 1052.16 750.242C1052.83 761.671 1053.35 770.974 1053.74 777.297C1053.89 780.407 1054 782.817 1054.1 784.579C1054.1 785.356 1054.1 785.978 1054.1 786.471C1054.1 786.963 1054.1 787.196 1054.08 787.196Z" fill="#232E24"/>
<g opacity="0.6">
<path d="M1297.85 895.054C1280.85 895.65 1216.9 894.173 1198.71 895.054C1202.91 897.412 1243.48 918.377 1340.93 926.384C1368.26 928.613 1345.13 905.523 1341.97 904.59L1338.05 903.45C1379.97 906.068 1422.03 905.938 1463.94 903.061C1466.54 902.906 1470.04 901.532 1469.37 899.045C1468.87 897.179 1464.69 895.365 1462.77 895.365C1407.24 895.08 1353.44 896.246 1297.9 895.961" fill="#F8F5F0"/>
</g>
<g opacity="0.6">
<path d="M1111.82 896.97C1090.12 894.249 936.747 900.158 914.869 900.313C903.295 900.313 857.333 900.573 833.301 902.024C830.966 902.153 833.042 906.196 835.377 906.585C843.163 907.984 851.727 909.513 856.606 910.265C855.922 910.662 855.386 911.271 855.081 912C854.775 912.729 854.716 913.538 854.913 914.303C855.11 915.069 855.552 915.749 856.171 916.241C856.791 916.733 857.554 917.009 858.345 917.028C900.284 917.512 942.214 916.648 984.136 914.437C985.155 914.528 986.181 914.383 987.135 914.015C988.089 913.646 988.945 913.064 989.638 912.312C990.124 911.269 990.19 910.08 989.823 908.99C989.456 907.9 988.684 906.992 987.665 906.455C986.097 905.868 984.47 905.451 982.812 905.211C1023.09 910.602 1073.67 909.021 1111.82 896.97Z" fill="#F8F5F0"/>
</g>
<path d="M863.82 901.143L924.678 817.828H938.511L956.807 832.573L974.714 899.044L863.82 901.143Z" fill="#DDD1BC"/>
<path d="M863.82 901.146H864.391H866.026L872.255 900.965L895.352 900.343L974.688 898.477L974.065 899.28C970.095 884.535 965.761 868.442 961.245 851.753C959.515 845.326 957.785 839.012 956.055 832.81L956.262 833.172L938.096 818.427L938.485 818.557H924.678L925.171 818.298L881.26 877.901L868.492 895.082L865.066 899.695L864.158 900.913L863.82 901.327C863.82 901.327 863.82 901.327 864.054 900.965L864.858 899.798C865.663 898.71 866.753 897.207 868.128 895.263L880.508 878.03L924.159 817.65L924.341 817.391H938.718L938.9 817.546L957.222 832.265L957.378 832.395V832.602C959.039 838.796 960.752 845.119 962.569 851.52L975.337 899.099L975.545 899.876H974.74L894.807 901.016L871.917 901.275H865.87H863.846L863.82 901.146Z" fill="#B3A794"/>
<path d="M938.485 817.828C938.485 817.828 884.348 900.754 883.31 900.754C882.272 900.754 863.82 901.247 863.82 901.247L924.678 817.932L938.485 817.828Z" fill="#B3A794"/>
<path opacity="0.2" d="M963.789 858.438L949.1 862.532L916.4 852.167L898.623 854.188L893.121 861.885L915.336 855.121L947.854 863.828H950.164L964.775 862.144L963.789 858.438Z" fill="black"/>
<path opacity="0.2" d="M970.692 884.171L946.842 888.498L881.105 877.562L879.521 879.765L946.245 890.286L971.989 888.965L970.692 884.171Z" fill="black"/>
<path d="M1421.15 892.67C1419.9 892.256 1414.87 875.645 1399.89 861.573C1388.93 851.717 1377.11 842.862 1364.57 835.115L1345.31 849.16L1329.2 890.831L1421.15 892.67Z" fill="#DDD1BC"/>
<path d="M1421.15 892.673L1395.48 892.466C1379.18 892.31 1355.95 892.103 1329.33 891.585H1328.39L1328.73 890.703L1339.29 863.312L1344.82 849.007V848.826H1344.98L1364.26 834.806L1364.62 834.573L1364.96 834.78C1374.34 840.611 1383.34 847.033 1391.9 854.009C1395.52 856.973 1398.98 860.121 1402.28 863.442C1405.1 866.327 1407.7 869.419 1410.06 872.693C1413.35 877.334 1416.2 882.27 1418.58 887.438C1419.27 889.328 1420.14 891.149 1421.17 892.88C1420.91 893.088 1419.87 891.144 1418.14 887.697C1415.6 882.645 1412.66 877.809 1409.34 873.237C1406.96 870.031 1404.36 867 1401.55 864.167C1398.26 860.911 1394.79 857.831 1391.17 854.942C1382.63 847.977 1373.66 841.539 1364.34 835.661H1365.04L1345.81 849.707L1346.04 849.422C1344.22 854.086 1342.38 858.881 1340.51 863.727C1336.85 873.211 1333.27 882.437 1329.92 891.092L1329.33 890.211C1355.56 890.755 1378.3 891.481 1394.75 891.973L1421.15 892.673Z" fill="#B3A794"/>
<path d="M1364.57 835.115L1379.91 861.703L1375.68 866.886L1386.06 869.348L1396.88 892.1L1421.25 892.593C1421.25 892.593 1414.4 879.636 1407.26 869.27C1399.74 858.774 1364.57 835.115 1364.57 835.115Z" fill="#B3A794"/>
<path opacity="0.2" d="M1338.07 867.896L1380.94 877.173L1388.57 874.893L1403.06 864.734L1407.16 869.425L1390.26 878.443L1382.58 885.129L1334.13 878.132L1338.07 867.896Z" fill="black"/>
<path d="M749.865 905.059C749.865 905.422 696.507 905.733 630.692 905.733C564.877 905.733 511.52 905.422 511.52 905.059C511.52 904.696 564.877 904.385 630.692 904.385C696.507 904.385 749.865 904.67 749.865 905.059Z" fill="#F8F5F0"/>
<path d="M717.268 918.064C717.268 918.427 685.036 918.738 645.277 918.738C605.518 918.738 573.285 918.427 573.285 918.064C573.285 917.702 605.518 917.391 645.277 917.391C685.036 917.391 717.268 917.676 717.268 918.064Z" fill="#F8F5F0"/>
<path d="M1140.47 896.87H1137.88L1128.2 897.025L1092.64 897.518L975.313 899.746C929.481 900.653 887.983 901.353 857.931 901.56C842.93 901.56 830.759 901.69 822.376 901.56H812.696L822.35 901.405L857.931 900.913L975.287 898.71C1021.09 897.777 1062.59 897.077 1092.62 896.87C1107.64 896.87 1119.81 896.87 1128.2 896.87H1137.88H1140.47Z" fill="#F8F5F0"/>
<path d="M620.621 788.03L620.673 787.719L578.527 781.189L636.167 688.027L648.312 609.714L545.256 776.369L620.621 788.03Z" fill="#B3BFA6"/>
<path d="M741.585 492.809L721.628 621.267L693.963 799.402L729.258 804.87L718.799 872.351L752.018 877.482L762.555 809.69L727.26 804.222L777.062 483.506L695.572 470.885L695.39 471.17L743.765 478.66L741.585 492.809Z" fill="#B3BFA6"/>
<path d="M683.428 867.198L677.822 903.374L711.924 902.882L716.673 872.355L683.428 867.198Z" fill="#B3BFA6"/>
<path d="M716.646 872.353L718.723 872.664V872.353L729.103 804.976L693.782 799.508L721.473 621.372L716.698 588.046L725.314 571.383L729.077 541.297C729.077 541.297 730.712 524.634 731.231 520.876C731.75 517.119 741.483 492.811 741.483 492.811L743.689 478.688L695.314 471.172L662.198 465.99L523.951 689.164L535.24 698.804L512.61 707.46L476.77 765.741L466.389 833.559L610.346 855.846L602.794 904.435L678.055 903.373L683.687 867.092L716.646 872.353ZM636.194 688.024L620.623 787.717V788.053L545.232 776.366L648.314 609.711L636.194 688.024Z" fill="#B3BFA6"/>
<path d="M731.387 520.774C730.868 524.532 729.233 541.195 729.233 541.195L725.47 571.281L716.854 587.944L721.629 621.27L741.482 492.812C741.482 492.812 731.932 517.017 731.387 520.774Z" fill="#B3BFA6"/>
<path opacity="0.3" d="M730.764 520.776C730.245 524.533 728.61 541.196 728.61 541.196L724.847 571.283L716.23 587.946L721.629 621.271L741.482 493.099C741.482 493.099 731.309 517.018 730.764 520.776Z" fill="black"/>
<path opacity="0.3" d="M605.258 886.919C605.258 886.919 614.159 896.766 622.256 897.285C630.353 897.803 634.039 874.661 642.473 879.144C650.908 883.628 645.068 893.346 656.176 895.108C663.771 896.136 671.471 896.136 679.066 895.108L677.794 903.349L602.74 903.919L605.258 886.919Z" fill="#F8F5F0"/>
<g opacity="0.3">
<path d="M620.621 788.025L620.673 787.714L578.527 781.184L636.167 688.022L648.312 609.708L545.256 776.364L620.621 788.025Z" fill="black"/>
<path d="M741.583 492.809L721.626 621.267L693.961 799.402L729.256 804.87L718.797 872.351L752.016 877.482L762.553 809.69L727.258 804.222L777.06 483.506L695.57 470.885L695.388 471.17L743.763 478.66L741.583 492.809Z" fill="black"/>
<path d="M683.426 867.193L677.82 903.369L711.922 902.877L716.671 872.35L683.426 867.193Z" fill="black"/>
</g>
<path d="M693.937 799.404C693.573 799.404 704.318 727.492 718.176 638.942C732.035 550.393 743.402 478.61 743.765 478.688C744.128 478.765 733.384 550.574 719.526 639.149C705.667 727.725 694.326 799.456 693.937 799.404Z" fill="#232E24"/>
<path d="M646.887 611.99C646.625 612.589 646.321 613.169 645.978 613.726C645.252 614.944 644.317 616.577 643.149 618.598L632.483 636.349L596.903 694.682C582.836 717.358 569.964 737.804 560.569 752.601L549.436 770.067C548.138 772.011 547.126 773.592 546.348 774.784C546.014 775.35 545.623 775.88 545.18 776.365C545.445 775.762 545.758 775.182 546.114 774.628L548.969 769.782L559.739 752.083L595.709 693.983L631.679 635.909L642.682 618.365L645.745 613.622C646.062 613.036 646.445 612.489 646.887 611.99Z" fill="#232E24"/>
<path d="M718.774 872.355C718.411 872.355 720.357 857.118 723.16 838.433C725.963 819.749 728.506 804.745 728.87 804.745C729.233 804.745 727.286 819.982 724.484 838.667C721.681 857.351 719.137 872.407 718.774 872.355Z" fill="#232E24"/>
<path d="M1496.54 895.054C1496.54 895.417 1426.47 895.728 1339.99 895.728C1253.52 895.728 1183.42 895.417 1183.42 895.054C1183.42 894.691 1253.49 894.38 1339.99 894.38C1426.49 894.38 1496.54 894.536 1496.54 895.054Z" fill="#F8F5F0"/>
<path d="M548.449 566.797C544.374 567.834 542.532 572.628 541.935 576.8C541.712 578.891 541.971 581.005 542.69 582.981C543.41 584.957 544.572 586.743 546.087 588.203C548.082 590.155 550.561 591.542 553.271 592.221C555.98 592.899 558.822 592.845 561.503 592.064C564.164 591.209 566.532 589.627 568.339 587.497C570.146 585.367 571.32 582.775 571.728 580.014C572.057 577.244 571.56 574.439 570.3 571.95C569.04 569.46 567.072 567.398 564.643 566.02C561.939 564.379 558.788 563.623 555.633 563.86C552.477 564.097 549.475 565.315 547.048 567.342" fill="#B3BFA6"/>
<g opacity="0.7">
<path d="M548.449 566.797C544.374 567.834 542.532 572.628 541.935 576.8C541.712 578.891 541.971 581.005 542.69 582.981C543.41 584.957 544.572 586.743 546.087 588.203C548.082 590.155 550.561 591.542 553.271 592.221C555.98 592.899 558.822 592.845 561.503 592.064C564.164 591.209 566.532 589.627 568.339 587.497C570.146 585.367 571.32 582.775 571.728 580.014C572.057 577.244 571.56 574.439 570.3 571.95C569.04 569.46 567.072 567.398 564.643 566.02C561.939 564.379 558.788 563.623 555.633 563.86C552.477 564.097 549.475 565.315 547.048 567.342" fill="#F8F5F0"/>
</g>
<path d="M554.211 576.075C552.14 569.865 548.809 564.148 544.427 559.282C543.037 557.547 541.26 556.162 539.236 555.239C538.239 554.687 537.087 554.478 535.959 554.644C534.831 554.811 533.789 555.344 532.994 556.161C532.2 556.978 531.697 558.033 531.563 559.164C531.429 560.295 531.673 561.439 532.255 562.418C533.148 564.356 534.46 566.073 536.096 567.445C541.155 572.064 547.481 575.069 554.262 576.075" fill="#F8F5F0"/>
<path d="M554.21 576.076C553.333 576.073 552.46 575.95 551.615 575.713C549.273 575.242 546.98 574.557 544.764 573.666C541.459 572.32 538.426 570.388 535.81 567.965C534.165 566.583 532.807 564.893 531.813 562.989C531.264 561.907 531.028 560.692 531.134 559.483C531.239 558.274 531.682 557.119 532.41 556.148C533.273 555.279 534.372 554.681 535.571 554.427C536.77 554.174 538.017 554.277 539.158 554.722C541.168 555.535 542.95 556.825 544.348 558.48C546.754 561.095 548.845 563.982 550.577 567.084C551.729 569.163 552.718 571.329 553.535 573.562C553.865 574.397 554.1 575.266 554.236 576.154C554.054 576.154 552.99 572.655 549.928 567.524C548.133 564.539 546.028 561.75 543.648 559.206C542.344 557.692 540.698 556.511 538.846 555.759C537.896 555.394 536.862 555.307 535.864 555.509C534.867 555.711 533.947 556.193 533.215 556.899C532.62 557.725 532.264 558.699 532.186 559.714C532.108 560.729 532.311 561.745 532.774 562.652C533.695 564.441 534.956 566.034 536.485 567.343C538.998 569.73 541.904 571.667 545.075 573.07C550.525 575.324 554.262 575.868 554.21 576.076Z" fill="#232E24"/>
<path d="M558.83 574.933C564.774 572.154 570.076 568.175 574.401 563.245C575.999 561.652 577.169 559.682 577.801 557.518C578.232 556.466 578.304 555.302 578.007 554.205C577.71 553.109 577.06 552.139 576.158 551.447C575.255 550.755 574.15 550.378 573.012 550.375C571.874 550.372 570.766 550.742 569.86 551.428C568.048 552.554 566.492 554.046 565.292 555.808C561.286 561.4 559.045 568.06 558.856 574.933" fill="#F8F5F0"/>
<path d="M558.829 574.934C558.721 574.073 558.721 573.203 558.829 572.342C559.03 569.968 559.447 567.618 560.075 565.32C561.018 561.877 562.584 558.637 564.695 555.757C565.876 553.963 567.402 552.422 569.184 551.222C570.196 550.547 571.377 550.17 572.593 550.133C573.809 550.096 575.011 550.402 576.062 551.015C577.024 551.766 577.743 552.783 578.131 553.94C578.519 555.096 578.557 556.341 578.242 557.519C577.685 559.607 576.614 561.522 575.127 563.091C572.816 565.773 570.203 568.182 567.342 570.269C565.42 571.67 563.379 572.901 561.243 573.949C560.484 574.386 559.673 574.726 558.829 574.96C558.829 574.778 562.177 573.301 566.927 569.777C569.672 567.645 572.194 565.239 574.453 562.599C575.813 561.129 576.793 559.35 577.308 557.416C577.581 556.436 577.559 555.397 577.245 554.43C576.931 553.462 576.339 552.608 575.543 551.974C574.655 551.465 573.642 551.214 572.619 551.251C571.596 551.287 570.604 551.61 569.755 552.181C568.079 553.306 566.642 554.75 565.525 556.431C563.435 559.201 561.845 562.314 560.828 565.631C560.002 568.695 559.335 571.8 558.829 574.934Z" fill="#232E24"/>
<path d="M553.925 574.934C552.394 575.323 551.693 577.137 551.485 578.692C551.395 579.478 551.486 580.274 551.751 581.02C552.016 581.766 552.449 582.441 553.016 582.993C553.77 583.728 554.705 584.249 555.726 584.504C556.748 584.759 557.819 584.739 558.83 584.445C559.836 584.129 560.733 583.536 561.417 582.733C562.101 581.931 562.545 580.952 562.697 579.91C562.8 578.889 562.611 577.86 562.152 576.943C561.692 576.025 560.981 575.257 560.101 574.727C559.078 574.112 557.887 573.831 556.696 573.924C555.505 574.017 554.373 574.479 553.458 575.245" fill="#B3BFA6"/>
<path d="M552.654 590.537C552.654 590.667 551.642 590.537 550.059 589.708C548.156 588.697 546.512 587.26 545.258 585.51C543.919 583.775 543.165 581.661 543.104 579.472C542.988 578.568 543.19 577.652 543.675 576.88C543.831 576.88 543.675 577.917 543.831 579.472C544.086 581.454 544.865 583.332 546.089 584.914C547.953 587.135 550.172 589.035 552.654 590.537Z" fill="#F8F5F0"/>
<path d="M557.637 590.923C557.767 591.182 557.248 591.675 556.443 591.7C555.639 591.726 555.068 591.312 555.146 591.053C555.224 590.793 555.795 590.716 556.391 590.664C556.988 590.612 557.533 590.664 557.637 590.923Z" fill="#F8F5F0"/>
<path d="M569.237 573.354C570.344 575.235 570.758 577.443 570.407 579.596C570.056 581.749 568.963 583.712 567.316 585.145C568.202 583.312 568.898 581.393 569.393 579.418C569.559 577.397 569.507 575.364 569.237 573.354Z" fill="#F8F5F0"/>
<path d="M557.74 566.175C557.472 566.326 557.157 566.372 556.857 566.305C556.546 566.305 556.182 566.175 556.027 565.942C555.871 565.709 556.286 565.165 557.013 565.268C557.74 565.372 557.973 565.942 557.74 566.175Z" fill="#F8F5F0"/>
<path d="M555.223 583.148C555.223 583.277 554.704 583.303 554.029 582.94C553.141 582.465 552.458 581.681 552.109 580.738C551.737 579.797 551.737 578.75 552.109 577.809C552.394 577.109 552.784 576.799 552.887 576.876C552.991 576.954 552.368 578.587 553.017 580.375C553.666 582.163 555.327 582.888 555.223 583.148Z" fill="#F8F5F0"/>
<path d="M557.896 583.589C557.903 583.732 557.857 583.873 557.766 583.983C557.674 584.093 557.545 584.165 557.402 584.185C557.334 584.2 557.264 584.201 557.195 584.188C557.126 584.175 557.061 584.149 557.003 584.11C556.944 584.071 556.895 584.021 556.856 583.963C556.818 583.904 556.792 583.839 556.78 583.77C556.769 583.7 556.772 583.628 556.79 583.56C556.808 583.491 556.84 583.427 556.884 583.371C556.928 583.315 556.982 583.269 557.045 583.235C557.107 583.201 557.176 583.18 557.247 583.174C557.388 583.143 557.535 583.17 557.657 583.247C557.779 583.325 557.864 583.448 557.896 583.589Z" fill="#F8F5F0"/>
<path d="M1346.51 968.264C1342.46 969.275 1340.62 974.095 1340.02 978.241C1339.8 980.33 1340.05 982.441 1340.77 984.417C1341.48 986.392 1342.64 988.179 1344.15 989.644C1346.14 991.598 1348.63 992.988 1351.34 993.671C1354.05 994.354 1356.9 994.306 1359.59 993.531C1362.25 992.675 1364.62 991.093 1366.42 988.964C1368.23 986.834 1369.4 984.242 1369.81 981.481C1370.14 978.707 1369.64 975.899 1368.38 973.406C1367.12 970.913 1365.16 968.846 1362.73 967.461C1360.02 965.817 1356.86 965.063 1353.7 965.305C1350.54 965.546 1347.53 966.772 1345.11 968.808" fill="#B3BFA6"/>
<g opacity="0.7">
<path d="M1346.51 968.264C1342.46 969.275 1340.62 974.095 1340.02 978.241C1339.8 980.33 1340.05 982.441 1340.77 984.417C1341.48 986.392 1342.64 988.179 1344.15 989.644C1346.14 991.598 1348.63 992.988 1351.34 993.671C1354.05 994.354 1356.9 994.306 1359.59 993.531C1362.25 992.675 1364.62 991.093 1366.42 988.964C1368.23 986.834 1369.4 984.242 1369.81 981.481C1370.14 978.707 1369.64 975.899 1368.38 973.406C1367.12 970.913 1365.16 968.846 1362.73 967.461C1360.02 965.817 1356.86 965.063 1353.7 965.305C1350.54 965.546 1347.53 966.772 1345.11 968.808" fill="#F8F5F0"/>
</g>
<path d="M1352.29 977.542C1350.22 971.332 1346.89 965.616 1342.51 960.75C1341.1 958.983 1339.27 957.594 1337.19 956.707C1336.15 956.277 1335 956.158 1333.89 956.365C1332.78 956.572 1331.75 957.096 1330.94 957.873C1330.28 958.715 1329.87 959.72 1329.74 960.779C1329.61 961.838 1329.77 962.911 1330.21 963.885C1331.11 965.819 1332.42 967.534 1334.05 968.913C1339.11 973.532 1345.44 976.537 1352.22 977.542" fill="#F8F5F0"/>
<path d="M1352.29 977.538C1351.42 977.519 1350.55 977.397 1349.7 977.175C1347.36 976.68 1345.07 975.986 1342.85 975.102C1339.54 973.766 1336.5 971.833 1333.89 969.401C1332.25 968.031 1330.89 966.349 1329.9 964.451C1329.35 963.364 1329.11 962.146 1329.22 960.933C1329.33 959.72 1329.77 958.56 1330.5 957.584C1331.36 956.725 1332.46 956.136 1333.66 955.887C1334.86 955.639 1336.1 955.742 1337.24 956.185C1339.26 956.984 1341.04 958.276 1342.43 959.942C1346.48 964.302 1349.6 969.431 1351.62 975.024C1351.96 975.857 1352.19 976.727 1352.32 977.616C1351.03 974.66 1349.59 971.771 1348.01 968.96C1346.22 965.979 1344.12 963.199 1341.73 960.668C1340.44 959.147 1338.79 957.964 1336.93 957.221C1335.99 956.833 1334.95 956.732 1333.95 956.93C1332.95 957.128 1332.02 957.617 1331.3 958.335C1330.7 959.166 1330.35 960.144 1330.27 961.163C1330.19 962.182 1330.39 963.203 1330.86 964.114C1331.77 965.907 1333.03 967.501 1334.57 968.805C1337.08 971.192 1339.99 973.129 1343.16 974.532C1348.61 976.786 1352.35 977.305 1352.29 977.538Z" fill="#232E24"/>
<path d="M1356.91 976.375C1362.85 973.597 1368.15 969.627 1372.49 964.713C1374.07 963.101 1375.24 961.126 1375.89 958.96C1376.31 957.91 1376.37 956.751 1376.07 955.66C1375.77 954.569 1375.12 953.607 1374.22 952.92C1373.32 952.233 1372.22 951.858 1371.09 951.854C1369.95 951.85 1368.85 952.216 1367.94 952.896C1366.12 954.008 1364.56 955.502 1363.38 957.276C1359.37 962.856 1357.12 969.509 1356.94 976.375" fill="#F8F5F0"/>
<path d="M1356.91 976.371C1356.8 975.511 1356.8 974.64 1356.91 973.78C1357.12 971.406 1357.54 969.056 1358.16 966.757C1359.11 963.319 1360.68 960.08 1362.78 957.195C1363.97 955.412 1365.5 953.873 1367.27 952.66C1368.28 951.985 1369.46 951.607 1370.68 951.571C1371.89 951.534 1373.1 951.839 1374.15 952.452C1375.11 953.21 1375.83 954.232 1376.21 955.392C1376.6 956.552 1376.64 957.8 1376.33 958.983C1375.74 961.06 1374.68 962.97 1373.21 964.554C1370.9 967.23 1368.29 969.63 1365.43 971.707C1363.5 973.104 1361.46 974.344 1359.33 975.412C1358.56 975.831 1357.75 976.161 1356.91 976.397C1356.91 976.216 1360.26 974.739 1364.98 971.214C1367.75 969.087 1370.28 966.672 1372.54 964.01C1373.89 962.537 1374.87 960.759 1375.39 958.827C1375.66 957.845 1375.64 956.805 1375.32 955.837C1375 954.869 1374.4 954.016 1373.6 953.385C1372.71 952.888 1371.7 952.647 1370.69 952.688C1369.67 952.729 1368.68 953.051 1367.84 953.618C1366.16 954.734 1364.73 956.17 1363.61 957.842C1361.52 960.612 1359.93 963.726 1358.91 967.042C1358.09 970.116 1357.42 973.23 1356.91 976.371Z" fill="#232E24"/>
<path d="M1352.01 976.373C1350.48 976.762 1349.78 978.575 1349.41 980.13C1349.33 980.919 1349.42 981.716 1349.69 982.462C1349.96 983.208 1350.4 983.882 1350.97 984.432C1351.72 985.167 1352.66 985.688 1353.68 985.943C1354.7 986.198 1355.77 986.177 1356.78 985.883C1357.79 985.565 1358.69 984.971 1359.37 984.169C1360.05 983.367 1360.5 982.39 1360.65 981.348C1360.76 980.327 1360.58 979.294 1360.12 978.375C1359.66 977.455 1358.94 976.688 1358.06 976.165C1357.04 975.543 1355.85 975.255 1354.66 975.344C1353.46 975.432 1352.33 975.892 1351.41 976.658" fill="#B3BFA6"/>
<path d="M1350.74 992.001C1349.82 991.928 1348.93 991.634 1348.14 991.145C1346.23 990.144 1344.59 988.705 1343.34 986.947C1342.01 985.218 1341.25 983.117 1341.16 980.935C1341.16 979.251 1341.66 978.344 1341.76 978.344C1341.86 978.344 1341.76 979.354 1341.76 980.935C1342.04 982.924 1342.82 984.807 1344.04 986.403C1345.96 988.618 1348.22 990.508 1350.74 992.001Z" fill="#F8F5F0"/>
<path d="M1355.72 992.387C1355.85 992.62 1355.33 993.112 1354.53 993.164C1353.72 993.216 1353.12 992.75 1353.23 992.491C1353.33 992.231 1353.88 992.154 1354.47 992.128C1355.07 992.102 1355.62 992.128 1355.72 992.387Z" fill="#F8F5F0"/>
<path d="M1367.32 974.792C1367.95 975.692 1368.37 976.714 1368.57 977.79C1368.77 978.866 1368.75 979.973 1368.49 981.037C1368.41 982.13 1368.09 983.192 1367.56 984.15C1367.02 985.108 1366.29 985.938 1365.4 986.583C1367.51 983.036 1368.2 978.823 1367.32 974.792Z" fill="#F8F5F0"/>
<path d="M1355.82 967.613C1355.68 967.671 1355.53 967.701 1355.38 967.701C1355.23 967.701 1355.08 967.671 1354.94 967.613C1354.63 967.606 1354.33 967.475 1354.11 967.25C1353.93 967.017 1354.37 966.498 1355.07 966.602C1355.77 966.706 1356.06 967.457 1355.82 967.613Z" fill="#F8F5F0"/>
<path d="M1353.31 984.616C1353.31 984.745 1352.79 984.745 1352.11 984.408C1351.22 983.929 1350.53 983.134 1350.19 982.18C1349.82 981.239 1349.82 980.192 1350.19 979.251C1350.48 978.552 1350.87 978.267 1350.97 978.318C1351.08 978.37 1350.45 980.055 1350.97 981.843C1351.49 983.631 1353.41 984.356 1353.31 984.616Z" fill="#F8F5F0"/>
<path d="M1355.98 985.057C1355.99 985.2 1355.94 985.341 1355.85 985.452C1355.76 985.562 1355.63 985.634 1355.49 985.653C1355.42 985.668 1355.35 985.67 1355.28 985.657C1355.21 985.644 1355.14 985.617 1355.09 985.579C1355.03 985.54 1354.98 985.49 1354.94 985.431C1354.9 985.373 1354.88 985.307 1354.86 985.239C1354.85 985.169 1354.86 985.097 1354.87 985.028C1354.89 984.96 1354.92 984.895 1354.97 984.84C1355.01 984.784 1355.07 984.737 1355.13 984.704C1355.19 984.67 1355.26 984.649 1355.33 984.643C1355.47 984.612 1355.62 984.638 1355.74 984.716C1355.86 984.794 1355.95 984.917 1355.98 985.057Z" fill="#F8F5F0"/>
<path d="M844.045 660.684C839.892 660.14 836.415 663.949 834.364 667.629C833.39 669.489 832.858 671.548 832.808 673.647C832.759 675.745 833.194 677.827 834.079 679.731C835.226 682.282 837.032 684.481 839.313 686.102C841.594 687.724 844.266 688.709 847.055 688.957C849.845 689.125 852.627 688.511 855.085 687.182C857.543 685.854 859.58 683.866 860.966 681.441C862.261 678.987 862.811 676.209 862.549 673.447C862.286 670.685 861.222 668.06 859.486 665.893C857.558 663.377 854.89 661.525 851.857 660.596C848.823 659.667 845.575 659.707 842.565 660.71" fill="#B3BFA6"/>
<g opacity="0.7">
<path d="M844.045 660.684C839.892 660.14 836.415 663.949 834.364 667.629C833.39 669.489 832.858 671.548 832.808 673.647C832.759 675.745 833.194 677.827 834.079 679.731C835.226 682.282 837.032 684.481 839.313 686.102C841.594 687.724 844.266 688.709 847.055 688.957C849.845 689.125 852.627 688.511 855.085 687.182C857.543 685.854 859.58 683.866 860.966 681.441C862.261 678.987 862.811 676.209 862.549 673.447C862.286 670.685 861.222 668.06 859.486 665.893C857.558 663.377 854.89 661.525 851.857 660.596C848.823 659.667 845.575 659.707 842.565 660.71" fill="#F8F5F0"/>
</g>
<path d="M846.044 671.413C846.382 664.875 845.366 658.338 843.059 652.21C842.378 650.058 841.185 648.102 839.582 646.509C838.762 645.735 837.736 645.213 836.627 645.006C835.517 644.799 834.372 644.916 833.327 645.343C832.411 645.892 831.66 646.678 831.153 647.617C830.646 648.557 830.402 649.615 830.447 650.682C830.654 652.775 831.29 654.804 832.315 656.642C835.363 662.804 840.19 667.913 846.174 671.309" fill="#F8F5F0"/>
<path d="M846.044 671.411C845.24 671.076 844.481 670.641 843.786 670.116C841.774 668.837 839.888 667.371 838.154 665.736C835.553 663.285 833.424 660.377 831.874 657.159C830.85 655.279 830.198 653.22 829.953 651.094C829.838 649.884 830.063 648.665 830.605 647.575C831.146 646.485 831.981 645.568 833.016 644.927C834.13 644.43 835.366 644.27 836.57 644.468C837.774 644.666 838.894 645.213 839.789 646.041C841.367 647.532 842.56 649.381 843.267 651.431C844.522 654.778 845.392 658.255 845.862 661.797C846.193 664.157 846.323 666.541 846.251 668.924C846.29 669.795 846.203 670.668 845.992 671.515C845.938 668.274 845.704 665.038 845.291 661.823C844.715 658.399 843.776 655.046 842.488 651.82C841.818 649.928 840.706 648.223 839.244 646.845C838.503 646.143 837.571 645.675 836.564 645.5C835.558 645.324 834.522 645.45 833.587 645.86C832.717 646.401 832.015 647.171 831.557 648.086C831.099 649.001 830.903 650.024 830.991 651.043C831.205 653.039 831.805 654.975 832.756 656.744C834.231 659.884 836.232 662.75 838.673 665.218C842.903 669.364 846.199 671.23 846.044 671.411Z" fill="#232E24"/>
<path d="M850.767 672.008C857.31 671.578 863.696 669.814 869.53 666.825C871.571 665.907 873.354 664.501 874.721 662.73C875.504 661.906 875.995 660.847 876.117 659.717C876.239 658.587 875.985 657.448 875.395 656.476C874.805 655.504 873.911 654.752 872.852 654.337C871.792 653.922 870.625 653.866 869.53 654.179C867.434 654.557 865.443 655.379 863.691 656.589C857.906 660.359 853.386 665.775 850.715 672.137" fill="#F8F5F0"/>
<path d="M850.768 672.008C851.017 671.171 851.356 670.363 851.78 669.598C852.824 667.457 854.066 665.418 855.491 663.508C857.62 660.642 860.259 658.191 863.277 656.278C865.015 655.024 866.994 654.142 869.09 653.687C870.279 653.421 871.519 653.497 872.667 653.905C873.815 654.313 874.824 655.037 875.578 655.993C876.199 657.041 876.497 658.248 876.437 659.464C876.378 660.681 875.961 661.852 875.241 662.835C873.943 664.572 872.242 665.968 870.284 666.903C867.149 668.562 863.83 669.85 860.396 670.738C858.091 671.345 855.738 671.753 853.363 671.956C852.5 672.051 851.63 672.051 850.768 671.956C850.768 671.749 854.505 671.62 860.24 669.987C863.581 669.008 866.808 667.679 869.868 666.022C871.663 665.141 873.22 663.843 874.41 662.239C875.025 661.423 875.385 660.445 875.445 659.426C875.505 658.407 875.262 657.393 874.748 656.511C874.096 655.726 873.24 655.134 872.275 654.8C871.309 654.467 870.27 654.404 869.272 654.62C867.307 655.062 865.448 655.88 863.796 657.03C860.818 658.846 858.182 661.17 856.01 663.897C852.429 668.639 850.975 672.19 850.768 672.008Z" fill="#232E24"/>
<path d="M846.199 670.222C844.642 670.041 843.319 671.466 842.566 672.814C842.193 673.517 841.987 674.297 841.965 675.092C841.942 675.888 842.104 676.678 842.436 677.401C842.868 678.358 843.548 679.182 844.405 679.788C845.263 680.394 846.268 680.76 847.315 680.847C848.358 680.906 849.396 680.673 850.314 680.174C851.231 679.675 851.99 678.93 852.506 678.023C853.001 677.096 853.214 676.045 853.117 675C853.02 673.954 852.618 672.96 851.961 672.14C851.23 671.195 850.223 670.499 849.079 670.151C847.935 669.803 846.711 669.819 845.576 670.197" fill="#B3BFA6"/>
<path d="M839.347 684.318C839.347 684.318 838.439 683.826 837.323 682.634C835.911 681.005 834.899 679.071 834.364 676.984C833.768 674.882 833.831 672.648 834.546 670.584C835.169 669.003 835.947 668.303 836.051 668.381C836.155 668.459 835.636 669.314 835.247 670.791C834.774 672.738 834.819 674.775 835.376 676.699C836.271 679.44 837.612 682.014 839.347 684.318Z" fill="#F8F5F0"/>
<path d="M843.837 686.494C843.837 686.78 843.215 687.039 842.436 686.78C841.657 686.52 841.294 685.898 841.476 685.691C841.657 685.484 842.202 685.691 842.773 685.691C843.344 685.691 843.837 686.209 843.837 686.494Z" fill="#F8F5F0"/>
<path d="M861.044 674.318C861.421 676.483 861.018 678.713 859.906 680.61C858.795 682.508 857.046 683.951 854.971 684.684C856.466 683.314 857.806 681.784 858.967 680.123C859.864 678.267 860.56 676.321 861.044 674.318Z" fill="#F8F5F0"/>
<path d="M853.077 663.486C852.773 663.516 852.468 663.433 852.221 663.253C852.077 663.197 851.946 663.113 851.834 663.007C851.723 662.9 851.634 662.772 851.572 662.631C851.572 662.346 852.091 662.009 852.714 662.372C853.337 662.734 853.233 663.408 853.077 663.486Z" fill="#F8F5F0"/>
<path d="M844.436 678.359C844.436 678.359 843.891 678.359 843.372 677.738C842.714 676.976 842.371 675.995 842.411 674.991C842.424 673.98 842.812 673.01 843.501 672.27C844.046 671.725 844.513 671.596 844.591 671.699C844.669 671.803 843.475 673.099 843.423 675.016C843.372 676.934 844.617 678.178 844.436 678.359Z" fill="#F8F5F0"/>
<path d="M846.743 679.757C846.701 679.894 846.607 680.009 846.48 680.077C846.354 680.145 846.206 680.16 846.068 680.12C845.991 680.119 845.914 680.1 845.845 680.066C845.775 680.031 845.714 679.981 845.666 679.92C845.619 679.859 845.585 679.788 845.569 679.712C845.552 679.636 845.553 679.558 845.571 679.482C845.589 679.407 845.623 679.336 845.672 679.276C845.721 679.215 845.783 679.167 845.853 679.134C845.923 679.1 846 679.083 846.077 679.083C846.155 679.084 846.232 679.101 846.302 679.135C846.373 679.144 846.441 679.168 846.503 679.205C846.564 679.242 846.617 679.291 846.659 679.35C846.7 679.408 846.729 679.474 846.744 679.545C846.758 679.615 846.758 679.687 846.743 679.757Z" fill="#F8F5F0"/>
<path d="M1238.75 533.576C1234.68 534.587 1232.84 539.407 1232.27 543.553C1232.04 545.642 1232.3 547.753 1233.01 549.729C1233.73 551.704 1234.88 553.491 1236.39 554.955C1238.39 556.908 1240.88 558.294 1243.59 558.973C1246.3 559.651 1249.15 559.597 1251.83 558.817C1254.5 557.971 1256.87 556.396 1258.67 554.269C1260.48 552.143 1261.65 549.552 1262.06 546.792C1262.39 544.019 1261.89 541.209 1260.63 538.716C1259.37 536.222 1257.4 534.155 1254.97 532.773C1252.26 531.133 1249.11 530.379 1245.95 530.616C1242.79 530.853 1239.79 532.069 1237.35 534.094" fill="#B3BFA6"/>
<g opacity="0.7">
<path d="M1238.75 533.576C1234.68 534.587 1232.84 539.407 1232.27 543.553C1232.04 545.642 1232.3 547.753 1233.01 549.729C1233.73 551.704 1234.88 553.491 1236.39 554.955C1238.39 556.908 1240.88 558.294 1243.59 558.973C1246.3 559.651 1249.15 559.597 1251.83 558.817C1254.5 557.971 1256.87 556.396 1258.67 554.269C1260.48 552.143 1261.65 549.552 1262.06 546.792C1262.39 544.019 1261.89 541.209 1260.63 538.716C1259.37 536.222 1257.4 534.155 1254.97 532.773C1252.26 531.133 1249.11 530.379 1245.95 530.616C1242.79 530.853 1239.79 532.069 1237.35 534.094" fill="#F8F5F0"/>
</g>
<path d="M1244.54 542.85C1242.46 536.637 1239.13 530.914 1234.76 526.032C1233.33 524.236 1231.48 522.813 1229.38 521.885C1228.39 521.333 1227.24 521.124 1226.11 521.29C1224.98 521.457 1223.94 521.99 1223.14 522.806C1222.35 523.623 1221.85 524.679 1221.71 525.81C1221.58 526.941 1221.82 528.084 1222.4 529.064C1223.3 530.995 1224.6 532.71 1226.22 534.091C1231.28 538.709 1237.6 541.721 1244.38 542.746" fill="#F8F5F0"/>
<path d="M1244.54 542.851C1243.66 542.815 1242.79 542.684 1241.95 542.462C1239.6 541.998 1237.31 541.312 1235.09 540.415C1231.79 539.069 1228.76 537.138 1226.14 534.714C1224.49 533.34 1223.13 531.648 1222.14 529.738C1221.59 528.656 1221.36 527.442 1221.46 526.233C1221.57 525.024 1222.01 523.868 1222.74 522.897C1223.6 522.035 1224.7 521.443 1225.89 521.194C1227.09 520.945 1228.33 521.051 1229.46 521.498C1231.48 522.29 1233.26 523.572 1234.65 525.229C1237.04 527.849 1239.13 530.736 1240.86 533.833C1242.02 535.908 1243.02 538.075 1243.84 540.311C1244.17 541.145 1244.41 542.015 1244.54 542.903C1244.36 542.903 1243.27 539.379 1240.23 534.248C1238.44 531.262 1236.33 528.474 1233.95 525.929C1232.65 524.416 1231 523.234 1229.15 522.482C1228.2 522.117 1227.17 522.031 1226.17 522.233C1225.17 522.435 1224.25 522.917 1223.52 523.623C1222.92 524.446 1222.56 525.421 1222.48 526.437C1222.4 527.453 1222.61 528.47 1223.08 529.376C1223.99 531.168 1225.25 532.763 1226.79 534.066C1229.3 536.453 1232.21 538.39 1235.38 539.793C1240.86 542.1 1244.59 542.618 1244.54 542.851Z" fill="#232E24"/>
<path d="M1249.13 541.686C1255.08 538.905 1260.38 534.926 1264.71 529.999C1266.29 528.392 1267.45 526.427 1268.11 524.272C1268.41 523.187 1268.4 522.035 1268.06 520.958C1267.73 519.881 1267.08 518.926 1266.21 518.208C1265.3 517.66 1264.25 517.37 1263.19 517.37C1262.12 517.37 1261.08 517.66 1260.16 518.208C1258.35 519.327 1256.79 520.82 1255.6 522.587C1251.59 528.182 1249.34 534.839 1249.13 541.712" fill="#F8F5F0"/>
<path d="M1249.14 541.688C1249.05 540.826 1249.05 539.958 1249.14 539.096C1249.34 536.723 1249.75 534.372 1250.38 532.074C1251.32 528.631 1252.89 525.391 1255 522.511C1256.17 520.718 1257.69 519.176 1259.46 517.976C1260.48 517.302 1261.67 516.925 1262.89 516.888C1264.11 516.852 1265.31 517.157 1266.37 517.769C1267.33 518.52 1268.05 519.537 1268.44 520.694C1268.82 521.85 1268.86 523.095 1268.55 524.273C1267.97 526.359 1266.9 528.272 1265.41 529.845C1263.1 532.528 1260.48 534.937 1257.62 537.023C1255.7 538.424 1253.66 539.655 1251.52 540.703C1250.75 541.139 1249.94 541.478 1249.08 541.714C1251.87 540.125 1254.57 538.395 1257.18 536.531C1259.94 534.412 1262.46 532.006 1264.71 529.353C1266.07 527.878 1267.05 526.101 1267.59 524.17C1267.86 523.187 1267.83 522.147 1267.51 521.179C1267.19 520.211 1266.6 519.359 1265.8 518.728C1264.9 518.233 1263.89 517.991 1262.87 518.027C1261.85 518.064 1260.86 518.378 1260.01 518.935C1258.35 520.081 1256.92 521.522 1255.78 523.185C1253.7 525.958 1252.12 529.071 1251.11 532.385C1249.47 537.956 1249.37 541.714 1249.14 541.688Z" fill="#232E24"/>
<path d="M1244.23 541.684C1242.7 542.073 1242.02 543.887 1241.79 545.442C1241.7 546.23 1241.8 547.028 1242.07 547.773C1242.34 548.519 1242.77 549.193 1243.35 549.744C1244.1 550.478 1245.04 550.999 1246.06 551.254C1247.08 551.509 1248.15 551.489 1249.16 551.195C1250.16 550.868 1251.05 550.272 1251.73 549.472C1252.42 548.671 1252.86 547.698 1253.03 546.66C1253.13 545.639 1252.94 544.61 1252.48 543.693C1252.02 542.775 1251.31 542.007 1250.43 541.477C1249.41 540.862 1248.22 540.581 1247.03 540.674C1245.84 540.767 1244.7 541.229 1243.79 541.995" fill="#B3BFA6"/>
<path d="M1242.98 557.313C1242.06 557.244 1241.17 556.951 1240.39 556.458C1238.48 555.447 1236.84 554.011 1235.59 552.26C1234.24 550.535 1233.48 548.431 1233.41 546.248C1233.41 544.563 1233.87 543.656 1234 543.656C1234.13 543.656 1234 544.667 1234.13 546.248C1234.42 548.23 1235.19 550.11 1236.39 551.716C1238.28 553.917 1240.5 555.806 1242.98 557.313Z" fill="#F8F5F0"/>
<path d="M1247.97 557.676C1247.97 557.936 1247.58 558.428 1246.75 558.454C1245.92 558.48 1245.37 558.065 1245.48 557.806C1245.58 557.547 1246.1 557.469 1246.72 557.443C1247.34 557.417 1247.86 557.417 1247.97 557.676Z" fill="#F8F5F0"/>
<path d="M1259.57 540.026C1260.67 541.907 1261.09 544.115 1260.74 546.268C1260.39 548.421 1259.29 550.384 1257.65 551.817C1258.53 549.983 1259.23 548.064 1259.72 546.09C1259.89 544.069 1259.83 542.036 1259.57 540.026Z" fill="#F8F5F0"/>
<path d="M1248.07 532.951C1247.79 533.056 1247.47 533.056 1247.19 532.951C1246.87 532.944 1246.58 532.814 1246.36 532.588C1246.18 532.355 1246.62 531.837 1247.32 531.941C1248.02 532.044 1248.3 532.77 1248.07 532.951Z" fill="#F8F5F0"/>
<path d="M1245.55 549.903C1245.55 550.032 1245.03 550.058 1244.36 549.695C1243.46 549.234 1242.77 548.446 1242.44 547.493C1242.08 546.549 1242.08 545.508 1242.44 544.564C1242.75 543.865 1243.14 543.554 1243.24 543.631C1243.35 543.709 1242.72 545.342 1243.24 547.13C1243.76 548.918 1245.66 549.644 1245.55 549.903Z" fill="#F8F5F0"/>
<path d="M1248.2 550.393C1248.21 550.463 1248.21 550.535 1248.19 550.604C1248.17 550.672 1248.14 550.737 1248.1 550.793C1248.05 550.848 1248 550.895 1247.94 550.929C1247.87 550.962 1247.8 550.983 1247.73 550.989C1247.67 551.004 1247.6 551.006 1247.53 550.993C1247.46 550.98 1247.39 550.953 1247.33 550.914C1247.28 550.876 1247.23 550.826 1247.19 550.767C1247.15 550.709 1247.12 550.643 1247.11 550.575C1247.09 550.43 1247.12 550.282 1247.21 550.163C1247.29 550.044 1247.42 549.964 1247.57 549.94C1247.71 549.916 1247.86 549.95 1247.98 550.035C1248.1 550.12 1248.18 550.249 1248.2 550.393Z" fill="#F8F5F0"/>
<path d="M636.816 983.891C636.824 984.034 636.778 984.174 636.686 984.285C636.595 984.395 636.465 984.467 636.323 984.487C636.253 984.502 636.18 984.502 636.11 984.487C636.04 984.473 635.974 984.444 635.915 984.403C635.856 984.361 635.807 984.308 635.77 984.247C635.733 984.185 635.709 984.117 635.7 984.046C635.685 983.906 635.726 983.765 635.813 983.654C635.9 983.543 636.027 983.469 636.167 983.45C636.311 983.427 636.459 983.46 636.58 983.541C636.7 983.623 636.785 983.748 636.816 983.891Z" fill="#F8F5F0"/>
</g>
</g>
<defs>
<radialGradient id="paint0_radial_595_10530" cx="0" cy="0" r="1" gradientUnits="userSpaceOnUse" gradientTransform="translate(950.838 507.187) rotate(22.9203) scale(765.238 765.246)">
<stop stop-color="#EDAE46"/>
<stop offset="1" stop-color="#F8F5F0" stop-opacity="0"/>
<stop offset="1" stop-color="white" stop-opacity="0"/>
</radialGradient>
<clipPath id="clip0_595_10530">
<rect width="1920" height="1080" fill="white"/>
</clipPath>
<clipPath id="clip1_595_10530">
<rect width="1920" height="1312" fill="white" transform="translate(0 -145)"/>
</clipPath>
</defs>
</svg>
