<svg width="374" height="702" viewBox="0 0 374 702" fill="none" xmlns="http://www.w3.org/2000/svg">
<g clip-path="url(#clip0_733_1248)">
<g clip-path="url(#clip1_733_1248)">
<path d="M362.25 471.945C401.115 376.769 358.108 266.99 266.192 226.747C174.276 186.503 68.2569 231.035 29.3922 326.212C-9.47247 421.388 33.5342 531.167 125.45 571.41C217.366 611.653 323.385 567.121 362.25 471.945Z" fill="url(#paint0_radial_733_1248)"/>
<path d="M321.694 482.012C351.239 409.659 318.545 326.204 248.67 295.61C178.794 265.017 98.1979 298.871 68.6526 371.225C39.1074 443.578 71.8014 527.033 141.677 557.626C211.552 588.219 292.148 554.366 321.694 482.012Z" fill="#F8F5F0"/>
<path fill-rule="evenodd" clip-rule="evenodd" d="M14.4675 425.56L49.4727 386.428H55.6161L69.2461 375.055L75.9267 376.906L85.01 387.988L89.6987 386.93L133.909 430.036C133.909 430.036 145.663 440.842 146.464 441.374C146.819 441.605 113.517 442.312 80.4735 442.784C38.8789 443.376 -7.42969 440.852 -7.42969 440.852L14.4675 425.56Z" fill="#ECEDDF"/>
<path fill-rule="evenodd" clip-rule="evenodd" d="M254.149 427.489L289.154 388.357H295.303L308.928 376.953L315.608 378.804L324.697 389.917L329.385 388.858L373.595 431.969C373.595 431.969 385.345 442.771 386.146 443.302C386.501 443.538 353.199 444.241 320.155 444.712C278.591 445.304 232.252 442.781 232.252 442.781L254.149 427.489Z" fill="#ECEDDF"/>
<path d="M54.9033 284.623C54.908 284.648 54.5002 284.567 53.7737 284.546C52.7516 284.519 51.7327 284.672 50.7646 284.998C49.3209 285.473 48.0383 286.335 47.0593 287.488C45.8603 288.901 45.1615 290.664 45.0698 292.507L45.0793 292.557L45.0564 292.893L44.873 292.611C43.8602 291.07 42.396 289.871 40.6762 289.177C39.2734 288.611 37.7478 288.409 36.2439 288.591C35.2265 288.711 34.2353 288.994 33.3089 289.428C32.656 289.735 32.3239 289.966 32.3142 289.943C32.3864 289.877 32.4652 289.82 32.5494 289.771C32.7815 289.616 33.0235 289.476 33.2738 289.352C34.1865 288.883 35.1755 288.576 36.1955 288.447C37.7282 288.235 39.2898 288.426 40.7245 288.999C42.4832 289.704 43.9801 290.927 45.0122 292.503L44.803 292.542L44.7936 292.493C44.8873 290.602 45.609 288.794 46.8468 287.349C47.855 286.177 49.1755 285.31 50.6576 284.845C51.6485 284.527 52.6901 284.394 53.7298 284.452C54.0119 284.467 54.2926 284.501 54.5699 284.554C54.6827 284.568 54.7942 284.591 54.9033 284.623Z" fill="#232E24"/>
<path d="M105.8 287.859C105.8 287.859 105.58 287.839 105.181 287.833C104.621 287.826 104.064 287.914 103.534 288.094C102.747 288.358 102.049 288.831 101.517 289.462C100.865 290.24 100.488 291.208 100.443 292.219L100.42 292.555L100.238 292.278C99.6849 291.44 98.89 290.786 97.9563 290.401C97.1904 290.087 96.3565 289.969 95.532 290.058C94.9765 290.124 94.4343 290.273 93.9246 290.501C93.5642 290.666 93.3803 290.783 93.3675 290.77C93.4034 290.729 93.4452 290.693 93.4917 290.664C93.619 290.577 93.7519 290.497 93.8894 290.426C94.5227 290.097 95.22 289.907 95.9339 289.869C96.6479 289.83 97.3616 289.945 98.0267 290.204C99.0069 290.59 99.8422 291.267 100.418 292.142L100.234 292.233L100.228 292.203C100.28 291.152 100.681 290.147 101.37 289.346C101.842 288.809 102.433 288.387 103.096 288.113C103.759 287.838 104.477 287.719 105.194 287.764C105.349 287.775 105.503 287.797 105.656 287.83C105.749 287.833 105.804 287.848 105.8 287.859Z" fill="#232E24"/>
<path d="M73.8233 299.79C73.69 300.047 73.5417 300.297 73.3792 300.538C71.6414 303.465 71.048 306.921 71.7113 310.252L71.7294 310.345L71.5153 310.386C71.0381 309.057 70.3318 307.82 69.4278 306.731C68.1867 305.238 66.6137 304.05 64.8317 303.26C64.3238 303.034 64.0304 302.931 64.0347 302.9C64.039 302.868 64.1094 302.886 64.2519 302.956C64.3944 303.026 64.6019 303.058 64.8603 303.167C65.5958 303.468 66.2965 303.845 66.9507 304.294C69.1618 305.74 70.8379 307.859 71.7265 310.331L71.5125 310.371L71.4954 310.282C70.9784 307.697 71.2371 305.019 72.2396 302.577C72.5368 301.841 72.9053 301.134 73.34 300.468C73.4853 300.232 73.628 300.062 73.7136 299.943C73.7444 299.888 73.7811 299.837 73.8233 299.79Z" fill="#232E24"/>
<path d="M373.5 812H-1V457H374L373.5 812Z" fill="#ECEDDF"/>
<path d="M324.139 508.732C324.139 508.807 313.576 508.862 300.544 508.862C287.512 508.862 276.943 508.807 276.943 508.732C276.943 508.657 287.507 508.602 300.544 508.602C313.581 508.602 324.139 508.662 324.139 508.732Z" fill="#F8F5F0"/>
<path d="M340.1 510.658C340.1 510.728 329.531 510.788 316.505 510.788C303.478 510.788 292.904 510.728 292.904 510.658C292.904 510.588 303.468 510.527 316.505 510.527C329.542 510.527 340.1 510.583 340.1 510.658Z" fill="#F8F5F0"/>
<path d="M28.2715 308.953L42.5047 310.202L68.7864 323.241L42.2006 308.953H28.2715Z" fill="#F8F5F0"/>
<path d="M-0.640164 437.197C-0.645987 437.147 -0.645987 437.097 -0.640164 437.047L-0.543857 436.6C-0.447549 436.194 -0.315761 435.627 -0.143421 434.904C0.216463 433.399 0.733481 431.292 1.37722 428.673L6.44602 408.144C6.92756 406.217 7.39895 404.331 7.85515 402.515V402.485H7.88049L19.4475 389.641L22.8689 385.879L23.7965 384.875L24.0449 384.619L24.1311 384.539C24.1311 384.539 24.1311 384.574 24.0601 384.634L23.832 384.905L22.9399 385.939L19.635 389.727L8.10859 402.63V402.58C7.65746 404.396 7.18606 406.278 6.70453 408.204C4.67701 416.231 2.86238 423.456 1.53942 428.718C0.880476 431.327 0.373596 433.444 -0.031908 434.929C-0.224522 435.647 -0.371517 436.209 -0.477962 436.615C-0.52865 436.796 -0.569201 436.936 -0.604682 437.052C-0.609093 437.102 -0.621053 437.151 -0.640164 437.197Z" fill="#B3A794"/>
<path opacity="0.1" fill-rule="evenodd" clip-rule="evenodd" d="M257.904 432.03C258.644 432.276 309.099 423.501 309.099 423.501L315.248 428.127L373.128 413.191L373.397 421.133L312.064 430.811L307.604 428.127L256.551 437.092L242.389 433.079" fill="black"/>
<path fill-rule="evenodd" clip-rule="evenodd" d="M79.4105 404.399L76.349 396.021L73.9362 402.739L72.0354 397.877L72.0202 397.607L68.9587 389.228L65.4815 398.911L65.3649 398.851L63.6871 390.322L62.7392 397.476L59.0238 395.524L56.6009 383.203L55.2323 393.538L54.8319 393.332L54.026 390.196L54.0006 389.745L50.6045 375.738L47.8826 389.69L39.9195 385.516L37.4966 373.189L36.0115 384.412L32.6154 370.42L29.7768 384.984L29.1584 385.024L27.7138 379.41L27.6885 378.958L24.2924 364.951L20.2678 385.571L18.4329 385.686L16.0353 373.485L14.4488 385.455L11.3619 372.722L8.71596 386.293L5.40603 386.499L4.00705 381.086L3.97156 380.438L-0.869141 360.461V440.04L136.693 442.669L101.196 417.624L100.862 417.449L100.274 415.944L98.9203 416.43L98.7581 416.345L100.259 415.673L97.197 407.299L94.7082 414.223L93.2129 413.44L90.4301 402.649L87.3838 404.349L90.4048 402.197L87.0087 388.19L83.1158 408.147L80.181 406.612L79.4257 404.67" fill="#2C392D"/>
<path opacity="0.3" fill-rule="evenodd" clip-rule="evenodd" d="M79.4105 404.399L76.349 396.021L73.9362 402.739L72.0354 397.877L72.0202 397.607L68.9587 389.228L65.4815 398.911L65.3649 398.851L63.6871 390.322L62.7392 397.476L59.0238 395.524L56.6009 383.203L55.2323 393.538L54.8319 393.332L54.026 390.196L54.0006 389.745L50.6045 375.738L47.8826 389.69L39.9195 385.516L37.4966 373.189L36.0115 384.412L32.6154 370.42L29.7768 384.984L29.1584 385.024L27.7138 379.41L27.6885 378.958L24.2924 364.951L20.2678 385.571L18.4329 385.686L16.0353 373.485L14.4488 385.455L11.3619 372.722L8.71596 386.293L5.40603 386.499L4.00705 381.086L3.97156 380.438L-0.869141 360.461L-0.859003 439.985L136.693 442.669L101.196 417.624L100.862 417.449L100.274 415.944L98.9203 416.43L98.7581 416.345L100.259 415.673L97.197 407.299L94.7082 414.223L93.2129 413.44L90.4301 402.649L87.3838 404.349L90.4048 402.197L87.0087 388.19L83.1158 408.147L80.181 406.612L79.4257 404.67" fill="black"/>
<path fill-rule="evenodd" clip-rule="evenodd" d="M301.12 407.379L303.897 399.789L306.082 405.874L307.805 401.469L307.821 401.224L310.593 393.633L313.746 402.403L313.853 402.347L315.368 394.621L316.23 401.103L319.596 399.337L321.79 388.164L323.032 397.536L323.397 397.345L324.127 394.506L324.147 394.099L327.229 381.402L329.693 394.044L336.911 390.266L339.105 379.094L340.454 389.268L343.53 376.58L346.105 389.78L346.663 389.815L347.971 384.733L347.996 384.321L351.073 371.628L354.717 390.317L356.38 390.417L358.554 379.36L359.994 390.211L362.792 378.672L365.189 390.969L368.19 391.154L369.457 386.248L369.488 385.666L373.877 367.555L373.913 439.674L249.205 442.057L281.377 419.36L281.681 419.204L282.213 417.84L283.445 418.281L283.587 418.201L282.223 417.594L285.001 410.003L287.257 416.284L288.615 415.572L291.134 405.789L293.892 407.334L291.154 405.383L294.236 392.685L297.764 410.776L300.42 409.386L301.11 407.625" fill="#2C392D"/>
<path opacity="0.3" fill-rule="evenodd" clip-rule="evenodd" d="M301.12 407.379L303.897 399.789L306.082 405.874L307.805 401.469L307.821 401.224L310.593 393.633L313.746 402.403L313.853 402.347L315.368 394.621L316.23 401.103L319.596 399.337L321.79 388.164L323.032 397.536L323.397 397.345L324.127 394.506L324.147 394.099L327.229 381.402L329.693 394.044L336.911 390.266L339.105 379.094L340.454 389.268L343.53 376.58L346.105 389.78L346.663 389.815L347.971 384.733L347.996 384.321L351.073 371.628L354.717 390.317L356.38 390.417L358.554 379.36L359.994 390.211L362.792 378.672L365.189 390.969L368.19 391.154L369.457 386.248L369.488 385.666L373.877 367.555L373.913 439.674L249.205 442.057L281.377 419.36L281.681 419.204L282.213 417.84L283.445 418.281L283.587 418.201L282.223 417.594L285.001 410.003L287.257 416.284L288.615 415.572L291.134 405.789L293.892 407.334L291.154 405.383L294.236 392.685L297.764 410.776L300.42 409.386L301.11 407.625" fill="black"/>
<path fill-rule="evenodd" clip-rule="evenodd" d="M308.465 423.966L305.855 412.246L303.645 420.037L302.368 416.084L294.906 435.766L308.465 435.159V423.966Z" fill="#232E24"/>
<path fill-rule="evenodd" clip-rule="evenodd" d="M343.14 433.092L340.419 427.554L336.764 425.707L339.952 426.319L335.826 416.301L333.87 415.493H335.573L330.043 401.516L326.348 416.301L330.256 413.225L330.382 414.936L326.348 417.304V417.866L330.6 415.493L326.048 419.025L322.465 434.352L343.14 433.092Z" fill="#232E24"/>
<path fill-rule="evenodd" clip-rule="evenodd" d="M244.446 440.071L243.356 437.854L241.897 437.116L243.169 437.362L241.521 433.349L240.741 433.028H241.42L239.205 427.434L237.73 433.349L239.291 432.119L239.342 432.807L237.73 433.75V433.976L239.428 433.028L237.608 434.442L236.174 440.573L244.446 440.071Z" fill="#232E24"/>
<path fill-rule="evenodd" clip-rule="evenodd" d="M321.553 434.396L318.309 427.167L313.636 424.914L313.519 424.076L317.716 425.922L317.544 424.959L313.636 423.023L317.25 423.946L311.167 407.57L309.363 415.492L311.634 414.98L309.383 415.673L309.038 417.93L311.426 415.949L311.466 416.43L309.013 418.241L305.891 435.259L321.553 434.396Z" fill="#232E24"/>
<path fill-rule="evenodd" clip-rule="evenodd" d="M359.103 430.005L355.859 422.776L351.181 420.518L351.069 419.685L355.266 421.532L355.094 420.563L351.181 418.632L354.795 419.555L348.717 403.18L346.908 411.096L349.184 410.585L346.928 411.282L346.588 413.54L348.971 411.553L349.011 412.035L346.558 413.851L343.436 430.868L359.103 430.005Z" fill="#232E24"/>
<path fill-rule="evenodd" clip-rule="evenodd" d="M292.824 435.258L288.181 418.848L286.493 427.055L288.516 428.189L286.493 427.316L284.658 435.549L292.824 435.258Z" fill="#232E24"/>
<path fill-rule="evenodd" clip-rule="evenodd" d="M373.909 421.417L370.046 406.918L368.358 415.121L370.148 413.701L368.358 415.387L366.523 423.619L373.909 421.417Z" fill="#232E24"/>
<path fill-rule="evenodd" clip-rule="evenodd" d="M284.753 434.727L281.641 433.488L271.945 435.766H264.61L260.707 437.437L284.657 435.55L284.753 434.727Z" fill="#232E24"/>
<path fill-rule="evenodd" clip-rule="evenodd" d="M353.061 425.266H352.493L346.573 427.373L317.174 429.25L314.082 430.529H311.091L305.394 433.394C269.278 437.131 226.254 440.417 185.324 440.648C109.829 441.055 29.9601 419.878 -0.863281 410.125V447.321L373.914 442.103V419.687L353.061 425.266Z" fill="#232E24"/>
<path fill-rule="evenodd" clip-rule="evenodd" d="M79.9395 428.786L81.8808 416.926L84.5318 424.577L85.581 420.548L94.1473 439.748L80.5781 439.959L79.9395 428.786Z" fill="#232E24"/>
<path fill-rule="evenodd" clip-rule="evenodd" d="M62.6787 424.891L57.9394 421.64L62.3188 423.752L62.2833 423.185L62.2276 422.186L57.6961 407.652L52.9719 421.941L54.67 421.835L52.7641 422.763L49.2159 433.013L52.3637 432.205L48.8155 434.272L46.418 439.967L67.124 439.972L62.6787 424.891Z" fill="#232E24"/>
<path fill-rule="evenodd" clip-rule="evenodd" d="M68.0371 439.958L70.8655 432.548L75.4071 430.01L75.473 429.172L71.3927 431.269L71.5042 430.291L75.3007 428.123L71.7475 429.267L76.8872 412.551L79.1378 420.347L76.8365 419.976L79.1276 420.528L79.599 422.765L77.1052 420.924L77.09 421.411L79.6447 423.071L83.725 439.873L68.0371 439.958Z" fill="#232E24"/>
<path fill-rule="evenodd" clip-rule="evenodd" d="M41.9122 412.087L41.8666 411.776L41.3952 409.543L39.1041 408.986L41.4054 409.363L39.1548 401.566L34.0151 418.278L37.5683 417.139L33.7717 419.306L33.6602 420.285L37.7406 418.183L37.6747 419.025L33.1331 421.559L30.3047 428.974L45.9926 428.884L41.9122 412.087Z" fill="#232E24"/>
<path fill-rule="evenodd" clip-rule="evenodd" d="M96.1992 440.811L99.8994 424.145L102.054 432.237L100.097 433.496L102.069 432.498L104.365 440.605L96.1992 440.811Z" fill="#232E24"/>
<path fill-rule="evenodd" clip-rule="evenodd" d="M6.17188 421.296L9.43618 396.934L11.8084 408.869L9.88224 410.66L11.8287 409.255L14.3428 421.221L6.17188 421.296Z" fill="#232E24"/>
<path fill-rule="evenodd" clip-rule="evenodd" d="M14.5977 436.78L18.2979 420.113L20.4521 428.201L18.5868 426.896L20.4673 428.467L22.7635 436.574L14.5977 436.78Z" fill="#232E24"/>
<path fill-rule="evenodd" clip-rule="evenodd" d="M105.516 440.055L108.557 438.625L118.365 440.311L125.684 439.869L129.679 441.294L105.658 440.868L105.516 440.055Z" fill="#232E24"/>
<path d="M92.2156 466.022L158.759 465.586C161.116 465.586 164.132 466.032 164.623 468.34C164.724 468.936 164.653 469.548 164.418 470.105C164.183 470.662 163.794 471.143 163.295 471.491C161.775 472.66 159.808 472.71 157.943 472.745L129.887 473.247L130.394 473.488C133.197 474.852 132.285 479.292 129.167 479.112C100.407 477.431 84.0549 473.442 56.6073 473.322C57.8137 474.792 52.1822 476.117 54.0121 476.663C55.9788 477.245 58.0671 479.297 56.6884 481.093C56.38 481.48 55.9772 481.783 55.5179 481.974C55.0585 482.164 54.5578 482.236 54.0628 482.182L31.7043 480.175C33.2249 479.904 34.5732 481.63 34.2894 483.135C34.0055 484.64 30.5385 485.644 29.033 485.985C27.5276 486.326 23.6753 485.684 22.1293 485.558C1.99097 483.943 1.24079 483.421 -0.371094 478.168L3.52175 466.695L92.2156 466.022Z" fill="#F8F5F0"/>
<path d="M146.861 470.065L144.281 466.845L136.09 464.953L130.139 456.289L115.328 453.956L59.6675 448.292L57.194 445.517L-0.869141 438.875V472.624L146.861 470.065Z" fill="#DDD1BC"/>
<path d="M104.522 470.888C103.621 469.449 102.794 467.965 102.044 466.443C101.213 464.963 100.462 463.441 99.793 461.883C100.697 463.32 101.526 464.802 102.277 466.323C103.104 467.806 103.853 469.329 104.522 470.888Z" fill="#B3A794"/>
<path d="M48.7809 478.173C48.6643 477.842 41.2588 464.843 41.2588 464.843L16.7968 453.625L8.04297 456.404L-0.873047 472.624V478.223L48.7809 478.173Z" fill="#DDD1BC"/>
<path d="M48.7807 478.176H48.5272H47.8176H45.0399L34.659 478.226L-0.888486 478.321H-1V472.597V472.567C0.135411 470.49 1.34179 468.302 2.54816 466.075L7.89574 456.342L7.92109 456.297H7.97178L16.7256 453.527H16.7712H16.8168L41.2941 464.75V464.775C43.6511 468.96 45.5265 472.301 46.814 474.584L48.2687 477.217L48.6286 477.905C48.7097 478.07 48.7401 478.146 48.7401 478.146C48.4157 477.584 45.861 473.129 41.1369 464.861L41.1775 464.896L16.6952 453.708H16.7864L8.03767 456.487L8.10863 456.427L2.76612 466.16L-0.782042 472.652V472.587V478.186L-0.91383 478.055L34.5272 478.085H44.9487H47.7517H48.4816L48.7807 478.176Z" fill="#B3A794"/>
<path d="M143.978 466.758C143.978 466.758 142.295 467.831 142.006 467.761C141.717 467.691 123.992 468.825 123.992 468.825L107.771 467.791C107.771 467.791 113.347 466.286 113.758 466.341C114.168 466.396 129.015 466.341 129.593 466.341C130.171 466.341 136.086 464.941 136.086 464.941L143.978 466.758Z" fill="#2C392D"/>
<path d="M130.313 456.289L129.628 457.122L123.039 457.764C123.039 457.764 110.245 455.717 110.027 455.717C109.809 455.717 99.8897 456.781 99.6211 456.721C99.3524 456.66 87.1366 455.481 78.5247 454.839C69.9128 454.197 39.8447 456.971 39.6268 456.971C39.4088 456.971 28.2879 453.615 28.2879 453.615L-0.878018 450.78C-0.878018 450.78 -0.959119 443.977 -0.878018 443.797C-0.878018 443.797 40.3415 451.157 43.7832 450.73C47.2249 450.304 59.831 448.292 59.831 448.292L110.58 452.807L130.313 456.289Z" fill="#2C392D"/>
<path d="M129.45 457.125L129.592 466.356L120.154 466.386L122.846 457.762L129.45 457.125Z" fill="#B3A794"/>
<path d="M86.7773 459.009C87.051 459.144 97.5434 460.514 97.5434 460.514L99.7939 461.773H81.5463L70.1719 459.029C70.1719 459.029 86.5086 458.873 86.7773 459.009Z" fill="#2C392D"/>
<path d="M20.0665 408.066L22.7985 422.289L20.0665 422.972L22.7985 423.845L25.5256 437.677L22.1143 438.359L25.5256 439.528L27.3453 448.583H10.9629L15.8594 428.325L18.4749 427.648L16.199 427.061L20.0665 408.066Z" fill="#2C392D"/>
<path d="M75.4433 427.027L77.04 435.345L75.4433 435.742L77.04 436.259L78.6367 444.346L76.6396 444.742L78.6367 445.43L79.7011 450.727H70.1211L72.9799 438.877L74.5107 438.476L73.1776 438.135L75.4433 427.027Z" fill="#2C392D"/>
<path d="M60.4746 450.726L64.0633 435.856L65.9844 435.354L64.3117 434.923L67.1553 420.98L69.1575 431.421L67.1553 431.922L69.1575 432.565L71.1596 442.714L68.6557 443.216L71.1596 444.074L72.4978 450.726" fill="#2C392D"/>
<path d="M72.497 450.725C72.4809 450.69 72.469 450.653 72.4615 450.615L72.3855 450.279C72.3145 449.973 72.2233 449.541 72.1016 448.984L71.0879 444.088L71.1386 444.148L68.6295 443.3L68.295 443.175L68.6194 443.11L71.1234 442.608L71.0473 442.718C70.4594 439.793 69.7751 436.347 69.0198 432.574L69.1009 432.664L67.0734 432.022L66.6628 431.892L67.0835 431.786L69.0857 431.285L68.9945 431.43C68.4876 428.731 67.9199 425.851 67.3471 422.901C67.2255 422.269 67.1038 421.637 66.9872 421.01H67.2812C66.2675 426.027 65.2841 430.743 64.4275 434.947L64.3413 434.812L66.009 435.243L66.4297 435.353L66.009 435.464L64.0879 435.965L64.1639 435.89L61.5129 446.687L60.7577 449.697L60.5499 450.485C60.5307 450.575 60.5035 450.664 60.4688 450.75C60.4776 450.657 60.4946 450.565 60.5194 450.475C60.56 450.284 60.6208 450.018 60.6918 449.682C60.859 448.974 61.0922 447.956 61.3913 446.672C62.0097 444.058 62.9119 440.34 63.9561 435.855V435.79H64.0169L65.938 435.288V435.509L64.2653 435.082L64.1588 435.052V434.947C65.0104 430.738 65.9684 426.017 66.9872 421L67.119 420.348L67.2457 421.005C67.3623 421.627 67.484 422.259 67.6056 422.896C68.1784 425.861 68.7258 428.741 69.2428 431.425L69.2682 431.546L69.1516 431.576L67.1241 432.077V431.836L69.1516 432.484L69.2226 432.509V432.574C69.9626 436.357 70.6317 439.803 71.2045 442.733V442.829H71.1082L68.5991 443.33V443.16L71.1031 444.028H71.1436V444.068L72.0915 448.979C72.198 449.536 72.2791 449.983 72.3348 450.284C72.3348 450.419 72.3754 450.53 72.3906 450.62L72.497 450.725Z" fill="#232E24"/>
<path d="M46.9868 417.023L49.4604 429.892L46.9868 430.509L49.4604 431.302L51.9289 443.819L48.842 444.436L51.9289 445.495L53.5762 453.692H38.75L43.1801 435.355L45.5473 434.738L43.4893 434.212L46.9868 417.023Z" fill="#2C392D"/>
<path d="M83.6293 476.726L88.6981 475.914L70.5771 457.767L66.5221 455.71C66.5221 455.71 63.9572 455.545 64.236 455.71C64.5148 455.876 83.6293 476.726 83.6293 476.726Z" fill="#B3A794"/>
<path d="M56.6016 475.345C56.6573 475.18 57.1084 464.865 57.1084 464.865L64.2402 455.719L83.6335 476.735L56.6016 475.345Z" fill="#DDD1BC"/>
<path d="M56.6027 475.345H56.7446H57.14L58.6606 475.406L64.287 475.662L83.6447 476.585L83.5484 476.79L75.4383 468.036L64.14 455.774H64.3225L57.1653 464.915V464.865C57.0031 468.116 56.8713 470.735 56.775 472.551C56.7243 473.444 56.6787 474.136 56.6483 474.623C56.6483 474.849 56.6128 475.024 56.6027 475.16C56.5977 475.221 56.5876 475.281 56.5723 475.34C56.5723 474.668 56.7345 471.232 56.9828 464.855V464.83V464.805L64.0792 455.634L64.1653 455.523L64.2616 455.624C67.6729 459.321 71.5202 463.48 75.5803 467.87L83.6549 476.635L83.8627 476.861H83.5586L64.1704 475.787L58.5947 475.466L57.1146 475.381L56.7345 475.35L56.6027 475.345Z" fill="#B3A794"/>
<path d="M128.685 474.843L112.637 449.738H108.821L103.772 454.294L98.8301 474.843H128.685Z" fill="#DDD1BC"/>
<path d="M128.681 474.842H128.134H126.507L120.358 474.873L98.831 474.943H98.6738L98.7093 474.792C99.8549 470.016 101.112 464.783 102.42 459.315C102.835 457.599 103.241 455.903 103.641 454.243V454.203H103.672L108.74 449.652L108.781 449.617H112.714L112.75 449.672L124.261 467.814L127.541 473.001L128.407 474.376L128.625 474.727C128.651 474.763 128.673 474.802 128.691 474.842L128.605 474.717L128.367 474.356L127.47 472.966C126.679 471.752 125.544 469.991 124.114 467.779L112.537 449.803L112.643 449.863H108.827L108.913 449.833L103.844 454.388L103.879 454.323C103.484 455.984 103.074 457.679 102.663 459.395C101.345 464.864 100.088 470.096 98.9374 474.868L98.8158 474.717L120.237 474.787L126.426 474.822H128.083H128.666L128.681 474.842Z" fill="#B3A794"/>
<path d="M108.816 449.738C108.816 449.738 123.192 474.823 123.48 474.823H128.681L112.633 449.738H108.816Z" fill="#B3A794"/>
<path opacity="0.2" d="M101.846 462.292L105.896 463.556L114.923 460.355L119.82 460.983L121.341 463.356L115.217 461.269L106.241 463.958H105.607L101.572 463.436L101.846 462.292Z" fill="black"/>
<path opacity="0.2" d="M99.9349 470.241L106.519 471.581L124.437 468.199L124.873 468.882L106.687 472.133L99.5801 471.726L99.9349 470.241Z" fill="black"/>
<path d="M61.6309 481.627C61.1451 481.548 60.6471 481.656 60.2396 481.929C59.8322 482.203 59.5463 482.621 59.4412 483.097C59.363 483.578 59.4334 484.072 59.6432 484.513C59.853 484.955 60.1924 485.323 60.6172 485.57C61.048 485.808 61.5258 485.95 62.0176 485.988C62.5094 486.025 63.0035 485.956 63.4658 485.786C63.8953 485.662 64.2714 485.401 64.5354 485.044C64.6657 484.804 64.7385 484.539 64.7481 484.267C64.7578 483.996 64.7041 483.726 64.5911 483.478C64.408 483.037 64.1114 482.651 63.7307 482.359C63.3501 482.067 62.8988 481.878 62.4217 481.813" fill="#F8F5F0"/>
<path d="M99.6112 480.22C99.6191 480.357 99.6696 480.488 99.7558 480.596C99.8419 480.704 99.9596 480.783 100.093 480.822C107.353 482.977 114.833 484.324 122.396 484.835C123.554 484.971 124.727 484.906 125.863 484.645C126.58 484.444 127.23 484.056 127.743 483.521C127.832 483.428 127.891 483.311 127.915 483.186C127.938 483.06 127.925 482.931 127.877 482.812C127.828 482.694 127.746 482.592 127.641 482.518C127.535 482.445 127.411 482.403 127.282 482.397C118.281 481.926 109.312 480.966 100.417 479.522C100.316 479.501 100.21 479.503 100.11 479.529C100.009 479.555 99.9163 479.604 99.8381 479.671C99.7599 479.739 99.6987 479.824 99.6593 479.919C99.6199 480.014 99.6035 480.117 99.6112 480.22Z" fill="#F8F5F0"/>
<path d="M57.194 445.517L41.6784 451.252L-0.869141 445.061V438.875L57.194 445.517Z" fill="#2C392D"/>
<path opacity="0.2" d="M59.4297 461.884L67.3877 462.647L72.938 460.113L71.9851 459.16L67.0836 462.155L60.19 460.901L59.4297 461.884Z" fill="black"/>
<path opacity="0.2" d="M56.8203 471.244L63.3793 469.227L77.0398 471.841L78.6263 471.294L81.2823 468.465L82.0883 469.273L78.9304 471.631L77.278 472.789L63.3793 470.166L56.6074 473.321L56.8963 471.6" fill="black"/>
<path d="M41.264 464.843L16.7969 453.625L37.4269 465.947L39.4189 478.208L48.781 478.173L41.264 464.843Z" fill="#B3A794"/>
<path opacity="0.2" d="M6.27818 459.777L12.0009 460.9L25.4078 458.949L26.5128 457.98L28.1653 458.703L26.3253 459.32L11.8691 462.646L5.24414 461.753L6.27818 459.777Z" fill="black"/>
<path opacity="0.2" d="M-0.869141 472.574L12.2692 469.414L37.9731 471.862L43.6197 469.027L44.6284 470.768L38.6219 473.322L12.2692 470.407L-0.869141 475.063V472.574Z" fill="black"/>
<path d="M27.2895 481.68C26.955 481.559 25.5813 477.084 21.5111 473.286C18.5226 470.628 15.2995 468.241 11.8803 466.152L6.63921 469.935L2.25977 481.183L27.2895 481.68Z" fill="#DDD1BC"/>
<path d="M27.2892 481.681L20.2486 481.58C15.8033 481.52 9.50275 481.45 2.26451 481.31H2.08203L2.14793 481.139L5.027 473.749L6.54764 469.896V469.861L6.57806 469.836L11.8243 466.058L11.8902 466.008L11.9611 466.053C14.5122 467.624 16.9603 469.353 19.2906 471.23C20.2818 472.015 21.2294 472.853 22.1291 473.739C22.8945 474.519 23.5962 475.358 24.2276 476.247C25.1244 477.498 25.9048 478.826 26.5593 480.216C26.7559 480.727 27.002 481.217 27.2942 481.681C27.2334 481.731 26.9597 481.204 26.4832 480.251C25.803 478.883 25.0078 477.574 24.106 476.338C23.4662 475.469 22.7614 474.649 21.9973 473.884C21.0952 473.001 20.1478 472.163 19.1588 471.376C16.8244 469.521 14.3766 467.81 11.8293 466.254H11.9662L6.73012 470.041L6.77574 469.986C6.26886 471.246 5.76198 472.535 5.2551 473.839L2.40137 481.229L2.28478 481.054C9.43686 481.199 15.6461 481.38 20.1168 481.495L27.2892 481.681Z" fill="#B3A794"/>
<path d="M11.8906 466.152L16.0876 473.327L14.9319 474.746L17.7299 475.409L20.6495 481.549L27.2795 481.68C27.2795 481.68 25.4193 478.213 23.4728 475.409C21.4707 472.499 11.8906 466.152 11.8906 466.152Z" fill="#B3A794"/>
<path opacity="0.2" d="M4.68201 474.993L16.3504 477.497L18.4235 476.88L22.3721 474.141L23.4873 475.41L18.8848 477.838L16.7964 479.644L3.60742 477.758L4.68201 474.993Z" fill="black"/>
<path d="M39.6309 456.984L48.2732 471.679L54.5331 471.578L43.3311 456.668L39.6309 456.984Z" fill="#B3A794"/>
<path d="M81.5352 461.754L83.6336 469.029L83.2079 462.291L91.3484 461.754H81.5352Z" fill="#B3A794"/>
<path d="M74.9102 454.754L76.7856 459.159L86.4417 458.948L81.5351 456.956L79.7002 454.94L76.4663 454.754H74.9102Z" fill="#B3A794"/>
<path d="M352.798 445.876L347.035 422.01L343.953 421.208L346.634 420.52L342.078 398.145L338.859 414.896L342.078 415.699L338.859 416.732L335.64 433.027L339.665 433.83L335.64 435.205L333.496 445.876" fill="#2C392D"/>
<path d="M333.496 445.88C333.496 445.88 333.496 445.814 333.496 445.694C333.496 445.574 333.552 445.388 333.592 445.157C333.684 444.655 333.82 443.973 333.993 443.065C334.353 441.229 334.875 438.55 335.513 435.188V435.148H335.559L339.574 433.759V433.929L335.62 433.142H335.524V433.046C336.441 428.35 337.551 422.817 338.717 416.746V416.676H338.788L342.012 415.582V415.818L338.793 415.015L338.676 414.99V414.87C339.503 410.54 340.39 405.915 341.302 401.153C341.501 400.15 341.696 399.138 341.885 398.118L342.012 397.461L342.149 398.118C343.781 406.145 345.322 413.746 346.71 420.494V420.604L346.604 420.629L343.923 421.317V421.101L347.08 421.904H347.141V421.964C348.865 429.173 350.289 435.143 351.288 439.317C351.794 441.394 352.159 443.025 352.423 444.149C352.545 444.701 352.646 445.122 352.712 445.418C352.778 445.714 352.798 445.86 352.798 445.86C352.798 445.86 352.752 445.714 352.681 445.428C352.611 445.142 352.499 444.711 352.357 444.164C352.078 443.045 351.678 441.42 351.166 439.348C350.152 435.173 348.687 429.213 346.928 422.014L347.01 422.094L343.928 421.297L343.507 421.186L343.928 421.076L346.604 420.383L346.518 420.519C345.139 413.776 343.593 406.19 341.956 398.148H342.214C342.022 399.152 341.824 400.155 341.632 401.184C340.714 405.945 339.827 410.565 338.991 414.9L338.899 414.754L342.113 415.557L342.539 415.662L342.123 415.798L338.904 416.826L338.986 416.736C337.779 422.797 336.679 428.33 335.747 433.026L335.671 432.911L339.69 433.724L340.009 433.789L339.7 433.894L335.676 435.259L335.726 435.199C335.032 438.565 334.484 441.219 334.109 443.06C333.917 443.963 333.77 444.661 333.668 445.142C333.618 445.373 333.582 445.549 333.552 445.679C333.537 445.747 333.519 445.814 333.496 445.88Z" fill="#232E24"/>
<path d="M361.561 446.469C361.157 446.14 360.814 445.745 360.547 445.3C360.216 444.906 359.953 444.46 359.771 443.98C360.173 444.311 360.516 444.706 360.785 445.149C361.115 445.544 361.377 445.99 361.561 446.469Z" fill="#232E24"/>
<path d="M361.866 446.381C361.414 445.433 361.128 444.415 361.02 443.371C361.283 443.828 361.468 444.324 361.567 444.841C361.748 445.336 361.849 445.856 361.866 446.381Z" fill="#232E24"/>
<path d="M362.96 443.754C362.997 444.18 362.946 444.608 362.808 445.013C362.754 445.438 362.612 445.848 362.393 446.217C362.411 445.367 362.604 444.528 362.96 443.754Z" fill="#232E24"/>
<path d="M336.171 451.704C335.82 451.37 335.534 450.976 335.324 450.54C335.041 450.15 334.833 449.711 334.711 449.246C335.059 449.582 335.343 449.976 335.552 450.41C335.836 450.801 336.045 451.239 336.171 451.704Z" fill="#232E24"/>
<path d="M337.272 451.5C336.736 450.604 336.356 449.626 336.146 448.605C336.45 449.032 336.681 449.505 336.831 450.005C337.057 450.477 337.206 450.982 337.272 451.5Z" fill="#232E24"/>
<path d="M338.878 451.339C338.757 450.829 338.722 450.301 338.773 449.779C338.737 449.254 338.792 448.726 338.933 448.219C339.051 448.732 339.085 449.26 339.034 449.784C339.07 450.308 339.017 450.833 338.878 451.339Z" fill="#232E24"/>
<path d="M42.4387 445.782L36.6755 421.916L33.5937 421.114L36.2751 420.426L31.7182 398.051L28.4995 414.802L31.7182 415.605L28.4995 416.639L25.2808 432.934L29.3054 433.736L25.2808 435.111L23.1367 445.782" fill="#2C392D"/>
<path d="M23.1367 445.791C23.1367 445.791 23.1367 445.726 23.1621 445.605C23.1874 445.485 23.2178 445.299 23.2584 445.068C23.3496 444.567 23.4865 443.884 23.6588 442.976C24.0187 441.14 24.5408 438.461 25.2048 435.105V435.06H25.2504L29.2649 433.645V433.815L25.2403 433.023H25.144V432.927C26.0614 428.232 27.1461 422.698 28.3373 416.627V416.557H28.4083L31.6219 415.524V415.759L28.4032 414.962L28.2866 414.932L28.312 414.811C29.1432 410.482 30.0252 405.861 30.9376 401.095C31.1336 400.091 31.3296 399.08 31.5256 398.06L31.6472 397.402L31.7841 398.06C33.4162 406.087 34.9572 413.687 36.346 420.435V420.546H36.2396L33.5582 421.233V421.012L36.64 421.82H36.7008V421.88C38.5003 429.13 39.9094 435.075 40.9231 439.249C41.43 441.326 41.795 442.956 42.0586 444.08C42.1802 444.632 42.2816 445.053 42.3475 445.349C42.4134 445.645 42.4336 445.791 42.4336 445.791C42.4336 445.791 42.388 445.645 42.3171 445.359C42.2461 445.074 42.1346 444.642 41.9927 444.095C41.7139 442.976 41.3134 441.351 40.8015 439.279C39.7877 435.11 38.3228 429.145 36.569 421.945L36.6451 422.026L33.5632 421.228L33.1425 421.118L33.5632 421.007L36.2396 420.315L36.1534 420.45C34.7798 413.707 33.2287 406.122 31.5915 398.08H31.85C31.6574 399.083 31.4597 400.086 31.2671 401.09C30.3496 405.851 29.4626 410.477 28.6262 414.806L28.535 414.661L31.7486 415.463L32.1744 415.569L31.7587 415.704L28.5401 416.733L28.6212 416.642C27.4148 422.703 26.3149 428.237 25.3822 432.932L25.3062 432.817L29.3207 433.645L29.64 433.71L29.3308 433.815L25.3062 435.18L25.3569 435.125C24.6624 438.486 24.115 441.145 23.7399 442.981C23.5473 443.884 23.4003 444.582 23.2989 445.063C23.2482 445.294 23.2128 445.47 23.1823 445.6C23.1707 445.665 23.1554 445.728 23.1367 445.791Z" fill="#232E24"/>
<path d="M36.2196 451.969C35.8709 451.634 35.5859 451.24 35.3782 450.805C35.0959 450.415 34.8864 449.979 34.7598 449.516C35.1146 449.854 35.4018 450.256 35.6063 450.7C35.8858 451.083 36.0936 451.513 36.2196 451.969Z" fill="#232E24"/>
<path d="M37.3257 451.789C37.0162 451.363 36.7831 450.888 36.6363 450.384C36.408 449.909 36.2591 449.401 36.1953 448.879C36.4974 449.309 36.7253 449.785 36.8695 450.289C37.1017 450.761 37.2557 451.268 37.3257 451.789Z" fill="#232E24"/>
<path d="M38.9304 451.629C38.8071 451.117 38.7714 450.588 38.8248 450.064C38.7925 449.539 38.8451 449.012 38.9807 448.504C39.1039 449.016 39.1396 449.545 39.0862 450.069C39.1186 450.594 39.066 451.121 38.9304 451.629Z" fill="#232E24"/>
<path d="M7.01897 446.613C6.61407 446.286 6.27087 445.89 6.00521 445.444C5.67111 445.052 5.40713 444.606 5.22461 444.125C5.62769 444.454 5.9706 444.85 6.23837 445.294C6.57026 445.688 6.83401 446.134 7.01897 446.613Z" fill="#232E24"/>
<path d="M7.32305 446.526C7.05906 446.069 6.87242 445.572 6.77055 445.056C6.58699 444.562 6.48763 444.042 6.47656 443.516C6.73988 443.972 6.92487 444.469 7.02399 444.986C7.20803 445.479 7.30906 446 7.32305 446.526Z" fill="#232E24"/>
<path d="M8.41737 443.898C8.45444 444.324 8.40268 444.753 8.2653 445.158C8.21079 445.583 8.06937 445.993 7.84966 446.362C7.81592 445.936 7.86936 445.508 8.00679 445.103C8.06097 444.678 8.20058 444.269 8.41737 443.898Z" fill="#232E24"/>
<path d="M287.977 463.57L226.578 463.164C224.404 463.164 221.621 463.575 221.165 465.703C221.071 466.253 221.136 466.818 221.353 467.333C221.57 467.848 221.93 468.292 222.391 468.612C223.816 469.691 225.615 469.741 227.328 469.771L253.22 470.233L252.754 470.459C250.168 471.713 251.015 475.812 253.889 475.646C280.424 474.096 295.519 470.419 320.838 470.303C319.723 471.663 324.893 472.882 323.23 473.384C321.416 473.925 319.51 475.817 320.762 477.472C321.046 477.83 321.418 478.11 321.842 478.285C322.266 478.461 322.728 478.526 323.185 478.476L343.815 476.635C342.411 476.379 341.164 477.969 341.427 479.359C341.691 480.749 344.889 481.677 346.278 481.993C347.667 482.309 351.22 481.712 352.644 481.601C371.232 480.096 371.906 479.625 373.426 474.778L369.838 464.193L287.977 463.57Z" fill="#F8F5F0"/>
<path d="M237.559 467.297L239.941 464.322L247.499 462.581L252.988 454.589L266.653 452.437L318.016 447.209L320.292 444.645L373.869 438.52V469.66L237.559 467.297Z" fill="#DDD1BC"/>
<path d="M276.623 468.054C277.234 466.613 277.925 465.206 278.691 463.84C279.382 462.434 280.15 461.068 280.992 459.746C280.381 461.187 279.691 462.594 278.924 463.96C278.235 465.366 277.467 466.733 276.623 468.054Z" fill="#B3A794"/>
<path d="M328.057 474.783C328.158 474.477 334.991 462.487 334.991 462.487L357.567 452.137L365.642 454.695L373.868 469.666V474.828L328.057 474.783Z" fill="#DDD1BC"/>
<path d="M328.057 474.784H328.964H331.559L341.19 474.759L373.889 474.729L373.757 474.854V469.661V469.722C372.703 467.81 371.593 465.788 370.467 463.736C368.779 460.671 367.132 457.666 365.535 454.756L365.606 454.816L357.532 452.248H357.623L335.036 462.562L335.072 462.527C330.728 470.128 328.381 474.227 328.062 474.784C328.062 474.784 328.062 474.714 328.158 474.563L328.493 473.931L329.831 471.498C331.022 469.381 332.75 466.305 334.9 462.467H334.925L357.481 452.082H357.527H357.572L365.652 454.641H365.703L365.728 454.686C367.325 457.596 368.977 460.601 370.665 463.666L373.95 469.656V469.687V475.01H373.823L341.018 474.909L331.443 474.869H328.908H328.275L328.057 474.784Z" fill="#B3A794"/>
<path d="M240.215 464.247C240.215 464.247 241.771 465.25 242.04 465.17C242.308 465.089 258.66 466.173 258.66 466.173L273.623 465.22C273.623 465.22 268.478 463.815 268.103 463.88C267.728 463.946 254.022 463.88 253.495 463.88C252.968 463.88 247.499 462.586 247.499 462.586L240.215 464.247Z" fill="#2C392D"/>
<path d="M252.824 454.59L253.463 455.357L259.545 455.944C259.545 455.944 271.33 454.048 271.528 454.048C271.726 454.048 280.865 455.051 281.133 454.996C281.402 454.941 292.655 453.847 300.598 453.26C308.54 452.673 336.297 455.217 336.5 455.217C336.703 455.217 346.962 452.121 346.962 452.121L373.872 449.493C373.872 449.493 373.948 443.216 373.872 443.051C373.872 443.051 335.856 449.844 332.663 449.447C329.47 449.051 317.852 447.19 317.852 447.19L271.047 451.379L252.824 454.59Z" fill="#2C392D"/>
<path d="M253.626 455.355L253.494 463.869L262.202 463.899L259.719 455.942L253.626 455.355Z" fill="#B3A794"/>
<path d="M292.996 457.099C292.743 457.224 283.061 458.468 283.061 458.468L280.988 459.632H297.837L308.334 457.099C308.334 457.099 293.245 456.973 292.996 457.099Z" fill="#2C392D"/>
<path d="M354.55 410.094L352.031 423.213L354.55 423.845L352.031 424.653L349.512 437.411L352.665 438.043L349.512 439.122L347.834 447.48H362.949L358.438 428.787L356.02 428.155L358.124 427.618L354.55 410.094Z" fill="#2C392D"/>
<path d="M303.458 427.59L301.988 435.261L303.458 435.632L301.988 436.104L300.513 443.569L302.353 443.935L300.513 444.567L299.529 449.454H308.369L305.728 438.522L304.319 438.156L305.546 437.839L303.458 427.59Z" fill="#2C392D"/>
<path d="M317.269 449.451L313.954 435.729L312.185 435.268L313.726 434.871L311.106 422.008L309.256 431.64L311.106 432.102L309.256 432.694L307.406 442.061L309.717 442.522L307.406 443.315L306.174 449.451" fill="#2C392D"/>
<path d="M306.174 449.451C306.174 449.451 306.174 449.416 306.174 449.346C306.174 449.275 306.205 449.16 306.225 449.035C306.276 448.744 306.352 448.342 306.448 447.831C306.651 446.762 306.955 445.232 307.32 443.315V443.275H307.365L309.672 442.472V442.643L307.36 442.186H307.264V442.091L309.089 432.719V432.649L309.155 432.624L311.005 432.027V432.268L309.16 431.806L309.038 431.781V431.661C309.515 429.152 310.021 426.513 310.559 423.774C310.67 423.186 310.782 422.604 310.893 422.028L311.02 421.371L311.152 422.028C312.089 426.654 312.971 431.014 313.757 434.897V435.002L313.651 435.032L312.13 435.424V435.148L313.899 435.614H313.965V435.674C314.943 439.813 315.754 443.245 316.327 445.653C316.601 446.842 316.834 447.78 316.966 448.438C317.037 448.744 317.087 448.989 317.128 449.17C317.15 449.252 317.165 449.336 317.173 449.421C317.166 449.346 317.166 449.27 317.173 449.195C317.123 449.02 317.062 448.779 316.981 448.473L316.281 445.703C315.688 443.295 314.847 439.874 313.828 435.745L313.904 435.825L312.135 435.368L311.714 435.258L312.135 435.148L313.656 434.751L313.57 434.887L310.934 422.023H311.192C311.081 422.599 310.969 423.181 310.858 423.769C310.351 426.508 309.844 429.162 309.337 431.656L309.246 431.505L311.096 431.972L311.517 432.077L311.101 432.208L309.251 432.8L309.332 432.709C308.638 436.191 308.004 439.372 307.462 442.071L307.386 441.956L309.692 442.427L310.016 442.493L309.707 442.598L307.391 443.381L307.441 443.32C307.036 445.247 306.717 446.772 306.499 447.836C306.387 448.337 306.296 448.744 306.235 449.035C306.205 449.16 306.184 449.26 306.164 449.341L306.174 449.451Z" fill="#232E24"/>
<path d="M329.713 418.09L327.432 429.965L329.713 430.532L327.432 431.264L325.151 442.813L328 443.38L325.151 444.359L323.631 451.919H337.312L333.226 435.007L331.041 434.435L332.942 433.948L329.713 418.09Z" fill="#2C392D"/>
<path d="M295.885 473.439L291.191 472.692L307.918 455.945L311.669 454.053C311.669 454.053 314.036 453.898 313.778 454.053C313.519 454.209 295.885 473.439 295.885 473.439Z" fill="#B3A794"/>
<path d="M320.838 472.171C320.783 472.015 320.372 462.498 320.372 462.498L313.783 454.055L295.885 473.44L320.838 472.171Z" fill="#DDD1BC"/>
<path d="M320.838 472.17H320.721L320.377 472.195L319.013 472.28L313.858 472.576L295.884 473.564H295.58L295.788 473.344L303.259 465.251L313.706 453.953L313.797 453.848L313.889 453.958C316.377 457.179 318.598 460.044 320.443 462.427V462.457C320.671 468.317 320.787 471.457 320.818 472.129C320.799 472.074 320.789 472.017 320.787 471.959C320.787 471.838 320.787 471.673 320.742 471.457C320.716 471.006 320.676 470.363 320.625 469.546C320.539 467.865 320.417 465.452 320.26 462.452V462.502L313.671 454.073H313.853C310.71 457.49 307.167 461.333 303.427 465.392L295.965 473.469L295.869 473.258L313.726 472.415L318.922 472.18L320.316 472.124H320.681C320.735 472.13 320.789 472.146 320.838 472.17Z" fill="#B3A794"/>
<path d="M254.336 471.702L269.142 448.539H272.66L277.323 452.743L281.875 471.702H254.336Z" fill="#DDD1BC"/>
<path d="M254.32 471.702H254.863H256.383L262.096 471.672L281.864 471.602L281.743 471.752C280.683 467.348 279.517 462.516 278.306 457.474L277.181 452.793L277.221 452.859L272.568 448.634L272.654 448.669H269.131L269.238 448.614L258.558 465.17L255.461 469.956L254.63 471.271L254.412 471.602C254.388 471.642 254.361 471.681 254.33 471.717C254.354 471.684 254.374 471.649 254.391 471.612L254.594 471.291L255.39 470.022L258.431 465.235L269.076 448.494L269.111 448.434H272.75L272.786 448.464L277.449 452.663L277.475 452.688V452.728L278.6 457.409C279.811 462.456 280.967 467.282 282.026 471.692L282.062 471.843H281.905L262.035 471.772L256.348 471.727H254.827H254.32V471.702Z" fill="#B3A794"/>
<path d="M272.659 448.543C272.659 448.543 259.389 471.701 259.131 471.701H254.32L269.126 448.543H272.659Z" fill="#B3A794"/>
<path opacity="0.2" d="M279.092 460.122L275.361 461.291L267.028 458.336L262.511 458.913L261.107 461.105L266.759 459.174L275.042 461.662H275.63L279.35 461.176L279.092 460.122Z" fill="black"/>
<path opacity="0.2" d="M280.855 467.461L274.783 468.695L258.248 465.574L257.848 466.201L274.63 469.201L281.184 468.83L280.855 467.461Z" fill="black"/>
<path d="M316.195 477.965C316.644 477.891 317.104 477.991 317.481 478.243C317.858 478.495 318.124 478.88 318.222 479.32C318.295 479.764 318.231 480.22 318.037 480.627C317.843 481.035 317.53 481.375 317.138 481.602C316.741 481.822 316.3 481.953 315.847 481.987C315.393 482.021 314.938 481.956 314.512 481.798C314.104 481.694 313.746 481.453 313.498 481.116C313.378 480.895 313.311 480.65 313.302 480.399C313.293 480.149 313.343 479.899 313.448 479.671C313.616 479.264 313.888 478.909 314.239 478.639C314.589 478.37 315.005 478.196 315.445 478.136" fill="#F8F5F0"/>
<path d="M281.155 476.664C281.148 476.791 281.101 476.912 281.021 477.012C280.941 477.112 280.832 477.184 280.709 477.22C274.017 479.209 267.121 480.449 260.15 480.918C259.082 481.049 257.998 480.989 256.951 480.742C256.287 480.56 255.685 480.201 255.213 479.704C255.133 479.617 255.079 479.51 255.058 479.394C255.038 479.279 255.051 479.16 255.096 479.051C255.141 478.943 255.217 478.849 255.314 478.782C255.411 478.714 255.525 478.676 255.644 478.67C263.95 478.238 272.227 477.352 280.435 476.016C280.527 476.001 280.622 476.006 280.712 476.033C280.802 476.059 280.885 476.105 280.954 476.167C281.023 476.229 281.077 476.306 281.112 476.392C281.147 476.478 281.162 476.571 281.155 476.664Z" fill="#F8F5F0"/>
<path d="M320.291 444.645L334.61 449.938L373.868 444.229V438.52L320.291 444.645Z" fill="#2C392D"/>
<path d="M352.798 445.876L347.035 422.01L343.953 421.208L346.634 420.52L342.078 398.145L338.859 414.896L342.078 415.699L338.859 416.732L335.64 433.027L339.665 433.83L335.64 435.205L333.496 445.876" fill="#2C392D"/>
<path d="M333.496 445.88C333.496 445.88 333.496 445.814 333.496 445.694C333.496 445.574 333.552 445.388 333.592 445.157C333.684 444.655 333.82 443.973 333.993 443.065C334.353 441.229 334.875 438.55 335.513 435.188V435.148H335.559L339.574 433.759V433.929L335.62 433.142H335.524V433.046C336.441 428.35 337.551 422.817 338.717 416.746V416.676H338.788L342.012 415.582V415.818L338.793 415.015L338.676 414.99V414.87C339.503 410.54 340.39 405.915 341.302 401.153C341.501 400.15 341.696 399.138 341.885 398.118L342.012 397.461L342.149 398.118C343.781 406.145 345.322 413.746 346.71 420.494V420.604L346.604 420.629L343.923 421.317V421.101L347.08 421.904H347.141V421.964C348.865 429.173 350.289 435.143 351.288 439.317C351.794 441.394 352.159 443.025 352.423 444.149C352.545 444.701 352.646 445.122 352.712 445.418C352.778 445.714 352.798 445.86 352.798 445.86C352.798 445.86 352.752 445.714 352.681 445.428C352.611 445.142 352.499 444.711 352.357 444.164C352.078 443.045 351.678 441.42 351.166 439.348C350.152 435.173 348.687 429.213 346.928 422.014L347.01 422.094L343.928 421.297L343.507 421.186L343.928 421.076L346.604 420.383L346.518 420.519C345.139 413.776 343.593 406.19 341.956 398.148H342.214C342.022 399.152 341.824 400.155 341.632 401.184C340.714 405.945 339.827 410.565 338.991 414.9L338.899 414.754L342.113 415.557L342.539 415.662L342.123 415.798L338.904 416.826L338.986 416.736C337.779 422.797 336.679 428.33 335.747 433.026L335.671 432.911L339.69 433.724L340.009 433.789L339.7 433.894L335.676 435.259L335.726 435.199C335.032 438.565 334.484 441.219 334.109 443.06C333.917 443.963 333.77 444.661 333.668 445.142C333.618 445.373 333.582 445.549 333.552 445.679C333.537 445.747 333.519 445.814 333.496 445.88Z" fill="#232E24"/>
<path d="M361.561 446.469C361.157 446.14 360.814 445.745 360.547 445.3C360.216 444.906 359.953 444.46 359.771 443.98C360.173 444.311 360.516 444.706 360.785 445.149C361.115 445.544 361.377 445.99 361.561 446.469Z" fill="#232E24"/>
<path d="M361.866 446.381C361.414 445.433 361.128 444.415 361.02 443.371C361.283 443.828 361.468 444.324 361.567 444.841C361.748 445.336 361.849 445.856 361.866 446.381Z" fill="#232E24"/>
<path d="M362.96 443.754C362.997 444.18 362.946 444.608 362.808 445.013C362.754 445.438 362.612 445.848 362.393 446.217C362.411 445.367 362.604 444.528 362.96 443.754Z" fill="#232E24"/>
<path d="M336.171 451.704C335.82 451.37 335.534 450.976 335.324 450.54C335.041 450.15 334.833 449.711 334.711 449.246C335.059 449.582 335.343 449.976 335.552 450.41C335.836 450.801 336.045 451.239 336.171 451.704Z" fill="#232E24"/>
<path d="M337.272 451.5C336.736 450.604 336.356 449.626 336.146 448.605C336.45 449.032 336.681 449.505 336.831 450.005C337.057 450.477 337.206 450.982 337.272 451.5Z" fill="#232E24"/>
<path d="M338.878 451.339C338.757 450.829 338.722 450.301 338.773 449.779C338.737 449.254 338.792 448.726 338.933 448.219C339.051 448.732 339.085 449.26 339.034 449.784C339.07 450.308 339.017 450.833 338.878 451.339Z" fill="#232E24"/>
<path opacity="0.2" d="M318.233 459.748L310.893 460.45L305.764 458.117L306.646 457.234L311.167 459.999L317.528 458.845L318.233 459.748Z" fill="black"/>
<path opacity="0.2" d="M320.641 468.384L314.589 466.523L301.988 468.931L300.523 468.429L298.069 465.82L297.324 466.563L300.239 468.735L301.764 469.809L314.589 467.386L320.838 470.3L320.57 468.715" fill="black"/>
<path d="M334.996 462.483L357.567 452.133L338.534 463.501L336.694 474.814L328.057 474.779L334.996 462.483Z" fill="#B3A794"/>
<path opacity="0.2" d="M367.274 457.805L361.998 458.844L349.625 457.038L348.606 456.145L347.08 456.812L348.778 457.379L362.119 460.449L368.227 459.626L367.274 457.805Z" fill="black"/>
<path opacity="0.2" d="M373.868 469.616L361.749 466.701L338.027 468.954L332.816 466.34L331.889 467.945L337.429 470.303L361.749 467.614L373.868 471.909V469.616Z" fill="black"/>
<path d="M347.881 478.012C348.19 477.902 349.457 473.773 353.218 470.266C355.971 467.814 358.939 465.611 362.089 463.684L366.924 467.195L370.979 477.571L347.881 478.012Z" fill="#DDD1BC"/>
<path d="M347.881 478.014L354.516 477.843C358.642 477.728 364.365 477.563 370.964 477.427L370.848 477.598L368.186 470.77C367.72 469.562 367.259 468.376 366.803 467.213L366.848 467.268L362.018 463.756H362.155C359.805 465.192 357.549 466.773 355.398 468.487C354.484 469.208 353.609 469.977 352.777 470.79C352.071 471.491 351.42 472.246 350.831 473.047C349.998 474.189 349.262 475.397 348.631 476.659C348.195 477.537 347.942 478.024 347.881 477.974C348.155 477.547 348.382 477.093 348.56 476.619C349.162 475.337 349.879 474.111 350.704 472.957C351.291 472.145 351.939 471.377 352.64 470.659C353.472 469.835 354.346 469.054 355.261 468.321C357.413 466.588 359.673 464.991 362.028 463.54L362.094 463.5L362.165 463.55L367 467.032L367.036 467.057V467.092L368.425 470.649C369.347 473.012 370.239 475.31 371.076 477.467L371.142 477.638H370.959C364.283 477.768 358.465 477.828 354.364 477.879L347.881 478.014Z" fill="#B3A794"/>
<path d="M362.089 463.684L358.236 470.306L359.301 471.615L356.716 472.227L354.004 477.892L347.881 478.012C347.881 478.012 349.604 474.811 351.394 472.227C353.254 469.543 362.089 463.684 362.089 463.684Z" fill="#B3A794"/>
<path opacity="0.2" d="M368.749 471.842L357.983 474.15L356.067 473.588L352.422 471.055L351.398 472.229L355.646 474.471L357.567 476.137L369.737 474.396L368.749 471.842Z" fill="black"/>
<path d="M336.502 455.226L328.528 468.782L322.75 468.691L333.085 454.93L336.502 455.226Z" fill="#B3A794"/>
<path d="M297.836 459.625L295.9 466.338L296.29 460.122L288.783 459.625H297.836Z" fill="#B3A794"/>
<path d="M303.95 453.168L302.216 457.232L293.311 457.036L297.837 455.2L299.53 453.339L302.51 453.168H303.95Z" fill="#B3A794"/>
<path d="M333.212 485.207C333.212 485.207 333.212 485.277 333.212 485.423C333.212 485.568 333.212 485.779 333.212 486.05C333.212 486.602 333.212 487.414 333.212 488.463C333.269 491.422 333.482 494.376 333.851 497.313C334.327 501.031 334.804 505.471 335.372 510.402C335.939 515.334 336.385 520.762 336.958 526.456C338.028 537.855 336.674 526.095 337.632 533.53C338.104 537.253 338.55 540.253 338.854 542.33C339.011 543.359 339.133 544.161 339.219 544.718C339.259 544.979 339.29 545.19 339.31 545.34C339.315 545.411 339.315 545.481 339.31 545.551L339.264 545.34C339.239 545.195 339.199 544.989 339.153 544.723L338.742 542.345C338.408 540.273 337.936 537.273 337.445 533.55C336.431 526.115 337.769 537.88 336.7 526.482C336.147 520.782 335.686 515.349 335.133 510.427C334.581 505.506 334.12 501.056 333.689 497.333C333.334 494.389 333.145 491.428 333.121 488.463C333.121 487.414 333.121 486.602 333.162 486.05C333.162 485.779 333.162 485.573 333.187 485.418C333.212 485.262 333.212 485.207 333.212 485.207Z" fill="#2C392D"/>
<path d="M324.047 496.688C324.092 496.762 324.129 496.841 324.158 496.923L324.427 497.611C324.665 498.213 325.015 499.076 325.481 500.119C326.713 502.852 328.102 505.512 329.643 508.086C331.427 511.121 333.15 513.8 334.372 515.757L335.817 518.08L336.197 518.717C336.246 518.789 336.287 518.867 336.318 518.948C336.318 518.948 336.253 518.883 336.156 518.742L335.736 518.13C335.366 517.563 334.854 516.79 334.215 515.847C332.958 513.911 331.209 511.242 329.42 508.206C327.877 505.621 326.504 502.939 325.309 500.179C324.863 499.116 324.533 498.238 324.326 497.631L324.098 496.923C324.071 496.847 324.054 496.768 324.047 496.688Z" fill="#2C392D"/>
<path d="M327.311 504.172C327.489 504.012 327.884 504.087 327.428 502.577C326.971 501.067 323.783 496.055 323.783 496.055C323.783 496.055 324.63 499.827 325.304 501.292C326.383 503.776 327.311 504.172 327.311 504.172Z" fill="#2C392D"/>
<path d="M329.03 507.779C329.106 507.568 329.147 507.889 328.797 507.117C328.143 505.652 322 501.543 322 501.543C323.196 503.053 324.479 504.493 325.842 505.858C328.001 507.754 329.03 507.779 329.03 507.779Z" fill="#2C392D"/>
<path d="M331.365 511.359C331.401 511.178 331.472 511.434 331.097 510.832C330.392 509.693 324.918 506.879 324.918 506.879C326.068 508.007 327.28 509.072 328.547 510.07C330.549 511.429 331.365 511.359 331.365 511.359Z" fill="#2C392D"/>
<path d="M333.393 514.415C333.393 514.265 333.489 514.466 333.119 514.019C332.425 513.171 327.686 511.48 327.686 511.48C328.741 512.271 329.839 513.003 330.975 513.673C332.729 514.571 333.393 514.415 333.393 514.415Z" fill="#2C392D"/>
<path d="M332.305 512.705C332.452 512.65 332.305 512.81 332.558 512.293C333.065 511.29 332.639 506.363 332.639 506.363C332.348 507.638 332.13 508.927 331.985 510.226C331.874 512.163 332.305 512.705 332.305 512.705Z" fill="#2C392D"/>
<path d="M333.785 495.35C333.633 495.215 333.74 495.471 333.679 494.768C333.567 493.439 336.649 488.246 336.649 488.246C336.354 489.793 335.962 491.319 335.473 492.817C334.586 494.969 333.785 495.35 333.785 495.35Z" fill="#2C392D"/>
<path d="M333.334 492.3C333.141 492.361 333.415 492.401 332.776 492.095C331.56 491.513 328.6 486.25 328.6 486.25C329.797 487.286 330.928 488.395 331.986 489.571C333.42 491.428 333.334 492.3 333.334 492.3Z" fill="#2C392D"/>
<path d="M333.242 489.236C333.044 489.165 333.242 489.366 332.928 488.734C332.34 487.535 333.323 481.59 333.323 481.59C333.612 483.137 333.802 484.7 333.891 486.271C333.85 488.604 333.242 489.236 333.242 489.236Z" fill="#2C392D"/>
<path d="M347.044 499.867C347.006 499.969 346.98 500.075 346.968 500.183C346.922 500.419 346.866 500.725 346.795 501.091C346.648 501.884 346.431 503.023 346.106 504.423C345.244 508.065 344.174 511.656 342.903 515.179C341.438 519.318 339.963 523.015 338.929 525.715L337.712 528.9L337.398 529.768C337.353 529.869 337.322 529.975 337.307 530.084C337.366 529.993 337.415 529.895 337.454 529.793L337.819 528.94L339.121 525.79C340.206 523.121 341.717 519.433 343.176 515.289C344.457 511.757 345.504 508.145 346.309 504.478C346.603 503.068 346.816 501.919 346.907 501.121C346.953 500.745 346.988 500.444 347.018 500.198C347.042 500.09 347.051 499.978 347.044 499.867Z" fill="#2C392D"/>
<path d="M344.813 509.806C344.559 509.65 344.088 509.836 344.306 507.874C344.524 505.913 347.226 499.02 347.226 499.02C347.226 499.02 347.089 503.851 346.643 505.802C345.867 509.099 344.813 509.806 344.813 509.806Z" fill="#2C392D"/>
<path d="M343.581 514.637C343.429 514.392 343.46 514.793 343.703 513.764C344.159 511.818 350.718 505.336 350.718 505.336C350.718 505.336 348.336 509.851 347.033 511.532C344.833 514.361 343.581 514.637 343.581 514.637Z" fill="#2C392D"/>
<path d="M341.545 519.579C341.454 519.368 341.428 519.699 341.743 518.872C342.341 517.306 348.388 512.57 348.388 512.57C347.246 514.227 346.012 515.819 344.693 517.341C342.589 519.474 341.545 519.579 341.545 519.579Z" fill="#2C392D"/>
<path d="M339.805 523.812C339.755 523.631 339.699 523.897 340.044 523.26C340.697 522.061 346.126 518.875 346.126 518.875C345.02 520.092 343.847 521.247 342.613 522.337C340.662 523.837 339.805 523.812 339.805 523.812Z" fill="#2C392D"/>
<path d="M340.733 521.44C340.545 521.405 340.768 521.571 340.327 520.994C339.491 519.905 338.807 513.734 338.807 513.734C339.469 515.231 340.046 516.764 340.535 518.325C341.113 520.688 340.733 521.44 340.733 521.44Z" fill="#2C392D"/>
<path d="M104.177 511.908C104.177 511.978 86.9432 512.038 65.6897 512.038C44.4363 512.038 27.1973 511.978 27.1973 511.908C27.1973 511.838 44.4312 511.777 65.6897 511.777C86.9483 511.777 104.177 511.843 104.177 511.908Z" fill="#F8F5F0"/>
<path d="M122.633 515.619C122.633 515.689 105.121 515.749 83.5277 515.749C61.9346 515.749 44.4219 515.689 44.4219 515.619C44.4219 515.548 61.9244 515.488 83.5277 515.488C105.131 515.488 122.633 515.548 122.633 515.619Z" fill="#F8F5F0"/>
<mask id="mask0_733_1248" style="mask-type:alpha" maskUnits="userSpaceOnUse" x="-1" y="410" width="375" height="38">
<path fill-rule="evenodd" clip-rule="evenodd" d="M353.061 425.266H352.493L346.573 427.373L317.174 429.25L314.082 430.529H311.091L305.394 433.394C269.278 437.131 226.254 440.417 185.324 440.648C109.829 441.055 29.9601 419.878 -0.863281 410.125V447.321L373.914 442.103V419.687L353.061 425.266Z" fill="#ECEDDF"/>
</mask>
<g mask="url(#mask0_733_1248)">
<path d="M135.197 430.809H258.635V450.426H135.197V430.809Z" fill="#ECEDDF"/>
</g>
<path d="M267.433 419.869L266.219 396L246 452L269 450.818L268.992 450.723L256.051 451.385L267.433 419.869Z" fill="#B3BFA6"/>
<path d="M293 470.493L293.727 484L304 483.863L303.265 470L293 470.493Z" fill="#B3BFA6"/>
<path d="M287.644 365.236L288.141 375.017L291.974 449.872L302.822 449.322L303.879 470L314 469.489L312.935 448.709L302.088 449.267L297.063 351L272.032 352.265L272 352.359L286.949 351.605L287.644 365.236Z" fill="#B3BFA6"/>
<path d="M303.271 470.207L304 470.168V470.074L302.938 449.452L292.043 450.001L288.2 375.348L288.921 389.358L284.959 370.945L287.677 365.594L286.972 352L271.956 352.784L261.861 353.293L248.835 388.66L251.299 392.977L246.109 396.064L225 453.401L226.07 474.117L270.49 471.884L271.164 485L293.834 484.679L293.121 470.74L303.271 470.207ZM269.405 451.145L246.149 452.312L266.6 396.683L267.82 420.408L269.405 451.082V451.145Z" fill="#B3BFA6"/>
<path d="M287 365L288 375L287 365Z" fill="black"/>
<path opacity="0.3" d="M287 365L288 375L287 365Z" fill="black"/>
<path d="M285 370.405L289 389L288.268 374.852L287.761 365L285 370.405Z" fill="#B3BFA6"/>
<path opacity="0.3" d="M285 370.405L289 389L288.268 374.852L287.761 365L285 370.405Z" fill="black"/>
<path opacity="0.3" d="M271 485C271 485 272.263 481.102 273.641 479.585C275.99 476.989 280.572 478.547 280.572 478.547C280.572 478.547 280.672 474.813 283.498 472.876C286.324 470.94 292.307 470 292.307 470L293 484.662L271 485Z" fill="#F8F5F0"/>
<g opacity="0.3">
<path d="M267.506 419.998L266.279 396.266L245.842 451.942L269.09 450.767L269.082 450.673L256.001 451.331L267.506 419.998Z" fill="black"/>
<path d="M292.766 470.356L293.486 484.299L303.661 484.157L302.933 469.847L292.766 470.356Z" fill="black"/>
<path d="M287.358 365.201L287.857 374.959L291.705 449.633L302.593 449.084L303.654 469.712L313.813 469.202L312.744 448.473L301.857 449.029L296.813 351L271.688 352.262L271.656 352.356L286.661 351.603L287.358 365.201Z" fill="black"/>
</g>
<path d="M266 398C265.962 398.193 265.906 398.382 265.834 398.566C265.691 398.958 265.501 399.484 265.271 400.136L263.162 405.933C261.363 410.866 258.905 417.605 256.194 425.059C253.483 432.513 250.97 439.276 249.107 444.145C248.18 446.58 247.419 448.544 246.88 449.895L246.246 451.466C246.181 451.651 246.099 451.83 246 452C246.038 451.809 246.094 451.623 246.166 451.442C246.309 451.042 246.491 450.515 246.729 449.871C247.237 448.458 247.958 446.494 248.838 444.075C250.629 439.142 253.087 432.403 255.806 424.949C258.525 417.495 261.03 410.732 262.885 405.862C263.82 403.427 264.581 401.464 265.12 400.113L265.754 398.542C265.818 398.354 265.901 398.172 266 398Z" fill="#232E24"/>
<path d="M291.968 450C291.96 449.916 291.96 449.831 291.968 449.747C291.968 449.558 291.968 449.305 291.906 448.998C291.867 448.311 291.806 447.348 291.728 446.117C291.589 443.583 291.381 439.969 291.134 435.51C290.67 426.536 290.037 414.2 289.334 400.523C289.171 397.255 289.009 394.059 288.862 390.981C287.402 383.278 286.074 376.245 285 370.374V370.318V370.271C285.966 368.314 286.854 366.53 287.665 364.896V364.959C287.487 360.934 287.348 357.698 287.256 355.441C287.217 354.352 287.186 353.492 287.163 352.884C287.163 352.608 287.163 352.395 287.163 352.221C287.154 352.148 287.154 352.073 287.163 352C287.173 352.073 287.173 352.148 287.163 352.221C287.163 352.387 287.163 352.608 287.217 352.876L287.379 355.433C287.503 357.69 287.688 360.958 287.912 364.951L285.286 370.35V370.247C286.421 376.119 287.781 383.143 289.264 390.839C289.419 393.917 289.581 397.113 289.743 400.388C290.4 414.042 290.995 426.433 291.427 435.383C291.62 439.842 291.782 443.457 291.891 445.991C291.937 447.222 291.976 448.185 291.999 448.871C291.999 449.187 291.999 449.432 291.999 449.661C292.004 449.775 291.993 449.889 291.968 450Z" fill="#232E24"/>
<path d="M220.874 477.422L215.848 402.208C214.417 380.693 202.839 368.446 183 368C196.597 371.864 204.47 383.235 205.646 400.746L210.656 475.967C210.864 478.976 210.827 481.997 210.545 485L220.882 484.859C221.042 482.382 221.039 479.898 220.874 477.422Z" fill="#B3BFA6"/>
<path d="M168.323 404.462C167.708 395.339 171.087 391.007 177 389.807C174.907 388.374 172.254 387.844 169.154 388.039C161.763 388.506 157.377 392.713 158.072 403.013L163.289 480.819C163.393 482.569 163.677 484.305 164.136 486L174.004 485.86C173.769 484.674 173.614 483.474 173.54 482.268L168.323 404.462Z" fill="#B3BFA6"/>
<path d="M210.88 476.051L205.834 401.117C204.665 383.673 196.721 372.345 183.026 368.496C178.148 367.198 173.075 366.74 168.034 367.14C145.178 368.59 133.598 382.567 135.136 405.62L139.708 473.675L145.266 475.669L140.173 480.546C140.301 482.447 140.517 484.263 140.798 486L164.391 485.681C163.93 483.986 163.645 482.25 163.542 480.5L158.312 402.691C157.615 392.399 162.012 388.184 169.42 387.716C172.527 387.522 175.186 388.051 177.284 389.485C180.199 391.464 182.033 395.18 182.434 401.172L187.663 478.98C187.844 481.118 187.723 483.271 187.303 485.377L210.736 485.057C211.031 482.064 211.079 479.052 210.88 476.051ZM200.693 412.305L206.203 406.547L206.651 413.154L200.693 412.305Z" fill="#B3BFA6"/>
<path opacity="0.3" d="M220.874 477.422L215.848 402.208C214.417 380.693 202.839 368.446 183 368C196.597 371.864 204.47 383.235 205.646 400.746L210.656 475.967C210.864 478.976 210.827 481.997 210.545 485L220.882 484.859C221.042 482.382 221.039 479.898 220.874 477.422Z" fill="black"/>
<path opacity="0.3" d="M168.323 404.462C167.708 395.339 171.087 391.007 177 389.807C174.907 388.374 172.254 387.844 169.154 388.039C161.763 388.506 157.377 392.713 158.072 403.013L163.289 480.819C163.393 482.569 163.677 484.305 164.136 486L174.004 485.86C173.769 484.674 173.614 483.474 173.54 482.268L168.323 404.462Z" fill="black"/>
<path opacity="0.3" d="M141 486.968C141 486.968 141.867 479.429 146.898 479.549C151.929 479.67 152.812 473.611 152.812 473.611C152.812 473.611 151.71 460.046 155.947 456.377C160.184 452.708 162.08 452 162.08 452L164 481.207L162.874 486.59L141.146 487" fill="#F8F5F0"/>
<path d="M200 412.092L206 413L205.556 406L200 412.092Z" fill="#B3BFA6"/>
<path opacity="0.3" d="M200 412.092L206 413L205.556 406L200 412.092Z" fill="black"/>
<path opacity="0.3" d="M187 469.233C187 469.233 192.083 468.323 194.572 470.102C197.062 471.882 199.406 479.042 201.686 479.106C203.965 479.171 209.741 475.289 210.966 476.159C210.966 476.159 211.095 485.106 210.853 485.46L187.427 486L187.717 481.78L187 469.233Z" fill="#F8F5F0"/>
<path d="M162.989 468C162.866 468 161.884 454.794 160.788 438.519C159.692 422.245 158.89 409 159.012 409C159.135 409 160.109 422.206 161.213 438.519C162.318 454.833 163.103 468 162.989 468Z" fill="#232E24"/>
<path d="M208.992 452C208.988 451.935 208.988 451.87 208.992 451.805C208.992 451.656 208.992 451.469 208.936 451.242C208.936 450.711 208.833 449.977 208.753 449.047C208.61 447.11 208.411 444.361 208.148 440.901C207.671 433.949 207.002 424.294 206.245 413.336L206.421 413.523L200.498 412.664L200.107 412.609L200.378 412.328C200.641 412.047 200.927 411.742 201.222 411.445L205.736 406.704L205.68 406.845C205.606 401.671 204.982 396.519 203.817 391.473C202.856 387.427 201.2 383.57 198.921 380.069C197.408 377.738 195.561 375.634 193.436 373.82C193.07 373.5 192.72 373.234 192.425 373.039C192.13 372.844 191.868 372.617 191.629 372.469L191.159 372.125C191.101 372.09 191.047 372.048 191 372C191 372 191.064 372 191.175 372.094L191.677 372.406C191.9 372.547 192.162 372.726 192.473 372.953C192.783 373.179 193.142 373.437 193.516 373.734C195.698 375.528 197.593 377.635 199.136 379.983C201.468 383.494 203.164 387.373 204.152 391.449C205.349 396.515 205.995 401.692 206.078 406.892V406.978L206.023 407.04L201.469 411.719L200.673 412.601L200.553 412.266L206.468 413.125H206.636V413.289C207.344 424.224 207.957 433.91 208.403 440.862C208.61 444.306 208.769 447.11 208.889 449.016C208.936 449.954 208.968 450.68 209 451.211C209 451.445 209 451.633 209 451.781C209 451.93 209 452 208.992 452Z" fill="#232E24"/>
<g opacity="0.6">
<path d="M283.224 484.568C278.038 484.748 258.527 484.301 252.977 484.568C254.259 485.281 266.636 491.621 296.369 494.043C304.707 494.717 297.652 487.734 296.686 487.452L295.49 487.107C308.283 487.899 321.114 487.859 333.902 486.989C334.693 486.942 335.762 486.527 335.556 485.775C335.406 485.21 334.131 484.662 333.545 484.662C316.6 484.575 300.185 484.928 283.24 484.842" fill="#F8F5F0"/>
</g>
<g opacity="0.6">
<path d="M226.465 485.146C219.846 484.323 173.049 486.11 166.373 486.157C162.842 486.157 148.819 486.235 141.486 486.674C140.774 486.713 141.407 487.936 142.12 488.054C144.495 488.477 147.108 488.939 148.597 489.167C148.388 489.287 148.225 489.471 148.131 489.691C148.038 489.912 148.02 490.156 148.08 490.388C148.14 490.62 148.275 490.825 148.464 490.974C148.653 491.123 148.886 491.206 149.127 491.212C161.923 491.358 174.717 491.097 187.507 490.428C187.818 490.456 188.131 490.412 188.422 490.301C188.713 490.189 188.975 490.013 189.186 489.786C189.334 489.47 189.355 489.111 189.243 488.781C189.131 488.451 188.895 488.177 188.584 488.014C188.106 487.837 187.609 487.711 187.104 487.638C199.393 489.268 214.826 488.79 226.465 485.146Z" fill="#F8F5F0"/>
</g>
<path d="M151 486L169.659 461H173.9L179.51 465.425L185 485.37L151 486Z" fill="#DDD1BC"/>
<path d="M151 485.946H151.174H151.671L153.567 485.892L160.596 485.707L184.739 485.151L184.55 485.39C183.341 480.998 182.023 476.205 180.648 471.235C180.122 469.32 179.595 467.44 179.069 465.592L179.132 465.701L173.603 461.309L173.722 461.347H169.52L169.67 461.27L156.307 479.023L152.422 484.14L151.379 485.514L151.103 485.877L151 486C151 486 151 486 151.071 485.892L151.316 485.545C151.561 485.22 151.892 484.773 152.311 484.194L156.078 479.061L169.362 461.077L169.418 461H173.793L173.848 461.046L179.424 465.43L179.472 465.469V465.531C179.977 467.375 180.498 469.259 181.051 471.165L184.937 485.336L185 485.568H184.755L160.43 485.907L153.464 485.985H151.624H151.008L151 485.946Z" fill="#B3A794"/>
<path d="M174 461C174 461 157.324 485.852 157.004 485.852C156.684 485.852 151 486 151 486L169.747 461.031L174 461Z" fill="#B3A794"/>
<path opacity="0.2" d="M181.697 473.613L177.187 474.667L167.147 472L161.689 472.52L160 474.5L166.821 472.76L176.805 475H177.514L182 474.567L181.697 473.613Z" fill="black"/>
<path opacity="0.2" d="M183.607 481.077L176.385 482.438L156.479 479L156 479.692L176.204 483L184 482.585L183.607 481.077Z" fill="black"/>
<path d="M321 484C320.621 483.87 319.087 478.675 314.528 474.275C311.191 471.192 307.591 468.423 303.772 466L297.908 470.393L293 483.425L321 484Z" fill="#DDD1BC"/>
<path d="M320.992 483.931L313.246 483.867C308.328 483.819 301.318 483.755 293.282 483.595H293L293.102 483.324L296.289 474.87L297.958 470.455V470.399H298.005L303.824 466.072L303.934 466L304.035 466.064C306.866 467.863 309.582 469.846 312.165 471.998C313.258 472.913 314.304 473.885 315.298 474.91C316.15 475.8 316.936 476.755 317.648 477.765C318.64 479.197 319.5 480.721 320.217 482.316C320.427 482.899 320.689 483.461 321 483.995C320.922 484.059 320.608 483.459 320.084 482.396C319.32 480.836 318.432 479.344 317.429 477.933C316.712 476.943 315.927 476.008 315.079 475.134C314.085 474.129 313.039 473.178 311.946 472.286C309.367 470.137 306.663 468.15 303.848 466.336H304.059L298.255 470.671L298.326 470.583C297.778 472.022 297.222 473.502 296.658 474.998C295.553 477.925 294.472 480.772 293.462 483.443L293.282 483.172C301.2 483.34 308.061 483.563 313.027 483.715L320.992 483.931Z" fill="#B3A794"/>
<path d="M304 466L308.6 474.326L307.331 475.95L310.445 476.72L313.691 483.846L321 484C321 484 318.945 479.942 316.804 476.696C314.547 473.409 304 466 304 466Z" fill="#B3A794"/>
<path opacity="0.2" d="M295.242 476.085L308.745 479.269L311.148 478.487L315.709 475L317 476.61L311.679 479.705L309.26 482L294 479.598L295.242 476.085Z" fill="black"/>
<path d="M116 487.5C116 487.769 99.6577 488 79.5 488C59.3423 488 43 487.769 43 487.5C43 487.231 59.3423 487 79.5 487C99.6577 487 116 487.212 116 487.5Z" fill="#F8F5F0"/>
<path d="M106 491.5C106 491.769 96.15 492 84 492C71.85 492 62 491.769 62 491.5C62 491.231 71.85 491 84 491C96.15 491 106 491.212 106 491.5Z" fill="#F8F5F0"/>
<path d="M234.74 485H233.95L231.006 485.065L220.193 485.273L184.508 486.212C170.569 486.594 157.948 486.888 148.807 486.976C144.245 486.976 140.543 487.03 137.994 486.976H135.05L137.986 486.91L148.807 486.703L184.5 485.775C198.431 485.382 211.052 485.087 220.185 485C224.755 485 228.457 485 231.006 485H233.95H234.74Z" fill="#F8F5F0"/>
<path d="M76.6704 452L76.686 451.906L64.0081 449.928L81.3465 421.716L85 398L54 448.469L76.6704 452Z" fill="#B3BFA6"/>
<path d="M113.327 362.632L107.323 401.492L99 455.38L109.618 457.034L106.472 477.448L116.466 479L119.636 458.492L109.017 456.838L124 359.818L99.4841 356L99.4294 356.086L113.983 358.352L113.327 362.632Z" fill="#B3BFA6"/>
<path d="M95.7315 476L94 487L104.533 486.85L106 477.568L95.7315 476Z" fill="#B3BFA6"/>
<path d="M105.808 477.341L106.437 477.435V477.341L109.582 457.056L98.8824 455.41L107.271 401.78L105.824 391.747L108.434 386.73L109.574 377.672C109.574 377.672 110.069 372.656 110.226 371.524C110.384 370.393 113.332 363.075 113.332 363.075L114 358.823L99.3462 356.56L89.3149 355L47.4368 422.19L50.8565 425.092L44.0013 427.698L33.1446 445.244L30 465.662L73.6077 472.371L71.32 487L94.1183 486.68L95.8242 475.757L105.808 477.341ZM81.4377 421.846L76.7208 451.86V451.962L53.8832 448.443L85.109 398.269L81.4377 421.846Z" fill="#B3BFA6"/>
<path d="M110.131 371.489C109.983 372.63 109.518 377.689 109.518 377.689L108.449 386.823L106 391.882L107.357 402L113 363C113 363 110.286 370.348 110.131 371.489Z" fill="#B3BFA6"/>
<path opacity="0.3" d="M110.029 371.421C109.885 372.565 109.432 377.635 109.432 377.635L108.388 386.79L106 391.86L107.496 402L113 363C113 363 110.18 370.278 110.029 371.421Z" fill="black"/>
<path opacity="0.3" d="M71.7586 482.306C71.7586 482.306 74.441 485.025 76.881 485.168C79.321 485.311 80.4315 478.921 82.9731 480.159C85.5148 481.397 83.7552 484.081 87.1023 484.567C89.3911 484.851 91.7112 484.851 94 484.567L93.6168 486.843L71 487L71.7586 482.306Z" fill="#F8F5F0"/>
<g opacity="0.3">
<path d="M76.5963 452.197L76.6121 452.103L63.7528 450.128L81.3394 421.953L85.0451 398.268L53.6016 448.67L76.5963 452.197Z" fill="black"/>
<path d="M113.503 362.916L107.414 401.765L98.9727 455.639L109.742 457.292L106.55 477.701L116.686 479.253L119.901 458.75L109.132 457.097L124.327 360.102L99.4636 356.285L99.4082 356.371L114.168 358.636L113.503 362.916Z" fill="black"/>
<path d="M95.7592 476.139L94.0488 487.079L104.453 486.931L105.903 477.698L95.7592 476.139Z" fill="black"/>
</g>
<path d="M99.0027 456C98.8934 456 102.127 434.25 106.297 407.469C110.467 380.687 113.888 358.977 113.997 359C114.107 359.024 110.873 380.742 106.703 407.531C102.533 434.321 99.1198 456.016 99.0027 456Z" fill="#232E24"/>
<path d="M85 399C84.9203 399.182 84.8277 399.359 84.7231 399.528C84.5017 399.899 84.2169 400.395 83.8609 401.01L80.6098 406.41L69.765 424.154C65.4777 431.051 61.5542 437.271 58.6907 441.772L55.2973 447.084C54.9018 447.676 54.5933 448.157 54.356 448.519C54.2544 448.691 54.1351 448.852 54 449C54.081 448.817 54.1762 448.64 54.2848 448.472L55.1549 446.998L58.4376 441.614L69.4011 423.941L80.3646 406.276L83.7185 400.939L84.652 399.497C84.7486 399.318 84.8654 399.152 85 399Z" fill="#232E24"/>
<path d="M107.013 478C106.906 478 107.479 473.267 108.305 467.464C109.131 461.66 109.88 457 109.987 457C110.094 457 109.521 461.733 108.695 467.536C107.869 473.34 107.12 478.016 107.013 478Z" fill="#232E24"/>
<path d="M344 484.5C344 484.769 322.516 485 296.004 485C269.492 485 248 484.769 248 484.5C248 484.231 269.484 484 296.004 484C322.524 484 344 484.115 344 484.5Z" fill="#F8F5F0"/>
<path d="M54.9795 384.929C53.7559 385.252 53.2025 386.746 53.0233 388.047C52.9564 388.698 53.034 389.357 53.2501 389.973C53.4662 390.589 53.8151 391.146 54.2703 391.601C54.8693 392.209 55.6139 392.641 56.4275 392.853C57.2411 393.064 58.0944 393.048 58.8997 392.804C59.6987 392.537 60.4099 392.044 60.9525 391.381C61.4952 390.717 61.8478 389.909 61.9704 389.048C62.0691 388.185 61.9199 387.31 61.5414 386.535C61.163 385.759 60.5721 385.116 59.8427 384.686C59.0307 384.175 58.0845 383.939 57.1369 384.013C56.1892 384.087 55.2877 384.467 54.5586 385.098" fill="#B3BFA6"/>
<g opacity="0.7">
<path d="M54.5756 385.292C53.3324 385.605 52.7702 387.055 52.5881 388.317C52.5202 388.949 52.599 389.589 52.8185 390.186C53.0381 390.784 53.3926 391.324 53.855 391.765C54.4636 392.356 55.2201 392.775 56.0468 392.981C56.8734 393.186 57.7404 393.169 58.5585 392.933C59.3704 392.674 60.0929 392.196 60.6442 391.552C61.1956 390.908 61.5538 390.124 61.6783 389.289C61.7786 388.451 61.6271 387.603 61.2425 386.85C60.858 386.097 60.2577 385.473 59.5166 385.057C58.6916 384.56 57.7303 384.332 56.7675 384.404C55.8047 384.475 54.8887 384.843 54.148 385.456" fill="#F8F5F0"/>
</g>
<path d="M55.984 388C55.3465 386.266 54.321 384.67 52.9716 383.311C52.5439 382.826 51.9965 382.439 51.3735 382.182C51.0664 382.027 50.7118 381.969 50.3644 382.016C50.0171 382.062 49.6963 382.211 49.4517 382.439C49.207 382.667 49.0522 382.962 49.011 383.278C48.9699 383.594 49.0447 383.913 49.224 384.186C49.499 384.728 49.9029 385.207 50.4066 385.59C51.9644 386.88 53.9121 387.719 56 388" fill="#F8F5F0"/>
<path d="M55.9921 387.979C55.7265 387.978 55.4623 387.944 55.2066 387.879C54.4978 387.75 53.8036 387.562 53.1328 387.317C52.1327 386.948 51.2146 386.418 50.4228 385.753C49.9248 385.373 49.5138 384.909 49.2131 384.387C49.0467 384.09 48.9755 383.757 49.0074 383.425C49.0394 383.093 49.1732 382.776 49.3938 382.509C49.6549 382.271 49.9874 382.107 50.3503 382.037C50.7132 381.968 51.0907 381.996 51.4361 382.118C52.0446 382.341 52.5838 382.695 53.0071 383.149C53.7353 383.867 54.3681 384.66 54.8924 385.511C55.2412 386.082 55.5406 386.676 55.7879 387.289C55.8876 387.518 55.9588 387.757 56 388C55.945 388 55.6229 387.04 54.696 385.632C54.1527 384.812 53.5155 384.047 52.7951 383.349C52.4005 382.933 51.9023 382.609 51.3418 382.403C51.0543 382.303 50.7411 382.279 50.4392 382.334C50.1372 382.39 49.859 382.522 49.6373 382.716C49.4571 382.942 49.3494 383.21 49.3258 383.488C49.3023 383.767 49.3638 384.046 49.5037 384.295C49.7827 384.785 50.1641 385.223 50.627 385.582C51.3877 386.237 52.2673 386.769 53.2271 387.154C54.8767 387.772 56.0078 387.922 55.9921 387.979Z" fill="#232E24"/>
<path d="M58 388C59.8425 387.095 61.486 385.798 62.8267 384.193C63.3219 383.674 63.6844 383.032 63.8805 382.327C64.0139 381.984 64.0363 381.605 63.9443 381.248C63.8522 380.89 63.6508 380.575 63.3711 380.349C63.0913 380.124 62.7487 380.001 62.396 380C62.0432 379.999 61.6999 380.119 61.4189 380.343C60.8574 380.71 60.3751 381.196 60.0031 381.77C58.7612 383.591 58.0665 385.761 58.0081 388" fill="#F8F5F0"/>
<path d="M58.0248 387.992C57.9917 387.714 57.9917 387.434 58.0248 387.157C58.0859 386.392 58.2128 385.634 58.4041 384.894C58.6912 383.785 59.1679 382.741 59.8107 381.813C60.1703 381.235 60.635 380.738 61.1778 380.352C61.4858 380.134 61.8455 380.013 62.2158 380.001C62.5861 379.989 62.952 380.088 63.2719 380.285C63.5648 380.527 63.7839 380.855 63.902 381.227C64.02 381.6 64.0317 382.001 63.9357 382.381C63.7662 383.053 63.4402 383.67 62.9874 384.176C62.2835 385.04 61.4881 385.816 60.6167 386.489C60.0315 386.94 59.4101 387.337 58.7597 387.674C58.5287 387.815 58.2818 387.925 58.0248 388C58.0248 387.942 59.0442 387.466 60.4903 386.33C61.3263 385.643 62.0941 384.868 62.782 384.017C63.1961 383.544 63.4945 382.97 63.6512 382.347C63.7344 382.032 63.7278 381.697 63.6322 381.385C63.5367 381.073 63.3564 380.798 63.1139 380.594C62.8436 380.43 62.5352 380.349 62.2237 380.361C61.9122 380.373 61.6101 380.477 61.3517 380.661C60.8413 381.023 60.4036 381.489 60.0636 382.03C59.4271 382.923 58.943 383.926 58.6333 384.994C58.3819 385.982 58.1788 386.982 58.0248 387.992Z" fill="#232E24"/>
<path d="M55.8777 387.382C55.3344 387.526 55.0857 388.199 55.0121 388.777C54.9799 389.068 55.0122 389.364 55.1064 389.641C55.2005 389.918 55.3541 390.168 55.5554 390.373C55.8227 390.646 56.1546 390.84 56.517 390.934C56.8794 391.029 57.2594 391.021 57.6181 390.912C57.9753 390.795 58.2936 390.575 58.5363 390.277C58.779 389.979 58.9364 389.616 58.9902 389.229C59.0269 388.85 58.9598 388.468 58.7968 388.127C58.6338 387.787 58.3815 387.501 58.0694 387.305C57.7062 387.076 57.2838 386.972 56.8612 387.006C56.4385 387.041 56.0368 387.212 55.7119 387.497" fill="#B3BFA6"/>
<path d="M56 391.987C56 392.025 55.6831 391.987 55.1875 391.745C54.5915 391.45 54.077 391.031 53.6843 390.52C53.2652 390.013 53.0291 389.396 53.0099 388.757C52.9738 388.493 53.0369 388.225 53.1887 388C53.2375 388 53.1887 388.303 53.2374 388.757C53.3173 389.335 53.5613 389.884 53.9443 390.346C54.5281 390.994 55.2227 391.549 56 391.987Z" fill="#F8F5F0"/>
<path d="M60.5979 387C60.9425 387.638 61.0713 388.387 60.9622 389.117C60.853 389.848 60.5126 390.514 60 391C60.2758 390.378 60.4924 389.727 60.6464 389.057C60.6982 388.372 60.6819 387.682 60.5979 387Z" fill="#F8F5F0"/>
<path d="M56.9986 389.973C56.9986 390.013 56.8459 390.021 56.6473 389.907C56.3859 389.758 56.1848 389.512 56.082 389.216C55.9727 388.921 55.9727 388.592 56.082 388.297C56.166 388.077 56.2806 387.979 56.3112 388.004C56.3417 388.028 56.1584 388.541 56.3494 389.102C56.5403 389.663 57.0292 389.891 56.9986 389.973Z" fill="#F8F5F0"/>
<path d="M297.972 506.936C296.756 507.251 296.203 508.752 296.023 510.044C295.957 510.695 296.033 511.352 296.248 511.968C296.463 512.583 296.81 513.14 297.262 513.596C297.863 514.205 298.608 514.638 299.423 514.851C300.238 515.064 301.093 515.049 301.9 514.807C302.699 514.541 303.41 514.048 303.953 513.384C304.495 512.721 304.848 511.913 304.971 511.053C305.069 510.189 304.92 509.314 304.541 508.538C304.163 507.761 303.572 507.117 302.843 506.686C302.029 506.173 301.081 505.938 300.132 506.014C299.182 506.089 298.28 506.471 297.551 507.105" fill="#B3BFA6"/>
<g opacity="0.7">
<path d="M298.07 506.709C296.834 507.015 296.272 508.473 296.09 509.727C296.022 510.358 296.1 510.997 296.319 511.594C296.537 512.192 296.889 512.732 297.349 513.175C297.959 513.766 298.716 514.187 299.544 514.393C300.372 514.6 301.24 514.585 302.06 514.351C302.872 514.092 303.595 513.614 304.146 512.969C304.698 512.325 305.056 511.541 305.18 510.706C305.28 509.868 305.128 509.018 304.744 508.264C304.36 507.51 303.76 506.885 303.019 506.466C302.192 505.969 301.229 505.741 300.264 505.814C299.3 505.887 298.383 506.258 297.642 506.874" fill="#F8F5F0"/>
</g>
<path d="M300 510C299.359 507.957 298.327 506.076 296.969 504.475C296.532 503.894 295.966 503.437 295.321 503.145C294.998 503.004 294.643 502.964 294.299 503.033C293.955 503.101 293.637 503.273 293.384 503.529C293.181 503.806 293.053 504.136 293.013 504.485C292.974 504.833 293.024 505.186 293.159 505.507C293.438 506.143 293.844 506.707 294.349 507.161C295.916 508.681 297.875 509.669 299.976 510" fill="#F8F5F0"/>
<path d="M299.992 509.975C299.727 509.969 299.463 509.93 299.207 509.859C298.499 509.7 297.805 509.478 297.133 509.195C296.131 508.767 295.212 508.148 294.423 507.37C293.924 506.931 293.513 506.392 293.213 505.785C293.047 505.436 292.976 505.046 293.007 504.658C293.039 504.27 293.173 503.898 293.393 503.586C293.657 503.311 293.989 503.122 294.352 503.042C294.714 502.963 295.091 502.996 295.436 503.137C296.047 503.393 296.587 503.807 297.007 504.341C298.232 505.737 299.178 507.379 299.788 509.17C299.89 509.437 299.961 509.715 300 510C299.61 509.053 299.175 508.128 298.696 507.228C298.154 506.274 297.517 505.384 296.795 504.573C296.402 504.086 295.904 503.707 295.342 503.469C295.056 503.345 294.742 503.313 294.438 503.376C294.135 503.44 293.856 503.596 293.637 503.826C293.456 504.092 293.348 504.405 293.324 504.732C293.301 505.058 293.363 505.385 293.503 505.677C293.78 506.251 294.162 506.761 294.627 507.179C295.388 507.943 296.267 508.563 297.227 509.013C298.877 509.734 300.008 509.9 299.992 509.975Z" fill="#232E24"/>
<path d="M301 509C302.842 508.207 304.486 507.074 305.83 505.671C306.322 505.211 306.684 504.647 306.885 504.029C307.015 503.729 307.035 503.398 306.942 503.086C306.849 502.775 306.647 502.5 306.368 502.304C306.089 502.108 305.747 502.001 305.396 502C305.045 501.999 304.702 502.103 304.422 502.297C303.856 502.615 303.373 503.041 303.005 503.548C301.761 505.141 301.065 507.04 301.008 509" fill="#F8F5F0"/>
<path d="M301.025 508.993C300.992 508.75 300.992 508.505 301.025 508.262C301.088 507.593 301.215 506.93 301.405 506.282C301.695 505.313 302.171 504.4 302.811 503.586C303.175 503.084 303.639 502.65 304.178 502.308C304.486 502.118 304.846 502.011 305.216 502.001C305.587 501.99 305.953 502.077 306.272 502.249C306.565 502.463 306.784 502.751 306.902 503.078C307.02 503.405 307.032 503.757 306.936 504.09C306.759 504.676 306.434 505.215 305.988 505.661C305.284 506.415 304.489 507.092 303.617 507.678C303.03 508.072 302.409 508.421 301.76 508.722C301.528 508.84 301.281 508.934 301.025 509C301.025 508.949 302.045 508.532 303.483 507.539C304.325 506.939 305.096 506.258 305.782 505.508C306.195 505.093 306.493 504.591 306.652 504.047C306.734 503.77 306.726 503.476 306.629 503.204C306.532 502.931 306.35 502.69 306.106 502.512C305.836 502.372 305.529 502.304 305.219 502.316C304.91 502.327 304.609 502.418 304.352 502.578C303.842 502.893 303.404 503.297 303.064 503.769C302.427 504.55 301.943 505.428 301.634 506.363C301.383 507.229 301.18 508.107 301.025 508.993Z" fill="#232E24"/>
<path d="M299.697 509.29C299.291 509.398 299.105 509.903 299.008 510.335C298.985 510.554 299.01 510.776 299.082 510.983C299.154 511.19 299.27 511.378 299.422 511.531C299.622 511.735 299.87 511.88 300.141 511.951C300.412 512.022 300.697 512.016 300.965 511.934C301.232 511.846 301.469 511.681 301.651 511.458C301.832 511.235 301.95 510.963 301.991 510.674C302.021 510.39 301.972 510.102 301.85 509.847C301.728 509.591 301.538 509.378 301.302 509.233C301.032 509.06 300.716 508.98 300.4 509.004C300.083 509.029 299.782 509.157 299.539 509.37" fill="#B3BFA6"/>
<path d="M299 514C298.711 513.979 298.433 513.893 298.187 513.75C297.589 513.456 297.073 513.035 296.683 512.52C296.265 512.013 296.026 511.398 296 510.759C296 510.266 296.154 510 296.187 510C296.219 510 296.187 510.296 296.187 510.759C296.274 511.341 296.52 511.893 296.902 512.361C297.502 513.009 298.211 513.563 299 514Z" fill="#F8F5F0"/>
<path d="M304.581 509C304.77 509.229 304.899 509.489 304.96 509.763C305.021 510.037 305.012 510.318 304.934 510.589C304.91 510.867 304.814 511.137 304.653 511.381C304.491 511.625 304.269 511.836 304 512C304.638 511.098 304.846 510.026 304.581 509Z" fill="#F8F5F0"/>
<path d="M300.956 506.92C300.88 506.973 300.798 507 300.716 507C300.633 507 300.551 506.973 300.475 506.92C300.304 506.914 300.141 506.797 300.022 506.594C299.923 506.385 300.164 505.919 300.546 506.012C300.928 506.105 301.084 506.781 300.956 506.92Z" fill="#F8F5F0"/>
<path d="M299.999 511.975C299.999 512.015 299.846 512.015 299.647 511.91C299.384 511.76 299.183 511.511 299.082 511.212C298.973 510.917 298.973 510.589 299.082 510.294C299.166 510.075 299.281 509.986 299.311 510.002C299.342 510.018 299.158 510.546 299.311 511.106C299.464 511.666 300.029 511.894 299.999 511.975Z" fill="#F8F5F0"/>
<path d="M144.394 413.234C143.14 413.066 142.09 414.246 141.471 415.386C141.177 415.962 141.016 416.6 141.001 417.25C140.986 417.9 141.117 418.544 141.385 419.134C141.731 419.924 142.276 420.605 142.965 421.107C143.654 421.61 144.461 421.915 145.303 421.992C146.145 422.044 146.985 421.853 147.727 421.442C148.469 421.031 149.084 420.415 149.503 419.664C149.894 418.904 150.06 418.043 149.981 417.188C149.901 416.332 149.58 415.519 149.056 414.848C148.474 414.069 147.668 413.495 146.752 413.207C145.837 412.919 144.856 412.932 143.947 413.242" fill="#B3BFA6"/>
<g opacity="0.7">
<path d="M144.763 413.686C143.496 413.521 142.435 414.673 141.81 415.786C141.513 416.349 141.35 416.972 141.335 417.606C141.32 418.241 141.453 418.871 141.723 419.446C142.073 420.218 142.624 420.883 143.32 421.373C144.016 421.864 144.831 422.162 145.682 422.236C146.533 422.287 147.382 422.102 148.132 421.7C148.882 421.298 149.504 420.697 149.926 419.964C150.321 419.221 150.489 418.381 150.409 417.546C150.329 416.711 150.004 415.917 149.475 415.261C148.886 414.5 148.073 413.94 147.147 413.659C146.221 413.378 145.23 413.39 144.312 413.694" fill="#F8F5F0"/>
</g>
<path d="M144.967 417C145.053 415.027 144.795 413.054 144.208 411.204C144.035 410.555 143.732 409.964 143.324 409.484C143.116 409.25 142.855 409.092 142.573 409.03C142.291 408.968 141.999 409.003 141.734 409.132C141.501 409.298 141.31 409.535 141.181 409.818C141.052 410.102 140.99 410.421 141.001 410.743C141.054 411.375 141.216 411.987 141.476 412.542C142.251 414.402 143.479 415.944 145 416.969" fill="#F8F5F0"/>
<path d="M144.931 416.969C144.685 416.871 144.453 416.742 144.24 416.587C143.625 416.21 143.048 415.778 142.517 415.296C141.722 414.573 141.071 413.716 140.596 412.767C140.283 412.212 140.084 411.605 140.009 410.978C139.974 410.621 140.043 410.262 140.208 409.941C140.374 409.619 140.629 409.349 140.946 409.16C141.286 409.013 141.665 408.966 142.033 409.024C142.401 409.083 142.744 409.244 143.018 409.488C143.5 409.928 143.865 410.473 144.081 411.078C144.465 412.064 144.731 413.09 144.875 414.134C144.976 414.83 145.016 415.533 144.994 416.236C145.006 416.493 144.979 416.75 144.915 417C144.898 416.044 144.827 415.09 144.7 414.142C144.524 413.132 144.237 412.143 143.843 411.192C143.638 410.634 143.298 410.131 142.851 409.725C142.624 409.518 142.339 409.38 142.031 409.329C141.723 409.277 141.406 409.314 141.12 409.435C140.854 409.594 140.64 409.821 140.5 410.091C140.359 410.361 140.3 410.663 140.327 410.963C140.392 411.552 140.575 412.123 140.866 412.644C141.318 413.57 141.93 414.415 142.676 415.143C143.97 416.366 144.978 416.916 144.931 416.969Z" fill="#232E24"/>
<path d="M147.016 416.964C149.075 416.846 151.083 416.36 152.919 415.537C153.561 415.285 154.122 414.897 154.551 414.41C154.798 414.183 154.952 413.891 154.991 413.58C155.029 413.269 154.949 412.955 154.764 412.687C154.578 412.42 154.297 412.213 153.963 412.099C153.63 411.984 153.263 411.969 152.919 412.055C152.259 412.159 151.633 412.385 151.082 412.719C149.262 413.757 147.84 415.248 147 417" fill="#F8F5F0"/>
<path d="M147 416.995C147.078 416.768 147.183 416.55 147.315 416.343C147.641 415.765 148.028 415.213 148.472 414.697C149.135 413.922 149.957 413.26 150.897 412.743C151.439 412.403 152.056 412.165 152.708 412.042C153.079 411.97 153.465 411.991 153.823 412.101C154.181 412.211 154.495 412.407 154.73 412.666C154.923 412.949 155.016 413.275 154.998 413.604C154.979 413.933 154.849 414.249 154.625 414.515C154.22 414.985 153.69 415.362 153.08 415.615C152.104 416.063 151.07 416.411 150 416.652C149.282 416.816 148.549 416.926 147.809 416.981C147.54 417.006 147.269 417.006 147 416.981C147 416.925 148.164 416.89 149.951 416.448C150.992 416.184 151.998 415.825 152.951 415.377C153.51 415.138 153.995 414.788 154.366 414.354C154.558 414.133 154.67 413.869 154.688 413.593C154.707 413.318 154.631 413.044 154.471 412.806C154.268 412.593 154.002 412.433 153.701 412.343C153.4 412.253 153.076 412.236 152.765 412.294C152.153 412.414 151.574 412.635 151.059 412.946C150.131 413.437 149.31 414.065 148.633 414.802C147.517 416.084 147.065 417.044 147 416.995Z" fill="#232E24"/>
<path d="M145.516 416.117C144.959 416.051 144.485 416.571 144.216 417.064C144.082 417.32 144.009 417.605 144.001 417.895C143.993 418.186 144.05 418.474 144.169 418.738C144.324 419.088 144.567 419.389 144.874 419.61C145.181 419.831 145.541 419.965 145.915 419.997C146.289 420.018 146.66 419.933 146.988 419.751C147.317 419.569 147.588 419.297 147.773 418.965C147.95 418.627 148.026 418.243 147.992 417.862C147.957 417.48 147.813 417.117 147.578 416.818C147.316 416.472 146.956 416.218 146.547 416.091C146.137 415.964 145.699 415.97 145.293 416.108" fill="#B3BFA6"/>
<path d="M143 421C143 421 142.831 420.846 142.624 420.472C142.362 419.961 142.174 419.354 142.075 418.7C141.964 418.041 141.976 417.34 142.109 416.693C142.225 416.197 142.369 415.977 142.388 416.002C142.408 416.026 142.311 416.294 142.239 416.758C142.151 417.368 142.16 418.007 142.263 418.611C142.429 419.47 142.678 420.277 143 421Z" fill="#F8F5F0"/>
<path d="M145 421.696C145 421.917 144.741 422.118 144.418 421.917C144.095 421.716 143.944 421.233 144.019 421.072C144.095 420.911 144.321 421.072 144.558 421.072C144.795 421.072 145 421.474 145 421.696Z" fill="#F8F5F0"/>
<path d="M149.956 418C150.077 418.627 149.947 419.272 149.589 419.821C149.231 420.37 148.668 420.788 148 421C148.482 420.604 148.913 420.161 149.287 419.68C149.576 419.143 149.8 418.58 149.956 418Z" fill="#F8F5F0"/>
<path d="M147.927 414.995C147.739 415.019 147.552 414.954 147.4 414.813C147.311 414.769 147.23 414.704 147.161 414.62C147.093 414.537 147.038 414.437 147 414.326C147 414.103 147.32 413.84 147.703 414.124C148.087 414.407 148.023 414.935 147.927 414.995Z" fill="#F8F5F0"/>
<path d="M144.927 419C144.927 419 144.678 419 144.441 418.814C144.14 418.587 143.983 418.293 144.001 417.993C144.007 417.691 144.185 417.401 144.5 417.18C144.749 417.018 144.963 416.979 144.998 417.01C145.034 417.041 144.488 417.428 144.464 418.001C144.441 418.574 145.01 418.946 144.927 419Z" fill="#F8F5F0"/>
<path d="M145.99 419.636C145.955 419.766 145.877 419.874 145.771 419.939C145.666 420.003 145.542 420.017 145.427 419.979C145.362 419.978 145.298 419.961 145.24 419.928C145.182 419.895 145.131 419.848 145.092 419.79C145.052 419.733 145.024 419.665 145.01 419.594C144.996 419.522 144.997 419.448 145.012 419.377C145.027 419.305 145.056 419.239 145.096 419.182C145.137 419.125 145.189 419.079 145.247 419.047C145.306 419.016 145.37 419 145.435 419C145.5 419 145.564 419.017 145.622 419.049C145.682 419.058 145.739 419.08 145.79 419.115C145.841 419.15 145.886 419.196 145.92 419.251C145.955 419.307 145.979 419.369 145.991 419.436C146.003 419.502 146.003 419.57 145.99 419.636Z" fill="#F8F5F0"/>
<path d="M264.972 374.936C263.748 375.251 263.195 376.754 263.023 378.046C262.957 378.697 263.034 379.355 263.248 379.971C263.463 380.587 263.81 381.144 264.262 381.601C264.863 382.209 265.609 382.641 266.424 382.853C267.239 383.064 268.093 383.048 268.899 382.804C269.699 382.541 270.411 382.049 270.954 381.387C271.497 380.724 271.849 379.916 271.97 379.056C272.069 378.191 271.92 377.316 271.542 376.538C271.164 375.761 270.572 375.117 269.842 374.686C269.029 374.175 268.082 373.939 267.133 374.013C266.184 374.087 265.282 374.466 264.551 375.098" fill="#B3BFA6"/>
<g opacity="0.7">
<path d="M265.195 375.244C263.951 375.55 263.389 377.008 263.215 378.262C263.147 378.893 263.225 379.532 263.444 380.129C263.662 380.727 264.014 381.267 264.474 381.71C265.084 382.3 265.842 382.72 266.67 382.925C267.498 383.13 268.366 383.114 269.185 382.878C269.998 382.622 270.721 382.146 271.273 381.503C271.824 380.859 272.182 380.076 272.305 379.241C272.406 378.402 272.255 377.553 271.87 376.799C271.486 376.044 270.885 375.419 270.144 375.001C269.317 374.505 268.355 374.277 267.391 374.349C266.427 374.42 265.51 374.788 264.767 375.401" fill="#F8F5F0"/>
</g>
<path d="M267 378C266.363 376.275 265.344 374.687 264.005 373.332C263.567 372.833 263.003 372.438 262.36 372.181C262.055 372.027 261.702 371.969 261.357 372.015C261.011 372.062 260.692 372.21 260.449 372.436C260.206 372.663 260.052 372.956 260.011 373.27C259.97 373.584 260.044 373.901 260.223 374.173C260.496 374.709 260.895 375.185 261.391 375.569C262.941 376.851 264.877 377.687 266.952 377.971" fill="#F8F5F0"/>
<path d="M267 377.983C266.734 377.972 266.471 377.93 266.213 377.859C265.503 377.71 264.808 377.49 264.137 377.203C263.136 376.771 262.217 376.152 261.424 375.375C260.924 374.935 260.512 374.393 260.213 373.781C260.047 373.434 259.975 373.045 260.007 372.657C260.039 372.27 260.173 371.899 260.394 371.588C260.655 371.312 260.987 371.122 261.349 371.042C261.711 370.962 262.087 370.996 262.431 371.139C263.041 371.393 263.582 371.804 264.004 372.335C264.729 373.175 265.359 374.1 265.883 375.093C266.238 375.758 266.54 376.452 266.788 377.169C266.889 377.437 266.96 377.715 267 378C266.945 378 266.615 376.87 265.694 375.226C265.15 374.269 264.513 373.375 263.791 372.56C263.396 372.075 262.898 371.696 262.337 371.455C262.049 371.338 261.735 371.31 261.433 371.375C261.131 371.44 260.852 371.594 260.63 371.821C260.448 372.085 260.339 372.397 260.316 372.722C260.292 373.048 260.355 373.374 260.496 373.664C260.774 374.239 261.156 374.75 261.621 375.168C262.382 375.933 263.263 376.554 264.224 377.003C265.883 377.743 267.016 377.909 267 377.983Z" fill="#232E24"/>
<path d="M268 377.991C269.858 377.078 271.515 375.77 272.868 374.15C273.362 373.622 273.727 372.977 273.931 372.268C274.027 371.912 274.023 371.533 273.918 371.179C273.812 370.825 273.611 370.511 273.339 370.275C273.053 370.095 272.726 370 272.393 370C272.06 370 271.734 370.095 271.448 370.275C270.88 370.643 270.393 371.134 270.02 371.715C268.768 373.553 268.065 375.741 268 378" fill="#F8F5F0"/>
<path d="M268.019 377.992C267.994 377.714 267.994 377.434 268.019 377.157C268.081 376.392 268.208 375.634 268.399 374.894C268.686 373.785 269.163 372.741 269.807 371.813C270.164 371.235 270.626 370.738 271.167 370.351C271.477 370.134 271.838 370.013 272.21 370.001C272.582 369.989 272.95 370.087 273.271 370.285C273.564 370.527 273.784 370.855 273.902 371.227C274.02 371.6 274.032 372.001 273.936 372.38C273.761 373.053 273.432 373.669 272.979 374.176C272.274 375.04 271.478 375.816 270.606 376.489C270.02 376.94 269.398 377.337 268.747 377.674C268.513 377.815 268.263 377.924 268.003 378C268.852 377.488 269.676 376.931 270.471 376.33C271.312 375.647 272.08 374.872 272.765 374.017C273.179 373.542 273.48 372.969 273.643 372.347C273.725 372.031 273.717 371.695 273.62 371.384C273.523 371.072 273.341 370.797 273.097 370.594C272.825 370.434 272.517 370.356 272.206 370.368C271.896 370.38 271.594 370.481 271.333 370.66C270.828 371.03 270.391 371.494 270.044 372.03C269.411 372.923 268.929 373.926 268.62 374.994C268.122 376.789 268.09 378 268.019 377.992Z" fill="#232E24"/>
<path d="M266.875 377.382C266.333 377.526 266.094 378.199 266.011 378.776C265.98 379.069 266.014 379.365 266.109 379.642C266.205 379.919 266.36 380.169 266.563 380.373C266.829 380.646 267.16 380.84 267.522 380.934C267.884 381.029 268.263 381.021 268.621 380.912C268.975 380.791 269.291 380.57 269.532 380.272C269.774 379.975 269.932 379.614 269.99 379.229C270.027 378.85 269.96 378.468 269.797 378.127C269.635 377.787 269.383 377.501 269.071 377.305C268.709 377.076 268.287 376.972 267.866 377.006C267.444 377.041 267.043 377.212 266.719 377.497" fill="#B3BFA6"/>
<path d="M266 382C265.807 381.98 265.621 381.894 265.458 381.75C265.06 381.454 264.717 381.033 264.455 380.52C264.175 380.015 264.015 379.398 264 378.759C264 378.266 264.098 378 264.125 378C264.152 378 264.125 378.296 264.152 378.759C264.211 379.34 264.373 379.89 264.623 380.361C265.018 381.005 265.482 381.559 266 382Z" fill="#F8F5F0"/>
<path d="M268 382.239C268 382.492 267.845 382.974 267.513 382.999C267.181 383.024 266.964 382.619 267.005 382.365C267.047 382.112 267.254 382.036 267.503 382.011C267.751 381.985 267.959 381.985 268 382.239Z" fill="#F8F5F0"/>
<path d="M271.598 377C271.943 377.638 272.071 378.387 271.962 379.117C271.853 379.848 271.513 380.514 271 381C271.275 380.378 271.492 379.727 271.646 379.057C271.698 378.372 271.681 377.682 271.598 377Z" fill="#F8F5F0"/>
<path d="M266.999 379.973C266.999 380.013 266.845 380.021 266.646 379.907C266.381 379.763 266.178 379.515 266.079 379.216C265.974 378.92 265.974 378.593 266.079 378.297C266.171 378.077 266.286 377.979 266.317 378.004C266.347 378.028 266.163 378.541 266.317 379.102C266.47 379.663 267.029 379.891 266.999 379.973Z" fill="#F8F5F0"/>
<path d="M123.377 512.552C123.378 512.579 123.369 512.606 123.352 512.628C123.334 512.649 123.309 512.663 123.281 512.667C123.268 512.67 123.254 512.67 123.24 512.667C123.227 512.664 123.214 512.659 123.202 512.651C123.191 512.643 123.181 512.632 123.174 512.621C123.167 512.609 123.163 512.595 123.161 512.582C123.158 512.554 123.166 512.527 123.183 512.506C123.199 512.484 123.224 512.47 123.251 512.466C123.279 512.462 123.308 512.468 123.331 512.484C123.354 512.5 123.371 512.524 123.377 512.552Z" fill="#F8F5F0"/>
<path d="M278.651 322.473C278.651 322.473 278.271 322.343 277.561 322.187C276.562 321.971 275.533 321.93 274.52 322.067C273.012 322.265 271.589 322.873 270.409 323.823C268.96 324.986 267.938 326.588 267.5 328.383V328.433L267.414 328.76L267.287 328.454C266.584 326.751 265.372 325.302 263.815 324.3C262.545 323.482 261.084 323 259.572 322.9C258.55 322.826 257.522 322.919 256.531 323.176C255.831 323.356 255.461 323.517 255.451 323.497C255.536 323.449 255.624 323.407 255.715 323.371C255.973 323.264 256.237 323.17 256.505 323.09C257.492 322.805 258.52 322.688 259.547 322.744C261.112 322.816 262.631 323.294 263.952 324.129C265.543 325.151 266.781 326.63 267.5 328.368H267.287V328.313C267.735 326.473 268.787 324.833 270.277 323.647C271.488 322.681 272.95 322.074 274.495 321.896C275.528 321.769 276.576 321.832 277.587 322.082C277.859 322.149 278.126 322.233 278.387 322.333C278.482 322.367 278.571 322.414 278.651 322.473Z" fill="#EBEBEB"/>
</g>
</g>
<defs>
<radialGradient id="paint0_radial_733_1248" cx="0" cy="0" r="1" gradientUnits="userSpaceOnUse" gradientTransform="translate(195.821 399.078) rotate(23.645) scale(181.681 186.088)">
<stop stop-color="#EDAE46"/>
<stop offset="1" stop-color="#F8F5F0" stop-opacity="0"/>
<stop offset="1" stop-color="white" stop-opacity="0"/>
</radialGradient>
<clipPath id="clip0_733_1248">
<rect width="375" height="702" fill="white"/>
</clipPath>
<clipPath id="clip1_733_1248">
<rect width="375" height="812" fill="white" transform="translate(-1)"/>
</clipPath>
</defs>
</svg>
