<svg width="0" height="0" class="hidden">
  <symbol xmlns="http://www.w3.org/2000/svg" viewBox="0 0 18 18" id="phone">
    <path d="M14.2257 11.1504C13.8572 10.7667 13.4127 10.5615 12.9416 10.5615C12.4743 10.5615 12.026 10.7629 11.6423 11.1466L10.4418 12.3432C10.3431 12.2901 10.2443 12.2407 10.1493 12.1913C10.0126 12.1229 9.88339 12.0583 9.77322 11.9899C8.64871 11.2757 7.62677 10.345 6.64662 9.14067C6.17174 8.54042 5.85262 8.03515 5.62088 7.52229C5.9324 7.23736 6.22113 6.94104 6.50226 6.65611C6.60863 6.54974 6.715 6.43956 6.82137 6.33319C7.61917 5.5354 7.61917 4.50206 6.82137 3.70427L5.78424 2.66714C5.66647 2.54937 5.5449 2.4278 5.43093 2.30623C5.20299 2.07069 4.96365 1.82755 4.71672 1.59961C4.34821 1.2349 3.90752 1.04115 3.44404 1.04115C2.98056 1.04115 2.53228 1.2349 2.15237 1.59961C2.14858 1.60341 2.14858 1.60341 2.14478 1.60721L0.853109 2.91027C0.366834 3.39655 0.089505 3.98919 0.0287206 4.67682C-0.0624559 5.78613 0.26426 6.81947 0.514996 7.49569C1.13044 9.15587 2.0498 10.6945 3.42125 12.3432C5.08522 14.3301 7.08731 15.8991 9.37432 17.0046C10.2481 17.4187 11.4144 17.9088 12.7175 17.9924C12.7972 17.9962 12.8808 18 12.9568 18C13.8344 18 14.5714 17.6847 15.1488 17.0578C15.1526 17.0502 15.1602 17.0464 15.164 17.0388C15.3616 16.7995 15.5895 16.583 15.8289 16.3512C15.9922 16.1955 16.1594 16.0321 16.3227 15.8611C16.6988 15.4698 16.8964 15.014 16.8964 14.5467C16.8964 14.0756 16.695 13.6235 16.3113 13.2436L14.2257 11.1504ZM15.5857 15.1507C15.5819 15.1545 15.5819 15.1507 15.5857 15.1507C15.4376 15.3103 15.2856 15.4546 15.1222 15.6142C14.8753 15.8497 14.6246 16.0967 14.389 16.374C14.0053 16.7843 13.5532 16.9781 12.9606 16.9781C12.9036 16.9781 12.8428 16.9781 12.7858 16.9743C11.6575 16.9021 10.609 16.4614 9.8226 16.0853C7.67236 15.0444 5.78424 13.5665 4.21524 11.6936C2.91978 10.1322 2.0536 8.68859 1.47995 7.13859C1.12664 6.19263 0.997472 5.45562 1.05446 4.7604C1.09245 4.31591 1.2634 3.94741 1.57872 3.63209L2.87419 2.33662C3.06034 2.16186 3.25789 2.06689 3.45164 2.06689C3.69098 2.06689 3.88473 2.21125 4.0063 2.33282C4.0101 2.33662 4.0139 2.34042 4.0177 2.34422C4.24944 2.56076 4.46978 2.7849 4.70152 3.02424C4.81929 3.14581 4.94086 3.26738 5.06243 3.39275L6.09956 4.42988C6.50226 4.83258 6.50226 5.20488 6.09956 5.60758C5.98939 5.71775 5.88302 5.82792 5.77284 5.93429C5.45373 6.26101 5.1498 6.56493 4.81929 6.86126C4.81169 6.86885 4.80409 6.87265 4.80029 6.88025C4.47358 7.20697 4.53436 7.52609 4.60275 7.74263C4.60654 7.75403 4.61034 7.76542 4.61414 7.77682C4.88387 8.43025 5.26377 9.04569 5.84123 9.77891L5.84503 9.78271C6.89356 11.0744 7.99907 12.0811 9.21856 12.8523C9.37432 12.9511 9.53388 13.0309 9.68584 13.1069C9.8226 13.1752 9.95177 13.2398 10.0619 13.3082C10.0771 13.3158 10.0923 13.3272 10.1075 13.3348C10.2367 13.3994 10.3583 13.4298 10.4836 13.4298C10.799 13.4298 10.9965 13.2322 11.0611 13.1676L12.3604 11.8684C12.4895 11.7392 12.6947 11.5834 12.934 11.5834C13.1695 11.5834 13.3633 11.7316 13.4811 11.8608C13.4849 11.8646 13.4849 11.8646 13.4887 11.8684L15.5819 13.9616C15.9732 14.3491 15.9732 14.748 15.5857 15.1507Z"></path>
    <path d="M9.72763 4.28172C10.723 4.44888 11.6271 4.91995 12.349 5.64177C13.0708 6.36358 13.538 7.26775 13.709 8.2631C13.7508 8.51383 13.9673 8.68859 14.2143 8.68859C14.2447 8.68859 14.2713 8.68479 14.3016 8.68099C14.5828 8.6354 14.7689 8.36947 14.7233 8.08834C14.5182 6.88405 13.9483 5.78613 13.0784 4.91616C12.2084 4.04618 11.1105 3.47633 9.90618 3.27118C9.62505 3.22559 9.36292 3.41174 9.31353 3.68907C9.26414 3.9664 9.4465 4.23613 9.72763 4.28172Z"></path>
    <path d="M17.9791 7.94018C17.641 5.95709 16.7064 4.15255 15.2704 2.71652C13.8344 1.28049 12.0298 0.345932 10.0467 0.00781895C9.76942 -0.0415683 9.50728 0.148383 9.4579 0.425712C9.41231 0.706839 9.59846 0.968972 9.87959 1.01836C11.6499 1.31848 13.2645 2.15807 14.5486 3.43834C15.8327 4.72241 16.6684 6.33699 16.9686 8.10734C17.0104 8.35807 17.2269 8.53283 17.4738 8.53283C17.5042 8.53283 17.5308 8.52903 17.5612 8.52523C17.8385 8.48344 18.0285 8.21751 17.9791 7.94018Z"></path>
  </symbol>
  <symbol xmlns="http://www.w3.org/2000/svg" viewBox="0 0 20 20" id="close">
    <path fill-rule="evenodd" clip-rule="evenodd" d="M18.6903 1.30967C18.9832 1.60256 18.9832 2.07743 18.6903 2.37033L2.37033 18.6903C2.07744 18.9832 1.60256 18.9832 1.30967 18.6903C1.01678 18.3974 1.01678 17.9226 1.30967 17.6297L17.6297 1.30967C17.9226 1.01677 18.3974 1.01677 18.6903 1.30967Z"></path>
    <path fill-rule="evenodd" clip-rule="evenodd" d="M1.30967 1.30967C1.60256 1.01677 2.07744 1.01677 2.37033 1.30967L18.6903 17.6297C18.9832 17.9226 18.9832 18.3974 18.6903 18.6903C18.3974 18.9832 17.9226 18.9832 17.6297 18.6903L1.30967 2.37033C1.01678 2.07743 1.01678 1.60256 1.30967 1.30967Z"></path>
  </symbol>
  <symbol xmlns="http://www.w3.org/2000/svg" viewBox="0 0 44 44" id="arrow-type-1">
    <path fill-rule="evenodd" clip-rule="evenodd" d="M32.6066 32.7647L23.0607 42.3107C22.4749 42.8964 21.5251 42.8964 20.9393 42.3107L11.3934 32.7647C10.8076 32.1789 10.8076 31.2292 11.3934 30.6434C11.9792 30.0576 12.9289 30.0576 13.5147 30.6434L20.5 37.6287L20.5 1.25L23.5 1.25L23.5 37.6287L30.4853 30.6434C31.0711 30.0576 32.0208 30.0576 32.6066 30.6434C33.1924 31.2292 33.1924 32.1789 32.6066 32.7647Z"></path>
  </symbol>
  <symbol xmlns="http://www.w3.org/2000/svg" viewBox="0 0 62 62" id="scroll-mouse">
    <path d="M30.8843 61.3191C30.6132 61.3191 30.3533 61.2114 30.1616 61.0197C29.97 60.8281 29.8623 60.5681 29.8623 60.2971V46.4663C29.8623 46.1953 29.97 45.9353 30.1616 45.7437C30.3533 45.552 30.6132 45.4443 30.8843 45.4443C31.1553 45.4443 31.4153 45.552 31.6069 45.7437C31.7986 45.9353 31.9063 46.1953 31.9063 46.4663V60.2698C31.9099 60.4063 31.8862 60.5421 31.8364 60.6693C31.7867 60.7965 31.712 60.9124 31.6167 61.0102C31.5215 61.108 31.4076 61.1857 31.2818 61.2387C31.156 61.2918 31.0208 61.3191 30.8843 61.3191Z"></path>
    <path d="M30.884 61.3191C30.6327 61.3195 30.3902 61.2273 30.2026 61.0602L24.0708 55.6914C23.9701 55.6019 23.8881 55.4935 23.8293 55.3723C23.7706 55.2512 23.7362 55.1196 23.7283 54.9852C23.7204 54.8507 23.7391 54.716 23.7832 54.5888C23.8274 54.4616 23.8961 54.3443 23.9856 54.2436C24.0751 54.143 24.1835 54.0609 24.3047 54.0022C24.4259 53.9434 24.5574 53.9091 24.6919 53.9012C24.8263 53.8933 24.961 53.9119 25.0882 53.9561C25.2155 54.0002 25.3327 54.069 25.4334 54.1585L31.5653 59.5272C31.6668 59.6146 31.7501 59.7213 31.8102 59.841C31.8704 59.9607 31.9062 60.0911 31.9157 60.2248C31.9252 60.3584 31.9082 60.4926 31.8656 60.6196C31.823 60.7466 31.7556 60.864 31.6675 60.9648C31.5699 61.0766 31.4494 61.166 31.3142 61.2271C31.179 61.2883 31.0323 61.3196 30.884 61.3191Z"></path>
    <path d="M30.8843 61.3191C30.6755 61.321 30.4711 61.2589 30.2986 61.1411C30.1262 61.0233 29.994 60.8556 29.9197 60.6604C29.8455 60.4652 29.8329 60.252 29.8835 60.0494C29.9342 59.8468 30.0456 59.6646 30.203 59.5272L36.3348 54.1585C36.4355 54.069 36.5528 54.0002 36.68 53.9561C36.8072 53.9119 36.9419 53.8933 37.0764 53.9012C37.2108 53.9091 37.3424 53.9434 37.4636 54.0022C37.5847 54.0609 37.6932 54.143 37.7826 54.2436C37.8721 54.3443 37.9409 54.4616 37.985 54.5888C38.0292 54.716 38.0478 54.8507 38.0399 54.9852C38.032 55.1196 37.9977 55.2512 37.9389 55.3723C37.8802 55.4935 37.7981 55.6019 37.6975 55.6914L31.5656 61.0602C31.3791 61.229 31.1358 61.3214 30.8843 61.3191Z"></path>
    <path d="M34.6519 41.3769H27.1097C24.3805 41.3733 21.7641 40.2875 19.8342 38.3576C17.9043 36.4278 16.8186 33.8114 16.815 31.0822V11.3239C16.8123 9.96963 17.0765 8.62809 17.5925 7.37595C18.1085 6.12381 18.8661 4.98562 19.8222 4.02641C20.7782 3.06721 21.9139 2.30579 23.1643 1.78567C24.4147 1.26554 25.7554 0.996914 27.1097 0.995126H34.6519C36.0053 0.993336 37.3458 1.25825 38.5967 1.77472C39.8477 2.29119 40.9846 3.0491 41.9426 4.00515C42.9005 4.96119 43.6607 6.09662 44.1796 7.34657C44.6986 8.59651 44.9662 9.93646 44.9671 11.2899V31.0822C44.9662 32.4356 44.6986 33.7755 44.1796 35.0254C43.6607 36.2754 42.9005 37.4108 41.9426 38.3669C40.9846 39.3229 39.8477 40.0808 38.5967 40.5973C37.3458 41.1138 36.0053 41.3787 34.6519 41.3769ZM27.1097 3.03908C24.922 3.04089 22.8244 3.91074 21.2775 5.45767C19.7306 7.0046 18.8607 9.10216 18.8589 11.2899V31.0822C18.8625 33.2693 19.733 35.3658 21.2795 36.9124C22.826 38.4589 24.9226 39.3293 27.1097 39.3329H34.6519C35.7369 39.3347 36.8116 39.1227 37.8145 38.7089C38.8175 38.2952 39.7291 37.6878 40.4973 36.9216C41.2654 36.1553 41.875 35.2452 42.2913 34.2433C42.7075 33.2413 42.9222 32.1671 42.9231 31.0822V11.3239C42.9267 10.2361 42.7153 9.15825 42.3011 8.15235C41.8868 7.14646 41.2779 6.23233 40.5094 5.46247C39.7408 4.69261 38.8276 4.08221 37.8224 3.66633C36.8172 3.25045 35.7397 3.03728 34.6519 3.03908H27.1097Z"></path>
    <path d="M30.8842 17.9664C30.6131 17.9664 30.3532 17.8587 30.1615 17.667C29.9699 17.4754 29.8622 17.2154 29.8622 16.9444V11.8141C29.8622 11.543 29.9699 11.2831 30.1615 11.0914C30.3532 10.8998 30.6131 10.7921 30.8842 10.7921C31.1552 10.7921 31.4152 10.8998 31.6068 11.0914C31.7985 11.2831 31.9062 11.543 31.9062 11.8141V16.9444C31.9062 17.2154 31.7985 17.4754 31.6068 17.667C31.4152 17.8587 31.1552 17.9664 30.8842 17.9664Z"></path>
  </symbol>
  <symbol xmlns="http://www.w3.org/2000/svg" viewBox="0 0 20 20" id="sc-twitter">
    <path fill-rule="evenodd" clip-rule="evenodd" d="M18.979 4.36286C18.9532 4.33216 18.9106 4.32174 18.8743 4.33848C18.3361 4.57947 17.77 4.75273 17.1869 4.85508C17.8059 4.38501 18.2672 3.73405 18.5037 2.98763C18.5151 2.9519 18.5033 2.91282 18.4744 2.88956C18.4453 2.8663 18.4049 2.86332 18.373 2.88249C17.6758 3.2999 16.9206 3.59411 16.1276 3.75731C15.4248 3.02113 14.4435 2.6 13.4278 2.6C11.3623 2.6 9.68211 4.29605 9.68211 6.38086C9.68211 6.63301 9.70626 6.88275 9.75419 7.12523C6.89336 6.94695 4.21836 5.56056 2.3995 3.30864C2.38088 3.28557 2.35268 3.27273 2.32318 3.27571C2.29387 3.27794 2.26769 3.29469 2.25294 3.32018C1.9211 3.89484 1.74578 4.55231 1.74578 5.22112C1.74578 6.3803 2.2675 7.46411 3.15591 8.17926C2.69853 8.12381 2.25183 7.97847 1.84902 7.75274C1.82192 7.73729 1.78818 7.73748 1.76108 7.7533C1.73398 7.76893 1.71683 7.79796 1.7161 7.82959L1.71573 7.87798C1.71573 9.54277 2.8025 11.0045 4.3487 11.4899C3.94145 11.5561 3.51891 11.5516 3.10356 11.4716C3.07295 11.4659 3.04088 11.4765 3.01986 11.5003C2.99903 11.5241 2.99202 11.5574 3.00161 11.5876C3.46526 13.0484 4.75354 14.0728 6.25309 14.2005C5.00224 15.1256 3.5237 15.6129 1.96147 15.6129C1.67369 15.6129 1.38389 15.5956 1.09998 15.562C1.05942 15.5573 1.01923 15.5817 1.00522 15.6209C0.991209 15.6606 1.00614 15.7049 1.04117 15.7274C2.73171 16.8218 4.68643 17.4 6.69425 17.4C13.2619 17.4 17.1865 12.0148 17.1865 6.80869C17.1865 6.66372 17.1837 6.5195 17.178 6.37565C17.8865 5.85254 18.4947 5.21219 18.9851 4.47098C19.007 4.43786 19.0046 4.39375 18.979 4.36286Z"></path>
  </symbol>
  <symbol xmlns="http://www.w3.org/2000/svg" viewBox="0 0 20 20" id="sc-instagram">
    <path fill-rule="evenodd" clip-rule="evenodd" d="M10 1.5C12.3085 1.5 12.5979 1.50978 13.5045 1.55115C14.4093 1.59242 15.0272 1.73612 15.5678 1.94626C16.1268 2.16345 16.6008 2.45409 17.0734 2.92663C17.5459 3.3992 17.8366 3.87323 18.0538 4.43218C18.2639 4.97284 18.4076 5.59073 18.4488 6.49546C18.4902 7.40208 18.5 7.69154 18.5 10C18.5 12.3085 18.4902 12.5979 18.4488 13.5045C18.4076 14.4093 18.2639 15.0272 18.0538 15.5678C17.8366 16.1268 17.5459 16.6008 17.0734 17.0734C16.6008 17.5459 16.1268 17.8366 15.5678 18.0538C15.0272 18.2639 14.4093 18.4076 13.5045 18.4488C12.5979 18.4902 12.3085 18.5 10 18.5C7.69154 18.5 7.40208 18.4902 6.49546 18.4488C5.59073 18.4076 4.97284 18.2639 4.43218 18.0538C3.87323 17.8366 3.3992 17.5459 2.92663 17.0734C2.45409 16.6008 2.16345 16.1268 1.94626 15.5678C1.73612 15.0272 1.59242 14.4093 1.55115 13.5045C1.50978 12.5979 1.5 12.3085 1.5 10C1.5 7.69154 1.50978 7.40208 1.55115 6.49546C1.59242 5.59073 1.73612 4.97284 1.94626 4.43218C2.16345 3.87323 2.45409 3.3992 2.92663 2.92663C3.3992 2.45409 3.87323 2.16345 4.43218 1.94626C4.97284 1.73612 5.59073 1.59242 6.49546 1.55115C7.40208 1.50978 7.69154 1.5 10 1.5ZM9.99734 12.8298C11.5616 12.8298 12.8298 11.5616 12.8298 9.99734C12.8298 8.433 11.5616 7.16488 9.99734 7.16488C8.433 7.16488 7.16488 8.433 7.16488 9.99734C7.16488 11.5616 8.433 12.8298 9.99734 12.8298ZM9.99734 5.63383C12.4072 5.63383 14.3608 7.58742 14.3608 9.99734C14.3608 12.4072 12.4072 14.3608 9.99734 14.3608C7.58742 14.3608 5.63383 12.4072 5.63383 9.99734C5.63383 7.58742 7.58742 5.63383 9.99734 5.63383ZM15.8556 5.37224C15.8556 5.94601 15.3904 6.41111 14.8166 6.41111C14.2429 6.41111 13.7778 5.94601 13.7778 5.37224C13.7778 4.79847 14.2429 4.33333 14.8166 4.33333C15.3904 4.33333 15.8556 4.79847 15.8556 5.37224Z"></path>
  </symbol>
  <symbol xmlns="http://www.w3.org/2000/svg" viewBox="0 0 20 20" id="sc-facebook">
    <path fill-rule="evenodd" clip-rule="evenodd" d="M14.6234 1.00375L12.2249 1C9.5302 1 7.78878 2.73871 7.78878 5.42982V7.47227H5.37715C5.16875 7.47227 5 7.63668 5 7.83949V10.7988C5 11.0016 5.16895 11.1658 5.37715 11.1658H7.78878V18.633C7.78878 18.8358 7.95753 19 8.16593 19H11.3124C11.5208 19 11.6896 18.8356 11.6896 18.633V11.1658H14.5093C14.7177 11.1658 14.8865 11.0016 14.8865 10.7988L14.8876 7.83949C14.8876 7.74211 14.8478 7.64886 14.7772 7.57994C14.7066 7.51103 14.6103 7.47227 14.5103 7.47227H11.6896V5.74086C11.6896 4.90868 11.8933 4.48622 13.0073 4.48622L14.623 4.48566C14.8312 4.48566 15 4.32124 15 4.11863V1.37077C15 1.16835 14.8314 1.00412 14.6234 1.00375Z"></path>
  </symbol>
  <symbol xmlns="http://www.w3.org/2000/svg" viewBox="0 0 28 28" id="arrow-type-2">
    <path fill-rule="evenodd" clip-rule="evenodd" d="M4.14129 9.82296C4.483 9.48125 5.03702 9.48125 5.37873 9.82296L12.9854 17.4296C13.542 17.9863 14.458 17.9863 15.0146 17.4296L22.6213 9.82296C22.963 9.48125 23.517 9.48125 23.8587 9.82296C24.2004 10.1647 24.2004 10.7187 23.8587 11.0604L16.2521 18.6671C15.012 19.9071 12.988 19.9071 11.748 18.6671L4.14129 11.0604C3.79958 10.7187 3.79958 10.1647 4.14129 9.82296Z" fill="#3C4E3E"></path>
  </symbol>
  <symbol xmlns="http://www.w3.org/2000/svg" viewBox="0 0 28 28" id="edit">
    <path fill-rule="evenodd" clip-rule="evenodd" d="M18.1036 1.67686C19.4648 1.5028 20.8419 2.05943 22.2412 3.37608L22.2429 3.3776C23.6469 4.70537 24.286 6.05228 24.1901 7.42414C24.0975 8.74977 23.329 9.87176 22.4527 10.7976M22.4527 10.7976L12.8791 20.9309C12.6092 21.2248 12.2458 21.4737 11.9013 21.6579C11.5523 21.8445 11.1487 22.0041 10.7698 22.0715L10.764 22.0725L7.00864 22.7139C6.09798 22.871 5.22473 22.6434 4.60266 22.0534C3.98146 21.4643 3.70696 20.6053 3.80865 19.69L3.80895 19.6874L4.24249 15.891C4.29284 15.5134 4.43309 15.1047 4.59842 14.7502C4.76315 14.3969 4.98791 14.0224 5.25389 13.7392L5.2556 13.7374L14.8339 3.5991C15.7107 2.67291 16.7882 1.84506 18.1036 1.67686M16.1054 4.80154C16.1053 4.8017 16.1055 4.80139 16.1054 4.80154L6.52938 14.9374C6.52918 14.9376 6.52958 14.9372 6.52938 14.9374C6.43374 15.0395 6.30237 15.2369 6.18443 15.4898C6.06863 15.7381 5.99907 15.9679 5.97822 16.1155L5.54795 19.8833C5.54791 19.8837 5.54786 19.8841 5.54782 19.8845C5.49822 20.3336 5.63779 20.6233 5.80686 20.7836C5.97521 20.9433 6.26863 21.0657 6.7113 20.9894L6.71265 20.9892L10.4659 20.3481C10.6121 20.3217 10.8373 20.2423 11.0762 20.1146C11.3183 19.9851 11.5005 19.8455 11.5917 19.7455L11.6022 19.734L21.1806 9.59577C21.9607 8.7717 22.3942 8.02077 22.4444 7.30211C22.4914 6.62958 22.2149 5.76011 21.0414 4.64998C19.8744 3.55215 18.9942 3.32722 18.3255 3.41273C17.611 3.50409 16.8851 3.97802 16.1054 4.80154Z"></path>
    <path fill-rule="evenodd" clip-rule="evenodd" d="M13.7369 5.0271C14.2144 4.9527 14.6618 5.27948 14.7362 5.75697C15.1762 8.58102 17.4681 10.7424 20.3177 11.0294C20.7985 11.0778 21.149 11.5069 21.1006 11.9877C21.0521 12.4685 20.6231 12.819 20.1423 12.7706C16.5052 12.4043 13.5704 9.64231 13.0071 6.02636C12.9327 5.54887 13.2595 5.10149 13.7369 5.0271Z"></path>
    <path fill-rule="evenodd" clip-rule="evenodd" d="M2.625 25.6667C2.625 25.1834 3.01675 24.7917 3.5 24.7917H24.5C24.9832 24.7917 25.375 25.1834 25.375 25.6667C25.375 26.1499 24.9832 26.5417 24.5 26.5417H3.5C3.01675 26.5417 2.625 26.1499 2.625 25.6667Z"></path>
  </symbol>
  <symbol xmlns="http://www.w3.org/2000/svg" viewBox="0 0 28 28" id="profile">
    <path d="M23.8995 18.1005C22.3747 16.5757 20.5597 15.4469 18.5795 14.7635C20.7004 13.3028 22.0938 10.8581 22.0938 8.09375C22.0938 3.63087 18.4629 0 14 0C9.5371 0 5.90625 3.63087 5.90625 8.09375C5.90625 10.8581 7.29963 13.3028 9.42058 14.7635C7.44034 15.4469 5.62538 16.5757 4.10052 18.1005C1.45627 20.7448 0 24.2605 0 28H2.1875C2.1875 21.4866 7.48656 16.1875 14 16.1875C20.5134 16.1875 25.8125 21.4866 25.8125 28H28C28 24.2605 26.5437 20.7448 23.8995 18.1005ZM14 14C10.7433 14 8.09375 11.3505 8.09375 8.09375C8.09375 4.837 10.7433 2.1875 14 2.1875C17.2567 2.1875 19.9062 4.837 19.9062 8.09375C19.9062 11.3505 17.2567 14 14 14Z"></path>
  </symbol>
  <symbol xmlns="http://www.w3.org/2000/svg" viewBox="0 0 18 18" id="user">
    <path d="M15.364 2.63603C13.6641 0.936172 11.4039 0 9 0C6.59605 0 4.33589 0.936172 2.63603 2.63603C0.936172 4.33589 0 6.59605 0 9C0 11.4039 0.936172 13.6641 2.63603 15.364C4.33589 17.0638 6.59605 18 9 18C11.4039 18 13.6641 17.0638 15.364 15.364C17.0638 13.6641 18 11.4039 18 9C18 6.59605 17.0638 4.33589 15.364 2.63603ZM3.90605 15.0925C4.20323 12.5354 6.40173 10.5612 9 10.5612C10.3697 10.5612 11.6577 11.0948 12.6266 12.0635C13.4451 12.8822 13.9613 13.951 14.0941 15.0923C12.7139 16.2482 10.9369 16.9453 9 16.9453C7.06311 16.9453 5.28621 16.2484 3.90605 15.0925ZM9 9.47488C7.49281 9.47488 6.26646 8.24854 6.26646 6.74135C6.26646 5.23402 7.49281 4.00781 9 4.00781C10.5072 4.00781 11.7335 5.23402 11.7335 6.74135C11.7335 8.24854 10.5072 9.47488 9 9.47488ZM15.0018 14.2008C14.7331 13.1173 14.1726 12.1182 13.3723 11.3178C12.7241 10.6696 11.9572 10.1834 11.1209 9.87863C12.1263 9.19679 12.7882 8.04488 12.7882 6.74135C12.7882 4.65257 11.0888 2.95312 9 2.95312C6.91122 2.95312 5.21178 4.65257 5.21178 6.74135C5.21178 8.04556 5.87425 9.19789 6.88046 9.87959C6.11101 10.16 5.39896 10.5936 4.78633 11.1643C3.89919 11.9905 3.28313 13.0439 2.99748 14.2C1.78775 12.8054 1.05469 10.9867 1.05469 9C1.05469 4.61893 4.61893 1.05469 9 1.05469C13.3811 1.05469 16.9453 4.61893 16.9453 9C16.9453 10.9872 16.212 12.8062 15.0018 14.2008Z"></path>
  </symbol>
  <symbol xmlns="http://www.w3.org/2000/svg" viewBox="0 0 18 18" id="studies">
    <path d="M17.6493 6.50577C17.8598 6.43095 18.0002 6.23165 18 6.00827C17.9997 5.78489 17.8587 5.58594 17.6481 5.51162L9.17546 2.52225C9.06195 2.48217 8.93809 2.48217 8.82457 2.52225L0.351914 5.51162C0.141258 5.5859 0.000281671 5.78489 4.21419e-07 6.00827C-0.000280829 6.23165 0.140239 6.43095 0.350719 6.50577L3.70705 7.69897V11.1389C3.70705 11.7066 4.29933 12.1868 5.46743 12.5659C6.48559 12.8964 7.74018 13.0784 9.00004 13.0784C10.2599 13.0784 11.5144 12.8964 12.5326 12.5659C13.7007 12.1868 14.293 11.7067 14.293 11.1389V7.69897L15.6788 7.20632V11.9729C15.0625 12.1908 14.6197 12.779 14.6197 13.4689C14.6197 14.1588 15.0625 14.747 15.6788 14.9649V16.9788C15.6788 17.27 15.9149 17.5062 16.2061 17.5062C16.4974 17.5062 16.7335 17.27 16.7335 16.9788V14.9649C17.3497 14.747 17.7925 14.1589 17.7925 13.4689C17.7925 12.779 17.3497 12.1908 16.7335 11.9729V6.83135L17.6493 6.50577ZM16.2061 14.0006C15.9129 14.0006 15.6743 13.7621 15.6743 13.4689C15.6743 13.1757 15.9129 12.9371 16.2061 12.9371C16.4993 12.9371 16.7378 13.1757 16.7378 13.4689C16.7378 13.7621 16.4993 14.0006 16.2061 14.0006ZM9 3.57873L15.8931 6.0108L9 8.4613L2.10695 6.01077L9 3.57873ZM13.2383 11.0594C13.1372 11.1613 12.7754 11.4053 11.9587 11.6383C11.0875 11.8868 10.0368 12.0237 9 12.0237C7.96324 12.0237 6.91249 11.8868 6.04125 11.6383C5.22461 11.4053 4.86278 11.1613 4.7617 11.0594V8.07391L8.82334 9.51785C8.88047 9.53817 8.94023 9.54833 8.99996 9.54833C9.05973 9.54833 9.11946 9.53817 9.17659 9.51785L13.2382 8.07391V11.0594H13.2383Z"></path>
  </symbol>
  <symbol xmlns="http://www.w3.org/2000/svg" viewBox="0 0 18 18" id="message">
    <path d="M1.58203 2.83394H16.418C17.2903 2.83394 18 3.54364 18 4.41597V13.5841C18 14.4564 17.2903 15.1661 16.418 15.1661H1.58203C0.709699 15.1661 0 14.4564 0 13.5841V4.41597C0 3.54364 0.709699 2.83394 1.58203 2.83394ZM1.7885 3.88863L1.99965 4.06444L8.37232 9.37096C8.73605 9.6738 9.26402 9.6738 9.62768 9.37096L16.0003 4.06444L16.2115 3.88863H1.7885ZM16.9453 4.65004L11.753 8.97366L16.9453 12.4293V4.65004ZM1.58203 14.1114H16.418C16.6728 14.1114 16.8859 13.9297 16.9347 13.6892L10.9074 9.67781L10.3025 10.1815C9.92517 10.4957 9.46255 10.6528 8.99996 10.6528C8.53738 10.6528 8.07479 10.4957 7.69739 10.1815L7.09256 9.67781L1.06523 13.6891C1.1141 13.9298 1.32722 14.1114 1.58203 14.1114ZM1.05469 12.4293L6.24698 8.9737L1.05469 4.65004V12.4293Z"></path>
  </symbol>
  <symbol xmlns="http://www.w3.org/2000/svg" viewBox="0 0 18 18" id="calendar">
    <path d="M14.5248 1.38618H13.8534V0.70681C13.8534 0.318647 13.5387 0.0039978 13.1506 0.0039978C12.7624 0.0039978 12.4477 0.318647 12.4477 0.70681V1.38618H5.55221V0.70681C5.55221 0.318647 5.23757 0.0039978 4.8494 0.0039978C4.46124 0.0039978 4.14659 0.318647 4.14659 0.70681V1.38618H3.47523C1.55898 1.38618 0 2.94516 0 4.86138V14.5208C0 16.437 1.55898 17.996 3.47523 17.996H14.5248C16.441 17.996 18 16.437 18 14.5208V4.86138C18 2.94516 16.441 1.38618 14.5248 1.38618ZM3.47523 2.79181H4.14659V4.16229C4.14659 4.55045 4.46124 4.8651 4.8494 4.8651C5.23757 4.8651 5.55221 4.55045 5.55221 4.16229V2.79181H12.4478V4.16229C12.4478 4.55045 12.7624 4.8651 13.1506 4.8651C13.5388 4.8651 13.8534 4.55045 13.8534 4.16229V2.79181H14.5248C15.666 2.79181 16.5944 3.72022 16.5944 4.86138V5.53277H1.40562V4.86138C1.40562 3.72022 2.33404 2.79181 3.47523 2.79181ZM14.5248 16.5904H3.47523C2.33404 16.5904 1.40562 15.6619 1.40562 14.5208V6.9384H16.5944V14.5208C16.5944 15.6619 15.666 16.5904 14.5248 16.5904ZM6.24333 9.7028C6.24333 10.091 5.92868 10.4056 5.54051 10.4056H4.15833C3.77016 10.4056 3.45552 10.091 3.45552 9.7028C3.45552 9.31464 3.77016 8.99999 4.15833 8.99999H5.54051C5.92864 8.99999 6.24333 9.31464 6.24333 9.7028ZM14.5445 9.7028C14.5445 10.091 14.2299 10.4056 13.8417 10.4056H12.4595C12.0714 10.4056 11.7567 10.091 11.7567 9.7028C11.7567 9.31464 12.0714 8.99999 12.4595 8.99999H13.8417C14.2298 8.99999 14.5445 9.31464 14.5445 9.7028ZM10.3899 9.7028C10.3899 10.091 10.0753 10.4056 9.6871 10.4056H8.30492C7.91676 10.4056 7.60211 10.091 7.60211 9.7028C7.60211 9.31464 7.91676 8.99999 8.30492 8.99999H9.6871C10.0752 8.99999 10.3899 9.31464 10.3899 9.7028ZM6.24333 13.8494C6.24333 14.2376 5.92868 14.5522 5.54051 14.5522H4.15833C3.77016 14.5522 3.45552 14.2376 3.45552 13.8494C3.45552 13.4612 3.77016 13.1466 4.15833 13.1466H5.54051C5.92864 13.1466 6.24333 13.4612 6.24333 13.8494ZM14.5445 13.8494C14.5445 14.2376 14.2299 14.5522 13.8417 14.5522H12.4595C12.0714 14.5522 11.7567 14.2376 11.7567 13.8494C11.7567 13.4612 12.0714 13.1466 12.4595 13.1466H13.8417C14.2298 13.1466 14.5445 13.4612 14.5445 13.8494ZM10.3899 13.8494C10.3899 14.2376 10.0753 14.5522 9.6871 14.5522H8.30492C7.91676 14.5522 7.60211 14.2376 7.60211 13.8494C7.60211 13.4612 7.91676 13.1466 8.30492 13.1466H9.6871C10.0752 13.1466 10.3899 13.4612 10.3899 13.8494Z"></path>
  </symbol>
  <symbol xmlns="http://www.w3.org/2000/svg" viewBox="0 0 18 18" id="briefcase">
    <path d="M15.2231 3.99416H12.6156V2.36488C12.6156 1.6291 12.0109 1.03056 11.2676 1.03056H6.73248C5.98917 1.03056 5.38445 1.62917 5.38445 2.36488V3.99416H2.77692C1.24572 3.99416 0 5.23988 0 6.77108V14.7012C0 15.9519 1.01753 16.9694 2.26828 16.9694H15.7317C16.9824 16.9694 18 15.9519 18 14.7012V6.77108C18 5.23988 16.7542 3.99416 15.2231 3.99416ZM6.44234 2.36488C6.44234 2.20728 6.56707 2.08845 6.73248 2.08845H11.2675C11.4329 2.08845 11.5577 2.20728 11.5577 2.36488V3.99416H6.44234V2.36488ZM16.942 14.7012C16.9421 15.3686 16.3991 15.9115 15.7317 15.9115H2.26828C1.60084 15.9115 1.05788 15.3686 1.05788 14.7012V9.76037C1.22354 9.86433 1.40467 9.94856 1.59901 10.0086C1.60913 10.0117 1.61933 10.0146 1.62959 10.0171L7.0184 11.3341V11.7691C7.0184 12.4521 7.57408 13.0078 8.2571 13.0078H9.74287C10.4259 13.0078 10.9816 12.4521 10.9816 11.7691V11.3341L16.3704 10.0171C16.3807 10.0146 16.3909 10.0118 16.401 10.0086C16.5953 9.94856 16.7764 9.86433 16.9421 9.76037V14.7012H16.942ZM8.07632 11.7691V10.2766C8.07632 10.1769 8.15743 10.0958 8.25713 10.0958H9.7429C9.84261 10.0958 9.92371 10.1769 9.92371 10.2766V11.7691C9.92371 11.8688 9.84261 11.9499 9.7429 11.9499H8.25713C8.15743 11.9499 8.07632 11.8688 8.07632 11.7691ZM16.9421 7.83705C16.9421 8.36882 16.6054 8.83172 16.1025 8.99351L10.9808 10.2452C10.9641 9.57665 10.4154 9.03788 9.7429 9.03788H8.25713C7.58467 9.03788 7.03602 9.57668 7.01921 10.2452L1.89752 8.99354C1.39468 8.83172 1.05788 8.36882 1.05788 7.83705V6.77108C1.05788 5.8232 1.82904 5.05204 2.77692 5.05204H15.2231C16.1709 5.05204 16.9421 5.8232 16.9421 6.77108V7.83705H16.9421Z"></path>
  </symbol>
  <symbol fill="none" xmlns="http://www.w3.org/2000/svg" viewBox="0 0 52 52" id="coin">
    <path d="M34.1778 3.17496C65.7301 13.0309 51.1688 59.7128 19.5375 49.8411C-12.0937 39.9695 2.56231 -6.71247 34.1778 3.17496Z" fill="#C6D4B8"></path>
    <path opacity="0.1" d="M34.1778 3.17496C65.7301 13.0309 51.1688 59.7128 19.5375 49.8411C-12.0937 39.9695 2.56231 -6.71247 34.1778 3.17496Z" fill="black"></path>
    <path d="M31.2119 2.24743C61.297 11.694 46.7198 58.3287 16.5715 48.9136C-13.5768 39.4985 1.07936 -7.16767 31.2119 2.24743Z" fill="#C6D4B8"></path>
    <path opacity="0.1" d="M4.22027 24.2393C3.32102 32.7727 7.23351 41.6367 17.8193 44.943C42.8403 52.8152 54.9407 14.0212 29.967 6.21201L29.4779 6.07031C52.8267 13.9425 41.2154 50.5165 17.3618 43.0695C13.3049 41.9697 9.765 39.4804 7.36231 36.0377C4.95962 32.5949 3.84732 28.4182 4.22027 24.2393Z" fill="black"></path>
    <path opacity="0.1" d="M28.4368 11.0472C28.6369 11.128 28.7979 11.283 28.8861 11.4796C28.9743 11.6762 28.9829 11.8993 28.9101 12.1021L28.421 13.3773C30.398 14.3514 32.044 15.8846 33.1539 17.7857C33.2527 17.9136 33.3187 18.0637 33.3462 18.2228C33.3737 18.382 33.3618 18.5454 33.3116 18.6989C33.221 18.9096 33.0517 19.0767 32.8396 19.1649C32.6276 19.2531 32.3895 19.2553 32.1758 19.1712C31.961 19.0942 31.7853 18.9358 31.6867 18.7304C30.7768 17.0672 29.4007 15.7049 27.7269 14.8101L24.2561 23.7056C28.705 26.5868 30.0302 29.1846 28.8154 32.2862C27.5218 35.6555 23.7513 37.0096 19.7284 35.5296L18.766 38.0014C18.685 38.2011 18.5297 38.3618 18.3327 38.4498C18.1357 38.5379 17.9123 38.5464 17.7091 38.4738C17.5092 38.3932 17.3492 38.2373 17.2636 38.0399C17.178 37.8425 17.1736 37.6195 17.2515 37.4189L18.2138 34.8998C15.6364 33.6658 13.5439 31.6107 12.2663 29.0587C12.1862 28.9426 12.1357 28.8088 12.1192 28.6689C12.1027 28.529 12.1207 28.3871 12.1716 28.2557C12.2621 28.0521 12.4253 27.8893 12.6294 27.7991C12.8335 27.7089 13.0639 27.6977 13.2759 27.7676C13.4881 27.8489 13.6625 28.006 13.765 28.2085C14.8042 30.4984 16.5966 32.365 18.8449 33.4986L22.363 24.4614C17.9929 21.5644 16.6993 19.0453 17.9298 15.8807C19.1604 12.7161 22.9309 11.3148 26.8434 12.7318L27.3167 11.5195C27.3565 11.4131 27.4176 11.3158 27.4964 11.2337C27.5751 11.1517 27.6699 11.0866 27.7747 11.0424C27.8796 10.9981 27.9924 10.9758 28.1063 10.9766C28.2201 10.9774 28.3326 11.0014 28.4368 11.0472ZM23.0571 22.8396L26.4174 14.1803C23.2622 13.0467 20.5645 14.1016 19.6653 16.3845C18.766 18.6674 19.3339 20.2733 23.0571 22.8396ZM23.704 25.3115L20.2963 34.0811C23.4515 35.2462 26.2755 34.207 27.222 31.7982C28.1686 29.3893 27.4745 27.7834 23.704 25.3115Z" fill="black"></path>
  </symbol>
</svg>