<svg width="488" height="484" viewBox="0 0 488 484" fill="none" xmlns="http://www.w3.org/2000/svg">
<g clip-path="url(#clip0_426_9678)">
<path d="M175.169 523.959C175.169 523.959 177.57 318.647 176.878 289.389C176.513 273.456 68.5376 257.881 64.3578 271.113C54.5652 302.089 18.5273 524 18.5273 524L175.179 523.969L175.169 523.959Z" fill="#EDDBC1"/>
<path opacity="0.1" d="M18.5479 523.959H175.17C175.17 523.959 74.5266 508.988 59.2794 478.892C48.5086 457.647 48.5777 368.678 49.1805 344.742C35.3958 420.254 18.5479 523.959 18.5479 523.959Z" fill="black"/>
<path d="M36.3539 198.763C31.3934 227.642 54.6742 310.42 60.9292 325.893C67.1842 341.366 166.859 338.582 176.059 324.573C185.268 310.563 168.855 251.926 185.565 227.079C243.273 141.262 40.5733 124.561 36.3441 198.763H36.3539Z" fill="#EDDBC1"/>
<path d="M26.7692 100.309C21.4727 62.8036 -2.38122 75.5749 0.721568 107.216C5.45481 155.559 33.5776 286.925 70.3269 314.78C116.809 350.024 57.3623 203.676 47.5006 171.011C47.4018 170.684 26.8186 100.636 26.7692 100.309Z" fill="#EDDBC1"/>
<path d="M59.1406 48.4352C53.0833 18.083 31.591 21.8079 32.7175 53.5928C34.4369 102.15 54.3481 235.112 89.2792 265.362C133.469 303.625 83.2515 153.624 75.4352 120.366C75.3562 120.038 65.6822 81.2024 59.1406 48.4352Z" fill="#EDDBC1"/>
<path d="M101.018 21.9404C100.168 -4.98358 75.4251 -6.70279 74.2986 25.0821C72.5792 73.6394 83.0536 207.758 115.761 240.576C157.135 282.083 117.639 128.675 112.194 94.9249C112.135 94.5872 101.028 22.2781 101.018 21.9507V21.9404Z" fill="#EDDBC1"/>
<path d="M150.278 28.0819C148.796 1.49555 126.533 -2.2294 123.42 29.4122C118.657 77.7547 120.683 212.293 151.256 247.24C189.933 291.448 160.16 135.706 156.84 101.65C156.81 101.312 150.298 28.4093 150.278 28.0716V28.0819Z" fill="#EDDBC1"/>
<path d="M47.5003 171C39.5951 149.704 32.6089 126.894 26.1068 105.015C26.1068 105.015 24.4863 98.0663 24.1898 96.6951C22.8163 90.5346 21.1364 82.8698 15.5336 79.5746C12.1838 77.7326 8.56717 80.1784 6.49205 83.0131C1.5513 89.808 0.632318 98.7724 0.701489 107.195C-0.681922 98.6496 -0.375595 89.0098 4.39717 81.4269C8.2806 75.1231 15.7016 73.496 20.7906 79.3393C25.9586 85.1211 29.9903 104.37 29.9903 104.37C36.2947 126.177 42.6188 148.783 47.4805 170.989L47.5003 171Z" fill="#414141"/>
<path d="M75.4352 120.376C68.6268 99.3058 63.3007 77.7952 58.686 56.121C56.8876 47.5454 55.0101 32.6354 45.8302 29.3709C43.6167 28.716 41.4329 29.5858 39.7135 31.1311C34.0712 36.7492 33.2016 45.8262 32.7075 53.5933C31.7984 44.6289 32.3419 30.7933 41.759 26.5874C49.7432 23.8961 55.7314 32.3079 58.3303 38.8879C60.3362 43.4725 61.4627 50.3493 62.5497 55.2511C66.4331 74.3773 72.2632 101.342 75.4352 120.366V120.376Z" fill="#414141"/>
<path d="M112.194 94.9152C107.382 73.9368 103.676 51.6792 100.317 30.3323L99.1211 22.2173C98.8049 15.1869 97.0559 6.14064 90.0301 3.3981C87.8661 2.65106 85.5637 3.0604 83.5874 4.23724C77.0656 8.57619 75.2968 17.5509 74.2988 25.0724C74.0517 16.9778 75.3067 7.26632 82.1941 1.97566C87.4906 -2.00512 94.5558 0.409954 98.0835 5.58804C101.522 10.367 102.708 16.3126 102.985 22.074L104.269 30.1277C107.431 51.4131 110.514 73.4558 112.194 94.9049V94.9152Z" fill="#414141"/>
<path d="M156.839 101.66C153.371 80.5484 151.088 58.3113 149.082 36.944C148.302 29.5453 148.588 20.632 144.754 14.1338C140.327 6.2746 132.965 6.7658 128.499 14.359C125.732 18.8412 124.418 24.1932 123.42 29.4123C123.726 21.3893 125.208 11.7085 132.382 6.84766C137.946 3.27622 144.685 6.93976 147.689 12.2202C152.274 19.2505 152.155 28.5936 153.035 36.6882C154.843 58.0555 156.523 80.2312 156.849 101.66H156.839Z" fill="#414141"/>
<path d="M175.169 115.321C187.719 79.7186 217.373 89.9724 199.013 137.506C180.654 185.04 232.68 208.014 163.746 322.741C133.311 373.396 149.112 218.514 155.406 184.918C155.466 184.58 171.74 125.042 175.169 115.321Z" fill="#EDDBC1"/>
<path d="M47.5 171.001C47.5 171.001 90.3561 142.481 140.811 150.677C140.811 150.677 96.1763 152.775 47.5 171.001Z" fill="#414141"/>
<path d="M129.487 239.257C129.487 239.257 121.246 191.15 153.084 171C153.084 171 131.147 192.715 129.487 239.257Z" fill="#414141"/>
<path d="M311.831 523.959C311.831 523.959 309.43 318.647 310.121 289.389C310.487 273.456 418.462 257.881 422.642 271.113C432.434 302.089 468.472 524 468.472 524L311.821 523.969L311.831 523.959Z" fill="#EDDBC1"/>
<path opacity="0.1" d="M468.452 523.959H311.83C311.83 523.959 412.473 508.988 427.72 478.892C438.491 457.647 438.422 368.678 437.819 344.742C451.604 420.254 468.452 523.959 468.452 523.959Z" fill="black"/>
<path d="M450.646 198.763C455.606 227.642 432.325 310.42 426.07 325.893C419.815 341.366 320.141 338.582 310.941 324.573C301.732 310.563 318.145 251.926 301.435 227.079C243.727 141.262 446.426 124.561 450.656 198.763H450.646Z" fill="#EDDBC1"/>
<path d="M460.231 100.309C465.528 62.8036 489.382 75.5749 486.279 107.216C481.546 155.559 453.423 286.925 416.674 314.78C370.191 350.024 429.638 203.676 439.5 171.011C439.599 170.684 460.182 100.636 460.231 100.309Z" fill="#EDDBC1"/>
<path d="M427.859 48.4352C433.916 18.083 455.409 21.8079 454.282 53.5928C452.563 102.15 432.652 235.112 397.72 265.362C353.53 303.625 403.748 153.624 411.564 120.366C411.643 120.038 421.317 81.2024 427.859 48.4352Z" fill="#EDDBC1"/>
<path d="M385.971 21.9404C386.821 -4.98358 411.564 -6.70279 412.691 25.0821C414.41 73.6394 403.936 207.758 371.228 240.576C329.854 282.083 369.351 128.675 374.795 94.9249C374.855 94.5872 385.961 22.2781 385.971 21.9507V21.9404Z" fill="#EDDBC1"/>
<path d="M336.722 28.0819C338.204 1.49555 360.467 -2.2294 363.58 29.4122C368.343 77.7547 366.317 212.293 335.744 247.24C297.068 291.448 326.841 135.706 330.161 101.65C330.19 101.312 336.702 28.4093 336.722 28.0716V28.0819Z" fill="#EDDBC1"/>
<path d="M439.499 171C447.404 149.704 454.39 126.894 460.893 105.015C460.893 105.015 462.513 98.0663 462.809 96.6951C464.183 90.5346 465.863 82.8698 471.466 79.5746C474.816 77.7326 478.432 80.1784 480.507 83.0131C485.448 89.808 486.367 98.7724 486.298 107.195C487.681 98.6496 487.375 89.0098 482.602 81.4269C478.719 75.1231 471.298 73.496 466.209 79.3393C461.041 85.1211 457.009 104.37 457.009 104.37C450.705 126.177 444.381 148.783 439.519 170.989L439.499 171Z" fill="#414141"/>
<path d="M411.564 120.376C418.373 99.3058 423.699 77.7952 428.314 56.121C430.112 47.5454 431.99 32.6354 441.169 29.3709C443.383 28.716 445.567 29.5858 447.286 31.1311C452.928 36.7492 453.798 45.8262 454.292 53.5933C455.201 44.6289 454.658 30.7933 445.241 26.5874C437.256 23.8961 431.268 32.3079 428.669 38.8879C426.663 43.4725 425.537 50.3493 424.45 55.2511C420.567 74.3773 414.736 101.342 411.564 120.366V120.376Z" fill="#414141"/>
<path d="M374.806 94.9152C379.618 73.9368 383.324 51.6792 386.683 30.3324L387.879 22.2173C388.195 15.187 389.944 6.14071 396.97 3.39816C399.134 2.65112 401.436 3.06046 403.413 4.2373C409.934 8.57625 411.703 17.5509 412.701 25.0725C412.948 16.9779 411.693 7.26638 404.806 1.97572C399.509 -2.00506 392.444 0.410015 388.916 5.5881C385.478 10.3671 384.292 16.3127 384.015 22.0741L382.731 30.1277C379.569 51.4132 376.486 73.4559 374.806 94.905V94.9152Z" fill="#414141"/>
<path d="M330.16 101.66C333.629 80.5484 335.911 58.3113 337.917 36.944C338.698 29.5453 338.411 20.632 342.245 14.1338C346.672 6.2746 354.034 6.7658 358.5 14.359C361.267 18.8412 362.582 24.1932 363.58 29.4123C363.273 21.3893 361.791 11.7085 354.617 6.84766C349.054 3.27622 342.315 6.93976 339.311 12.2202C334.726 19.2505 334.844 28.5936 333.965 36.6882C332.156 58.0555 330.476 80.2312 330.15 101.66H330.16Z" fill="#414141"/>
<path d="M311.83 115.32C299.281 79.7185 269.626 89.9724 287.986 137.506C306.346 185.04 254.32 208.014 323.253 322.741C353.688 373.396 337.888 218.514 331.593 184.918C331.534 184.58 315.259 125.042 311.83 115.32Z" fill="#EDDBC1"/>
<path d="M439.5 171.001C439.5 171.001 396.643 142.481 346.188 150.677C346.188 150.677 390.823 152.775 439.5 171.001Z" fill="#414141"/>
<path d="M357.502 239.257C357.502 239.257 365.743 191.15 333.905 171C333.905 171 355.842 192.715 357.502 239.257Z" fill="#414141"/>
</g>
</svg>