
<svg width="520" height="662" viewBox="0 0 520 662" fill="none" xmlns="http://www.w3.org/2000/svg">
<g clip-path="url(#clip0_450_9913)">
<g clip-path="url(#clip1_450_9913)" class="hand-el-3">
<path d="M431.843 661.938C431.843 661.938 436.147 306.94 434.906 256.357C434.248 228.808 240.746 201.872 233.24 224.752C215.685 278.32 151.103 661.999 151.103 661.999L431.843 661.938Z" fill="#DCDCDC"/>
<path opacity="0.1" d="M151.149 661.938H431.843C431.843 661.938 251.469 636.057 224.141 584.02C204.84 547.289 204.963 393.459 206.05 352.074C181.342 482.641 151.149 661.938 151.149 661.938Z" fill="black"/>
<path d="M206.295 152.039C197.411 198.183 215.9 296.12 227.113 320.837C238.326 345.555 416.954 341.116 433.451 318.725C449.949 296.334 482.24 132.005 465.023 86.3197C447.805 40.6345 215.609 103.4 206.295 152.039Z" fill="#DCDCDC"/>
<path d="M464.533 172.579C440.115 179.42 437.051 143.683 437.051 143.683C437.051 143.683 441.647 192.659 415.989 203.847C391.219 214.56 379.546 176.298 378.673 173.497C378.903 176.084 381.951 221.157 354.991 229.804C326.974 238.758 321.888 198.23 321.566 195.598C321 198.108 313.034 231.197 291.067 233.11C253.308 236.385 271.337 151.244 253.538 126.266C253.538 126.266 207.736 151.581 206.25 152.04C206.25 152.04 221.752 70.6941 256.8 48.5785C275.29 36.9315 289.811 51.8385 289.811 51.8385C289.811 51.8385 291.895 25.0548 312.911 17.5707C323.634 13.7751 339.397 27.6261 339.397 27.6261C339.397 27.6261 341.97 6.19919 361.072 0.765942C376.391 -3.65718 392.751 12.5201 392.751 12.5201C392.751 12.5201 394.926 5.6329 409.494 3.03106C458.696 -5.75396 486.469 85.3869 482.654 133.368C481.781 144.25 475.163 169.61 464.533 172.579Z" fill="#DCDCDC"/>
<path d="M392.153 12.917C392.127 12.8778 392.109 12.8339 392.1 12.7877C392.09 12.7415 392.091 12.6939 392.1 12.6477C392.109 12.6015 392.127 12.5576 392.154 12.5185C392.18 12.4793 392.214 12.4458 392.253 12.4196C392.292 12.3935 392.336 12.3753 392.382 12.3662C392.428 12.3571 392.476 12.3571 392.522 12.3663C392.568 12.3756 392.612 12.3938 392.652 12.42C392.691 12.4462 392.724 12.4799 392.751 12.5191C419.711 49.8172 437.879 99.0378 437.817 145.305C437.817 146.835 433.88 152.697 433.773 150.998C431.169 108.512 414.12 56.4902 392.153 12.917Z" fill="#414141"/>
<path d="M339.182 28.054C338.937 27.5795 339.718 27.1663 340.055 27.6407C367.628 66.2092 386.546 122.225 380.189 175.548C379.96 177.369 377.938 178.792 378.029 176.665C379.577 140.897 359.142 67.1734 339.182 28.054Z" fill="#414141"/>
<path d="M319.835 199.163C323.956 147.8 311.195 100.278 291.052 53.353C290.791 52.7408 291.68 52.4347 292.032 52.8938C308.147 73.1575 317.874 104.41 323.374 129.418C328.643 153.325 328.582 175.945 321.627 199.377C321.367 200.219 319.743 200.265 319.835 199.163Z" fill="#414141"/>
<path d="M437.74 144.249C437.74 146.07 433.329 142.58 433.252 144.402C432.425 164.176 429.224 199.499 412.971 202.56C399.935 204.917 387.711 189.046 385.398 181.133L379.623 161.237L378.091 181.991C377.518 191.206 375.448 200.268 371.963 208.82C368.44 217.1 362.772 224.431 354.929 226.91C346.841 229.681 338.707 227.538 334.005 220.544C329.087 213.84 326.59 204.336 325.702 195.566L323.205 171.078L317.537 194.755C315.983 201.397 313.578 207.812 310.384 213.84C307.182 219.717 302.954 225.135 297.593 227.859C292.231 230.584 285.537 230.385 281.126 226.865C276.423 223.222 273.543 216.626 271.429 210.121C267.278 196.76 265.93 182.343 263.892 168.124C262.927 160.992 261.962 153.814 260.66 146.697C259.358 139.581 257.826 132.234 253.537 126.296C257.152 132.602 257.734 139.948 258.684 146.988C259.634 154.028 259.848 161.283 260.216 168.415C261.058 182.786 262.054 197.265 265.669 211.713C267.707 218.784 270.173 226.405 276.653 232.16C283.408 238.068 293.503 238.282 300.902 234.563C308.3 230.844 313.493 224.156 317.262 217.59C320.924 210.932 323.704 203.827 325.533 196.454L317.415 195.826C318.38 206.188 320.616 216.228 326.927 225.426C330.23 230.245 335.102 233.771 340.714 235.405C346.289 236.824 352.163 236.525 357.564 234.548C368.532 230.737 375.349 220.942 379.148 211.59C382.882 202.161 385.036 192.181 385.52 182.052L378.229 182.863C381.491 192.842 393.21 212.065 413.89 210.947C440.666 205.468 438.767 153.63 437.74 144.249Z" fill="#414141"/>
<path d="M435.044 325.352C435.044 325.352 521.011 224.829 519.985 180.124C518.958 135.418 433.758 84.4832 399.72 70.8618C352.739 52.0674 343.992 87.6054 358.759 110.655C375.854 137.316 413.66 167.115 416.264 169.227C416.264 169.227 344.865 199.515 336.302 255.317C327.739 311.119 435.044 325.352 435.044 325.352Z" fill="#DCDCDC"/>
<path d="M469.526 111.757C470.261 112.338 471.824 113.486 472.59 114.068C472.697 113.945 472.452 114.374 472.835 113.823L472.728 113.731C456.596 101.675 439.812 90.5161 422.453 80.3049C415.452 76.2491 408.36 72.3005 401.007 68.8109C393.47 65.1378 385.52 62.0921 376.85 61.8319C355.404 61.0054 344.115 79.0652 349.92 98.8545C352.524 108.543 358.085 116.746 363.982 124.597C377.976 143.157 395.029 159.201 414.41 172.043L415.176 165.921C392.511 174.567 372.628 189.211 357.656 208.285C348.897 219.601 342.321 232.446 338.263 246.164C349.219 220.225 368.223 198.486 392.475 184.149C402.319 178.184 412.888 173.503 423.923 170.221L418.01 166.273C399.731 153.396 383.548 137.78 370.033 119.975C364.718 113.012 359.31 105.328 357.043 96.8496C350.119 72.1168 370.478 62.9798 391.525 70.7241C411.347 78.3765 429.943 88.9981 448.371 99.5432C456.306 104.135 464.762 109.201 472.574 114.052C472.957 113.517 472.666 113.884 472.728 113.762L472.513 113.624C471.778 113.195 470.277 112.216 469.449 111.757H469.526Z" fill="#414141"/>
</g>
<g clip-path="url(#clip2_450_9913)" class="hand-el-1">
<path d="M102.758 352.273L103.831 363.538C104.327 368.694 106.852 373.442 110.85 376.739C114.848 380.037 119.993 381.613 125.154 381.123L155.423 378.231C157.979 377.991 160.463 377.249 162.732 376.049C165 374.849 167.01 373.213 168.645 371.235C170.28 369.257 171.508 366.977 172.26 364.524C173.011 362.071 173.271 359.495 173.024 356.941L171.952 345.677C171.459 340.522 168.938 335.774 164.942 332.476C160.946 329.179 155.803 327.602 150.644 328.092L120.298 330.984C115.15 331.492 110.413 334.017 107.125 338.008C103.838 341.998 102.267 347.128 102.758 352.273ZM146.094 339.647C153.324 338.958 159.666 343.274 160.233 349.304L160.846 355.61C161.412 361.64 156.005 367.073 148.775 367.762L128.325 369.782C121.079 370.486 114.737 366.155 114.171 360.14L113.558 353.819C112.991 347.804 118.399 342.356 125.644 341.667L146.094 339.647Z" fill="#C5E8C9"/>
<path opacity="0.4" d="M102.758 352.273L103.831 363.538C104.327 368.694 106.852 373.442 110.85 376.739C114.848 380.037 119.993 381.613 125.154 381.123L155.423 378.231C157.979 377.991 160.463 377.249 162.732 376.049C165 374.849 167.01 373.213 168.645 371.235C170.28 369.257 171.508 366.977 172.26 364.524C173.011 362.071 173.271 359.495 173.024 356.941L171.952 345.677C171.459 340.522 168.938 335.774 164.942 332.476C160.946 329.179 155.803 327.602 150.644 328.092L120.298 330.984C115.15 331.492 110.413 334.017 107.125 338.008C103.838 341.998 102.267 347.128 102.758 352.273ZM146.094 339.647C153.324 338.958 159.666 343.274 160.233 349.304L160.846 355.61C161.412 361.64 156.005 367.073 148.775 367.762L128.325 369.782C121.079 370.486 114.737 366.155 114.171 360.14L113.558 353.819C112.991 347.804 118.399 342.356 125.644 341.667L146.094 339.647Z" fill="black"/>
<path opacity="0.4" d="M147.427 334.367L123.867 336.602C121.889 336.767 119.964 337.321 118.2 338.231C116.437 339.141 114.87 340.389 113.59 341.904C112.309 343.419 111.34 345.172 110.738 347.062C110.136 348.951 109.913 350.941 110.081 352.917L111 361.518C111.413 365.489 113.388 369.134 116.49 371.651C119.593 374.168 123.568 375.351 127.544 374.94L151.103 372.691C153.08 372.529 155.005 371.978 156.768 371.072C158.531 370.165 160.098 368.92 161.379 367.407C162.66 365.894 163.629 364.144 164.231 362.256C164.834 360.368 165.058 358.38 164.89 356.406L164.063 347.774C163.856 345.8 163.262 343.887 162.313 342.144C161.364 340.4 160.08 338.861 158.534 337.615C156.988 336.369 155.211 335.441 153.305 334.884C151.399 334.326 149.401 334.151 147.427 334.367ZM160.248 349.289L160.846 355.626C161.412 361.64 156.02 367.074 148.759 367.762L128.31 369.783C121.079 370.456 114.737 366.155 114.155 360.125L113.558 353.804C112.991 347.789 118.399 342.341 125.644 341.668L146.079 339.632C153.324 338.974 159.666 343.275 160.248 349.289Z" fill="#C5E8C9"/>
<path d="M38.8808 316.797L31.6811 325.506C30.0386 327.485 28.8036 329.769 28.0469 332.227C27.2902 334.684 27.0266 337.267 27.2714 339.827C27.5162 342.386 28.2646 344.872 29.4735 347.142C30.6823 349.412 32.3279 351.421 34.3158 353.054L57.8143 372.385C59.7956 374.026 62.0815 375.259 64.5413 376.015C67.0011 376.772 69.5861 377.035 72.1479 376.79C74.7098 376.546 77.1982 375.798 79.4702 374.59C81.7421 373.382 83.753 371.738 85.3873 369.752L92.5869 361.028C94.2274 359.048 95.4608 356.764 96.2164 354.306C96.972 351.849 97.2349 349.267 96.9902 346.708C96.7454 344.149 95.9977 341.663 94.79 339.393C93.5823 337.123 91.9384 335.114 89.9522 333.479L66.4385 314.103C64.4539 312.468 62.1657 311.241 59.7051 310.491C57.2446 309.741 54.66 309.484 52.0998 309.734C49.5396 309.984 47.0541 310.737 44.7856 311.949C42.5172 313.161 40.5107 314.809 38.8808 316.797ZM78.4634 338.453C84.0699 343.045 85.4945 350.606 81.6495 355.289L77.6055 360.171C73.7606 364.839 66.0862 364.885 60.4797 360.248L44.6252 347.193C39.0187 342.601 37.594 335.025 41.4389 330.357L45.4829 325.398C49.3278 320.807 57.0024 320.7 62.6243 325.398L78.4634 338.453Z" fill="#C5E8C9"/>
<path opacity="0.4" d="M38.8808 316.797L31.6811 325.506C30.0386 327.485 28.8036 329.769 28.0469 332.227C27.2902 334.684 27.0266 337.267 27.2714 339.827C27.5162 342.386 28.2646 344.872 29.4735 347.142C30.6823 349.412 32.3279 351.421 34.3158 353.054L57.8143 372.385C59.7956 374.026 62.0815 375.259 64.5413 376.015C67.0011 376.772 69.5861 377.035 72.1479 376.79C74.7098 376.546 77.1982 375.798 79.4702 374.59C81.7421 373.382 83.753 371.738 85.3873 369.752L92.5869 361.028C94.2274 359.048 95.4608 356.764 96.2164 354.306C96.972 351.849 97.2349 349.267 96.9902 346.708C96.7454 344.149 95.9977 341.663 94.79 339.393C93.5823 337.123 91.9384 335.114 89.9522 333.479L66.4385 314.103C64.4539 312.468 62.1657 311.241 59.7051 310.491C57.2446 309.741 54.66 309.484 52.0998 309.734C49.5396 309.984 47.0541 310.737 44.7856 311.949C42.5172 313.161 40.5107 314.809 38.8808 316.797ZM78.4634 338.453C84.0699 343.045 85.4945 350.606 81.6495 355.289L77.6055 360.171C73.7606 364.839 66.0862 364.885 60.4797 360.248L44.6252 347.193C39.0187 342.601 37.594 335.025 41.4389 330.357L45.4829 325.398C49.3278 320.807 57.0024 320.7 62.6243 325.398L78.4634 338.453Z" fill="black"/>
<path opacity="0.4" d="M83.1508 335.653L64.8914 320.608C63.373 319.33 61.617 318.364 59.7241 317.765C57.8312 317.166 55.8385 316.946 53.8604 317.118C51.8823 317.29 49.9577 317.851 48.1968 318.767C46.4359 319.684 44.8734 320.939 43.5989 322.46L38.0996 329.118C35.5868 332.223 34.4094 336.197 34.8258 340.168C35.2422 344.139 37.2183 347.783 40.3207 350.3L58.5803 365.345C60.094 366.616 61.8435 367.577 63.7289 368.173C65.6143 368.768 67.5987 368.987 69.5688 368.817C71.5389 368.646 73.4561 368.089 75.2109 367.179C76.9657 366.268 78.5238 365.021 79.7962 363.508L85.3261 356.835C87.8442 353.736 89.0294 349.766 88.6216 345.795C88.2138 341.824 86.2463 338.177 83.1508 335.653ZM81.6189 355.274L77.5597 360.172C73.7148 364.763 66.0556 364.855 60.4337 360.172L44.5793 347.117C38.9728 342.525 37.5329 334.949 41.3778 330.281L45.483 325.399C49.3279 320.807 57.0178 320.7 62.609 325.399L78.4635 338.439C84.07 343.076 85.5099 350.606 81.6649 355.274H81.6189Z" fill="#C5E8C9"/>
<path d="M-28.6885 310.17L-1.62104 324.159C2.98831 326.534 8.35304 326.984 13.2938 325.408C18.2345 323.832 22.347 320.361 24.7266 315.757L29.9194 305.701C32.2972 301.1 32.7487 295.744 31.1745 290.81C29.6003 285.876 26.1294 281.769 21.525 279.392L-5.55796 265.403C-9.04813 263.607 -12.999 262.903 -16.8956 263.383C-20.7923 263.864 -24.4538 265.507 -27.402 268.097C-26.2403 268.087 -25.0854 268.273 -23.986 268.648C-23.2813 269.046 -21.581 270.301 -19.3905 271.893L-14.611 275.505C-11.9205 275.353 -9.23969 275.941 -6.8598 277.204L-1.94267 279.744L11.3842 286.616C12.6116 287.237 13.7502 288.019 14.7695 288.942C16.2493 290.2 17.4087 291.792 18.1518 293.585C18.8949 295.379 19.2005 297.323 19.0434 299.258C18.904 300.327 18.5775 301.363 18.0785 302.319L15.1525 307.951C14.0913 309.801 12.5089 311.299 10.6022 312.256C8.69553 313.214 6.54884 313.591 4.42963 313.339C2.68353 313.245 0.969694 312.83 -0.6255 312.114C-0.977822 311.976 -1.29937 311.823 -1.63638 311.655L-19.8957 302.227C-20.7156 301.787 -21.4948 301.275 -22.2242 300.697C-24.28 299.152 -25.87 297.071 -26.8197 294.682C-28.3706 294.252 -29.9743 294.04 -31.5838 294.054C-34.2287 294.037 -36.8044 294.899 -38.9061 296.503C-38.3564 299.408 -37.15 302.149 -35.3794 304.518C-33.6088 306.886 -31.3203 308.819 -28.6885 310.17Z" fill="#C5E8C9"/>
<path opacity="0.4" d="M-28.6885 310.17L-1.62104 324.159C2.98831 326.534 8.35304 326.984 13.2938 325.408C18.2345 323.832 22.347 320.361 24.7266 315.757L29.9194 305.701C32.2972 301.1 32.7487 295.744 31.1745 290.81C29.6003 285.876 26.1294 281.769 21.525 279.392L-5.55796 265.403C-9.04813 263.607 -12.999 262.903 -16.8956 263.383C-20.7923 263.864 -24.4538 265.507 -27.402 268.097C-26.2403 268.087 -25.0854 268.273 -23.986 268.648C-23.2813 269.046 -21.581 270.301 -19.3905 271.893L-14.611 275.505C-11.9205 275.353 -9.23969 275.941 -6.8598 277.204L-1.94267 279.744L11.3842 286.616C12.6116 287.237 13.7502 288.019 14.7695 288.942C16.2493 290.2 17.4087 291.792 18.1518 293.585C18.8949 295.379 19.2005 297.323 19.0434 299.258C18.904 300.327 18.5775 301.363 18.0785 302.319L15.1525 307.951C14.0913 309.801 12.5089 311.299 10.6022 312.256C8.69553 313.214 6.54884 313.591 4.42963 313.339C2.68353 313.245 0.969694 312.83 -0.6255 312.114C-0.977822 311.976 -1.29937 311.823 -1.63638 311.655L-19.8957 302.227C-20.7156 301.787 -21.4948 301.275 -22.2242 300.697C-24.28 299.152 -25.87 297.071 -26.8197 294.682C-28.3706 294.252 -29.9743 294.04 -31.5838 294.054C-34.2287 294.037 -36.8044 294.899 -38.9061 296.503C-38.3564 299.408 -37.15 302.149 -35.3794 304.518C-33.6088 306.886 -31.3203 308.819 -28.6885 310.17Z" fill="black"/>
<path opacity="0.4" d="M-23.3575 306.237L-2.35609 317.103C1.17722 318.96 5.30354 319.341 9.11734 318.161C12.9311 316.982 16.1209 314.339 17.9867 310.813L21.9848 303.16C23.7787 299.593 24.0847 295.461 22.8358 291.669C21.5869 287.877 18.8848 284.733 15.3214 282.927L-5.71072 272.107C-7.83192 270.992 -10.1874 270.396 -12.5838 270.367C-14.9802 270.337 -17.3494 270.876 -19.4972 271.938L-14.6108 275.504C-11.9203 275.353 -9.23949 275.94 -6.8596 277.203L-1.94246 279.744L11.4304 286.6C12.6538 287.226 13.7873 288.014 14.8004 288.942C16.2802 290.2 17.4396 291.791 18.1827 293.585C18.9258 295.378 19.2313 297.323 19.0743 299.258C18.9427 300.328 18.6158 301.366 18.1094 302.319L15.1834 307.951C14.1222 309.801 12.5398 311.298 10.6331 312.256C8.7264 313.214 6.57971 313.59 4.4605 313.338C2.71551 313.237 1.00301 312.822 -0.594629 312.114C-0.946951 311.976 -1.2685 311.823 -1.6055 311.655L-19.8802 302.242C-20.6972 301.805 -21.4716 301.292 -22.1933 300.712C-24.2491 299.167 -25.8391 297.085 -26.7888 294.697C-28.3397 294.267 -29.9434 294.055 -31.553 294.069C-31.3309 296.625 -30.4621 299.083 -29.0286 301.211C-27.595 303.339 -25.6436 305.069 -23.3575 306.237Z" fill="#C5E8C9"/>
<path d="M161.857 357.875C160.231 357.981 158.631 357.437 157.407 356.363C156.183 355.29 155.437 353.775 155.331 352.151C155.225 350.527 155.77 348.928 156.844 347.706C157.918 346.483 159.435 345.737 161.06 345.631L202.098 342.968C203.723 342.862 205.324 343.406 206.547 344.48C207.771 345.553 208.518 347.068 208.624 348.692C208.729 350.316 208.185 351.915 207.111 353.137C206.036 354.36 204.52 355.106 202.894 355.212L161.857 357.875Z" fill="#C5E8C9"/>
<path opacity="0.4" d="M161.857 357.875C160.231 357.981 158.631 357.437 157.407 356.363C156.183 355.29 155.437 353.775 155.331 352.151C155.225 350.527 155.77 348.928 156.844 347.706C157.918 346.483 159.435 345.737 161.06 345.631L202.098 342.968C203.723 342.862 205.324 343.406 206.547 344.48C207.771 345.553 208.518 347.068 208.624 348.692C208.729 350.316 208.185 351.915 207.111 353.137C206.036 354.36 204.52 355.106 202.894 355.212L161.857 357.875Z" fill="black"/>
<path opacity="0.4" d="M164.798 354.355C161.948 354.539 159.651 353.452 159.666 351.907C159.681 350.361 162.01 348.983 164.844 348.846L199.386 346.565C202.236 346.366 204.534 347.468 204.518 348.999C204.503 350.529 202.19 351.937 199.341 352.06L164.798 354.355Z" fill="#C5E8C9"/>
<path d="M78.1418 350.453C77.3371 350.471 76.5438 350.647 75.8074 350.971C75.0709 351.296 74.4056 351.762 73.8494 352.343C73.2932 352.924 72.8571 353.609 72.5659 354.359C72.2747 355.109 72.1341 355.908 72.1522 356.712C72.1704 357.516 72.3467 358.309 72.6713 359.045C72.996 359.78 73.4626 360.445 74.0444 361.001C74.6262 361.556 75.3117 361.992 76.0621 362.283C76.8124 362.574 77.6127 362.715 78.4174 362.696L119.517 361.748C120.321 361.729 121.114 361.553 121.851 361.229C122.587 360.904 123.253 360.438 123.809 359.857C124.365 359.276 124.801 358.591 125.092 357.841C125.384 357.091 125.524 356.292 125.506 355.488C125.488 354.684 125.312 353.891 124.987 353.156C124.662 352.42 124.196 351.755 123.614 351.199C123.032 350.644 122.347 350.208 121.596 349.917C120.846 349.626 120.046 349.486 119.241 349.504L78.1418 350.453Z" fill="#C5E8C9"/>
<path opacity="0.4" d="M78.1418 350.453C77.3371 350.471 76.5438 350.647 75.8074 350.971C75.0709 351.296 74.4056 351.762 73.8494 352.343C73.2932 352.924 72.8571 353.609 72.5659 354.359C72.2747 355.109 72.1341 355.908 72.1522 356.712C72.1704 357.516 72.3467 358.309 72.6713 359.045C72.996 359.78 73.4626 360.445 74.0444 361.001C74.6262 361.556 75.3117 361.992 76.0621 362.283C76.8124 362.574 77.6127 362.715 78.4174 362.696L119.517 361.748C120.321 361.729 121.114 361.553 121.851 361.229C122.587 360.904 123.253 360.438 123.809 359.857C124.365 359.276 124.801 358.591 125.092 357.841C125.384 357.091 125.524 356.292 125.506 355.488C125.488 354.684 125.312 353.891 124.987 353.156C124.662 352.42 124.196 351.755 123.614 351.199C123.032 350.644 122.347 350.208 121.596 349.917C120.846 349.626 120.046 349.486 119.241 349.504L78.1418 350.453Z" fill="black"/>
<path opacity="0.4" d="M81.3738 353.698C78.5246 353.698 76.334 355.044 76.4718 356.575C76.6097 358.105 79.0607 359.284 81.9099 359.223L116.529 358.488C119.379 358.488 121.569 357.141 121.416 355.611C121.263 354.08 118.827 352.886 115.978 352.948L81.3738 353.698Z" fill="#C5E8C9"/>
<path d="M19.0894 301.263C17.8564 300.205 16.2536 299.681 14.6334 299.804C13.0132 299.928 11.5085 300.689 10.4501 301.921C9.39186 303.153 8.8665 304.754 8.99002 306.373C9.11355 307.992 9.87574 309.495 11.1086 310.553L42.4039 337.29C43.639 338.348 45.2439 338.872 46.8656 338.747C48.4872 338.622 49.9928 337.859 51.0512 336.625C52.1095 335.391 52.6339 333.787 52.509 332.167C52.384 330.547 51.62 329.042 50.3849 327.985L19.0894 301.263Z" fill="#C5E8C9"/>
<path opacity="0.4" d="M19.0894 301.263C17.8564 300.205 16.2536 299.681 14.6334 299.804C13.0132 299.928 11.5085 300.689 10.4501 301.921C9.39186 303.153 8.8665 304.754 8.99002 306.373C9.11355 307.992 9.87574 309.495 11.1086 310.553L42.4039 337.29C43.639 338.348 45.2439 338.872 46.8656 338.747C48.4872 338.622 49.9928 337.859 51.0512 336.625C52.1095 335.391 52.6339 333.787 52.509 332.167C52.384 330.547 51.62 329.042 50.3849 327.985L19.0894 301.263Z" fill="black"/>
<path opacity="0.4" d="M19.3957 305.839C17.2358 303.972 14.8004 303.467 13.8354 304.706C12.8703 305.946 13.9425 308.456 16.1024 310.308L42.3579 332.852C44.5178 334.719 46.9534 335.209 47.9185 333.985C48.8836 332.76 47.8266 330.235 45.6667 328.383L19.3957 305.839Z" fill="#C5E8C9"/>
<path d="M211.381 322.23C232.41 330.106 253.851 336.835 275.611 342.387C276.387 345.254 277.051 348.116 277.602 350.973C220.71 336.449 205.606 325.077 205.606 325.077L211.381 322.23Z" fill="#C5E8C9"/>
<path opacity="0.2" d="M211.381 322.23C232.41 330.106 253.851 336.835 275.611 342.387C276.387 345.254 277.051 348.116 277.602 350.973C220.71 336.449 205.606 325.077 205.606 325.077L211.381 322.23Z" fill="black"/>
<path d="M205.575 325.077C205.575 325.077 233.286 336.586 276.989 348.034C277.357 349.687 277.694 351.34 277.97 352.993C264.183 352.993 250.397 352.993 239.674 362.176C256.524 369.829 265.715 385.134 267.247 403.499C259.588 403.499 251.929 398.908 244.269 403.499C250.902 413.922 256.953 425.508 259.143 437.17C220.036 427.788 188.679 417.886 188.679 417.886L205.575 325.077Z" fill="#C5E8C9"/>
<path opacity="0.4" d="M205.575 325.077C205.575 325.077 233.286 336.586 276.989 348.034C277.357 349.687 277.694 351.34 277.97 352.993C264.183 352.993 250.397 352.993 239.674 362.176C256.524 369.829 265.715 385.134 267.247 403.499C259.588 403.499 251.929 398.908 244.269 403.499C250.902 413.922 256.953 425.508 259.143 437.17C220.036 427.788 188.679 417.886 188.679 417.886L205.575 325.077Z" fill="black"/>
</g>
<g clip-path="url(#clip3_450_9913)" class="hand-el-2">
<path d="M321.719 352.946C393.409 366.154 434.615 359.496 434.615 359.496L438.812 363.981C438.812 363.981 411.439 379.638 319.896 360.92C303.996 357.675 290.194 354.476 278.23 351.431C277.679 348.564 277.015 345.702 276.239 342.845C290.041 346.411 305.405 349.946 321.719 352.946Z" fill="#C5E8C9"/>
<path opacity="0.2" d="M321.719 352.946C393.409 366.154 434.615 359.496 434.615 359.496L438.812 363.981C438.812 363.981 411.439 379.638 319.896 360.92C303.996 357.675 290.194 354.476 278.23 351.431C277.679 348.564 277.015 345.702 276.239 342.845C290.041 346.411 305.405 349.946 321.719 352.946Z" fill="black"/>
<path d="M267.875 403.897C266.343 385.531 257.152 370.226 240.302 362.573C251.025 353.39 264.811 353.39 278.598 353.39C278.322 351.738 277.985 350.085 277.617 348.432C292.706 352.38 309.679 356.298 328.168 359.742C399.935 373.118 438.889 363.981 438.889 363.981L436.438 453.928C436.438 453.928 378.228 459.04 317.644 449.337C298.282 446.276 278.215 441.96 259.848 437.552C257.658 425.875 251.607 414.289 244.974 403.881C252.557 399.305 260.216 403.897 267.875 403.897Z" fill="#C5E8C9"/>
<path opacity="0.4" d="M267.875 403.897C266.343 385.531 257.152 370.226 240.302 362.573C251.025 353.39 264.811 353.39 278.598 353.39C278.322 351.738 277.985 350.085 277.617 348.432C292.706 352.38 309.679 356.298 328.168 359.742C399.935 373.118 438.889 363.981 438.889 363.981L436.438 453.928C436.438 453.928 378.228 459.04 317.644 449.337C298.282 446.276 278.215 441.96 259.848 437.552C257.658 425.875 251.607 414.289 244.974 403.881C252.557 399.305 260.216 403.897 267.875 403.897Z" fill="black"/>
<path opacity="0.2" d="M336.808 361.272L372.974 369.782L373.127 369.001L319.957 360.079L319.59 361.716L379.27 379.409L379.699 376.792L321.244 373.562C321.091 373.562 320.172 373.562 320.003 373.486H319.774C315.484 375.338 320.708 378.077 319.084 376.838L331.737 379.592L346.045 382.653L374.659 388.867L375.287 384.965L298.864 375.904L298.205 380.572C319.942 384.398 363.722 391.944 385.52 395.647L386.01 390.382L305.482 388.852L304.976 394.377L372.699 405.779L373.296 400.04L307.933 397.117L307.197 403.04C327.663 407.325 368.869 415.835 389.35 419.997L390.284 414.09L287.789 402.81L286.747 408.412L369.681 430.236L370.784 424.88L314.519 416.462L313.462 421.635L369.773 436.037L370.692 431.155L300.319 423.15L299.676 427.374L369.911 440.506C369.589 440.353 370.232 440.766 369.129 440.108C367.475 436.542 370.661 437.216 369.895 437.047H370.064C365.591 437.139 352.371 436.894 347.699 436.864L316.312 436.358L315.99 439.419L369.972 449.337L370.278 447.21L306.385 441.47L306.202 442.588L360.49 454.143L306.447 441.47L306.263 442.588L370.064 449.352L370.37 447.225L316.572 436.511L316.25 439.572L347.638 440.384C352.601 440.384 365.576 440.873 370.386 440.782H370.661C369.911 440.598 373.158 441.256 371.473 437.721C370.355 437.062 370.967 437.476 370.615 437.307H370.493H370.248L369.773 437.216L362.114 435.685L300.518 423.548L299.86 427.757L370.094 436.037L371.013 431.155L314.826 416.477L313.753 421.65L370.003 430.252L371.105 424.91L288.233 402.856L287.191 408.458L389.595 419.997L390.529 414.09C370.064 409.804 328.873 401.295 308.377 397.132L307.641 403.055L373.02 405.779L373.572 400.07L305.803 388.883L305.298 394.408L385.842 395.709L386.332 390.444C364.564 386.786 320.723 379.485 299.017 375.95L298.359 380.541L374.874 388.852L375.517 384.949C359.709 381.72 335.444 376.608 319.881 373.394C318.242 372.108 323.435 374.924 319.161 376.73H319.283H319.559C339.596 377.756 359.586 378.521 379.607 379.317L391.019 379.761L380.036 376.7L320.172 359.972L319.804 361.624L372.974 369.66L373.127 368.879L336.808 361.272Z" fill="#C5E8C9"/>
</g>
</g>
<defs>
<clipPath id="clip0_450_9913">
<rect width="520" height="662" fill="white"/>
</clipPath>
<clipPath id="clip1_450_9913">
<rect width="368.835" height="661.938" fill="white" transform="matrix(-1 0 0 1 520 0)"/>
</clipPath>
<clipPath id="clip2_450_9913">
<rect width="323.968" height="173.91" fill="white" transform="matrix(-1 0 0 1 277.97 263.245)"/>
</clipPath>
<clipPath id="clip3_450_9913">
<rect width="198.511" height="112.445" fill="white" transform="matrix(-1 0 0 1 438.812 342.83)"/>
</clipPath>
</defs>
</svg>
